<?xml version="1.0" encoding="utf-8" standalone="no"?>
<!DOCTYPE svg PUBLIC "-//W3C//DTD SVG 1.1//EN"
  "http://www.w3.org/Graphics/SVG/1.1/DTD/svg11.dtd">
<!-- Created with matplotlib (https://matplotlib.org/) -->
<svg height="576pt" version="1.1" viewBox="0 0 504 576" width="504pt" xmlns="http://www.w3.org/2000/svg" xmlns:xlink="http://www.w3.org/1999/xlink">
 <metadata>
  <rdf:RDF xmlns:cc="http://creativecommons.org/ns#" xmlns:dc="http://purl.org/dc/elements/1.1/" xmlns:rdf="http://www.w3.org/1999/02/22-rdf-syntax-ns#">
   <cc:Work>
    <dc:type rdf:resource="http://purl.org/dc/dcmitype/StillImage"/>
    <dc:date>2020-12-31T16:05:11.032360</dc:date>
    <dc:format>image/svg+xml</dc:format>
    <dc:creator>
     <cc:Agent>
      <dc:title>Matplotlib v3.3.1, https://matplotlib.org/</dc:title>
     </cc:Agent>
    </dc:creator>
   </cc:Work>
  </rdf:RDF>
 </metadata>
 <defs>
  <style type="text/css">*{stroke-linecap:butt;stroke-linejoin:round;}</style>
 </defs>
 <g id="figure_1">
  <g id="patch_1">
   <path d="M 0 576 
L 504 576 
L 504 0 
L 0 0 
z
" style="fill:#ffffff;"/>
  </g>
  <g id="axes_1">
   <g id="PolyCollection_1">
    <defs>
     <path d="M 57.320552 -509.749531 
L 57.320552 -509.749531 
L 61.632361 -498.212076 
L 65.94417 -487.14389 
L 70.255978 -476.995156 
L 74.567787 -468.178659 
L 78.879595 -461.052996 
L 83.191404 -455.907994 
L 87.503213 -452.952919 
L 91.815021 -452.307963 
L 96.12683 -453.99936 
L 100.438638 -457.958314 
L 104.750447 -464.0238 
L 109.062256 -471.949114 
L 113.374064 -481.411906 
L 117.685873 -492.027289 
L 121.997681 -503.363498 
L 126.30949 -514.959451 
L 130.621299 -526.343497 
L 134.933107 -537.052608 
L 139.244916 -546.651205 
L 143.556724 -554.748881 
L 147.868533 -561.016274 
L 152.180342 -565.198466 
L 156.49215 -567.125353 
L 160.803959 -566.718563 
L 165.115767 -563.994639 
L 169.427576 -559.064375 
L 173.739385 -552.1283 
L 178.051193 -543.468531 
L 182.363002 -533.437291 
L 186.67481 -522.442585 
L 190.986619 -510.931608 
L 195.298428 -499.372552 
L 199.610236 -488.235564 
L 203.922045 -477.973625 
L 208.233853 -469.004126 
L 212.545662 -461.691886 
L 216.857471 -456.334322 
L 221.169279 -453.149343 
L 225.481088 -452.266495 
L 229.792896 -453.721686 
L 234.104705 -457.455729 
L 238.416514 -463.316746 
L 242.728322 -471.066348 
L 247.040131 -480.389334 
L 251.351939 -490.906502 
L 255.663748 -502.190084 
L 259.975557 -513.781135 
L 264.287365 -525.208206 
L 268.599174 -536.006519 
L 272.910982 -545.736866 
L 277.222791 -554.003481 
L 281.5346 -560.47013 
L 285.846408 -564.873793 
L 290.158217 -567.035357 
L 294.470025 -566.866903 
L 298.781834 -564.375283 
L 303.093643 -559.661839 
L 307.405451 -552.918285 
L 311.71726 -544.418905 
L 316.029068 -534.509398 
L 320.340877 -523.592819 
L 324.652686 -512.113185 
L 328.964494 -500.537413 
L 333.276303 -489.33633 
L 337.588111 -478.965524 
L 341.89992 -469.846814 
L 346.211729 -462.351088 
L 350.523537 -456.783225 
L 354.835346 -453.36969 
L 359.147154 -452.249323 
L 363.458963 -453.467694 
L 367.770772 -456.975246 
L 372.08258 -462.629316 
L 376.394389 -470.199932 
L 380.706197 -479.379171 
L 385.018006 -489.79368 
L 389.329815 -501.019864 
L 393.641623 -512.601115 
L 397.953432 -524.066382 
L 402.26524 -534.949332 
L 406.577049 -544.807316 
L 410.888858 -553.239376 
L 415.200666 -559.90255 
L 419.512475 -564.525822 
L 423.824283 -566.921148 
L 428.136092 -566.991102 
L 432.447901 -564.732838 
L 436.759709 -560.238208 
L 441.071518 -553.690024 
L 445.383326 -545.354625 
L 449.695135 -535.57104 
L 454.006944 -524.737202 
L 458.318752 -513.293763 
L 462.630561 -501.706168 
L 466.942369 -490.445724 
L 471.254178 -479.970435 
L 475.565987 -470.706367 
L 479.877795 -463.030324 
L 484.189604 -457.254516 
L 484.189604 -509.749531 
L 484.189604 -509.749531 
L 479.877795 -509.749531 
L 475.565987 -509.749531 
L 471.254178 -509.749531 
L 466.942369 -509.749531 
L 462.630561 -509.749531 
L 458.318752 -509.749531 
L 454.006944 -509.749531 
L 449.695135 -509.749531 
L 445.383326 -509.749531 
L 441.071518 -509.749531 
L 436.759709 -509.749531 
L 432.447901 -509.749531 
L 428.136092 -509.749531 
L 423.824283 -509.749531 
L 419.512475 -509.749531 
L 415.200666 -509.749531 
L 410.888858 -509.749531 
L 406.577049 -509.749531 
L 402.26524 -509.749531 
L 397.953432 -509.749531 
L 393.641623 -509.749531 
L 389.329815 -509.749531 
L 385.018006 -509.749531 
L 380.706197 -509.749531 
L 376.394389 -509.749531 
L 372.08258 -509.749531 
L 367.770772 -509.749531 
L 363.458963 -509.749531 
L 359.147154 -509.749531 
L 354.835346 -509.749531 
L 350.523537 -509.749531 
L 346.211729 -509.749531 
L 341.89992 -509.749531 
L 337.588111 -509.749531 
L 333.276303 -509.749531 
L 328.964494 -509.749531 
L 324.652686 -509.749531 
L 320.340877 -509.749531 
L 316.029068 -509.749531 
L 311.71726 -509.749531 
L 307.405451 -509.749531 
L 303.093643 -509.749531 
L 298.781834 -509.749531 
L 294.470025 -509.749531 
L 290.158217 -509.749531 
L 285.846408 -509.749531 
L 281.5346 -509.749531 
L 277.222791 -509.749531 
L 272.910982 -509.749531 
L 268.599174 -509.749531 
L 264.287365 -509.749531 
L 259.975557 -509.749531 
L 255.663748 -509.749531 
L 251.351939 -509.749531 
L 247.040131 -509.749531 
L 242.728322 -509.749531 
L 238.416514 -509.749531 
L 234.104705 -509.749531 
L 229.792896 -509.749531 
L 225.481088 -509.749531 
L 221.169279 -509.749531 
L 216.857471 -509.749531 
L 212.545662 -509.749531 
L 208.233853 -509.749531 
L 203.922045 -509.749531 
L 199.610236 -509.749531 
L 195.298428 -509.749531 
L 190.986619 -509.749531 
L 186.67481 -509.749531 
L 182.363002 -509.749531 
L 178.051193 -509.749531 
L 173.739385 -509.749531 
L 169.427576 -509.749531 
L 165.115767 -509.749531 
L 160.803959 -509.749531 
L 156.49215 -509.749531 
L 152.180342 -509.749531 
L 147.868533 -509.749531 
L 143.556724 -509.749531 
L 139.244916 -509.749531 
L 134.933107 -509.749531 
L 130.621299 -509.749531 
L 126.30949 -509.749531 
L 121.997681 -509.749531 
L 117.685873 -509.749531 
L 113.374064 -509.749531 
L 109.062256 -509.749531 
L 104.750447 -509.749531 
L 100.438638 -509.749531 
L 96.12683 -509.749531 
L 91.815021 -509.749531 
L 87.503213 -509.749531 
L 83.191404 -509.749531 
L 78.879595 -509.749531 
L 74.567787 -509.749531 
L 70.255978 -509.749531 
L 65.94417 -509.749531 
L 61.632361 -509.749531 
L 57.320552 -509.749531 
z
" id="mdf5317f8ff" style="stroke:#4169e1;stroke-opacity:0.35;stroke-width:2;"/>
    </defs>
    <g clip-path="url(#pe86d03189f)">
     <use style="fill:#4169e1;fill-opacity:0.35;stroke:#4169e1;stroke-opacity:0.35;stroke-width:2;" x="0" xlink:href="#mdf5317f8ff" y="576"/>
    </g>
   </g>
   <g id="line2d_1">
    <path clip-path="url(#pe86d03189f)" d="M 57.320552 66.250469 
L 61.632361 77.787924 
L 65.94417 88.85611 
L 70.255978 99.004844 
L 74.567787 107.821341 
L 78.879595 114.947004 
L 83.191404 120.092006 
L 87.503213 123.047081 
L 91.815021 123.692037 
L 96.12683 122.00064 
L 100.438638 118.041686 
L 104.750447 111.9762 
L 109.062256 104.050886 
L 113.374064 94.588094 
L 117.685873 83.972711 
L 121.997681 72.636502 
L 126.30949 61.040549 
L 130.621299 49.656503 
L 134.933107 38.947392 
L 139.244916 29.348795 
L 143.556724 21.251119 
L 147.868533 14.983726 
L 152.180342 10.801534 
L 156.49215 8.874647 
L 160.803959 9.281437 
L 165.115767 12.005361 
L 169.427576 16.935625 
L 173.739385 23.8717 
L 178.051193 32.531469 
L 182.363002 42.562709 
L 186.67481 53.557415 
L 190.986619 65.068392 
L 195.298428 76.627448 
L 199.610236 87.764436 
L 203.922045 98.026375 
L 208.233853 106.995874 
L 212.545662 114.308114 
L 216.857471 119.665678 
L 221.169279 122.850657 
L 225.481088 123.733505 
L 229.792896 122.278314 
L 234.104705 118.544271 
L 238.416514 112.683254 
L 242.728322 104.933652 
L 247.040131 95.610666 
L 251.351939 85.093498 
L 255.663748 73.809916 
L 259.975557 62.218865 
L 264.287365 50.791794 
L 268.599174 39.993481 
L 272.910982 30.263134 
L 277.222791 21.996519 
L 281.5346 15.52987 
L 285.846408 11.126207 
L 290.158217 8.964643 
L 294.470025 9.133097 
L 298.781834 11.624717 
L 303.093643 16.338161 
L 307.405451 23.081715 
L 311.71726 31.581095 
L 316.029068 41.490602 
L 320.340877 52.407181 
L 324.652686 63.886815 
L 328.964494 75.462587 
L 333.276303 86.66367 
L 337.588111 97.034476 
L 341.89992 106.153186 
L 346.211729 113.648912 
L 350.523537 119.216775 
L 354.835346 122.63031 
L 359.147154 123.750677 
L 363.458963 122.532306 
L 367.770772 119.024754 
L 372.08258 113.370684 
L 376.394389 105.800068 
L 380.706197 96.620829 
L 385.018006 86.20632 
L 389.329815 74.980136 
L 393.641623 63.398885 
L 397.953432 51.933618 
L 402.26524 41.050668 
L 406.577049 31.192684 
L 410.888858 22.760624 
L 415.200666 16.09745 
L 419.512475 11.474178 
L 423.824283 9.078852 
L 428.136092 9.008898 
L 432.447901 11.267162 
L 436.759709 15.761792 
L 441.071518 22.309976 
L 445.383326 30.645375 
L 449.695135 40.42896 
L 454.006944 51.262798 
L 458.318752 62.706237 
L 462.630561 74.293832 
L 466.942369 85.554276 
L 471.254178 96.029565 
L 475.565987 105.293633 
L 479.877795 112.969676 
L 484.189604 118.745484 
" style="fill:none;stroke:#4169e1;stroke-linecap:square;stroke-width:2;"/>
   </g>
   <g id="line2d_2">
    <path clip-path="url(#pe86d03189f)" d="M 57.320552 66.250469 
L 484.189604 66.250469 
" style="fill:none;stroke:#000000;stroke-linecap:square;stroke-width:3;"/>
   </g>
   <g id="line2d_3">
    <path d="M 57.320552 77.75051 
" style="fill:none;stroke:#1f77b4;stroke-linecap:square;stroke-width:1.5;"/>
    <defs>
     <path d="M 0 -10 
L -10 10 
L 10 10 
z
" id="mc986941ed6" style="stroke:#000000;stroke-linejoin:miter;"/>
    </defs>
    <g>
     <use style="fill:#c0c0c0;stroke:#000000;stroke-linejoin:miter;" x="57.320552" xlink:href="#mc986941ed6" y="77.75051"/>
    </g>
   </g>
   <g id="line2d_4">
    <path d="M 46.648826 91.55056 
L 67.992279 91.55056 
" style="fill:none;stroke:#c0c0c0;stroke-width:5;"/>
   </g>
   <g id="line2d_5">
    <path d="M 46.648826 89.250552 
L 67.992279 89.250552 
" style="fill:none;stroke:#000000;stroke-width:1.5;"/>
   </g>
   <g id="line2d_6">
    <path d="M 484.189604 74.411789 
" style="fill:none;stroke:#ff7f0e;stroke-linecap:square;stroke-width:1.5;"/>
    <defs>
     <path d="M 0 -7.5 
L -7.5 7.5 
L 7.5 7.5 
z
" id="mab35816dcb" style="stroke:#000000;stroke-linejoin:miter;"/>
    </defs>
    <g>
     <use style="fill:#c0c0c0;stroke:#000000;stroke-linejoin:miter;" x="484.189604" xlink:href="#mab35816dcb" y="74.411789"/>
    </g>
   </g>
   <g id="line2d_7">
    <path d="M 488.458294 84.853477 
" style="fill:none;stroke:#2ca02c;stroke-linecap:square;stroke-width:1.5;"/>
    <defs>
     <path d="M 0 3 
C 0.795609 3 1.55874 2.683901 2.12132 2.12132 
C 2.683901 1.55874 3 0.795609 3 0 
C 3 -0.795609 2.683901 -1.55874 2.12132 -2.12132 
C 1.55874 -2.683901 0.795609 -3 0 -3 
C -0.795609 -3 -1.55874 -2.683901 -2.12132 -2.12132 
C -2.683901 -1.55874 -3 -0.795609 -3 0 
C -3 0.795609 -2.683901 1.55874 -2.12132 2.12132 
C -1.55874 2.683901 -0.795609 3 0 3 
z
" id="m85a382708b"/>
    </defs>
    <g>
     <use x="488.458294" xlink:href="#m85a382708b" y="84.853477"/>
    </g>
   </g>
   <g id="line2d_8">
    <path d="M 479.920913 84.853477 
" style="fill:none;stroke:#d62728;stroke-linecap:square;stroke-width:1.5;"/>
    <g>
     <use x="479.920913" xlink:href="#m85a382708b" y="84.853477"/>
    </g>
   </g>
   <g id="line2d_9">
    <path d="M 473.517877 91.55056 
L 494.86133 91.55056 
" style="fill:none;stroke:#c0c0c0;stroke-width:5;"/>
   </g>
   <g id="line2d_10">
    <path d="M 473.517877 89.250552 
L 494.86133 89.250552 
" style="fill:none;stroke:#000000;stroke-width:1.5;"/>
   </g>
  </g>
  <g id="axes_2">
   <g id="patch_2">
    <path d="M 57.320552 264.881635 
L 484.189604 264.881635 
L 484.189604 138.381177 
L 57.320552 138.381177 
z
" style="fill:#ffffff;"/>
   </g>
   <g id="PolyCollection_2">
    <defs>
     <path d="M 57.320552 -376.959539 
L 57.320552 -431.868802 
L 61.632361 -430.698713 
L 65.94417 -427.236039 
L 70.255978 -421.621619 
L 74.567787 -414.08381 
L 78.879595 -404.929203 
L 83.191404 -394.530148 
L 87.503213 -383.309612 
L 91.815021 -371.723972 
L 96.12683 -360.244459 
L 100.438638 -349.337985 
L 104.750447 -339.448155 
L 109.062256 -330.977224 
L 113.374064 -324.269733 
L 117.685873 -319.598501 
L 121.997681 -317.153524 
L 126.30949 -317.034247 
L 130.621299 -319.245521 
L 134.933107 -323.697406 
L 139.244916 -330.208829 
L 143.556724 -338.514946 
L 147.868533 -348.277919 
L 152.180342 -359.100652 
L 156.49215 -370.542947 
L 160.803959 -382.139405 
L 165.115767 -393.418356 
L 169.427576 -403.921047 
L 173.739385 -413.220294 
L 178.051193 -420.937865 
L 182.363002 -426.759859 
L 186.67481 -430.449475 
L 190.986619 -431.856643 
L 195.298428 -430.924128 
L 199.610236 -427.689859 
L 203.922045 -422.285385 
L 208.233853 -414.930525 
L 212.545662 -405.924428 
L 216.857471 -395.633404 
L 221.169279 -384.476025 
L 225.481088 -372.906101 
L 229.792896 -361.394221 
L 234.104705 -350.408616 
L 238.416514 -340.396109 
L 242.728322 -331.763943 
L 247.040131 -324.86322 
L 251.351939 -319.974616 
L 255.663748 -317.296969 
L 259.975557 -316.939187 
L 264.287365 -318.915823 
L 268.599174 -323.146481 
L 272.910982 -329.459084 
L 277.222791 -337.596876 
L 281.5346 -347.228865 
L 285.846408 -357.963283 
L 290.158217 -369.363523 
L 294.470025 -380.965898 
L 298.781834 -392.298497 
L 303.093643 -402.900384 
L 307.405451 -412.340342 
L 311.71726 -420.234414 
L 316.029068 -426.261521 
L 320.340877 -430.176519 
L 324.652686 -431.820171 
L 328.964494 -431.125623 
L 333.276303 -428.121126 
L 337.588111 -422.928883 
L 341.89992 -415.760082 
L 346.211729 -406.906301 
L 350.523537 -396.727657 
L 354.835346 -385.638151 
L 359.147154 -374.088832 
L 363.458963 -362.549452 
L 367.770772 -351.489359 
L 372.08258 -341.358406 
L 376.394389 -332.568655 
L 380.706197 -325.477616 
L 385.018006 -320.373706 
L 389.329815 -317.464521 
L 393.641623 -316.868386 
L 397.953432 -318.609549 
L 402.26524 -322.61719 
L 406.577049 -328.728305 
L 410.888858 -336.694333 
L 415.200666 -346.191267 
L 419.512475 -356.832833 
L 423.824283 -368.1862 
L 428.136092 -379.789588 
L 432.447901 -391.171046 
L 436.759709 -401.867648 
L 441.071518 -411.444326 
L 445.383326 -419.511563 
L 449.695135 -425.741235 
L 454.006944 -429.87996 
L 458.318752 -431.759402 
L 462.630561 -431.303115 
L 466.942369 -428.52966 
L 471.254178 -423.551843 
L 475.565987 -416.572128 
L 479.877795 -407.874407 
L 484.189604 -397.812445 
L 484.189604 -376.959539 
L 484.189604 -376.959539 
L 479.877795 -376.959539 
L 475.565987 -376.959539 
L 471.254178 -376.959539 
L 466.942369 -376.959539 
L 462.630561 -376.959539 
L 458.318752 -376.959539 
L 454.006944 -376.959539 
L 449.695135 -376.959539 
L 445.383326 -376.959539 
L 441.071518 -376.959539 
L 436.759709 -376.959539 
L 432.447901 -376.959539 
L 428.136092 -376.959539 
L 423.824283 -376.959539 
L 419.512475 -376.959539 
L 415.200666 -376.959539 
L 410.888858 -376.959539 
L 406.577049 -376.959539 
L 402.26524 -376.959539 
L 397.953432 -376.959539 
L 393.641623 -376.959539 
L 389.329815 -376.959539 
L 385.018006 -376.959539 
L 380.706197 -376.959539 
L 376.394389 -376.959539 
L 372.08258 -376.959539 
L 367.770772 -376.959539 
L 363.458963 -376.959539 
L 359.147154 -376.959539 
L 354.835346 -376.959539 
L 350.523537 -376.959539 
L 346.211729 -376.959539 
L 341.89992 -376.959539 
L 337.588111 -376.959539 
L 333.276303 -376.959539 
L 328.964494 -376.959539 
L 324.652686 -376.959539 
L 320.340877 -376.959539 
L 316.029068 -376.959539 
L 311.71726 -376.959539 
L 307.405451 -376.959539 
L 303.093643 -376.959539 
L 298.781834 -376.959539 
L 294.470025 -376.959539 
L 290.158217 -376.959539 
L 285.846408 -376.959539 
L 281.5346 -376.959539 
L 277.222791 -376.959539 
L 272.910982 -376.959539 
L 268.599174 -376.959539 
L 264.287365 -376.959539 
L 259.975557 -376.959539 
L 255.663748 -376.959539 
L 251.351939 -376.959539 
L 247.040131 -376.959539 
L 242.728322 -376.959539 
L 238.416514 -376.959539 
L 234.104705 -376.959539 
L 229.792896 -376.959539 
L 225.481088 -376.959539 
L 221.169279 -376.959539 
L 216.857471 -376.959539 
L 212.545662 -376.959539 
L 208.233853 -376.959539 
L 203.922045 -376.959539 
L 199.610236 -376.959539 
L 195.298428 -376.959539 
L 190.986619 -376.959539 
L 186.67481 -376.959539 
L 182.363002 -376.959539 
L 178.051193 -376.959539 
L 173.739385 -376.959539 
L 169.427576 -376.959539 
L 165.115767 -376.959539 
L 160.803959 -376.959539 
L 156.49215 -376.959539 
L 152.180342 -376.959539 
L 147.868533 -376.959539 
L 143.556724 -376.959539 
L 139.244916 -376.959539 
L 134.933107 -376.959539 
L 130.621299 -376.959539 
L 126.30949 -376.959539 
L 121.997681 -376.959539 
L 117.685873 -376.959539 
L 113.374064 -376.959539 
L 109.062256 -376.959539 
L 104.750447 -376.959539 
L 100.438638 -376.959539 
L 96.12683 -376.959539 
L 91.815021 -376.959539 
L 87.503213 -376.959539 
L 83.191404 -376.959539 
L 78.879595 -376.959539 
L 74.567787 -376.959539 
L 70.255978 -376.959539 
L 65.94417 -376.959539 
L 61.632361 -376.959539 
L 57.320552 -376.959539 
z
" id="m9d99014ddc" style="stroke:#228b22;stroke-opacity:0.35;"/>
    </defs>
    <g clip-path="url(#p4cd9e0190e)">
     <use style="fill:#228b22;fill-opacity:0.35;stroke:#228b22;stroke-opacity:0.35;" x="0" xlink:href="#m9d99014ddc" y="576"/>
    </g>
   </g>
   <g id="matplotlib.axis_1">
    <g id="xtick_1">
     <g id="line2d_11">
      <defs>
       <path d="M 0 0 
L 0 3.5 
" id="m4490743e17" style="stroke:#000000;stroke-width:0.8;"/>
      </defs>
      <g>
       <use style="stroke:#000000;stroke-width:0.8;" x="57.320552" xlink:href="#m4490743e17" y="264.881635"/>
      </g>
     </g>
    </g>
    <g id="xtick_2">
     <g id="line2d_12">
      <g>
       <use style="stroke:#000000;stroke-width:0.8;" x="142.694363" xlink:href="#m4490743e17" y="264.881635"/>
      </g>
     </g>
    </g>
    <g id="xtick_3">
     <g id="line2d_13">
      <g>
       <use style="stroke:#000000;stroke-width:0.8;" x="228.068173" xlink:href="#m4490743e17" y="264.881635"/>
      </g>
     </g>
    </g>
    <g id="xtick_4">
     <g id="line2d_14">
      <g>
       <use style="stroke:#000000;stroke-width:0.8;" x="313.441983" xlink:href="#m4490743e17" y="264.881635"/>
      </g>
     </g>
    </g>
    <g id="xtick_5">
     <g id="line2d_15">
      <g>
       <use style="stroke:#000000;stroke-width:0.8;" x="398.815794" xlink:href="#m4490743e17" y="264.881635"/>
      </g>
     </g>
    </g>
    <g id="xtick_6">
     <g id="line2d_16">
      <g>
       <use style="stroke:#000000;stroke-width:0.8;" x="484.189604" xlink:href="#m4490743e17" y="264.881635"/>
      </g>
     </g>
    </g>
   </g>
   <g id="matplotlib.axis_2">
    <g id="ytick_1">
     <g id="line2d_17">
      <defs>
       <path d="M 0 0 
L -3.5 0 
" id="m52962758f4" style="stroke:#000000;stroke-width:0.8;"/>
      </defs>
      <g>
       <use style="stroke:#000000;stroke-width:0.8;" x="57.320552" xlink:href="#m52962758f4" y="245.068945"/>
      </g>
     </g>
     <g id="text_1">
      <!-- -4e-02 -->
      <g transform="translate(17.864302 248.868164)scale(0.1 -0.1)">
       <defs>
        <path d="M 4.890625 31.390625 
L 31.203125 31.390625 
L 31.203125 23.390625 
L 4.890625 23.390625 
z
" id="DejaVuSans-45"/>
        <path d="M 37.796875 64.3125 
L 12.890625 25.390625 
L 37.796875 25.390625 
z
M 35.203125 72.90625 
L 47.609375 72.90625 
L 47.609375 25.390625 
L 58.015625 25.390625 
L 58.015625 17.1875 
L 47.609375 17.1875 
L 47.609375 0 
L 37.796875 0 
L 37.796875 17.1875 
L 4.890625 17.1875 
L 4.890625 26.703125 
z
" id="DejaVuSans-52"/>
        <path d="M 56.203125 29.59375 
L 56.203125 25.203125 
L 14.890625 25.203125 
Q 15.484375 15.921875 20.484375 11.0625 
Q 25.484375 6.203125 34.421875 6.203125 
Q 39.59375 6.203125 44.453125 7.46875 
Q 49.3125 8.734375 54.109375 11.28125 
L 54.109375 2.78125 
Q 49.265625 0.734375 44.1875 -0.34375 
Q 39.109375 -1.421875 33.890625 -1.421875 
Q 20.796875 -1.421875 13.15625 6.1875 
Q 5.515625 13.8125 5.515625 26.8125 
Q 5.515625 40.234375 12.765625 48.109375 
Q 20.015625 56 32.328125 56 
Q 43.359375 56 49.78125 48.890625 
Q 56.203125 41.796875 56.203125 29.59375 
z
M 47.21875 32.234375 
Q 47.125 39.59375 43.09375 43.984375 
Q 39.0625 48.390625 32.421875 48.390625 
Q 24.90625 48.390625 20.390625 44.140625 
Q 15.875 39.890625 15.1875 32.171875 
z
" id="DejaVuSans-101"/>
        <path d="M 31.78125 66.40625 
Q 24.171875 66.40625 20.328125 58.90625 
Q 16.5 51.421875 16.5 36.375 
Q 16.5 21.390625 20.328125 13.890625 
Q 24.171875 6.390625 31.78125 6.390625 
Q 39.453125 6.390625 43.28125 13.890625 
Q 47.125 21.390625 47.125 36.375 
Q 47.125 51.421875 43.28125 58.90625 
Q 39.453125 66.40625 31.78125 66.40625 
z
M 31.78125 74.21875 
Q 44.046875 74.21875 50.515625 64.515625 
Q 56.984375 54.828125 56.984375 36.375 
Q 56.984375 17.96875 50.515625 8.265625 
Q 44.046875 -1.421875 31.78125 -1.421875 
Q 19.53125 -1.421875 13.0625 8.265625 
Q 6.59375 17.96875 6.59375 36.375 
Q 6.59375 54.828125 13.0625 64.515625 
Q 19.53125 74.21875 31.78125 74.21875 
z
" id="DejaVuSans-48"/>
        <path d="M 19.1875 8.296875 
L 53.609375 8.296875 
L 53.609375 0 
L 7.328125 0 
L 7.328125 8.296875 
Q 12.9375 14.109375 22.625 23.890625 
Q 32.328125 33.6875 34.8125 36.53125 
Q 39.546875 41.84375 41.421875 45.53125 
Q 43.3125 49.21875 43.3125 52.78125 
Q 43.3125 58.59375 39.234375 62.25 
Q 35.15625 65.921875 28.609375 65.921875 
Q 23.96875 65.921875 18.8125 64.3125 
Q 13.671875 62.703125 7.8125 59.421875 
L 7.8125 69.390625 
Q 13.765625 71.78125 18.9375 73 
Q 24.125 74.21875 28.421875 74.21875 
Q 39.75 74.21875 46.484375 68.546875 
Q 53.21875 62.890625 53.21875 53.421875 
Q 53.21875 48.921875 51.53125 44.890625 
Q 49.859375 40.875 45.40625 35.40625 
Q 44.1875 33.984375 37.640625 27.21875 
Q 31.109375 20.453125 19.1875 8.296875 
z
" id="DejaVuSans-50"/>
       </defs>
       <use xlink:href="#DejaVuSans-45"/>
       <use x="36.083984" xlink:href="#DejaVuSans-52"/>
       <use x="99.707031" xlink:href="#DejaVuSans-101"/>
       <use x="161.230469" xlink:href="#DejaVuSans-45"/>
       <use x="197.314453" xlink:href="#DejaVuSans-48"/>
       <use x="260.9375" xlink:href="#DejaVuSans-50"/>
      </g>
     </g>
    </g>
    <g id="ytick_2">
     <g id="line2d_18">
      <g>
       <use style="stroke:#000000;stroke-width:0.8;" x="57.320552" xlink:href="#m52962758f4" y="222.054703"/>
      </g>
     </g>
     <g id="text_2">
      <!-- -2e-02 -->
      <g transform="translate(17.864302 225.853921)scale(0.1 -0.1)">
       <use xlink:href="#DejaVuSans-45"/>
       <use x="36.083984" xlink:href="#DejaVuSans-50"/>
       <use x="99.707031" xlink:href="#DejaVuSans-101"/>
       <use x="161.230469" xlink:href="#DejaVuSans-45"/>
       <use x="197.314453" xlink:href="#DejaVuSans-48"/>
       <use x="260.9375" xlink:href="#DejaVuSans-50"/>
      </g>
     </g>
    </g>
    <g id="ytick_3">
     <g id="line2d_19">
      <g>
       <use style="stroke:#000000;stroke-width:0.8;" x="57.320552" xlink:href="#m52962758f4" y="199.040461"/>
      </g>
     </g>
     <g id="text_3">
      <!-- 0e+00 -->
      <g transform="translate(16.70024 202.839679)scale(0.1 -0.1)">
       <defs>
        <path d="M 46 62.703125 
L 46 35.5 
L 73.1875 35.5 
L 73.1875 27.203125 
L 46 27.203125 
L 46 0 
L 37.796875 0 
L 37.796875 27.203125 
L 10.59375 27.203125 
L 10.59375 35.5 
L 37.796875 35.5 
L 37.796875 62.703125 
z
" id="DejaVuSans-43"/>
       </defs>
       <use xlink:href="#DejaVuSans-48"/>
       <use x="63.623047" xlink:href="#DejaVuSans-101"/>
       <use x="125.146484" xlink:href="#DejaVuSans-43"/>
       <use x="208.935547" xlink:href="#DejaVuSans-48"/>
       <use x="272.558594" xlink:href="#DejaVuSans-48"/>
      </g>
     </g>
    </g>
    <g id="ytick_4">
     <g id="line2d_20">
      <g>
       <use style="stroke:#000000;stroke-width:0.8;" x="57.320552" xlink:href="#m52962758f4" y="176.026219"/>
      </g>
     </g>
     <g id="text_4">
      <!-- 2e-02 -->
      <g transform="translate(21.472115 179.825437)scale(0.1 -0.1)">
       <use xlink:href="#DejaVuSans-50"/>
       <use x="63.623047" xlink:href="#DejaVuSans-101"/>
       <use x="125.146484" xlink:href="#DejaVuSans-45"/>
       <use x="161.230469" xlink:href="#DejaVuSans-48"/>
       <use x="224.853516" xlink:href="#DejaVuSans-50"/>
      </g>
     </g>
    </g>
    <g id="ytick_5">
     <g id="line2d_21">
      <g>
       <use style="stroke:#000000;stroke-width:0.8;" x="57.320552" xlink:href="#m52962758f4" y="153.011976"/>
      </g>
     </g>
     <g id="text_5">
      <!-- 4e-02 -->
      <g transform="translate(21.472115 156.811195)scale(0.1 -0.1)">
       <use xlink:href="#DejaVuSans-52"/>
       <use x="63.623047" xlink:href="#DejaVuSans-101"/>
       <use x="125.146484" xlink:href="#DejaVuSans-45"/>
       <use x="161.230469" xlink:href="#DejaVuSans-48"/>
       <use x="224.853516" xlink:href="#DejaVuSans-50"/>
      </g>
     </g>
    </g>
    <g id="text_6">
     <!-- Shear force, $V(x)$ -->
     <g transform="translate(10.620552 243.931406)rotate(-90)scale(0.1 -0.1)">
      <defs>
       <path d="M 53.515625 70.515625 
L 53.515625 60.890625 
Q 47.90625 63.578125 42.921875 64.890625 
Q 37.9375 66.21875 33.296875 66.21875 
Q 25.25 66.21875 20.875 63.09375 
Q 16.5 59.96875 16.5 54.203125 
Q 16.5 49.359375 19.40625 46.890625 
Q 22.3125 44.4375 30.421875 42.921875 
L 36.375 41.703125 
Q 47.40625 39.59375 52.65625 34.296875 
Q 57.90625 29 57.90625 20.125 
Q 57.90625 9.515625 50.796875 4.046875 
Q 43.703125 -1.421875 29.984375 -1.421875 
Q 24.8125 -1.421875 18.96875 -0.25 
Q 13.140625 0.921875 6.890625 3.21875 
L 6.890625 13.375 
Q 12.890625 10.015625 18.65625 8.296875 
Q 24.421875 6.59375 29.984375 6.59375 
Q 38.421875 6.59375 43.015625 9.90625 
Q 47.609375 13.234375 47.609375 19.390625 
Q 47.609375 24.75 44.3125 27.78125 
Q 41.015625 30.8125 33.5 32.328125 
L 27.484375 33.5 
Q 16.453125 35.6875 11.515625 40.375 
Q 6.59375 45.0625 6.59375 53.421875 
Q 6.59375 63.09375 13.40625 68.65625 
Q 20.21875 74.21875 32.171875 74.21875 
Q 37.3125 74.21875 42.625 73.28125 
Q 47.953125 72.359375 53.515625 70.515625 
z
" id="DejaVuSans-83"/>
       <path d="M 54.890625 33.015625 
L 54.890625 0 
L 45.90625 0 
L 45.90625 32.71875 
Q 45.90625 40.484375 42.875 44.328125 
Q 39.84375 48.1875 33.796875 48.1875 
Q 26.515625 48.1875 22.3125 43.546875 
Q 18.109375 38.921875 18.109375 30.90625 
L 18.109375 0 
L 9.078125 0 
L 9.078125 75.984375 
L 18.109375 75.984375 
L 18.109375 46.1875 
Q 21.34375 51.125 25.703125 53.5625 
Q 30.078125 56 35.796875 56 
Q 45.21875 56 50.046875 50.171875 
Q 54.890625 44.34375 54.890625 33.015625 
z
" id="DejaVuSans-104"/>
       <path d="M 34.28125 27.484375 
Q 23.390625 27.484375 19.1875 25 
Q 14.984375 22.515625 14.984375 16.5 
Q 14.984375 11.71875 18.140625 8.90625 
Q 21.296875 6.109375 26.703125 6.109375 
Q 34.1875 6.109375 38.703125 11.40625 
Q 43.21875 16.703125 43.21875 25.484375 
L 43.21875 27.484375 
z
M 52.203125 31.203125 
L 52.203125 0 
L 43.21875 0 
L 43.21875 8.296875 
Q 40.140625 3.328125 35.546875 0.953125 
Q 30.953125 -1.421875 24.3125 -1.421875 
Q 15.921875 -1.421875 10.953125 3.296875 
Q 6 8.015625 6 15.921875 
Q 6 25.140625 12.171875 29.828125 
Q 18.359375 34.515625 30.609375 34.515625 
L 43.21875 34.515625 
L 43.21875 35.40625 
Q 43.21875 41.609375 39.140625 45 
Q 35.0625 48.390625 27.6875 48.390625 
Q 23 48.390625 18.546875 47.265625 
Q 14.109375 46.140625 10.015625 43.890625 
L 10.015625 52.203125 
Q 14.9375 54.109375 19.578125 55.046875 
Q 24.21875 56 28.609375 56 
Q 40.484375 56 46.34375 49.84375 
Q 52.203125 43.703125 52.203125 31.203125 
z
" id="DejaVuSans-97"/>
       <path d="M 41.109375 46.296875 
Q 39.59375 47.171875 37.8125 47.578125 
Q 36.03125 48 33.890625 48 
Q 26.265625 48 22.1875 43.046875 
Q 18.109375 38.09375 18.109375 28.8125 
L 18.109375 0 
L 9.078125 0 
L 9.078125 54.6875 
L 18.109375 54.6875 
L 18.109375 46.1875 
Q 20.953125 51.171875 25.484375 53.578125 
Q 30.03125 56 36.53125 56 
Q 37.453125 56 38.578125 55.875 
Q 39.703125 55.765625 41.0625 55.515625 
z
" id="DejaVuSans-114"/>
       <path id="DejaVuSans-32"/>
       <path d="M 37.109375 75.984375 
L 37.109375 68.5 
L 28.515625 68.5 
Q 23.6875 68.5 21.796875 66.546875 
Q 19.921875 64.59375 19.921875 59.515625 
L 19.921875 54.6875 
L 34.71875 54.6875 
L 34.71875 47.703125 
L 19.921875 47.703125 
L 19.921875 0 
L 10.890625 0 
L 10.890625 47.703125 
L 2.296875 47.703125 
L 2.296875 54.6875 
L 10.890625 54.6875 
L 10.890625 58.5 
Q 10.890625 67.625 15.140625 71.796875 
Q 19.390625 75.984375 28.609375 75.984375 
z
" id="DejaVuSans-102"/>
       <path d="M 30.609375 48.390625 
Q 23.390625 48.390625 19.1875 42.75 
Q 14.984375 37.109375 14.984375 27.296875 
Q 14.984375 17.484375 19.15625 11.84375 
Q 23.34375 6.203125 30.609375 6.203125 
Q 37.796875 6.203125 41.984375 11.859375 
Q 46.1875 17.53125 46.1875 27.296875 
Q 46.1875 37.015625 41.984375 42.703125 
Q 37.796875 48.390625 30.609375 48.390625 
z
M 30.609375 56 
Q 42.328125 56 49.015625 48.375 
Q 55.71875 40.765625 55.71875 27.296875 
Q 55.71875 13.875 49.015625 6.21875 
Q 42.328125 -1.421875 30.609375 -1.421875 
Q 18.84375 -1.421875 12.171875 6.21875 
Q 5.515625 13.875 5.515625 27.296875 
Q 5.515625 40.765625 12.171875 48.375 
Q 18.84375 56 30.609375 56 
z
" id="DejaVuSans-111"/>
       <path d="M 48.78125 52.59375 
L 48.78125 44.1875 
Q 44.96875 46.296875 41.140625 47.34375 
Q 37.3125 48.390625 33.40625 48.390625 
Q 24.65625 48.390625 19.8125 42.84375 
Q 14.984375 37.3125 14.984375 27.296875 
Q 14.984375 17.28125 19.8125 11.734375 
Q 24.65625 6.203125 33.40625 6.203125 
Q 37.3125 6.203125 41.140625 7.25 
Q 44.96875 8.296875 48.78125 10.40625 
L 48.78125 2.09375 
Q 45.015625 0.34375 40.984375 -0.53125 
Q 36.96875 -1.421875 32.421875 -1.421875 
Q 20.0625 -1.421875 12.78125 6.34375 
Q 5.515625 14.109375 5.515625 27.296875 
Q 5.515625 40.671875 12.859375 48.328125 
Q 20.21875 56 33.015625 56 
Q 37.15625 56 41.109375 55.140625 
Q 45.0625 54.296875 48.78125 52.59375 
z
" id="DejaVuSans-99"/>
       <path d="M 11.71875 12.40625 
L 22.015625 12.40625 
L 22.015625 4 
L 14.015625 -11.625 
L 7.71875 -11.625 
L 11.71875 4 
z
" id="DejaVuSans-44"/>
       <path d="M 20.609375 0 
L 7.8125 72.90625 
L 17.484375 72.90625 
L 28.078125 10.203125 
L 63.484375 72.90625 
L 74.21875 72.90625 
L 32.078125 0 
z
" id="DejaVuSans-Oblique-86"/>
       <path d="M 31 75.875 
Q 24.46875 64.65625 21.28125 53.65625 
Q 18.109375 42.671875 18.109375 31.390625 
Q 18.109375 20.125 21.3125 9.0625 
Q 24.515625 -2 31 -13.1875 
L 23.1875 -13.1875 
Q 15.875 -1.703125 12.234375 9.375 
Q 8.59375 20.453125 8.59375 31.390625 
Q 8.59375 42.28125 12.203125 53.3125 
Q 15.828125 64.359375 23.1875 75.875 
z
" id="DejaVuSans-40"/>
       <path d="M 60.015625 54.6875 
L 34.90625 27.875 
L 50.296875 0 
L 39.984375 0 
L 28.421875 21.6875 
L 8.296875 0 
L -2.59375 0 
L 24.3125 28.8125 
L 10.015625 54.6875 
L 20.3125 54.6875 
L 30.8125 34.90625 
L 49.125 54.6875 
z
" id="DejaVuSans-Oblique-120"/>
       <path d="M 8.015625 75.875 
L 15.828125 75.875 
Q 23.140625 64.359375 26.78125 53.3125 
Q 30.421875 42.28125 30.421875 31.390625 
Q 30.421875 20.453125 26.78125 9.375 
Q 23.140625 -1.703125 15.828125 -13.1875 
L 8.015625 -13.1875 
Q 14.5 -2 17.703125 9.0625 
Q 20.90625 20.125 20.90625 31.390625 
Q 20.90625 42.671875 17.703125 53.65625 
Q 14.5 64.65625 8.015625 75.875 
z
" id="DejaVuSans-41"/>
      </defs>
      <use transform="translate(0 0.015625)" xlink:href="#DejaVuSans-83"/>
      <use transform="translate(63.476562 0.015625)" xlink:href="#DejaVuSans-104"/>
      <use transform="translate(126.855469 0.015625)" xlink:href="#DejaVuSans-101"/>
      <use transform="translate(188.378906 0.015625)" xlink:href="#DejaVuSans-97"/>
      <use transform="translate(249.658203 0.015625)" xlink:href="#DejaVuSans-114"/>
      <use transform="translate(290.771484 0.015625)" xlink:href="#DejaVuSans-32"/>
      <use transform="translate(322.558594 0.015625)" xlink:href="#DejaVuSans-102"/>
      <use transform="translate(357.763672 0.015625)" xlink:href="#DejaVuSans-111"/>
      <use transform="translate(418.945312 0.015625)" xlink:href="#DejaVuSans-114"/>
      <use transform="translate(460.058594 0.015625)" xlink:href="#DejaVuSans-99"/>
      <use transform="translate(515.039062 0.015625)" xlink:href="#DejaVuSans-101"/>
      <use transform="translate(576.5625 0.015625)" xlink:href="#DejaVuSans-44"/>
      <use transform="translate(608.349609 0.015625)" xlink:href="#DejaVuSans-32"/>
      <use transform="translate(640.136719 0.015625)" xlink:href="#DejaVuSans-Oblique-86"/>
      <use transform="translate(708.544922 0.015625)" xlink:href="#DejaVuSans-40"/>
      <use transform="translate(747.558594 0.015625)" xlink:href="#DejaVuSans-Oblique-120"/>
      <use transform="translate(806.738281 0.015625)" xlink:href="#DejaVuSans-41"/>
     </g>
    </g>
   </g>
   <g id="line2d_22">
    <path clip-path="url(#p4cd9e0190e)" d="M 57.320552 144.131198 
L 61.632361 145.301287 
L 65.94417 148.763961 
L 70.255978 154.378381 
L 74.567787 161.91619 
L 78.879595 171.070797 
L 83.191404 181.469852 
L 87.503213 192.690388 
L 91.815021 204.276028 
L 96.12683 215.755541 
L 100.438638 226.662015 
L 104.750447 236.551845 
L 109.062256 245.022776 
L 113.374064 251.730267 
L 117.685873 256.401499 
L 121.997681 258.846476 
L 126.30949 258.965753 
L 130.621299 256.754479 
L 134.933107 252.302594 
L 139.244916 245.791171 
L 143.556724 237.485054 
L 147.868533 227.722081 
L 152.180342 216.899348 
L 156.49215 205.457053 
L 160.803959 193.860595 
L 165.115767 182.581644 
L 169.427576 172.078953 
L 173.739385 162.779706 
L 178.051193 155.062135 
L 182.363002 149.240141 
L 186.67481 145.550525 
L 190.986619 144.143357 
L 195.298428 145.075872 
L 199.610236 148.310141 
L 203.922045 153.714615 
L 208.233853 161.069475 
L 212.545662 170.075572 
L 216.857471 180.366596 
L 221.169279 191.523975 
L 225.481088 203.093899 
L 229.792896 214.605779 
L 234.104705 225.591384 
L 238.416514 235.603891 
L 242.728322 244.236057 
L 247.040131 251.13678 
L 251.351939 256.025384 
L 255.663748 258.703031 
L 259.975557 259.060813 
L 264.287365 257.084177 
L 268.599174 252.853519 
L 272.910982 246.540916 
L 277.222791 238.403124 
L 281.5346 228.771135 
L 285.846408 218.036717 
L 290.158217 206.636477 
L 294.470025 195.034102 
L 298.781834 183.701503 
L 303.093643 173.099616 
L 307.405451 163.659658 
L 311.71726 155.765586 
L 316.029068 149.738479 
L 320.340877 145.823481 
L 324.652686 144.179829 
L 328.964494 144.874377 
L 333.276303 147.878874 
L 337.588111 153.071117 
L 341.89992 160.239918 
L 346.211729 169.093699 
L 350.523537 179.272343 
L 354.835346 190.361849 
L 359.147154 201.911168 
L 363.458963 213.450548 
L 367.770772 224.510641 
L 372.08258 234.641594 
L 376.394389 243.431345 
L 380.706197 250.522384 
L 385.018006 255.626294 
L 389.329815 258.535479 
L 393.641623 259.131614 
L 397.953432 257.390451 
L 402.26524 253.38281 
L 406.577049 247.271695 
L 410.888858 239.305667 
L 415.200666 229.808733 
L 419.512475 219.167167 
L 423.824283 207.8138 
L 428.136092 196.210412 
L 432.447901 184.828954 
L 436.759709 174.132352 
L 441.071518 164.555674 
L 445.383326 156.488437 
L 449.695135 150.258765 
L 454.006944 146.12004 
L 458.318752 144.240598 
L 462.630561 144.696885 
L 466.942369 147.47034 
L 471.254178 152.448157 
L 475.565987 159.427872 
L 479.877795 168.125593 
L 484.189604 178.187555 
" style="fill:none;stroke:#228b22;stroke-linecap:square;stroke-width:2;"/>
   </g>
   <g id="patch_3">
    <path d="M 57.320552 264.881635 
L 57.320552 138.381177 
" style="fill:none;stroke:#000000;stroke-linecap:square;stroke-linejoin:miter;stroke-width:0.8;"/>
   </g>
   <g id="patch_4">
    <path d="M 484.189604 264.881635 
L 484.189604 138.381177 
" style="fill:none;stroke:#000000;stroke-linecap:square;stroke-linejoin:miter;stroke-width:0.8;"/>
   </g>
   <g id="patch_5">
    <path d="M 57.320552 264.881635 
L 484.189604 264.881635 
" style="fill:none;stroke:#000000;stroke-linecap:square;stroke-linejoin:miter;stroke-width:0.8;"/>
   </g>
   <g id="patch_6">
    <path d="M 57.320552 138.381177 
L 484.189604 138.381177 
" style="fill:none;stroke:#000000;stroke-linecap:square;stroke-linejoin:miter;stroke-width:0.8;"/>
   </g>
  </g>
  <g id="axes_3">
   <g id="patch_7">
    <path d="M 57.320552 403.762572 
L 484.189604 403.762572 
L 484.189604 277.262115 
L 57.320552 277.262115 
z
" style="fill:#ffffff;"/>
   </g>
   <g id="PolyCollection_3">
    <defs>
     <path d="M 57.320552 -217.194436 
L 57.320552 -217.194436 
L 61.632361 -209.082351 
L 65.94417 -201.316108 
L 70.255978 -194.227482 
L 74.567787 -188.120687 
L 78.879595 -183.260004 
L 83.191404 -179.859027 
L 87.503213 -178.071982 
L 91.815021 -177.987448 
L 96.12683 -179.624759 
L 100.438638 -182.933213 
L 104.750447 -187.794139 
L 109.062256 -194.025721 
L 113.374064 -201.390391 
L 117.685873 -209.604499 
L 121.997681 -218.349841 
L 126.30949 -227.286608 
L 130.621299 -236.067205 
L 134.933107 -244.350388 
L 139.244916 -251.815146 
L 143.556724 -258.173754 
L 147.868533 -263.183481 
L 152.180342 -266.656457 
L 156.49215 -268.46732 
L 160.803959 -268.558309 
L 165.115767 -266.941618 
L 169.427576 -263.698898 
L 173.739385 -258.977938 
L 178.051193 -252.986649 
L 182.363002 -245.984613 
L 186.67481 -238.272524 
L 190.986619 -230.179952 
L 195.298428 -222.051947 
L 199.610236 -214.234999 
L 203.922045 -207.062943 
L 208.233853 -200.843389 
L 212.545662 -195.845203 
L 216.857471 -192.287572 
L 221.169279 -190.331093 
L 225.481088 -190.071237 
L 229.792896 -191.534469 
L 234.104705 -194.677168 
L 238.416514 -199.387404 
L 242.728322 -205.48949 
L 247.040131 -212.751126 
L 251.351939 -220.892852 
L 255.663748 -229.599408 
L 259.975557 -238.532563 
L 264.287365 -247.344869 
L 268.599174 -255.693792 
L 272.910982 -263.255646 
L 277.222791 -269.738759 
L 281.5346 -274.895334 
L 285.846408 -278.53153 
L 290.158217 -280.515344 
L 294.470025 -280.781982 
L 298.781834 -279.336494 
L 303.093643 -276.253567 
L 307.405451 -271.67449 
L 311.71726 -265.801404 
L 316.029068 -258.889084 
L 320.340877 -251.234573 
L 324.652686 -243.1651 
L 328.964494 -235.024776 
L 333.276303 -227.160591 
L 337.588111 -219.908303 
L 341.89992 -213.578783 
L 346.211729 -208.445371 
L 350.523537 -204.732755 
L 354.835346 -202.607834 
L 359.147154 -202.172932 
L 363.458963 -203.461631 
L 367.770772 -206.437412 
L 372.08258 -210.995132 
L 376.394389 -216.965308 
L 380.706197 -224.121007 
L 385.018006 -232.187074 
L 389.329815 -240.85133 
L 393.641623 -249.777263 
L 397.953432 -258.617717 
L 402.26524 -267.029016 
L 406.577049 -274.684936 
L 410.888858 -281.289979 
L 415.200666 -286.591388 
L 419.512475 -290.389432 
L 423.824283 -292.545524 
L 428.136092 -292.987864 
L 432.447901 -291.714355 
L 436.759709 -288.792689 
L 441.071518 -284.357596 
L 445.383326 -278.605361 
L 449.695135 -271.785842 
L 454.006944 -264.192309 
L 458.318752 -256.149512 
L 462.630561 -248.000475 
L 466.942369 -240.092542 
L 471.254178 -232.763251 
L 475.565987 -226.326607 
L 479.877795 -221.060304 
L 484.189604 -217.194436 
L 484.189604 -217.194436 
L 484.189604 -217.194436 
L 479.877795 -217.194436 
L 475.565987 -217.194436 
L 471.254178 -217.194436 
L 466.942369 -217.194436 
L 462.630561 -217.194436 
L 458.318752 -217.194436 
L 454.006944 -217.194436 
L 449.695135 -217.194436 
L 445.383326 -217.194436 
L 441.071518 -217.194436 
L 436.759709 -217.194436 
L 432.447901 -217.194436 
L 428.136092 -217.194436 
L 423.824283 -217.194436 
L 419.512475 -217.194436 
L 415.200666 -217.194436 
L 410.888858 -217.194436 
L 406.577049 -217.194436 
L 402.26524 -217.194436 
L 397.953432 -217.194436 
L 393.641623 -217.194436 
L 389.329815 -217.194436 
L 385.018006 -217.194436 
L 380.706197 -217.194436 
L 376.394389 -217.194436 
L 372.08258 -217.194436 
L 367.770772 -217.194436 
L 363.458963 -217.194436 
L 359.147154 -217.194436 
L 354.835346 -217.194436 
L 350.523537 -217.194436 
L 346.211729 -217.194436 
L 341.89992 -217.194436 
L 337.588111 -217.194436 
L 333.276303 -217.194436 
L 328.964494 -217.194436 
L 324.652686 -217.194436 
L 320.340877 -217.194436 
L 316.029068 -217.194436 
L 311.71726 -217.194436 
L 307.405451 -217.194436 
L 303.093643 -217.194436 
L 298.781834 -217.194436 
L 294.470025 -217.194436 
L 290.158217 -217.194436 
L 285.846408 -217.194436 
L 281.5346 -217.194436 
L 277.222791 -217.194436 
L 272.910982 -217.194436 
L 268.599174 -217.194436 
L 264.287365 -217.194436 
L 259.975557 -217.194436 
L 255.663748 -217.194436 
L 251.351939 -217.194436 
L 247.040131 -217.194436 
L 242.728322 -217.194436 
L 238.416514 -217.194436 
L 234.104705 -217.194436 
L 229.792896 -217.194436 
L 225.481088 -217.194436 
L 221.169279 -217.194436 
L 216.857471 -217.194436 
L 212.545662 -217.194436 
L 208.233853 -217.194436 
L 203.922045 -217.194436 
L 199.610236 -217.194436 
L 195.298428 -217.194436 
L 190.986619 -217.194436 
L 186.67481 -217.194436 
L 182.363002 -217.194436 
L 178.051193 -217.194436 
L 173.739385 -217.194436 
L 169.427576 -217.194436 
L 165.115767 -217.194436 
L 160.803959 -217.194436 
L 156.49215 -217.194436 
L 152.180342 -217.194436 
L 147.868533 -217.194436 
L 143.556724 -217.194436 
L 139.244916 -217.194436 
L 134.933107 -217.194436 
L 130.621299 -217.194436 
L 126.30949 -217.194436 
L 121.997681 -217.194436 
L 117.685873 -217.194436 
L 113.374064 -217.194436 
L 109.062256 -217.194436 
L 104.750447 -217.194436 
L 100.438638 -217.194436 
L 96.12683 -217.194436 
L 91.815021 -217.194436 
L 87.503213 -217.194436 
L 83.191404 -217.194436 
L 78.879595 -217.194436 
L 74.567787 -217.194436 
L 70.255978 -217.194436 
L 65.94417 -217.194436 
L 61.632361 -217.194436 
L 57.320552 -217.194436 
z
" id="m92ad90df1f" style="stroke:#b22222;stroke-opacity:0.35;"/>
    </defs>
    <g clip-path="url(#pb16e8d10ad)">
     <use style="fill:#b22222;fill-opacity:0.35;stroke:#b22222;stroke-opacity:0.35;" x="0" xlink:href="#m92ad90df1f" y="576"/>
    </g>
   </g>
   <g id="matplotlib.axis_3">
    <g id="xtick_7">
     <g id="line2d_23">
      <g>
       <use style="stroke:#000000;stroke-width:0.8;" x="57.320552" xlink:href="#m4490743e17" y="403.762572"/>
      </g>
     </g>
    </g>
    <g id="xtick_8">
     <g id="line2d_24">
      <g>
       <use style="stroke:#000000;stroke-width:0.8;" x="142.694363" xlink:href="#m4490743e17" y="403.762572"/>
      </g>
     </g>
    </g>
    <g id="xtick_9">
     <g id="line2d_25">
      <g>
       <use style="stroke:#000000;stroke-width:0.8;" x="228.068173" xlink:href="#m4490743e17" y="403.762572"/>
      </g>
     </g>
    </g>
    <g id="xtick_10">
     <g id="line2d_26">
      <g>
       <use style="stroke:#000000;stroke-width:0.8;" x="313.441983" xlink:href="#m4490743e17" y="403.762572"/>
      </g>
     </g>
    </g>
    <g id="xtick_11">
     <g id="line2d_27">
      <g>
       <use style="stroke:#000000;stroke-width:0.8;" x="398.815794" xlink:href="#m4490743e17" y="403.762572"/>
      </g>
     </g>
    </g>
    <g id="xtick_12">
     <g id="line2d_28">
      <g>
       <use style="stroke:#000000;stroke-width:0.8;" x="484.189604" xlink:href="#m4490743e17" y="403.762572"/>
      </g>
     </g>
    </g>
   </g>
   <g id="matplotlib.axis_4">
    <g id="ytick_6">
     <g id="line2d_29">
      <g>
       <use style="stroke:#000000;stroke-width:0.8;" x="57.320552" xlink:href="#m52962758f4" y="392.70706"/>
      </g>
     </g>
     <g id="text_7">
      <!-- -2e-03 -->
      <g transform="translate(17.864302 396.506279)scale(0.1 -0.1)">
       <defs>
        <path d="M 40.578125 39.3125 
Q 47.65625 37.796875 51.625 33 
Q 55.609375 28.21875 55.609375 21.1875 
Q 55.609375 10.40625 48.1875 4.484375 
Q 40.765625 -1.421875 27.09375 -1.421875 
Q 22.515625 -1.421875 17.65625 -0.515625 
Q 12.796875 0.390625 7.625 2.203125 
L 7.625 11.71875 
Q 11.71875 9.328125 16.59375 8.109375 
Q 21.484375 6.890625 26.8125 6.890625 
Q 36.078125 6.890625 40.9375 10.546875 
Q 45.796875 14.203125 45.796875 21.1875 
Q 45.796875 27.640625 41.28125 31.265625 
Q 36.765625 34.90625 28.71875 34.90625 
L 20.21875 34.90625 
L 20.21875 43.015625 
L 29.109375 43.015625 
Q 36.375 43.015625 40.234375 45.921875 
Q 44.09375 48.828125 44.09375 54.296875 
Q 44.09375 59.90625 40.109375 62.90625 
Q 36.140625 65.921875 28.71875 65.921875 
Q 24.65625 65.921875 20.015625 65.03125 
Q 15.375 64.15625 9.8125 62.3125 
L 9.8125 71.09375 
Q 15.4375 72.65625 20.34375 73.4375 
Q 25.25 74.21875 29.59375 74.21875 
Q 40.828125 74.21875 47.359375 69.109375 
Q 53.90625 64.015625 53.90625 55.328125 
Q 53.90625 49.265625 50.4375 45.09375 
Q 46.96875 40.921875 40.578125 39.3125 
z
" id="DejaVuSans-51"/>
       </defs>
       <use xlink:href="#DejaVuSans-45"/>
       <use x="36.083984" xlink:href="#DejaVuSans-50"/>
       <use x="99.707031" xlink:href="#DejaVuSans-101"/>
       <use x="161.230469" xlink:href="#DejaVuSans-45"/>
       <use x="197.314453" xlink:href="#DejaVuSans-48"/>
       <use x="260.9375" xlink:href="#DejaVuSans-51"/>
      </g>
     </g>
    </g>
    <g id="ytick_7">
     <g id="line2d_30">
      <g>
       <use style="stroke:#000000;stroke-width:0.8;" x="57.320552" xlink:href="#m52962758f4" y="358.805564"/>
      </g>
     </g>
     <g id="text_8">
      <!-- 0e+00 -->
      <g transform="translate(16.70024 362.604783)scale(0.1 -0.1)">
       <use xlink:href="#DejaVuSans-48"/>
       <use x="63.623047" xlink:href="#DejaVuSans-101"/>
       <use x="125.146484" xlink:href="#DejaVuSans-43"/>
       <use x="208.935547" xlink:href="#DejaVuSans-48"/>
       <use x="272.558594" xlink:href="#DejaVuSans-48"/>
      </g>
     </g>
    </g>
    <g id="ytick_8">
     <g id="line2d_31">
      <g>
       <use style="stroke:#000000;stroke-width:0.8;" x="57.320552" xlink:href="#m52962758f4" y="324.904068"/>
      </g>
     </g>
     <g id="text_9">
      <!-- 2e-03 -->
      <g transform="translate(21.472115 328.703287)scale(0.1 -0.1)">
       <use xlink:href="#DejaVuSans-50"/>
       <use x="63.623047" xlink:href="#DejaVuSans-101"/>
       <use x="125.146484" xlink:href="#DejaVuSans-45"/>
       <use x="161.230469" xlink:href="#DejaVuSans-48"/>
       <use x="224.853516" xlink:href="#DejaVuSans-51"/>
      </g>
     </g>
    </g>
    <g id="ytick_9">
     <g id="line2d_32">
      <g>
       <use style="stroke:#000000;stroke-width:0.8;" x="57.320552" xlink:href="#m52962758f4" y="291.002572"/>
      </g>
     </g>
     <g id="text_10">
      <!-- 4e-03 -->
      <g transform="translate(21.472115 294.801791)scale(0.1 -0.1)">
       <use xlink:href="#DejaVuSans-52"/>
       <use x="63.623047" xlink:href="#DejaVuSans-101"/>
       <use x="125.146484" xlink:href="#DejaVuSans-45"/>
       <use x="161.230469" xlink:href="#DejaVuSans-48"/>
       <use x="224.853516" xlink:href="#DejaVuSans-51"/>
      </g>
     </g>
    </g>
    <g id="text_11">
     <!-- Bending moment, $M(x)$ -->
     <g transform="translate(10.60024 398.062344)rotate(-90)scale(0.1 -0.1)">
      <defs>
       <path d="M 19.671875 34.8125 
L 19.671875 8.109375 
L 35.5 8.109375 
Q 43.453125 8.109375 47.28125 11.40625 
Q 51.125 14.703125 51.125 21.484375 
Q 51.125 28.328125 47.28125 31.5625 
Q 43.453125 34.8125 35.5 34.8125 
z
M 19.671875 64.796875 
L 19.671875 42.828125 
L 34.28125 42.828125 
Q 41.5 42.828125 45.03125 45.53125 
Q 48.578125 48.25 48.578125 53.8125 
Q 48.578125 59.328125 45.03125 62.0625 
Q 41.5 64.796875 34.28125 64.796875 
z
M 9.8125 72.90625 
L 35.015625 72.90625 
Q 46.296875 72.90625 52.390625 68.21875 
Q 58.5 63.53125 58.5 54.890625 
Q 58.5 48.1875 55.375 44.234375 
Q 52.25 40.28125 46.1875 39.3125 
Q 53.46875 37.75 57.5 32.78125 
Q 61.53125 27.828125 61.53125 20.40625 
Q 61.53125 10.640625 54.890625 5.3125 
Q 48.25 0 35.984375 0 
L 9.8125 0 
z
" id="DejaVuSans-66"/>
       <path d="M 54.890625 33.015625 
L 54.890625 0 
L 45.90625 0 
L 45.90625 32.71875 
Q 45.90625 40.484375 42.875 44.328125 
Q 39.84375 48.1875 33.796875 48.1875 
Q 26.515625 48.1875 22.3125 43.546875 
Q 18.109375 38.921875 18.109375 30.90625 
L 18.109375 0 
L 9.078125 0 
L 9.078125 54.6875 
L 18.109375 54.6875 
L 18.109375 46.1875 
Q 21.34375 51.125 25.703125 53.5625 
Q 30.078125 56 35.796875 56 
Q 45.21875 56 50.046875 50.171875 
Q 54.890625 44.34375 54.890625 33.015625 
z
" id="DejaVuSans-110"/>
       <path d="M 45.40625 46.390625 
L 45.40625 75.984375 
L 54.390625 75.984375 
L 54.390625 0 
L 45.40625 0 
L 45.40625 8.203125 
Q 42.578125 3.328125 38.25 0.953125 
Q 33.9375 -1.421875 27.875 -1.421875 
Q 17.96875 -1.421875 11.734375 6.484375 
Q 5.515625 14.40625 5.515625 27.296875 
Q 5.515625 40.1875 11.734375 48.09375 
Q 17.96875 56 27.875 56 
Q 33.9375 56 38.25 53.625 
Q 42.578125 51.265625 45.40625 46.390625 
z
M 14.796875 27.296875 
Q 14.796875 17.390625 18.875 11.75 
Q 22.953125 6.109375 30.078125 6.109375 
Q 37.203125 6.109375 41.296875 11.75 
Q 45.40625 17.390625 45.40625 27.296875 
Q 45.40625 37.203125 41.296875 42.84375 
Q 37.203125 48.484375 30.078125 48.484375 
Q 22.953125 48.484375 18.875 42.84375 
Q 14.796875 37.203125 14.796875 27.296875 
z
" id="DejaVuSans-100"/>
       <path d="M 9.421875 54.6875 
L 18.40625 54.6875 
L 18.40625 0 
L 9.421875 0 
z
M 9.421875 75.984375 
L 18.40625 75.984375 
L 18.40625 64.59375 
L 9.421875 64.59375 
z
" id="DejaVuSans-105"/>
       <path d="M 45.40625 27.984375 
Q 45.40625 37.75 41.375 43.109375 
Q 37.359375 48.484375 30.078125 48.484375 
Q 22.859375 48.484375 18.828125 43.109375 
Q 14.796875 37.75 14.796875 27.984375 
Q 14.796875 18.265625 18.828125 12.890625 
Q 22.859375 7.515625 30.078125 7.515625 
Q 37.359375 7.515625 41.375 12.890625 
Q 45.40625 18.265625 45.40625 27.984375 
z
M 54.390625 6.78125 
Q 54.390625 -7.171875 48.1875 -13.984375 
Q 42 -20.796875 29.203125 -20.796875 
Q 24.46875 -20.796875 20.265625 -20.09375 
Q 16.0625 -19.390625 12.109375 -17.921875 
L 12.109375 -9.1875 
Q 16.0625 -11.328125 19.921875 -12.34375 
Q 23.78125 -13.375 27.78125 -13.375 
Q 36.625 -13.375 41.015625 -8.765625 
Q 45.40625 -4.15625 45.40625 5.171875 
L 45.40625 9.625 
Q 42.625 4.78125 38.28125 2.390625 
Q 33.9375 0 27.875 0 
Q 17.828125 0 11.671875 7.65625 
Q 5.515625 15.328125 5.515625 27.984375 
Q 5.515625 40.671875 11.671875 48.328125 
Q 17.828125 56 27.875 56 
Q 33.9375 56 38.28125 53.609375 
Q 42.625 51.21875 45.40625 46.390625 
L 45.40625 54.6875 
L 54.390625 54.6875 
z
" id="DejaVuSans-103"/>
       <path d="M 52 44.1875 
Q 55.375 50.25 60.0625 53.125 
Q 64.75 56 71.09375 56 
Q 79.640625 56 84.28125 50.015625 
Q 88.921875 44.046875 88.921875 33.015625 
L 88.921875 0 
L 79.890625 0 
L 79.890625 32.71875 
Q 79.890625 40.578125 77.09375 44.375 
Q 74.3125 48.1875 68.609375 48.1875 
Q 61.625 48.1875 57.5625 43.546875 
Q 53.515625 38.921875 53.515625 30.90625 
L 53.515625 0 
L 44.484375 0 
L 44.484375 32.71875 
Q 44.484375 40.625 41.703125 44.40625 
Q 38.921875 48.1875 33.109375 48.1875 
Q 26.21875 48.1875 22.15625 43.53125 
Q 18.109375 38.875 18.109375 30.90625 
L 18.109375 0 
L 9.078125 0 
L 9.078125 54.6875 
L 18.109375 54.6875 
L 18.109375 46.1875 
Q 21.1875 51.21875 25.484375 53.609375 
Q 29.78125 56 35.6875 56 
Q 41.65625 56 45.828125 52.96875 
Q 50 49.953125 52 44.1875 
z
" id="DejaVuSans-109"/>
       <path d="M 18.3125 70.21875 
L 18.3125 54.6875 
L 36.8125 54.6875 
L 36.8125 47.703125 
L 18.3125 47.703125 
L 18.3125 18.015625 
Q 18.3125 11.328125 20.140625 9.421875 
Q 21.96875 7.515625 27.59375 7.515625 
L 36.8125 7.515625 
L 36.8125 0 
L 27.59375 0 
Q 17.1875 0 13.234375 3.875 
Q 9.28125 7.765625 9.28125 18.015625 
L 9.28125 47.703125 
L 2.6875 47.703125 
L 2.6875 54.6875 
L 9.28125 54.6875 
L 9.28125 70.21875 
z
" id="DejaVuSans-116"/>
       <path d="M 16.890625 72.90625 
L 31.6875 72.90625 
L 40.1875 23.78125 
L 68.40625 72.90625 
L 83.59375 72.90625 
L 69.390625 0 
L 59.8125 0 
L 72.21875 63.921875 
L 43.609375 14.015625 
L 33.984375 14.015625 
L 24.703125 64.109375 
L 12.3125 0 
L 2.6875 0 
z
" id="DejaVuSans-Oblique-77"/>
      </defs>
      <use transform="translate(0 0.015625)" xlink:href="#DejaVuSans-66"/>
      <use transform="translate(68.603516 0.015625)" xlink:href="#DejaVuSans-101"/>
      <use transform="translate(130.126953 0.015625)" xlink:href="#DejaVuSans-110"/>
      <use transform="translate(193.505859 0.015625)" xlink:href="#DejaVuSans-100"/>
      <use transform="translate(256.982422 0.015625)" xlink:href="#DejaVuSans-105"/>
      <use transform="translate(284.765625 0.015625)" xlink:href="#DejaVuSans-110"/>
      <use transform="translate(348.144531 0.015625)" xlink:href="#DejaVuSans-103"/>
      <use transform="translate(411.621094 0.015625)" xlink:href="#DejaVuSans-32"/>
      <use transform="translate(443.408203 0.015625)" xlink:href="#DejaVuSans-109"/>
      <use transform="translate(540.820312 0.015625)" xlink:href="#DejaVuSans-111"/>
      <use transform="translate(602.001953 0.015625)" xlink:href="#DejaVuSans-109"/>
      <use transform="translate(699.414062 0.015625)" xlink:href="#DejaVuSans-101"/>
      <use transform="translate(760.9375 0.015625)" xlink:href="#DejaVuSans-110"/>
      <use transform="translate(824.316406 0.015625)" xlink:href="#DejaVuSans-116"/>
      <use transform="translate(863.525391 0.015625)" xlink:href="#DejaVuSans-44"/>
      <use transform="translate(895.3125 0.015625)" xlink:href="#DejaVuSans-32"/>
      <use transform="translate(927.099609 0.015625)" xlink:href="#DejaVuSans-Oblique-77"/>
      <use transform="translate(1013.378906 0.015625)" xlink:href="#DejaVuSans-40"/>
      <use transform="translate(1052.392578 0.015625)" xlink:href="#DejaVuSans-Oblique-120"/>
      <use transform="translate(1111.572266 0.015625)" xlink:href="#DejaVuSans-41"/>
     </g>
    </g>
   </g>
   <g id="line2d_33">
    <path clip-path="url(#pb16e8d10ad)" d="M 57.320552 358.805564 
L 61.632361 366.917649 
L 65.94417 374.683892 
L 70.255978 381.772518 
L 74.567787 387.879313 
L 78.879595 392.739996 
L 83.191404 396.140973 
L 87.503213 397.928018 
L 91.815021 398.012552 
L 96.12683 396.375241 
L 100.438638 393.066787 
L 104.750447 388.205861 
L 109.062256 381.974279 
L 113.374064 374.609609 
L 117.685873 366.395501 
L 121.997681 357.650159 
L 126.30949 348.713392 
L 130.621299 339.932795 
L 134.933107 331.649612 
L 139.244916 324.184854 
L 143.556724 317.826246 
L 147.868533 312.816519 
L 152.180342 309.343543 
L 156.49215 307.53268 
L 160.803959 307.441691 
L 165.115767 309.058382 
L 169.427576 312.301102 
L 173.739385 317.022062 
L 178.051193 323.013351 
L 182.363002 330.015387 
L 186.67481 337.727476 
L 190.986619 345.820048 
L 195.298428 353.948053 
L 199.610236 361.765001 
L 203.922045 368.937057 
L 208.233853 375.156611 
L 212.545662 380.154797 
L 216.857471 383.712428 
L 221.169279 385.668907 
L 225.481088 385.928763 
L 229.792896 384.465531 
L 234.104705 381.322832 
L 238.416514 376.612596 
L 242.728322 370.51051 
L 247.040131 363.248874 
L 251.351939 355.107148 
L 255.663748 346.400592 
L 259.975557 337.467437 
L 264.287365 328.655131 
L 268.599174 320.306208 
L 272.910982 312.744354 
L 277.222791 306.261241 
L 281.5346 301.104666 
L 285.846408 297.46847 
L 290.158217 295.484656 
L 294.470025 295.218018 
L 298.781834 296.663506 
L 303.093643 299.746433 
L 307.405451 304.32551 
L 311.71726 310.198596 
L 316.029068 317.110916 
L 320.340877 324.765427 
L 324.652686 332.8349 
L 328.964494 340.975224 
L 333.276303 348.839409 
L 337.588111 356.091697 
L 341.89992 362.421217 
L 346.211729 367.554629 
L 350.523537 371.267245 
L 354.835346 373.392166 
L 359.147154 373.827068 
L 363.458963 372.538369 
L 367.770772 369.562588 
L 372.08258 365.004868 
L 376.394389 359.034692 
L 380.706197 351.878993 
L 385.018006 343.812926 
L 389.329815 335.14867 
L 393.641623 326.222737 
L 397.953432 317.382283 
L 402.26524 308.970984 
L 406.577049 301.315064 
L 410.888858 294.710021 
L 415.200666 289.408612 
L 419.512475 285.610568 
L 423.824283 283.454476 
L 428.136092 283.012136 
L 432.447901 284.285645 
L 436.759709 287.207311 
L 441.071518 291.642404 
L 445.383326 297.394639 
L 449.695135 304.214158 
L 454.006944 311.807691 
L 458.318752 319.850488 
L 462.630561 327.999525 
L 466.942369 335.907458 
L 471.254178 343.236749 
L 475.565987 349.673393 
L 479.877795 354.939696 
L 484.189604 358.805564 
" style="fill:none;stroke:#b22222;stroke-linecap:square;stroke-width:2;"/>
   </g>
   <g id="patch_8">
    <path d="M 57.320552 403.762572 
L 57.320552 277.262115 
" style="fill:none;stroke:#000000;stroke-linecap:square;stroke-linejoin:miter;stroke-width:0.8;"/>
   </g>
   <g id="patch_9">
    <path d="M 484.189604 403.762572 
L 484.189604 277.262115 
" style="fill:none;stroke:#000000;stroke-linecap:square;stroke-linejoin:miter;stroke-width:0.8;"/>
   </g>
   <g id="patch_10">
    <path d="M 57.320552 403.762572 
L 484.189604 403.762572 
" style="fill:none;stroke:#000000;stroke-linecap:square;stroke-linejoin:miter;stroke-width:0.8;"/>
   </g>
   <g id="patch_11">
    <path d="M 57.320552 277.262115 
L 484.189604 277.262115 
" style="fill:none;stroke:#000000;stroke-linecap:square;stroke-linejoin:miter;stroke-width:0.8;"/>
   </g>
  </g>
  <g id="axes_4">
   <g id="patch_12">
    <path d="M 57.320552 542.64351 
L 484.189604 542.64351 
L 484.189604 416.143052 
L 57.320552 416.143052 
z
" style="fill:#ffffff;"/>
   </g>
   <g id="matplotlib.axis_5">
    <g id="xtick_13">
     <g id="line2d_34">
      <g>
       <use style="stroke:#000000;stroke-width:0.8;" x="57.320552" xlink:href="#m4490743e17" y="542.64351"/>
      </g>
     </g>
     <g id="text_12">
      <!-- 0e+00 -->
      <g transform="translate(40.510396 557.241948)scale(0.1 -0.1)">
       <use xlink:href="#DejaVuSans-48"/>
       <use x="63.623047" xlink:href="#DejaVuSans-101"/>
       <use x="125.146484" xlink:href="#DejaVuSans-43"/>
       <use x="208.935547" xlink:href="#DejaVuSans-48"/>
       <use x="272.558594" xlink:href="#DejaVuSans-48"/>
      </g>
     </g>
    </g>
    <g id="xtick_14">
     <g id="line2d_35">
      <g>
       <use style="stroke:#000000;stroke-width:0.8;" x="142.694363" xlink:href="#m4490743e17" y="542.64351"/>
      </g>
     </g>
     <g id="text_13">
      <!-- 2e-01 -->
      <g transform="translate(128.270144 557.241948)scale(0.1 -0.1)">
       <defs>
        <path d="M 12.40625 8.296875 
L 28.515625 8.296875 
L 28.515625 63.921875 
L 10.984375 60.40625 
L 10.984375 69.390625 
L 28.421875 72.90625 
L 38.28125 72.90625 
L 38.28125 8.296875 
L 54.390625 8.296875 
L 54.390625 0 
L 12.40625 0 
z
" id="DejaVuSans-49"/>
       </defs>
       <use xlink:href="#DejaVuSans-50"/>
       <use x="63.623047" xlink:href="#DejaVuSans-101"/>
       <use x="125.146484" xlink:href="#DejaVuSans-45"/>
       <use x="161.230469" xlink:href="#DejaVuSans-48"/>
       <use x="224.853516" xlink:href="#DejaVuSans-49"/>
      </g>
     </g>
    </g>
    <g id="xtick_15">
     <g id="line2d_36">
      <g>
       <use style="stroke:#000000;stroke-width:0.8;" x="228.068173" xlink:href="#m4490743e17" y="542.64351"/>
      </g>
     </g>
     <g id="text_14">
      <!-- 4e-01 -->
      <g transform="translate(213.643954 557.241948)scale(0.1 -0.1)">
       <use xlink:href="#DejaVuSans-52"/>
       <use x="63.623047" xlink:href="#DejaVuSans-101"/>
       <use x="125.146484" xlink:href="#DejaVuSans-45"/>
       <use x="161.230469" xlink:href="#DejaVuSans-48"/>
       <use x="224.853516" xlink:href="#DejaVuSans-49"/>
      </g>
     </g>
    </g>
    <g id="xtick_16">
     <g id="line2d_37">
      <g>
       <use style="stroke:#000000;stroke-width:0.8;" x="313.441983" xlink:href="#m4490743e17" y="542.64351"/>
      </g>
     </g>
     <g id="text_15">
      <!-- 6e-01 -->
      <g transform="translate(299.017765 557.241948)scale(0.1 -0.1)">
       <defs>
        <path d="M 33.015625 40.375 
Q 26.375 40.375 22.484375 35.828125 
Q 18.609375 31.296875 18.609375 23.390625 
Q 18.609375 15.53125 22.484375 10.953125 
Q 26.375 6.390625 33.015625 6.390625 
Q 39.65625 6.390625 43.53125 10.953125 
Q 47.40625 15.53125 47.40625 23.390625 
Q 47.40625 31.296875 43.53125 35.828125 
Q 39.65625 40.375 33.015625 40.375 
z
M 52.59375 71.296875 
L 52.59375 62.3125 
Q 48.875 64.0625 45.09375 64.984375 
Q 41.3125 65.921875 37.59375 65.921875 
Q 27.828125 65.921875 22.671875 59.328125 
Q 17.53125 52.734375 16.796875 39.40625 
Q 19.671875 43.65625 24.015625 45.921875 
Q 28.375 48.1875 33.59375 48.1875 
Q 44.578125 48.1875 50.953125 41.515625 
Q 57.328125 34.859375 57.328125 23.390625 
Q 57.328125 12.15625 50.6875 5.359375 
Q 44.046875 -1.421875 33.015625 -1.421875 
Q 20.359375 -1.421875 13.671875 8.265625 
Q 6.984375 17.96875 6.984375 36.375 
Q 6.984375 53.65625 15.1875 63.9375 
Q 23.390625 74.21875 37.203125 74.21875 
Q 40.921875 74.21875 44.703125 73.484375 
Q 48.484375 72.75 52.59375 71.296875 
z
" id="DejaVuSans-54"/>
       </defs>
       <use xlink:href="#DejaVuSans-54"/>
       <use x="63.623047" xlink:href="#DejaVuSans-101"/>
       <use x="125.146484" xlink:href="#DejaVuSans-45"/>
       <use x="161.230469" xlink:href="#DejaVuSans-48"/>
       <use x="224.853516" xlink:href="#DejaVuSans-49"/>
      </g>
     </g>
    </g>
    <g id="xtick_17">
     <g id="line2d_38">
      <g>
       <use style="stroke:#000000;stroke-width:0.8;" x="398.815794" xlink:href="#m4490743e17" y="542.64351"/>
      </g>
     </g>
     <g id="text_16">
      <!-- 8e-01 -->
      <g transform="translate(384.391575 557.241948)scale(0.1 -0.1)">
       <defs>
        <path d="M 31.78125 34.625 
Q 24.75 34.625 20.71875 30.859375 
Q 16.703125 27.09375 16.703125 20.515625 
Q 16.703125 13.921875 20.71875 10.15625 
Q 24.75 6.390625 31.78125 6.390625 
Q 38.8125 6.390625 42.859375 10.171875 
Q 46.921875 13.96875 46.921875 20.515625 
Q 46.921875 27.09375 42.890625 30.859375 
Q 38.875 34.625 31.78125 34.625 
z
M 21.921875 38.8125 
Q 15.578125 40.375 12.03125 44.71875 
Q 8.5 49.078125 8.5 55.328125 
Q 8.5 64.0625 14.71875 69.140625 
Q 20.953125 74.21875 31.78125 74.21875 
Q 42.671875 74.21875 48.875 69.140625 
Q 55.078125 64.0625 55.078125 55.328125 
Q 55.078125 49.078125 51.53125 44.71875 
Q 48 40.375 41.703125 38.8125 
Q 48.828125 37.15625 52.796875 32.3125 
Q 56.78125 27.484375 56.78125 20.515625 
Q 56.78125 9.90625 50.3125 4.234375 
Q 43.84375 -1.421875 31.78125 -1.421875 
Q 19.734375 -1.421875 13.25 4.234375 
Q 6.78125 9.90625 6.78125 20.515625 
Q 6.78125 27.484375 10.78125 32.3125 
Q 14.796875 37.15625 21.921875 38.8125 
z
M 18.3125 54.390625 
Q 18.3125 48.734375 21.84375 45.5625 
Q 25.390625 42.390625 31.78125 42.390625 
Q 38.140625 42.390625 41.71875 45.5625 
Q 45.3125 48.734375 45.3125 54.390625 
Q 45.3125 60.0625 41.71875 63.234375 
Q 38.140625 66.40625 31.78125 66.40625 
Q 25.390625 66.40625 21.84375 63.234375 
Q 18.3125 60.0625 18.3125 54.390625 
z
" id="DejaVuSans-56"/>
       </defs>
       <use xlink:href="#DejaVuSans-56"/>
       <use x="63.623047" xlink:href="#DejaVuSans-101"/>
       <use x="125.146484" xlink:href="#DejaVuSans-45"/>
       <use x="161.230469" xlink:href="#DejaVuSans-48"/>
       <use x="224.853516" xlink:href="#DejaVuSans-49"/>
      </g>
     </g>
    </g>
    <g id="xtick_18">
     <g id="line2d_39">
      <g>
       <use style="stroke:#000000;stroke-width:0.8;" x="484.189604" xlink:href="#m4490743e17" y="542.64351"/>
      </g>
     </g>
     <g id="text_17">
      <!-- 1e+00 -->
      <g transform="translate(467.379448 557.241948)scale(0.1 -0.1)">
       <use xlink:href="#DejaVuSans-49"/>
       <use x="63.623047" xlink:href="#DejaVuSans-101"/>
       <use x="125.146484" xlink:href="#DejaVuSans-43"/>
       <use x="208.935547" xlink:href="#DejaVuSans-48"/>
       <use x="272.558594" xlink:href="#DejaVuSans-48"/>
      </g>
     </g>
    </g>
    <g id="text_18">
     <!-- Coordinate, $x$ -->
     <g transform="translate(237.105078 570.920072)scale(0.1 -0.1)">
      <defs>
       <path d="M 64.40625 67.28125 
L 64.40625 56.890625 
Q 59.421875 61.53125 53.78125 63.8125 
Q 48.140625 66.109375 41.796875 66.109375 
Q 29.296875 66.109375 22.65625 58.46875 
Q 16.015625 50.828125 16.015625 36.375 
Q 16.015625 21.96875 22.65625 14.328125 
Q 29.296875 6.6875 41.796875 6.6875 
Q 48.140625 6.6875 53.78125 8.984375 
Q 59.421875 11.28125 64.40625 15.921875 
L 64.40625 5.609375 
Q 59.234375 2.09375 53.4375 0.328125 
Q 47.65625 -1.421875 41.21875 -1.421875 
Q 24.65625 -1.421875 15.125 8.703125 
Q 5.609375 18.84375 5.609375 36.375 
Q 5.609375 53.953125 15.125 64.078125 
Q 24.65625 74.21875 41.21875 74.21875 
Q 47.75 74.21875 53.53125 72.484375 
Q 59.328125 70.75 64.40625 67.28125 
z
" id="DejaVuSans-67"/>
      </defs>
      <use transform="translate(0 0.015625)" xlink:href="#DejaVuSans-67"/>
      <use transform="translate(69.824219 0.015625)" xlink:href="#DejaVuSans-111"/>
      <use transform="translate(131.005859 0.015625)" xlink:href="#DejaVuSans-111"/>
      <use transform="translate(192.1875 0.015625)" xlink:href="#DejaVuSans-114"/>
      <use transform="translate(233.300781 0.015625)" xlink:href="#DejaVuSans-100"/>
      <use transform="translate(296.777344 0.015625)" xlink:href="#DejaVuSans-105"/>
      <use transform="translate(324.560547 0.015625)" xlink:href="#DejaVuSans-110"/>
      <use transform="translate(387.939453 0.015625)" xlink:href="#DejaVuSans-97"/>
      <use transform="translate(449.21875 0.015625)" xlink:href="#DejaVuSans-116"/>
      <use transform="translate(488.427734 0.015625)" xlink:href="#DejaVuSans-101"/>
      <use transform="translate(549.951172 0.015625)" xlink:href="#DejaVuSans-44"/>
      <use transform="translate(581.738281 0.015625)" xlink:href="#DejaVuSans-32"/>
      <use transform="translate(613.525391 0.015625)" xlink:href="#DejaVuSans-Oblique-120"/>
     </g>
    </g>
   </g>
   <g id="matplotlib.axis_6">
    <g id="ytick_10">
     <g id="line2d_40">
      <g>
       <use style="stroke:#000000;stroke-width:0.8;" x="57.320552" xlink:href="#m52962758f4" y="532.833607"/>
      </g>
     </g>
     <g id="text_19">
      <!-- -2e-04 -->
      <g transform="translate(17.864302 536.632826)scale(0.1 -0.1)">
       <use xlink:href="#DejaVuSans-45"/>
       <use x="36.083984" xlink:href="#DejaVuSans-50"/>
       <use x="99.707031" xlink:href="#DejaVuSans-101"/>
       <use x="161.230469" xlink:href="#DejaVuSans-45"/>
       <use x="197.314453" xlink:href="#DejaVuSans-48"/>
       <use x="260.9375" xlink:href="#DejaVuSans-52"/>
      </g>
     </g>
    </g>
    <g id="ytick_11">
     <g id="line2d_41">
      <g>
       <use style="stroke:#000000;stroke-width:0.8;" x="57.320552" xlink:href="#m52962758f4" y="495.853429"/>
      </g>
     </g>
     <g id="text_20">
      <!-- -1e-04 -->
      <g transform="translate(17.864302 499.652648)scale(0.1 -0.1)">
       <use xlink:href="#DejaVuSans-45"/>
       <use x="36.083984" xlink:href="#DejaVuSans-49"/>
       <use x="99.707031" xlink:href="#DejaVuSans-101"/>
       <use x="161.230469" xlink:href="#DejaVuSans-45"/>
       <use x="197.314453" xlink:href="#DejaVuSans-48"/>
       <use x="260.9375" xlink:href="#DejaVuSans-52"/>
      </g>
     </g>
    </g>
    <g id="ytick_12">
     <g id="line2d_42">
      <g>
       <use style="stroke:#000000;stroke-width:0.8;" x="57.320552" xlink:href="#m52962758f4" y="458.873251"/>
      </g>
     </g>
     <g id="text_21">
      <!-- -5e-05 -->
      <g transform="translate(17.864302 462.67247)scale(0.1 -0.1)">
       <defs>
        <path d="M 10.796875 72.90625 
L 49.515625 72.90625 
L 49.515625 64.59375 
L 19.828125 64.59375 
L 19.828125 46.734375 
Q 21.96875 47.46875 24.109375 47.828125 
Q 26.265625 48.1875 28.421875 48.1875 
Q 40.625 48.1875 47.75 41.5 
Q 54.890625 34.8125 54.890625 23.390625 
Q 54.890625 11.625 47.5625 5.09375 
Q 40.234375 -1.421875 26.90625 -1.421875 
Q 22.3125 -1.421875 17.546875 -0.640625 
Q 12.796875 0.140625 7.71875 1.703125 
L 7.71875 11.625 
Q 12.109375 9.234375 16.796875 8.0625 
Q 21.484375 6.890625 26.703125 6.890625 
Q 35.15625 6.890625 40.078125 11.328125 
Q 45.015625 15.765625 45.015625 23.390625 
Q 45.015625 31 40.078125 35.4375 
Q 35.15625 39.890625 26.703125 39.890625 
Q 22.75 39.890625 18.8125 39.015625 
Q 14.890625 38.140625 10.796875 36.28125 
z
" id="DejaVuSans-53"/>
       </defs>
       <use xlink:href="#DejaVuSans-45"/>
       <use x="36.083984" xlink:href="#DejaVuSans-53"/>
       <use x="99.707031" xlink:href="#DejaVuSans-101"/>
       <use x="161.230469" xlink:href="#DejaVuSans-45"/>
       <use x="197.314453" xlink:href="#DejaVuSans-48"/>
       <use x="260.9375" xlink:href="#DejaVuSans-53"/>
      </g>
     </g>
    </g>
    <g id="ytick_13">
     <g id="line2d_43">
      <g>
       <use style="stroke:#000000;stroke-width:0.8;" x="57.320552" xlink:href="#m52962758f4" y="421.893073"/>
      </g>
     </g>
     <g id="text_22">
      <!-- 0e+00 -->
      <g transform="translate(16.70024 425.692292)scale(0.1 -0.1)">
       <use xlink:href="#DejaVuSans-48"/>
       <use x="63.623047" xlink:href="#DejaVuSans-101"/>
       <use x="125.146484" xlink:href="#DejaVuSans-43"/>
       <use x="208.935547" xlink:href="#DejaVuSans-48"/>
       <use x="272.558594" xlink:href="#DejaVuSans-48"/>
      </g>
     </g>
    </g>
    <g id="text_23">
     <!-- Deflection, $v(x)$ -->
     <g transform="translate(10.620552 517.893281)rotate(-90)scale(0.1 -0.1)">
      <defs>
       <path d="M 19.671875 64.796875 
L 19.671875 8.109375 
L 31.59375 8.109375 
Q 46.6875 8.109375 53.6875 14.9375 
Q 60.6875 21.78125 60.6875 36.53125 
Q 60.6875 51.171875 53.6875 57.984375 
Q 46.6875 64.796875 31.59375 64.796875 
z
M 9.8125 72.90625 
L 30.078125 72.90625 
Q 51.265625 72.90625 61.171875 64.09375 
Q 71.09375 55.28125 71.09375 36.53125 
Q 71.09375 17.671875 61.125 8.828125 
Q 51.171875 0 30.078125 0 
L 9.8125 0 
z
" id="DejaVuSans-68"/>
       <path d="M 9.421875 75.984375 
L 18.40625 75.984375 
L 18.40625 0 
L 9.421875 0 
z
" id="DejaVuSans-108"/>
       <path d="M 7.171875 54.6875 
L 16.703125 54.6875 
L 24.703125 8.203125 
L 50.875 54.6875 
L 60.40625 54.6875 
L 29.296875 0 
L 17.1875 0 
z
" id="DejaVuSans-Oblique-118"/>
      </defs>
      <use transform="translate(0 0.015625)" xlink:href="#DejaVuSans-68"/>
      <use transform="translate(77.001953 0.015625)" xlink:href="#DejaVuSans-101"/>
      <use transform="translate(138.525391 0.015625)" xlink:href="#DejaVuSans-102"/>
      <use transform="translate(173.730469 0.015625)" xlink:href="#DejaVuSans-108"/>
      <use transform="translate(201.513672 0.015625)" xlink:href="#DejaVuSans-101"/>
      <use transform="translate(263.037109 0.015625)" xlink:href="#DejaVuSans-99"/>
      <use transform="translate(318.017578 0.015625)" xlink:href="#DejaVuSans-116"/>
      <use transform="translate(357.226562 0.015625)" xlink:href="#DejaVuSans-105"/>
      <use transform="translate(385.009766 0.015625)" xlink:href="#DejaVuSans-111"/>
      <use transform="translate(446.191406 0.015625)" xlink:href="#DejaVuSans-110"/>
      <use transform="translate(509.570312 0.015625)" xlink:href="#DejaVuSans-44"/>
      <use transform="translate(541.357422 0.015625)" xlink:href="#DejaVuSans-32"/>
      <use transform="translate(573.144531 0.015625)" xlink:href="#DejaVuSans-Oblique-118"/>
      <use transform="translate(632.324219 0.015625)" xlink:href="#DejaVuSans-40"/>
      <use transform="translate(671.337891 0.015625)" xlink:href="#DejaVuSans-Oblique-120"/>
      <use transform="translate(730.517578 0.015625)" xlink:href="#DejaVuSans-41"/>
     </g>
    </g>
   </g>
   <g id="line2d_44">
    <path clip-path="url(#pb6ddbda8a3)" d="M 57.320552 421.893073 
L 61.632361 423.849732 
L 65.94417 425.842375 
L 70.255978 427.905455 
L 74.567787 430.070414 
L 78.879595 432.364342 
L 83.191404 434.808799 
L 87.503213 437.418866 
L 91.815021 440.202468 
L 96.12683 443.159973 
L 100.438638 446.284111 
L 104.750447 449.560197 
L 109.062256 452.96666 
L 113.374064 456.475844 
L 117.685873 460.05507 
L 121.997681 463.667888 
L 126.30949 467.27549 
L 130.621299 470.838223 
L 134.933107 474.317121 
L 139.244916 477.67543 
L 143.556724 480.880023 
L 147.868533 483.902685 
L 152.180342 486.721183 
L 156.49215 489.320101 
L 160.803959 491.691399 
L 165.115767 493.834669 
L 169.427576 495.757076 
L 173.739385 497.473003 
L 178.051193 499.003388 
L 182.363002 500.374807 
L 186.67481 501.618322 
L 190.986619 502.768141 
L 195.298428 503.860164 
L 199.610236 504.930447 
L 203.922045 506.013664 
L 208.233853 507.141632 
L 212.545662 508.341938 
L 216.857471 509.636751 
L 221.169279 511.041851 
L 225.481088 512.565911 
L 229.792896 514.21008 
L 234.104705 515.967857 
L 238.416514 517.825296 
L 242.728322 519.761491 
L 247.040131 521.749364 
L 251.351939 523.75669 
L 255.663748 525.747342 
L 259.975557 527.682684 
L 264.287365 529.523078 
L 268.599174 531.229419 
L 272.910982 532.764659 
L 277.222791 534.095243 
L 281.5346 535.192401 
L 285.846408 536.033249 
L 290.158217 536.601648 
L 294.470025 536.888791 
L 298.781834 536.893489 
L 303.093643 536.622149 
L 307.405451 536.088443 
L 311.71726 535.312682 
L 316.029068 534.320916 
L 320.340877 533.143808 
L 324.652686 531.815314 
L 328.964494 530.371228 
L 333.276303 528.847662 
L 337.588111 527.2795 
L 341.89992 525.698914 
L 346.211729 524.133979 
L 350.523537 522.607466 
L 354.835346 521.13584 
L 359.147154 519.728523 
L 363.458963 518.387439 
L 367.770772 517.106863 
L 372.08258 515.873588 
L 376.394389 514.667387 
L 380.706197 513.461765 
L 385.018006 512.224968 
L 389.329815 510.921204 
L 393.641623 509.512026 
L 397.953432 507.957826 
L 402.26524 506.219376 
L 406.577049 504.259351 
L 410.888858 502.043778 
L 415.200666 499.543347 
L 419.512475 496.73453 
L 423.824283 493.600471 
L 428.136092 490.131597 
L 432.447901 486.325942 
L 436.759709 482.189148 
L 441.071518 477.734172 
L 445.383326 472.980687 
L 449.695135 467.954206 
L 454.006944 462.684981 
L 458.318752 457.206696 
L 462.630561 451.555029 
L 466.942369 445.766128 
L 471.254178 439.875073 
L 475.565987 433.914377 
L 479.877795 427.912591 
L 484.189604 421.893073 
" style="fill:none;stroke:#000000;stroke-linecap:square;stroke-width:3;"/>
   </g>
   <g id="line2d_45">
    <path clip-path="url(#pb6ddbda8a3)" d="M 57.320552 421.893073 
L 484.189604 421.893073 
" style="fill:none;stroke:#000000;stroke-dasharray:5.55,2.4;stroke-dashoffset:0;stroke-width:1.5;"/>
   </g>
   <g id="patch_13">
    <path d="M 57.320552 542.64351 
L 57.320552 416.143053 
" style="fill:none;stroke:#000000;stroke-linecap:square;stroke-linejoin:miter;stroke-width:0.8;"/>
   </g>
   <g id="patch_14">
    <path d="M 484.189604 542.64351 
L 484.189604 416.143053 
" style="fill:none;stroke:#000000;stroke-linecap:square;stroke-linejoin:miter;stroke-width:0.8;"/>
   </g>
   <g id="patch_15">
    <path d="M 57.320552 542.64351 
L 484.189604 542.64351 
" style="fill:none;stroke:#000000;stroke-linecap:square;stroke-linejoin:miter;stroke-width:0.8;"/>
   </g>
   <g id="patch_16">
    <path d="M 57.320552 416.143052 
L 484.189604 416.143052 
" style="fill:none;stroke:#000000;stroke-linecap:square;stroke-linejoin:miter;stroke-width:0.8;"/>
   </g>
  </g>
 </g>
 <defs>
  <clipPath id="pe86d03189f">
   <rect height="126.500457" width="426.869051" x="57.320552" y="3.00024"/>
  </clipPath>
  <clipPath id="p4cd9e0190e">
   <rect height="126.500458" width="426.869051" x="57.320552" y="138.381177"/>
  </clipPath>
  <clipPath id="pb16e8d10ad">
   <rect height="126.500458" width="426.869051" x="57.320552" y="277.262115"/>
  </clipPath>
  <clipPath id="pb6ddbda8a3">
   <rect height="126.500458" width="426.869051" x="57.320552" y="416.143052"/>
  </clipPath>
 </defs>
</svg>
