<?xml version="1.0" encoding="utf-8" standalone="no"?>
<!DOCTYPE svg PUBLIC "-//W3C//DTD SVG 1.1//EN"
  "http://www.w3.org/Graphics/SVG/1.1/DTD/svg11.dtd">
<svg xmlns:xlink="http://www.w3.org/1999/xlink" width="504pt" height="576pt" viewBox="0 0 504 576" xmlns="http://www.w3.org/2000/svg" version="1.1">
 <metadata>
  <rdf:RDF xmlns:dc="http://purl.org/dc/elements/1.1/" xmlns:cc="http://creativecommons.org/ns#" xmlns:rdf="http://www.w3.org/1999/02/22-rdf-syntax-ns#">
   <cc:Work>
    <dc:type rdf:resource="http://purl.org/dc/dcmitype/StillImage"/>
    <dc:date>2026-01-17T12:48:20.210079</dc:date>
    <dc:format>image/svg+xml</dc:format>
    <dc:creator>
     <cc:Agent>
      <dc:title>Matplotlib v3.10.8, https://matplotlib.org/</dc:title>
     </cc:Agent>
    </dc:creator>
   </cc:Work>
  </rdf:RDF>
 </metadata>
 <defs>
  <style type="text/css">*{stroke-linejoin: round; stroke-linecap: butt}</style>
 </defs>
 <g id="figure_1">
  <g id="patch_1">
   <path d="M 0 576 
L 504 576 
L 504 0 
L 0 0 
z
" style="fill: #ffffff"/>
  </g>
  <g id="axes_1">
   <g id="FillBetweenPolyCollection_1">
    <defs>
     <path id="m948f493234" d="M 60.48 -488.260465 
L 60.48 -488.260465 
L 64.705455 -477.509322 
L 68.930909 -467.195467 
L 73.156364 -457.7384 
L 77.381818 -449.522773 
L 81.607273 -442.882746 
L 85.832727 -438.088391 
L 90.058182 -435.334713 
L 94.283636 -434.733713 
L 98.509091 -436.309836 
L 102.734545 -439.998975 
L 106.96 -445.651081 
L 111.185455 -453.036261 
L 115.410909 -461.854134 
L 119.636364 -471.746047 
L 123.861818 -482.30966 
L 128.087273 -493.115313 
L 132.312727 -503.723502 
L 136.538182 -513.702754 
L 140.763636 -522.647179 
L 144.989091 -530.192974 
L 149.214545 -536.033225 
L 153.44 -539.930388 
L 157.665455 -541.725952 
L 161.890909 -541.346885 
L 166.116364 -538.808605 
L 170.341818 -534.214353 
L 174.567273 -527.750993 
L 178.792727 -519.681414 
L 183.018182 -510.333832 
L 187.243636 -500.088449 
L 191.469091 -489.36198 
L 195.694545 -478.590708 
L 199.92 -468.212739 
L 204.145455 -458.650183 
L 208.370909 -450.291982 
L 212.596364 -443.478093 
L 216.821818 -438.485663 
L 221.047273 -435.517751 
L 225.272727 -434.695071 
L 229.498182 -436.051087 
L 233.723636 -439.530643 
L 237.949091 -444.992214 
L 242.174545 -452.213658 
L 246.4 -460.901254 
L 250.625455 -470.701646 
L 254.850909 -481.216217 
L 259.076364 -492.017303 
L 263.301818 -502.665585 
L 267.527273 -512.72796 
L 271.752727 -521.795154 
L 275.978182 -529.498375 
L 280.203636 -535.524303 
L 284.429091 -539.627843 
L 288.654545 -541.642089 
L 292.88 -541.485116 
L 297.105455 -539.163307 
L 301.330909 -534.771099 
L 305.556364 -528.487138 
L 309.781818 -520.567016 
L 314.007273 -511.332872 
L 318.232727 -501.160291 
L 322.458182 -490.463029 
L 326.683636 -479.67618 
L 330.909091 -469.238485 
L 335.134545 -459.574481 
L 339.36 -451.077238 
L 343.585455 -444.092369 
L 347.810909 -438.903973 
L 352.036364 -435.72308 
L 356.261818 -434.67907 
L 360.487273 -435.814405 
L 364.712727 -439.082907 
L 368.938182 -444.351635 
L 373.163636 -451.406291 
L 377.389091 -459.959937 
L 381.614545 -469.664665 
L 385.84 -480.125751 
L 390.065455 -490.917705 
L 394.290909 -501.601579 
L 398.516364 -511.742823 
L 402.741818 -520.928956 
L 406.967273 -528.786346 
L 411.192727 -534.995404 
L 415.418182 -539.303586 
L 419.643636 -541.535664 
L 423.869091 -541.60085 
L 428.094545 -539.496494 
L 432.32 -535.308186 
L 436.545455 -529.206281 
L 440.770909 -521.438964 
L 444.996364 -512.32216 
L 449.221818 -502.226681 
L 453.447273 -491.563147 
L 457.672727 -480.765281 
L 461.898182 -470.272271 
L 466.123636 -460.510904 
L 470.349091 -451.878211 
L 474.574545 -444.725312 
L 478.8 -439.343144 
L 478.8 -488.260465 
L 478.8 -488.260465 
L 474.574545 -488.260465 
L 470.349091 -488.260465 
L 466.123636 -488.260465 
L 461.898182 -488.260465 
L 457.672727 -488.260465 
L 453.447273 -488.260465 
L 449.221818 -488.260465 
L 444.996364 -488.260465 
L 440.770909 -488.260465 
L 436.545455 -488.260465 
L 432.32 -488.260465 
L 428.094545 -488.260465 
L 423.869091 -488.260465 
L 419.643636 -488.260465 
L 415.418182 -488.260465 
L 411.192727 -488.260465 
L 406.967273 -488.260465 
L 402.741818 -488.260465 
L 398.516364 -488.260465 
L 394.290909 -488.260465 
L 390.065455 -488.260465 
L 385.84 -488.260465 
L 381.614545 -488.260465 
L 377.389091 -488.260465 
L 373.163636 -488.260465 
L 368.938182 -488.260465 
L 364.712727 -488.260465 
L 360.487273 -488.260465 
L 356.261818 -488.260465 
L 352.036364 -488.260465 
L 347.810909 -488.260465 
L 343.585455 -488.260465 
L 339.36 -488.260465 
L 335.134545 -488.260465 
L 330.909091 -488.260465 
L 326.683636 -488.260465 
L 322.458182 -488.260465 
L 318.232727 -488.260465 
L 314.007273 -488.260465 
L 309.781818 -488.260465 
L 305.556364 -488.260465 
L 301.330909 -488.260465 
L 297.105455 -488.260465 
L 292.88 -488.260465 
L 288.654545 -488.260465 
L 284.429091 -488.260465 
L 280.203636 -488.260465 
L 275.978182 -488.260465 
L 271.752727 -488.260465 
L 267.527273 -488.260465 
L 263.301818 -488.260465 
L 259.076364 -488.260465 
L 254.850909 -488.260465 
L 250.625455 -488.260465 
L 246.4 -488.260465 
L 242.174545 -488.260465 
L 237.949091 -488.260465 
L 233.723636 -488.260465 
L 229.498182 -488.260465 
L 225.272727 -488.260465 
L 221.047273 -488.260465 
L 216.821818 -488.260465 
L 212.596364 -488.260465 
L 208.370909 -488.260465 
L 204.145455 -488.260465 
L 199.92 -488.260465 
L 195.694545 -488.260465 
L 191.469091 -488.260465 
L 187.243636 -488.260465 
L 183.018182 -488.260465 
L 178.792727 -488.260465 
L 174.567273 -488.260465 
L 170.341818 -488.260465 
L 166.116364 -488.260465 
L 161.890909 -488.260465 
L 157.665455 -488.260465 
L 153.44 -488.260465 
L 149.214545 -488.260465 
L 144.989091 -488.260465 
L 140.763636 -488.260465 
L 136.538182 -488.260465 
L 132.312727 -488.260465 
L 128.087273 -488.260465 
L 123.861818 -488.260465 
L 119.636364 -488.260465 
L 115.410909 -488.260465 
L 111.185455 -488.260465 
L 106.96 -488.260465 
L 102.734545 -488.260465 
L 98.509091 -488.260465 
L 94.283636 -488.260465 
L 90.058182 -488.260465 
L 85.832727 -488.260465 
L 81.607273 -488.260465 
L 77.381818 -488.260465 
L 73.156364 -488.260465 
L 68.930909 -488.260465 
L 64.705455 -488.260465 
L 60.48 -488.260465 
z
" style="stroke: #4169e1; stroke-opacity: 0.35; stroke-width: 2"/>
    </defs>
    <g clip-path="url(#p38726b9dd9)">
     <use xlink:href="#m948f493234" x="0" y="576" style="fill: #4169e1; fill-opacity: 0.35; stroke: #4169e1; stroke-opacity: 0.35; stroke-width: 2"/>
    </g>
   </g>
   <g id="FillBetweenPolyCollection_2">
    <path d="M 50.022 109.172093 
L 50.022 109.172093 
L 60.48 109.172093 
L 70.938 109.172093 
L 70.938 109.172093 
L 70.938 109.172093 
L 60.48 87.739535 
L 50.022 109.172093 
z
" style="fill: #c0c0c0"/>
   </g>
   <g id="FillBetweenPolyCollection_3">
    <path d="M 471.4794 102.742326 
L 471.4794 102.742326 
L 478.8 102.742326 
L 486.1206 102.742326 
L 486.1206 102.742326 
L 486.1206 102.742326 
L 478.8 87.739535 
L 471.4794 102.742326 
z
" style="fill: #c0c0c0"/>
   </g>
   <g id="line2d_1">
    <path d="M 60.48 87.739535 
L 64.705455 98.490678 
L 68.930909 108.804533 
L 73.156364 118.2616 
L 77.381818 126.477227 
L 81.607273 133.117254 
L 85.832727 137.911609 
L 90.058182 140.665287 
L 94.283636 141.266287 
L 98.509091 139.690164 
L 102.734545 136.001025 
L 106.96 130.348919 
L 111.185455 122.963739 
L 115.410909 114.145866 
L 119.636364 104.253953 
L 123.861818 93.69034 
L 128.087273 82.884687 
L 132.312727 72.276498 
L 136.538182 62.297246 
L 140.763636 53.352821 
L 144.989091 45.807026 
L 149.214545 39.966775 
L 153.44 36.069612 
L 157.665455 34.274048 
L 161.890909 34.653115 
L 166.116364 37.191395 
L 170.341818 41.785647 
L 174.567273 48.249007 
L 178.792727 56.318586 
L 183.018182 65.666168 
L 187.243636 75.911551 
L 191.469091 86.63802 
L 195.694545 97.409292 
L 199.92 107.787261 
L 204.145455 117.349817 
L 208.370909 125.708018 
L 212.596364 132.521907 
L 216.821818 137.514337 
L 221.047273 140.482249 
L 225.272727 141.304929 
L 229.498182 139.948913 
L 233.723636 136.469357 
L 237.949091 131.007786 
L 242.174545 123.786342 
L 246.4 115.098746 
L 250.625455 105.298354 
L 254.850909 94.783783 
L 259.076364 83.982697 
L 263.301818 73.334415 
L 267.527273 63.27204 
L 271.752727 54.204846 
L 275.978182 46.501625 
L 280.203636 40.475697 
L 284.429091 36.372157 
L 288.654545 34.357911 
L 292.88 34.514884 
L 297.105455 36.836693 
L 301.330909 41.228901 
L 305.556364 47.512862 
L 309.781818 55.432984 
L 314.007273 64.667128 
L 318.232727 74.839709 
L 322.458182 85.536971 
L 326.683636 96.32382 
L 330.909091 106.761515 
L 335.134545 116.425519 
L 339.36 124.922762 
L 343.585455 131.907631 
L 347.810909 137.096027 
L 352.036364 140.27692 
L 356.261818 141.32093 
L 360.487273 140.185595 
L 364.712727 136.917093 
L 368.938182 131.648365 
L 373.163636 124.593709 
L 377.389091 116.040063 
L 381.614545 106.335335 
L 385.84 95.874249 
L 390.065455 85.082295 
L 394.290909 74.398421 
L 398.516364 64.257177 
L 402.741818 55.071044 
L 406.967273 47.213654 
L 411.192727 41.004596 
L 415.418182 36.696414 
L 419.643636 34.464336 
L 423.869091 34.39915 
L 428.094545 36.503506 
L 432.32 40.691814 
L 436.545455 46.793719 
L 440.770909 54.561036 
L 444.996364 63.67784 
L 449.221818 73.773319 
L 453.447273 84.436853 
L 457.672727 95.234719 
L 461.898182 105.727729 
L 466.123636 115.489096 
L 470.349091 124.121789 
L 474.574545 131.274688 
L 478.8 136.656856 
" clip-path="url(#p38726b9dd9)" style="fill: none; stroke: #4169e1; stroke-width: 2; stroke-linecap: square"/>
   </g>
   <g id="line2d_2">
    <path d="M 60.48 87.739535 
L 478.8 87.739535 
" clip-path="url(#p38726b9dd9)" style="fill: none; stroke: #000000; stroke-width: 3; stroke-linecap: square"/>
   </g>
   <g id="line2d_3">
    <path d="M 50.022 109.172093 
L 60.48 109.172093 
L 70.938 109.172093 
" style="fill: none; stroke: #000000; stroke-linecap: round"/>
   </g>
   <g id="line2d_4">
    <path d="M 50.022 109.172093 
L 60.48 87.739535 
L 70.938 109.172093 
" style="fill: none; stroke: #000000; stroke-linecap: round"/>
   </g>
   <g id="line2d_5">
    <path d="M 50.022 111.315349 
L 70.938 111.315349 
" style="fill: none; stroke: #c0c0c0; stroke-width: 5"/>
   </g>
   <g id="line2d_6">
    <path d="M 50.022 109.172093 
L 70.938 109.172093 
" style="fill: none; stroke: #000000; stroke-width: 1.5"/>
   </g>
   <g id="line2d_7">
    <path d="M 471.4794 102.742326 
L 478.8 102.742326 
L 486.1206 102.742326 
" style="fill: none; stroke: #000000; stroke-linecap: round"/>
   </g>
   <g id="line2d_8">
    <path d="M 471.4794 102.742326 
L 478.8 87.739535 
L 486.1206 102.742326 
" style="fill: none; stroke: #000000; stroke-linecap: round"/>
   </g>
   <g id="line2d_9">
    <path d="M 474.6168 105.957209 
" style="fill: none; stroke: #000000; stroke-width: 1.5; stroke-linecap: square"/>
    <defs>
     <path id="mc0290a6cf9" d="M 0 3 
C 0.795609 3 1.55874 2.683901 2.12132 2.12132 
C 2.683901 1.55874 3 0.795609 3 0 
C 3 -0.795609 2.683901 -1.55874 2.12132 -2.12132 
C 1.55874 -2.683901 0.795609 -3 0 -3 
C -0.795609 -3 -1.55874 -2.683901 -2.12132 -2.12132 
C -2.683901 -1.55874 -3 -0.795609 -3 0 
C -3 0.795609 -2.683901 1.55874 -2.12132 2.12132 
C -1.55874 2.683901 -0.795609 3 0 3 
z
"/>
    </defs>
    <g>
     <use xlink:href="#mc0290a6cf9" x="474.6168" y="105.957209"/>
    </g>
   </g>
   <g id="line2d_10">
    <path d="M 482.9832 105.957209 
" style="fill: none; stroke: #000000; stroke-width: 1.5; stroke-linecap: square"/>
    <g>
     <use xlink:href="#mc0290a6cf9" x="482.9832" y="105.957209"/>
    </g>
   </g>
   <g id="line2d_11">
    <path d="M 468.342 111.315349 
L 489.258 111.315349 
" style="fill: none; stroke: #c0c0c0; stroke-width: 5"/>
   </g>
   <g id="line2d_12">
    <path d="M 468.342 109.172093 
L 489.258 109.172093 
" style="fill: none; stroke: #000000; stroke-width: 1.5"/>
   </g>
  </g>
  <g id="axes_2">
   <g id="patch_2">
    <path d="M 60.48 276.346047 
L 478.8 276.346047 
L 478.8 158.466977 
L 60.48 158.466977 
z
" style="fill: #ffffff"/>
   </g>
   <g id="FillBetweenPolyCollection_4">
    <defs>
     <path id="mf9b9efbe73" d="M 60.48 -361.007853 
L 60.48 -412.174884 
L 64.705455 -411.08454 
L 68.930909 -407.857858 
L 73.156364 -402.626077 
L 77.381818 -395.601993 
L 81.607273 -387.0713 
L 85.832727 -377.380972 
L 90.058182 -366.925149 
L 94.283636 -356.129106 
L 98.509091 -345.431956 
L 102.734545 -335.268791 
L 106.96 -326.052983 
L 111.185455 -318.159371 
L 115.410909 -311.909016 
L 119.636364 -307.556143 
L 123.861818 -305.277798 
L 128.087273 -305.16665 
L 132.312727 -307.227219 
L 136.538182 -311.375695 
L 140.763636 -317.443345 
L 144.989091 -325.183375 
L 149.214545 -334.280972 
L 153.44 -344.366103 
L 157.665455 -355.028571 
L 161.890909 -365.834695 
L 166.116364 -376.344952 
L 170.341818 -386.131852 
L 174.567273 -394.797328 
L 178.792727 -401.988924 
L 183.018182 -407.414131 
L 187.243636 -410.852289 
L 191.469091 -412.163553 
L 195.694545 -411.294592 
L 199.92 -408.280748 
L 204.145455 -403.244606 
L 208.370909 -396.391002 
L 212.596364 -387.998698 
L 216.821818 -378.409038 
L 221.047273 -368.012067 
L 225.272727 -357.230668 
L 229.498182 -346.503359 
L 233.723636 -336.266456 
L 237.949091 -326.936331 
L 242.174545 -318.892473 
L 246.4 -312.462055 
L 250.625455 -307.906624 
L 254.850909 -305.411467 
L 259.076364 -305.078069 
L 263.301818 -306.919992 
L 267.527273 -310.862317 
L 271.752727 -316.744697 
L 275.978182 -324.327874 
L 280.203636 -333.303414 
L 284.429091 -343.306249 
L 288.654545 -353.929529 
L 292.88 -364.741167 
L 297.105455 -375.301415 
L 301.330909 -385.180751 
L 305.556364 -393.977347 
L 309.781818 -401.333415 
L 314.007273 -406.949756 
L 318.232727 -410.597935 
L 322.458182 -412.129567 
L 326.683636 -411.482355 
L 330.909091 -408.682624 
L 335.134545 -403.844248 
L 339.36 -397.164021 
L 343.585455 -388.913653 
L 347.810909 -379.428714 
L 352.036364 -369.094991 
L 356.261818 -358.332793 
L 360.487273 -347.579857 
L 364.712727 -337.273543 
L 368.938182 -327.833045 
L 373.163636 -319.642341 
L 377.389091 -313.034578 
L 381.614545 -308.278515 
L 385.84 -305.567599 
L 390.065455 -305.012093 
L 394.290909 -306.634591 
L 398.516364 -310.369099 
L 402.741818 -316.063723 
L 406.967273 -323.486842 
L 411.192727 -332.336531 
L 415.418182 -342.252842 
L 419.643636 -352.832444 
L 423.869091 -363.645026 
L 428.094545 -374.250802 
L 432.32 -384.218399 
L 436.545455 -393.142397 
L 440.770909 -400.659828 
L 444.996364 -406.464929 
L 449.221818 -410.321588 
L 453.447273 -412.07294 
L 457.672727 -411.647751 
L 461.898182 -409.063315 
L 466.123636 -404.424751 
L 470.349091 -397.920725 
L 474.574545 -389.815779 
L 478.8 -380.43957 
L 478.8 -361.007853 
L 478.8 -361.007853 
L 474.574545 -361.007853 
L 470.349091 -361.007853 
L 466.123636 -361.007853 
L 461.898182 -361.007853 
L 457.672727 -361.007853 
L 453.447273 -361.007853 
L 449.221818 -361.007853 
L 444.996364 -361.007853 
L 440.770909 -361.007853 
L 436.545455 -361.007853 
L 432.32 -361.007853 
L 428.094545 -361.007853 
L 423.869091 -361.007853 
L 419.643636 -361.007853 
L 415.418182 -361.007853 
L 411.192727 -361.007853 
L 406.967273 -361.007853 
L 402.741818 -361.007853 
L 398.516364 -361.007853 
L 394.290909 -361.007853 
L 390.065455 -361.007853 
L 385.84 -361.007853 
L 381.614545 -361.007853 
L 377.389091 -361.007853 
L 373.163636 -361.007853 
L 368.938182 -361.007853 
L 364.712727 -361.007853 
L 360.487273 -361.007853 
L 356.261818 -361.007853 
L 352.036364 -361.007853 
L 347.810909 -361.007853 
L 343.585455 -361.007853 
L 339.36 -361.007853 
L 335.134545 -361.007853 
L 330.909091 -361.007853 
L 326.683636 -361.007853 
L 322.458182 -361.007853 
L 318.232727 -361.007853 
L 314.007273 -361.007853 
L 309.781818 -361.007853 
L 305.556364 -361.007853 
L 301.330909 -361.007853 
L 297.105455 -361.007853 
L 292.88 -361.007853 
L 288.654545 -361.007853 
L 284.429091 -361.007853 
L 280.203636 -361.007853 
L 275.978182 -361.007853 
L 271.752727 -361.007853 
L 267.527273 -361.007853 
L 263.301818 -361.007853 
L 259.076364 -361.007853 
L 254.850909 -361.007853 
L 250.625455 -361.007853 
L 246.4 -361.007853 
L 242.174545 -361.007853 
L 237.949091 -361.007853 
L 233.723636 -361.007853 
L 229.498182 -361.007853 
L 225.272727 -361.007853 
L 221.047273 -361.007853 
L 216.821818 -361.007853 
L 212.596364 -361.007853 
L 208.370909 -361.007853 
L 204.145455 -361.007853 
L 199.92 -361.007853 
L 195.694545 -361.007853 
L 191.469091 -361.007853 
L 187.243636 -361.007853 
L 183.018182 -361.007853 
L 178.792727 -361.007853 
L 174.567273 -361.007853 
L 170.341818 -361.007853 
L 166.116364 -361.007853 
L 161.890909 -361.007853 
L 157.665455 -361.007853 
L 153.44 -361.007853 
L 149.214545 -361.007853 
L 144.989091 -361.007853 
L 140.763636 -361.007853 
L 136.538182 -361.007853 
L 132.312727 -361.007853 
L 128.087273 -361.007853 
L 123.861818 -361.007853 
L 119.636364 -361.007853 
L 115.410909 -361.007853 
L 111.185455 -361.007853 
L 106.96 -361.007853 
L 102.734545 -361.007853 
L 98.509091 -361.007853 
L 94.283636 -361.007853 
L 90.058182 -361.007853 
L 85.832727 -361.007853 
L 81.607273 -361.007853 
L 77.381818 -361.007853 
L 73.156364 -361.007853 
L 68.930909 -361.007853 
L 64.705455 -361.007853 
L 60.48 -361.007853 
z
" style="stroke: #228b22; stroke-opacity: 0.35"/>
    </defs>
    <g clip-path="url(#p6d5bae6813)">
     <use xlink:href="#mf9b9efbe73" x="0" y="576" style="fill: #228b22; fill-opacity: 0.35; stroke: #228b22; stroke-opacity: 0.35"/>
    </g>
   </g>
   <g id="matplotlib.axis_1">
    <g id="xtick_1">
     <g id="line2d_13">
      <defs>
       <path id="mfddddf748e" d="M 0 0 
L 0 3.5 
" style="stroke: #000000; stroke-width: 0.8"/>
      </defs>
      <g>
       <use xlink:href="#mfddddf748e" x="60.48" y="276.346047" style="stroke: #000000; stroke-width: 0.8"/>
      </g>
     </g>
    </g>
    <g id="xtick_2">
     <g id="line2d_14">
      <g>
       <use xlink:href="#mfddddf748e" x="144.144" y="276.346047" style="stroke: #000000; stroke-width: 0.8"/>
      </g>
     </g>
    </g>
    <g id="xtick_3">
     <g id="line2d_15">
      <g>
       <use xlink:href="#mfddddf748e" x="227.808" y="276.346047" style="stroke: #000000; stroke-width: 0.8"/>
      </g>
     </g>
    </g>
    <g id="xtick_4">
     <g id="line2d_16">
      <g>
       <use xlink:href="#mfddddf748e" x="311.472" y="276.346047" style="stroke: #000000; stroke-width: 0.8"/>
      </g>
     </g>
    </g>
    <g id="xtick_5">
     <g id="line2d_17">
      <g>
       <use xlink:href="#mfddddf748e" x="395.136" y="276.346047" style="stroke: #000000; stroke-width: 0.8"/>
      </g>
     </g>
    </g>
    <g id="xtick_6">
     <g id="line2d_18">
      <g>
       <use xlink:href="#mfddddf748e" x="478.8" y="276.346047" style="stroke: #000000; stroke-width: 0.8"/>
      </g>
     </g>
    </g>
   </g>
   <g id="matplotlib.axis_2">
    <g id="ytick_1">
     <g id="line2d_19">
      <defs>
       <path id="m5661452b6c" d="M 0 0 
L -3.5 0 
" style="stroke: #000000; stroke-width: 0.8"/>
      </defs>
      <g>
       <use xlink:href="#m5661452b6c" x="60.48" y="268.606527" style="stroke: #000000; stroke-width: 0.8"/>
      </g>
     </g>
     <g id="text_1">
      <!-- -5e-02 -->
      <g transform="translate(21.02375 272.405746) scale(0.1 -0.1)">
       <defs>
        <path id="DejaVuSans-2d" d="M 313 2009 
L 1997 2009 
L 1997 1497 
L 313 1497 
L 313 2009 
z
" transform="scale(0.015625)"/>
        <path id="DejaVuSans-35" d="M 691 4666 
L 3169 4666 
L 3169 4134 
L 1269 4134 
L 1269 2991 
Q 1406 3038 1543 3061 
Q 1681 3084 1819 3084 
Q 2600 3084 3056 2656 
Q 3513 2228 3513 1497 
Q 3513 744 3044 326 
Q 2575 -91 1722 -91 
Q 1428 -91 1123 -41 
Q 819 9 494 109 
L 494 744 
Q 775 591 1075 516 
Q 1375 441 1709 441 
Q 2250 441 2565 725 
Q 2881 1009 2881 1497 
Q 2881 1984 2565 2268 
Q 2250 2553 1709 2553 
Q 1456 2553 1204 2497 
Q 953 2441 691 2322 
L 691 4666 
z
" transform="scale(0.015625)"/>
        <path id="DejaVuSans-65" d="M 3597 1894 
L 3597 1613 
L 953 1613 
Q 991 1019 1311 708 
Q 1631 397 2203 397 
Q 2534 397 2845 478 
Q 3156 559 3463 722 
L 3463 178 
Q 3153 47 2828 -22 
Q 2503 -91 2169 -91 
Q 1331 -91 842 396 
Q 353 884 353 1716 
Q 353 2575 817 3079 
Q 1281 3584 2069 3584 
Q 2775 3584 3186 3129 
Q 3597 2675 3597 1894 
z
M 3022 2063 
Q 3016 2534 2758 2815 
Q 2500 3097 2075 3097 
Q 1594 3097 1305 2825 
Q 1016 2553 972 2059 
L 3022 2063 
z
" transform="scale(0.015625)"/>
        <path id="DejaVuSans-30" d="M 2034 4250 
Q 1547 4250 1301 3770 
Q 1056 3291 1056 2328 
Q 1056 1369 1301 889 
Q 1547 409 2034 409 
Q 2525 409 2770 889 
Q 3016 1369 3016 2328 
Q 3016 3291 2770 3770 
Q 2525 4250 2034 4250 
z
M 2034 4750 
Q 2819 4750 3233 4129 
Q 3647 3509 3647 2328 
Q 3647 1150 3233 529 
Q 2819 -91 2034 -91 
Q 1250 -91 836 529 
Q 422 1150 422 2328 
Q 422 3509 836 4129 
Q 1250 4750 2034 4750 
z
" transform="scale(0.015625)"/>
        <path id="DejaVuSans-32" d="M 1228 531 
L 3431 531 
L 3431 0 
L 469 0 
L 469 531 
Q 828 903 1448 1529 
Q 2069 2156 2228 2338 
Q 2531 2678 2651 2914 
Q 2772 3150 2772 3378 
Q 2772 3750 2511 3984 
Q 2250 4219 1831 4219 
Q 1534 4219 1204 4116 
Q 875 4013 500 3803 
L 500 4441 
Q 881 4594 1212 4672 
Q 1544 4750 1819 4750 
Q 2544 4750 2975 4387 
Q 3406 4025 3406 3419 
Q 3406 3131 3298 2873 
Q 3191 2616 2906 2266 
Q 2828 2175 2409 1742 
Q 1991 1309 1228 531 
z
" transform="scale(0.015625)"/>
       </defs>
       <use xlink:href="#DejaVuSans-2d"/>
       <use xlink:href="#DejaVuSans-35" transform="translate(36.083984 0)"/>
       <use xlink:href="#DejaVuSans-65" transform="translate(99.707031 0)"/>
       <use xlink:href="#DejaVuSans-2d" transform="translate(161.230469 0)"/>
       <use xlink:href="#DejaVuSans-30" transform="translate(197.314453 0)"/>
       <use xlink:href="#DejaVuSans-32" transform="translate(260.9375 0)"/>
      </g>
     </g>
    </g>
    <g id="ytick_2">
     <g id="line2d_20">
      <g>
       <use xlink:href="#m5661452b6c" x="60.48" y="241.799337" style="stroke: #000000; stroke-width: 0.8"/>
      </g>
     </g>
     <g id="text_2">
      <!-- -3e-02 -->
      <g transform="translate(21.02375 245.598556) scale(0.1 -0.1)">
       <defs>
        <path id="DejaVuSans-33" d="M 2597 2516 
Q 3050 2419 3304 2112 
Q 3559 1806 3559 1356 
Q 3559 666 3084 287 
Q 2609 -91 1734 -91 
Q 1441 -91 1130 -33 
Q 819 25 488 141 
L 488 750 
Q 750 597 1062 519 
Q 1375 441 1716 441 
Q 2309 441 2620 675 
Q 2931 909 2931 1356 
Q 2931 1769 2642 2001 
Q 2353 2234 1838 2234 
L 1294 2234 
L 1294 2753 
L 1863 2753 
Q 2328 2753 2575 2939 
Q 2822 3125 2822 3475 
Q 2822 3834 2567 4026 
Q 2313 4219 1838 4219 
Q 1578 4219 1281 4162 
Q 984 4106 628 3988 
L 628 4550 
Q 988 4650 1302 4700 
Q 1616 4750 1894 4750 
Q 2613 4750 3031 4423 
Q 3450 4097 3450 3541 
Q 3450 3153 3228 2886 
Q 3006 2619 2597 2516 
z
" transform="scale(0.015625)"/>
       </defs>
       <use xlink:href="#DejaVuSans-2d"/>
       <use xlink:href="#DejaVuSans-33" transform="translate(36.083984 0)"/>
       <use xlink:href="#DejaVuSans-65" transform="translate(99.707031 0)"/>
       <use xlink:href="#DejaVuSans-2d" transform="translate(161.230469 0)"/>
       <use xlink:href="#DejaVuSans-30" transform="translate(197.314453 0)"/>
       <use xlink:href="#DejaVuSans-32" transform="translate(260.9375 0)"/>
      </g>
     </g>
    </g>
    <g id="ytick_3">
     <g id="line2d_21">
      <g>
       <use xlink:href="#m5661452b6c" x="60.48" y="214.992147" style="stroke: #000000; stroke-width: 0.8"/>
      </g>
     </g>
     <g id="text_3">
      <!-- 0e+00 -->
      <g transform="translate(19.859687 218.791366) scale(0.1 -0.1)">
       <defs>
        <path id="DejaVuSans-2b" d="M 2944 4013 
L 2944 2272 
L 4684 2272 
L 4684 1741 
L 2944 1741 
L 2944 0 
L 2419 0 
L 2419 1741 
L 678 1741 
L 678 2272 
L 2419 2272 
L 2419 4013 
L 2944 4013 
z
" transform="scale(0.015625)"/>
       </defs>
       <use xlink:href="#DejaVuSans-30"/>
       <use xlink:href="#DejaVuSans-65" transform="translate(63.623047 0)"/>
       <use xlink:href="#DejaVuSans-2b" transform="translate(125.146484 0)"/>
       <use xlink:href="#DejaVuSans-30" transform="translate(208.935547 0)"/>
       <use xlink:href="#DejaVuSans-30" transform="translate(272.558594 0)"/>
      </g>
     </g>
    </g>
    <g id="ytick_4">
     <g id="line2d_22">
      <g>
       <use xlink:href="#m5661452b6c" x="60.48" y="188.184957" style="stroke: #000000; stroke-width: 0.8"/>
      </g>
     </g>
     <g id="text_4">
      <!-- 2e-02 -->
      <g transform="translate(24.631562 191.984175) scale(0.1 -0.1)">
       <use xlink:href="#DejaVuSans-32"/>
       <use xlink:href="#DejaVuSans-65" transform="translate(63.623047 0)"/>
       <use xlink:href="#DejaVuSans-2d" transform="translate(125.146484 0)"/>
       <use xlink:href="#DejaVuSans-30" transform="translate(161.230469 0)"/>
       <use xlink:href="#DejaVuSans-32" transform="translate(224.853516 0)"/>
      </g>
     </g>
    </g>
    <g id="ytick_5">
     <g id="line2d_23">
      <g>
       <use xlink:href="#m5661452b6c" x="60.48" y="161.377767" style="stroke: #000000; stroke-width: 0.8"/>
      </g>
     </g>
     <g id="text_5">
      <!-- 5e-02 -->
      <g transform="translate(24.631562 165.176985) scale(0.1 -0.1)">
       <use xlink:href="#DejaVuSans-35"/>
       <use xlink:href="#DejaVuSans-65" transform="translate(63.623047 0)"/>
       <use xlink:href="#DejaVuSans-2d" transform="translate(125.146484 0)"/>
       <use xlink:href="#DejaVuSans-30" transform="translate(161.230469 0)"/>
       <use xlink:href="#DejaVuSans-32" transform="translate(224.853516 0)"/>
      </g>
     </g>
    </g>
    <g id="text_6">
     <!-- Shear force, $V(x)$ -->
     <g transform="translate(13.78 259.706512) rotate(-90) scale(0.1 -0.1)">
      <defs>
       <path id="DejaVuSans-53" d="M 3425 4513 
L 3425 3897 
Q 3066 4069 2747 4153 
Q 2428 4238 2131 4238 
Q 1616 4238 1336 4038 
Q 1056 3838 1056 3469 
Q 1056 3159 1242 3001 
Q 1428 2844 1947 2747 
L 2328 2669 
Q 3034 2534 3370 2195 
Q 3706 1856 3706 1288 
Q 3706 609 3251 259 
Q 2797 -91 1919 -91 
Q 1588 -91 1214 -16 
Q 841 59 441 206 
L 441 856 
Q 825 641 1194 531 
Q 1563 422 1919 422 
Q 2459 422 2753 634 
Q 3047 847 3047 1241 
Q 3047 1584 2836 1778 
Q 2625 1972 2144 2069 
L 1759 2144 
Q 1053 2284 737 2584 
Q 422 2884 422 3419 
Q 422 4038 858 4394 
Q 1294 4750 2059 4750 
Q 2388 4750 2728 4690 
Q 3069 4631 3425 4513 
z
" transform="scale(0.015625)"/>
       <path id="DejaVuSans-68" d="M 3513 2113 
L 3513 0 
L 2938 0 
L 2938 2094 
Q 2938 2591 2744 2837 
Q 2550 3084 2163 3084 
Q 1697 3084 1428 2787 
Q 1159 2491 1159 1978 
L 1159 0 
L 581 0 
L 581 4863 
L 1159 4863 
L 1159 2956 
Q 1366 3272 1645 3428 
Q 1925 3584 2291 3584 
Q 2894 3584 3203 3211 
Q 3513 2838 3513 2113 
z
" transform="scale(0.015625)"/>
       <path id="DejaVuSans-61" d="M 2194 1759 
Q 1497 1759 1228 1600 
Q 959 1441 959 1056 
Q 959 750 1161 570 
Q 1363 391 1709 391 
Q 2188 391 2477 730 
Q 2766 1069 2766 1631 
L 2766 1759 
L 2194 1759 
z
M 3341 1997 
L 3341 0 
L 2766 0 
L 2766 531 
Q 2569 213 2275 61 
Q 1981 -91 1556 -91 
Q 1019 -91 701 211 
Q 384 513 384 1019 
Q 384 1609 779 1909 
Q 1175 2209 1959 2209 
L 2766 2209 
L 2766 2266 
Q 2766 2663 2505 2880 
Q 2244 3097 1772 3097 
Q 1472 3097 1187 3025 
Q 903 2953 641 2809 
L 641 3341 
Q 956 3463 1253 3523 
Q 1550 3584 1831 3584 
Q 2591 3584 2966 3190 
Q 3341 2797 3341 1997 
z
" transform="scale(0.015625)"/>
       <path id="DejaVuSans-72" d="M 2631 2963 
Q 2534 3019 2420 3045 
Q 2306 3072 2169 3072 
Q 1681 3072 1420 2755 
Q 1159 2438 1159 1844 
L 1159 0 
L 581 0 
L 581 3500 
L 1159 3500 
L 1159 2956 
Q 1341 3275 1631 3429 
Q 1922 3584 2338 3584 
Q 2397 3584 2469 3576 
Q 2541 3569 2628 3553 
L 2631 2963 
z
" transform="scale(0.015625)"/>
       <path id="DejaVuSans-20" transform="scale(0.015625)"/>
       <path id="DejaVuSans-66" d="M 2375 4863 
L 2375 4384 
L 1825 4384 
Q 1516 4384 1395 4259 
Q 1275 4134 1275 3809 
L 1275 3500 
L 2222 3500 
L 2222 3053 
L 1275 3053 
L 1275 0 
L 697 0 
L 697 3053 
L 147 3053 
L 147 3500 
L 697 3500 
L 697 3744 
Q 697 4328 969 4595 
Q 1241 4863 1831 4863 
L 2375 4863 
z
" transform="scale(0.015625)"/>
       <path id="DejaVuSans-6f" d="M 1959 3097 
Q 1497 3097 1228 2736 
Q 959 2375 959 1747 
Q 959 1119 1226 758 
Q 1494 397 1959 397 
Q 2419 397 2687 759 
Q 2956 1122 2956 1747 
Q 2956 2369 2687 2733 
Q 2419 3097 1959 3097 
z
M 1959 3584 
Q 2709 3584 3137 3096 
Q 3566 2609 3566 1747 
Q 3566 888 3137 398 
Q 2709 -91 1959 -91 
Q 1206 -91 779 398 
Q 353 888 353 1747 
Q 353 2609 779 3096 
Q 1206 3584 1959 3584 
z
" transform="scale(0.015625)"/>
       <path id="DejaVuSans-63" d="M 3122 3366 
L 3122 2828 
Q 2878 2963 2633 3030 
Q 2388 3097 2138 3097 
Q 1578 3097 1268 2742 
Q 959 2388 959 1747 
Q 959 1106 1268 751 
Q 1578 397 2138 397 
Q 2388 397 2633 464 
Q 2878 531 3122 666 
L 3122 134 
Q 2881 22 2623 -34 
Q 2366 -91 2075 -91 
Q 1284 -91 818 406 
Q 353 903 353 1747 
Q 353 2603 823 3093 
Q 1294 3584 2113 3584 
Q 2378 3584 2631 3529 
Q 2884 3475 3122 3366 
z
" transform="scale(0.015625)"/>
       <path id="DejaVuSans-2c" d="M 750 794 
L 1409 794 
L 1409 256 
L 897 -744 
L 494 -744 
L 750 256 
L 750 794 
z
" transform="scale(0.015625)"/>
       <path id="DejaVuSans-Oblique-56" d="M 1319 0 
L 500 4666 
L 1119 4666 
L 1797 653 
L 4063 4666 
L 4750 4666 
L 2053 0 
L 1319 0 
z
" transform="scale(0.015625)"/>
       <path id="DejaVuSans-28" d="M 1984 4856 
Q 1566 4138 1362 3434 
Q 1159 2731 1159 2009 
Q 1159 1288 1364 580 
Q 1569 -128 1984 -844 
L 1484 -844 
Q 1016 -109 783 600 
Q 550 1309 550 2009 
Q 550 2706 781 3412 
Q 1013 4119 1484 4856 
L 1984 4856 
z
" transform="scale(0.015625)"/>
       <path id="DejaVuSans-Oblique-78" d="M 3841 3500 
L 2234 1784 
L 3219 0 
L 2559 0 
L 1819 1388 
L 531 0 
L -166 0 
L 1556 1844 
L 641 3500 
L 1300 3500 
L 1972 2234 
L 3144 3500 
L 3841 3500 
z
" transform="scale(0.015625)"/>
       <path id="DejaVuSans-29" d="M 513 4856 
L 1013 4856 
Q 1481 4119 1714 3412 
Q 1947 2706 1947 2009 
Q 1947 1309 1714 600 
Q 1481 -109 1013 -844 
L 513 -844 
Q 928 -128 1133 580 
Q 1338 1288 1338 2009 
Q 1338 2731 1133 3434 
Q 928 4138 513 4856 
z
" transform="scale(0.015625)"/>
      </defs>
      <use xlink:href="#DejaVuSans-53" transform="translate(0 0.015625)"/>
      <use xlink:href="#DejaVuSans-68" transform="translate(63.476562 0.015625)"/>
      <use xlink:href="#DejaVuSans-65" transform="translate(126.855469 0.015625)"/>
      <use xlink:href="#DejaVuSans-61" transform="translate(188.378906 0.015625)"/>
      <use xlink:href="#DejaVuSans-72" transform="translate(249.658203 0.015625)"/>
      <use xlink:href="#DejaVuSans-20" transform="translate(290.771484 0.015625)"/>
      <use xlink:href="#DejaVuSans-66" transform="translate(322.558594 0.015625)"/>
      <use xlink:href="#DejaVuSans-6f" transform="translate(357.763672 0.015625)"/>
      <use xlink:href="#DejaVuSans-72" transform="translate(418.945312 0.015625)"/>
      <use xlink:href="#DejaVuSans-63" transform="translate(460.058594 0.015625)"/>
      <use xlink:href="#DejaVuSans-65" transform="translate(515.039062 0.015625)"/>
      <use xlink:href="#DejaVuSans-2c" transform="translate(576.5625 0.015625)"/>
      <use xlink:href="#DejaVuSans-20" transform="translate(608.349609 0.015625)"/>
      <use xlink:href="#DejaVuSans-Oblique-56" transform="translate(640.136719 0.015625)"/>
      <use xlink:href="#DejaVuSans-28" transform="translate(708.544922 0.015625)"/>
      <use xlink:href="#DejaVuSans-Oblique-78" transform="translate(747.558594 0.015625)"/>
      <use xlink:href="#DejaVuSans-29" transform="translate(806.738281 0.015625)"/>
     </g>
    </g>
   </g>
   <g id="line2d_24">
    <path d="M 60.48 163.825116 
L 64.705455 164.91546 
L 68.930909 168.142142 
L 73.156364 173.373923 
L 77.381818 180.398007 
L 81.607273 188.9287 
L 85.832727 198.619028 
L 90.058182 209.074851 
L 94.283636 219.870894 
L 98.509091 230.568044 
L 102.734545 240.731209 
L 106.96 249.947017 
L 111.185455 257.840629 
L 115.410909 264.090984 
L 119.636364 268.443857 
L 123.861818 270.722202 
L 128.087273 270.83335 
L 132.312727 268.772781 
L 136.538182 264.624305 
L 140.763636 258.556655 
L 144.989091 250.816625 
L 149.214545 241.719028 
L 153.44 231.633897 
L 157.665455 220.971429 
L 161.890909 210.165305 
L 166.116364 199.655048 
L 170.341818 189.868148 
L 174.567273 181.202672 
L 178.792727 174.011076 
L 183.018182 168.585869 
L 187.243636 165.147711 
L 191.469091 163.836447 
L 195.694545 164.705408 
L 199.92 167.719252 
L 204.145455 172.755394 
L 208.370909 179.608998 
L 212.596364 188.001302 
L 216.821818 197.590962 
L 221.047273 207.987933 
L 225.272727 218.769332 
L 229.498182 229.496641 
L 233.723636 239.733544 
L 237.949091 249.063669 
L 242.174545 257.107527 
L 246.4 263.537945 
L 250.625455 268.093376 
L 254.850909 270.588533 
L 259.076364 270.921931 
L 263.301818 269.080008 
L 267.527273 265.137683 
L 271.752727 259.255303 
L 275.978182 251.672126 
L 280.203636 242.696586 
L 284.429091 232.693751 
L 288.654545 222.070471 
L 292.88 211.258833 
L 297.105455 200.698585 
L 301.330909 190.819249 
L 305.556364 182.022653 
L 309.781818 174.666585 
L 314.007273 169.050244 
L 318.232727 165.402065 
L 322.458182 163.870433 
L 326.683636 164.517645 
L 330.909091 167.317376 
L 335.134545 172.155752 
L 339.36 178.835979 
L 343.585455 187.086347 
L 347.810909 196.571286 
L 352.036364 206.905009 
L 356.261818 217.667207 
L 360.487273 228.420143 
L 364.712727 238.726457 
L 368.938182 248.166955 
L 373.163636 256.357659 
L 377.389091 262.965422 
L 381.614545 267.721485 
L 385.84 270.432401 
L 390.065455 270.987907 
L 394.290909 269.365409 
L 398.516364 265.630901 
L 402.741818 259.936277 
L 406.967273 252.513158 
L 411.192727 243.663469 
L 415.418182 233.747158 
L 419.643636 223.167556 
L 423.869091 212.354974 
L 428.094545 201.749198 
L 432.32 191.781601 
L 436.545455 182.857603 
L 440.770909 175.340172 
L 444.996364 169.535071 
L 449.221818 165.678412 
L 453.447273 163.92706 
L 457.672727 164.352249 
L 461.898182 166.936685 
L 466.123636 171.575249 
L 470.349091 178.079275 
L 474.574545 186.184221 
L 478.8 195.56043 
" clip-path="url(#p6d5bae6813)" style="fill: none; stroke: #228b22; stroke-width: 2; stroke-linecap: square"/>
   </g>
   <g id="patch_3">
    <path d="M 60.48 276.346047 
L 60.48 158.466977 
" style="fill: none; stroke: #000000; stroke-width: 0.8; stroke-linejoin: miter; stroke-linecap: square"/>
   </g>
   <g id="patch_4">
    <path d="M 478.8 276.346047 
L 478.8 158.466977 
" style="fill: none; stroke: #000000; stroke-width: 0.8; stroke-linejoin: miter; stroke-linecap: square"/>
   </g>
   <g id="patch_5">
    <path d="M 60.48 276.346047 
L 478.8 276.346047 
" style="fill: none; stroke: #000000; stroke-width: 0.8; stroke-linejoin: miter; stroke-linecap: square"/>
   </g>
   <g id="patch_6">
    <path d="M 60.48 158.466977 
L 478.8 158.466977 
" style="fill: none; stroke: #000000; stroke-width: 0.8; stroke-linejoin: miter; stroke-linecap: square"/>
   </g>
  </g>
  <g id="axes_3">
   <g id="patch_7">
    <path d="M 60.48 406.013023 
L 478.8 406.013023 
L 478.8 288.133953 
L 60.48 288.133953 
z
" style="fill: #ffffff"/>
   </g>
   <g id="FillBetweenPolyCollection_5">
    <defs>
     <path id="m7f8faa62de" d="M 60.48 -211.880029 
L 60.48 -211.880029 
L 64.705455 -204.320807 
L 68.930909 -197.083857 
L 73.156364 -190.478343 
L 77.381818 -184.787745 
L 81.607273 -180.258331 
L 85.832727 -177.089142 
L 90.058182 -175.423889 
L 94.283636 -175.345116 
L 98.509091 -176.870839 
L 102.734545 -179.953812 
L 106.96 -184.483452 
L 111.185455 -190.290332 
L 115.410909 -197.153078 
L 119.636364 -204.80737 
L 123.861818 -212.95669 
L 128.087273 -221.28439 
L 132.312727 -229.466563 
L 136.538182 -237.185222 
L 140.763636 -244.141234 
L 144.989091 -250.066484 
L 149.214545 -254.734782 
L 153.44 -257.971065 
L 157.665455 -259.658512 
L 161.890909 -259.743299 
L 166.116364 -258.236791 
L 170.341818 -255.215072 
L 174.567273 -250.815859 
L 178.792727 -245.232895 
L 183.018182 -238.708069 
L 187.243636 -231.521582 
L 191.469091 -223.980544 
L 195.694545 -216.406487 
L 199.92 -209.122287 
L 204.145455 -202.439029 
L 208.370909 -196.643356 
L 212.596364 -191.985811 
L 216.821818 -188.670643 
L 221.047273 -186.847504 
L 225.272727 -186.605358 
L 229.498182 -187.968867 
L 233.723636 -190.897381 
L 237.949091 -195.2866 
L 242.174545 -200.972811 
L 246.4 -207.739545 
L 250.625455 -215.326387 
L 254.850909 -223.439566 
L 259.076364 -231.763899 
L 263.301818 -239.975619 
L 267.527273 -247.755538 
L 271.752727 -254.802029 
L 275.978182 -260.843298 
L 280.203636 -265.648437 
L 284.429091 -269.036816 
L 288.654545 -270.885427 
L 292.88 -271.133893 
L 297.105455 -269.786919 
L 301.330909 -266.914103 
L 305.556364 -262.647104 
L 309.781818 -257.174286 
L 314.007273 -250.733062 
L 318.232727 -243.600228 
L 322.458182 -236.080715 
L 326.683636 -228.495178 
L 330.909091 -221.166961 
L 335.134545 -214.408938 
L 339.36 -208.510795 
L 343.585455 -203.72724 
L 347.810909 -200.267649 
L 352.036364 -198.287548 
L 356.261818 -197.882286 
L 360.487273 -199.083157 
L 364.712727 -201.856129 
L 368.938182 -206.103227 
L 373.163636 -211.666518 
L 377.389091 -218.334534 
L 381.614545 -225.850874 
L 385.84 -233.924635 
L 390.065455 -242.242238 
L 394.290909 -250.480189 
L 398.516364 -258.318233 
L 402.741818 -265.452379 
L 406.967273 -271.607268 
L 411.192727 -276.54737 
L 415.418182 -280.086566 
L 419.643636 -282.095714 
L 423.869091 -282.507907 
L 428.094545 -281.321191 
L 432.32 -278.598646 
L 436.545455 -274.465817 
L 440.770909 -269.105615 
L 444.996364 -262.750867 
L 449.221818 -255.674856 
L 453.447273 -248.1802 
L 457.672727 -240.586544 
L 461.898182 -233.21756 
L 466.123636 -226.387783 
L 470.349091 -220.389815 
L 474.574545 -215.482427 
L 478.8 -211.880029 
L 478.8 -211.880029 
L 478.8 -211.880029 
L 474.574545 -211.880029 
L 470.349091 -211.880029 
L 466.123636 -211.880029 
L 461.898182 -211.880029 
L 457.672727 -211.880029 
L 453.447273 -211.880029 
L 449.221818 -211.880029 
L 444.996364 -211.880029 
L 440.770909 -211.880029 
L 436.545455 -211.880029 
L 432.32 -211.880029 
L 428.094545 -211.880029 
L 423.869091 -211.880029 
L 419.643636 -211.880029 
L 415.418182 -211.880029 
L 411.192727 -211.880029 
L 406.967273 -211.880029 
L 402.741818 -211.880029 
L 398.516364 -211.880029 
L 394.290909 -211.880029 
L 390.065455 -211.880029 
L 385.84 -211.880029 
L 381.614545 -211.880029 
L 377.389091 -211.880029 
L 373.163636 -211.880029 
L 368.938182 -211.880029 
L 364.712727 -211.880029 
L 360.487273 -211.880029 
L 356.261818 -211.880029 
L 352.036364 -211.880029 
L 347.810909 -211.880029 
L 343.585455 -211.880029 
L 339.36 -211.880029 
L 335.134545 -211.880029 
L 330.909091 -211.880029 
L 326.683636 -211.880029 
L 322.458182 -211.880029 
L 318.232727 -211.880029 
L 314.007273 -211.880029 
L 309.781818 -211.880029 
L 305.556364 -211.880029 
L 301.330909 -211.880029 
L 297.105455 -211.880029 
L 292.88 -211.880029 
L 288.654545 -211.880029 
L 284.429091 -211.880029 
L 280.203636 -211.880029 
L 275.978182 -211.880029 
L 271.752727 -211.880029 
L 267.527273 -211.880029 
L 263.301818 -211.880029 
L 259.076364 -211.880029 
L 254.850909 -211.880029 
L 250.625455 -211.880029 
L 246.4 -211.880029 
L 242.174545 -211.880029 
L 237.949091 -211.880029 
L 233.723636 -211.880029 
L 229.498182 -211.880029 
L 225.272727 -211.880029 
L 221.047273 -211.880029 
L 216.821818 -211.880029 
L 212.596364 -211.880029 
L 208.370909 -211.880029 
L 204.145455 -211.880029 
L 199.92 -211.880029 
L 195.694545 -211.880029 
L 191.469091 -211.880029 
L 187.243636 -211.880029 
L 183.018182 -211.880029 
L 178.792727 -211.880029 
L 174.567273 -211.880029 
L 170.341818 -211.880029 
L 166.116364 -211.880029 
L 161.890909 -211.880029 
L 157.665455 -211.880029 
L 153.44 -211.880029 
L 149.214545 -211.880029 
L 144.989091 -211.880029 
L 140.763636 -211.880029 
L 136.538182 -211.880029 
L 132.312727 -211.880029 
L 128.087273 -211.880029 
L 123.861818 -211.880029 
L 119.636364 -211.880029 
L 115.410909 -211.880029 
L 111.185455 -211.880029 
L 106.96 -211.880029 
L 102.734545 -211.880029 
L 98.509091 -211.880029 
L 94.283636 -211.880029 
L 90.058182 -211.880029 
L 85.832727 -211.880029 
L 81.607273 -211.880029 
L 77.381818 -211.880029 
L 73.156364 -211.880029 
L 68.930909 -211.880029 
L 64.705455 -211.880029 
L 60.48 -211.880029 
z
" style="stroke: #b22222; stroke-opacity: 0.35"/>
    </defs>
    <g clip-path="url(#pbe8b995849)">
     <use xlink:href="#m7f8faa62de" x="0" y="576" style="fill: #b22222; fill-opacity: 0.35; stroke: #b22222; stroke-opacity: 0.35"/>
    </g>
   </g>
   <g id="matplotlib.axis_3">
    <g id="xtick_7">
     <g id="line2d_25">
      <g>
       <use xlink:href="#mfddddf748e" x="60.48" y="406.013023" style="stroke: #000000; stroke-width: 0.8"/>
      </g>
     </g>
    </g>
    <g id="xtick_8">
     <g id="line2d_26">
      <g>
       <use xlink:href="#mfddddf748e" x="144.144" y="406.013023" style="stroke: #000000; stroke-width: 0.8"/>
      </g>
     </g>
    </g>
    <g id="xtick_9">
     <g id="line2d_27">
      <g>
       <use xlink:href="#mfddddf748e" x="227.808" y="406.013023" style="stroke: #000000; stroke-width: 0.8"/>
      </g>
     </g>
    </g>
    <g id="xtick_10">
     <g id="line2d_28">
      <g>
       <use xlink:href="#mfddddf748e" x="311.472" y="406.013023" style="stroke: #000000; stroke-width: 0.8"/>
      </g>
     </g>
    </g>
    <g id="xtick_11">
     <g id="line2d_29">
      <g>
       <use xlink:href="#mfddddf748e" x="395.136" y="406.013023" style="stroke: #000000; stroke-width: 0.8"/>
      </g>
     </g>
    </g>
    <g id="xtick_12">
     <g id="line2d_30">
      <g>
       <use xlink:href="#mfddddf748e" x="478.8" y="406.013023" style="stroke: #000000; stroke-width: 0.8"/>
      </g>
     </g>
    </g>
   </g>
   <g id="matplotlib.axis_4">
    <g id="ytick_6">
     <g id="line2d_31">
      <g>
       <use xlink:href="#m5661452b6c" x="60.48" y="395.710977" style="stroke: #000000; stroke-width: 0.8"/>
      </g>
     </g>
     <g id="text_7">
      <!-- -2e-03 -->
      <g transform="translate(21.02375 399.510196) scale(0.1 -0.1)">
       <use xlink:href="#DejaVuSans-2d"/>
       <use xlink:href="#DejaVuSans-32" transform="translate(36.083984 0)"/>
       <use xlink:href="#DejaVuSans-65" transform="translate(99.707031 0)"/>
       <use xlink:href="#DejaVuSans-2d" transform="translate(161.230469 0)"/>
       <use xlink:href="#DejaVuSans-30" transform="translate(197.314453 0)"/>
       <use xlink:href="#DejaVuSans-33" transform="translate(260.9375 0)"/>
      </g>
     </g>
    </g>
    <g id="ytick_7">
     <g id="line2d_32">
      <g>
       <use xlink:href="#m5661452b6c" x="60.48" y="364.119971" style="stroke: #000000; stroke-width: 0.8"/>
      </g>
     </g>
     <g id="text_8">
      <!-- 0e+00 -->
      <g transform="translate(19.859687 367.919189) scale(0.1 -0.1)">
       <use xlink:href="#DejaVuSans-30"/>
       <use xlink:href="#DejaVuSans-65" transform="translate(63.623047 0)"/>
       <use xlink:href="#DejaVuSans-2b" transform="translate(125.146484 0)"/>
       <use xlink:href="#DejaVuSans-30" transform="translate(208.935547 0)"/>
       <use xlink:href="#DejaVuSans-30" transform="translate(272.558594 0)"/>
      </g>
     </g>
    </g>
    <g id="ytick_8">
     <g id="line2d_33">
      <g>
       <use xlink:href="#m5661452b6c" x="60.48" y="332.528964" style="stroke: #000000; stroke-width: 0.8"/>
      </g>
     </g>
     <g id="text_9">
      <!-- 2e-03 -->
      <g transform="translate(24.631562 336.328183) scale(0.1 -0.1)">
       <use xlink:href="#DejaVuSans-32"/>
       <use xlink:href="#DejaVuSans-65" transform="translate(63.623047 0)"/>
       <use xlink:href="#DejaVuSans-2d" transform="translate(125.146484 0)"/>
       <use xlink:href="#DejaVuSans-30" transform="translate(161.230469 0)"/>
       <use xlink:href="#DejaVuSans-33" transform="translate(224.853516 0)"/>
      </g>
     </g>
    </g>
    <g id="ytick_9">
     <g id="line2d_34">
      <g>
       <use xlink:href="#m5661452b6c" x="60.48" y="300.937957" style="stroke: #000000; stroke-width: 0.8"/>
      </g>
     </g>
     <g id="text_10">
      <!-- 4e-03 -->
      <g transform="translate(24.631562 304.737176) scale(0.1 -0.1)">
       <defs>
        <path id="DejaVuSans-34" d="M 2419 4116 
L 825 1625 
L 2419 1625 
L 2419 4116 
z
M 2253 4666 
L 3047 4666 
L 3047 1625 
L 3713 1625 
L 3713 1100 
L 3047 1100 
L 3047 0 
L 2419 0 
L 2419 1100 
L 313 1100 
L 313 1709 
L 2253 4666 
z
" transform="scale(0.015625)"/>
       </defs>
       <use xlink:href="#DejaVuSans-34"/>
       <use xlink:href="#DejaVuSans-65" transform="translate(63.623047 0)"/>
       <use xlink:href="#DejaVuSans-2d" transform="translate(125.146484 0)"/>
       <use xlink:href="#DejaVuSans-30" transform="translate(161.230469 0)"/>
       <use xlink:href="#DejaVuSans-33" transform="translate(224.853516 0)"/>
      </g>
     </g>
    </g>
    <g id="text_11">
     <!-- Bending moment, $M(x)$ -->
     <g transform="translate(13.759687 404.623488) rotate(-90) scale(0.1 -0.1)">
      <defs>
       <path id="DejaVuSans-42" d="M 1259 2228 
L 1259 519 
L 2272 519 
Q 2781 519 3026 730 
Q 3272 941 3272 1375 
Q 3272 1813 3026 2020 
Q 2781 2228 2272 2228 
L 1259 2228 
z
M 1259 4147 
L 1259 2741 
L 2194 2741 
Q 2656 2741 2882 2914 
Q 3109 3088 3109 3444 
Q 3109 3797 2882 3972 
Q 2656 4147 2194 4147 
L 1259 4147 
z
M 628 4666 
L 2241 4666 
Q 2963 4666 3353 4366 
Q 3744 4066 3744 3513 
Q 3744 3084 3544 2831 
Q 3344 2578 2956 2516 
Q 3422 2416 3680 2098 
Q 3938 1781 3938 1306 
Q 3938 681 3513 340 
Q 3088 0 2303 0 
L 628 0 
L 628 4666 
z
" transform="scale(0.015625)"/>
       <path id="DejaVuSans-6e" d="M 3513 2113 
L 3513 0 
L 2938 0 
L 2938 2094 
Q 2938 2591 2744 2837 
Q 2550 3084 2163 3084 
Q 1697 3084 1428 2787 
Q 1159 2491 1159 1978 
L 1159 0 
L 581 0 
L 581 3500 
L 1159 3500 
L 1159 2956 
Q 1366 3272 1645 3428 
Q 1925 3584 2291 3584 
Q 2894 3584 3203 3211 
Q 3513 2838 3513 2113 
z
" transform="scale(0.015625)"/>
       <path id="DejaVuSans-64" d="M 2906 2969 
L 2906 4863 
L 3481 4863 
L 3481 0 
L 2906 0 
L 2906 525 
Q 2725 213 2448 61 
Q 2172 -91 1784 -91 
Q 1150 -91 751 415 
Q 353 922 353 1747 
Q 353 2572 751 3078 
Q 1150 3584 1784 3584 
Q 2172 3584 2448 3432 
Q 2725 3281 2906 2969 
z
M 947 1747 
Q 947 1113 1208 752 
Q 1469 391 1925 391 
Q 2381 391 2643 752 
Q 2906 1113 2906 1747 
Q 2906 2381 2643 2742 
Q 2381 3103 1925 3103 
Q 1469 3103 1208 2742 
Q 947 2381 947 1747 
z
" transform="scale(0.015625)"/>
       <path id="DejaVuSans-69" d="M 603 3500 
L 1178 3500 
L 1178 0 
L 603 0 
L 603 3500 
z
M 603 4863 
L 1178 4863 
L 1178 4134 
L 603 4134 
L 603 4863 
z
" transform="scale(0.015625)"/>
       <path id="DejaVuSans-67" d="M 2906 1791 
Q 2906 2416 2648 2759 
Q 2391 3103 1925 3103 
Q 1463 3103 1205 2759 
Q 947 2416 947 1791 
Q 947 1169 1205 825 
Q 1463 481 1925 481 
Q 2391 481 2648 825 
Q 2906 1169 2906 1791 
z
M 3481 434 
Q 3481 -459 3084 -895 
Q 2688 -1331 1869 -1331 
Q 1566 -1331 1297 -1286 
Q 1028 -1241 775 -1147 
L 775 -588 
Q 1028 -725 1275 -790 
Q 1522 -856 1778 -856 
Q 2344 -856 2625 -561 
Q 2906 -266 2906 331 
L 2906 616 
Q 2728 306 2450 153 
Q 2172 0 1784 0 
Q 1141 0 747 490 
Q 353 981 353 1791 
Q 353 2603 747 3093 
Q 1141 3584 1784 3584 
Q 2172 3584 2450 3431 
Q 2728 3278 2906 2969 
L 2906 3500 
L 3481 3500 
L 3481 434 
z
" transform="scale(0.015625)"/>
       <path id="DejaVuSans-6d" d="M 3328 2828 
Q 3544 3216 3844 3400 
Q 4144 3584 4550 3584 
Q 5097 3584 5394 3201 
Q 5691 2819 5691 2113 
L 5691 0 
L 5113 0 
L 5113 2094 
Q 5113 2597 4934 2840 
Q 4756 3084 4391 3084 
Q 3944 3084 3684 2787 
Q 3425 2491 3425 1978 
L 3425 0 
L 2847 0 
L 2847 2094 
Q 2847 2600 2669 2842 
Q 2491 3084 2119 3084 
Q 1678 3084 1418 2786 
Q 1159 2488 1159 1978 
L 1159 0 
L 581 0 
L 581 3500 
L 1159 3500 
L 1159 2956 
Q 1356 3278 1631 3431 
Q 1906 3584 2284 3584 
Q 2666 3584 2933 3390 
Q 3200 3197 3328 2828 
z
" transform="scale(0.015625)"/>
       <path id="DejaVuSans-74" d="M 1172 4494 
L 1172 3500 
L 2356 3500 
L 2356 3053 
L 1172 3053 
L 1172 1153 
Q 1172 725 1289 603 
Q 1406 481 1766 481 
L 2356 481 
L 2356 0 
L 1766 0 
Q 1100 0 847 248 
Q 594 497 594 1153 
L 594 3053 
L 172 3053 
L 172 3500 
L 594 3500 
L 594 4494 
L 1172 4494 
z
" transform="scale(0.015625)"/>
       <path id="DejaVuSans-Oblique-4d" d="M 1081 4666 
L 2028 4666 
L 2572 1522 
L 4378 4666 
L 5350 4666 
L 4441 0 
L 3828 0 
L 4622 4091 
L 2791 897 
L 2175 897 
L 1581 4103 
L 788 0 
L 172 0 
L 1081 4666 
z
" transform="scale(0.015625)"/>
      </defs>
      <use xlink:href="#DejaVuSans-42" transform="translate(0 0.015625)"/>
      <use xlink:href="#DejaVuSans-65" transform="translate(68.603516 0.015625)"/>
      <use xlink:href="#DejaVuSans-6e" transform="translate(130.126953 0.015625)"/>
      <use xlink:href="#DejaVuSans-64" transform="translate(193.505859 0.015625)"/>
      <use xlink:href="#DejaVuSans-69" transform="translate(256.982422 0.015625)"/>
      <use xlink:href="#DejaVuSans-6e" transform="translate(284.765625 0.015625)"/>
      <use xlink:href="#DejaVuSans-67" transform="translate(348.144531 0.015625)"/>
      <use xlink:href="#DejaVuSans-20" transform="translate(411.621094 0.015625)"/>
      <use xlink:href="#DejaVuSans-6d" transform="translate(443.408203 0.015625)"/>
      <use xlink:href="#DejaVuSans-6f" transform="translate(540.820312 0.015625)"/>
      <use xlink:href="#DejaVuSans-6d" transform="translate(602.001953 0.015625)"/>
      <use xlink:href="#DejaVuSans-65" transform="translate(699.414062 0.015625)"/>
      <use xlink:href="#DejaVuSans-6e" transform="translate(760.9375 0.015625)"/>
      <use xlink:href="#DejaVuSans-74" transform="translate(824.316406 0.015625)"/>
      <use xlink:href="#DejaVuSans-2c" transform="translate(863.525391 0.015625)"/>
      <use xlink:href="#DejaVuSans-20" transform="translate(895.3125 0.015625)"/>
      <use xlink:href="#DejaVuSans-Oblique-4d" transform="translate(927.099609 0.015625)"/>
      <use xlink:href="#DejaVuSans-28" transform="translate(1013.378906 0.015625)"/>
      <use xlink:href="#DejaVuSans-Oblique-78" transform="translate(1052.392578 0.015625)"/>
      <use xlink:href="#DejaVuSans-29" transform="translate(1111.572266 0.015625)"/>
     </g>
    </g>
   </g>
   <g id="line2d_35">
    <path d="M 60.48 364.119971 
L 64.705455 371.679193 
L 68.930909 378.916143 
L 73.156364 385.521657 
L 77.381818 391.212255 
L 81.607273 395.741669 
L 85.832727 398.910858 
L 90.058182 400.576111 
L 94.283636 400.654884 
L 98.509091 399.129161 
L 102.734545 396.046188 
L 106.96 391.516548 
L 111.185455 385.709668 
L 115.410909 378.846922 
L 119.636364 371.19263 
L 123.861818 363.04331 
L 128.087273 354.71561 
L 132.312727 346.533437 
L 136.538182 338.814778 
L 140.763636 331.858766 
L 144.989091 325.933516 
L 149.214545 321.265218 
L 153.44 318.028935 
L 157.665455 316.341488 
L 161.890909 316.256701 
L 166.116364 317.763209 
L 170.341818 320.784928 
L 174.567273 325.184141 
L 178.792727 330.767105 
L 183.018182 337.291931 
L 187.243636 344.478418 
L 191.469091 352.019456 
L 195.694545 359.593513 
L 199.92 366.877713 
L 204.145455 373.560971 
L 208.370909 379.356644 
L 212.596364 384.014189 
L 216.821818 387.329357 
L 221.047273 389.152496 
L 225.272727 389.394642 
L 229.498182 388.031133 
L 233.723636 385.102619 
L 237.949091 380.7134 
L 242.174545 375.027189 
L 246.4 368.260455 
L 250.625455 360.673613 
L 254.850909 352.560434 
L 259.076364 344.236101 
L 263.301818 336.024381 
L 267.527273 328.244462 
L 271.752727 321.197971 
L 275.978182 315.156702 
L 280.203636 310.351563 
L 284.429091 306.963184 
L 288.654545 305.114573 
L 292.88 304.866107 
L 297.105455 306.213081 
L 301.330909 309.085897 
L 305.556364 313.352896 
L 309.781818 318.825714 
L 314.007273 325.266938 
L 318.232727 332.399772 
L 322.458182 339.919285 
L 326.683636 347.504822 
L 330.909091 354.833039 
L 335.134545 361.591062 
L 339.36 367.489205 
L 343.585455 372.27276 
L 347.810909 375.732351 
L 352.036364 377.712452 
L 356.261818 378.117714 
L 360.487273 376.916843 
L 364.712727 374.143871 
L 368.938182 369.896773 
L 373.163636 364.333482 
L 377.389091 357.665466 
L 381.614545 350.149126 
L 385.84 342.075365 
L 390.065455 333.757762 
L 394.290909 325.519811 
L 398.516364 317.681767 
L 402.741818 310.547621 
L 406.967273 304.392732 
L 411.192727 299.45263 
L 415.418182 295.913434 
L 419.643636 293.904286 
L 423.869091 293.492093 
L 428.094545 294.678809 
L 432.32 297.401354 
L 436.545455 301.534183 
L 440.770909 306.894385 
L 444.996364 313.249133 
L 449.221818 320.325144 
L 453.447273 327.8198 
L 457.672727 335.413456 
L 461.898182 342.78244 
L 466.123636 349.612217 
L 470.349091 355.610185 
L 474.574545 360.517573 
L 478.8 364.119971 
" clip-path="url(#pbe8b995849)" style="fill: none; stroke: #b22222; stroke-width: 2; stroke-linecap: square"/>
   </g>
   <g id="patch_8">
    <path d="M 60.48 406.013023 
L 60.48 288.133953 
" style="fill: none; stroke: #000000; stroke-width: 0.8; stroke-linejoin: miter; stroke-linecap: square"/>
   </g>
   <g id="patch_9">
    <path d="M 478.8 406.013023 
L 478.8 288.133953 
" style="fill: none; stroke: #000000; stroke-width: 0.8; stroke-linejoin: miter; stroke-linecap: square"/>
   </g>
   <g id="patch_10">
    <path d="M 60.48 406.013023 
L 478.8 406.013023 
" style="fill: none; stroke: #000000; stroke-width: 0.8; stroke-linejoin: miter; stroke-linecap: square"/>
   </g>
   <g id="patch_11">
    <path d="M 60.48 288.133953 
L 478.8 288.133953 
" style="fill: none; stroke: #000000; stroke-width: 0.8; stroke-linejoin: miter; stroke-linecap: square"/>
   </g>
  </g>
  <g id="axes_4">
   <g id="patch_12">
    <path d="M 60.48 535.68 
L 478.8 535.68 
L 478.8 417.80093 
L 60.48 417.80093 
z
" style="fill: #ffffff"/>
   </g>
   <g id="matplotlib.axis_5">
    <g id="xtick_13">
     <g id="line2d_36">
      <g>
       <use xlink:href="#mfddddf748e" x="60.48" y="535.68" style="stroke: #000000; stroke-width: 0.8"/>
      </g>
     </g>
     <g id="text_12">
      <!-- 0e+00 -->
      <g transform="translate(43.669844 550.278437) scale(0.1 -0.1)">
       <use xlink:href="#DejaVuSans-30"/>
       <use xlink:href="#DejaVuSans-65" transform="translate(63.623047 0)"/>
       <use xlink:href="#DejaVuSans-2b" transform="translate(125.146484 0)"/>
       <use xlink:href="#DejaVuSans-30" transform="translate(208.935547 0)"/>
       <use xlink:href="#DejaVuSans-30" transform="translate(272.558594 0)"/>
      </g>
     </g>
    </g>
    <g id="xtick_14">
     <g id="line2d_37">
      <g>
       <use xlink:href="#mfddddf748e" x="144.144" y="535.68" style="stroke: #000000; stroke-width: 0.8"/>
      </g>
     </g>
     <g id="text_13">
      <!-- 2e-01 -->
      <g transform="translate(129.719781 550.278437) scale(0.1 -0.1)">
       <defs>
        <path id="DejaVuSans-31" d="M 794 531 
L 1825 531 
L 1825 4091 
L 703 3866 
L 703 4441 
L 1819 4666 
L 2450 4666 
L 2450 531 
L 3481 531 
L 3481 0 
L 794 0 
L 794 531 
z
" transform="scale(0.015625)"/>
       </defs>
       <use xlink:href="#DejaVuSans-32"/>
       <use xlink:href="#DejaVuSans-65" transform="translate(63.623047 0)"/>
       <use xlink:href="#DejaVuSans-2d" transform="translate(125.146484 0)"/>
       <use xlink:href="#DejaVuSans-30" transform="translate(161.230469 0)"/>
       <use xlink:href="#DejaVuSans-31" transform="translate(224.853516 0)"/>
      </g>
     </g>
    </g>
    <g id="xtick_15">
     <g id="line2d_38">
      <g>
       <use xlink:href="#mfddddf748e" x="227.808" y="535.68" style="stroke: #000000; stroke-width: 0.8"/>
      </g>
     </g>
     <g id="text_14">
      <!-- 4e-01 -->
      <g transform="translate(213.383781 550.278437) scale(0.1 -0.1)">
       <use xlink:href="#DejaVuSans-34"/>
       <use xlink:href="#DejaVuSans-65" transform="translate(63.623047 0)"/>
       <use xlink:href="#DejaVuSans-2d" transform="translate(125.146484 0)"/>
       <use xlink:href="#DejaVuSans-30" transform="translate(161.230469 0)"/>
       <use xlink:href="#DejaVuSans-31" transform="translate(224.853516 0)"/>
      </g>
     </g>
    </g>
    <g id="xtick_16">
     <g id="line2d_39">
      <g>
       <use xlink:href="#mfddddf748e" x="311.472" y="535.68" style="stroke: #000000; stroke-width: 0.8"/>
      </g>
     </g>
     <g id="text_15">
      <!-- 6e-01 -->
      <g transform="translate(297.047781 550.278437) scale(0.1 -0.1)">
       <defs>
        <path id="DejaVuSans-36" d="M 2113 2584 
Q 1688 2584 1439 2293 
Q 1191 2003 1191 1497 
Q 1191 994 1439 701 
Q 1688 409 2113 409 
Q 2538 409 2786 701 
Q 3034 994 3034 1497 
Q 3034 2003 2786 2293 
Q 2538 2584 2113 2584 
z
M 3366 4563 
L 3366 3988 
Q 3128 4100 2886 4159 
Q 2644 4219 2406 4219 
Q 1781 4219 1451 3797 
Q 1122 3375 1075 2522 
Q 1259 2794 1537 2939 
Q 1816 3084 2150 3084 
Q 2853 3084 3261 2657 
Q 3669 2231 3669 1497 
Q 3669 778 3244 343 
Q 2819 -91 2113 -91 
Q 1303 -91 875 529 
Q 447 1150 447 2328 
Q 447 3434 972 4092 
Q 1497 4750 2381 4750 
Q 2619 4750 2861 4703 
Q 3103 4656 3366 4563 
z
" transform="scale(0.015625)"/>
       </defs>
       <use xlink:href="#DejaVuSans-36"/>
       <use xlink:href="#DejaVuSans-65" transform="translate(63.623047 0)"/>
       <use xlink:href="#DejaVuSans-2d" transform="translate(125.146484 0)"/>
       <use xlink:href="#DejaVuSans-30" transform="translate(161.230469 0)"/>
       <use xlink:href="#DejaVuSans-31" transform="translate(224.853516 0)"/>
      </g>
     </g>
    </g>
    <g id="xtick_17">
     <g id="line2d_40">
      <g>
       <use xlink:href="#mfddddf748e" x="395.136" y="535.68" style="stroke: #000000; stroke-width: 0.8"/>
      </g>
     </g>
     <g id="text_16">
      <!-- 8e-01 -->
      <g transform="translate(380.711781 550.278437) scale(0.1 -0.1)">
       <defs>
        <path id="DejaVuSans-38" d="M 2034 2216 
Q 1584 2216 1326 1975 
Q 1069 1734 1069 1313 
Q 1069 891 1326 650 
Q 1584 409 2034 409 
Q 2484 409 2743 651 
Q 3003 894 3003 1313 
Q 3003 1734 2745 1975 
Q 2488 2216 2034 2216 
z
M 1403 2484 
Q 997 2584 770 2862 
Q 544 3141 544 3541 
Q 544 4100 942 4425 
Q 1341 4750 2034 4750 
Q 2731 4750 3128 4425 
Q 3525 4100 3525 3541 
Q 3525 3141 3298 2862 
Q 3072 2584 2669 2484 
Q 3125 2378 3379 2068 
Q 3634 1759 3634 1313 
Q 3634 634 3220 271 
Q 2806 -91 2034 -91 
Q 1263 -91 848 271 
Q 434 634 434 1313 
Q 434 1759 690 2068 
Q 947 2378 1403 2484 
z
M 1172 3481 
Q 1172 3119 1398 2916 
Q 1625 2713 2034 2713 
Q 2441 2713 2670 2916 
Q 2900 3119 2900 3481 
Q 2900 3844 2670 4047 
Q 2441 4250 2034 4250 
Q 1625 4250 1398 4047 
Q 1172 3844 1172 3481 
z
" transform="scale(0.015625)"/>
       </defs>
       <use xlink:href="#DejaVuSans-38"/>
       <use xlink:href="#DejaVuSans-65" transform="translate(63.623047 0)"/>
       <use xlink:href="#DejaVuSans-2d" transform="translate(125.146484 0)"/>
       <use xlink:href="#DejaVuSans-30" transform="translate(161.230469 0)"/>
       <use xlink:href="#DejaVuSans-31" transform="translate(224.853516 0)"/>
      </g>
     </g>
    </g>
    <g id="xtick_18">
     <g id="line2d_41">
      <g>
       <use xlink:href="#mfddddf748e" x="478.8" y="535.68" style="stroke: #000000; stroke-width: 0.8"/>
      </g>
     </g>
     <g id="text_17">
      <!-- 1e+00 -->
      <g transform="translate(461.989844 550.278437) scale(0.1 -0.1)">
       <use xlink:href="#DejaVuSans-31"/>
       <use xlink:href="#DejaVuSans-65" transform="translate(63.623047 0)"/>
       <use xlink:href="#DejaVuSans-2b" transform="translate(125.146484 0)"/>
       <use xlink:href="#DejaVuSans-30" transform="translate(208.935547 0)"/>
       <use xlink:href="#DejaVuSans-30" transform="translate(272.558594 0)"/>
      </g>
     </g>
    </g>
    <g id="text_18">
     <!-- Coordinate, $x$ -->
     <g transform="translate(235.99 563.956563) scale(0.1 -0.1)">
      <defs>
       <path id="DejaVuSans-43" d="M 4122 4306 
L 4122 3641 
Q 3803 3938 3442 4084 
Q 3081 4231 2675 4231 
Q 1875 4231 1450 3742 
Q 1025 3253 1025 2328 
Q 1025 1406 1450 917 
Q 1875 428 2675 428 
Q 3081 428 3442 575 
Q 3803 722 4122 1019 
L 4122 359 
Q 3791 134 3420 21 
Q 3050 -91 2638 -91 
Q 1578 -91 968 557 
Q 359 1206 359 2328 
Q 359 3453 968 4101 
Q 1578 4750 2638 4750 
Q 3056 4750 3426 4639 
Q 3797 4528 4122 4306 
z
" transform="scale(0.015625)"/>
      </defs>
      <use xlink:href="#DejaVuSans-43" transform="translate(0 0.015625)"/>
      <use xlink:href="#DejaVuSans-6f" transform="translate(69.824219 0.015625)"/>
      <use xlink:href="#DejaVuSans-6f" transform="translate(131.005859 0.015625)"/>
      <use xlink:href="#DejaVuSans-72" transform="translate(192.1875 0.015625)"/>
      <use xlink:href="#DejaVuSans-64" transform="translate(233.300781 0.015625)"/>
      <use xlink:href="#DejaVuSans-69" transform="translate(296.777344 0.015625)"/>
      <use xlink:href="#DejaVuSans-6e" transform="translate(324.560547 0.015625)"/>
      <use xlink:href="#DejaVuSans-61" transform="translate(387.939453 0.015625)"/>
      <use xlink:href="#DejaVuSans-74" transform="translate(449.21875 0.015625)"/>
      <use xlink:href="#DejaVuSans-65" transform="translate(488.427734 0.015625)"/>
      <use xlink:href="#DejaVuSans-2c" transform="translate(549.951172 0.015625)"/>
      <use xlink:href="#DejaVuSans-20" transform="translate(581.738281 0.015625)"/>
      <use xlink:href="#DejaVuSans-Oblique-78" transform="translate(613.525391 0.015625)"/>
     </g>
    </g>
   </g>
   <g id="matplotlib.axis_6">
    <g id="ytick_10">
     <g id="line2d_42">
      <g>
       <use xlink:href="#m5661452b6c" x="60.48" y="526.538672" style="stroke: #000000; stroke-width: 0.8"/>
      </g>
     </g>
     <g id="text_19">
      <!-- -2e-04 -->
      <g transform="translate(21.02375 530.337891) scale(0.1 -0.1)">
       <use xlink:href="#DejaVuSans-2d"/>
       <use xlink:href="#DejaVuSans-32" transform="translate(36.083984 0)"/>
       <use xlink:href="#DejaVuSans-65" transform="translate(99.707031 0)"/>
       <use xlink:href="#DejaVuSans-2d" transform="translate(161.230469 0)"/>
       <use xlink:href="#DejaVuSans-30" transform="translate(197.314453 0)"/>
       <use xlink:href="#DejaVuSans-34" transform="translate(260.9375 0)"/>
      </g>
     </g>
    </g>
    <g id="ytick_11">
     <g id="line2d_43">
      <g>
       <use xlink:href="#m5661452b6c" x="60.48" y="492.078805" style="stroke: #000000; stroke-width: 0.8"/>
      </g>
     </g>
     <g id="text_20">
      <!-- -1e-04 -->
      <g transform="translate(21.02375 495.878023) scale(0.1 -0.1)">
       <use xlink:href="#DejaVuSans-2d"/>
       <use xlink:href="#DejaVuSans-31" transform="translate(36.083984 0)"/>
       <use xlink:href="#DejaVuSans-65" transform="translate(99.707031 0)"/>
       <use xlink:href="#DejaVuSans-2d" transform="translate(161.230469 0)"/>
       <use xlink:href="#DejaVuSans-30" transform="translate(197.314453 0)"/>
       <use xlink:href="#DejaVuSans-34" transform="translate(260.9375 0)"/>
      </g>
     </g>
    </g>
    <g id="ytick_12">
     <g id="line2d_44">
      <g>
       <use xlink:href="#m5661452b6c" x="60.48" y="457.618937" style="stroke: #000000; stroke-width: 0.8"/>
      </g>
     </g>
     <g id="text_21">
      <!-- -5e-05 -->
      <g transform="translate(21.02375 461.418156) scale(0.1 -0.1)">
       <use xlink:href="#DejaVuSans-2d"/>
       <use xlink:href="#DejaVuSans-35" transform="translate(36.083984 0)"/>
       <use xlink:href="#DejaVuSans-65" transform="translate(99.707031 0)"/>
       <use xlink:href="#DejaVuSans-2d" transform="translate(161.230469 0)"/>
       <use xlink:href="#DejaVuSans-30" transform="translate(197.314453 0)"/>
       <use xlink:href="#DejaVuSans-35" transform="translate(260.9375 0)"/>
      </g>
     </g>
    </g>
    <g id="ytick_13">
     <g id="line2d_45">
      <g>
       <use xlink:href="#m5661452b6c" x="60.48" y="423.15907" style="stroke: #000000; stroke-width: 0.8"/>
      </g>
     </g>
     <g id="text_22">
      <!-- 0e+00 -->
      <g transform="translate(19.859687 426.958289) scale(0.1 -0.1)">
       <use xlink:href="#DejaVuSans-30"/>
       <use xlink:href="#DejaVuSans-65" transform="translate(63.623047 0)"/>
       <use xlink:href="#DejaVuSans-2b" transform="translate(125.146484 0)"/>
       <use xlink:href="#DejaVuSans-30" transform="translate(208.935547 0)"/>
       <use xlink:href="#DejaVuSans-30" transform="translate(272.558594 0)"/>
      </g>
     </g>
    </g>
    <g id="text_23">
     <!-- Deflection, $v(x)$ -->
     <g transform="translate(13.78 515.240465) rotate(-90) scale(0.1 -0.1)">
      <defs>
       <path id="DejaVuSans-44" d="M 1259 4147 
L 1259 519 
L 2022 519 
Q 2988 519 3436 956 
Q 3884 1394 3884 2338 
Q 3884 3275 3436 3711 
Q 2988 4147 2022 4147 
L 1259 4147 
z
M 628 4666 
L 1925 4666 
Q 3281 4666 3915 4102 
Q 4550 3538 4550 2338 
Q 4550 1131 3912 565 
Q 3275 0 1925 0 
L 628 0 
L 628 4666 
z
" transform="scale(0.015625)"/>
       <path id="DejaVuSans-6c" d="M 603 4863 
L 1178 4863 
L 1178 0 
L 603 0 
L 603 4863 
z
" transform="scale(0.015625)"/>
       <path id="DejaVuSans-Oblique-76" d="M 459 3500 
L 1069 3500 
L 1581 525 
L 3256 3500 
L 3866 3500 
L 1875 0 
L 1100 0 
L 459 3500 
z
" transform="scale(0.015625)"/>
      </defs>
      <use xlink:href="#DejaVuSans-44" transform="translate(0 0.015625)"/>
      <use xlink:href="#DejaVuSans-65" transform="translate(77.001953 0.015625)"/>
      <use xlink:href="#DejaVuSans-66" transform="translate(138.525391 0.015625)"/>
      <use xlink:href="#DejaVuSans-6c" transform="translate(173.730469 0.015625)"/>
      <use xlink:href="#DejaVuSans-65" transform="translate(201.513672 0.015625)"/>
      <use xlink:href="#DejaVuSans-63" transform="translate(263.037109 0.015625)"/>
      <use xlink:href="#DejaVuSans-74" transform="translate(318.017578 0.015625)"/>
      <use xlink:href="#DejaVuSans-69" transform="translate(357.226562 0.015625)"/>
      <use xlink:href="#DejaVuSans-6f" transform="translate(385.009766 0.015625)"/>
      <use xlink:href="#DejaVuSans-6e" transform="translate(446.191406 0.015625)"/>
      <use xlink:href="#DejaVuSans-2c" transform="translate(509.570312 0.015625)"/>
      <use xlink:href="#DejaVuSans-20" transform="translate(541.357422 0.015625)"/>
      <use xlink:href="#DejaVuSans-Oblique-76" transform="translate(573.144531 0.015625)"/>
      <use xlink:href="#DejaVuSans-28" transform="translate(632.324219 0.015625)"/>
      <use xlink:href="#DejaVuSans-Oblique-78" transform="translate(671.337891 0.015625)"/>
      <use xlink:href="#DejaVuSans-29" transform="translate(730.517578 0.015625)"/>
     </g>
    </g>
   </g>
   <g id="line2d_46">
    <path d="M 60.48 423.15907 
L 64.705455 424.982376 
L 68.930909 426.839215 
L 73.156364 428.761689 
L 77.381818 430.7791 
L 81.607273 432.91669 
L 85.832727 435.19455 
L 90.058182 437.626733 
L 94.283636 440.220624 
L 98.509091 442.976566 
L 102.734545 445.887785 
L 106.96 448.940596 
L 111.185455 452.114897 
L 115.410909 455.384921 
L 119.636364 458.720211 
L 123.861818 462.086805 
L 128.087273 465.448538 
L 132.312727 468.768459 
L 136.538182 472.01026 
L 140.763636 475.13969 
L 144.989091 478.125881 
L 149.214545 480.94254 
L 153.44 483.568948 
L 157.665455 485.990742 
L 161.890909 488.200429 
L 166.116364 490.197628 
L 170.341818 491.989018 
L 174.567273 493.587999 
L 178.792727 495.014084 
L 183.018182 496.292037 
L 187.243636 497.450802 
L 191.469091 498.522258 
L 195.694545 499.539856 
L 199.92 500.537196 
L 204.145455 501.546589 
L 208.370909 502.597682 
L 212.596364 503.716183 
L 216.821818 504.922751 
L 221.047273 506.232089 
L 225.272727 507.652281 
L 229.498182 509.184394 
L 233.723636 510.822374 
L 237.949091 512.553222 
L 242.174545 514.35746 
L 246.4 516.209853 
L 250.625455 518.080374 
L 254.850909 519.935357 
L 259.076364 521.7388 
L 263.301818 523.453765 
L 267.527273 525.043813 
L 271.752727 526.474422 
L 275.978182 527.714323 
L 280.203636 528.736707 
L 284.429091 529.520248 
L 288.654545 530.04991 
L 292.88 530.317483 
L 297.105455 530.32186 
L 301.330909 530.069013 
L 305.556364 529.571681 
L 309.781818 528.84879 
L 314.007273 527.924616 
L 318.232727 526.827732 
L 322.458182 525.589778 
L 326.683636 524.244111 
L 330.909091 522.82438 
L 335.134545 521.363094 
L 339.36 519.890229 
L 343.585455 518.43195 
L 347.810909 517.009473 
L 352.036364 515.638143 
L 356.261818 514.326738 
L 360.487273 513.077053 
L 364.712727 511.883753 
L 368.938182 510.734529 
L 373.163636 509.610534 
L 377.389091 508.487079 
L 381.614545 507.334573 
L 385.84 506.119665 
L 390.065455 504.806527 
L 394.290909 503.35825 
L 398.516364 501.738281 
L 402.741818 499.911837 
L 406.967273 497.847262 
L 411.192727 495.517243 
L 415.418182 492.899855 
L 419.643636 489.979392 
L 423.869091 486.746933 
L 428.094545 483.200644 
L 432.32 479.345785 
L 436.545455 475.19443 
L 440.770909 470.764908 
L 444.996364 466.080998 
L 449.221818 461.170886 
L 453.447273 456.065963 
L 457.672727 450.799473 
L 461.898182 445.405104 
L 466.123636 439.915542 
L 470.349091 434.361085 
L 474.574545 428.768339 
L 478.8 423.15907 
" clip-path="url(#p3806e6d306)" style="fill: none; stroke: #000000; stroke-width: 3; stroke-linecap: square"/>
   </g>
   <g id="line2d_47">
    <path d="M 60.48 423.15907 
L 478.8 423.15907 
" clip-path="url(#p3806e6d306)" style="fill: none; stroke-dasharray: 5.55,2.4; stroke-dashoffset: 0; stroke: #000000; stroke-width: 1.5"/>
   </g>
   <g id="patch_13">
    <path d="M 60.48 535.68 
L 60.48 417.80093 
" style="fill: none; stroke: #000000; stroke-width: 0.8; stroke-linejoin: miter; stroke-linecap: square"/>
   </g>
   <g id="patch_14">
    <path d="M 478.8 535.68 
L 478.8 417.80093 
" style="fill: none; stroke: #000000; stroke-width: 0.8; stroke-linejoin: miter; stroke-linecap: square"/>
   </g>
   <g id="patch_15">
    <path d="M 60.48 535.68 
L 478.8 535.68 
" style="fill: none; stroke: #000000; stroke-width: 0.8; stroke-linejoin: miter; stroke-linecap: square"/>
   </g>
   <g id="patch_16">
    <path d="M 60.48 417.80093 
L 478.8 417.80093 
" style="fill: none; stroke: #000000; stroke-width: 0.8; stroke-linejoin: miter; stroke-linecap: square"/>
   </g>
  </g>
 </g>
 <defs>
  <clipPath id="p38726b9dd9">
   <rect x="60.48" y="28.8" width="418.32" height="117.87907"/>
  </clipPath>
  <clipPath id="p6d5bae6813">
   <rect x="60.48" y="158.466977" width="418.32" height="117.87907"/>
  </clipPath>
  <clipPath id="pbe8b995849">
   <rect x="60.48" y="288.133953" width="418.32" height="117.87907"/>
  </clipPath>
  <clipPath id="p3806e6d306">
   <rect x="60.48" y="417.80093" width="418.32" height="117.87907"/>
  </clipPath>
 </defs>
</svg>
