<?xml version="1.0" encoding="utf-8" standalone="no"?>
<!DOCTYPE svg PUBLIC "-//W3C//DTD SVG 1.1//EN"
  "http://www.w3.org/Graphics/SVG/1.1/DTD/svg11.dtd">
<svg xmlns:xlink="http://www.w3.org/1999/xlink" width="504pt" height="576pt" viewBox="0 0 504 576" xmlns="http://www.w3.org/2000/svg" version="1.1">
 <metadata>
  <rdf:RDF xmlns:dc="http://purl.org/dc/elements/1.1/" xmlns:cc="http://creativecommons.org/ns#" xmlns:rdf="http://www.w3.org/1999/02/22-rdf-syntax-ns#">
   <cc:Work>
    <dc:type rdf:resource="http://purl.org/dc/dcmitype/StillImage"/>
    <dc:date>2026-01-17T09:19:30.590427</dc:date>
    <dc:format>image/svg+xml</dc:format>
    <dc:creator>
     <cc:Agent>
      <dc:title>Matplotlib v3.10.8, https://matplotlib.org/</dc:title>
     </cc:Agent>
    </dc:creator>
   </cc:Work>
  </rdf:RDF>
 </metadata>
 <defs>
  <style type="text/css">*{stroke-linejoin: round; stroke-linecap: butt}</style>
 </defs>
 <g id="figure_1">
  <g id="patch_1">
   <path d="M 0 576 
L 504 576 
L 504 0 
L 0 0 
z
" style="fill: #ffffff"/>
  </g>
  <g id="axes_1">
   <g id="FillBetweenPolyCollection_1">
    <defs>
     <path id="m14297315fd" d="M 60.48 -488.260465 
L 60.48 -434.67907 
L 64.705455 -434.67907 
L 68.930909 -434.67907 
L 73.156364 -434.67907 
L 77.381818 -434.67907 
L 81.607273 -434.67907 
L 85.832727 -434.67907 
L 90.058182 -434.67907 
L 94.283636 -434.67907 
L 98.509091 -434.67907 
L 102.734545 -434.67907 
L 106.96 -434.67907 
L 111.185455 -434.67907 
L 115.410909 -434.67907 
L 119.636364 -434.67907 
L 123.861818 -434.67907 
L 128.087273 -434.67907 
L 132.312727 -434.67907 
L 136.538182 -434.67907 
L 140.763636 -434.67907 
L 144.989091 -434.67907 
L 149.214545 -434.67907 
L 153.44 -434.67907 
L 157.665455 -434.67907 
L 161.890909 -434.67907 
L 166.116364 -434.67907 
L 170.341818 -434.67907 
L 174.567273 -434.67907 
L 178.792727 -434.67907 
L 183.018182 -434.67907 
L 187.243636 -434.67907 
L 191.469091 -434.67907 
L 195.694545 -434.67907 
L 199.92 -434.67907 
L 204.145455 -434.67907 
L 208.370909 -434.67907 
L 212.596364 -434.67907 
L 216.821818 -434.67907 
L 221.047273 -434.67907 
L 225.272727 -434.67907 
L 229.498182 -434.67907 
L 233.723636 -434.67907 
L 237.949091 -434.67907 
L 242.174545 -434.67907 
L 246.4 -434.67907 
L 250.625455 -434.67907 
L 254.850909 -434.67907 
L 259.076364 -434.67907 
L 263.301818 -434.67907 
L 267.527273 -434.67907 
L 271.752727 -434.67907 
L 275.978182 -434.67907 
L 280.203636 -434.67907 
L 284.429091 -434.67907 
L 288.654545 -434.67907 
L 292.88 -434.67907 
L 297.105455 -434.67907 
L 301.330909 -434.67907 
L 305.556364 -434.67907 
L 309.781818 -434.67907 
L 314.007273 -434.67907 
L 318.232727 -434.67907 
L 322.458182 -434.67907 
L 326.683636 -434.67907 
L 330.909091 -434.67907 
L 335.134545 -434.67907 
L 339.36 -434.67907 
L 343.585455 -434.67907 
L 347.810909 -434.67907 
L 352.036364 -434.67907 
L 356.261818 -434.67907 
L 360.487273 -434.67907 
L 364.712727 -434.67907 
L 368.938182 -434.67907 
L 373.163636 -434.67907 
L 377.389091 -434.67907 
L 381.614545 -434.67907 
L 385.84 -434.67907 
L 390.065455 -434.67907 
L 394.290909 -434.67907 
L 398.516364 -434.67907 
L 402.741818 -434.67907 
L 406.967273 -434.67907 
L 411.192727 -434.67907 
L 415.418182 -434.67907 
L 419.643636 -434.67907 
L 423.869091 -434.67907 
L 428.094545 -434.67907 
L 432.32 -434.67907 
L 436.545455 -434.67907 
L 440.770909 -434.67907 
L 444.996364 -434.67907 
L 449.221818 -434.67907 
L 453.447273 -434.67907 
L 457.672727 -434.67907 
L 461.898182 -434.67907 
L 466.123636 -434.67907 
L 470.349091 -434.67907 
L 474.574545 -434.67907 
L 478.8 -434.67907 
L 478.8 -488.260465 
L 478.8 -488.260465 
L 474.574545 -488.260465 
L 470.349091 -488.260465 
L 466.123636 -488.260465 
L 461.898182 -488.260465 
L 457.672727 -488.260465 
L 453.447273 -488.260465 
L 449.221818 -488.260465 
L 444.996364 -488.260465 
L 440.770909 -488.260465 
L 436.545455 -488.260465 
L 432.32 -488.260465 
L 428.094545 -488.260465 
L 423.869091 -488.260465 
L 419.643636 -488.260465 
L 415.418182 -488.260465 
L 411.192727 -488.260465 
L 406.967273 -488.260465 
L 402.741818 -488.260465 
L 398.516364 -488.260465 
L 394.290909 -488.260465 
L 390.065455 -488.260465 
L 385.84 -488.260465 
L 381.614545 -488.260465 
L 377.389091 -488.260465 
L 373.163636 -488.260465 
L 368.938182 -488.260465 
L 364.712727 -488.260465 
L 360.487273 -488.260465 
L 356.261818 -488.260465 
L 352.036364 -488.260465 
L 347.810909 -488.260465 
L 343.585455 -488.260465 
L 339.36 -488.260465 
L 335.134545 -488.260465 
L 330.909091 -488.260465 
L 326.683636 -488.260465 
L 322.458182 -488.260465 
L 318.232727 -488.260465 
L 314.007273 -488.260465 
L 309.781818 -488.260465 
L 305.556364 -488.260465 
L 301.330909 -488.260465 
L 297.105455 -488.260465 
L 292.88 -488.260465 
L 288.654545 -488.260465 
L 284.429091 -488.260465 
L 280.203636 -488.260465 
L 275.978182 -488.260465 
L 271.752727 -488.260465 
L 267.527273 -488.260465 
L 263.301818 -488.260465 
L 259.076364 -488.260465 
L 254.850909 -488.260465 
L 250.625455 -488.260465 
L 246.4 -488.260465 
L 242.174545 -488.260465 
L 237.949091 -488.260465 
L 233.723636 -488.260465 
L 229.498182 -488.260465 
L 225.272727 -488.260465 
L 221.047273 -488.260465 
L 216.821818 -488.260465 
L 212.596364 -488.260465 
L 208.370909 -488.260465 
L 204.145455 -488.260465 
L 199.92 -488.260465 
L 195.694545 -488.260465 
L 191.469091 -488.260465 
L 187.243636 -488.260465 
L 183.018182 -488.260465 
L 178.792727 -488.260465 
L 174.567273 -488.260465 
L 170.341818 -488.260465 
L 166.116364 -488.260465 
L 161.890909 -488.260465 
L 157.665455 -488.260465 
L 153.44 -488.260465 
L 149.214545 -488.260465 
L 144.989091 -488.260465 
L 140.763636 -488.260465 
L 136.538182 -488.260465 
L 132.312727 -488.260465 
L 128.087273 -488.260465 
L 123.861818 -488.260465 
L 119.636364 -488.260465 
L 115.410909 -488.260465 
L 111.185455 -488.260465 
L 106.96 -488.260465 
L 102.734545 -488.260465 
L 98.509091 -488.260465 
L 94.283636 -488.260465 
L 90.058182 -488.260465 
L 85.832727 -488.260465 
L 81.607273 -488.260465 
L 77.381818 -488.260465 
L 73.156364 -488.260465 
L 68.930909 -488.260465 
L 64.705455 -488.260465 
L 60.48 -488.260465 
z
" style="stroke: #4169e1; stroke-opacity: 0.35; stroke-width: 2"/>
    </defs>
    <g clip-path="url(#p81a3c0fbb6)">
     <use xlink:href="#m14297315fd" x="0" y="576" style="fill: #4169e1; fill-opacity: 0.35; stroke: #4169e1; stroke-opacity: 0.35; stroke-width: 2"/>
    </g>
   </g>
   <g id="line2d_1">
    <path d="M 60.48 141.32093 
L 64.705455 141.32093 
L 68.930909 141.32093 
L 73.156364 141.32093 
L 77.381818 141.32093 
L 81.607273 141.32093 
L 85.832727 141.32093 
L 90.058182 141.32093 
L 94.283636 141.32093 
L 98.509091 141.32093 
L 102.734545 141.32093 
L 106.96 141.32093 
L 111.185455 141.32093 
L 115.410909 141.32093 
L 119.636364 141.32093 
L 123.861818 141.32093 
L 128.087273 141.32093 
L 132.312727 141.32093 
L 136.538182 141.32093 
L 140.763636 141.32093 
L 144.989091 141.32093 
L 149.214545 141.32093 
L 153.44 141.32093 
L 157.665455 141.32093 
L 161.890909 141.32093 
L 166.116364 141.32093 
L 170.341818 141.32093 
L 174.567273 141.32093 
L 178.792727 141.32093 
L 183.018182 141.32093 
L 187.243636 141.32093 
L 191.469091 141.32093 
L 195.694545 141.32093 
L 199.92 141.32093 
L 204.145455 141.32093 
L 208.370909 141.32093 
L 212.596364 141.32093 
L 216.821818 141.32093 
L 221.047273 141.32093 
L 225.272727 141.32093 
L 229.498182 141.32093 
L 233.723636 141.32093 
L 237.949091 141.32093 
L 242.174545 141.32093 
L 246.4 141.32093 
L 250.625455 141.32093 
L 254.850909 141.32093 
L 259.076364 141.32093 
L 263.301818 141.32093 
L 267.527273 141.32093 
L 271.752727 141.32093 
L 275.978182 141.32093 
L 280.203636 141.32093 
L 284.429091 141.32093 
L 288.654545 141.32093 
L 292.88 141.32093 
L 297.105455 141.32093 
L 301.330909 141.32093 
L 305.556364 141.32093 
L 309.781818 141.32093 
L 314.007273 141.32093 
L 318.232727 141.32093 
L 322.458182 141.32093 
L 326.683636 141.32093 
L 330.909091 141.32093 
L 335.134545 141.32093 
L 339.36 141.32093 
L 343.585455 141.32093 
L 347.810909 141.32093 
L 352.036364 141.32093 
L 356.261818 141.32093 
L 360.487273 141.32093 
L 364.712727 141.32093 
L 368.938182 141.32093 
L 373.163636 141.32093 
L 377.389091 141.32093 
L 381.614545 141.32093 
L 385.84 141.32093 
L 390.065455 141.32093 
L 394.290909 141.32093 
L 398.516364 141.32093 
L 402.741818 141.32093 
L 406.967273 141.32093 
L 411.192727 141.32093 
L 415.418182 141.32093 
L 419.643636 141.32093 
L 423.869091 141.32093 
L 428.094545 141.32093 
L 432.32 141.32093 
L 436.545455 141.32093 
L 440.770909 141.32093 
L 444.996364 141.32093 
L 449.221818 141.32093 
L 453.447273 141.32093 
L 457.672727 141.32093 
L 461.898182 141.32093 
L 466.123636 141.32093 
L 470.349091 141.32093 
L 474.574545 141.32093 
L 478.8 141.32093 
" clip-path="url(#p81a3c0fbb6)" style="fill: none; stroke: #4169e1; stroke-width: 2; stroke-linecap: square"/>
   </g>
   <g id="line2d_2">
    <path d="M 60.48 87.739535 
L 478.8 87.739535 
" clip-path="url(#p81a3c0fbb6)" style="fill: none; stroke: #000000; stroke-width: 3; stroke-linecap: square"/>
   </g>
   <g id="line2d_3">
    <path d="M 60.48 109.172093 
L 60.48 103.813953 
" style="fill: none; stroke: #000000; stroke-width: 1.5"/>
   </g>
   <g id="line2d_4">
    <path d="M 60.48 103.813953 
L 64.6632 102.92093 
L 60.48 102.027907 
" style="fill: none; stroke: #000000; stroke-width: 1.5; stroke-linecap: round"/>
   </g>
   <g id="line2d_5">
    <path d="M 60.48 102.027907 
L 56.2968 101.134884 
L 60.48 100.24186 
" style="fill: none; stroke: #000000; stroke-width: 1.5; stroke-linecap: round"/>
   </g>
   <g id="line2d_6">
    <path d="M 60.48 100.24186 
L 64.6632 99.348837 
L 60.48 98.455814 
" style="fill: none; stroke: #000000; stroke-width: 1.5; stroke-linecap: round"/>
   </g>
   <g id="line2d_7">
    <path d="M 60.48 98.455814 
L 56.2968 97.562791 
L 60.48 96.669767 
" style="fill: none; stroke: #000000; stroke-width: 1.5; stroke-linecap: round"/>
   </g>
   <g id="line2d_8">
    <path d="M 60.48 96.669767 
L 64.6632 95.776744 
L 60.48 94.883721 
" style="fill: none; stroke: #000000; stroke-width: 1.5; stroke-linecap: round"/>
   </g>
   <g id="line2d_9">
    <path d="M 60.48 94.883721 
L 56.2968 93.990698 
L 60.48 93.097674 
" style="fill: none; stroke: #000000; stroke-width: 1.5; stroke-linecap: round"/>
   </g>
   <g id="line2d_10">
    <path d="M 60.48 93.097674 
L 60.48 87.739535 
" style="fill: none; stroke: #000000; stroke-width: 1.5; stroke-linecap: round"/>
   </g>
   <g id="line2d_11">
    <path d="M 60.48 87.739535 
L 60.498823 87.841548 
L 60.554043 87.933343 
L 60.641972 88.005267 
L 60.756669 88.048775 
L 60.890237 88.056914 
L 61.03322 88.02474 
L 61.175086 87.949635 
L 61.304767 87.831517 
L 61.411236 87.672932 
L 61.484102 87.479006 
L 61.514174 87.257291 
L 61.494001 87.017468 
L 61.418323 86.770953 
L 61.284453 86.530402 
L 61.09253 86.309143 
L 60.845663 86.120555 
L 60.549933 85.977427 
L 60.214265 85.89131 
L 59.850157 85.871915 
L 59.471287 85.926559 
L 59.093012 86.0597 
L 58.731756 86.272584 
L 58.404346 86.563012 
L 58.127288 86.925253 
L 57.91603 87.350106 
L 57.784247 87.825109 
L 57.743162 88.334897 
L 57.800948 88.861705 
L 57.962226 89.385979 
L 58.227703 89.887096 
L 58.593939 90.344156 
L 59.053287 90.736818 
L 59.593996 91.046146 
L 60.200486 91.255433 
L 60.853785 91.350969 
L 61.532119 91.322724 
L 62.211643 91.164905 
L 62.867272 90.876373 
L 63.473596 90.460894 
L 64.005852 89.927205 
L 64.440891 89.288892 
L 64.758137 88.564078 
L 64.940466 87.774922 
L 64.974998 86.946945 
L 64.853753 86.108209 
L 64.574135 85.288363 
L 64.139247 84.5176 
L 63.557987 83.825555 
L 62.844942 83.24019 
L 62.020052 82.786695 
L 61.108082 82.486464 
L 60.137877 82.356174 
L 59.141461 82.407008 
L 58.152973 82.644057 
L 57.207502 83.065923 
L 56.339845 83.664554 
L 55.583239 84.425311 
L 54.968113 85.327284 
L 54.520897 86.343835 
L 54.262948 87.44338 
L 54.209625 88.590362 
L 54.36955 89.7464 
L 54.744099 90.871574 
L 55.327131 91.9258 
L 56.104986 92.870255 
L 57.056744 93.668788 
L 58.154763 94.289283 
L 59.365461 94.704911 
L 60.650337 94.895224 
L 61.967194 94.847062 
L 63.271522 94.555207 
L 64.518004 94.022792 
L 65.662088 93.261409 
L 66.66157 92.290928 
L 67.478134 91.139019 
L 68.078798 89.840378 
L 68.437202 88.4357 
L 68.534694 86.970405 
L 68.361178 85.49317 
L 67.915675 84.054314 
L 67.206577 82.704082 
L 66.251586 81.490898 
L 65.077313 80.459635 
L 63.718571 79.649976 
L 62.217353 79.094912 
L 60.621544 78.819446 
L 58.983393 78.839544 
L 57.357807 79.16138 
L 55.800506 79.7809 
L 54.366121 80.683742 
L 53.106274 81.845501 
L 52.067742 83.232358 
L 51.290732 84.802045 
L 50.807357 86.50512 
L 50.640365 88.286524 
L 50.802154 90.087355 
L 51.294139 91.84682 
L 52.106477 93.504284 
L 53.218178 95.001357 
" style="fill: none; stroke: #000000; stroke-width: 1.5; stroke-linecap: round"/>
   </g>
   <g id="line2d_12">
    <path d="M 53.218178 109.172093 
L 53.218178 95.001357 
" style="fill: none; stroke: #000000; stroke-width: 1.5; stroke-linecap: round"/>
   </g>
   <g id="line2d_13">
    <path d="M 50.022 111.315349 
L 70.938 111.315349 
" style="fill: none; stroke: #c0c0c0; stroke-width: 5"/>
   </g>
   <g id="line2d_14">
    <path d="M 50.022 109.172093 
L 70.938 109.172093 
" style="fill: none; stroke: #000000; stroke-width: 1.5"/>
   </g>
   <g id="line2d_15">
    <path d="M 478.8 109.172093 
L 478.8 103.813953 
" style="fill: none; stroke: #000000; stroke-width: 1.5"/>
   </g>
   <g id="line2d_16">
    <path d="M 478.8 103.813953 
L 482.9832 102.92093 
L 478.8 102.027907 
" style="fill: none; stroke: #000000; stroke-width: 1.5; stroke-linecap: round"/>
   </g>
   <g id="line2d_17">
    <path d="M 478.8 102.027907 
L 474.6168 101.134884 
L 478.8 100.24186 
" style="fill: none; stroke: #000000; stroke-width: 1.5; stroke-linecap: round"/>
   </g>
   <g id="line2d_18">
    <path d="M 478.8 100.24186 
L 482.9832 99.348837 
L 478.8 98.455814 
" style="fill: none; stroke: #000000; stroke-width: 1.5; stroke-linecap: round"/>
   </g>
   <g id="line2d_19">
    <path d="M 478.8 98.455814 
L 474.6168 97.562791 
L 478.8 96.669767 
" style="fill: none; stroke: #000000; stroke-width: 1.5; stroke-linecap: round"/>
   </g>
   <g id="line2d_20">
    <path d="M 478.8 96.669767 
L 482.9832 95.776744 
L 478.8 94.883721 
" style="fill: none; stroke: #000000; stroke-width: 1.5; stroke-linecap: round"/>
   </g>
   <g id="line2d_21">
    <path d="M 478.8 94.883721 
L 474.6168 93.990698 
L 478.8 93.097674 
" style="fill: none; stroke: #000000; stroke-width: 1.5; stroke-linecap: round"/>
   </g>
   <g id="line2d_22">
    <path d="M 478.8 93.097674 
L 478.8 87.739535 
" style="fill: none; stroke: #000000; stroke-width: 1.5; stroke-linecap: round"/>
   </g>
   <g id="line2d_23">
    <path d="M 478.8 87.739535 
L 478.781177 87.841548 
L 478.725957 87.933343 
L 478.638028 88.005267 
L 478.523331 88.048775 
L 478.389763 88.056914 
L 478.24678 88.02474 
L 478.104914 87.949635 
L 477.975233 87.831517 
L 477.868764 87.672932 
L 477.795898 87.479006 
L 477.765826 87.257291 
L 477.785999 87.017468 
L 477.861677 86.770953 
L 477.995547 86.530402 
L 478.18747 86.309143 
L 478.434337 86.120555 
L 478.730067 85.977427 
L 479.065735 85.89131 
L 479.429843 85.871915 
L 479.808713 85.926559 
L 480.186988 86.0597 
L 480.548244 86.272584 
L 480.875654 86.563012 
L 481.152712 86.925253 
L 481.36397 87.350106 
L 481.495753 87.825109 
L 481.536838 88.334897 
L 481.479052 88.861705 
L 481.317774 89.385979 
L 481.052297 89.887096 
L 480.686061 90.344156 
L 480.226713 90.736818 
L 479.686004 91.046146 
L 479.079514 91.255433 
L 478.426215 91.350969 
L 477.747881 91.322724 
L 477.068357 91.164905 
L 476.412728 90.876373 
L 475.806404 90.460894 
L 475.274148 89.927205 
L 474.839109 89.288892 
L 474.521863 88.564078 
L 474.339534 87.774922 
L 474.305002 86.946945 
L 474.426247 86.108209 
L 474.705865 85.288363 
L 475.140753 84.5176 
L 475.722013 83.825555 
L 476.435058 83.24019 
L 477.259948 82.786695 
L 478.171918 82.486464 
L 479.142123 82.356174 
L 480.138539 82.407008 
L 481.127027 82.644057 
L 482.072498 83.065923 
L 482.940155 83.664554 
L 483.696761 84.425311 
L 484.311887 85.327284 
L 484.759103 86.343835 
L 485.017052 87.44338 
L 485.070375 88.590362 
L 484.91045 89.7464 
L 484.535901 90.871574 
L 483.952869 91.9258 
L 483.175014 92.870255 
L 482.223256 93.668788 
L 481.125237 94.289283 
L 479.914539 94.704911 
L 478.629663 94.895224 
L 477.312806 94.847062 
L 476.008478 94.555207 
L 474.761996 94.022792 
L 473.617912 93.261409 
L 472.61843 92.290928 
L 471.801866 91.139019 
L 471.201202 89.840378 
L 470.842798 88.4357 
L 470.745306 86.970405 
L 470.918822 85.49317 
L 471.364325 84.054314 
L 472.073423 82.704082 
L 473.028414 81.490898 
L 474.202687 80.459635 
L 475.561429 79.649976 
L 477.062647 79.094912 
L 478.658456 78.819446 
L 480.296607 78.839544 
L 481.922193 79.16138 
L 483.479494 79.7809 
L 484.913879 80.683742 
L 486.173726 81.845501 
L 487.212258 83.232358 
L 487.989268 84.802045 
L 488.472643 86.50512 
L 488.639635 88.286524 
L 488.477846 90.087355 
L 487.985861 91.84682 
L 487.173523 93.504284 
L 486.061822 95.001357 
" style="fill: none; stroke: #000000; stroke-width: 1.5; stroke-linecap: round"/>
   </g>
   <g id="line2d_24">
    <path d="M 486.061822 109.172093 
L 486.061822 95.001357 
" style="fill: none; stroke: #000000; stroke-width: 1.5; stroke-linecap: round"/>
   </g>
   <g id="line2d_25">
    <path d="M 468.342 111.315349 
L 489.258 111.315349 
" style="fill: none; stroke: #c0c0c0; stroke-width: 5"/>
   </g>
   <g id="line2d_26">
    <path d="M 468.342 109.172093 
L 489.258 109.172093 
" style="fill: none; stroke: #000000; stroke-width: 1.5"/>
   </g>
  </g>
  <g id="axes_2">
   <g id="patch_2">
    <path d="M 60.48 276.346047 
L 478.8 276.346047 
L 478.8 158.466977 
L 60.48 158.466977 
z
" style="fill: #ffffff"/>
   </g>
   <g id="FillBetweenPolyCollection_2">
    <defs>
     <path id="mf7272f431d" d="M 60.48 -358.593488 
L 60.48 -412.174884 
L 64.705455 -411.092431 
L 68.930909 -410.009979 
L 73.156364 -408.927526 
L 77.381818 -407.845074 
L 81.607273 -406.762622 
L 85.832727 -405.680169 
L 90.058182 -404.597717 
L 94.283636 -403.515264 
L 98.509091 -402.432812 
L 102.734545 -401.350359 
L 106.96 -400.267907 
L 111.185455 -399.185455 
L 115.410909 -398.103002 
L 119.636364 -397.02055 
L 123.861818 -395.938097 
L 128.087273 -394.855645 
L 132.312727 -393.773192 
L 136.538182 -392.69074 
L 140.763636 -391.608288 
L 144.989091 -390.525835 
L 149.214545 -389.443383 
L 153.44 -388.36093 
L 157.665455 -387.278478 
L 161.890909 -386.196025 
L 166.116364 -385.113573 
L 170.341818 -384.031121 
L 174.567273 -382.948668 
L 178.792727 -381.866216 
L 183.018182 -380.783763 
L 187.243636 -379.701311 
L 191.469091 -378.618858 
L 195.694545 -377.536406 
L 199.92 -376.453953 
L 204.145455 -375.371501 
L 208.370909 -374.289049 
L 212.596364 -373.206596 
L 216.821818 -372.124144 
L 221.047273 -371.041691 
L 225.272727 -369.959239 
L 229.498182 -368.876786 
L 233.723636 -367.794334 
L 237.949091 -366.711882 
L 242.174545 -365.629429 
L 246.4 -364.546977 
L 250.625455 -363.464524 
L 254.850909 -362.382072 
L 259.076364 -361.299619 
L 263.301818 -360.217167 
L 267.527273 -359.134715 
L 271.752727 -358.052262 
L 275.978182 -356.96981 
L 280.203636 -355.887357 
L 284.429091 -354.804905 
L 288.654545 -353.722452 
L 292.88 -352.64 
L 297.105455 -351.557548 
L 301.330909 -350.475095 
L 305.556364 -349.392643 
L 309.781818 -348.31019 
L 314.007273 -347.227738 
L 318.232727 -346.145285 
L 322.458182 -345.062833 
L 326.683636 -343.980381 
L 330.909091 -342.897928 
L 335.134545 -341.815476 
L 339.36 -340.733023 
L 343.585455 -339.650571 
L 347.810909 -338.568118 
L 352.036364 -337.485666 
L 356.261818 -336.403214 
L 360.487273 -335.320761 
L 364.712727 -334.238309 
L 368.938182 -333.155856 
L 373.163636 -332.073404 
L 377.389091 -330.990951 
L 381.614545 -329.908499 
L 385.84 -328.826047 
L 390.065455 -327.743594 
L 394.290909 -326.661142 
L 398.516364 -325.578689 
L 402.741818 -324.496237 
L 406.967273 -323.413784 
L 411.192727 -322.331332 
L 415.418182 -321.248879 
L 419.643636 -320.166427 
L 423.869091 -319.083975 
L 428.094545 -318.001522 
L 432.32 -316.91907 
L 436.545455 -315.836617 
L 440.770909 -314.754165 
L 444.996364 -313.671712 
L 449.221818 -312.58926 
L 453.447273 -311.506808 
L 457.672727 -310.424355 
L 461.898182 -309.341903 
L 466.123636 -308.25945 
L 470.349091 -307.176998 
L 474.574545 -306.094545 
L 478.8 -305.012093 
L 478.8 -358.593488 
L 478.8 -358.593488 
L 474.574545 -358.593488 
L 470.349091 -358.593488 
L 466.123636 -358.593488 
L 461.898182 -358.593488 
L 457.672727 -358.593488 
L 453.447273 -358.593488 
L 449.221818 -358.593488 
L 444.996364 -358.593488 
L 440.770909 -358.593488 
L 436.545455 -358.593488 
L 432.32 -358.593488 
L 428.094545 -358.593488 
L 423.869091 -358.593488 
L 419.643636 -358.593488 
L 415.418182 -358.593488 
L 411.192727 -358.593488 
L 406.967273 -358.593488 
L 402.741818 -358.593488 
L 398.516364 -358.593488 
L 394.290909 -358.593488 
L 390.065455 -358.593488 
L 385.84 -358.593488 
L 381.614545 -358.593488 
L 377.389091 -358.593488 
L 373.163636 -358.593488 
L 368.938182 -358.593488 
L 364.712727 -358.593488 
L 360.487273 -358.593488 
L 356.261818 -358.593488 
L 352.036364 -358.593488 
L 347.810909 -358.593488 
L 343.585455 -358.593488 
L 339.36 -358.593488 
L 335.134545 -358.593488 
L 330.909091 -358.593488 
L 326.683636 -358.593488 
L 322.458182 -358.593488 
L 318.232727 -358.593488 
L 314.007273 -358.593488 
L 309.781818 -358.593488 
L 305.556364 -358.593488 
L 301.330909 -358.593488 
L 297.105455 -358.593488 
L 292.88 -358.593488 
L 288.654545 -358.593488 
L 284.429091 -358.593488 
L 280.203636 -358.593488 
L 275.978182 -358.593488 
L 271.752727 -358.593488 
L 267.527273 -358.593488 
L 263.301818 -358.593488 
L 259.076364 -358.593488 
L 254.850909 -358.593488 
L 250.625455 -358.593488 
L 246.4 -358.593488 
L 242.174545 -358.593488 
L 237.949091 -358.593488 
L 233.723636 -358.593488 
L 229.498182 -358.593488 
L 225.272727 -358.593488 
L 221.047273 -358.593488 
L 216.821818 -358.593488 
L 212.596364 -358.593488 
L 208.370909 -358.593488 
L 204.145455 -358.593488 
L 199.92 -358.593488 
L 195.694545 -358.593488 
L 191.469091 -358.593488 
L 187.243636 -358.593488 
L 183.018182 -358.593488 
L 178.792727 -358.593488 
L 174.567273 -358.593488 
L 170.341818 -358.593488 
L 166.116364 -358.593488 
L 161.890909 -358.593488 
L 157.665455 -358.593488 
L 153.44 -358.593488 
L 149.214545 -358.593488 
L 144.989091 -358.593488 
L 140.763636 -358.593488 
L 136.538182 -358.593488 
L 132.312727 -358.593488 
L 128.087273 -358.593488 
L 123.861818 -358.593488 
L 119.636364 -358.593488 
L 115.410909 -358.593488 
L 111.185455 -358.593488 
L 106.96 -358.593488 
L 102.734545 -358.593488 
L 98.509091 -358.593488 
L 94.283636 -358.593488 
L 90.058182 -358.593488 
L 85.832727 -358.593488 
L 81.607273 -358.593488 
L 77.381818 -358.593488 
L 73.156364 -358.593488 
L 68.930909 -358.593488 
L 64.705455 -358.593488 
L 60.48 -358.593488 
z
" style="stroke: #228b22; stroke-opacity: 0.35"/>
    </defs>
    <g clip-path="url(#pe5516a0fd5)">
     <use xlink:href="#mf7272f431d" x="0" y="576" style="fill: #228b22; fill-opacity: 0.35; stroke: #228b22; stroke-opacity: 0.35"/>
    </g>
   </g>
   <g id="matplotlib.axis_1">
    <g id="xtick_1">
     <g id="line2d_27">
      <defs>
       <path id="m23641cb256" d="M 0 0 
L 0 3.5 
" style="stroke: #000000; stroke-width: 0.8"/>
      </defs>
      <g>
       <use xlink:href="#m23641cb256" x="60.48" y="276.346047" style="stroke: #000000; stroke-width: 0.8"/>
      </g>
     </g>
    </g>
    <g id="xtick_2">
     <g id="line2d_28">
      <g>
       <use xlink:href="#m23641cb256" x="144.144" y="276.346047" style="stroke: #000000; stroke-width: 0.8"/>
      </g>
     </g>
    </g>
    <g id="xtick_3">
     <g id="line2d_29">
      <g>
       <use xlink:href="#m23641cb256" x="227.808" y="276.346047" style="stroke: #000000; stroke-width: 0.8"/>
      </g>
     </g>
    </g>
    <g id="xtick_4">
     <g id="line2d_30">
      <g>
       <use xlink:href="#m23641cb256" x="311.472" y="276.346047" style="stroke: #000000; stroke-width: 0.8"/>
      </g>
     </g>
    </g>
    <g id="xtick_5">
     <g id="line2d_31">
      <g>
       <use xlink:href="#m23641cb256" x="395.136" y="276.346047" style="stroke: #000000; stroke-width: 0.8"/>
      </g>
     </g>
    </g>
    <g id="xtick_6">
     <g id="line2d_32">
      <g>
       <use xlink:href="#m23641cb256" x="478.8" y="276.346047" style="stroke: #000000; stroke-width: 0.8"/>
      </g>
     </g>
    </g>
   </g>
   <g id="matplotlib.axis_2">
    <g id="ytick_1">
     <g id="line2d_33">
      <defs>
       <path id="ma7ccb0c5b2" d="M 0 0 
L -3.5 0 
" style="stroke: #000000; stroke-width: 0.8"/>
      </defs>
      <g>
       <use xlink:href="#ma7ccb0c5b2" x="60.48" y="270.987907" style="stroke: #000000; stroke-width: 0.8"/>
      </g>
     </g>
     <g id="text_1">
      <!-- −0.50 -->
      <g transform="translate(22.834687 274.787126) scale(0.1 -0.1)">
       <defs>
        <path id="DejaVuSans-2212" d="M 678 2272 
L 4684 2272 
L 4684 1741 
L 678 1741 
L 678 2272 
z
" transform="scale(0.015625)"/>
        <path id="DejaVuSans-30" d="M 2034 4250 
Q 1547 4250 1301 3770 
Q 1056 3291 1056 2328 
Q 1056 1369 1301 889 
Q 1547 409 2034 409 
Q 2525 409 2770 889 
Q 3016 1369 3016 2328 
Q 3016 3291 2770 3770 
Q 2525 4250 2034 4250 
z
M 2034 4750 
Q 2819 4750 3233 4129 
Q 3647 3509 3647 2328 
Q 3647 1150 3233 529 
Q 2819 -91 2034 -91 
Q 1250 -91 836 529 
Q 422 1150 422 2328 
Q 422 3509 836 4129 
Q 1250 4750 2034 4750 
z
" transform="scale(0.015625)"/>
        <path id="DejaVuSans-2e" d="M 684 794 
L 1344 794 
L 1344 0 
L 684 0 
L 684 794 
z
" transform="scale(0.015625)"/>
        <path id="DejaVuSans-35" d="M 691 4666 
L 3169 4666 
L 3169 4134 
L 1269 4134 
L 1269 2991 
Q 1406 3038 1543 3061 
Q 1681 3084 1819 3084 
Q 2600 3084 3056 2656 
Q 3513 2228 3513 1497 
Q 3513 744 3044 326 
Q 2575 -91 1722 -91 
Q 1428 -91 1123 -41 
Q 819 9 494 109 
L 494 744 
Q 775 591 1075 516 
Q 1375 441 1709 441 
Q 2250 441 2565 725 
Q 2881 1009 2881 1497 
Q 2881 1984 2565 2268 
Q 2250 2553 1709 2553 
Q 1456 2553 1204 2497 
Q 953 2441 691 2322 
L 691 4666 
z
" transform="scale(0.015625)"/>
       </defs>
       <use xlink:href="#DejaVuSans-2212"/>
       <use xlink:href="#DejaVuSans-30" transform="translate(83.789062 0)"/>
       <use xlink:href="#DejaVuSans-2e" transform="translate(147.412109 0)"/>
       <use xlink:href="#DejaVuSans-35" transform="translate(179.199219 0)"/>
       <use xlink:href="#DejaVuSans-30" transform="translate(242.822266 0)"/>
      </g>
     </g>
    </g>
    <g id="ytick_2">
     <g id="line2d_34">
      <g>
       <use xlink:href="#ma7ccb0c5b2" x="60.48" y="244.197209" style="stroke: #000000; stroke-width: 0.8"/>
      </g>
     </g>
     <g id="text_2">
      <!-- −0.25 -->
      <g transform="translate(22.834687 247.996428) scale(0.1 -0.1)">
       <defs>
        <path id="DejaVuSans-32" d="M 1228 531 
L 3431 531 
L 3431 0 
L 469 0 
L 469 531 
Q 828 903 1448 1529 
Q 2069 2156 2228 2338 
Q 2531 2678 2651 2914 
Q 2772 3150 2772 3378 
Q 2772 3750 2511 3984 
Q 2250 4219 1831 4219 
Q 1534 4219 1204 4116 
Q 875 4013 500 3803 
L 500 4441 
Q 881 4594 1212 4672 
Q 1544 4750 1819 4750 
Q 2544 4750 2975 4387 
Q 3406 4025 3406 3419 
Q 3406 3131 3298 2873 
Q 3191 2616 2906 2266 
Q 2828 2175 2409 1742 
Q 1991 1309 1228 531 
z
" transform="scale(0.015625)"/>
       </defs>
       <use xlink:href="#DejaVuSans-2212"/>
       <use xlink:href="#DejaVuSans-30" transform="translate(83.789062 0)"/>
       <use xlink:href="#DejaVuSans-2e" transform="translate(147.412109 0)"/>
       <use xlink:href="#DejaVuSans-32" transform="translate(179.199219 0)"/>
       <use xlink:href="#DejaVuSans-35" transform="translate(242.822266 0)"/>
      </g>
     </g>
    </g>
    <g id="ytick_3">
     <g id="line2d_35">
      <g>
       <use xlink:href="#ma7ccb0c5b2" x="60.48" y="217.406512" style="stroke: #000000; stroke-width: 0.8"/>
      </g>
     </g>
     <g id="text_3">
      <!-- 0.00 -->
      <g transform="translate(31.214375 221.20573) scale(0.1 -0.1)">
       <use xlink:href="#DejaVuSans-30"/>
       <use xlink:href="#DejaVuSans-2e" transform="translate(63.623047 0)"/>
       <use xlink:href="#DejaVuSans-30" transform="translate(95.410156 0)"/>
       <use xlink:href="#DejaVuSans-30" transform="translate(159.033203 0)"/>
      </g>
     </g>
    </g>
    <g id="ytick_4">
     <g id="line2d_36">
      <g>
       <use xlink:href="#ma7ccb0c5b2" x="60.48" y="190.615814" style="stroke: #000000; stroke-width: 0.8"/>
      </g>
     </g>
     <g id="text_4">
      <!-- 0.25 -->
      <g transform="translate(31.214375 194.415033) scale(0.1 -0.1)">
       <use xlink:href="#DejaVuSans-30"/>
       <use xlink:href="#DejaVuSans-2e" transform="translate(63.623047 0)"/>
       <use xlink:href="#DejaVuSans-32" transform="translate(95.410156 0)"/>
       <use xlink:href="#DejaVuSans-35" transform="translate(159.033203 0)"/>
      </g>
     </g>
    </g>
    <g id="ytick_5">
     <g id="line2d_37">
      <g>
       <use xlink:href="#ma7ccb0c5b2" x="60.48" y="163.825116" style="stroke: #000000; stroke-width: 0.8"/>
      </g>
     </g>
     <g id="text_5">
      <!-- 0.50 -->
      <g transform="translate(31.214375 167.624335) scale(0.1 -0.1)">
       <use xlink:href="#DejaVuSans-30"/>
       <use xlink:href="#DejaVuSans-2e" transform="translate(63.623047 0)"/>
       <use xlink:href="#DejaVuSans-35" transform="translate(95.410156 0)"/>
       <use xlink:href="#DejaVuSans-30" transform="translate(159.033203 0)"/>
      </g>
     </g>
    </g>
    <g id="text_6">
     <!-- Shear force, $V(x)$ -->
     <g transform="translate(16.755 259.706512) rotate(-90) scale(0.1 -0.1)">
      <defs>
       <path id="DejaVuSans-53" d="M 3425 4513 
L 3425 3897 
Q 3066 4069 2747 4153 
Q 2428 4238 2131 4238 
Q 1616 4238 1336 4038 
Q 1056 3838 1056 3469 
Q 1056 3159 1242 3001 
Q 1428 2844 1947 2747 
L 2328 2669 
Q 3034 2534 3370 2195 
Q 3706 1856 3706 1288 
Q 3706 609 3251 259 
Q 2797 -91 1919 -91 
Q 1588 -91 1214 -16 
Q 841 59 441 206 
L 441 856 
Q 825 641 1194 531 
Q 1563 422 1919 422 
Q 2459 422 2753 634 
Q 3047 847 3047 1241 
Q 3047 1584 2836 1778 
Q 2625 1972 2144 2069 
L 1759 2144 
Q 1053 2284 737 2584 
Q 422 2884 422 3419 
Q 422 4038 858 4394 
Q 1294 4750 2059 4750 
Q 2388 4750 2728 4690 
Q 3069 4631 3425 4513 
z
" transform="scale(0.015625)"/>
       <path id="DejaVuSans-68" d="M 3513 2113 
L 3513 0 
L 2938 0 
L 2938 2094 
Q 2938 2591 2744 2837 
Q 2550 3084 2163 3084 
Q 1697 3084 1428 2787 
Q 1159 2491 1159 1978 
L 1159 0 
L 581 0 
L 581 4863 
L 1159 4863 
L 1159 2956 
Q 1366 3272 1645 3428 
Q 1925 3584 2291 3584 
Q 2894 3584 3203 3211 
Q 3513 2838 3513 2113 
z
" transform="scale(0.015625)"/>
       <path id="DejaVuSans-65" d="M 3597 1894 
L 3597 1613 
L 953 1613 
Q 991 1019 1311 708 
Q 1631 397 2203 397 
Q 2534 397 2845 478 
Q 3156 559 3463 722 
L 3463 178 
Q 3153 47 2828 -22 
Q 2503 -91 2169 -91 
Q 1331 -91 842 396 
Q 353 884 353 1716 
Q 353 2575 817 3079 
Q 1281 3584 2069 3584 
Q 2775 3584 3186 3129 
Q 3597 2675 3597 1894 
z
M 3022 2063 
Q 3016 2534 2758 2815 
Q 2500 3097 2075 3097 
Q 1594 3097 1305 2825 
Q 1016 2553 972 2059 
L 3022 2063 
z
" transform="scale(0.015625)"/>
       <path id="DejaVuSans-61" d="M 2194 1759 
Q 1497 1759 1228 1600 
Q 959 1441 959 1056 
Q 959 750 1161 570 
Q 1363 391 1709 391 
Q 2188 391 2477 730 
Q 2766 1069 2766 1631 
L 2766 1759 
L 2194 1759 
z
M 3341 1997 
L 3341 0 
L 2766 0 
L 2766 531 
Q 2569 213 2275 61 
Q 1981 -91 1556 -91 
Q 1019 -91 701 211 
Q 384 513 384 1019 
Q 384 1609 779 1909 
Q 1175 2209 1959 2209 
L 2766 2209 
L 2766 2266 
Q 2766 2663 2505 2880 
Q 2244 3097 1772 3097 
Q 1472 3097 1187 3025 
Q 903 2953 641 2809 
L 641 3341 
Q 956 3463 1253 3523 
Q 1550 3584 1831 3584 
Q 2591 3584 2966 3190 
Q 3341 2797 3341 1997 
z
" transform="scale(0.015625)"/>
       <path id="DejaVuSans-72" d="M 2631 2963 
Q 2534 3019 2420 3045 
Q 2306 3072 2169 3072 
Q 1681 3072 1420 2755 
Q 1159 2438 1159 1844 
L 1159 0 
L 581 0 
L 581 3500 
L 1159 3500 
L 1159 2956 
Q 1341 3275 1631 3429 
Q 1922 3584 2338 3584 
Q 2397 3584 2469 3576 
Q 2541 3569 2628 3553 
L 2631 2963 
z
" transform="scale(0.015625)"/>
       <path id="DejaVuSans-20" transform="scale(0.015625)"/>
       <path id="DejaVuSans-66" d="M 2375 4863 
L 2375 4384 
L 1825 4384 
Q 1516 4384 1395 4259 
Q 1275 4134 1275 3809 
L 1275 3500 
L 2222 3500 
L 2222 3053 
L 1275 3053 
L 1275 0 
L 697 0 
L 697 3053 
L 147 3053 
L 147 3500 
L 697 3500 
L 697 3744 
Q 697 4328 969 4595 
Q 1241 4863 1831 4863 
L 2375 4863 
z
" transform="scale(0.015625)"/>
       <path id="DejaVuSans-6f" d="M 1959 3097 
Q 1497 3097 1228 2736 
Q 959 2375 959 1747 
Q 959 1119 1226 758 
Q 1494 397 1959 397 
Q 2419 397 2687 759 
Q 2956 1122 2956 1747 
Q 2956 2369 2687 2733 
Q 2419 3097 1959 3097 
z
M 1959 3584 
Q 2709 3584 3137 3096 
Q 3566 2609 3566 1747 
Q 3566 888 3137 398 
Q 2709 -91 1959 -91 
Q 1206 -91 779 398 
Q 353 888 353 1747 
Q 353 2609 779 3096 
Q 1206 3584 1959 3584 
z
" transform="scale(0.015625)"/>
       <path id="DejaVuSans-63" d="M 3122 3366 
L 3122 2828 
Q 2878 2963 2633 3030 
Q 2388 3097 2138 3097 
Q 1578 3097 1268 2742 
Q 959 2388 959 1747 
Q 959 1106 1268 751 
Q 1578 397 2138 397 
Q 2388 397 2633 464 
Q 2878 531 3122 666 
L 3122 134 
Q 2881 22 2623 -34 
Q 2366 -91 2075 -91 
Q 1284 -91 818 406 
Q 353 903 353 1747 
Q 353 2603 823 3093 
Q 1294 3584 2113 3584 
Q 2378 3584 2631 3529 
Q 2884 3475 3122 3366 
z
" transform="scale(0.015625)"/>
       <path id="DejaVuSans-2c" d="M 750 794 
L 1409 794 
L 1409 256 
L 897 -744 
L 494 -744 
L 750 256 
L 750 794 
z
" transform="scale(0.015625)"/>
       <path id="DejaVuSans-Oblique-56" d="M 1319 0 
L 500 4666 
L 1119 4666 
L 1797 653 
L 4063 4666 
L 4750 4666 
L 2053 0 
L 1319 0 
z
" transform="scale(0.015625)"/>
       <path id="DejaVuSans-28" d="M 1984 4856 
Q 1566 4138 1362 3434 
Q 1159 2731 1159 2009 
Q 1159 1288 1364 580 
Q 1569 -128 1984 -844 
L 1484 -844 
Q 1016 -109 783 600 
Q 550 1309 550 2009 
Q 550 2706 781 3412 
Q 1013 4119 1484 4856 
L 1984 4856 
z
" transform="scale(0.015625)"/>
       <path id="DejaVuSans-Oblique-78" d="M 3841 3500 
L 2234 1784 
L 3219 0 
L 2559 0 
L 1819 1388 
L 531 0 
L -166 0 
L 1556 1844 
L 641 3500 
L 1300 3500 
L 1972 2234 
L 3144 3500 
L 3841 3500 
z
" transform="scale(0.015625)"/>
       <path id="DejaVuSans-29" d="M 513 4856 
L 1013 4856 
Q 1481 4119 1714 3412 
Q 1947 2706 1947 2009 
Q 1947 1309 1714 600 
Q 1481 -109 1013 -844 
L 513 -844 
Q 928 -128 1133 580 
Q 1338 1288 1338 2009 
Q 1338 2731 1133 3434 
Q 928 4138 513 4856 
z
" transform="scale(0.015625)"/>
      </defs>
      <use xlink:href="#DejaVuSans-53" transform="translate(0 0.015625)"/>
      <use xlink:href="#DejaVuSans-68" transform="translate(63.476562 0.015625)"/>
      <use xlink:href="#DejaVuSans-65" transform="translate(126.855469 0.015625)"/>
      <use xlink:href="#DejaVuSans-61" transform="translate(188.378906 0.015625)"/>
      <use xlink:href="#DejaVuSans-72" transform="translate(249.658203 0.015625)"/>
      <use xlink:href="#DejaVuSans-20" transform="translate(290.771484 0.015625)"/>
      <use xlink:href="#DejaVuSans-66" transform="translate(322.558594 0.015625)"/>
      <use xlink:href="#DejaVuSans-6f" transform="translate(357.763672 0.015625)"/>
      <use xlink:href="#DejaVuSans-72" transform="translate(418.945312 0.015625)"/>
      <use xlink:href="#DejaVuSans-63" transform="translate(460.058594 0.015625)"/>
      <use xlink:href="#DejaVuSans-65" transform="translate(515.039062 0.015625)"/>
      <use xlink:href="#DejaVuSans-2c" transform="translate(576.5625 0.015625)"/>
      <use xlink:href="#DejaVuSans-20" transform="translate(608.349609 0.015625)"/>
      <use xlink:href="#DejaVuSans-Oblique-56" transform="translate(640.136719 0.015625)"/>
      <use xlink:href="#DejaVuSans-28" transform="translate(708.544922 0.015625)"/>
      <use xlink:href="#DejaVuSans-Oblique-78" transform="translate(747.558594 0.015625)"/>
      <use xlink:href="#DejaVuSans-29" transform="translate(806.738281 0.015625)"/>
     </g>
    </g>
   </g>
   <g id="line2d_38">
    <path d="M 60.48 163.825116 
L 64.705455 164.907569 
L 68.930909 165.990021 
L 73.156364 167.072474 
L 77.381818 168.154926 
L 81.607273 169.237378 
L 85.832727 170.319831 
L 90.058182 171.402283 
L 94.283636 172.484736 
L 98.509091 173.567188 
L 102.734545 174.649641 
L 106.96 175.732093 
L 111.185455 176.814545 
L 115.410909 177.896998 
L 119.636364 178.97945 
L 123.861818 180.061903 
L 128.087273 181.144355 
L 132.312727 182.226808 
L 136.538182 183.30926 
L 140.763636 184.391712 
L 144.989091 185.474165 
L 149.214545 186.556617 
L 153.44 187.63907 
L 157.665455 188.721522 
L 161.890909 189.803975 
L 166.116364 190.886427 
L 170.341818 191.968879 
L 174.567273 193.051332 
L 178.792727 194.133784 
L 183.018182 195.216237 
L 187.243636 196.298689 
L 191.469091 197.381142 
L 195.694545 198.463594 
L 199.92 199.546047 
L 204.145455 200.628499 
L 208.370909 201.710951 
L 212.596364 202.793404 
L 216.821818 203.875856 
L 221.047273 204.958309 
L 225.272727 206.040761 
L 229.498182 207.123214 
L 233.723636 208.205666 
L 237.949091 209.288118 
L 242.174545 210.370571 
L 246.4 211.453023 
L 250.625455 212.535476 
L 254.850909 213.617928 
L 259.076364 214.700381 
L 263.301818 215.782833 
L 267.527273 216.865285 
L 271.752727 217.947738 
L 275.978182 219.03019 
L 280.203636 220.112643 
L 284.429091 221.195095 
L 288.654545 222.277548 
L 292.88 223.36 
L 297.105455 224.442452 
L 301.330909 225.524905 
L 305.556364 226.607357 
L 309.781818 227.68981 
L 314.007273 228.772262 
L 318.232727 229.854715 
L 322.458182 230.937167 
L 326.683636 232.019619 
L 330.909091 233.102072 
L 335.134545 234.184524 
L 339.36 235.266977 
L 343.585455 236.349429 
L 347.810909 237.431882 
L 352.036364 238.514334 
L 356.261818 239.596786 
L 360.487273 240.679239 
L 364.712727 241.761691 
L 368.938182 242.844144 
L 373.163636 243.926596 
L 377.389091 245.009049 
L 381.614545 246.091501 
L 385.84 247.173953 
L 390.065455 248.256406 
L 394.290909 249.338858 
L 398.516364 250.421311 
L 402.741818 251.503763 
L 406.967273 252.586216 
L 411.192727 253.668668 
L 415.418182 254.751121 
L 419.643636 255.833573 
L 423.869091 256.916025 
L 428.094545 257.998478 
L 432.32 259.08093 
L 436.545455 260.163383 
L 440.770909 261.245835 
L 444.996364 262.328288 
L 449.221818 263.41074 
L 453.447273 264.493192 
L 457.672727 265.575645 
L 461.898182 266.658097 
L 466.123636 267.74055 
L 470.349091 268.823002 
L 474.574545 269.905455 
L 478.8 270.987907 
" clip-path="url(#pe5516a0fd5)" style="fill: none; stroke: #228b22; stroke-width: 2; stroke-linecap: square"/>
   </g>
   <g id="patch_3">
    <path d="M 60.48 276.346047 
L 60.48 158.466977 
" style="fill: none; stroke: #000000; stroke-width: 0.8; stroke-linejoin: miter; stroke-linecap: square"/>
   </g>
   <g id="patch_4">
    <path d="M 478.8 276.346047 
L 478.8 158.466977 
" style="fill: none; stroke: #000000; stroke-width: 0.8; stroke-linejoin: miter; stroke-linecap: square"/>
   </g>
   <g id="patch_5">
    <path d="M 60.48 276.346047 
L 478.8 276.346047 
" style="fill: none; stroke: #000000; stroke-width: 0.8; stroke-linejoin: miter; stroke-linecap: square"/>
   </g>
   <g id="patch_6">
    <path d="M 60.48 158.466977 
L 478.8 158.466977 
" style="fill: none; stroke: #000000; stroke-width: 0.8; stroke-linejoin: miter; stroke-linecap: square"/>
   </g>
  </g>
  <g id="axes_3">
   <g id="patch_7">
    <path d="M 60.48 406.013023 
L 478.8 406.013023 
L 478.8 288.133953 
L 60.48 288.133953 
z
" style="fill: #ffffff"/>
   </g>
   <g id="FillBetweenPolyCollection_3">
    <defs>
     <path id="m8feb74a40d" d="M 60.48 -258.691523 
L 60.48 -282.507907 
L 64.705455 -278.221395 
L 68.930909 -274.022364 
L 73.156364 -269.910812 
L 77.381818 -265.886739 
L 81.607273 -261.950147 
L 85.832727 -258.101035 
L 90.058182 -254.339402 
L 94.283636 -250.665249 
L 98.509091 -247.078576 
L 102.734545 -243.579383 
L 106.96 -240.16767 
L 111.185455 -236.843436 
L 115.410909 -233.606682 
L 119.636364 -230.457409 
L 123.861818 -227.395615 
L 128.087273 -224.4213 
L 132.312727 -221.534466 
L 136.538182 -218.735112 
L 140.763636 -216.023237 
L 144.989091 -213.398842 
L 149.214545 -210.861927 
L 153.44 -208.412492 
L 157.665455 -206.050536 
L 161.890909 -203.776061 
L 166.116364 -201.589065 
L 170.341818 -199.489549 
L 174.567273 -197.477513 
L 178.792727 -195.552957 
L 183.018182 -193.71588 
L 187.243636 -191.966284 
L 191.469091 -190.304167 
L 195.694545 -188.72953 
L 199.92 -187.242373 
L 204.145455 -185.842696 
L 208.370909 -184.530498 
L 212.596364 -183.305781 
L 216.821818 -182.168543 
L 221.047273 -181.118785 
L 225.272727 -180.156507 
L 229.498182 -179.281709 
L 233.723636 -178.49439 
L 237.949091 -177.794551 
L 242.174545 -177.182193 
L 246.4 -176.657314 
L 250.625455 -176.219915 
L 254.850909 -175.869995 
L 259.076364 -175.607556 
L 263.301818 -175.432596 
L 267.527273 -175.345116 
L 271.752727 -175.345116 
L 275.978182 -175.432596 
L 280.203636 -175.607556 
L 284.429091 -175.869995 
L 288.654545 -176.219915 
L 292.88 -176.657314 
L 297.105455 -177.182193 
L 301.330909 -177.794551 
L 305.556364 -178.49439 
L 309.781818 -179.281709 
L 314.007273 -180.156507 
L 318.232727 -181.118785 
L 322.458182 -182.168543 
L 326.683636 -183.305781 
L 330.909091 -184.530498 
L 335.134545 -185.842696 
L 339.36 -187.242373 
L 343.585455 -188.72953 
L 347.810909 -190.304167 
L 352.036364 -191.966284 
L 356.261818 -193.71588 
L 360.487273 -195.552957 
L 364.712727 -197.477513 
L 368.938182 -199.489549 
L 373.163636 -201.589065 
L 377.389091 -203.776061 
L 381.614545 -206.050536 
L 385.84 -208.412492 
L 390.065455 -210.861927 
L 394.290909 -213.398842 
L 398.516364 -216.023237 
L 402.741818 -218.735112 
L 406.967273 -221.534466 
L 411.192727 -224.4213 
L 415.418182 -227.395615 
L 419.643636 -230.457409 
L 423.869091 -233.606682 
L 428.094545 -236.843436 
L 432.32 -240.16767 
L 436.545455 -243.579383 
L 440.770909 -247.078576 
L 444.996364 -250.665249 
L 449.221818 -254.339402 
L 453.447273 -258.101035 
L 457.672727 -261.950147 
L 461.898182 -265.886739 
L 466.123636 -269.910812 
L 470.349091 -274.022364 
L 474.574545 -278.221395 
L 478.8 -282.507907 
L 478.8 -258.691523 
L 478.8 -258.691523 
L 474.574545 -258.691523 
L 470.349091 -258.691523 
L 466.123636 -258.691523 
L 461.898182 -258.691523 
L 457.672727 -258.691523 
L 453.447273 -258.691523 
L 449.221818 -258.691523 
L 444.996364 -258.691523 
L 440.770909 -258.691523 
L 436.545455 -258.691523 
L 432.32 -258.691523 
L 428.094545 -258.691523 
L 423.869091 -258.691523 
L 419.643636 -258.691523 
L 415.418182 -258.691523 
L 411.192727 -258.691523 
L 406.967273 -258.691523 
L 402.741818 -258.691523 
L 398.516364 -258.691523 
L 394.290909 -258.691523 
L 390.065455 -258.691523 
L 385.84 -258.691523 
L 381.614545 -258.691523 
L 377.389091 -258.691523 
L 373.163636 -258.691523 
L 368.938182 -258.691523 
L 364.712727 -258.691523 
L 360.487273 -258.691523 
L 356.261818 -258.691523 
L 352.036364 -258.691523 
L 347.810909 -258.691523 
L 343.585455 -258.691523 
L 339.36 -258.691523 
L 335.134545 -258.691523 
L 330.909091 -258.691523 
L 326.683636 -258.691523 
L 322.458182 -258.691523 
L 318.232727 -258.691523 
L 314.007273 -258.691523 
L 309.781818 -258.691523 
L 305.556364 -258.691523 
L 301.330909 -258.691523 
L 297.105455 -258.691523 
L 292.88 -258.691523 
L 288.654545 -258.691523 
L 284.429091 -258.691523 
L 280.203636 -258.691523 
L 275.978182 -258.691523 
L 271.752727 -258.691523 
L 267.527273 -258.691523 
L 263.301818 -258.691523 
L 259.076364 -258.691523 
L 254.850909 -258.691523 
L 250.625455 -258.691523 
L 246.4 -258.691523 
L 242.174545 -258.691523 
L 237.949091 -258.691523 
L 233.723636 -258.691523 
L 229.498182 -258.691523 
L 225.272727 -258.691523 
L 221.047273 -258.691523 
L 216.821818 -258.691523 
L 212.596364 -258.691523 
L 208.370909 -258.691523 
L 204.145455 -258.691523 
L 199.92 -258.691523 
L 195.694545 -258.691523 
L 191.469091 -258.691523 
L 187.243636 -258.691523 
L 183.018182 -258.691523 
L 178.792727 -258.691523 
L 174.567273 -258.691523 
L 170.341818 -258.691523 
L 166.116364 -258.691523 
L 161.890909 -258.691523 
L 157.665455 -258.691523 
L 153.44 -258.691523 
L 149.214545 -258.691523 
L 144.989091 -258.691523 
L 140.763636 -258.691523 
L 136.538182 -258.691523 
L 132.312727 -258.691523 
L 128.087273 -258.691523 
L 123.861818 -258.691523 
L 119.636364 -258.691523 
L 115.410909 -258.691523 
L 111.185455 -258.691523 
L 106.96 -258.691523 
L 102.734545 -258.691523 
L 98.509091 -258.691523 
L 94.283636 -258.691523 
L 90.058182 -258.691523 
L 85.832727 -258.691523 
L 81.607273 -258.691523 
L 77.381818 -258.691523 
L 73.156364 -258.691523 
L 68.930909 -258.691523 
L 64.705455 -258.691523 
L 60.48 -258.691523 
z
" style="stroke: #b22222; stroke-opacity: 0.35"/>
    </defs>
    <g clip-path="url(#p94571ea9a6)">
     <use xlink:href="#m8feb74a40d" x="0" y="576" style="fill: #b22222; fill-opacity: 0.35; stroke: #b22222; stroke-opacity: 0.35"/>
    </g>
   </g>
   <g id="matplotlib.axis_3">
    <g id="xtick_7">
     <g id="line2d_39">
      <g>
       <use xlink:href="#m23641cb256" x="60.48" y="406.013023" style="stroke: #000000; stroke-width: 0.8"/>
      </g>
     </g>
    </g>
    <g id="xtick_8">
     <g id="line2d_40">
      <g>
       <use xlink:href="#m23641cb256" x="144.144" y="406.013023" style="stroke: #000000; stroke-width: 0.8"/>
      </g>
     </g>
    </g>
    <g id="xtick_9">
     <g id="line2d_41">
      <g>
       <use xlink:href="#m23641cb256" x="227.808" y="406.013023" style="stroke: #000000; stroke-width: 0.8"/>
      </g>
     </g>
    </g>
    <g id="xtick_10">
     <g id="line2d_42">
      <g>
       <use xlink:href="#m23641cb256" x="311.472" y="406.013023" style="stroke: #000000; stroke-width: 0.8"/>
      </g>
     </g>
    </g>
    <g id="xtick_11">
     <g id="line2d_43">
      <g>
       <use xlink:href="#m23641cb256" x="395.136" y="406.013023" style="stroke: #000000; stroke-width: 0.8"/>
      </g>
     </g>
    </g>
    <g id="xtick_12">
     <g id="line2d_44">
      <g>
       <use xlink:href="#m23641cb256" x="478.8" y="406.013023" style="stroke: #000000; stroke-width: 0.8"/>
      </g>
     </g>
    </g>
   </g>
   <g id="matplotlib.axis_4">
    <g id="ytick_6">
     <g id="line2d_45">
      <g>
       <use xlink:href="#ma7ccb0c5b2" x="60.48" y="403.047457" style="stroke: #000000; stroke-width: 0.8"/>
      </g>
     </g>
     <g id="text_7">
      <!-- −0.10 -->
      <g transform="translate(22.834687 406.846676) scale(0.1 -0.1)">
       <defs>
        <path id="DejaVuSans-31" d="M 794 531 
L 1825 531 
L 1825 4091 
L 703 3866 
L 703 4441 
L 1819 4666 
L 2450 4666 
L 2450 531 
L 3481 531 
L 3481 0 
L 794 0 
L 794 531 
z
" transform="scale(0.015625)"/>
       </defs>
       <use xlink:href="#DejaVuSans-2212"/>
       <use xlink:href="#DejaVuSans-30" transform="translate(83.789062 0)"/>
       <use xlink:href="#DejaVuSans-2e" transform="translate(147.412109 0)"/>
       <use xlink:href="#DejaVuSans-31" transform="translate(179.199219 0)"/>
       <use xlink:href="#DejaVuSans-30" transform="translate(242.822266 0)"/>
      </g>
     </g>
    </g>
    <g id="ytick_7">
     <g id="line2d_46">
      <g>
       <use xlink:href="#ma7ccb0c5b2" x="60.48" y="360.177967" style="stroke: #000000; stroke-width: 0.8"/>
      </g>
     </g>
     <g id="text_8">
      <!-- −0.05 -->
      <g transform="translate(22.834687 363.977186) scale(0.1 -0.1)">
       <use xlink:href="#DejaVuSans-2212"/>
       <use xlink:href="#DejaVuSans-30" transform="translate(83.789062 0)"/>
       <use xlink:href="#DejaVuSans-2e" transform="translate(147.412109 0)"/>
       <use xlink:href="#DejaVuSans-30" transform="translate(179.199219 0)"/>
       <use xlink:href="#DejaVuSans-35" transform="translate(242.822266 0)"/>
      </g>
     </g>
    </g>
    <g id="ytick_8">
     <g id="line2d_47">
      <g>
       <use xlink:href="#ma7ccb0c5b2" x="60.48" y="317.308477" style="stroke: #000000; stroke-width: 0.8"/>
      </g>
     </g>
     <g id="text_9">
      <!-- 0.00 -->
      <g transform="translate(31.214375 321.107695) scale(0.1 -0.1)">
       <use xlink:href="#DejaVuSans-30"/>
       <use xlink:href="#DejaVuSans-2e" transform="translate(63.623047 0)"/>
       <use xlink:href="#DejaVuSans-30" transform="translate(95.410156 0)"/>
       <use xlink:href="#DejaVuSans-30" transform="translate(159.033203 0)"/>
      </g>
     </g>
    </g>
    <g id="text_10">
     <!-- Bending moment, $M(x)$ -->
     <g transform="translate(16.734687 404.623488) rotate(-90) scale(0.1 -0.1)">
      <defs>
       <path id="DejaVuSans-42" d="M 1259 2228 
L 1259 519 
L 2272 519 
Q 2781 519 3026 730 
Q 3272 941 3272 1375 
Q 3272 1813 3026 2020 
Q 2781 2228 2272 2228 
L 1259 2228 
z
M 1259 4147 
L 1259 2741 
L 2194 2741 
Q 2656 2741 2882 2914 
Q 3109 3088 3109 3444 
Q 3109 3797 2882 3972 
Q 2656 4147 2194 4147 
L 1259 4147 
z
M 628 4666 
L 2241 4666 
Q 2963 4666 3353 4366 
Q 3744 4066 3744 3513 
Q 3744 3084 3544 2831 
Q 3344 2578 2956 2516 
Q 3422 2416 3680 2098 
Q 3938 1781 3938 1306 
Q 3938 681 3513 340 
Q 3088 0 2303 0 
L 628 0 
L 628 4666 
z
" transform="scale(0.015625)"/>
       <path id="DejaVuSans-6e" d="M 3513 2113 
L 3513 0 
L 2938 0 
L 2938 2094 
Q 2938 2591 2744 2837 
Q 2550 3084 2163 3084 
Q 1697 3084 1428 2787 
Q 1159 2491 1159 1978 
L 1159 0 
L 581 0 
L 581 3500 
L 1159 3500 
L 1159 2956 
Q 1366 3272 1645 3428 
Q 1925 3584 2291 3584 
Q 2894 3584 3203 3211 
Q 3513 2838 3513 2113 
z
" transform="scale(0.015625)"/>
       <path id="DejaVuSans-64" d="M 2906 2969 
L 2906 4863 
L 3481 4863 
L 3481 0 
L 2906 0 
L 2906 525 
Q 2725 213 2448 61 
Q 2172 -91 1784 -91 
Q 1150 -91 751 415 
Q 353 922 353 1747 
Q 353 2572 751 3078 
Q 1150 3584 1784 3584 
Q 2172 3584 2448 3432 
Q 2725 3281 2906 2969 
z
M 947 1747 
Q 947 1113 1208 752 
Q 1469 391 1925 391 
Q 2381 391 2643 752 
Q 2906 1113 2906 1747 
Q 2906 2381 2643 2742 
Q 2381 3103 1925 3103 
Q 1469 3103 1208 2742 
Q 947 2381 947 1747 
z
" transform="scale(0.015625)"/>
       <path id="DejaVuSans-69" d="M 603 3500 
L 1178 3500 
L 1178 0 
L 603 0 
L 603 3500 
z
M 603 4863 
L 1178 4863 
L 1178 4134 
L 603 4134 
L 603 4863 
z
" transform="scale(0.015625)"/>
       <path id="DejaVuSans-67" d="M 2906 1791 
Q 2906 2416 2648 2759 
Q 2391 3103 1925 3103 
Q 1463 3103 1205 2759 
Q 947 2416 947 1791 
Q 947 1169 1205 825 
Q 1463 481 1925 481 
Q 2391 481 2648 825 
Q 2906 1169 2906 1791 
z
M 3481 434 
Q 3481 -459 3084 -895 
Q 2688 -1331 1869 -1331 
Q 1566 -1331 1297 -1286 
Q 1028 -1241 775 -1147 
L 775 -588 
Q 1028 -725 1275 -790 
Q 1522 -856 1778 -856 
Q 2344 -856 2625 -561 
Q 2906 -266 2906 331 
L 2906 616 
Q 2728 306 2450 153 
Q 2172 0 1784 0 
Q 1141 0 747 490 
Q 353 981 353 1791 
Q 353 2603 747 3093 
Q 1141 3584 1784 3584 
Q 2172 3584 2450 3431 
Q 2728 3278 2906 2969 
L 2906 3500 
L 3481 3500 
L 3481 434 
z
" transform="scale(0.015625)"/>
       <path id="DejaVuSans-6d" d="M 3328 2828 
Q 3544 3216 3844 3400 
Q 4144 3584 4550 3584 
Q 5097 3584 5394 3201 
Q 5691 2819 5691 2113 
L 5691 0 
L 5113 0 
L 5113 2094 
Q 5113 2597 4934 2840 
Q 4756 3084 4391 3084 
Q 3944 3084 3684 2787 
Q 3425 2491 3425 1978 
L 3425 0 
L 2847 0 
L 2847 2094 
Q 2847 2600 2669 2842 
Q 2491 3084 2119 3084 
Q 1678 3084 1418 2786 
Q 1159 2488 1159 1978 
L 1159 0 
L 581 0 
L 581 3500 
L 1159 3500 
L 1159 2956 
Q 1356 3278 1631 3431 
Q 1906 3584 2284 3584 
Q 2666 3584 2933 3390 
Q 3200 3197 3328 2828 
z
" transform="scale(0.015625)"/>
       <path id="DejaVuSans-74" d="M 1172 4494 
L 1172 3500 
L 2356 3500 
L 2356 3053 
L 1172 3053 
L 1172 1153 
Q 1172 725 1289 603 
Q 1406 481 1766 481 
L 2356 481 
L 2356 0 
L 1766 0 
Q 1100 0 847 248 
Q 594 497 594 1153 
L 594 3053 
L 172 3053 
L 172 3500 
L 594 3500 
L 594 4494 
L 1172 4494 
z
" transform="scale(0.015625)"/>
       <path id="DejaVuSans-Oblique-4d" d="M 1081 4666 
L 2028 4666 
L 2572 1522 
L 4378 4666 
L 5350 4666 
L 4441 0 
L 3828 0 
L 4622 4091 
L 2791 897 
L 2175 897 
L 1581 4103 
L 788 0 
L 172 0 
L 1081 4666 
z
" transform="scale(0.015625)"/>
      </defs>
      <use xlink:href="#DejaVuSans-42" transform="translate(0 0.015625)"/>
      <use xlink:href="#DejaVuSans-65" transform="translate(68.603516 0.015625)"/>
      <use xlink:href="#DejaVuSans-6e" transform="translate(130.126953 0.015625)"/>
      <use xlink:href="#DejaVuSans-64" transform="translate(193.505859 0.015625)"/>
      <use xlink:href="#DejaVuSans-69" transform="translate(256.982422 0.015625)"/>
      <use xlink:href="#DejaVuSans-6e" transform="translate(284.765625 0.015625)"/>
      <use xlink:href="#DejaVuSans-67" transform="translate(348.144531 0.015625)"/>
      <use xlink:href="#DejaVuSans-20" transform="translate(411.621094 0.015625)"/>
      <use xlink:href="#DejaVuSans-6d" transform="translate(443.408203 0.015625)"/>
      <use xlink:href="#DejaVuSans-6f" transform="translate(540.820312 0.015625)"/>
      <use xlink:href="#DejaVuSans-6d" transform="translate(602.001953 0.015625)"/>
      <use xlink:href="#DejaVuSans-65" transform="translate(699.414062 0.015625)"/>
      <use xlink:href="#DejaVuSans-6e" transform="translate(760.9375 0.015625)"/>
      <use xlink:href="#DejaVuSans-74" transform="translate(824.316406 0.015625)"/>
      <use xlink:href="#DejaVuSans-2c" transform="translate(863.525391 0.015625)"/>
      <use xlink:href="#DejaVuSans-20" transform="translate(895.3125 0.015625)"/>
      <use xlink:href="#DejaVuSans-Oblique-4d" transform="translate(927.099609 0.015625)"/>
      <use xlink:href="#DejaVuSans-28" transform="translate(1013.378906 0.015625)"/>
      <use xlink:href="#DejaVuSans-Oblique-78" transform="translate(1052.392578 0.015625)"/>
      <use xlink:href="#DejaVuSans-29" transform="translate(1111.572266 0.015625)"/>
     </g>
    </g>
   </g>
   <g id="line2d_48">
    <path d="M 60.48 293.492093 
L 64.705455 297.778605 
L 68.930909 301.977636 
L 73.156364 306.089188 
L 77.381818 310.113261 
L 81.607273 314.049853 
L 85.832727 317.898965 
L 90.058182 321.660598 
L 94.283636 325.334751 
L 98.509091 328.921424 
L 102.734545 332.420617 
L 106.96 335.83233 
L 111.185455 339.156564 
L 115.410909 342.393318 
L 119.636364 345.542591 
L 123.861818 348.604385 
L 128.087273 351.5787 
L 132.312727 354.465534 
L 136.538182 357.264888 
L 140.763636 359.976763 
L 144.989091 362.601158 
L 149.214545 365.138073 
L 153.44 367.587508 
L 157.665455 369.949464 
L 161.890909 372.223939 
L 166.116364 374.410935 
L 170.341818 376.510451 
L 174.567273 378.522487 
L 178.792727 380.447043 
L 183.018182 382.28412 
L 187.243636 384.033716 
L 191.469091 385.695833 
L 195.694545 387.27047 
L 199.92 388.757627 
L 204.145455 390.157304 
L 208.370909 391.469502 
L 212.596364 392.694219 
L 216.821818 393.831457 
L 221.047273 394.881215 
L 225.272727 395.843493 
L 229.498182 396.718291 
L 233.723636 397.50561 
L 237.949091 398.205449 
L 242.174545 398.817807 
L 246.4 399.342686 
L 250.625455 399.780085 
L 254.850909 400.130005 
L 259.076364 400.392444 
L 263.301818 400.567404 
L 267.527273 400.654884 
L 271.752727 400.654884 
L 275.978182 400.567404 
L 280.203636 400.392444 
L 284.429091 400.130005 
L 288.654545 399.780085 
L 292.88 399.342686 
L 297.105455 398.817807 
L 301.330909 398.205449 
L 305.556364 397.50561 
L 309.781818 396.718291 
L 314.007273 395.843493 
L 318.232727 394.881215 
L 322.458182 393.831457 
L 326.683636 392.694219 
L 330.909091 391.469502 
L 335.134545 390.157304 
L 339.36 388.757627 
L 343.585455 387.27047 
L 347.810909 385.695833 
L 352.036364 384.033716 
L 356.261818 382.28412 
L 360.487273 380.447043 
L 364.712727 378.522487 
L 368.938182 376.510451 
L 373.163636 374.410935 
L 377.389091 372.223939 
L 381.614545 369.949464 
L 385.84 367.587508 
L 390.065455 365.138073 
L 394.290909 362.601158 
L 398.516364 359.976763 
L 402.741818 357.264888 
L 406.967273 354.465534 
L 411.192727 351.5787 
L 415.418182 348.604385 
L 419.643636 345.542591 
L 423.869091 342.393318 
L 428.094545 339.156564 
L 432.32 335.83233 
L 436.545455 332.420617 
L 440.770909 328.921424 
L 444.996364 325.334751 
L 449.221818 321.660598 
L 453.447273 317.898965 
L 457.672727 314.049853 
L 461.898182 310.113261 
L 466.123636 306.089188 
L 470.349091 301.977636 
L 474.574545 297.778605 
L 478.8 293.492093 
" clip-path="url(#p94571ea9a6)" style="fill: none; stroke: #b22222; stroke-width: 2; stroke-linecap: square"/>
   </g>
   <g id="patch_8">
    <path d="M 60.48 406.013023 
L 60.48 288.133953 
" style="fill: none; stroke: #000000; stroke-width: 0.8; stroke-linejoin: miter; stroke-linecap: square"/>
   </g>
   <g id="patch_9">
    <path d="M 478.8 406.013023 
L 478.8 288.133953 
" style="fill: none; stroke: #000000; stroke-width: 0.8; stroke-linejoin: miter; stroke-linecap: square"/>
   </g>
   <g id="patch_10">
    <path d="M 60.48 406.013023 
L 478.8 406.013023 
" style="fill: none; stroke: #000000; stroke-width: 0.8; stroke-linejoin: miter; stroke-linecap: square"/>
   </g>
   <g id="patch_11">
    <path d="M 60.48 288.133953 
L 478.8 288.133953 
" style="fill: none; stroke: #000000; stroke-width: 0.8; stroke-linejoin: miter; stroke-linecap: square"/>
   </g>
  </g>
  <g id="axes_4">
   <g id="patch_12">
    <path d="M 60.48 535.68 
L 478.8 535.68 
L 478.8 417.80093 
L 60.48 417.80093 
z
" style="fill: #ffffff"/>
   </g>
   <g id="matplotlib.axis_5">
    <g id="xtick_13">
     <g id="line2d_49">
      <g>
       <use xlink:href="#m23641cb256" x="60.48" y="535.68" style="stroke: #000000; stroke-width: 0.8"/>
      </g>
     </g>
     <g id="text_11">
      <!-- 0.0 -->
      <g transform="translate(52.528437 550.278437) scale(0.1 -0.1)">
       <use xlink:href="#DejaVuSans-30"/>
       <use xlink:href="#DejaVuSans-2e" transform="translate(63.623047 0)"/>
       <use xlink:href="#DejaVuSans-30" transform="translate(95.410156 0)"/>
      </g>
     </g>
    </g>
    <g id="xtick_14">
     <g id="line2d_50">
      <g>
       <use xlink:href="#m23641cb256" x="144.144" y="535.68" style="stroke: #000000; stroke-width: 0.8"/>
      </g>
     </g>
     <g id="text_12">
      <!-- 0.2 -->
      <g transform="translate(136.192437 550.278437) scale(0.1 -0.1)">
       <use xlink:href="#DejaVuSans-30"/>
       <use xlink:href="#DejaVuSans-2e" transform="translate(63.623047 0)"/>
       <use xlink:href="#DejaVuSans-32" transform="translate(95.410156 0)"/>
      </g>
     </g>
    </g>
    <g id="xtick_15">
     <g id="line2d_51">
      <g>
       <use xlink:href="#m23641cb256" x="227.808" y="535.68" style="stroke: #000000; stroke-width: 0.8"/>
      </g>
     </g>
     <g id="text_13">
      <!-- 0.4 -->
      <g transform="translate(219.856437 550.278437) scale(0.1 -0.1)">
       <defs>
        <path id="DejaVuSans-34" d="M 2419 4116 
L 825 1625 
L 2419 1625 
L 2419 4116 
z
M 2253 4666 
L 3047 4666 
L 3047 1625 
L 3713 1625 
L 3713 1100 
L 3047 1100 
L 3047 0 
L 2419 0 
L 2419 1100 
L 313 1100 
L 313 1709 
L 2253 4666 
z
" transform="scale(0.015625)"/>
       </defs>
       <use xlink:href="#DejaVuSans-30"/>
       <use xlink:href="#DejaVuSans-2e" transform="translate(63.623047 0)"/>
       <use xlink:href="#DejaVuSans-34" transform="translate(95.410156 0)"/>
      </g>
     </g>
    </g>
    <g id="xtick_16">
     <g id="line2d_52">
      <g>
       <use xlink:href="#m23641cb256" x="311.472" y="535.68" style="stroke: #000000; stroke-width: 0.8"/>
      </g>
     </g>
     <g id="text_14">
      <!-- 0.6 -->
      <g transform="translate(303.520437 550.278437) scale(0.1 -0.1)">
       <defs>
        <path id="DejaVuSans-36" d="M 2113 2584 
Q 1688 2584 1439 2293 
Q 1191 2003 1191 1497 
Q 1191 994 1439 701 
Q 1688 409 2113 409 
Q 2538 409 2786 701 
Q 3034 994 3034 1497 
Q 3034 2003 2786 2293 
Q 2538 2584 2113 2584 
z
M 3366 4563 
L 3366 3988 
Q 3128 4100 2886 4159 
Q 2644 4219 2406 4219 
Q 1781 4219 1451 3797 
Q 1122 3375 1075 2522 
Q 1259 2794 1537 2939 
Q 1816 3084 2150 3084 
Q 2853 3084 3261 2657 
Q 3669 2231 3669 1497 
Q 3669 778 3244 343 
Q 2819 -91 2113 -91 
Q 1303 -91 875 529 
Q 447 1150 447 2328 
Q 447 3434 972 4092 
Q 1497 4750 2381 4750 
Q 2619 4750 2861 4703 
Q 3103 4656 3366 4563 
z
" transform="scale(0.015625)"/>
       </defs>
       <use xlink:href="#DejaVuSans-30"/>
       <use xlink:href="#DejaVuSans-2e" transform="translate(63.623047 0)"/>
       <use xlink:href="#DejaVuSans-36" transform="translate(95.410156 0)"/>
      </g>
     </g>
    </g>
    <g id="xtick_17">
     <g id="line2d_53">
      <g>
       <use xlink:href="#m23641cb256" x="395.136" y="535.68" style="stroke: #000000; stroke-width: 0.8"/>
      </g>
     </g>
     <g id="text_15">
      <!-- 0.8 -->
      <g transform="translate(387.184437 550.278437) scale(0.1 -0.1)">
       <defs>
        <path id="DejaVuSans-38" d="M 2034 2216 
Q 1584 2216 1326 1975 
Q 1069 1734 1069 1313 
Q 1069 891 1326 650 
Q 1584 409 2034 409 
Q 2484 409 2743 651 
Q 3003 894 3003 1313 
Q 3003 1734 2745 1975 
Q 2488 2216 2034 2216 
z
M 1403 2484 
Q 997 2584 770 2862 
Q 544 3141 544 3541 
Q 544 4100 942 4425 
Q 1341 4750 2034 4750 
Q 2731 4750 3128 4425 
Q 3525 4100 3525 3541 
Q 3525 3141 3298 2862 
Q 3072 2584 2669 2484 
Q 3125 2378 3379 2068 
Q 3634 1759 3634 1313 
Q 3634 634 3220 271 
Q 2806 -91 2034 -91 
Q 1263 -91 848 271 
Q 434 634 434 1313 
Q 434 1759 690 2068 
Q 947 2378 1403 2484 
z
M 1172 3481 
Q 1172 3119 1398 2916 
Q 1625 2713 2034 2713 
Q 2441 2713 2670 2916 
Q 2900 3119 2900 3481 
Q 2900 3844 2670 4047 
Q 2441 4250 2034 4250 
Q 1625 4250 1398 4047 
Q 1172 3844 1172 3481 
z
" transform="scale(0.015625)"/>
       </defs>
       <use xlink:href="#DejaVuSans-30"/>
       <use xlink:href="#DejaVuSans-2e" transform="translate(63.623047 0)"/>
       <use xlink:href="#DejaVuSans-38" transform="translate(95.410156 0)"/>
      </g>
     </g>
    </g>
    <g id="xtick_18">
     <g id="line2d_54">
      <g>
       <use xlink:href="#m23641cb256" x="478.8" y="535.68" style="stroke: #000000; stroke-width: 0.8"/>
      </g>
     </g>
     <g id="text_16">
      <!-- 1.0 -->
      <g transform="translate(470.848437 550.278437) scale(0.1 -0.1)">
       <use xlink:href="#DejaVuSans-31"/>
       <use xlink:href="#DejaVuSans-2e" transform="translate(63.623047 0)"/>
       <use xlink:href="#DejaVuSans-30" transform="translate(95.410156 0)"/>
      </g>
     </g>
    </g>
    <g id="text_17">
     <!-- Coordinate, $x$ -->
     <g transform="translate(235.99 563.956563) scale(0.1 -0.1)">
      <defs>
       <path id="DejaVuSans-43" d="M 4122 4306 
L 4122 3641 
Q 3803 3938 3442 4084 
Q 3081 4231 2675 4231 
Q 1875 4231 1450 3742 
Q 1025 3253 1025 2328 
Q 1025 1406 1450 917 
Q 1875 428 2675 428 
Q 3081 428 3442 575 
Q 3803 722 4122 1019 
L 4122 359 
Q 3791 134 3420 21 
Q 3050 -91 2638 -91 
Q 1578 -91 968 557 
Q 359 1206 359 2328 
Q 359 3453 968 4101 
Q 1578 4750 2638 4750 
Q 3056 4750 3426 4639 
Q 3797 4528 4122 4306 
z
" transform="scale(0.015625)"/>
      </defs>
      <use xlink:href="#DejaVuSans-43" transform="translate(0 0.015625)"/>
      <use xlink:href="#DejaVuSans-6f" transform="translate(69.824219 0.015625)"/>
      <use xlink:href="#DejaVuSans-6f" transform="translate(131.005859 0.015625)"/>
      <use xlink:href="#DejaVuSans-72" transform="translate(192.1875 0.015625)"/>
      <use xlink:href="#DejaVuSans-64" transform="translate(233.300781 0.015625)"/>
      <use xlink:href="#DejaVuSans-69" transform="translate(296.777344 0.015625)"/>
      <use xlink:href="#DejaVuSans-6e" transform="translate(324.560547 0.015625)"/>
      <use xlink:href="#DejaVuSans-61" transform="translate(387.939453 0.015625)"/>
      <use xlink:href="#DejaVuSans-74" transform="translate(449.21875 0.015625)"/>
      <use xlink:href="#DejaVuSans-65" transform="translate(488.427734 0.015625)"/>
      <use xlink:href="#DejaVuSans-2c" transform="translate(549.951172 0.015625)"/>
      <use xlink:href="#DejaVuSans-20" transform="translate(581.738281 0.015625)"/>
      <use xlink:href="#DejaVuSans-Oblique-78" transform="translate(613.525391 0.015625)"/>
     </g>
    </g>
   </g>
   <g id="matplotlib.axis_6">
    <g id="ytick_9">
     <g id="line2d_55">
      <g>
       <use xlink:href="#ma7ccb0c5b2" x="60.48" y="530.32186" style="stroke: #000000; stroke-width: 0.8"/>
      </g>
     </g>
     <g id="text_18">
      <!-- 0.0 -->
      <g transform="translate(37.576875 534.121079) scale(0.1 -0.1)">
       <use xlink:href="#DejaVuSans-30"/>
       <use xlink:href="#DejaVuSans-2e" transform="translate(63.623047 0)"/>
       <use xlink:href="#DejaVuSans-30" transform="translate(95.410156 0)"/>
      </g>
     </g>
    </g>
    <g id="ytick_10">
     <g id="line2d_56">
      <g>
       <use xlink:href="#ma7ccb0c5b2" x="60.48" y="488.259906" style="stroke: #000000; stroke-width: 0.8"/>
      </g>
     </g>
     <g id="text_19">
      <!-- 0.2 -->
      <g transform="translate(37.576875 492.059125) scale(0.1 -0.1)">
       <use xlink:href="#DejaVuSans-30"/>
       <use xlink:href="#DejaVuSans-2e" transform="translate(63.623047 0)"/>
       <use xlink:href="#DejaVuSans-32" transform="translate(95.410156 0)"/>
      </g>
     </g>
    </g>
    <g id="ytick_11">
     <g id="line2d_57">
      <g>
       <use xlink:href="#ma7ccb0c5b2" x="60.48" y="446.197952" style="stroke: #000000; stroke-width: 0.8"/>
      </g>
     </g>
     <g id="text_20">
      <!-- 0.4 -->
      <g transform="translate(37.576875 449.997171) scale(0.1 -0.1)">
       <use xlink:href="#DejaVuSans-30"/>
       <use xlink:href="#DejaVuSans-2e" transform="translate(63.623047 0)"/>
       <use xlink:href="#DejaVuSans-34" transform="translate(95.410156 0)"/>
      </g>
     </g>
    </g>
    <g id="text_21">
     <!-- Deflection, $v(x)$ -->
     <g transform="translate(31.497187 515.240465) rotate(-90) scale(0.1 -0.1)">
      <defs>
       <path id="DejaVuSans-44" d="M 1259 4147 
L 1259 519 
L 2022 519 
Q 2988 519 3436 956 
Q 3884 1394 3884 2338 
Q 3884 3275 3436 3711 
Q 2988 4147 2022 4147 
L 1259 4147 
z
M 628 4666 
L 1925 4666 
Q 3281 4666 3915 4102 
Q 4550 3538 4550 2338 
Q 4550 1131 3912 565 
Q 3275 0 1925 0 
L 628 0 
L 628 4666 
z
" transform="scale(0.015625)"/>
       <path id="DejaVuSans-6c" d="M 603 4863 
L 1178 4863 
L 1178 0 
L 603 0 
L 603 4863 
z
" transform="scale(0.015625)"/>
       <path id="DejaVuSans-Oblique-76" d="M 459 3500 
L 1069 3500 
L 1581 525 
L 3256 3500 
L 3866 3500 
L 1875 0 
L 1100 0 
L 459 3500 
z
" transform="scale(0.015625)"/>
      </defs>
      <use xlink:href="#DejaVuSans-44" transform="translate(0 0.015625)"/>
      <use xlink:href="#DejaVuSans-65" transform="translate(77.001953 0.015625)"/>
      <use xlink:href="#DejaVuSans-66" transform="translate(138.525391 0.015625)"/>
      <use xlink:href="#DejaVuSans-6c" transform="translate(173.730469 0.015625)"/>
      <use xlink:href="#DejaVuSans-65" transform="translate(201.513672 0.015625)"/>
      <use xlink:href="#DejaVuSans-63" transform="translate(263.037109 0.015625)"/>
      <use xlink:href="#DejaVuSans-74" transform="translate(318.017578 0.015625)"/>
      <use xlink:href="#DejaVuSans-69" transform="translate(357.226562 0.015625)"/>
      <use xlink:href="#DejaVuSans-6f" transform="translate(385.009766 0.015625)"/>
      <use xlink:href="#DejaVuSans-6e" transform="translate(446.191406 0.015625)"/>
      <use xlink:href="#DejaVuSans-2c" transform="translate(509.570312 0.015625)"/>
      <use xlink:href="#DejaVuSans-20" transform="translate(541.357422 0.015625)"/>
      <use xlink:href="#DejaVuSans-Oblique-76" transform="translate(573.144531 0.015625)"/>
      <use xlink:href="#DejaVuSans-28" transform="translate(632.324219 0.015625)"/>
      <use xlink:href="#DejaVuSans-Oblique-78" transform="translate(671.337891 0.015625)"/>
      <use xlink:href="#DejaVuSans-29" transform="translate(730.517578 0.015625)"/>
     </g>
    </g>
   </g>
   <g id="line2d_58">
    <path d="M 60.48 425.166975 
L 64.705455 425.107686 
L 68.930909 425.047907 
L 73.156364 424.987745 
L 77.381818 424.927301 
L 81.607273 424.866678 
L 85.832727 424.805973 
L 90.058182 424.745282 
L 94.283636 424.6847 
L 98.509091 424.624319 
L 102.734545 424.564228 
L 106.96 424.504515 
L 111.185455 424.445266 
L 115.410909 424.386563 
L 119.636364 424.328488 
L 123.861818 424.271119 
L 128.087273 424.214533 
L 132.312727 424.158805 
L 136.538182 424.104007 
L 140.763636 424.050208 
L 144.989091 423.997477 
L 149.214545 423.94588 
L 153.44 423.895479 
L 157.665455 423.846336 
L 161.890909 423.798511 
L 166.116364 423.75206 
L 170.341818 423.707038 
L 174.567273 423.663497 
L 178.792727 423.621488 
L 183.018182 423.581059 
L 187.243636 423.542257 
L 191.469091 423.505123 
L 195.694545 423.469702 
L 199.92 423.436031 
L 204.145455 423.404148 
L 208.370909 423.374088 
L 212.596364 423.345883 
L 216.821818 423.319566 
L 221.047273 423.295163 
L 225.272727 423.272702 
L 229.498182 423.252205 
L 233.723636 423.233697 
L 237.949091 423.217195 
L 242.174545 423.202717 
L 246.4 423.190279 
L 250.625455 423.179894 
L 254.850909 423.171573 
L 259.076364 423.165325 
L 263.301818 423.161156 
L 267.527273 423.15907 
L 271.752727 423.15907 
L 275.978182 423.161156 
L 280.203636 423.165325 
L 284.429091 423.171573 
L 288.654545 423.179894 
L 292.88 423.190279 
L 297.105455 423.202717 
L 301.330909 423.217195 
L 305.556364 423.233697 
L 309.781818 423.252205 
L 314.007273 423.272702 
L 318.232727 423.295163 
L 322.458182 423.319566 
L 326.683636 423.345883 
L 330.909091 423.374088 
L 335.134545 423.404148 
L 339.36 423.436031 
L 343.585455 423.469702 
L 347.810909 423.505123 
L 352.036364 423.542257 
L 356.261818 423.581059 
L 360.487273 423.621488 
L 364.712727 423.663497 
L 368.938182 423.707038 
L 373.163636 423.75206 
L 377.389091 423.798511 
L 381.614545 423.846336 
L 385.84 423.895479 
L 390.065455 423.94588 
L 394.290909 423.997477 
L 398.516364 424.050208 
L 402.741818 424.104007 
L 406.967273 424.158805 
L 411.192727 424.214533 
L 415.418182 424.271119 
L 419.643636 424.328488 
L 423.869091 424.386563 
L 428.094545 424.445266 
L 432.32 424.504515 
L 436.545455 424.564228 
L 440.770909 424.624319 
L 444.996364 424.6847 
L 449.221818 424.745282 
L 453.447273 424.805973 
L 457.672727 424.866678 
L 461.898182 424.927301 
L 466.123636 424.987745 
L 470.349091 425.047907 
L 474.574545 425.107686 
L 478.8 425.166975 
" clip-path="url(#pd358a92731)" style="fill: none; stroke: #000000; stroke-width: 3; stroke-linecap: square"/>
   </g>
   <g id="line2d_59">
    <path d="M 60.48 530.32186 
L 478.8 530.32186 
" clip-path="url(#pd358a92731)" style="fill: none; stroke-dasharray: 5.55,2.4; stroke-dashoffset: 0; stroke: #000000; stroke-width: 1.5"/>
   </g>
   <g id="patch_13">
    <path d="M 60.48 535.68 
L 60.48 417.80093 
" style="fill: none; stroke: #000000; stroke-width: 0.8; stroke-linejoin: miter; stroke-linecap: square"/>
   </g>
   <g id="patch_14">
    <path d="M 478.8 535.68 
L 478.8 417.80093 
" style="fill: none; stroke: #000000; stroke-width: 0.8; stroke-linejoin: miter; stroke-linecap: square"/>
   </g>
   <g id="patch_15">
    <path d="M 60.48 535.68 
L 478.8 535.68 
" style="fill: none; stroke: #000000; stroke-width: 0.8; stroke-linejoin: miter; stroke-linecap: square"/>
   </g>
   <g id="patch_16">
    <path d="M 60.48 417.80093 
L 478.8 417.80093 
" style="fill: none; stroke: #000000; stroke-width: 0.8; stroke-linejoin: miter; stroke-linecap: square"/>
   </g>
  </g>
 </g>
 <defs>
  <clipPath id="p81a3c0fbb6">
   <rect x="60.48" y="28.8" width="418.32" height="117.87907"/>
  </clipPath>
  <clipPath id="pe5516a0fd5">
   <rect x="60.48" y="158.466977" width="418.32" height="117.87907"/>
  </clipPath>
  <clipPath id="p94571ea9a6">
   <rect x="60.48" y="288.133953" width="418.32" height="117.87907"/>
  </clipPath>
  <clipPath id="pd358a92731">
   <rect x="60.48" y="417.80093" width="418.32" height="117.87907"/>
  </clipPath>
 </defs>
</svg>
