<?xml version="1.0" encoding="utf-8" standalone="no"?>
<!DOCTYPE svg PUBLIC "-//W3C//DTD SVG 1.1//EN"
  "http://www.w3.org/Graphics/SVG/1.1/DTD/svg11.dtd">
<svg xmlns:xlink="http://www.w3.org/1999/xlink" width="504pt" height="576pt" viewBox="0 0 504 576" xmlns="http://www.w3.org/2000/svg" version="1.1">
 <metadata>
  <rdf:RDF xmlns:dc="http://purl.org/dc/elements/1.1/" xmlns:cc="http://creativecommons.org/ns#" xmlns:rdf="http://www.w3.org/1999/02/22-rdf-syntax-ns#">
   <cc:Work>
    <dc:type rdf:resource="http://purl.org/dc/dcmitype/StillImage"/>
    <dc:date>2026-01-17T12:48:13.797234</dc:date>
    <dc:format>image/svg+xml</dc:format>
    <dc:creator>
     <cc:Agent>
      <dc:title>Matplotlib v3.10.8, https://matplotlib.org/</dc:title>
     </cc:Agent>
    </dc:creator>
   </cc:Work>
  </rdf:RDF>
 </metadata>
 <defs>
  <style type="text/css">*{stroke-linejoin: round; stroke-linecap: butt}</style>
 </defs>
 <g id="figure_1">
  <g id="patch_1">
   <path d="M 0 576 
L 504 576 
L 504 0 
L 0 0 
z
" style="fill: #ffffff"/>
  </g>
  <g id="axes_1">
   <g id="FillBetweenPolyCollection_1">
    <defs>
     <path id="mb74af178c3" d="M 60.48 -488.260465 
L 60.48 -488.260465 
L 64.705455 -488.260465 
L 68.930909 -488.260465 
L 73.156364 -488.260465 
L 77.381818 -488.260465 
L 81.607273 -488.260465 
L 85.832727 -488.260465 
L 90.058182 -488.260465 
L 94.283636 -488.260465 
L 98.509091 -488.260465 
L 102.734545 -488.260465 
L 106.96 -488.260465 
L 111.185455 -488.260465 
L 115.410909 -488.260465 
L 119.636364 -488.260465 
L 123.861818 -488.260465 
L 128.087273 -488.260465 
L 132.312727 -488.260465 
L 136.538182 -488.260465 
L 140.763636 -488.260465 
L 144.989091 -488.260465 
L 149.214545 -488.260465 
L 153.44 -488.260465 
L 157.665455 -488.260465 
L 161.890909 -488.260465 
L 166.116364 -488.260465 
L 170.341818 -488.260465 
L 174.567273 -488.260465 
L 178.792727 -488.260465 
L 183.018182 -488.260465 
L 187.243636 -488.260465 
L 191.469091 -488.260465 
L 195.694545 -488.260465 
L 199.92 -488.260465 
L 204.145455 -488.260465 
L 208.370909 -488.260465 
L 212.596364 -488.260465 
L 216.821818 -488.260465 
L 221.047273 -488.260465 
L 225.272727 -488.260465 
L 229.498182 -488.260465 
L 233.723636 -488.260465 
L 237.949091 -488.260465 
L 242.174545 -488.260465 
L 246.4 -488.260465 
L 250.625455 -488.260465 
L 254.850909 -488.260465 
L 259.076364 -488.260465 
L 263.301818 -488.260465 
L 267.527273 -488.260465 
L 271.752727 -488.260465 
L 275.978182 -488.260465 
L 280.203636 -488.260465 
L 284.429091 -488.260465 
L 288.654545 -488.260465 
L 292.88 -488.260465 
L 297.105455 -488.260465 
L 301.330909 -488.260465 
L 305.556364 -488.260465 
L 309.781818 -488.260465 
L 314.007273 -488.260465 
L 318.232727 -488.260465 
L 322.458182 -488.260465 
L 326.683636 -488.260465 
L 330.909091 -488.260465 
L 335.134545 -488.260465 
L 339.36 -488.260465 
L 343.585455 -488.260465 
L 347.810909 -488.260465 
L 352.036364 -488.260465 
L 356.261818 -488.260465 
L 360.487273 -488.260465 
L 364.712727 -488.260465 
L 368.938182 -488.260465 
L 373.163636 -488.260465 
L 377.389091 -488.260465 
L 381.614545 -488.260465 
L 385.84 -488.260465 
L 390.065455 -488.260465 
L 394.290909 -488.260465 
L 398.516364 -488.260465 
L 402.741818 -488.260465 
L 406.967273 -488.260465 
L 411.192727 -488.260465 
L 415.418182 -488.260465 
L 419.643636 -488.260465 
L 423.869091 -488.260465 
L 428.094545 -488.260465 
L 432.32 -488.260465 
L 436.545455 -488.260465 
L 440.770909 -488.260465 
L 444.996364 -488.260465 
L 449.221818 -488.260465 
L 453.447273 -488.260465 
L 457.672727 -488.260465 
L 461.898182 -488.260465 
L 466.123636 -488.260465 
L 470.349091 -488.260465 
L 474.574545 -488.260465 
L 478.8 -488.260465 
L 478.8 -488.260465 
L 478.8 -488.260465 
L 474.574545 -488.260465 
L 470.349091 -488.260465 
L 466.123636 -488.260465 
L 461.898182 -488.260465 
L 457.672727 -488.260465 
L 453.447273 -488.260465 
L 449.221818 -488.260465 
L 444.996364 -488.260465 
L 440.770909 -488.260465 
L 436.545455 -488.260465 
L 432.32 -488.260465 
L 428.094545 -488.260465 
L 423.869091 -488.260465 
L 419.643636 -488.260465 
L 415.418182 -488.260465 
L 411.192727 -488.260465 
L 406.967273 -488.260465 
L 402.741818 -488.260465 
L 398.516364 -488.260465 
L 394.290909 -488.260465 
L 390.065455 -488.260465 
L 385.84 -488.260465 
L 381.614545 -488.260465 
L 377.389091 -488.260465 
L 373.163636 -488.260465 
L 368.938182 -488.260465 
L 364.712727 -488.260465 
L 360.487273 -488.260465 
L 356.261818 -488.260465 
L 352.036364 -488.260465 
L 347.810909 -488.260465 
L 343.585455 -488.260465 
L 339.36 -488.260465 
L 335.134545 -488.260465 
L 330.909091 -488.260465 
L 326.683636 -488.260465 
L 322.458182 -488.260465 
L 318.232727 -488.260465 
L 314.007273 -488.260465 
L 309.781818 -488.260465 
L 305.556364 -488.260465 
L 301.330909 -488.260465 
L 297.105455 -488.260465 
L 292.88 -488.260465 
L 288.654545 -488.260465 
L 284.429091 -488.260465 
L 280.203636 -488.260465 
L 275.978182 -488.260465 
L 271.752727 -488.260465 
L 267.527273 -488.260465 
L 263.301818 -488.260465 
L 259.076364 -488.260465 
L 254.850909 -488.260465 
L 250.625455 -488.260465 
L 246.4 -488.260465 
L 242.174545 -488.260465 
L 237.949091 -488.260465 
L 233.723636 -488.260465 
L 229.498182 -488.260465 
L 225.272727 -488.260465 
L 221.047273 -488.260465 
L 216.821818 -488.260465 
L 212.596364 -488.260465 
L 208.370909 -488.260465 
L 204.145455 -488.260465 
L 199.92 -488.260465 
L 195.694545 -488.260465 
L 191.469091 -488.260465 
L 187.243636 -488.260465 
L 183.018182 -488.260465 
L 178.792727 -488.260465 
L 174.567273 -488.260465 
L 170.341818 -488.260465 
L 166.116364 -488.260465 
L 161.890909 -488.260465 
L 157.665455 -488.260465 
L 153.44 -488.260465 
L 149.214545 -488.260465 
L 144.989091 -488.260465 
L 140.763636 -488.260465 
L 136.538182 -488.260465 
L 132.312727 -488.260465 
L 128.087273 -488.260465 
L 123.861818 -488.260465 
L 119.636364 -488.260465 
L 115.410909 -488.260465 
L 111.185455 -488.260465 
L 106.96 -488.260465 
L 102.734545 -488.260465 
L 98.509091 -488.260465 
L 94.283636 -488.260465 
L 90.058182 -488.260465 
L 85.832727 -488.260465 
L 81.607273 -488.260465 
L 77.381818 -488.260465 
L 73.156364 -488.260465 
L 68.930909 -488.260465 
L 64.705455 -488.260465 
L 60.48 -488.260465 
z
" style="stroke: #4169e1; stroke-opacity: 0.35; stroke-width: 2"/>
    </defs>
    <g clip-path="url(#p34aafcf7f1)">
     <use xlink:href="#mb74af178c3" x="0" y="576" style="fill: #4169e1; fill-opacity: 0.35; stroke: #4169e1; stroke-opacity: 0.35; stroke-width: 2"/>
    </g>
   </g>
   <g id="patch_2">
    <path d="M 478.8 87.739535 
L 475.87176 79.488 
L 478.38168 79.488 
L 478.38168 34.693953 
L 479.21832 34.693953 
L 479.21832 79.488 
L 481.72824 79.488 
z
" style="fill: #2e8b57; stroke: #2e8b57; stroke-linejoin: miter"/>
   </g>
   <g id="line2d_1">
    <path d="M 60.48 87.739535 
L 64.705455 87.739535 
L 68.930909 87.739535 
L 73.156364 87.739535 
L 77.381818 87.739535 
L 81.607273 87.739535 
L 85.832727 87.739535 
L 90.058182 87.739535 
L 94.283636 87.739535 
L 98.509091 87.739535 
L 102.734545 87.739535 
L 106.96 87.739535 
L 111.185455 87.739535 
L 115.410909 87.739535 
L 119.636364 87.739535 
L 123.861818 87.739535 
L 128.087273 87.739535 
L 132.312727 87.739535 
L 136.538182 87.739535 
L 140.763636 87.739535 
L 144.989091 87.739535 
L 149.214545 87.739535 
L 153.44 87.739535 
L 157.665455 87.739535 
L 161.890909 87.739535 
L 166.116364 87.739535 
L 170.341818 87.739535 
L 174.567273 87.739535 
L 178.792727 87.739535 
L 183.018182 87.739535 
L 187.243636 87.739535 
L 191.469091 87.739535 
L 195.694545 87.739535 
L 199.92 87.739535 
L 204.145455 87.739535 
L 208.370909 87.739535 
L 212.596364 87.739535 
L 216.821818 87.739535 
L 221.047273 87.739535 
L 225.272727 87.739535 
L 229.498182 87.739535 
L 233.723636 87.739535 
L 237.949091 87.739535 
L 242.174545 87.739535 
L 246.4 87.739535 
L 250.625455 87.739535 
L 254.850909 87.739535 
L 259.076364 87.739535 
L 263.301818 87.739535 
L 267.527273 87.739535 
L 271.752727 87.739535 
L 275.978182 87.739535 
L 280.203636 87.739535 
L 284.429091 87.739535 
L 288.654545 87.739535 
L 292.88 87.739535 
L 297.105455 87.739535 
L 301.330909 87.739535 
L 305.556364 87.739535 
L 309.781818 87.739535 
L 314.007273 87.739535 
L 318.232727 87.739535 
L 322.458182 87.739535 
L 326.683636 87.739535 
L 330.909091 87.739535 
L 335.134545 87.739535 
L 339.36 87.739535 
L 343.585455 87.739535 
L 347.810909 87.739535 
L 352.036364 87.739535 
L 356.261818 87.739535 
L 360.487273 87.739535 
L 364.712727 87.739535 
L 368.938182 87.739535 
L 373.163636 87.739535 
L 377.389091 87.739535 
L 381.614545 87.739535 
L 385.84 87.739535 
L 390.065455 87.739535 
L 394.290909 87.739535 
L 398.516364 87.739535 
L 402.741818 87.739535 
L 406.967273 87.739535 
L 411.192727 87.739535 
L 415.418182 87.739535 
L 419.643636 87.739535 
L 423.869091 87.739535 
L 428.094545 87.739535 
L 432.32 87.739535 
L 436.545455 87.739535 
L 440.770909 87.739535 
L 444.996364 87.739535 
L 449.221818 87.739535 
L 453.447273 87.739535 
L 457.672727 87.739535 
L 461.898182 87.739535 
L 466.123636 87.739535 
L 470.349091 87.739535 
L 474.574545 87.739535 
L 478.8 87.739535 
" clip-path="url(#p34aafcf7f1)" style="fill: none; stroke: #4169e1; stroke-width: 2; stroke-linecap: square"/>
   </g>
   <g id="line2d_2">
    <path d="M 60.48 87.739535 
L 478.8 87.739535 
" clip-path="url(#p34aafcf7f1)" style="fill: none; stroke: #000000; stroke-width: 3; stroke-linecap: square"/>
   </g>
   <g id="line2d_3">
    <path d="M 57.6912 95.344636 
L 57.6912 80.134434 
" style="fill: none; stroke: #c0c0c0; stroke-width: 5"/>
   </g>
   <g id="line2d_4">
    <path d="M 60.48 95.344636 
L 60.48 80.134434 
" style="fill: none; stroke: #000000; stroke-width: 1.5"/>
   </g>
  </g>
  <g id="axes_2">
   <g id="patch_3">
    <path d="M 60.48 276.346047 
L 478.8 276.346047 
L 478.8 158.466977 
L 60.48 158.466977 
z
" style="fill: #ffffff"/>
   </g>
   <g id="FillBetweenPolyCollection_2">
    <defs>
     <path id="m056b7d0ccf" d="M 60.48 -412.174884 
L 60.48 -305.012093 
L 64.705455 -305.012093 
L 68.930909 -305.012093 
L 73.156364 -305.012093 
L 77.381818 -305.012093 
L 81.607273 -305.012093 
L 85.832727 -305.012093 
L 90.058182 -305.012093 
L 94.283636 -305.012093 
L 98.509091 -305.012093 
L 102.734545 -305.012093 
L 106.96 -305.012093 
L 111.185455 -305.012093 
L 115.410909 -305.012093 
L 119.636364 -305.012093 
L 123.861818 -305.012093 
L 128.087273 -305.012093 
L 132.312727 -305.012093 
L 136.538182 -305.012093 
L 140.763636 -305.012093 
L 144.989091 -305.012093 
L 149.214545 -305.012093 
L 153.44 -305.012093 
L 157.665455 -305.012093 
L 161.890909 -305.012093 
L 166.116364 -305.012093 
L 170.341818 -305.012093 
L 174.567273 -305.012093 
L 178.792727 -305.012093 
L 183.018182 -305.012093 
L 187.243636 -305.012093 
L 191.469091 -305.012093 
L 195.694545 -305.012093 
L 199.92 -305.012093 
L 204.145455 -305.012093 
L 208.370909 -305.012093 
L 212.596364 -305.012093 
L 216.821818 -305.012093 
L 221.047273 -305.012093 
L 225.272727 -305.012093 
L 229.498182 -305.012093 
L 233.723636 -305.012093 
L 237.949091 -305.012093 
L 242.174545 -305.012093 
L 246.4 -305.012093 
L 250.625455 -305.012093 
L 254.850909 -305.012093 
L 259.076364 -305.012093 
L 263.301818 -305.012093 
L 267.527273 -305.012093 
L 271.752727 -305.012093 
L 275.978182 -305.012093 
L 280.203636 -305.012093 
L 284.429091 -305.012093 
L 288.654545 -305.012093 
L 292.88 -305.012093 
L 297.105455 -305.012093 
L 301.330909 -305.012093 
L 305.556364 -305.012093 
L 309.781818 -305.012093 
L 314.007273 -305.012093 
L 318.232727 -305.012093 
L 322.458182 -305.012093 
L 326.683636 -305.012093 
L 330.909091 -305.012093 
L 335.134545 -305.012093 
L 339.36 -305.012093 
L 343.585455 -305.012093 
L 347.810909 -305.012093 
L 352.036364 -305.012093 
L 356.261818 -305.012093 
L 360.487273 -305.012093 
L 364.712727 -305.012093 
L 368.938182 -305.012093 
L 373.163636 -305.012093 
L 377.389091 -305.012093 
L 381.614545 -305.012093 
L 385.84 -305.012093 
L 390.065455 -305.012093 
L 394.290909 -305.012093 
L 398.516364 -305.012093 
L 402.741818 -305.012093 
L 406.967273 -305.012093 
L 411.192727 -305.012093 
L 415.418182 -305.012093 
L 419.643636 -305.012093 
L 423.869091 -305.012093 
L 428.094545 -305.012093 
L 432.32 -305.012093 
L 436.545455 -305.012093 
L 440.770909 -305.012093 
L 444.996364 -305.012093 
L 449.221818 -305.012093 
L 453.447273 -305.012093 
L 457.672727 -305.012093 
L 461.898182 -305.012093 
L 466.123636 -305.012093 
L 470.349091 -305.012093 
L 474.574545 -305.012093 
L 478.8 -305.012093 
L 478.8 -412.174884 
L 478.8 -412.174884 
L 474.574545 -412.174884 
L 470.349091 -412.174884 
L 466.123636 -412.174884 
L 461.898182 -412.174884 
L 457.672727 -412.174884 
L 453.447273 -412.174884 
L 449.221818 -412.174884 
L 444.996364 -412.174884 
L 440.770909 -412.174884 
L 436.545455 -412.174884 
L 432.32 -412.174884 
L 428.094545 -412.174884 
L 423.869091 -412.174884 
L 419.643636 -412.174884 
L 415.418182 -412.174884 
L 411.192727 -412.174884 
L 406.967273 -412.174884 
L 402.741818 -412.174884 
L 398.516364 -412.174884 
L 394.290909 -412.174884 
L 390.065455 -412.174884 
L 385.84 -412.174884 
L 381.614545 -412.174884 
L 377.389091 -412.174884 
L 373.163636 -412.174884 
L 368.938182 -412.174884 
L 364.712727 -412.174884 
L 360.487273 -412.174884 
L 356.261818 -412.174884 
L 352.036364 -412.174884 
L 347.810909 -412.174884 
L 343.585455 -412.174884 
L 339.36 -412.174884 
L 335.134545 -412.174884 
L 330.909091 -412.174884 
L 326.683636 -412.174884 
L 322.458182 -412.174884 
L 318.232727 -412.174884 
L 314.007273 -412.174884 
L 309.781818 -412.174884 
L 305.556364 -412.174884 
L 301.330909 -412.174884 
L 297.105455 -412.174884 
L 292.88 -412.174884 
L 288.654545 -412.174884 
L 284.429091 -412.174884 
L 280.203636 -412.174884 
L 275.978182 -412.174884 
L 271.752727 -412.174884 
L 267.527273 -412.174884 
L 263.301818 -412.174884 
L 259.076364 -412.174884 
L 254.850909 -412.174884 
L 250.625455 -412.174884 
L 246.4 -412.174884 
L 242.174545 -412.174884 
L 237.949091 -412.174884 
L 233.723636 -412.174884 
L 229.498182 -412.174884 
L 225.272727 -412.174884 
L 221.047273 -412.174884 
L 216.821818 -412.174884 
L 212.596364 -412.174884 
L 208.370909 -412.174884 
L 204.145455 -412.174884 
L 199.92 -412.174884 
L 195.694545 -412.174884 
L 191.469091 -412.174884 
L 187.243636 -412.174884 
L 183.018182 -412.174884 
L 178.792727 -412.174884 
L 174.567273 -412.174884 
L 170.341818 -412.174884 
L 166.116364 -412.174884 
L 161.890909 -412.174884 
L 157.665455 -412.174884 
L 153.44 -412.174884 
L 149.214545 -412.174884 
L 144.989091 -412.174884 
L 140.763636 -412.174884 
L 136.538182 -412.174884 
L 132.312727 -412.174884 
L 128.087273 -412.174884 
L 123.861818 -412.174884 
L 119.636364 -412.174884 
L 115.410909 -412.174884 
L 111.185455 -412.174884 
L 106.96 -412.174884 
L 102.734545 -412.174884 
L 98.509091 -412.174884 
L 94.283636 -412.174884 
L 90.058182 -412.174884 
L 85.832727 -412.174884 
L 81.607273 -412.174884 
L 77.381818 -412.174884 
L 73.156364 -412.174884 
L 68.930909 -412.174884 
L 64.705455 -412.174884 
L 60.48 -412.174884 
z
" style="stroke: #228b22; stroke-opacity: 0.35"/>
    </defs>
    <g clip-path="url(#p1ce6058599)">
     <use xlink:href="#m056b7d0ccf" x="0" y="576" style="fill: #228b22; fill-opacity: 0.35; stroke: #228b22; stroke-opacity: 0.35"/>
    </g>
   </g>
   <g id="matplotlib.axis_1">
    <g id="xtick_1">
     <g id="line2d_5">
      <defs>
       <path id="mf1a03cb508" d="M 0 0 
L 0 3.5 
" style="stroke: #000000; stroke-width: 0.8"/>
      </defs>
      <g>
       <use xlink:href="#mf1a03cb508" x="60.48" y="276.346047" style="stroke: #000000; stroke-width: 0.8"/>
      </g>
     </g>
    </g>
    <g id="xtick_2">
     <g id="line2d_6">
      <g>
       <use xlink:href="#mf1a03cb508" x="144.144" y="276.346047" style="stroke: #000000; stroke-width: 0.8"/>
      </g>
     </g>
    </g>
    <g id="xtick_3">
     <g id="line2d_7">
      <g>
       <use xlink:href="#mf1a03cb508" x="227.808" y="276.346047" style="stroke: #000000; stroke-width: 0.8"/>
      </g>
     </g>
    </g>
    <g id="xtick_4">
     <g id="line2d_8">
      <g>
       <use xlink:href="#mf1a03cb508" x="311.472" y="276.346047" style="stroke: #000000; stroke-width: 0.8"/>
      </g>
     </g>
    </g>
    <g id="xtick_5">
     <g id="line2d_9">
      <g>
       <use xlink:href="#mf1a03cb508" x="395.136" y="276.346047" style="stroke: #000000; stroke-width: 0.8"/>
      </g>
     </g>
    </g>
    <g id="xtick_6">
     <g id="line2d_10">
      <g>
       <use xlink:href="#mf1a03cb508" x="478.8" y="276.346047" style="stroke: #000000; stroke-width: 0.8"/>
      </g>
     </g>
    </g>
   </g>
   <g id="matplotlib.axis_2">
    <g id="ytick_1">
     <g id="line2d_11">
      <defs>
       <path id="m804bf541f2" d="M 0 0 
L -3.5 0 
" style="stroke: #000000; stroke-width: 0.8"/>
      </defs>
      <g>
       <use xlink:href="#m804bf541f2" x="60.48" y="270.987907" style="stroke: #000000; stroke-width: 0.8"/>
      </g>
     </g>
     <g id="text_1">
      <!-- -1e+00 -->
      <g transform="translate(16.251875 274.787126) scale(0.1 -0.1)">
       <defs>
        <path id="DejaVuSans-2d" d="M 313 2009 
L 1997 2009 
L 1997 1497 
L 313 1497 
L 313 2009 
z
" transform="scale(0.015625)"/>
        <path id="DejaVuSans-31" d="M 794 531 
L 1825 531 
L 1825 4091 
L 703 3866 
L 703 4441 
L 1819 4666 
L 2450 4666 
L 2450 531 
L 3481 531 
L 3481 0 
L 794 0 
L 794 531 
z
" transform="scale(0.015625)"/>
        <path id="DejaVuSans-65" d="M 3597 1894 
L 3597 1613 
L 953 1613 
Q 991 1019 1311 708 
Q 1631 397 2203 397 
Q 2534 397 2845 478 
Q 3156 559 3463 722 
L 3463 178 
Q 3153 47 2828 -22 
Q 2503 -91 2169 -91 
Q 1331 -91 842 396 
Q 353 884 353 1716 
Q 353 2575 817 3079 
Q 1281 3584 2069 3584 
Q 2775 3584 3186 3129 
Q 3597 2675 3597 1894 
z
M 3022 2063 
Q 3016 2534 2758 2815 
Q 2500 3097 2075 3097 
Q 1594 3097 1305 2825 
Q 1016 2553 972 2059 
L 3022 2063 
z
" transform="scale(0.015625)"/>
        <path id="DejaVuSans-2b" d="M 2944 4013 
L 2944 2272 
L 4684 2272 
L 4684 1741 
L 2944 1741 
L 2944 0 
L 2419 0 
L 2419 1741 
L 678 1741 
L 678 2272 
L 2419 2272 
L 2419 4013 
L 2944 4013 
z
" transform="scale(0.015625)"/>
        <path id="DejaVuSans-30" d="M 2034 4250 
Q 1547 4250 1301 3770 
Q 1056 3291 1056 2328 
Q 1056 1369 1301 889 
Q 1547 409 2034 409 
Q 2525 409 2770 889 
Q 3016 1369 3016 2328 
Q 3016 3291 2770 3770 
Q 2525 4250 2034 4250 
z
M 2034 4750 
Q 2819 4750 3233 4129 
Q 3647 3509 3647 2328 
Q 3647 1150 3233 529 
Q 2819 -91 2034 -91 
Q 1250 -91 836 529 
Q 422 1150 422 2328 
Q 422 3509 836 4129 
Q 1250 4750 2034 4750 
z
" transform="scale(0.015625)"/>
       </defs>
       <use xlink:href="#DejaVuSans-2d"/>
       <use xlink:href="#DejaVuSans-31" transform="translate(36.083984 0)"/>
       <use xlink:href="#DejaVuSans-65" transform="translate(99.707031 0)"/>
       <use xlink:href="#DejaVuSans-2b" transform="translate(161.230469 0)"/>
       <use xlink:href="#DejaVuSans-30" transform="translate(245.019531 0)"/>
       <use xlink:href="#DejaVuSans-30" transform="translate(308.642578 0)"/>
      </g>
     </g>
    </g>
    <g id="ytick_2">
     <g id="line2d_12">
      <g>
       <use xlink:href="#m804bf541f2" x="60.48" y="244.197209" style="stroke: #000000; stroke-width: 0.8"/>
      </g>
     </g>
     <g id="text_2">
      <!-- -8e-01 -->
      <g transform="translate(21.02375 247.996428) scale(0.1 -0.1)">
       <defs>
        <path id="DejaVuSans-38" d="M 2034 2216 
Q 1584 2216 1326 1975 
Q 1069 1734 1069 1313 
Q 1069 891 1326 650 
Q 1584 409 2034 409 
Q 2484 409 2743 651 
Q 3003 894 3003 1313 
Q 3003 1734 2745 1975 
Q 2488 2216 2034 2216 
z
M 1403 2484 
Q 997 2584 770 2862 
Q 544 3141 544 3541 
Q 544 4100 942 4425 
Q 1341 4750 2034 4750 
Q 2731 4750 3128 4425 
Q 3525 4100 3525 3541 
Q 3525 3141 3298 2862 
Q 3072 2584 2669 2484 
Q 3125 2378 3379 2068 
Q 3634 1759 3634 1313 
Q 3634 634 3220 271 
Q 2806 -91 2034 -91 
Q 1263 -91 848 271 
Q 434 634 434 1313 
Q 434 1759 690 2068 
Q 947 2378 1403 2484 
z
M 1172 3481 
Q 1172 3119 1398 2916 
Q 1625 2713 2034 2713 
Q 2441 2713 2670 2916 
Q 2900 3119 2900 3481 
Q 2900 3844 2670 4047 
Q 2441 4250 2034 4250 
Q 1625 4250 1398 4047 
Q 1172 3844 1172 3481 
z
" transform="scale(0.015625)"/>
       </defs>
       <use xlink:href="#DejaVuSans-2d"/>
       <use xlink:href="#DejaVuSans-38" transform="translate(36.083984 0)"/>
       <use xlink:href="#DejaVuSans-65" transform="translate(99.707031 0)"/>
       <use xlink:href="#DejaVuSans-2d" transform="translate(161.230469 0)"/>
       <use xlink:href="#DejaVuSans-30" transform="translate(197.314453 0)"/>
       <use xlink:href="#DejaVuSans-31" transform="translate(260.9375 0)"/>
      </g>
     </g>
    </g>
    <g id="ytick_3">
     <g id="line2d_13">
      <g>
       <use xlink:href="#m804bf541f2" x="60.48" y="217.406512" style="stroke: #000000; stroke-width: 0.8"/>
      </g>
     </g>
     <g id="text_3">
      <!-- -5e-01 -->
      <g transform="translate(21.02375 221.20573) scale(0.1 -0.1)">
       <defs>
        <path id="DejaVuSans-35" d="M 691 4666 
L 3169 4666 
L 3169 4134 
L 1269 4134 
L 1269 2991 
Q 1406 3038 1543 3061 
Q 1681 3084 1819 3084 
Q 2600 3084 3056 2656 
Q 3513 2228 3513 1497 
Q 3513 744 3044 326 
Q 2575 -91 1722 -91 
Q 1428 -91 1123 -41 
Q 819 9 494 109 
L 494 744 
Q 775 591 1075 516 
Q 1375 441 1709 441 
Q 2250 441 2565 725 
Q 2881 1009 2881 1497 
Q 2881 1984 2565 2268 
Q 2250 2553 1709 2553 
Q 1456 2553 1204 2497 
Q 953 2441 691 2322 
L 691 4666 
z
" transform="scale(0.015625)"/>
       </defs>
       <use xlink:href="#DejaVuSans-2d"/>
       <use xlink:href="#DejaVuSans-35" transform="translate(36.083984 0)"/>
       <use xlink:href="#DejaVuSans-65" transform="translate(99.707031 0)"/>
       <use xlink:href="#DejaVuSans-2d" transform="translate(161.230469 0)"/>
       <use xlink:href="#DejaVuSans-30" transform="translate(197.314453 0)"/>
       <use xlink:href="#DejaVuSans-31" transform="translate(260.9375 0)"/>
      </g>
     </g>
    </g>
    <g id="ytick_4">
     <g id="line2d_14">
      <g>
       <use xlink:href="#m804bf541f2" x="60.48" y="190.615814" style="stroke: #000000; stroke-width: 0.8"/>
      </g>
     </g>
     <g id="text_4">
      <!-- -2e-01 -->
      <g transform="translate(21.02375 194.415033) scale(0.1 -0.1)">
       <defs>
        <path id="DejaVuSans-32" d="M 1228 531 
L 3431 531 
L 3431 0 
L 469 0 
L 469 531 
Q 828 903 1448 1529 
Q 2069 2156 2228 2338 
Q 2531 2678 2651 2914 
Q 2772 3150 2772 3378 
Q 2772 3750 2511 3984 
Q 2250 4219 1831 4219 
Q 1534 4219 1204 4116 
Q 875 4013 500 3803 
L 500 4441 
Q 881 4594 1212 4672 
Q 1544 4750 1819 4750 
Q 2544 4750 2975 4387 
Q 3406 4025 3406 3419 
Q 3406 3131 3298 2873 
Q 3191 2616 2906 2266 
Q 2828 2175 2409 1742 
Q 1991 1309 1228 531 
z
" transform="scale(0.015625)"/>
       </defs>
       <use xlink:href="#DejaVuSans-2d"/>
       <use xlink:href="#DejaVuSans-32" transform="translate(36.083984 0)"/>
       <use xlink:href="#DejaVuSans-65" transform="translate(99.707031 0)"/>
       <use xlink:href="#DejaVuSans-2d" transform="translate(161.230469 0)"/>
       <use xlink:href="#DejaVuSans-30" transform="translate(197.314453 0)"/>
       <use xlink:href="#DejaVuSans-31" transform="translate(260.9375 0)"/>
      </g>
     </g>
    </g>
    <g id="ytick_5">
     <g id="line2d_15">
      <g>
       <use xlink:href="#m804bf541f2" x="60.48" y="163.825116" style="stroke: #000000; stroke-width: 0.8"/>
      </g>
     </g>
     <g id="text_5">
      <!-- 0e+00 -->
      <g transform="translate(19.859687 167.624335) scale(0.1 -0.1)">
       <use xlink:href="#DejaVuSans-30"/>
       <use xlink:href="#DejaVuSans-65" transform="translate(63.623047 0)"/>
       <use xlink:href="#DejaVuSans-2b" transform="translate(125.146484 0)"/>
       <use xlink:href="#DejaVuSans-30" transform="translate(208.935547 0)"/>
       <use xlink:href="#DejaVuSans-30" transform="translate(272.558594 0)"/>
      </g>
     </g>
    </g>
    <g id="text_6">
     <!-- Shear force, $V(x)$ -->
     <g transform="translate(10.172187 259.706512) rotate(-90) scale(0.1 -0.1)">
      <defs>
       <path id="DejaVuSans-53" d="M 3425 4513 
L 3425 3897 
Q 3066 4069 2747 4153 
Q 2428 4238 2131 4238 
Q 1616 4238 1336 4038 
Q 1056 3838 1056 3469 
Q 1056 3159 1242 3001 
Q 1428 2844 1947 2747 
L 2328 2669 
Q 3034 2534 3370 2195 
Q 3706 1856 3706 1288 
Q 3706 609 3251 259 
Q 2797 -91 1919 -91 
Q 1588 -91 1214 -16 
Q 841 59 441 206 
L 441 856 
Q 825 641 1194 531 
Q 1563 422 1919 422 
Q 2459 422 2753 634 
Q 3047 847 3047 1241 
Q 3047 1584 2836 1778 
Q 2625 1972 2144 2069 
L 1759 2144 
Q 1053 2284 737 2584 
Q 422 2884 422 3419 
Q 422 4038 858 4394 
Q 1294 4750 2059 4750 
Q 2388 4750 2728 4690 
Q 3069 4631 3425 4513 
z
" transform="scale(0.015625)"/>
       <path id="DejaVuSans-68" d="M 3513 2113 
L 3513 0 
L 2938 0 
L 2938 2094 
Q 2938 2591 2744 2837 
Q 2550 3084 2163 3084 
Q 1697 3084 1428 2787 
Q 1159 2491 1159 1978 
L 1159 0 
L 581 0 
L 581 4863 
L 1159 4863 
L 1159 2956 
Q 1366 3272 1645 3428 
Q 1925 3584 2291 3584 
Q 2894 3584 3203 3211 
Q 3513 2838 3513 2113 
z
" transform="scale(0.015625)"/>
       <path id="DejaVuSans-61" d="M 2194 1759 
Q 1497 1759 1228 1600 
Q 959 1441 959 1056 
Q 959 750 1161 570 
Q 1363 391 1709 391 
Q 2188 391 2477 730 
Q 2766 1069 2766 1631 
L 2766 1759 
L 2194 1759 
z
M 3341 1997 
L 3341 0 
L 2766 0 
L 2766 531 
Q 2569 213 2275 61 
Q 1981 -91 1556 -91 
Q 1019 -91 701 211 
Q 384 513 384 1019 
Q 384 1609 779 1909 
Q 1175 2209 1959 2209 
L 2766 2209 
L 2766 2266 
Q 2766 2663 2505 2880 
Q 2244 3097 1772 3097 
Q 1472 3097 1187 3025 
Q 903 2953 641 2809 
L 641 3341 
Q 956 3463 1253 3523 
Q 1550 3584 1831 3584 
Q 2591 3584 2966 3190 
Q 3341 2797 3341 1997 
z
" transform="scale(0.015625)"/>
       <path id="DejaVuSans-72" d="M 2631 2963 
Q 2534 3019 2420 3045 
Q 2306 3072 2169 3072 
Q 1681 3072 1420 2755 
Q 1159 2438 1159 1844 
L 1159 0 
L 581 0 
L 581 3500 
L 1159 3500 
L 1159 2956 
Q 1341 3275 1631 3429 
Q 1922 3584 2338 3584 
Q 2397 3584 2469 3576 
Q 2541 3569 2628 3553 
L 2631 2963 
z
" transform="scale(0.015625)"/>
       <path id="DejaVuSans-20" transform="scale(0.015625)"/>
       <path id="DejaVuSans-66" d="M 2375 4863 
L 2375 4384 
L 1825 4384 
Q 1516 4384 1395 4259 
Q 1275 4134 1275 3809 
L 1275 3500 
L 2222 3500 
L 2222 3053 
L 1275 3053 
L 1275 0 
L 697 0 
L 697 3053 
L 147 3053 
L 147 3500 
L 697 3500 
L 697 3744 
Q 697 4328 969 4595 
Q 1241 4863 1831 4863 
L 2375 4863 
z
" transform="scale(0.015625)"/>
       <path id="DejaVuSans-6f" d="M 1959 3097 
Q 1497 3097 1228 2736 
Q 959 2375 959 1747 
Q 959 1119 1226 758 
Q 1494 397 1959 397 
Q 2419 397 2687 759 
Q 2956 1122 2956 1747 
Q 2956 2369 2687 2733 
Q 2419 3097 1959 3097 
z
M 1959 3584 
Q 2709 3584 3137 3096 
Q 3566 2609 3566 1747 
Q 3566 888 3137 398 
Q 2709 -91 1959 -91 
Q 1206 -91 779 398 
Q 353 888 353 1747 
Q 353 2609 779 3096 
Q 1206 3584 1959 3584 
z
" transform="scale(0.015625)"/>
       <path id="DejaVuSans-63" d="M 3122 3366 
L 3122 2828 
Q 2878 2963 2633 3030 
Q 2388 3097 2138 3097 
Q 1578 3097 1268 2742 
Q 959 2388 959 1747 
Q 959 1106 1268 751 
Q 1578 397 2138 397 
Q 2388 397 2633 464 
Q 2878 531 3122 666 
L 3122 134 
Q 2881 22 2623 -34 
Q 2366 -91 2075 -91 
Q 1284 -91 818 406 
Q 353 903 353 1747 
Q 353 2603 823 3093 
Q 1294 3584 2113 3584 
Q 2378 3584 2631 3529 
Q 2884 3475 3122 3366 
z
" transform="scale(0.015625)"/>
       <path id="DejaVuSans-2c" d="M 750 794 
L 1409 794 
L 1409 256 
L 897 -744 
L 494 -744 
L 750 256 
L 750 794 
z
" transform="scale(0.015625)"/>
       <path id="DejaVuSans-Oblique-56" d="M 1319 0 
L 500 4666 
L 1119 4666 
L 1797 653 
L 4063 4666 
L 4750 4666 
L 2053 0 
L 1319 0 
z
" transform="scale(0.015625)"/>
       <path id="DejaVuSans-28" d="M 1984 4856 
Q 1566 4138 1362 3434 
Q 1159 2731 1159 2009 
Q 1159 1288 1364 580 
Q 1569 -128 1984 -844 
L 1484 -844 
Q 1016 -109 783 600 
Q 550 1309 550 2009 
Q 550 2706 781 3412 
Q 1013 4119 1484 4856 
L 1984 4856 
z
" transform="scale(0.015625)"/>
       <path id="DejaVuSans-Oblique-78" d="M 3841 3500 
L 2234 1784 
L 3219 0 
L 2559 0 
L 1819 1388 
L 531 0 
L -166 0 
L 1556 1844 
L 641 3500 
L 1300 3500 
L 1972 2234 
L 3144 3500 
L 3841 3500 
z
" transform="scale(0.015625)"/>
       <path id="DejaVuSans-29" d="M 513 4856 
L 1013 4856 
Q 1481 4119 1714 3412 
Q 1947 2706 1947 2009 
Q 1947 1309 1714 600 
Q 1481 -109 1013 -844 
L 513 -844 
Q 928 -128 1133 580 
Q 1338 1288 1338 2009 
Q 1338 2731 1133 3434 
Q 928 4138 513 4856 
z
" transform="scale(0.015625)"/>
      </defs>
      <use xlink:href="#DejaVuSans-53" transform="translate(0 0.015625)"/>
      <use xlink:href="#DejaVuSans-68" transform="translate(63.476562 0.015625)"/>
      <use xlink:href="#DejaVuSans-65" transform="translate(126.855469 0.015625)"/>
      <use xlink:href="#DejaVuSans-61" transform="translate(188.378906 0.015625)"/>
      <use xlink:href="#DejaVuSans-72" transform="translate(249.658203 0.015625)"/>
      <use xlink:href="#DejaVuSans-20" transform="translate(290.771484 0.015625)"/>
      <use xlink:href="#DejaVuSans-66" transform="translate(322.558594 0.015625)"/>
      <use xlink:href="#DejaVuSans-6f" transform="translate(357.763672 0.015625)"/>
      <use xlink:href="#DejaVuSans-72" transform="translate(418.945312 0.015625)"/>
      <use xlink:href="#DejaVuSans-63" transform="translate(460.058594 0.015625)"/>
      <use xlink:href="#DejaVuSans-65" transform="translate(515.039062 0.015625)"/>
      <use xlink:href="#DejaVuSans-2c" transform="translate(576.5625 0.015625)"/>
      <use xlink:href="#DejaVuSans-20" transform="translate(608.349609 0.015625)"/>
      <use xlink:href="#DejaVuSans-Oblique-56" transform="translate(640.136719 0.015625)"/>
      <use xlink:href="#DejaVuSans-28" transform="translate(708.544922 0.015625)"/>
      <use xlink:href="#DejaVuSans-Oblique-78" transform="translate(747.558594 0.015625)"/>
      <use xlink:href="#DejaVuSans-29" transform="translate(806.738281 0.015625)"/>
     </g>
    </g>
   </g>
   <g id="line2d_16">
    <path d="M 60.48 270.987907 
L 64.705455 270.987907 
L 68.930909 270.987907 
L 73.156364 270.987907 
L 77.381818 270.987907 
L 81.607273 270.987907 
L 85.832727 270.987907 
L 90.058182 270.987907 
L 94.283636 270.987907 
L 98.509091 270.987907 
L 102.734545 270.987907 
L 106.96 270.987907 
L 111.185455 270.987907 
L 115.410909 270.987907 
L 119.636364 270.987907 
L 123.861818 270.987907 
L 128.087273 270.987907 
L 132.312727 270.987907 
L 136.538182 270.987907 
L 140.763636 270.987907 
L 144.989091 270.987907 
L 149.214545 270.987907 
L 153.44 270.987907 
L 157.665455 270.987907 
L 161.890909 270.987907 
L 166.116364 270.987907 
L 170.341818 270.987907 
L 174.567273 270.987907 
L 178.792727 270.987907 
L 183.018182 270.987907 
L 187.243636 270.987907 
L 191.469091 270.987907 
L 195.694545 270.987907 
L 199.92 270.987907 
L 204.145455 270.987907 
L 208.370909 270.987907 
L 212.596364 270.987907 
L 216.821818 270.987907 
L 221.047273 270.987907 
L 225.272727 270.987907 
L 229.498182 270.987907 
L 233.723636 270.987907 
L 237.949091 270.987907 
L 242.174545 270.987907 
L 246.4 270.987907 
L 250.625455 270.987907 
L 254.850909 270.987907 
L 259.076364 270.987907 
L 263.301818 270.987907 
L 267.527273 270.987907 
L 271.752727 270.987907 
L 275.978182 270.987907 
L 280.203636 270.987907 
L 284.429091 270.987907 
L 288.654545 270.987907 
L 292.88 270.987907 
L 297.105455 270.987907 
L 301.330909 270.987907 
L 305.556364 270.987907 
L 309.781818 270.987907 
L 314.007273 270.987907 
L 318.232727 270.987907 
L 322.458182 270.987907 
L 326.683636 270.987907 
L 330.909091 270.987907 
L 335.134545 270.987907 
L 339.36 270.987907 
L 343.585455 270.987907 
L 347.810909 270.987907 
L 352.036364 270.987907 
L 356.261818 270.987907 
L 360.487273 270.987907 
L 364.712727 270.987907 
L 368.938182 270.987907 
L 373.163636 270.987907 
L 377.389091 270.987907 
L 381.614545 270.987907 
L 385.84 270.987907 
L 390.065455 270.987907 
L 394.290909 270.987907 
L 398.516364 270.987907 
L 402.741818 270.987907 
L 406.967273 270.987907 
L 411.192727 270.987907 
L 415.418182 270.987907 
L 419.643636 270.987907 
L 423.869091 270.987907 
L 428.094545 270.987907 
L 432.32 270.987907 
L 436.545455 270.987907 
L 440.770909 270.987907 
L 444.996364 270.987907 
L 449.221818 270.987907 
L 453.447273 270.987907 
L 457.672727 270.987907 
L 461.898182 270.987907 
L 466.123636 270.987907 
L 470.349091 270.987907 
L 474.574545 270.987907 
L 478.8 270.987907 
" clip-path="url(#p1ce6058599)" style="fill: none; stroke: #228b22; stroke-width: 2; stroke-linecap: square"/>
   </g>
   <g id="patch_4">
    <path d="M 60.48 276.346047 
L 60.48 158.466977 
" style="fill: none; stroke: #000000; stroke-width: 0.8; stroke-linejoin: miter; stroke-linecap: square"/>
   </g>
   <g id="patch_5">
    <path d="M 478.8 276.346047 
L 478.8 158.466977 
" style="fill: none; stroke: #000000; stroke-width: 0.8; stroke-linejoin: miter; stroke-linecap: square"/>
   </g>
   <g id="patch_6">
    <path d="M 60.48 276.346047 
L 478.8 276.346047 
" style="fill: none; stroke: #000000; stroke-width: 0.8; stroke-linejoin: miter; stroke-linecap: square"/>
   </g>
   <g id="patch_7">
    <path d="M 60.48 158.466977 
L 478.8 158.466977 
" style="fill: none; stroke: #000000; stroke-width: 0.8; stroke-linejoin: miter; stroke-linecap: square"/>
   </g>
  </g>
  <g id="axes_3">
   <g id="patch_8">
    <path d="M 60.48 406.013023 
L 478.8 406.013023 
L 478.8 288.133953 
L 60.48 288.133953 
z
" style="fill: #ffffff"/>
   </g>
   <g id="FillBetweenPolyCollection_3">
    <defs>
     <path id="m84974775a9" d="M 60.48 -282.507907 
L 60.48 -175.345116 
L 64.705455 -176.427569 
L 68.930909 -177.510021 
L 73.156364 -178.592474 
L 77.381818 -179.674926 
L 81.607273 -180.757378 
L 85.832727 -181.839831 
L 90.058182 -182.922283 
L 94.283636 -184.004736 
L 98.509091 -185.087188 
L 102.734545 -186.169641 
L 106.96 -187.252093 
L 111.185455 -188.334545 
L 115.410909 -189.416998 
L 119.636364 -190.49945 
L 123.861818 -191.581903 
L 128.087273 -192.664355 
L 132.312727 -193.746808 
L 136.538182 -194.82926 
L 140.763636 -195.911712 
L 144.989091 -196.994165 
L 149.214545 -198.076617 
L 153.44 -199.15907 
L 157.665455 -200.241522 
L 161.890909 -201.323975 
L 166.116364 -202.406427 
L 170.341818 -203.488879 
L 174.567273 -204.571332 
L 178.792727 -205.653784 
L 183.018182 -206.736237 
L 187.243636 -207.818689 
L 191.469091 -208.901142 
L 195.694545 -209.983594 
L 199.92 -211.066047 
L 204.145455 -212.148499 
L 208.370909 -213.230951 
L 212.596364 -214.313404 
L 216.821818 -215.395856 
L 221.047273 -216.478309 
L 225.272727 -217.560761 
L 229.498182 -218.643214 
L 233.723636 -219.725666 
L 237.949091 -220.808118 
L 242.174545 -221.890571 
L 246.4 -222.973023 
L 250.625455 -224.055476 
L 254.850909 -225.137928 
L 259.076364 -226.220381 
L 263.301818 -227.302833 
L 267.527273 -228.385285 
L 271.752727 -229.467738 
L 275.978182 -230.55019 
L 280.203636 -231.632643 
L 284.429091 -232.715095 
L 288.654545 -233.797548 
L 292.88 -234.88 
L 297.105455 -235.962452 
L 301.330909 -237.044905 
L 305.556364 -238.127357 
L 309.781818 -239.20981 
L 314.007273 -240.292262 
L 318.232727 -241.374715 
L 322.458182 -242.457167 
L 326.683636 -243.539619 
L 330.909091 -244.622072 
L 335.134545 -245.704524 
L 339.36 -246.786977 
L 343.585455 -247.869429 
L 347.810909 -248.951882 
L 352.036364 -250.034334 
L 356.261818 -251.116786 
L 360.487273 -252.199239 
L 364.712727 -253.281691 
L 368.938182 -254.364144 
L 373.163636 -255.446596 
L 377.389091 -256.529049 
L 381.614545 -257.611501 
L 385.84 -258.693953 
L 390.065455 -259.776406 
L 394.290909 -260.858858 
L 398.516364 -261.941311 
L 402.741818 -263.023763 
L 406.967273 -264.106216 
L 411.192727 -265.188668 
L 415.418182 -266.271121 
L 419.643636 -267.353573 
L 423.869091 -268.436025 
L 428.094545 -269.518478 
L 432.32 -270.60093 
L 436.545455 -271.683383 
L 440.770909 -272.765835 
L 444.996364 -273.848288 
L 449.221818 -274.93074 
L 453.447273 -276.013192 
L 457.672727 -277.095645 
L 461.898182 -278.178097 
L 466.123636 -279.26055 
L 470.349091 -280.343002 
L 474.574545 -281.425455 
L 478.8 -282.507907 
L 478.8 -282.507907 
L 478.8 -282.507907 
L 474.574545 -282.507907 
L 470.349091 -282.507907 
L 466.123636 -282.507907 
L 461.898182 -282.507907 
L 457.672727 -282.507907 
L 453.447273 -282.507907 
L 449.221818 -282.507907 
L 444.996364 -282.507907 
L 440.770909 -282.507907 
L 436.545455 -282.507907 
L 432.32 -282.507907 
L 428.094545 -282.507907 
L 423.869091 -282.507907 
L 419.643636 -282.507907 
L 415.418182 -282.507907 
L 411.192727 -282.507907 
L 406.967273 -282.507907 
L 402.741818 -282.507907 
L 398.516364 -282.507907 
L 394.290909 -282.507907 
L 390.065455 -282.507907 
L 385.84 -282.507907 
L 381.614545 -282.507907 
L 377.389091 -282.507907 
L 373.163636 -282.507907 
L 368.938182 -282.507907 
L 364.712727 -282.507907 
L 360.487273 -282.507907 
L 356.261818 -282.507907 
L 352.036364 -282.507907 
L 347.810909 -282.507907 
L 343.585455 -282.507907 
L 339.36 -282.507907 
L 335.134545 -282.507907 
L 330.909091 -282.507907 
L 326.683636 -282.507907 
L 322.458182 -282.507907 
L 318.232727 -282.507907 
L 314.007273 -282.507907 
L 309.781818 -282.507907 
L 305.556364 -282.507907 
L 301.330909 -282.507907 
L 297.105455 -282.507907 
L 292.88 -282.507907 
L 288.654545 -282.507907 
L 284.429091 -282.507907 
L 280.203636 -282.507907 
L 275.978182 -282.507907 
L 271.752727 -282.507907 
L 267.527273 -282.507907 
L 263.301818 -282.507907 
L 259.076364 -282.507907 
L 254.850909 -282.507907 
L 250.625455 -282.507907 
L 246.4 -282.507907 
L 242.174545 -282.507907 
L 237.949091 -282.507907 
L 233.723636 -282.507907 
L 229.498182 -282.507907 
L 225.272727 -282.507907 
L 221.047273 -282.507907 
L 216.821818 -282.507907 
L 212.596364 -282.507907 
L 208.370909 -282.507907 
L 204.145455 -282.507907 
L 199.92 -282.507907 
L 195.694545 -282.507907 
L 191.469091 -282.507907 
L 187.243636 -282.507907 
L 183.018182 -282.507907 
L 178.792727 -282.507907 
L 174.567273 -282.507907 
L 170.341818 -282.507907 
L 166.116364 -282.507907 
L 161.890909 -282.507907 
L 157.665455 -282.507907 
L 153.44 -282.507907 
L 149.214545 -282.507907 
L 144.989091 -282.507907 
L 140.763636 -282.507907 
L 136.538182 -282.507907 
L 132.312727 -282.507907 
L 128.087273 -282.507907 
L 123.861818 -282.507907 
L 119.636364 -282.507907 
L 115.410909 -282.507907 
L 111.185455 -282.507907 
L 106.96 -282.507907 
L 102.734545 -282.507907 
L 98.509091 -282.507907 
L 94.283636 -282.507907 
L 90.058182 -282.507907 
L 85.832727 -282.507907 
L 81.607273 -282.507907 
L 77.381818 -282.507907 
L 73.156364 -282.507907 
L 68.930909 -282.507907 
L 64.705455 -282.507907 
L 60.48 -282.507907 
z
" style="stroke: #b22222; stroke-opacity: 0.35"/>
    </defs>
    <g clip-path="url(#pc50160d93e)">
     <use xlink:href="#m84974775a9" x="0" y="576" style="fill: #b22222; fill-opacity: 0.35; stroke: #b22222; stroke-opacity: 0.35"/>
    </g>
   </g>
   <g id="matplotlib.axis_3">
    <g id="xtick_7">
     <g id="line2d_17">
      <g>
       <use xlink:href="#mf1a03cb508" x="60.48" y="406.013023" style="stroke: #000000; stroke-width: 0.8"/>
      </g>
     </g>
    </g>
    <g id="xtick_8">
     <g id="line2d_18">
      <g>
       <use xlink:href="#mf1a03cb508" x="144.144" y="406.013023" style="stroke: #000000; stroke-width: 0.8"/>
      </g>
     </g>
    </g>
    <g id="xtick_9">
     <g id="line2d_19">
      <g>
       <use xlink:href="#mf1a03cb508" x="227.808" y="406.013023" style="stroke: #000000; stroke-width: 0.8"/>
      </g>
     </g>
    </g>
    <g id="xtick_10">
     <g id="line2d_20">
      <g>
       <use xlink:href="#mf1a03cb508" x="311.472" y="406.013023" style="stroke: #000000; stroke-width: 0.8"/>
      </g>
     </g>
    </g>
    <g id="xtick_11">
     <g id="line2d_21">
      <g>
       <use xlink:href="#mf1a03cb508" x="395.136" y="406.013023" style="stroke: #000000; stroke-width: 0.8"/>
      </g>
     </g>
    </g>
    <g id="xtick_12">
     <g id="line2d_22">
      <g>
       <use xlink:href="#mf1a03cb508" x="478.8" y="406.013023" style="stroke: #000000; stroke-width: 0.8"/>
      </g>
     </g>
    </g>
   </g>
   <g id="matplotlib.axis_4">
    <g id="ytick_6">
     <g id="line2d_23">
      <g>
       <use xlink:href="#m804bf541f2" x="60.48" y="400.654884" style="stroke: #000000; stroke-width: 0.8"/>
      </g>
     </g>
     <g id="text_7">
      <!-- -1e+00 -->
      <g transform="translate(16.251875 404.454102) scale(0.1 -0.1)">
       <use xlink:href="#DejaVuSans-2d"/>
       <use xlink:href="#DejaVuSans-31" transform="translate(36.083984 0)"/>
       <use xlink:href="#DejaVuSans-65" transform="translate(99.707031 0)"/>
       <use xlink:href="#DejaVuSans-2b" transform="translate(161.230469 0)"/>
       <use xlink:href="#DejaVuSans-30" transform="translate(245.019531 0)"/>
       <use xlink:href="#DejaVuSans-30" transform="translate(308.642578 0)"/>
      </g>
     </g>
    </g>
    <g id="ytick_7">
     <g id="line2d_24">
      <g>
       <use xlink:href="#m804bf541f2" x="60.48" y="373.864186" style="stroke: #000000; stroke-width: 0.8"/>
      </g>
     </g>
     <g id="text_8">
      <!-- -8e-01 -->
      <g transform="translate(21.02375 377.663405) scale(0.1 -0.1)">
       <use xlink:href="#DejaVuSans-2d"/>
       <use xlink:href="#DejaVuSans-38" transform="translate(36.083984 0)"/>
       <use xlink:href="#DejaVuSans-65" transform="translate(99.707031 0)"/>
       <use xlink:href="#DejaVuSans-2d" transform="translate(161.230469 0)"/>
       <use xlink:href="#DejaVuSans-30" transform="translate(197.314453 0)"/>
       <use xlink:href="#DejaVuSans-31" transform="translate(260.9375 0)"/>
      </g>
     </g>
    </g>
    <g id="ytick_8">
     <g id="line2d_25">
      <g>
       <use xlink:href="#m804bf541f2" x="60.48" y="347.073488" style="stroke: #000000; stroke-width: 0.8"/>
      </g>
     </g>
     <g id="text_9">
      <!-- -5e-01 -->
      <g transform="translate(21.02375 350.872707) scale(0.1 -0.1)">
       <use xlink:href="#DejaVuSans-2d"/>
       <use xlink:href="#DejaVuSans-35" transform="translate(36.083984 0)"/>
       <use xlink:href="#DejaVuSans-65" transform="translate(99.707031 0)"/>
       <use xlink:href="#DejaVuSans-2d" transform="translate(161.230469 0)"/>
       <use xlink:href="#DejaVuSans-30" transform="translate(197.314453 0)"/>
       <use xlink:href="#DejaVuSans-31" transform="translate(260.9375 0)"/>
      </g>
     </g>
    </g>
    <g id="ytick_9">
     <g id="line2d_26">
      <g>
       <use xlink:href="#m804bf541f2" x="60.48" y="320.282791" style="stroke: #000000; stroke-width: 0.8"/>
      </g>
     </g>
     <g id="text_10">
      <!-- -2e-01 -->
      <g transform="translate(21.02375 324.082009) scale(0.1 -0.1)">
       <use xlink:href="#DejaVuSans-2d"/>
       <use xlink:href="#DejaVuSans-32" transform="translate(36.083984 0)"/>
       <use xlink:href="#DejaVuSans-65" transform="translate(99.707031 0)"/>
       <use xlink:href="#DejaVuSans-2d" transform="translate(161.230469 0)"/>
       <use xlink:href="#DejaVuSans-30" transform="translate(197.314453 0)"/>
       <use xlink:href="#DejaVuSans-31" transform="translate(260.9375 0)"/>
      </g>
     </g>
    </g>
    <g id="ytick_10">
     <g id="line2d_27">
      <g>
       <use xlink:href="#m804bf541f2" x="60.48" y="293.492093" style="stroke: #000000; stroke-width: 0.8"/>
      </g>
     </g>
     <g id="text_11">
      <!-- 0e+00 -->
      <g transform="translate(19.859687 297.291312) scale(0.1 -0.1)">
       <use xlink:href="#DejaVuSans-30"/>
       <use xlink:href="#DejaVuSans-65" transform="translate(63.623047 0)"/>
       <use xlink:href="#DejaVuSans-2b" transform="translate(125.146484 0)"/>
       <use xlink:href="#DejaVuSans-30" transform="translate(208.935547 0)"/>
       <use xlink:href="#DejaVuSans-30" transform="translate(272.558594 0)"/>
      </g>
     </g>
    </g>
    <g id="text_12">
     <!-- Bending moment, $M(x)$ -->
     <g transform="translate(10.151875 404.623488) rotate(-90) scale(0.1 -0.1)">
      <defs>
       <path id="DejaVuSans-42" d="M 1259 2228 
L 1259 519 
L 2272 519 
Q 2781 519 3026 730 
Q 3272 941 3272 1375 
Q 3272 1813 3026 2020 
Q 2781 2228 2272 2228 
L 1259 2228 
z
M 1259 4147 
L 1259 2741 
L 2194 2741 
Q 2656 2741 2882 2914 
Q 3109 3088 3109 3444 
Q 3109 3797 2882 3972 
Q 2656 4147 2194 4147 
L 1259 4147 
z
M 628 4666 
L 2241 4666 
Q 2963 4666 3353 4366 
Q 3744 4066 3744 3513 
Q 3744 3084 3544 2831 
Q 3344 2578 2956 2516 
Q 3422 2416 3680 2098 
Q 3938 1781 3938 1306 
Q 3938 681 3513 340 
Q 3088 0 2303 0 
L 628 0 
L 628 4666 
z
" transform="scale(0.015625)"/>
       <path id="DejaVuSans-6e" d="M 3513 2113 
L 3513 0 
L 2938 0 
L 2938 2094 
Q 2938 2591 2744 2837 
Q 2550 3084 2163 3084 
Q 1697 3084 1428 2787 
Q 1159 2491 1159 1978 
L 1159 0 
L 581 0 
L 581 3500 
L 1159 3500 
L 1159 2956 
Q 1366 3272 1645 3428 
Q 1925 3584 2291 3584 
Q 2894 3584 3203 3211 
Q 3513 2838 3513 2113 
z
" transform="scale(0.015625)"/>
       <path id="DejaVuSans-64" d="M 2906 2969 
L 2906 4863 
L 3481 4863 
L 3481 0 
L 2906 0 
L 2906 525 
Q 2725 213 2448 61 
Q 2172 -91 1784 -91 
Q 1150 -91 751 415 
Q 353 922 353 1747 
Q 353 2572 751 3078 
Q 1150 3584 1784 3584 
Q 2172 3584 2448 3432 
Q 2725 3281 2906 2969 
z
M 947 1747 
Q 947 1113 1208 752 
Q 1469 391 1925 391 
Q 2381 391 2643 752 
Q 2906 1113 2906 1747 
Q 2906 2381 2643 2742 
Q 2381 3103 1925 3103 
Q 1469 3103 1208 2742 
Q 947 2381 947 1747 
z
" transform="scale(0.015625)"/>
       <path id="DejaVuSans-69" d="M 603 3500 
L 1178 3500 
L 1178 0 
L 603 0 
L 603 3500 
z
M 603 4863 
L 1178 4863 
L 1178 4134 
L 603 4134 
L 603 4863 
z
" transform="scale(0.015625)"/>
       <path id="DejaVuSans-67" d="M 2906 1791 
Q 2906 2416 2648 2759 
Q 2391 3103 1925 3103 
Q 1463 3103 1205 2759 
Q 947 2416 947 1791 
Q 947 1169 1205 825 
Q 1463 481 1925 481 
Q 2391 481 2648 825 
Q 2906 1169 2906 1791 
z
M 3481 434 
Q 3481 -459 3084 -895 
Q 2688 -1331 1869 -1331 
Q 1566 -1331 1297 -1286 
Q 1028 -1241 775 -1147 
L 775 -588 
Q 1028 -725 1275 -790 
Q 1522 -856 1778 -856 
Q 2344 -856 2625 -561 
Q 2906 -266 2906 331 
L 2906 616 
Q 2728 306 2450 153 
Q 2172 0 1784 0 
Q 1141 0 747 490 
Q 353 981 353 1791 
Q 353 2603 747 3093 
Q 1141 3584 1784 3584 
Q 2172 3584 2450 3431 
Q 2728 3278 2906 2969 
L 2906 3500 
L 3481 3500 
L 3481 434 
z
" transform="scale(0.015625)"/>
       <path id="DejaVuSans-6d" d="M 3328 2828 
Q 3544 3216 3844 3400 
Q 4144 3584 4550 3584 
Q 5097 3584 5394 3201 
Q 5691 2819 5691 2113 
L 5691 0 
L 5113 0 
L 5113 2094 
Q 5113 2597 4934 2840 
Q 4756 3084 4391 3084 
Q 3944 3084 3684 2787 
Q 3425 2491 3425 1978 
L 3425 0 
L 2847 0 
L 2847 2094 
Q 2847 2600 2669 2842 
Q 2491 3084 2119 3084 
Q 1678 3084 1418 2786 
Q 1159 2488 1159 1978 
L 1159 0 
L 581 0 
L 581 3500 
L 1159 3500 
L 1159 2956 
Q 1356 3278 1631 3431 
Q 1906 3584 2284 3584 
Q 2666 3584 2933 3390 
Q 3200 3197 3328 2828 
z
" transform="scale(0.015625)"/>
       <path id="DejaVuSans-74" d="M 1172 4494 
L 1172 3500 
L 2356 3500 
L 2356 3053 
L 1172 3053 
L 1172 1153 
Q 1172 725 1289 603 
Q 1406 481 1766 481 
L 2356 481 
L 2356 0 
L 1766 0 
Q 1100 0 847 248 
Q 594 497 594 1153 
L 594 3053 
L 172 3053 
L 172 3500 
L 594 3500 
L 594 4494 
L 1172 4494 
z
" transform="scale(0.015625)"/>
       <path id="DejaVuSans-Oblique-4d" d="M 1081 4666 
L 2028 4666 
L 2572 1522 
L 4378 4666 
L 5350 4666 
L 4441 0 
L 3828 0 
L 4622 4091 
L 2791 897 
L 2175 897 
L 1581 4103 
L 788 0 
L 172 0 
L 1081 4666 
z
" transform="scale(0.015625)"/>
      </defs>
      <use xlink:href="#DejaVuSans-42" transform="translate(0 0.015625)"/>
      <use xlink:href="#DejaVuSans-65" transform="translate(68.603516 0.015625)"/>
      <use xlink:href="#DejaVuSans-6e" transform="translate(130.126953 0.015625)"/>
      <use xlink:href="#DejaVuSans-64" transform="translate(193.505859 0.015625)"/>
      <use xlink:href="#DejaVuSans-69" transform="translate(256.982422 0.015625)"/>
      <use xlink:href="#DejaVuSans-6e" transform="translate(284.765625 0.015625)"/>
      <use xlink:href="#DejaVuSans-67" transform="translate(348.144531 0.015625)"/>
      <use xlink:href="#DejaVuSans-20" transform="translate(411.621094 0.015625)"/>
      <use xlink:href="#DejaVuSans-6d" transform="translate(443.408203 0.015625)"/>
      <use xlink:href="#DejaVuSans-6f" transform="translate(540.820312 0.015625)"/>
      <use xlink:href="#DejaVuSans-6d" transform="translate(602.001953 0.015625)"/>
      <use xlink:href="#DejaVuSans-65" transform="translate(699.414062 0.015625)"/>
      <use xlink:href="#DejaVuSans-6e" transform="translate(760.9375 0.015625)"/>
      <use xlink:href="#DejaVuSans-74" transform="translate(824.316406 0.015625)"/>
      <use xlink:href="#DejaVuSans-2c" transform="translate(863.525391 0.015625)"/>
      <use xlink:href="#DejaVuSans-20" transform="translate(895.3125 0.015625)"/>
      <use xlink:href="#DejaVuSans-Oblique-4d" transform="translate(927.099609 0.015625)"/>
      <use xlink:href="#DejaVuSans-28" transform="translate(1013.378906 0.015625)"/>
      <use xlink:href="#DejaVuSans-Oblique-78" transform="translate(1052.392578 0.015625)"/>
      <use xlink:href="#DejaVuSans-29" transform="translate(1111.572266 0.015625)"/>
     </g>
    </g>
   </g>
   <g id="line2d_28">
    <path d="M 60.48 400.654884 
L 64.705455 399.572431 
L 68.930909 398.489979 
L 73.156364 397.407526 
L 77.381818 396.325074 
L 81.607273 395.242622 
L 85.832727 394.160169 
L 90.058182 393.077717 
L 94.283636 391.995264 
L 98.509091 390.912812 
L 102.734545 389.830359 
L 106.96 388.747907 
L 111.185455 387.665455 
L 115.410909 386.583002 
L 119.636364 385.50055 
L 123.861818 384.418097 
L 128.087273 383.335645 
L 132.312727 382.253192 
L 136.538182 381.17074 
L 140.763636 380.088288 
L 144.989091 379.005835 
L 149.214545 377.923383 
L 153.44 376.84093 
L 157.665455 375.758478 
L 161.890909 374.676025 
L 166.116364 373.593573 
L 170.341818 372.511121 
L 174.567273 371.428668 
L 178.792727 370.346216 
L 183.018182 369.263763 
L 187.243636 368.181311 
L 191.469091 367.098858 
L 195.694545 366.016406 
L 199.92 364.933953 
L 204.145455 363.851501 
L 208.370909 362.769049 
L 212.596364 361.686596 
L 216.821818 360.604144 
L 221.047273 359.521691 
L 225.272727 358.439239 
L 229.498182 357.356786 
L 233.723636 356.274334 
L 237.949091 355.191882 
L 242.174545 354.109429 
L 246.4 353.026977 
L 250.625455 351.944524 
L 254.850909 350.862072 
L 259.076364 349.779619 
L 263.301818 348.697167 
L 267.527273 347.614715 
L 271.752727 346.532262 
L 275.978182 345.44981 
L 280.203636 344.367357 
L 284.429091 343.284905 
L 288.654545 342.202452 
L 292.88 341.12 
L 297.105455 340.037548 
L 301.330909 338.955095 
L 305.556364 337.872643 
L 309.781818 336.79019 
L 314.007273 335.707738 
L 318.232727 334.625285 
L 322.458182 333.542833 
L 326.683636 332.460381 
L 330.909091 331.377928 
L 335.134545 330.295476 
L 339.36 329.213023 
L 343.585455 328.130571 
L 347.810909 327.048118 
L 352.036364 325.965666 
L 356.261818 324.883214 
L 360.487273 323.800761 
L 364.712727 322.718309 
L 368.938182 321.635856 
L 373.163636 320.553404 
L 377.389091 319.470951 
L 381.614545 318.388499 
L 385.84 317.306047 
L 390.065455 316.223594 
L 394.290909 315.141142 
L 398.516364 314.058689 
L 402.741818 312.976237 
L 406.967273 311.893784 
L 411.192727 310.811332 
L 415.418182 309.728879 
L 419.643636 308.646427 
L 423.869091 307.563975 
L 428.094545 306.481522 
L 432.32 305.39907 
L 436.545455 304.316617 
L 440.770909 303.234165 
L 444.996364 302.151712 
L 449.221818 301.06926 
L 453.447273 299.986808 
L 457.672727 298.904355 
L 461.898182 297.821903 
L 466.123636 296.73945 
L 470.349091 295.656998 
L 474.574545 294.574545 
L 478.8 293.492093 
" clip-path="url(#pc50160d93e)" style="fill: none; stroke: #b22222; stroke-width: 2; stroke-linecap: square"/>
   </g>
   <g id="patch_9">
    <path d="M 60.48 406.013023 
L 60.48 288.133953 
" style="fill: none; stroke: #000000; stroke-width: 0.8; stroke-linejoin: miter; stroke-linecap: square"/>
   </g>
   <g id="patch_10">
    <path d="M 478.8 406.013023 
L 478.8 288.133953 
" style="fill: none; stroke: #000000; stroke-width: 0.8; stroke-linejoin: miter; stroke-linecap: square"/>
   </g>
   <g id="patch_11">
    <path d="M 60.48 406.013023 
L 478.8 406.013023 
" style="fill: none; stroke: #000000; stroke-width: 0.8; stroke-linejoin: miter; stroke-linecap: square"/>
   </g>
   <g id="patch_12">
    <path d="M 60.48 288.133953 
L 478.8 288.133953 
" style="fill: none; stroke: #000000; stroke-width: 0.8; stroke-linejoin: miter; stroke-linecap: square"/>
   </g>
  </g>
  <g id="axes_4">
   <g id="patch_13">
    <path d="M 60.48 535.68 
L 478.8 535.68 
L 478.8 417.80093 
L 60.48 417.80093 
z
" style="fill: #ffffff"/>
   </g>
   <g id="matplotlib.axis_5">
    <g id="xtick_13">
     <g id="line2d_29">
      <g>
       <use xlink:href="#mf1a03cb508" x="60.48" y="535.68" style="stroke: #000000; stroke-width: 0.8"/>
      </g>
     </g>
     <g id="text_13">
      <!-- 0e+00 -->
      <g transform="translate(43.669844 550.278437) scale(0.1 -0.1)">
       <use xlink:href="#DejaVuSans-30"/>
       <use xlink:href="#DejaVuSans-65" transform="translate(63.623047 0)"/>
       <use xlink:href="#DejaVuSans-2b" transform="translate(125.146484 0)"/>
       <use xlink:href="#DejaVuSans-30" transform="translate(208.935547 0)"/>
       <use xlink:href="#DejaVuSans-30" transform="translate(272.558594 0)"/>
      </g>
     </g>
    </g>
    <g id="xtick_14">
     <g id="line2d_30">
      <g>
       <use xlink:href="#mf1a03cb508" x="144.144" y="535.68" style="stroke: #000000; stroke-width: 0.8"/>
      </g>
     </g>
     <g id="text_14">
      <!-- 2e-01 -->
      <g transform="translate(129.719781 550.278437) scale(0.1 -0.1)">
       <use xlink:href="#DejaVuSans-32"/>
       <use xlink:href="#DejaVuSans-65" transform="translate(63.623047 0)"/>
       <use xlink:href="#DejaVuSans-2d" transform="translate(125.146484 0)"/>
       <use xlink:href="#DejaVuSans-30" transform="translate(161.230469 0)"/>
       <use xlink:href="#DejaVuSans-31" transform="translate(224.853516 0)"/>
      </g>
     </g>
    </g>
    <g id="xtick_15">
     <g id="line2d_31">
      <g>
       <use xlink:href="#mf1a03cb508" x="227.808" y="535.68" style="stroke: #000000; stroke-width: 0.8"/>
      </g>
     </g>
     <g id="text_15">
      <!-- 4e-01 -->
      <g transform="translate(213.383781 550.278437) scale(0.1 -0.1)">
       <defs>
        <path id="DejaVuSans-34" d="M 2419 4116 
L 825 1625 
L 2419 1625 
L 2419 4116 
z
M 2253 4666 
L 3047 4666 
L 3047 1625 
L 3713 1625 
L 3713 1100 
L 3047 1100 
L 3047 0 
L 2419 0 
L 2419 1100 
L 313 1100 
L 313 1709 
L 2253 4666 
z
" transform="scale(0.015625)"/>
       </defs>
       <use xlink:href="#DejaVuSans-34"/>
       <use xlink:href="#DejaVuSans-65" transform="translate(63.623047 0)"/>
       <use xlink:href="#DejaVuSans-2d" transform="translate(125.146484 0)"/>
       <use xlink:href="#DejaVuSans-30" transform="translate(161.230469 0)"/>
       <use xlink:href="#DejaVuSans-31" transform="translate(224.853516 0)"/>
      </g>
     </g>
    </g>
    <g id="xtick_16">
     <g id="line2d_32">
      <g>
       <use xlink:href="#mf1a03cb508" x="311.472" y="535.68" style="stroke: #000000; stroke-width: 0.8"/>
      </g>
     </g>
     <g id="text_16">
      <!-- 6e-01 -->
      <g transform="translate(297.047781 550.278437) scale(0.1 -0.1)">
       <defs>
        <path id="DejaVuSans-36" d="M 2113 2584 
Q 1688 2584 1439 2293 
Q 1191 2003 1191 1497 
Q 1191 994 1439 701 
Q 1688 409 2113 409 
Q 2538 409 2786 701 
Q 3034 994 3034 1497 
Q 3034 2003 2786 2293 
Q 2538 2584 2113 2584 
z
M 3366 4563 
L 3366 3988 
Q 3128 4100 2886 4159 
Q 2644 4219 2406 4219 
Q 1781 4219 1451 3797 
Q 1122 3375 1075 2522 
Q 1259 2794 1537 2939 
Q 1816 3084 2150 3084 
Q 2853 3084 3261 2657 
Q 3669 2231 3669 1497 
Q 3669 778 3244 343 
Q 2819 -91 2113 -91 
Q 1303 -91 875 529 
Q 447 1150 447 2328 
Q 447 3434 972 4092 
Q 1497 4750 2381 4750 
Q 2619 4750 2861 4703 
Q 3103 4656 3366 4563 
z
" transform="scale(0.015625)"/>
       </defs>
       <use xlink:href="#DejaVuSans-36"/>
       <use xlink:href="#DejaVuSans-65" transform="translate(63.623047 0)"/>
       <use xlink:href="#DejaVuSans-2d" transform="translate(125.146484 0)"/>
       <use xlink:href="#DejaVuSans-30" transform="translate(161.230469 0)"/>
       <use xlink:href="#DejaVuSans-31" transform="translate(224.853516 0)"/>
      </g>
     </g>
    </g>
    <g id="xtick_17">
     <g id="line2d_33">
      <g>
       <use xlink:href="#mf1a03cb508" x="395.136" y="535.68" style="stroke: #000000; stroke-width: 0.8"/>
      </g>
     </g>
     <g id="text_17">
      <!-- 8e-01 -->
      <g transform="translate(380.711781 550.278437) scale(0.1 -0.1)">
       <use xlink:href="#DejaVuSans-38"/>
       <use xlink:href="#DejaVuSans-65" transform="translate(63.623047 0)"/>
       <use xlink:href="#DejaVuSans-2d" transform="translate(125.146484 0)"/>
       <use xlink:href="#DejaVuSans-30" transform="translate(161.230469 0)"/>
       <use xlink:href="#DejaVuSans-31" transform="translate(224.853516 0)"/>
      </g>
     </g>
    </g>
    <g id="xtick_18">
     <g id="line2d_34">
      <g>
       <use xlink:href="#mf1a03cb508" x="478.8" y="535.68" style="stroke: #000000; stroke-width: 0.8"/>
      </g>
     </g>
     <g id="text_18">
      <!-- 1e+00 -->
      <g transform="translate(461.989844 550.278437) scale(0.1 -0.1)">
       <use xlink:href="#DejaVuSans-31"/>
       <use xlink:href="#DejaVuSans-65" transform="translate(63.623047 0)"/>
       <use xlink:href="#DejaVuSans-2b" transform="translate(125.146484 0)"/>
       <use xlink:href="#DejaVuSans-30" transform="translate(208.935547 0)"/>
       <use xlink:href="#DejaVuSans-30" transform="translate(272.558594 0)"/>
      </g>
     </g>
    </g>
    <g id="text_19">
     <!-- Coordinate, $x$ -->
     <g transform="translate(235.99 563.956563) scale(0.1 -0.1)">
      <defs>
       <path id="DejaVuSans-43" d="M 4122 4306 
L 4122 3641 
Q 3803 3938 3442 4084 
Q 3081 4231 2675 4231 
Q 1875 4231 1450 3742 
Q 1025 3253 1025 2328 
Q 1025 1406 1450 917 
Q 1875 428 2675 428 
Q 3081 428 3442 575 
Q 3803 722 4122 1019 
L 4122 359 
Q 3791 134 3420 21 
Q 3050 -91 2638 -91 
Q 1578 -91 968 557 
Q 359 1206 359 2328 
Q 359 3453 968 4101 
Q 1578 4750 2638 4750 
Q 3056 4750 3426 4639 
Q 3797 4528 4122 4306 
z
" transform="scale(0.015625)"/>
      </defs>
      <use xlink:href="#DejaVuSans-43" transform="translate(0 0.015625)"/>
      <use xlink:href="#DejaVuSans-6f" transform="translate(69.824219 0.015625)"/>
      <use xlink:href="#DejaVuSans-6f" transform="translate(131.005859 0.015625)"/>
      <use xlink:href="#DejaVuSans-72" transform="translate(192.1875 0.015625)"/>
      <use xlink:href="#DejaVuSans-64" transform="translate(233.300781 0.015625)"/>
      <use xlink:href="#DejaVuSans-69" transform="translate(296.777344 0.015625)"/>
      <use xlink:href="#DejaVuSans-6e" transform="translate(324.560547 0.015625)"/>
      <use xlink:href="#DejaVuSans-61" transform="translate(387.939453 0.015625)"/>
      <use xlink:href="#DejaVuSans-74" transform="translate(449.21875 0.015625)"/>
      <use xlink:href="#DejaVuSans-65" transform="translate(488.427734 0.015625)"/>
      <use xlink:href="#DejaVuSans-2c" transform="translate(549.951172 0.015625)"/>
      <use xlink:href="#DejaVuSans-20" transform="translate(581.738281 0.015625)"/>
      <use xlink:href="#DejaVuSans-Oblique-78" transform="translate(613.525391 0.015625)"/>
     </g>
    </g>
   </g>
   <g id="matplotlib.axis_6">
    <g id="ytick_11">
     <g id="line2d_35">
      <g>
       <use xlink:href="#m804bf541f2" x="60.48" y="519.605581" style="stroke: #000000; stroke-width: 0.8"/>
      </g>
     </g>
     <g id="text_20">
      <!-- -3e-01 -->
      <g transform="translate(21.02375 523.4048) scale(0.1 -0.1)">
       <defs>
        <path id="DejaVuSans-33" d="M 2597 2516 
Q 3050 2419 3304 2112 
Q 3559 1806 3559 1356 
Q 3559 666 3084 287 
Q 2609 -91 1734 -91 
Q 1441 -91 1130 -33 
Q 819 25 488 141 
L 488 750 
Q 750 597 1062 519 
Q 1375 441 1716 441 
Q 2309 441 2620 675 
Q 2931 909 2931 1356 
Q 2931 1769 2642 2001 
Q 2353 2234 1838 2234 
L 1294 2234 
L 1294 2753 
L 1863 2753 
Q 2328 2753 2575 2939 
Q 2822 3125 2822 3475 
Q 2822 3834 2567 4026 
Q 2313 4219 1838 4219 
Q 1578 4219 1281 4162 
Q 984 4106 628 3988 
L 628 4550 
Q 988 4650 1302 4700 
Q 1616 4750 1894 4750 
Q 2613 4750 3031 4423 
Q 3450 4097 3450 3541 
Q 3450 3153 3228 2886 
Q 3006 2619 2597 2516 
z
" transform="scale(0.015625)"/>
       </defs>
       <use xlink:href="#DejaVuSans-2d"/>
       <use xlink:href="#DejaVuSans-33" transform="translate(36.083984 0)"/>
       <use xlink:href="#DejaVuSans-65" transform="translate(99.707031 0)"/>
       <use xlink:href="#DejaVuSans-2d" transform="translate(161.230469 0)"/>
       <use xlink:href="#DejaVuSans-30" transform="translate(197.314453 0)"/>
       <use xlink:href="#DejaVuSans-31" transform="translate(260.9375 0)"/>
      </g>
     </g>
    </g>
    <g id="ytick_12">
     <g id="line2d_36">
      <g>
       <use xlink:href="#m804bf541f2" x="60.48" y="487.456744" style="stroke: #000000; stroke-width: 0.8"/>
      </g>
     </g>
     <g id="text_21">
      <!-- -2e-01 -->
      <g transform="translate(21.02375 491.255963) scale(0.1 -0.1)">
       <use xlink:href="#DejaVuSans-2d"/>
       <use xlink:href="#DejaVuSans-32" transform="translate(36.083984 0)"/>
       <use xlink:href="#DejaVuSans-65" transform="translate(99.707031 0)"/>
       <use xlink:href="#DejaVuSans-2d" transform="translate(161.230469 0)"/>
       <use xlink:href="#DejaVuSans-30" transform="translate(197.314453 0)"/>
       <use xlink:href="#DejaVuSans-31" transform="translate(260.9375 0)"/>
      </g>
     </g>
    </g>
    <g id="ytick_13">
     <g id="line2d_37">
      <g>
       <use xlink:href="#m804bf541f2" x="60.48" y="455.307907" style="stroke: #000000; stroke-width: 0.8"/>
      </g>
     </g>
     <g id="text_22">
      <!-- -1e-01 -->
      <g transform="translate(21.02375 459.107126) scale(0.1 -0.1)">
       <use xlink:href="#DejaVuSans-2d"/>
       <use xlink:href="#DejaVuSans-31" transform="translate(36.083984 0)"/>
       <use xlink:href="#DejaVuSans-65" transform="translate(99.707031 0)"/>
       <use xlink:href="#DejaVuSans-2d" transform="translate(161.230469 0)"/>
       <use xlink:href="#DejaVuSans-30" transform="translate(197.314453 0)"/>
       <use xlink:href="#DejaVuSans-31" transform="translate(260.9375 0)"/>
      </g>
     </g>
    </g>
    <g id="ytick_14">
     <g id="line2d_38">
      <g>
       <use xlink:href="#m804bf541f2" x="60.48" y="423.15907" style="stroke: #000000; stroke-width: 0.8"/>
      </g>
     </g>
     <g id="text_23">
      <!-- 0e+00 -->
      <g transform="translate(19.859687 426.958289) scale(0.1 -0.1)">
       <use xlink:href="#DejaVuSans-30"/>
       <use xlink:href="#DejaVuSans-65" transform="translate(63.623047 0)"/>
       <use xlink:href="#DejaVuSans-2b" transform="translate(125.146484 0)"/>
       <use xlink:href="#DejaVuSans-30" transform="translate(208.935547 0)"/>
       <use xlink:href="#DejaVuSans-30" transform="translate(272.558594 0)"/>
      </g>
     </g>
    </g>
    <g id="text_24">
     <!-- Deflection, $v(x)$ -->
     <g transform="translate(13.78 515.240465) rotate(-90) scale(0.1 -0.1)">
      <defs>
       <path id="DejaVuSans-44" d="M 1259 4147 
L 1259 519 
L 2022 519 
Q 2988 519 3436 956 
Q 3884 1394 3884 2338 
Q 3884 3275 3436 3711 
Q 2988 4147 2022 4147 
L 1259 4147 
z
M 628 4666 
L 1925 4666 
Q 3281 4666 3915 4102 
Q 4550 3538 4550 2338 
Q 4550 1131 3912 565 
Q 3275 0 1925 0 
L 628 0 
L 628 4666 
z
" transform="scale(0.015625)"/>
       <path id="DejaVuSans-6c" d="M 603 4863 
L 1178 4863 
L 1178 0 
L 603 0 
L 603 4863 
z
" transform="scale(0.015625)"/>
       <path id="DejaVuSans-Oblique-76" d="M 459 3500 
L 1069 3500 
L 1581 525 
L 3256 3500 
L 3866 3500 
L 1875 0 
L 1100 0 
L 459 3500 
z
" transform="scale(0.015625)"/>
      </defs>
      <use xlink:href="#DejaVuSans-44" transform="translate(0 0.015625)"/>
      <use xlink:href="#DejaVuSans-65" transform="translate(77.001953 0.015625)"/>
      <use xlink:href="#DejaVuSans-66" transform="translate(138.525391 0.015625)"/>
      <use xlink:href="#DejaVuSans-6c" transform="translate(173.730469 0.015625)"/>
      <use xlink:href="#DejaVuSans-65" transform="translate(201.513672 0.015625)"/>
      <use xlink:href="#DejaVuSans-63" transform="translate(263.037109 0.015625)"/>
      <use xlink:href="#DejaVuSans-74" transform="translate(318.017578 0.015625)"/>
      <use xlink:href="#DejaVuSans-69" transform="translate(357.226562 0.015625)"/>
      <use xlink:href="#DejaVuSans-6f" transform="translate(385.009766 0.015625)"/>
      <use xlink:href="#DejaVuSans-6e" transform="translate(446.191406 0.015625)"/>
      <use xlink:href="#DejaVuSans-2c" transform="translate(509.570312 0.015625)"/>
      <use xlink:href="#DejaVuSans-20" transform="translate(541.357422 0.015625)"/>
      <use xlink:href="#DejaVuSans-Oblique-76" transform="translate(573.144531 0.015625)"/>
      <use xlink:href="#DejaVuSans-28" transform="translate(632.324219 0.015625)"/>
      <use xlink:href="#DejaVuSans-Oblique-78" transform="translate(671.337891 0.015625)"/>
      <use xlink:href="#DejaVuSans-29" transform="translate(730.517578 0.015625)"/>
     </g>
    </g>
   </g>
   <g id="line2d_39">
    <path d="M 60.48 423.15907 
L 64.705455 423.175415 
L 68.930909 423.224231 
L 73.156364 423.305186 
L 77.381818 423.417948 
L 81.607273 423.562187 
L 85.832727 423.737571 
L 90.058182 423.943768 
L 94.283636 424.180447 
L 98.509091 424.447278 
L 102.734545 424.743928 
L 106.96 425.070066 
L 111.185455 425.425361 
L 115.410909 425.809482 
L 119.636364 426.222098 
L 123.861818 426.662876 
L 128.087273 427.131486 
L 132.312727 427.627596 
L 136.538182 428.150875 
L 140.763636 428.700992 
L 144.989091 429.277615 
L 149.214545 429.880414 
L 153.44 430.509055 
L 157.665455 431.16321 
L 161.890909 431.842545 
L 166.116364 432.54673 
L 170.341818 433.275433 
L 174.567273 434.028324 
L 178.792727 434.80507 
L 183.018182 435.60534 
L 187.243636 436.428803 
L 191.469091 437.275129 
L 195.694545 438.143984 
L 199.92 439.035039 
L 204.145455 439.947961 
L 208.370909 440.88242 
L 212.596364 441.838084 
L 216.821818 442.814621 
L 221.047273 443.811701 
L 225.272727 444.828992 
L 229.498182 445.866163 
L 233.723636 446.922882 
L 237.949091 447.998818 
L 242.174545 449.09364 
L 246.4 450.207017 
L 250.625455 451.338617 
L 254.850909 452.488108 
L 259.076364 453.65516 
L 263.301818 454.839441 
L 267.527273 456.040619 
L 271.752727 457.258365 
L 275.978182 458.492345 
L 280.203636 459.742229 
L 284.429091 461.007686 
L 288.654545 462.288383 
L 292.88 463.583991 
L 297.105455 464.894177 
L 301.330909 466.21861 
L 305.556364 467.556959 
L 309.781818 468.908893 
L 314.007273 470.274079 
L 318.232727 471.652188 
L 322.458182 473.042887 
L 326.683636 474.445845 
L 330.909091 475.860731 
L 335.134545 477.287213 
L 339.36 478.724961 
L 343.585455 480.173643 
L 347.810909 481.632927 
L 352.036364 483.102482 
L 356.261818 484.581978 
L 360.487273 486.071081 
L 364.712727 487.569462 
L 368.938182 489.076789 
L 373.163636 490.592731 
L 377.389091 492.116955 
L 381.614545 493.649132 
L 385.84 495.188929 
L 390.065455 496.736015 
L 394.290909 498.29006 
L 398.516364 499.850731 
L 402.741818 501.417697 
L 406.967273 502.990627 
L 411.192727 504.56919 
L 415.418182 506.153053 
L 419.643636 507.741887 
L 423.869091 509.33536 
L 428.094545 510.93314 
L 432.32 512.534895 
L 436.545455 514.140296 
L 440.770909 515.749009 
L 444.996364 517.360705 
L 449.221818 518.975051 
L 453.447273 520.591716 
L 457.672727 522.21037 
L 461.898182 523.83068 
L 466.123636 525.452316 
L 470.349091 527.074945 
L 474.574545 528.698237 
L 478.8 530.32186 
" clip-path="url(#p9c4fc364dd)" style="fill: none; stroke: #000000; stroke-width: 3; stroke-linecap: square"/>
   </g>
   <g id="line2d_40">
    <path d="M 60.48 423.15907 
L 478.8 423.15907 
" clip-path="url(#p9c4fc364dd)" style="fill: none; stroke-dasharray: 5.55,2.4; stroke-dashoffset: 0; stroke: #000000; stroke-width: 1.5"/>
   </g>
   <g id="patch_14">
    <path d="M 60.48 535.68 
L 60.48 417.80093 
" style="fill: none; stroke: #000000; stroke-width: 0.8; stroke-linejoin: miter; stroke-linecap: square"/>
   </g>
   <g id="patch_15">
    <path d="M 478.8 535.68 
L 478.8 417.80093 
" style="fill: none; stroke: #000000; stroke-width: 0.8; stroke-linejoin: miter; stroke-linecap: square"/>
   </g>
   <g id="patch_16">
    <path d="M 60.48 535.68 
L 478.8 535.68 
" style="fill: none; stroke: #000000; stroke-width: 0.8; stroke-linejoin: miter; stroke-linecap: square"/>
   </g>
   <g id="patch_17">
    <path d="M 60.48 417.80093 
L 478.8 417.80093 
" style="fill: none; stroke: #000000; stroke-width: 0.8; stroke-linejoin: miter; stroke-linecap: square"/>
   </g>
  </g>
 </g>
 <defs>
  <clipPath id="p34aafcf7f1">
   <rect x="60.48" y="28.8" width="418.32" height="117.87907"/>
  </clipPath>
  <clipPath id="p1ce6058599">
   <rect x="60.48" y="158.466977" width="418.32" height="117.87907"/>
  </clipPath>
  <clipPath id="pc50160d93e">
   <rect x="60.48" y="288.133953" width="418.32" height="117.87907"/>
  </clipPath>
  <clipPath id="p9c4fc364dd">
   <rect x="60.48" y="417.80093" width="418.32" height="117.87907"/>
  </clipPath>
 </defs>
</svg>
