<?xml version="1.0" encoding="utf-8" standalone="no"?>
<!DOCTYPE svg PUBLIC "-//W3C//DTD SVG 1.1//EN"
  "http://www.w3.org/Graphics/SVG/1.1/DTD/svg11.dtd">
<svg height="576pt" version="1.1" viewBox="0 0 504 576" width="504pt" xmlns="http://www.w3.org/2000/svg" xmlns:xlink="http://www.w3.org/1999/xlink">
 <metadata>
  <rdf:RDF xmlns:cc="http://creativecommons.org/ns#" xmlns:dc="http://purl.org/dc/elements/1.1/" xmlns:rdf="http://www.w3.org/1999/02/22-rdf-syntax-ns#">
   <cc:Work>
    <dc:type rdf:resource="http://purl.org/dc/dcmitype/StillImage"/>
    <dc:date>2022-10-28T17:22:12.998902</dc:date>
    <dc:format>image/svg+xml</dc:format>
    <dc:creator>
     <cc:Agent>
      <dc:title>Matplotlib v3.4.2, https://matplotlib.org/</dc:title>
     </cc:Agent>
    </dc:creator>
   </cc:Work>
  </rdf:RDF>
 </metadata>
 <defs>
  <style type="text/css">*{stroke-linecap:butt;stroke-linejoin:round;}</style>
 </defs>
 <g id="figure_1">
  <g id="patch_1">
   <path d="M 0 576 
L 504 576 
L 504 0 
L 0 0 
z
" style="fill:#ffffff;"/>
  </g>
  <g id="axes_1">
   <g id="PolyCollection_1">
    <defs>
     <path d="M 60.48 -488.260465 
L 60.48 -488.260465 
L 62.592727 -488.260465 
L 64.705455 -488.260465 
L 66.818182 -488.260465 
L 68.930909 -488.260465 
L 71.043636 -488.260465 
L 73.156364 -488.260465 
L 75.269091 -488.260465 
L 77.381818 -488.260465 
L 79.494545 -488.260465 
L 81.607273 -488.260465 
L 83.72 -488.260465 
L 85.832727 -488.260465 
L 87.945455 -488.260465 
L 90.058182 -488.260465 
L 92.170909 -488.260465 
L 94.283636 -488.260465 
L 96.396364 -488.260465 
L 98.509091 -488.260465 
L 100.621818 -488.260465 
L 102.734545 -488.260465 
L 104.847273 -488.260465 
L 106.96 -488.260465 
L 109.072727 -488.260465 
L 111.185455 -488.260465 
L 113.298182 -488.260465 
L 115.410909 -488.260465 
L 117.523636 -488.260465 
L 119.636364 -488.260465 
L 121.749091 -488.260465 
L 123.861818 -488.260465 
L 125.974545 -488.260465 
L 128.087273 -488.260465 
L 130.2 -488.260465 
L 132.312727 -488.260465 
L 134.425455 -488.260465 
L 136.538182 -488.260465 
L 138.650909 -488.260465 
L 140.763636 -488.260465 
L 142.876364 -488.260465 
L 144.989091 -488.260465 
L 147.101818 -488.260465 
L 149.214545 -488.260465 
L 151.327273 -488.260465 
L 153.44 -488.260465 
L 155.552727 -488.260465 
L 157.665455 -488.260465 
L 159.778182 -488.260465 
L 161.890909 -488.260465 
L 164.003636 -488.260465 
L 166.116364 -488.260465 
L 168.229091 -488.260465 
L 170.341818 -488.260465 
L 172.454545 -488.260465 
L 174.567273 -488.260465 
L 176.68 -488.260465 
L 178.792727 -488.260465 
L 180.905455 -488.260465 
L 183.018182 -488.260465 
L 185.130909 -488.260465 
L 187.243636 -488.260465 
L 189.356364 -488.260465 
L 191.469091 -488.260465 
L 193.581818 -488.260465 
L 195.694545 -488.260465 
L 197.807273 -488.260465 
L 199.92 -488.260465 
L 202.032727 -488.260465 
L 204.145455 -488.260465 
L 206.258182 -488.260465 
L 208.370909 -488.260465 
L 210.483636 -488.260465 
L 212.596364 -488.260465 
L 214.709091 -488.260465 
L 216.821818 -488.260465 
L 218.934545 -488.260465 
L 221.047273 -488.260465 
L 223.16 -488.260465 
L 225.272727 -488.260465 
L 227.385455 -488.260465 
L 229.498182 -488.260465 
L 231.610909 -488.260465 
L 233.723636 -488.260465 
L 235.836364 -488.260465 
L 237.949091 -488.260465 
L 240.061818 -488.260465 
L 242.174545 -488.260465 
L 244.287273 -488.260465 
L 246.4 -488.260465 
L 248.512727 -488.260465 
L 250.625455 -488.260465 
L 252.738182 -488.260465 
L 254.850909 -488.260465 
L 256.963636 -488.260465 
L 259.076364 -488.260465 
L 261.189091 -488.260465 
L 263.301818 -488.260465 
L 265.414545 -488.260465 
L 267.527273 -488.260465 
L 269.64 -488.260465 
L 269.64 -488.260465 
L 269.64 -488.260465 
L 267.527273 -488.260465 
L 265.414545 -488.260465 
L 263.301818 -488.260465 
L 261.189091 -488.260465 
L 259.076364 -488.260465 
L 256.963636 -488.260465 
L 254.850909 -488.260465 
L 252.738182 -488.260465 
L 250.625455 -488.260465 
L 248.512727 -488.260465 
L 246.4 -488.260465 
L 244.287273 -488.260465 
L 242.174545 -488.260465 
L 240.061818 -488.260465 
L 237.949091 -488.260465 
L 235.836364 -488.260465 
L 233.723636 -488.260465 
L 231.610909 -488.260465 
L 229.498182 -488.260465 
L 227.385455 -488.260465 
L 225.272727 -488.260465 
L 223.16 -488.260465 
L 221.047273 -488.260465 
L 218.934545 -488.260465 
L 216.821818 -488.260465 
L 214.709091 -488.260465 
L 212.596364 -488.260465 
L 210.483636 -488.260465 
L 208.370909 -488.260465 
L 206.258182 -488.260465 
L 204.145455 -488.260465 
L 202.032727 -488.260465 
L 199.92 -488.260465 
L 197.807273 -488.260465 
L 195.694545 -488.260465 
L 193.581818 -488.260465 
L 191.469091 -488.260465 
L 189.356364 -488.260465 
L 187.243636 -488.260465 
L 185.130909 -488.260465 
L 183.018182 -488.260465 
L 180.905455 -488.260465 
L 178.792727 -488.260465 
L 176.68 -488.260465 
L 174.567273 -488.260465 
L 172.454545 -488.260465 
L 170.341818 -488.260465 
L 168.229091 -488.260465 
L 166.116364 -488.260465 
L 164.003636 -488.260465 
L 161.890909 -488.260465 
L 159.778182 -488.260465 
L 157.665455 -488.260465 
L 155.552727 -488.260465 
L 153.44 -488.260465 
L 151.327273 -488.260465 
L 149.214545 -488.260465 
L 147.101818 -488.260465 
L 144.989091 -488.260465 
L 142.876364 -488.260465 
L 140.763636 -488.260465 
L 138.650909 -488.260465 
L 136.538182 -488.260465 
L 134.425455 -488.260465 
L 132.312727 -488.260465 
L 130.2 -488.260465 
L 128.087273 -488.260465 
L 125.974545 -488.260465 
L 123.861818 -488.260465 
L 121.749091 -488.260465 
L 119.636364 -488.260465 
L 117.523636 -488.260465 
L 115.410909 -488.260465 
L 113.298182 -488.260465 
L 111.185455 -488.260465 
L 109.072727 -488.260465 
L 106.96 -488.260465 
L 104.847273 -488.260465 
L 102.734545 -488.260465 
L 100.621818 -488.260465 
L 98.509091 -488.260465 
L 96.396364 -488.260465 
L 94.283636 -488.260465 
L 92.170909 -488.260465 
L 90.058182 -488.260465 
L 87.945455 -488.260465 
L 85.832727 -488.260465 
L 83.72 -488.260465 
L 81.607273 -488.260465 
L 79.494545 -488.260465 
L 77.381818 -488.260465 
L 75.269091 -488.260465 
L 73.156364 -488.260465 
L 71.043636 -488.260465 
L 68.930909 -488.260465 
L 66.818182 -488.260465 
L 64.705455 -488.260465 
L 62.592727 -488.260465 
L 60.48 -488.260465 
z
" id="m997c1c8f4e" style="stroke:#4169e1;stroke-opacity:0.35;stroke-width:2;"/>
    </defs>
    <g clip-path="url(#pbc9dfb9225)">
     <use style="fill:#4169e1;fill-opacity:0.35;stroke:#4169e1;stroke-opacity:0.35;stroke-width:2;" x="0" xlink:href="#m997c1c8f4e" y="576"/>
    </g>
   </g>
   <g id="PolyCollection_2">
    <defs>
     <path d="M 269.64 -488.260465 
L 269.64 -488.260465 
L 271.752727 -488.260465 
L 273.865455 -488.260465 
L 275.978182 -488.260465 
L 278.090909 -488.260465 
L 280.203636 -488.260465 
L 282.316364 -488.260465 
L 284.429091 -488.260465 
L 286.541818 -488.260465 
L 288.654545 -488.260465 
L 290.767273 -488.260465 
L 292.88 -488.260465 
L 294.992727 -488.260465 
L 297.105455 -488.260465 
L 299.218182 -488.260465 
L 301.330909 -488.260465 
L 303.443636 -488.260465 
L 305.556364 -488.260465 
L 307.669091 -488.260465 
L 309.781818 -488.260465 
L 311.894545 -488.260465 
L 314.007273 -488.260465 
L 316.12 -488.260465 
L 318.232727 -488.260465 
L 320.345455 -488.260465 
L 322.458182 -488.260465 
L 324.570909 -488.260465 
L 326.683636 -488.260465 
L 328.796364 -488.260465 
L 330.909091 -488.260465 
L 333.021818 -488.260465 
L 335.134545 -488.260465 
L 337.247273 -488.260465 
L 339.36 -488.260465 
L 341.472727 -488.260465 
L 343.585455 -488.260465 
L 345.698182 -488.260465 
L 347.810909 -488.260465 
L 349.923636 -488.260465 
L 352.036364 -488.260465 
L 354.149091 -488.260465 
L 356.261818 -488.260465 
L 358.374545 -488.260465 
L 360.487273 -488.260465 
L 362.6 -488.260465 
L 364.712727 -488.260465 
L 366.825455 -488.260465 
L 368.938182 -488.260465 
L 371.050909 -488.260465 
L 373.163636 -488.260465 
L 375.276364 -488.260465 
L 377.389091 -488.260465 
L 379.501818 -488.260465 
L 381.614545 -488.260465 
L 383.727273 -488.260465 
L 385.84 -488.260465 
L 387.952727 -488.260465 
L 390.065455 -488.260465 
L 392.178182 -488.260465 
L 394.290909 -488.260465 
L 396.403636 -488.260465 
L 398.516364 -488.260465 
L 400.629091 -488.260465 
L 402.741818 -488.260465 
L 404.854545 -488.260465 
L 406.967273 -488.260465 
L 409.08 -488.260465 
L 411.192727 -488.260465 
L 413.305455 -488.260465 
L 415.418182 -488.260465 
L 417.530909 -488.260465 
L 419.643636 -488.260465 
L 421.756364 -488.260465 
L 423.869091 -488.260465 
L 425.981818 -488.260465 
L 428.094545 -488.260465 
L 430.207273 -488.260465 
L 432.32 -488.260465 
L 434.432727 -488.260465 
L 436.545455 -488.260465 
L 438.658182 -488.260465 
L 440.770909 -488.260465 
L 442.883636 -488.260465 
L 444.996364 -488.260465 
L 447.109091 -488.260465 
L 449.221818 -488.260465 
L 451.334545 -488.260465 
L 453.447273 -488.260465 
L 455.56 -488.260465 
L 457.672727 -488.260465 
L 459.785455 -488.260465 
L 461.898182 -488.260465 
L 464.010909 -488.260465 
L 466.123636 -488.260465 
L 468.236364 -488.260465 
L 470.349091 -488.260465 
L 472.461818 -488.260465 
L 474.574545 -488.260465 
L 476.687273 -488.260465 
L 478.8 -488.260465 
L 478.8 -488.260465 
L 478.8 -488.260465 
L 476.687273 -488.260465 
L 474.574545 -488.260465 
L 472.461818 -488.260465 
L 470.349091 -488.260465 
L 468.236364 -488.260465 
L 466.123636 -488.260465 
L 464.010909 -488.260465 
L 461.898182 -488.260465 
L 459.785455 -488.260465 
L 457.672727 -488.260465 
L 455.56 -488.260465 
L 453.447273 -488.260465 
L 451.334545 -488.260465 
L 449.221818 -488.260465 
L 447.109091 -488.260465 
L 444.996364 -488.260465 
L 442.883636 -488.260465 
L 440.770909 -488.260465 
L 438.658182 -488.260465 
L 436.545455 -488.260465 
L 434.432727 -488.260465 
L 432.32 -488.260465 
L 430.207273 -488.260465 
L 428.094545 -488.260465 
L 425.981818 -488.260465 
L 423.869091 -488.260465 
L 421.756364 -488.260465 
L 419.643636 -488.260465 
L 417.530909 -488.260465 
L 415.418182 -488.260465 
L 413.305455 -488.260465 
L 411.192727 -488.260465 
L 409.08 -488.260465 
L 406.967273 -488.260465 
L 404.854545 -488.260465 
L 402.741818 -488.260465 
L 400.629091 -488.260465 
L 398.516364 -488.260465 
L 396.403636 -488.260465 
L 394.290909 -488.260465 
L 392.178182 -488.260465 
L 390.065455 -488.260465 
L 387.952727 -488.260465 
L 385.84 -488.260465 
L 383.727273 -488.260465 
L 381.614545 -488.260465 
L 379.501818 -488.260465 
L 377.389091 -488.260465 
L 375.276364 -488.260465 
L 373.163636 -488.260465 
L 371.050909 -488.260465 
L 368.938182 -488.260465 
L 366.825455 -488.260465 
L 364.712727 -488.260465 
L 362.6 -488.260465 
L 360.487273 -488.260465 
L 358.374545 -488.260465 
L 356.261818 -488.260465 
L 354.149091 -488.260465 
L 352.036364 -488.260465 
L 349.923636 -488.260465 
L 347.810909 -488.260465 
L 345.698182 -488.260465 
L 343.585455 -488.260465 
L 341.472727 -488.260465 
L 339.36 -488.260465 
L 337.247273 -488.260465 
L 335.134545 -488.260465 
L 333.021818 -488.260465 
L 330.909091 -488.260465 
L 328.796364 -488.260465 
L 326.683636 -488.260465 
L 324.570909 -488.260465 
L 322.458182 -488.260465 
L 320.345455 -488.260465 
L 318.232727 -488.260465 
L 316.12 -488.260465 
L 314.007273 -488.260465 
L 311.894545 -488.260465 
L 309.781818 -488.260465 
L 307.669091 -488.260465 
L 305.556364 -488.260465 
L 303.443636 -488.260465 
L 301.330909 -488.260465 
L 299.218182 -488.260465 
L 297.105455 -488.260465 
L 294.992727 -488.260465 
L 292.88 -488.260465 
L 290.767273 -488.260465 
L 288.654545 -488.260465 
L 286.541818 -488.260465 
L 284.429091 -488.260465 
L 282.316364 -488.260465 
L 280.203636 -488.260465 
L 278.090909 -488.260465 
L 275.978182 -488.260465 
L 273.865455 -488.260465 
L 271.752727 -488.260465 
L 269.64 -488.260465 
z
" id="m8d67976f1c" style="stroke:#4169e1;stroke-opacity:0.35;stroke-width:2;"/>
    </defs>
    <g clip-path="url(#pbc9dfb9225)">
     <use style="fill:#4169e1;fill-opacity:0.35;stroke:#4169e1;stroke-opacity:0.35;stroke-width:2;" x="0" xlink:href="#m8d67976f1c" y="576"/>
    </g>
   </g>
   <g id="patch_2">
    <path d="M 269.64 87.739535 
L 266.71176 79.488 
L 269.22168 79.488 
L 269.22168 34.693953 
L 270.05832 34.693953 
L 270.05832 79.488 
L 272.56824 79.488 
z
" style="fill:#2e8b57;stroke:#2e8b57;stroke-linejoin:miter;"/>
   </g>
   <g id="line2d_1">
    <path clip-path="url(#pbc9dfb9225)" d="M 60.48 87.739535 
L 62.592727 87.739535 
L 64.705455 87.739535 
L 66.818182 87.739535 
L 68.930909 87.739535 
L 71.043636 87.739535 
L 73.156364 87.739535 
L 75.269091 87.739535 
L 77.381818 87.739535 
L 79.494545 87.739535 
L 81.607273 87.739535 
L 83.72 87.739535 
L 85.832727 87.739535 
L 87.945455 87.739535 
L 90.058182 87.739535 
L 92.170909 87.739535 
L 94.283636 87.739535 
L 96.396364 87.739535 
L 98.509091 87.739535 
L 100.621818 87.739535 
L 102.734545 87.739535 
L 104.847273 87.739535 
L 106.96 87.739535 
L 109.072727 87.739535 
L 111.185455 87.739535 
L 113.298182 87.739535 
L 115.410909 87.739535 
L 117.523636 87.739535 
L 119.636364 87.739535 
L 121.749091 87.739535 
L 123.861818 87.739535 
L 125.974545 87.739535 
L 128.087273 87.739535 
L 130.2 87.739535 
L 132.312727 87.739535 
L 134.425455 87.739535 
L 136.538182 87.739535 
L 138.650909 87.739535 
L 140.763636 87.739535 
L 142.876364 87.739535 
L 144.989091 87.739535 
L 147.101818 87.739535 
L 149.214545 87.739535 
L 151.327273 87.739535 
L 153.44 87.739535 
L 155.552727 87.739535 
L 157.665455 87.739535 
L 159.778182 87.739535 
L 161.890909 87.739535 
L 164.003636 87.739535 
L 166.116364 87.739535 
L 168.229091 87.739535 
L 170.341818 87.739535 
L 172.454545 87.739535 
L 174.567273 87.739535 
L 176.68 87.739535 
L 178.792727 87.739535 
L 180.905455 87.739535 
L 183.018182 87.739535 
L 185.130909 87.739535 
L 187.243636 87.739535 
L 189.356364 87.739535 
L 191.469091 87.739535 
L 193.581818 87.739535 
L 195.694545 87.739535 
L 197.807273 87.739535 
L 199.92 87.739535 
L 202.032727 87.739535 
L 204.145455 87.739535 
L 206.258182 87.739535 
L 208.370909 87.739535 
L 210.483636 87.739535 
L 212.596364 87.739535 
L 214.709091 87.739535 
L 216.821818 87.739535 
L 218.934545 87.739535 
L 221.047273 87.739535 
L 223.16 87.739535 
L 225.272727 87.739535 
L 227.385455 87.739535 
L 229.498182 87.739535 
L 231.610909 87.739535 
L 233.723636 87.739535 
L 235.836364 87.739535 
L 237.949091 87.739535 
L 240.061818 87.739535 
L 242.174545 87.739535 
L 244.287273 87.739535 
L 246.4 87.739535 
L 248.512727 87.739535 
L 250.625455 87.739535 
L 252.738182 87.739535 
L 254.850909 87.739535 
L 256.963636 87.739535 
L 259.076364 87.739535 
L 261.189091 87.739535 
L 263.301818 87.739535 
L 265.414545 87.739535 
L 267.527273 87.739535 
L 269.64 87.739535 
" style="fill:none;stroke:#4169e1;stroke-linecap:square;stroke-width:2;"/>
   </g>
   <g id="line2d_2">
    <path clip-path="url(#pbc9dfb9225)" d="M 60.48 87.739535 
L 269.64 87.739535 
" style="fill:none;stroke:#000000;stroke-linecap:square;stroke-width:3;"/>
   </g>
   <g id="line2d_3">
    <path clip-path="url(#pbc9dfb9225)" d="M 269.64 87.739535 
L 271.752727 87.739535 
L 273.865455 87.739535 
L 275.978182 87.739535 
L 278.090909 87.739535 
L 280.203636 87.739535 
L 282.316364 87.739535 
L 284.429091 87.739535 
L 286.541818 87.739535 
L 288.654545 87.739535 
L 290.767273 87.739535 
L 292.88 87.739535 
L 294.992727 87.739535 
L 297.105455 87.739535 
L 299.218182 87.739535 
L 301.330909 87.739535 
L 303.443636 87.739535 
L 305.556364 87.739535 
L 307.669091 87.739535 
L 309.781818 87.739535 
L 311.894545 87.739535 
L 314.007273 87.739535 
L 316.12 87.739535 
L 318.232727 87.739535 
L 320.345455 87.739535 
L 322.458182 87.739535 
L 324.570909 87.739535 
L 326.683636 87.739535 
L 328.796364 87.739535 
L 330.909091 87.739535 
L 333.021818 87.739535 
L 335.134545 87.739535 
L 337.247273 87.739535 
L 339.36 87.739535 
L 341.472727 87.739535 
L 343.585455 87.739535 
L 345.698182 87.739535 
L 347.810909 87.739535 
L 349.923636 87.739535 
L 352.036364 87.739535 
L 354.149091 87.739535 
L 356.261818 87.739535 
L 358.374545 87.739535 
L 360.487273 87.739535 
L 362.6 87.739535 
L 364.712727 87.739535 
L 366.825455 87.739535 
L 368.938182 87.739535 
L 371.050909 87.739535 
L 373.163636 87.739535 
L 375.276364 87.739535 
L 377.389091 87.739535 
L 379.501818 87.739535 
L 381.614545 87.739535 
L 383.727273 87.739535 
L 385.84 87.739535 
L 387.952727 87.739535 
L 390.065455 87.739535 
L 392.178182 87.739535 
L 394.290909 87.739535 
L 396.403636 87.739535 
L 398.516364 87.739535 
L 400.629091 87.739535 
L 402.741818 87.739535 
L 404.854545 87.739535 
L 406.967273 87.739535 
L 409.08 87.739535 
L 411.192727 87.739535 
L 413.305455 87.739535 
L 415.418182 87.739535 
L 417.530909 87.739535 
L 419.643636 87.739535 
L 421.756364 87.739535 
L 423.869091 87.739535 
L 425.981818 87.739535 
L 428.094545 87.739535 
L 430.207273 87.739535 
L 432.32 87.739535 
L 434.432727 87.739535 
L 436.545455 87.739535 
L 438.658182 87.739535 
L 440.770909 87.739535 
L 442.883636 87.739535 
L 444.996364 87.739535 
L 447.109091 87.739535 
L 449.221818 87.739535 
L 451.334545 87.739535 
L 453.447273 87.739535 
L 455.56 87.739535 
L 457.672727 87.739535 
L 459.785455 87.739535 
L 461.898182 87.739535 
L 464.010909 87.739535 
L 466.123636 87.739535 
L 468.236364 87.739535 
L 470.349091 87.739535 
L 472.461818 87.739535 
L 474.574545 87.739535 
L 476.687273 87.739535 
L 478.8 87.739535 
" style="fill:none;stroke:#4169e1;stroke-linecap:square;stroke-width:2;"/>
   </g>
   <g id="line2d_4">
    <path clip-path="url(#pbc9dfb9225)" d="M 269.64 87.739535 
L 478.8 87.739535 
" style="fill:none;stroke:#000000;stroke-linecap:square;stroke-width:3;"/>
   </g>
   <g id="line2d_5">
    <path d="M 60.48 98.455814 
" style="fill:none;stroke:#1f77b4;stroke-linecap:square;stroke-width:1.5;"/>
    <defs>
     <path d="M 0 -10 
L -10 10 
L 10 10 
z
" id="m91edec20a2" style="stroke:#000000;stroke-linejoin:miter;"/>
    </defs>
    <g>
     <use style="fill:#c0c0c0;stroke:#000000;stroke-linejoin:miter;" x="60.48" xlink:href="#m91edec20a2" y="98.455814"/>
    </g>
   </g>
   <g id="line2d_6">
    <path d="M 50.022 111.315349 
L 70.938 111.315349 
" style="fill:none;stroke:#c0c0c0;stroke-width:5;"/>
   </g>
   <g id="line2d_7">
    <path d="M 50.022 109.172093 
L 70.938 109.172093 
" style="fill:none;stroke:#000000;stroke-width:1.5;"/>
   </g>
   <g id="line2d_8">
    <path d="M 478.8 95.344636 
" style="fill:none;stroke:#ff7f0e;stroke-linecap:square;stroke-width:1.5;"/>
    <defs>
     <path d="M 0 -7.5 
L -7.5 7.5 
L 7.5 7.5 
z
" id="m036b702a29" style="stroke:#000000;stroke-linejoin:miter;"/>
    </defs>
    <g>
     <use style="fill:#c0c0c0;stroke:#000000;stroke-linejoin:miter;" x="478.8" xlink:href="#m036b702a29" y="95.344636"/>
    </g>
   </g>
   <g id="line2d_9">
    <path d="M 482.9832 105.074692 
" style="fill:none;stroke:#2ca02c;stroke-linecap:square;stroke-width:1.5;"/>
    <defs>
     <path d="M 0 3 
C 0.795609 3 1.55874 2.683901 2.12132 2.12132 
C 2.683901 1.55874 3 0.795609 3 0 
C 3 -0.795609 2.683901 -1.55874 2.12132 -2.12132 
C 1.55874 -2.683901 0.795609 -3 0 -3 
C -0.795609 -3 -1.55874 -2.683901 -2.12132 -2.12132 
C -2.683901 -1.55874 -3 -0.795609 -3 0 
C -3 0.795609 -2.683901 1.55874 -2.12132 2.12132 
C -1.55874 2.683901 -0.795609 3 0 3 
z
" id="m2d714ae31e"/>
    </defs>
    <g>
     <use x="482.9832" xlink:href="#m2d714ae31e" y="105.074692"/>
    </g>
   </g>
   <g id="line2d_10">
    <path d="M 474.6168 105.074692 
" style="fill:none;stroke:#d62728;stroke-linecap:square;stroke-width:1.5;"/>
    <g>
     <use x="474.6168" xlink:href="#m2d714ae31e" y="105.074692"/>
    </g>
   </g>
   <g id="line2d_11">
    <path d="M 468.342 111.315349 
L 489.258 111.315349 
" style="fill:none;stroke:#c0c0c0;stroke-width:5;"/>
   </g>
   <g id="line2d_12">
    <path d="M 468.342 109.172093 
L 489.258 109.172093 
" style="fill:none;stroke:#000000;stroke-width:1.5;"/>
   </g>
  </g>
  <g id="axes_2">
   <g id="patch_3">
    <path d="M 60.48 276.346047 
L 478.8 276.346047 
L 478.8 158.466977 
L 60.48 158.466977 
z
" style="fill:#ffffff;"/>
   </g>
   <g id="PolyCollection_3">
    <defs>
     <path d="M 60.48 -358.593488 
L 60.48 -305.012093 
L 62.592727 -305.012093 
L 64.705455 -305.012093 
L 66.818182 -305.012093 
L 68.930909 -305.012093 
L 71.043636 -305.012093 
L 73.156364 -305.012093 
L 75.269091 -305.012093 
L 77.381818 -305.012093 
L 79.494545 -305.012093 
L 81.607273 -305.012093 
L 83.72 -305.012093 
L 85.832727 -305.012093 
L 87.945455 -305.012093 
L 90.058182 -305.012093 
L 92.170909 -305.012093 
L 94.283636 -305.012093 
L 96.396364 -305.012093 
L 98.509091 -305.012093 
L 100.621818 -305.012093 
L 102.734545 -305.012093 
L 104.847273 -305.012093 
L 106.96 -305.012093 
L 109.072727 -305.012093 
L 111.185455 -305.012093 
L 113.298182 -305.012093 
L 115.410909 -305.012093 
L 117.523636 -305.012093 
L 119.636364 -305.012093 
L 121.749091 -305.012093 
L 123.861818 -305.012093 
L 125.974545 -305.012093 
L 128.087273 -305.012093 
L 130.2 -305.012093 
L 132.312727 -305.012093 
L 134.425455 -305.012093 
L 136.538182 -305.012093 
L 138.650909 -305.012093 
L 140.763636 -305.012093 
L 142.876364 -305.012093 
L 144.989091 -305.012093 
L 147.101818 -305.012093 
L 149.214545 -305.012093 
L 151.327273 -305.012093 
L 153.44 -305.012093 
L 155.552727 -305.012093 
L 157.665455 -305.012093 
L 159.778182 -305.012093 
L 161.890909 -305.012093 
L 164.003636 -305.012093 
L 166.116364 -305.012093 
L 168.229091 -305.012093 
L 170.341818 -305.012093 
L 172.454545 -305.012093 
L 174.567273 -305.012093 
L 176.68 -305.012093 
L 178.792727 -305.012093 
L 180.905455 -305.012093 
L 183.018182 -305.012093 
L 185.130909 -305.012093 
L 187.243636 -305.012093 
L 189.356364 -305.012093 
L 191.469091 -305.012093 
L 193.581818 -305.012093 
L 195.694545 -305.012093 
L 197.807273 -305.012093 
L 199.92 -305.012093 
L 202.032727 -305.012093 
L 204.145455 -305.012093 
L 206.258182 -305.012093 
L 208.370909 -305.012093 
L 210.483636 -305.012093 
L 212.596364 -305.012093 
L 214.709091 -305.012093 
L 216.821818 -305.012093 
L 218.934545 -305.012093 
L 221.047273 -305.012093 
L 223.16 -305.012093 
L 225.272727 -305.012093 
L 227.385455 -305.012093 
L 229.498182 -305.012093 
L 231.610909 -305.012093 
L 233.723636 -305.012093 
L 235.836364 -305.012093 
L 237.949091 -305.012093 
L 240.061818 -305.012093 
L 242.174545 -305.012093 
L 244.287273 -305.012093 
L 246.4 -305.012093 
L 248.512727 -305.012093 
L 250.625455 -305.012093 
L 252.738182 -305.012093 
L 254.850909 -305.012093 
L 256.963636 -305.012093 
L 259.076364 -305.012093 
L 261.189091 -305.012093 
L 263.301818 -305.012093 
L 265.414545 -305.012093 
L 267.527273 -305.012093 
L 269.64 -305.012093 
L 269.64 -358.593488 
L 269.64 -358.593488 
L 267.527273 -358.593488 
L 265.414545 -358.593488 
L 263.301818 -358.593488 
L 261.189091 -358.593488 
L 259.076364 -358.593488 
L 256.963636 -358.593488 
L 254.850909 -358.593488 
L 252.738182 -358.593488 
L 250.625455 -358.593488 
L 248.512727 -358.593488 
L 246.4 -358.593488 
L 244.287273 -358.593488 
L 242.174545 -358.593488 
L 240.061818 -358.593488 
L 237.949091 -358.593488 
L 235.836364 -358.593488 
L 233.723636 -358.593488 
L 231.610909 -358.593488 
L 229.498182 -358.593488 
L 227.385455 -358.593488 
L 225.272727 -358.593488 
L 223.16 -358.593488 
L 221.047273 -358.593488 
L 218.934545 -358.593488 
L 216.821818 -358.593488 
L 214.709091 -358.593488 
L 212.596364 -358.593488 
L 210.483636 -358.593488 
L 208.370909 -358.593488 
L 206.258182 -358.593488 
L 204.145455 -358.593488 
L 202.032727 -358.593488 
L 199.92 -358.593488 
L 197.807273 -358.593488 
L 195.694545 -358.593488 
L 193.581818 -358.593488 
L 191.469091 -358.593488 
L 189.356364 -358.593488 
L 187.243636 -358.593488 
L 185.130909 -358.593488 
L 183.018182 -358.593488 
L 180.905455 -358.593488 
L 178.792727 -358.593488 
L 176.68 -358.593488 
L 174.567273 -358.593488 
L 172.454545 -358.593488 
L 170.341818 -358.593488 
L 168.229091 -358.593488 
L 166.116364 -358.593488 
L 164.003636 -358.593488 
L 161.890909 -358.593488 
L 159.778182 -358.593488 
L 157.665455 -358.593488 
L 155.552727 -358.593488 
L 153.44 -358.593488 
L 151.327273 -358.593488 
L 149.214545 -358.593488 
L 147.101818 -358.593488 
L 144.989091 -358.593488 
L 142.876364 -358.593488 
L 140.763636 -358.593488 
L 138.650909 -358.593488 
L 136.538182 -358.593488 
L 134.425455 -358.593488 
L 132.312727 -358.593488 
L 130.2 -358.593488 
L 128.087273 -358.593488 
L 125.974545 -358.593488 
L 123.861818 -358.593488 
L 121.749091 -358.593488 
L 119.636364 -358.593488 
L 117.523636 -358.593488 
L 115.410909 -358.593488 
L 113.298182 -358.593488 
L 111.185455 -358.593488 
L 109.072727 -358.593488 
L 106.96 -358.593488 
L 104.847273 -358.593488 
L 102.734545 -358.593488 
L 100.621818 -358.593488 
L 98.509091 -358.593488 
L 96.396364 -358.593488 
L 94.283636 -358.593488 
L 92.170909 -358.593488 
L 90.058182 -358.593488 
L 87.945455 -358.593488 
L 85.832727 -358.593488 
L 83.72 -358.593488 
L 81.607273 -358.593488 
L 79.494545 -358.593488 
L 77.381818 -358.593488 
L 75.269091 -358.593488 
L 73.156364 -358.593488 
L 71.043636 -358.593488 
L 68.930909 -358.593488 
L 66.818182 -358.593488 
L 64.705455 -358.593488 
L 62.592727 -358.593488 
L 60.48 -358.593488 
z
" id="ma97879137f" style="stroke:#228b22;stroke-opacity:0.35;"/>
    </defs>
    <g clip-path="url(#p68fe09a4e4)">
     <use style="fill:#228b22;fill-opacity:0.35;stroke:#228b22;stroke-opacity:0.35;" x="0" xlink:href="#ma97879137f" y="576"/>
    </g>
   </g>
   <g id="PolyCollection_4">
    <defs>
     <path d="M 269.64 -358.593488 
L 269.64 -412.174884 
L 271.752727 -412.174884 
L 273.865455 -412.174884 
L 275.978182 -412.174884 
L 278.090909 -412.174884 
L 280.203636 -412.174884 
L 282.316364 -412.174884 
L 284.429091 -412.174884 
L 286.541818 -412.174884 
L 288.654545 -412.174884 
L 290.767273 -412.174884 
L 292.88 -412.174884 
L 294.992727 -412.174884 
L 297.105455 -412.174884 
L 299.218182 -412.174884 
L 301.330909 -412.174884 
L 303.443636 -412.174884 
L 305.556364 -412.174884 
L 307.669091 -412.174884 
L 309.781818 -412.174884 
L 311.894545 -412.174884 
L 314.007273 -412.174884 
L 316.12 -412.174884 
L 318.232727 -412.174884 
L 320.345455 -412.174884 
L 322.458182 -412.174884 
L 324.570909 -412.174884 
L 326.683636 -412.174884 
L 328.796364 -412.174884 
L 330.909091 -412.174884 
L 333.021818 -412.174884 
L 335.134545 -412.174884 
L 337.247273 -412.174884 
L 339.36 -412.174884 
L 341.472727 -412.174884 
L 343.585455 -412.174884 
L 345.698182 -412.174884 
L 347.810909 -412.174884 
L 349.923636 -412.174884 
L 352.036364 -412.174884 
L 354.149091 -412.174884 
L 356.261818 -412.174884 
L 358.374545 -412.174884 
L 360.487273 -412.174884 
L 362.6 -412.174884 
L 364.712727 -412.174884 
L 366.825455 -412.174884 
L 368.938182 -412.174884 
L 371.050909 -412.174884 
L 373.163636 -412.174884 
L 375.276364 -412.174884 
L 377.389091 -412.174884 
L 379.501818 -412.174884 
L 381.614545 -412.174884 
L 383.727273 -412.174884 
L 385.84 -412.174884 
L 387.952727 -412.174884 
L 390.065455 -412.174884 
L 392.178182 -412.174884 
L 394.290909 -412.174884 
L 396.403636 -412.174884 
L 398.516364 -412.174884 
L 400.629091 -412.174884 
L 402.741818 -412.174884 
L 404.854545 -412.174884 
L 406.967273 -412.174884 
L 409.08 -412.174884 
L 411.192727 -412.174884 
L 413.305455 -412.174884 
L 415.418182 -412.174884 
L 417.530909 -412.174884 
L 419.643636 -412.174884 
L 421.756364 -412.174884 
L 423.869091 -412.174884 
L 425.981818 -412.174884 
L 428.094545 -412.174884 
L 430.207273 -412.174884 
L 432.32 -412.174884 
L 434.432727 -412.174884 
L 436.545455 -412.174884 
L 438.658182 -412.174884 
L 440.770909 -412.174884 
L 442.883636 -412.174884 
L 444.996364 -412.174884 
L 447.109091 -412.174884 
L 449.221818 -412.174884 
L 451.334545 -412.174884 
L 453.447273 -412.174884 
L 455.56 -412.174884 
L 457.672727 -412.174884 
L 459.785455 -412.174884 
L 461.898182 -412.174884 
L 464.010909 -412.174884 
L 466.123636 -412.174884 
L 468.236364 -412.174884 
L 470.349091 -412.174884 
L 472.461818 -412.174884 
L 474.574545 -412.174884 
L 476.687273 -412.174884 
L 478.8 -412.174884 
L 478.8 -358.593488 
L 478.8 -358.593488 
L 476.687273 -358.593488 
L 474.574545 -358.593488 
L 472.461818 -358.593488 
L 470.349091 -358.593488 
L 468.236364 -358.593488 
L 466.123636 -358.593488 
L 464.010909 -358.593488 
L 461.898182 -358.593488 
L 459.785455 -358.593488 
L 457.672727 -358.593488 
L 455.56 -358.593488 
L 453.447273 -358.593488 
L 451.334545 -358.593488 
L 449.221818 -358.593488 
L 447.109091 -358.593488 
L 444.996364 -358.593488 
L 442.883636 -358.593488 
L 440.770909 -358.593488 
L 438.658182 -358.593488 
L 436.545455 -358.593488 
L 434.432727 -358.593488 
L 432.32 -358.593488 
L 430.207273 -358.593488 
L 428.094545 -358.593488 
L 425.981818 -358.593488 
L 423.869091 -358.593488 
L 421.756364 -358.593488 
L 419.643636 -358.593488 
L 417.530909 -358.593488 
L 415.418182 -358.593488 
L 413.305455 -358.593488 
L 411.192727 -358.593488 
L 409.08 -358.593488 
L 406.967273 -358.593488 
L 404.854545 -358.593488 
L 402.741818 -358.593488 
L 400.629091 -358.593488 
L 398.516364 -358.593488 
L 396.403636 -358.593488 
L 394.290909 -358.593488 
L 392.178182 -358.593488 
L 390.065455 -358.593488 
L 387.952727 -358.593488 
L 385.84 -358.593488 
L 383.727273 -358.593488 
L 381.614545 -358.593488 
L 379.501818 -358.593488 
L 377.389091 -358.593488 
L 375.276364 -358.593488 
L 373.163636 -358.593488 
L 371.050909 -358.593488 
L 368.938182 -358.593488 
L 366.825455 -358.593488 
L 364.712727 -358.593488 
L 362.6 -358.593488 
L 360.487273 -358.593488 
L 358.374545 -358.593488 
L 356.261818 -358.593488 
L 354.149091 -358.593488 
L 352.036364 -358.593488 
L 349.923636 -358.593488 
L 347.810909 -358.593488 
L 345.698182 -358.593488 
L 343.585455 -358.593488 
L 341.472727 -358.593488 
L 339.36 -358.593488 
L 337.247273 -358.593488 
L 335.134545 -358.593488 
L 333.021818 -358.593488 
L 330.909091 -358.593488 
L 328.796364 -358.593488 
L 326.683636 -358.593488 
L 324.570909 -358.593488 
L 322.458182 -358.593488 
L 320.345455 -358.593488 
L 318.232727 -358.593488 
L 316.12 -358.593488 
L 314.007273 -358.593488 
L 311.894545 -358.593488 
L 309.781818 -358.593488 
L 307.669091 -358.593488 
L 305.556364 -358.593488 
L 303.443636 -358.593488 
L 301.330909 -358.593488 
L 299.218182 -358.593488 
L 297.105455 -358.593488 
L 294.992727 -358.593488 
L 292.88 -358.593488 
L 290.767273 -358.593488 
L 288.654545 -358.593488 
L 286.541818 -358.593488 
L 284.429091 -358.593488 
L 282.316364 -358.593488 
L 280.203636 -358.593488 
L 278.090909 -358.593488 
L 275.978182 -358.593488 
L 273.865455 -358.593488 
L 271.752727 -358.593488 
L 269.64 -358.593488 
z
" id="m48f21dc8fa" style="stroke:#228b22;stroke-opacity:0.35;"/>
    </defs>
    <g clip-path="url(#p68fe09a4e4)">
     <use style="fill:#228b22;fill-opacity:0.35;stroke:#228b22;stroke-opacity:0.35;" x="0" xlink:href="#m48f21dc8fa" y="576"/>
    </g>
   </g>
   <g id="matplotlib.axis_1">
    <g id="xtick_1">
     <g id="line2d_13">
      <defs>
       <path d="M 0 0 
L 0 3.5 
" id="m1af0deb802" style="stroke:#000000;stroke-width:0.8;"/>
      </defs>
      <g>
       <use style="stroke:#000000;stroke-width:0.8;" x="60.48" xlink:href="#m1af0deb802" y="276.346047"/>
      </g>
     </g>
    </g>
    <g id="xtick_2">
     <g id="line2d_14">
      <g>
       <use style="stroke:#000000;stroke-width:0.8;" x="144.144" xlink:href="#m1af0deb802" y="276.346047"/>
      </g>
     </g>
    </g>
    <g id="xtick_3">
     <g id="line2d_15">
      <g>
       <use style="stroke:#000000;stroke-width:0.8;" x="227.808" xlink:href="#m1af0deb802" y="276.346047"/>
      </g>
     </g>
    </g>
    <g id="xtick_4">
     <g id="line2d_16">
      <g>
       <use style="stroke:#000000;stroke-width:0.8;" x="311.472" xlink:href="#m1af0deb802" y="276.346047"/>
      </g>
     </g>
    </g>
    <g id="xtick_5">
     <g id="line2d_17">
      <g>
       <use style="stroke:#000000;stroke-width:0.8;" x="395.136" xlink:href="#m1af0deb802" y="276.346047"/>
      </g>
     </g>
    </g>
    <g id="xtick_6">
     <g id="line2d_18">
      <g>
       <use style="stroke:#000000;stroke-width:0.8;" x="478.8" xlink:href="#m1af0deb802" y="276.346047"/>
      </g>
     </g>
    </g>
   </g>
   <g id="matplotlib.axis_2">
    <g id="ytick_1">
     <g id="line2d_19">
      <defs>
       <path d="M 0 0 
L -3.5 0 
" id="mde0b708ce4" style="stroke:#000000;stroke-width:0.8;"/>
      </defs>
      <g>
       <use style="stroke:#000000;stroke-width:0.8;" x="60.48" xlink:href="#mde0b708ce4" y="270.987907"/>
      </g>
     </g>
     <g id="text_1">
      <!-- -5e-01 -->
      <g transform="translate(21.02375 274.787126)scale(0.1 -0.1)">
       <defs>
        <path d="M 313 2009 
L 1997 2009 
L 1997 1497 
L 313 1497 
L 313 2009 
z
" id="DejaVuSans-2d" transform="scale(0.015625)"/>
        <path d="M 691 4666 
L 3169 4666 
L 3169 4134 
L 1269 4134 
L 1269 2991 
Q 1406 3038 1543 3061 
Q 1681 3084 1819 3084 
Q 2600 3084 3056 2656 
Q 3513 2228 3513 1497 
Q 3513 744 3044 326 
Q 2575 -91 1722 -91 
Q 1428 -91 1123 -41 
Q 819 9 494 109 
L 494 744 
Q 775 591 1075 516 
Q 1375 441 1709 441 
Q 2250 441 2565 725 
Q 2881 1009 2881 1497 
Q 2881 1984 2565 2268 
Q 2250 2553 1709 2553 
Q 1456 2553 1204 2497 
Q 953 2441 691 2322 
L 691 4666 
z
" id="DejaVuSans-35" transform="scale(0.015625)"/>
        <path d="M 3597 1894 
L 3597 1613 
L 953 1613 
Q 991 1019 1311 708 
Q 1631 397 2203 397 
Q 2534 397 2845 478 
Q 3156 559 3463 722 
L 3463 178 
Q 3153 47 2828 -22 
Q 2503 -91 2169 -91 
Q 1331 -91 842 396 
Q 353 884 353 1716 
Q 353 2575 817 3079 
Q 1281 3584 2069 3584 
Q 2775 3584 3186 3129 
Q 3597 2675 3597 1894 
z
M 3022 2063 
Q 3016 2534 2758 2815 
Q 2500 3097 2075 3097 
Q 1594 3097 1305 2825 
Q 1016 2553 972 2059 
L 3022 2063 
z
" id="DejaVuSans-65" transform="scale(0.015625)"/>
        <path d="M 2034 4250 
Q 1547 4250 1301 3770 
Q 1056 3291 1056 2328 
Q 1056 1369 1301 889 
Q 1547 409 2034 409 
Q 2525 409 2770 889 
Q 3016 1369 3016 2328 
Q 3016 3291 2770 3770 
Q 2525 4250 2034 4250 
z
M 2034 4750 
Q 2819 4750 3233 4129 
Q 3647 3509 3647 2328 
Q 3647 1150 3233 529 
Q 2819 -91 2034 -91 
Q 1250 -91 836 529 
Q 422 1150 422 2328 
Q 422 3509 836 4129 
Q 1250 4750 2034 4750 
z
" id="DejaVuSans-30" transform="scale(0.015625)"/>
        <path d="M 794 531 
L 1825 531 
L 1825 4091 
L 703 3866 
L 703 4441 
L 1819 4666 
L 2450 4666 
L 2450 531 
L 3481 531 
L 3481 0 
L 794 0 
L 794 531 
z
" id="DejaVuSans-31" transform="scale(0.015625)"/>
       </defs>
       <use xlink:href="#DejaVuSans-2d"/>
       <use x="36.083984" xlink:href="#DejaVuSans-35"/>
       <use x="99.707031" xlink:href="#DejaVuSans-65"/>
       <use x="161.230469" xlink:href="#DejaVuSans-2d"/>
       <use x="197.314453" xlink:href="#DejaVuSans-30"/>
       <use x="260.9375" xlink:href="#DejaVuSans-31"/>
      </g>
     </g>
    </g>
    <g id="ytick_2">
     <g id="line2d_20">
      <g>
       <use style="stroke:#000000;stroke-width:0.8;" x="60.48" xlink:href="#mde0b708ce4" y="244.197209"/>
      </g>
     </g>
     <g id="text_2">
      <!-- -2e-01 -->
      <g transform="translate(21.02375 247.996428)scale(0.1 -0.1)">
       <defs>
        <path d="M 1228 531 
L 3431 531 
L 3431 0 
L 469 0 
L 469 531 
Q 828 903 1448 1529 
Q 2069 2156 2228 2338 
Q 2531 2678 2651 2914 
Q 2772 3150 2772 3378 
Q 2772 3750 2511 3984 
Q 2250 4219 1831 4219 
Q 1534 4219 1204 4116 
Q 875 4013 500 3803 
L 500 4441 
Q 881 4594 1212 4672 
Q 1544 4750 1819 4750 
Q 2544 4750 2975 4387 
Q 3406 4025 3406 3419 
Q 3406 3131 3298 2873 
Q 3191 2616 2906 2266 
Q 2828 2175 2409 1742 
Q 1991 1309 1228 531 
z
" id="DejaVuSans-32" transform="scale(0.015625)"/>
       </defs>
       <use xlink:href="#DejaVuSans-2d"/>
       <use x="36.083984" xlink:href="#DejaVuSans-32"/>
       <use x="99.707031" xlink:href="#DejaVuSans-65"/>
       <use x="161.230469" xlink:href="#DejaVuSans-2d"/>
       <use x="197.314453" xlink:href="#DejaVuSans-30"/>
       <use x="260.9375" xlink:href="#DejaVuSans-31"/>
      </g>
     </g>
    </g>
    <g id="ytick_3">
     <g id="line2d_21">
      <g>
       <use style="stroke:#000000;stroke-width:0.8;" x="60.48" xlink:href="#mde0b708ce4" y="217.406512"/>
      </g>
     </g>
     <g id="text_3">
      <!-- 0e+00 -->
      <g transform="translate(19.859687 221.20573)scale(0.1 -0.1)">
       <defs>
        <path d="M 2944 4013 
L 2944 2272 
L 4684 2272 
L 4684 1741 
L 2944 1741 
L 2944 0 
L 2419 0 
L 2419 1741 
L 678 1741 
L 678 2272 
L 2419 2272 
L 2419 4013 
L 2944 4013 
z
" id="DejaVuSans-2b" transform="scale(0.015625)"/>
       </defs>
       <use xlink:href="#DejaVuSans-30"/>
       <use x="63.623047" xlink:href="#DejaVuSans-65"/>
       <use x="125.146484" xlink:href="#DejaVuSans-2b"/>
       <use x="208.935547" xlink:href="#DejaVuSans-30"/>
       <use x="272.558594" xlink:href="#DejaVuSans-30"/>
      </g>
     </g>
    </g>
    <g id="ytick_4">
     <g id="line2d_22">
      <g>
       <use style="stroke:#000000;stroke-width:0.8;" x="60.48" xlink:href="#mde0b708ce4" y="190.615814"/>
      </g>
     </g>
     <g id="text_4">
      <!-- 2e-01 -->
      <g transform="translate(24.631562 194.415033)scale(0.1 -0.1)">
       <use xlink:href="#DejaVuSans-32"/>
       <use x="63.623047" xlink:href="#DejaVuSans-65"/>
       <use x="125.146484" xlink:href="#DejaVuSans-2d"/>
       <use x="161.230469" xlink:href="#DejaVuSans-30"/>
       <use x="224.853516" xlink:href="#DejaVuSans-31"/>
      </g>
     </g>
    </g>
    <g id="ytick_5">
     <g id="line2d_23">
      <g>
       <use style="stroke:#000000;stroke-width:0.8;" x="60.48" xlink:href="#mde0b708ce4" y="163.825116"/>
      </g>
     </g>
     <g id="text_5">
      <!-- 5e-01 -->
      <g transform="translate(24.631562 167.624335)scale(0.1 -0.1)">
       <use xlink:href="#DejaVuSans-35"/>
       <use x="63.623047" xlink:href="#DejaVuSans-65"/>
       <use x="125.146484" xlink:href="#DejaVuSans-2d"/>
       <use x="161.230469" xlink:href="#DejaVuSans-30"/>
       <use x="224.853516" xlink:href="#DejaVuSans-31"/>
      </g>
     </g>
    </g>
    <g id="text_6">
     <!-- Shear force, $V(x)$ -->
     <g transform="translate(13.78 259.706512)rotate(-90)scale(0.1 -0.1)">
      <defs>
       <path d="M 3425 4513 
L 3425 3897 
Q 3066 4069 2747 4153 
Q 2428 4238 2131 4238 
Q 1616 4238 1336 4038 
Q 1056 3838 1056 3469 
Q 1056 3159 1242 3001 
Q 1428 2844 1947 2747 
L 2328 2669 
Q 3034 2534 3370 2195 
Q 3706 1856 3706 1288 
Q 3706 609 3251 259 
Q 2797 -91 1919 -91 
Q 1588 -91 1214 -16 
Q 841 59 441 206 
L 441 856 
Q 825 641 1194 531 
Q 1563 422 1919 422 
Q 2459 422 2753 634 
Q 3047 847 3047 1241 
Q 3047 1584 2836 1778 
Q 2625 1972 2144 2069 
L 1759 2144 
Q 1053 2284 737 2584 
Q 422 2884 422 3419 
Q 422 4038 858 4394 
Q 1294 4750 2059 4750 
Q 2388 4750 2728 4690 
Q 3069 4631 3425 4513 
z
" id="DejaVuSans-53" transform="scale(0.015625)"/>
       <path d="M 3513 2113 
L 3513 0 
L 2938 0 
L 2938 2094 
Q 2938 2591 2744 2837 
Q 2550 3084 2163 3084 
Q 1697 3084 1428 2787 
Q 1159 2491 1159 1978 
L 1159 0 
L 581 0 
L 581 4863 
L 1159 4863 
L 1159 2956 
Q 1366 3272 1645 3428 
Q 1925 3584 2291 3584 
Q 2894 3584 3203 3211 
Q 3513 2838 3513 2113 
z
" id="DejaVuSans-68" transform="scale(0.015625)"/>
       <path d="M 2194 1759 
Q 1497 1759 1228 1600 
Q 959 1441 959 1056 
Q 959 750 1161 570 
Q 1363 391 1709 391 
Q 2188 391 2477 730 
Q 2766 1069 2766 1631 
L 2766 1759 
L 2194 1759 
z
M 3341 1997 
L 3341 0 
L 2766 0 
L 2766 531 
Q 2569 213 2275 61 
Q 1981 -91 1556 -91 
Q 1019 -91 701 211 
Q 384 513 384 1019 
Q 384 1609 779 1909 
Q 1175 2209 1959 2209 
L 2766 2209 
L 2766 2266 
Q 2766 2663 2505 2880 
Q 2244 3097 1772 3097 
Q 1472 3097 1187 3025 
Q 903 2953 641 2809 
L 641 3341 
Q 956 3463 1253 3523 
Q 1550 3584 1831 3584 
Q 2591 3584 2966 3190 
Q 3341 2797 3341 1997 
z
" id="DejaVuSans-61" transform="scale(0.015625)"/>
       <path d="M 2631 2963 
Q 2534 3019 2420 3045 
Q 2306 3072 2169 3072 
Q 1681 3072 1420 2755 
Q 1159 2438 1159 1844 
L 1159 0 
L 581 0 
L 581 3500 
L 1159 3500 
L 1159 2956 
Q 1341 3275 1631 3429 
Q 1922 3584 2338 3584 
Q 2397 3584 2469 3576 
Q 2541 3569 2628 3553 
L 2631 2963 
z
" id="DejaVuSans-72" transform="scale(0.015625)"/>
       <path id="DejaVuSans-20" transform="scale(0.015625)"/>
       <path d="M 2375 4863 
L 2375 4384 
L 1825 4384 
Q 1516 4384 1395 4259 
Q 1275 4134 1275 3809 
L 1275 3500 
L 2222 3500 
L 2222 3053 
L 1275 3053 
L 1275 0 
L 697 0 
L 697 3053 
L 147 3053 
L 147 3500 
L 697 3500 
L 697 3744 
Q 697 4328 969 4595 
Q 1241 4863 1831 4863 
L 2375 4863 
z
" id="DejaVuSans-66" transform="scale(0.015625)"/>
       <path d="M 1959 3097 
Q 1497 3097 1228 2736 
Q 959 2375 959 1747 
Q 959 1119 1226 758 
Q 1494 397 1959 397 
Q 2419 397 2687 759 
Q 2956 1122 2956 1747 
Q 2956 2369 2687 2733 
Q 2419 3097 1959 3097 
z
M 1959 3584 
Q 2709 3584 3137 3096 
Q 3566 2609 3566 1747 
Q 3566 888 3137 398 
Q 2709 -91 1959 -91 
Q 1206 -91 779 398 
Q 353 888 353 1747 
Q 353 2609 779 3096 
Q 1206 3584 1959 3584 
z
" id="DejaVuSans-6f" transform="scale(0.015625)"/>
       <path d="M 3122 3366 
L 3122 2828 
Q 2878 2963 2633 3030 
Q 2388 3097 2138 3097 
Q 1578 3097 1268 2742 
Q 959 2388 959 1747 
Q 959 1106 1268 751 
Q 1578 397 2138 397 
Q 2388 397 2633 464 
Q 2878 531 3122 666 
L 3122 134 
Q 2881 22 2623 -34 
Q 2366 -91 2075 -91 
Q 1284 -91 818 406 
Q 353 903 353 1747 
Q 353 2603 823 3093 
Q 1294 3584 2113 3584 
Q 2378 3584 2631 3529 
Q 2884 3475 3122 3366 
z
" id="DejaVuSans-63" transform="scale(0.015625)"/>
       <path d="M 750 794 
L 1409 794 
L 1409 256 
L 897 -744 
L 494 -744 
L 750 256 
L 750 794 
z
" id="DejaVuSans-2c" transform="scale(0.015625)"/>
       <path d="M 1319 0 
L 500 4666 
L 1119 4666 
L 1797 653 
L 4063 4666 
L 4750 4666 
L 2053 0 
L 1319 0 
z
" id="DejaVuSans-Oblique-56" transform="scale(0.015625)"/>
       <path d="M 1984 4856 
Q 1566 4138 1362 3434 
Q 1159 2731 1159 2009 
Q 1159 1288 1364 580 
Q 1569 -128 1984 -844 
L 1484 -844 
Q 1016 -109 783 600 
Q 550 1309 550 2009 
Q 550 2706 781 3412 
Q 1013 4119 1484 4856 
L 1984 4856 
z
" id="DejaVuSans-28" transform="scale(0.015625)"/>
       <path d="M 3841 3500 
L 2234 1784 
L 3219 0 
L 2559 0 
L 1819 1388 
L 531 0 
L -166 0 
L 1556 1844 
L 641 3500 
L 1300 3500 
L 1972 2234 
L 3144 3500 
L 3841 3500 
z
" id="DejaVuSans-Oblique-78" transform="scale(0.015625)"/>
       <path d="M 513 4856 
L 1013 4856 
Q 1481 4119 1714 3412 
Q 1947 2706 1947 2009 
Q 1947 1309 1714 600 
Q 1481 -109 1013 -844 
L 513 -844 
Q 928 -128 1133 580 
Q 1338 1288 1338 2009 
Q 1338 2731 1133 3434 
Q 928 4138 513 4856 
z
" id="DejaVuSans-29" transform="scale(0.015625)"/>
      </defs>
      <use transform="translate(0 0.015625)" xlink:href="#DejaVuSans-53"/>
      <use transform="translate(63.476562 0.015625)" xlink:href="#DejaVuSans-68"/>
      <use transform="translate(126.855469 0.015625)" xlink:href="#DejaVuSans-65"/>
      <use transform="translate(188.378906 0.015625)" xlink:href="#DejaVuSans-61"/>
      <use transform="translate(249.658203 0.015625)" xlink:href="#DejaVuSans-72"/>
      <use transform="translate(290.771484 0.015625)" xlink:href="#DejaVuSans-20"/>
      <use transform="translate(322.558594 0.015625)" xlink:href="#DejaVuSans-66"/>
      <use transform="translate(357.763672 0.015625)" xlink:href="#DejaVuSans-6f"/>
      <use transform="translate(418.945312 0.015625)" xlink:href="#DejaVuSans-72"/>
      <use transform="translate(460.058594 0.015625)" xlink:href="#DejaVuSans-63"/>
      <use transform="translate(515.039062 0.015625)" xlink:href="#DejaVuSans-65"/>
      <use transform="translate(576.5625 0.015625)" xlink:href="#DejaVuSans-2c"/>
      <use transform="translate(608.349609 0.015625)" xlink:href="#DejaVuSans-20"/>
      <use transform="translate(640.136719 0.015625)" xlink:href="#DejaVuSans-Oblique-56"/>
      <use transform="translate(708.544922 0.015625)" xlink:href="#DejaVuSans-28"/>
      <use transform="translate(747.558594 0.015625)" xlink:href="#DejaVuSans-Oblique-78"/>
      <use transform="translate(806.738281 0.015625)" xlink:href="#DejaVuSans-29"/>
     </g>
    </g>
   </g>
   <g id="line2d_24">
    <path clip-path="url(#p68fe09a4e4)" d="M 60.48 270.987907 
L 62.592727 270.987907 
L 64.705455 270.987907 
L 66.818182 270.987907 
L 68.930909 270.987907 
L 71.043636 270.987907 
L 73.156364 270.987907 
L 75.269091 270.987907 
L 77.381818 270.987907 
L 79.494545 270.987907 
L 81.607273 270.987907 
L 83.72 270.987907 
L 85.832727 270.987907 
L 87.945455 270.987907 
L 90.058182 270.987907 
L 92.170909 270.987907 
L 94.283636 270.987907 
L 96.396364 270.987907 
L 98.509091 270.987907 
L 100.621818 270.987907 
L 102.734545 270.987907 
L 104.847273 270.987907 
L 106.96 270.987907 
L 109.072727 270.987907 
L 111.185455 270.987907 
L 113.298182 270.987907 
L 115.410909 270.987907 
L 117.523636 270.987907 
L 119.636364 270.987907 
L 121.749091 270.987907 
L 123.861818 270.987907 
L 125.974545 270.987907 
L 128.087273 270.987907 
L 130.2 270.987907 
L 132.312727 270.987907 
L 134.425455 270.987907 
L 136.538182 270.987907 
L 138.650909 270.987907 
L 140.763636 270.987907 
L 142.876364 270.987907 
L 144.989091 270.987907 
L 147.101818 270.987907 
L 149.214545 270.987907 
L 151.327273 270.987907 
L 153.44 270.987907 
L 155.552727 270.987907 
L 157.665455 270.987907 
L 159.778182 270.987907 
L 161.890909 270.987907 
L 164.003636 270.987907 
L 166.116364 270.987907 
L 168.229091 270.987907 
L 170.341818 270.987907 
L 172.454545 270.987907 
L 174.567273 270.987907 
L 176.68 270.987907 
L 178.792727 270.987907 
L 180.905455 270.987907 
L 183.018182 270.987907 
L 185.130909 270.987907 
L 187.243636 270.987907 
L 189.356364 270.987907 
L 191.469091 270.987907 
L 193.581818 270.987907 
L 195.694545 270.987907 
L 197.807273 270.987907 
L 199.92 270.987907 
L 202.032727 270.987907 
L 204.145455 270.987907 
L 206.258182 270.987907 
L 208.370909 270.987907 
L 210.483636 270.987907 
L 212.596364 270.987907 
L 214.709091 270.987907 
L 216.821818 270.987907 
L 218.934545 270.987907 
L 221.047273 270.987907 
L 223.16 270.987907 
L 225.272727 270.987907 
L 227.385455 270.987907 
L 229.498182 270.987907 
L 231.610909 270.987907 
L 233.723636 270.987907 
L 235.836364 270.987907 
L 237.949091 270.987907 
L 240.061818 270.987907 
L 242.174545 270.987907 
L 244.287273 270.987907 
L 246.4 270.987907 
L 248.512727 270.987907 
L 250.625455 270.987907 
L 252.738182 270.987907 
L 254.850909 270.987907 
L 256.963636 270.987907 
L 259.076364 270.987907 
L 261.189091 270.987907 
L 263.301818 270.987907 
L 265.414545 270.987907 
L 267.527273 270.987907 
L 269.64 270.987907 
" style="fill:none;stroke:#228b22;stroke-linecap:square;stroke-width:2;"/>
   </g>
   <g id="line2d_25">
    <path clip-path="url(#p68fe09a4e4)" d="M 269.64 163.825116 
L 271.752727 163.825116 
L 273.865455 163.825116 
L 275.978182 163.825116 
L 278.090909 163.825116 
L 280.203636 163.825116 
L 282.316364 163.825116 
L 284.429091 163.825116 
L 286.541818 163.825116 
L 288.654545 163.825116 
L 290.767273 163.825116 
L 292.88 163.825116 
L 294.992727 163.825116 
L 297.105455 163.825116 
L 299.218182 163.825116 
L 301.330909 163.825116 
L 303.443636 163.825116 
L 305.556364 163.825116 
L 307.669091 163.825116 
L 309.781818 163.825116 
L 311.894545 163.825116 
L 314.007273 163.825116 
L 316.12 163.825116 
L 318.232727 163.825116 
L 320.345455 163.825116 
L 322.458182 163.825116 
L 324.570909 163.825116 
L 326.683636 163.825116 
L 328.796364 163.825116 
L 330.909091 163.825116 
L 333.021818 163.825116 
L 335.134545 163.825116 
L 337.247273 163.825116 
L 339.36 163.825116 
L 341.472727 163.825116 
L 343.585455 163.825116 
L 345.698182 163.825116 
L 347.810909 163.825116 
L 349.923636 163.825116 
L 352.036364 163.825116 
L 354.149091 163.825116 
L 356.261818 163.825116 
L 358.374545 163.825116 
L 360.487273 163.825116 
L 362.6 163.825116 
L 364.712727 163.825116 
L 366.825455 163.825116 
L 368.938182 163.825116 
L 371.050909 163.825116 
L 373.163636 163.825116 
L 375.276364 163.825116 
L 377.389091 163.825116 
L 379.501818 163.825116 
L 381.614545 163.825116 
L 383.727273 163.825116 
L 385.84 163.825116 
L 387.952727 163.825116 
L 390.065455 163.825116 
L 392.178182 163.825116 
L 394.290909 163.825116 
L 396.403636 163.825116 
L 398.516364 163.825116 
L 400.629091 163.825116 
L 402.741818 163.825116 
L 404.854545 163.825116 
L 406.967273 163.825116 
L 409.08 163.825116 
L 411.192727 163.825116 
L 413.305455 163.825116 
L 415.418182 163.825116 
L 417.530909 163.825116 
L 419.643636 163.825116 
L 421.756364 163.825116 
L 423.869091 163.825116 
L 425.981818 163.825116 
L 428.094545 163.825116 
L 430.207273 163.825116 
L 432.32 163.825116 
L 434.432727 163.825116 
L 436.545455 163.825116 
L 438.658182 163.825116 
L 440.770909 163.825116 
L 442.883636 163.825116 
L 444.996364 163.825116 
L 447.109091 163.825116 
L 449.221818 163.825116 
L 451.334545 163.825116 
L 453.447273 163.825116 
L 455.56 163.825116 
L 457.672727 163.825116 
L 459.785455 163.825116 
L 461.898182 163.825116 
L 464.010909 163.825116 
L 466.123636 163.825116 
L 468.236364 163.825116 
L 470.349091 163.825116 
L 472.461818 163.825116 
L 474.574545 163.825116 
L 476.687273 163.825116 
L 478.8 163.825116 
" style="fill:none;stroke:#228b22;stroke-linecap:square;stroke-width:2;"/>
   </g>
   <g id="patch_4">
    <path d="M 60.48 276.346047 
L 60.48 158.466977 
" style="fill:none;stroke:#000000;stroke-linecap:square;stroke-linejoin:miter;stroke-width:0.8;"/>
   </g>
   <g id="patch_5">
    <path d="M 478.8 276.346047 
L 478.8 158.466977 
" style="fill:none;stroke:#000000;stroke-linecap:square;stroke-linejoin:miter;stroke-width:0.8;"/>
   </g>
   <g id="patch_6">
    <path d="M 60.48 276.346047 
L 478.8 276.346047 
" style="fill:none;stroke:#000000;stroke-linecap:square;stroke-linejoin:miter;stroke-width:0.8;"/>
   </g>
   <g id="patch_7">
    <path d="M 60.48 158.466977 
L 478.8 158.466977 
" style="fill:none;stroke:#000000;stroke-linecap:square;stroke-linejoin:miter;stroke-width:0.8;"/>
   </g>
  </g>
  <g id="axes_3">
   <g id="patch_8">
    <path d="M 60.48 406.013023 
L 478.8 406.013023 
L 478.8 288.133953 
L 60.48 288.133953 
z
" style="fill:#ffffff;"/>
   </g>
   <g id="PolyCollection_5">
    <defs>
     <path d="M 60.48 -175.345116 
L 60.48 -175.345116 
L 62.592727 -176.427569 
L 64.705455 -177.510021 
L 66.818182 -178.592474 
L 68.930909 -179.674926 
L 71.043636 -180.757378 
L 73.156364 -181.839831 
L 75.269091 -182.922283 
L 77.381818 -184.004736 
L 79.494545 -185.087188 
L 81.607273 -186.169641 
L 83.72 -187.252093 
L 85.832727 -188.334545 
L 87.945455 -189.416998 
L 90.058182 -190.49945 
L 92.170909 -191.581903 
L 94.283636 -192.664355 
L 96.396364 -193.746808 
L 98.509091 -194.82926 
L 100.621818 -195.911712 
L 102.734545 -196.994165 
L 104.847273 -198.076617 
L 106.96 -199.15907 
L 109.072727 -200.241522 
L 111.185455 -201.323975 
L 113.298182 -202.406427 
L 115.410909 -203.488879 
L 117.523636 -204.571332 
L 119.636364 -205.653784 
L 121.749091 -206.736237 
L 123.861818 -207.818689 
L 125.974545 -208.901142 
L 128.087273 -209.983594 
L 130.2 -211.066047 
L 132.312727 -212.148499 
L 134.425455 -213.230951 
L 136.538182 -214.313404 
L 138.650909 -215.395856 
L 140.763636 -216.478309 
L 142.876364 -217.560761 
L 144.989091 -218.643214 
L 147.101818 -219.725666 
L 149.214545 -220.808118 
L 151.327273 -221.890571 
L 153.44 -222.973023 
L 155.552727 -224.055476 
L 157.665455 -225.137928 
L 159.778182 -226.220381 
L 161.890909 -227.302833 
L 164.003636 -228.385285 
L 166.116364 -229.467738 
L 168.229091 -230.55019 
L 170.341818 -231.632643 
L 172.454545 -232.715095 
L 174.567273 -233.797548 
L 176.68 -234.88 
L 178.792727 -235.962452 
L 180.905455 -237.044905 
L 183.018182 -238.127357 
L 185.130909 -239.20981 
L 187.243636 -240.292262 
L 189.356364 -241.374715 
L 191.469091 -242.457167 
L 193.581818 -243.539619 
L 195.694545 -244.622072 
L 197.807273 -245.704524 
L 199.92 -246.786977 
L 202.032727 -247.869429 
L 204.145455 -248.951882 
L 206.258182 -250.034334 
L 208.370909 -251.116786 
L 210.483636 -252.199239 
L 212.596364 -253.281691 
L 214.709091 -254.364144 
L 216.821818 -255.446596 
L 218.934545 -256.529049 
L 221.047273 -257.611501 
L 223.16 -258.693953 
L 225.272727 -259.776406 
L 227.385455 -260.858858 
L 229.498182 -261.941311 
L 231.610909 -263.023763 
L 233.723636 -264.106216 
L 235.836364 -265.188668 
L 237.949091 -266.271121 
L 240.061818 -267.353573 
L 242.174545 -268.436025 
L 244.287273 -269.518478 
L 246.4 -270.60093 
L 248.512727 -271.683383 
L 250.625455 -272.765835 
L 252.738182 -273.848288 
L 254.850909 -274.93074 
L 256.963636 -276.013192 
L 259.076364 -277.095645 
L 261.189091 -278.178097 
L 263.301818 -279.26055 
L 265.414545 -280.343002 
L 267.527273 -281.425455 
L 269.64 -282.507907 
L 269.64 -175.345116 
L 269.64 -175.345116 
L 267.527273 -175.345116 
L 265.414545 -175.345116 
L 263.301818 -175.345116 
L 261.189091 -175.345116 
L 259.076364 -175.345116 
L 256.963636 -175.345116 
L 254.850909 -175.345116 
L 252.738182 -175.345116 
L 250.625455 -175.345116 
L 248.512727 -175.345116 
L 246.4 -175.345116 
L 244.287273 -175.345116 
L 242.174545 -175.345116 
L 240.061818 -175.345116 
L 237.949091 -175.345116 
L 235.836364 -175.345116 
L 233.723636 -175.345116 
L 231.610909 -175.345116 
L 229.498182 -175.345116 
L 227.385455 -175.345116 
L 225.272727 -175.345116 
L 223.16 -175.345116 
L 221.047273 -175.345116 
L 218.934545 -175.345116 
L 216.821818 -175.345116 
L 214.709091 -175.345116 
L 212.596364 -175.345116 
L 210.483636 -175.345116 
L 208.370909 -175.345116 
L 206.258182 -175.345116 
L 204.145455 -175.345116 
L 202.032727 -175.345116 
L 199.92 -175.345116 
L 197.807273 -175.345116 
L 195.694545 -175.345116 
L 193.581818 -175.345116 
L 191.469091 -175.345116 
L 189.356364 -175.345116 
L 187.243636 -175.345116 
L 185.130909 -175.345116 
L 183.018182 -175.345116 
L 180.905455 -175.345116 
L 178.792727 -175.345116 
L 176.68 -175.345116 
L 174.567273 -175.345116 
L 172.454545 -175.345116 
L 170.341818 -175.345116 
L 168.229091 -175.345116 
L 166.116364 -175.345116 
L 164.003636 -175.345116 
L 161.890909 -175.345116 
L 159.778182 -175.345116 
L 157.665455 -175.345116 
L 155.552727 -175.345116 
L 153.44 -175.345116 
L 151.327273 -175.345116 
L 149.214545 -175.345116 
L 147.101818 -175.345116 
L 144.989091 -175.345116 
L 142.876364 -175.345116 
L 140.763636 -175.345116 
L 138.650909 -175.345116 
L 136.538182 -175.345116 
L 134.425455 -175.345116 
L 132.312727 -175.345116 
L 130.2 -175.345116 
L 128.087273 -175.345116 
L 125.974545 -175.345116 
L 123.861818 -175.345116 
L 121.749091 -175.345116 
L 119.636364 -175.345116 
L 117.523636 -175.345116 
L 115.410909 -175.345116 
L 113.298182 -175.345116 
L 111.185455 -175.345116 
L 109.072727 -175.345116 
L 106.96 -175.345116 
L 104.847273 -175.345116 
L 102.734545 -175.345116 
L 100.621818 -175.345116 
L 98.509091 -175.345116 
L 96.396364 -175.345116 
L 94.283636 -175.345116 
L 92.170909 -175.345116 
L 90.058182 -175.345116 
L 87.945455 -175.345116 
L 85.832727 -175.345116 
L 83.72 -175.345116 
L 81.607273 -175.345116 
L 79.494545 -175.345116 
L 77.381818 -175.345116 
L 75.269091 -175.345116 
L 73.156364 -175.345116 
L 71.043636 -175.345116 
L 68.930909 -175.345116 
L 66.818182 -175.345116 
L 64.705455 -175.345116 
L 62.592727 -175.345116 
L 60.48 -175.345116 
z
" id="me97acc3c07" style="stroke:#b22222;stroke-opacity:0.35;"/>
    </defs>
    <g clip-path="url(#p52b11ab6d4)">
     <use style="fill:#b22222;fill-opacity:0.35;stroke:#b22222;stroke-opacity:0.35;" x="0" xlink:href="#me97acc3c07" y="576"/>
    </g>
   </g>
   <g id="PolyCollection_6">
    <defs>
     <path d="M 269.64 -175.345116 
L 269.64 -282.507907 
L 271.752727 -281.425455 
L 273.865455 -280.343002 
L 275.978182 -279.26055 
L 278.090909 -278.178097 
L 280.203636 -277.095645 
L 282.316364 -276.013192 
L 284.429091 -274.93074 
L 286.541818 -273.848288 
L 288.654545 -272.765835 
L 290.767273 -271.683383 
L 292.88 -270.60093 
L 294.992727 -269.518478 
L 297.105455 -268.436025 
L 299.218182 -267.353573 
L 301.330909 -266.271121 
L 303.443636 -265.188668 
L 305.556364 -264.106216 
L 307.669091 -263.023763 
L 309.781818 -261.941311 
L 311.894545 -260.858858 
L 314.007273 -259.776406 
L 316.12 -258.693953 
L 318.232727 -257.611501 
L 320.345455 -256.529049 
L 322.458182 -255.446596 
L 324.570909 -254.364144 
L 326.683636 -253.281691 
L 328.796364 -252.199239 
L 330.909091 -251.116786 
L 333.021818 -250.034334 
L 335.134545 -248.951882 
L 337.247273 -247.869429 
L 339.36 -246.786977 
L 341.472727 -245.704524 
L 343.585455 -244.622072 
L 345.698182 -243.539619 
L 347.810909 -242.457167 
L 349.923636 -241.374715 
L 352.036364 -240.292262 
L 354.149091 -239.20981 
L 356.261818 -238.127357 
L 358.374545 -237.044905 
L 360.487273 -235.962452 
L 362.6 -234.88 
L 364.712727 -233.797548 
L 366.825455 -232.715095 
L 368.938182 -231.632643 
L 371.050909 -230.55019 
L 373.163636 -229.467738 
L 375.276364 -228.385285 
L 377.389091 -227.302833 
L 379.501818 -226.220381 
L 381.614545 -225.137928 
L 383.727273 -224.055476 
L 385.84 -222.973023 
L 387.952727 -221.890571 
L 390.065455 -220.808118 
L 392.178182 -219.725666 
L 394.290909 -218.643214 
L 396.403636 -217.560761 
L 398.516364 -216.478309 
L 400.629091 -215.395856 
L 402.741818 -214.313404 
L 404.854545 -213.230951 
L 406.967273 -212.148499 
L 409.08 -211.066047 
L 411.192727 -209.983594 
L 413.305455 -208.901142 
L 415.418182 -207.818689 
L 417.530909 -206.736237 
L 419.643636 -205.653784 
L 421.756364 -204.571332 
L 423.869091 -203.488879 
L 425.981818 -202.406427 
L 428.094545 -201.323975 
L 430.207273 -200.241522 
L 432.32 -199.15907 
L 434.432727 -198.076617 
L 436.545455 -196.994165 
L 438.658182 -195.911712 
L 440.770909 -194.82926 
L 442.883636 -193.746808 
L 444.996364 -192.664355 
L 447.109091 -191.581903 
L 449.221818 -190.49945 
L 451.334545 -189.416998 
L 453.447273 -188.334545 
L 455.56 -187.252093 
L 457.672727 -186.169641 
L 459.785455 -185.087188 
L 461.898182 -184.004736 
L 464.010909 -182.922283 
L 466.123636 -181.839831 
L 468.236364 -180.757378 
L 470.349091 -179.674926 
L 472.461818 -178.592474 
L 474.574545 -177.510021 
L 476.687273 -176.427569 
L 478.8 -175.345116 
L 478.8 -175.345116 
L 478.8 -175.345116 
L 476.687273 -175.345116 
L 474.574545 -175.345116 
L 472.461818 -175.345116 
L 470.349091 -175.345116 
L 468.236364 -175.345116 
L 466.123636 -175.345116 
L 464.010909 -175.345116 
L 461.898182 -175.345116 
L 459.785455 -175.345116 
L 457.672727 -175.345116 
L 455.56 -175.345116 
L 453.447273 -175.345116 
L 451.334545 -175.345116 
L 449.221818 -175.345116 
L 447.109091 -175.345116 
L 444.996364 -175.345116 
L 442.883636 -175.345116 
L 440.770909 -175.345116 
L 438.658182 -175.345116 
L 436.545455 -175.345116 
L 434.432727 -175.345116 
L 432.32 -175.345116 
L 430.207273 -175.345116 
L 428.094545 -175.345116 
L 425.981818 -175.345116 
L 423.869091 -175.345116 
L 421.756364 -175.345116 
L 419.643636 -175.345116 
L 417.530909 -175.345116 
L 415.418182 -175.345116 
L 413.305455 -175.345116 
L 411.192727 -175.345116 
L 409.08 -175.345116 
L 406.967273 -175.345116 
L 404.854545 -175.345116 
L 402.741818 -175.345116 
L 400.629091 -175.345116 
L 398.516364 -175.345116 
L 396.403636 -175.345116 
L 394.290909 -175.345116 
L 392.178182 -175.345116 
L 390.065455 -175.345116 
L 387.952727 -175.345116 
L 385.84 -175.345116 
L 383.727273 -175.345116 
L 381.614545 -175.345116 
L 379.501818 -175.345116 
L 377.389091 -175.345116 
L 375.276364 -175.345116 
L 373.163636 -175.345116 
L 371.050909 -175.345116 
L 368.938182 -175.345116 
L 366.825455 -175.345116 
L 364.712727 -175.345116 
L 362.6 -175.345116 
L 360.487273 -175.345116 
L 358.374545 -175.345116 
L 356.261818 -175.345116 
L 354.149091 -175.345116 
L 352.036364 -175.345116 
L 349.923636 -175.345116 
L 347.810909 -175.345116 
L 345.698182 -175.345116 
L 343.585455 -175.345116 
L 341.472727 -175.345116 
L 339.36 -175.345116 
L 337.247273 -175.345116 
L 335.134545 -175.345116 
L 333.021818 -175.345116 
L 330.909091 -175.345116 
L 328.796364 -175.345116 
L 326.683636 -175.345116 
L 324.570909 -175.345116 
L 322.458182 -175.345116 
L 320.345455 -175.345116 
L 318.232727 -175.345116 
L 316.12 -175.345116 
L 314.007273 -175.345116 
L 311.894545 -175.345116 
L 309.781818 -175.345116 
L 307.669091 -175.345116 
L 305.556364 -175.345116 
L 303.443636 -175.345116 
L 301.330909 -175.345116 
L 299.218182 -175.345116 
L 297.105455 -175.345116 
L 294.992727 -175.345116 
L 292.88 -175.345116 
L 290.767273 -175.345116 
L 288.654545 -175.345116 
L 286.541818 -175.345116 
L 284.429091 -175.345116 
L 282.316364 -175.345116 
L 280.203636 -175.345116 
L 278.090909 -175.345116 
L 275.978182 -175.345116 
L 273.865455 -175.345116 
L 271.752727 -175.345116 
L 269.64 -175.345116 
z
" id="ma07dc7e90e" style="stroke:#b22222;stroke-opacity:0.35;"/>
    </defs>
    <g clip-path="url(#p52b11ab6d4)">
     <use style="fill:#b22222;fill-opacity:0.35;stroke:#b22222;stroke-opacity:0.35;" x="0" xlink:href="#ma07dc7e90e" y="576"/>
    </g>
   </g>
   <g id="matplotlib.axis_3">
    <g id="xtick_7">
     <g id="line2d_26">
      <g>
       <use style="stroke:#000000;stroke-width:0.8;" x="60.48" xlink:href="#m1af0deb802" y="406.013023"/>
      </g>
     </g>
    </g>
    <g id="xtick_8">
     <g id="line2d_27">
      <g>
       <use style="stroke:#000000;stroke-width:0.8;" x="144.144" xlink:href="#m1af0deb802" y="406.013023"/>
      </g>
     </g>
    </g>
    <g id="xtick_9">
     <g id="line2d_28">
      <g>
       <use style="stroke:#000000;stroke-width:0.8;" x="227.808" xlink:href="#m1af0deb802" y="406.013023"/>
      </g>
     </g>
    </g>
    <g id="xtick_10">
     <g id="line2d_29">
      <g>
       <use style="stroke:#000000;stroke-width:0.8;" x="311.472" xlink:href="#m1af0deb802" y="406.013023"/>
      </g>
     </g>
    </g>
    <g id="xtick_11">
     <g id="line2d_30">
      <g>
       <use style="stroke:#000000;stroke-width:0.8;" x="395.136" xlink:href="#m1af0deb802" y="406.013023"/>
      </g>
     </g>
    </g>
    <g id="xtick_12">
     <g id="line2d_31">
      <g>
       <use style="stroke:#000000;stroke-width:0.8;" x="478.8" xlink:href="#m1af0deb802" y="406.013023"/>
      </g>
     </g>
    </g>
   </g>
   <g id="matplotlib.axis_4">
    <g id="ytick_6">
     <g id="line2d_32">
      <g>
       <use style="stroke:#000000;stroke-width:0.8;" x="60.48" xlink:href="#mde0b708ce4" y="400.654884"/>
      </g>
     </g>
     <g id="text_7">
      <!-- 0e+00 -->
      <g transform="translate(19.859687 404.454102)scale(0.1 -0.1)">
       <use xlink:href="#DejaVuSans-30"/>
       <use x="63.623047" xlink:href="#DejaVuSans-65"/>
       <use x="125.146484" xlink:href="#DejaVuSans-2b"/>
       <use x="208.935547" xlink:href="#DejaVuSans-30"/>
       <use x="272.558594" xlink:href="#DejaVuSans-30"/>
      </g>
     </g>
    </g>
    <g id="ytick_7">
     <g id="line2d_33">
      <g>
       <use style="stroke:#000000;stroke-width:0.8;" x="60.48" xlink:href="#mde0b708ce4" y="357.789767"/>
      </g>
     </g>
     <g id="text_8">
      <!-- 1e-01 -->
      <g transform="translate(24.631562 361.588986)scale(0.1 -0.1)">
       <use xlink:href="#DejaVuSans-31"/>
       <use x="63.623047" xlink:href="#DejaVuSans-65"/>
       <use x="125.146484" xlink:href="#DejaVuSans-2d"/>
       <use x="161.230469" xlink:href="#DejaVuSans-30"/>
       <use x="224.853516" xlink:href="#DejaVuSans-31"/>
      </g>
     </g>
    </g>
    <g id="ytick_8">
     <g id="line2d_34">
      <g>
       <use style="stroke:#000000;stroke-width:0.8;" x="60.48" xlink:href="#mde0b708ce4" y="314.924651"/>
      </g>
     </g>
     <g id="text_9">
      <!-- 2e-01 -->
      <g transform="translate(24.631562 318.72387)scale(0.1 -0.1)">
       <use xlink:href="#DejaVuSans-32"/>
       <use x="63.623047" xlink:href="#DejaVuSans-65"/>
       <use x="125.146484" xlink:href="#DejaVuSans-2d"/>
       <use x="161.230469" xlink:href="#DejaVuSans-30"/>
       <use x="224.853516" xlink:href="#DejaVuSans-31"/>
      </g>
     </g>
    </g>
    <g id="text_10">
     <!-- Bending moment, $M(x)$ -->
     <g transform="translate(13.759687 404.623488)rotate(-90)scale(0.1 -0.1)">
      <defs>
       <path d="M 1259 2228 
L 1259 519 
L 2272 519 
Q 2781 519 3026 730 
Q 3272 941 3272 1375 
Q 3272 1813 3026 2020 
Q 2781 2228 2272 2228 
L 1259 2228 
z
M 1259 4147 
L 1259 2741 
L 2194 2741 
Q 2656 2741 2882 2914 
Q 3109 3088 3109 3444 
Q 3109 3797 2882 3972 
Q 2656 4147 2194 4147 
L 1259 4147 
z
M 628 4666 
L 2241 4666 
Q 2963 4666 3353 4366 
Q 3744 4066 3744 3513 
Q 3744 3084 3544 2831 
Q 3344 2578 2956 2516 
Q 3422 2416 3680 2098 
Q 3938 1781 3938 1306 
Q 3938 681 3513 340 
Q 3088 0 2303 0 
L 628 0 
L 628 4666 
z
" id="DejaVuSans-42" transform="scale(0.015625)"/>
       <path d="M 3513 2113 
L 3513 0 
L 2938 0 
L 2938 2094 
Q 2938 2591 2744 2837 
Q 2550 3084 2163 3084 
Q 1697 3084 1428 2787 
Q 1159 2491 1159 1978 
L 1159 0 
L 581 0 
L 581 3500 
L 1159 3500 
L 1159 2956 
Q 1366 3272 1645 3428 
Q 1925 3584 2291 3584 
Q 2894 3584 3203 3211 
Q 3513 2838 3513 2113 
z
" id="DejaVuSans-6e" transform="scale(0.015625)"/>
       <path d="M 2906 2969 
L 2906 4863 
L 3481 4863 
L 3481 0 
L 2906 0 
L 2906 525 
Q 2725 213 2448 61 
Q 2172 -91 1784 -91 
Q 1150 -91 751 415 
Q 353 922 353 1747 
Q 353 2572 751 3078 
Q 1150 3584 1784 3584 
Q 2172 3584 2448 3432 
Q 2725 3281 2906 2969 
z
M 947 1747 
Q 947 1113 1208 752 
Q 1469 391 1925 391 
Q 2381 391 2643 752 
Q 2906 1113 2906 1747 
Q 2906 2381 2643 2742 
Q 2381 3103 1925 3103 
Q 1469 3103 1208 2742 
Q 947 2381 947 1747 
z
" id="DejaVuSans-64" transform="scale(0.015625)"/>
       <path d="M 603 3500 
L 1178 3500 
L 1178 0 
L 603 0 
L 603 3500 
z
M 603 4863 
L 1178 4863 
L 1178 4134 
L 603 4134 
L 603 4863 
z
" id="DejaVuSans-69" transform="scale(0.015625)"/>
       <path d="M 2906 1791 
Q 2906 2416 2648 2759 
Q 2391 3103 1925 3103 
Q 1463 3103 1205 2759 
Q 947 2416 947 1791 
Q 947 1169 1205 825 
Q 1463 481 1925 481 
Q 2391 481 2648 825 
Q 2906 1169 2906 1791 
z
M 3481 434 
Q 3481 -459 3084 -895 
Q 2688 -1331 1869 -1331 
Q 1566 -1331 1297 -1286 
Q 1028 -1241 775 -1147 
L 775 -588 
Q 1028 -725 1275 -790 
Q 1522 -856 1778 -856 
Q 2344 -856 2625 -561 
Q 2906 -266 2906 331 
L 2906 616 
Q 2728 306 2450 153 
Q 2172 0 1784 0 
Q 1141 0 747 490 
Q 353 981 353 1791 
Q 353 2603 747 3093 
Q 1141 3584 1784 3584 
Q 2172 3584 2450 3431 
Q 2728 3278 2906 2969 
L 2906 3500 
L 3481 3500 
L 3481 434 
z
" id="DejaVuSans-67" transform="scale(0.015625)"/>
       <path d="M 3328 2828 
Q 3544 3216 3844 3400 
Q 4144 3584 4550 3584 
Q 5097 3584 5394 3201 
Q 5691 2819 5691 2113 
L 5691 0 
L 5113 0 
L 5113 2094 
Q 5113 2597 4934 2840 
Q 4756 3084 4391 3084 
Q 3944 3084 3684 2787 
Q 3425 2491 3425 1978 
L 3425 0 
L 2847 0 
L 2847 2094 
Q 2847 2600 2669 2842 
Q 2491 3084 2119 3084 
Q 1678 3084 1418 2786 
Q 1159 2488 1159 1978 
L 1159 0 
L 581 0 
L 581 3500 
L 1159 3500 
L 1159 2956 
Q 1356 3278 1631 3431 
Q 1906 3584 2284 3584 
Q 2666 3584 2933 3390 
Q 3200 3197 3328 2828 
z
" id="DejaVuSans-6d" transform="scale(0.015625)"/>
       <path d="M 1172 4494 
L 1172 3500 
L 2356 3500 
L 2356 3053 
L 1172 3053 
L 1172 1153 
Q 1172 725 1289 603 
Q 1406 481 1766 481 
L 2356 481 
L 2356 0 
L 1766 0 
Q 1100 0 847 248 
Q 594 497 594 1153 
L 594 3053 
L 172 3053 
L 172 3500 
L 594 3500 
L 594 4494 
L 1172 4494 
z
" id="DejaVuSans-74" transform="scale(0.015625)"/>
       <path d="M 1081 4666 
L 2028 4666 
L 2572 1522 
L 4378 4666 
L 5350 4666 
L 4441 0 
L 3828 0 
L 4622 4091 
L 2791 897 
L 2175 897 
L 1581 4103 
L 788 0 
L 172 0 
L 1081 4666 
z
" id="DejaVuSans-Oblique-4d" transform="scale(0.015625)"/>
      </defs>
      <use transform="translate(0 0.015625)" xlink:href="#DejaVuSans-42"/>
      <use transform="translate(68.603516 0.015625)" xlink:href="#DejaVuSans-65"/>
      <use transform="translate(130.126953 0.015625)" xlink:href="#DejaVuSans-6e"/>
      <use transform="translate(193.505859 0.015625)" xlink:href="#DejaVuSans-64"/>
      <use transform="translate(256.982422 0.015625)" xlink:href="#DejaVuSans-69"/>
      <use transform="translate(284.765625 0.015625)" xlink:href="#DejaVuSans-6e"/>
      <use transform="translate(348.144531 0.015625)" xlink:href="#DejaVuSans-67"/>
      <use transform="translate(411.621094 0.015625)" xlink:href="#DejaVuSans-20"/>
      <use transform="translate(443.408203 0.015625)" xlink:href="#DejaVuSans-6d"/>
      <use transform="translate(540.820312 0.015625)" xlink:href="#DejaVuSans-6f"/>
      <use transform="translate(602.001953 0.015625)" xlink:href="#DejaVuSans-6d"/>
      <use transform="translate(699.414062 0.015625)" xlink:href="#DejaVuSans-65"/>
      <use transform="translate(760.9375 0.015625)" xlink:href="#DejaVuSans-6e"/>
      <use transform="translate(824.316406 0.015625)" xlink:href="#DejaVuSans-74"/>
      <use transform="translate(863.525391 0.015625)" xlink:href="#DejaVuSans-2c"/>
      <use transform="translate(895.3125 0.015625)" xlink:href="#DejaVuSans-20"/>
      <use transform="translate(927.099609 0.015625)" xlink:href="#DejaVuSans-Oblique-4d"/>
      <use transform="translate(1013.378906 0.015625)" xlink:href="#DejaVuSans-28"/>
      <use transform="translate(1052.392578 0.015625)" xlink:href="#DejaVuSans-Oblique-78"/>
      <use transform="translate(1111.572266 0.015625)" xlink:href="#DejaVuSans-29"/>
     </g>
    </g>
   </g>
   <g id="line2d_35">
    <path clip-path="url(#p52b11ab6d4)" d="M 60.48 400.654884 
L 62.592727 399.572431 
L 64.705455 398.489979 
L 66.818182 397.407526 
L 68.930909 396.325074 
L 71.043636 395.242622 
L 73.156364 394.160169 
L 75.269091 393.077717 
L 77.381818 391.995264 
L 79.494545 390.912812 
L 81.607273 389.830359 
L 83.72 388.747907 
L 85.832727 387.665455 
L 87.945455 386.583002 
L 90.058182 385.50055 
L 92.170909 384.418097 
L 94.283636 383.335645 
L 96.396364 382.253192 
L 98.509091 381.17074 
L 100.621818 380.088288 
L 102.734545 379.005835 
L 104.847273 377.923383 
L 106.96 376.84093 
L 109.072727 375.758478 
L 111.185455 374.676025 
L 113.298182 373.593573 
L 115.410909 372.511121 
L 117.523636 371.428668 
L 119.636364 370.346216 
L 121.749091 369.263763 
L 123.861818 368.181311 
L 125.974545 367.098858 
L 128.087273 366.016406 
L 130.2 364.933953 
L 132.312727 363.851501 
L 134.425455 362.769049 
L 136.538182 361.686596 
L 138.650909 360.604144 
L 140.763636 359.521691 
L 142.876364 358.439239 
L 144.989091 357.356786 
L 147.101818 356.274334 
L 149.214545 355.191882 
L 151.327273 354.109429 
L 153.44 353.026977 
L 155.552727 351.944524 
L 157.665455 350.862072 
L 159.778182 349.779619 
L 161.890909 348.697167 
L 164.003636 347.614715 
L 166.116364 346.532262 
L 168.229091 345.44981 
L 170.341818 344.367357 
L 172.454545 343.284905 
L 174.567273 342.202452 
L 176.68 341.12 
L 178.792727 340.037548 
L 180.905455 338.955095 
L 183.018182 337.872643 
L 185.130909 336.79019 
L 187.243636 335.707738 
L 189.356364 334.625285 
L 191.469091 333.542833 
L 193.581818 332.460381 
L 195.694545 331.377928 
L 197.807273 330.295476 
L 199.92 329.213023 
L 202.032727 328.130571 
L 204.145455 327.048118 
L 206.258182 325.965666 
L 208.370909 324.883214 
L 210.483636 323.800761 
L 212.596364 322.718309 
L 214.709091 321.635856 
L 216.821818 320.553404 
L 218.934545 319.470951 
L 221.047273 318.388499 
L 223.16 317.306047 
L 225.272727 316.223594 
L 227.385455 315.141142 
L 229.498182 314.058689 
L 231.610909 312.976237 
L 233.723636 311.893784 
L 235.836364 310.811332 
L 237.949091 309.728879 
L 240.061818 308.646427 
L 242.174545 307.563975 
L 244.287273 306.481522 
L 246.4 305.39907 
L 248.512727 304.316617 
L 250.625455 303.234165 
L 252.738182 302.151712 
L 254.850909 301.06926 
L 256.963636 299.986808 
L 259.076364 298.904355 
L 261.189091 297.821903 
L 263.301818 296.73945 
L 265.414545 295.656998 
L 267.527273 294.574545 
L 269.64 293.492093 
" style="fill:none;stroke:#b22222;stroke-linecap:square;stroke-width:2;"/>
   </g>
   <g id="line2d_36">
    <path clip-path="url(#p52b11ab6d4)" d="M 269.64 293.492093 
L 271.752727 294.574545 
L 273.865455 295.656998 
L 275.978182 296.73945 
L 278.090909 297.821903 
L 280.203636 298.904355 
L 282.316364 299.986808 
L 284.429091 301.06926 
L 286.541818 302.151712 
L 288.654545 303.234165 
L 290.767273 304.316617 
L 292.88 305.39907 
L 294.992727 306.481522 
L 297.105455 307.563975 
L 299.218182 308.646427 
L 301.330909 309.728879 
L 303.443636 310.811332 
L 305.556364 311.893784 
L 307.669091 312.976237 
L 309.781818 314.058689 
L 311.894545 315.141142 
L 314.007273 316.223594 
L 316.12 317.306047 
L 318.232727 318.388499 
L 320.345455 319.470951 
L 322.458182 320.553404 
L 324.570909 321.635856 
L 326.683636 322.718309 
L 328.796364 323.800761 
L 330.909091 324.883214 
L 333.021818 325.965666 
L 335.134545 327.048118 
L 337.247273 328.130571 
L 339.36 329.213023 
L 341.472727 330.295476 
L 343.585455 331.377928 
L 345.698182 332.460381 
L 347.810909 333.542833 
L 349.923636 334.625285 
L 352.036364 335.707738 
L 354.149091 336.79019 
L 356.261818 337.872643 
L 358.374545 338.955095 
L 360.487273 340.037548 
L 362.6 341.12 
L 364.712727 342.202452 
L 366.825455 343.284905 
L 368.938182 344.367357 
L 371.050909 345.44981 
L 373.163636 346.532262 
L 375.276364 347.614715 
L 377.389091 348.697167 
L 379.501818 349.779619 
L 381.614545 350.862072 
L 383.727273 351.944524 
L 385.84 353.026977 
L 387.952727 354.109429 
L 390.065455 355.191882 
L 392.178182 356.274334 
L 394.290909 357.356786 
L 396.403636 358.439239 
L 398.516364 359.521691 
L 400.629091 360.604144 
L 402.741818 361.686596 
L 404.854545 362.769049 
L 406.967273 363.851501 
L 409.08 364.933953 
L 411.192727 366.016406 
L 413.305455 367.098858 
L 415.418182 368.181311 
L 417.530909 369.263763 
L 419.643636 370.346216 
L 421.756364 371.428668 
L 423.869091 372.511121 
L 425.981818 373.593573 
L 428.094545 374.676025 
L 430.207273 375.758478 
L 432.32 376.84093 
L 434.432727 377.923383 
L 436.545455 379.005835 
L 438.658182 380.088288 
L 440.770909 381.17074 
L 442.883636 382.253192 
L 444.996364 383.335645 
L 447.109091 384.418097 
L 449.221818 385.50055 
L 451.334545 386.583002 
L 453.447273 387.665455 
L 455.56 388.747907 
L 457.672727 389.830359 
L 459.785455 390.912812 
L 461.898182 391.995264 
L 464.010909 393.077717 
L 466.123636 394.160169 
L 468.236364 395.242622 
L 470.349091 396.325074 
L 472.461818 397.407526 
L 474.574545 398.489979 
L 476.687273 399.572431 
L 478.8 400.654884 
" style="fill:none;stroke:#b22222;stroke-linecap:square;stroke-width:2;"/>
   </g>
   <g id="patch_9">
    <path d="M 60.48 406.013023 
L 60.48 288.133953 
" style="fill:none;stroke:#000000;stroke-linecap:square;stroke-linejoin:miter;stroke-width:0.8;"/>
   </g>
   <g id="patch_10">
    <path d="M 478.8 406.013023 
L 478.8 288.133953 
" style="fill:none;stroke:#000000;stroke-linecap:square;stroke-linejoin:miter;stroke-width:0.8;"/>
   </g>
   <g id="patch_11">
    <path d="M 60.48 406.013023 
L 478.8 406.013023 
" style="fill:none;stroke:#000000;stroke-linecap:square;stroke-linejoin:miter;stroke-width:0.8;"/>
   </g>
   <g id="patch_12">
    <path d="M 60.48 288.133953 
L 478.8 288.133953 
" style="fill:none;stroke:#000000;stroke-linecap:square;stroke-linejoin:miter;stroke-width:0.8;"/>
   </g>
  </g>
  <g id="axes_4">
   <g id="patch_13">
    <path d="M 60.48 535.68 
L 478.8 535.68 
L 478.8 417.80093 
L 60.48 417.80093 
z
" style="fill:#ffffff;"/>
   </g>
   <g id="matplotlib.axis_5">
    <g id="xtick_13">
     <g id="line2d_37">
      <g>
       <use style="stroke:#000000;stroke-width:0.8;" x="60.48" xlink:href="#m1af0deb802" y="535.68"/>
      </g>
     </g>
     <g id="text_11">
      <!-- 0e+00 -->
      <g transform="translate(43.669844 550.278437)scale(0.1 -0.1)">
       <use xlink:href="#DejaVuSans-30"/>
       <use x="63.623047" xlink:href="#DejaVuSans-65"/>
       <use x="125.146484" xlink:href="#DejaVuSans-2b"/>
       <use x="208.935547" xlink:href="#DejaVuSans-30"/>
       <use x="272.558594" xlink:href="#DejaVuSans-30"/>
      </g>
     </g>
    </g>
    <g id="xtick_14">
     <g id="line2d_38">
      <g>
       <use style="stroke:#000000;stroke-width:0.8;" x="144.144" xlink:href="#m1af0deb802" y="535.68"/>
      </g>
     </g>
     <g id="text_12">
      <!-- 2e-01 -->
      <g transform="translate(129.719781 550.278437)scale(0.1 -0.1)">
       <use xlink:href="#DejaVuSans-32"/>
       <use x="63.623047" xlink:href="#DejaVuSans-65"/>
       <use x="125.146484" xlink:href="#DejaVuSans-2d"/>
       <use x="161.230469" xlink:href="#DejaVuSans-30"/>
       <use x="224.853516" xlink:href="#DejaVuSans-31"/>
      </g>
     </g>
    </g>
    <g id="xtick_15">
     <g id="line2d_39">
      <g>
       <use style="stroke:#000000;stroke-width:0.8;" x="227.808" xlink:href="#m1af0deb802" y="535.68"/>
      </g>
     </g>
     <g id="text_13">
      <!-- 4e-01 -->
      <g transform="translate(213.383781 550.278437)scale(0.1 -0.1)">
       <defs>
        <path d="M 2419 4116 
L 825 1625 
L 2419 1625 
L 2419 4116 
z
M 2253 4666 
L 3047 4666 
L 3047 1625 
L 3713 1625 
L 3713 1100 
L 3047 1100 
L 3047 0 
L 2419 0 
L 2419 1100 
L 313 1100 
L 313 1709 
L 2253 4666 
z
" id="DejaVuSans-34" transform="scale(0.015625)"/>
       </defs>
       <use xlink:href="#DejaVuSans-34"/>
       <use x="63.623047" xlink:href="#DejaVuSans-65"/>
       <use x="125.146484" xlink:href="#DejaVuSans-2d"/>
       <use x="161.230469" xlink:href="#DejaVuSans-30"/>
       <use x="224.853516" xlink:href="#DejaVuSans-31"/>
      </g>
     </g>
    </g>
    <g id="xtick_16">
     <g id="line2d_40">
      <g>
       <use style="stroke:#000000;stroke-width:0.8;" x="311.472" xlink:href="#m1af0deb802" y="535.68"/>
      </g>
     </g>
     <g id="text_14">
      <!-- 6e-01 -->
      <g transform="translate(297.047781 550.278437)scale(0.1 -0.1)">
       <defs>
        <path d="M 2113 2584 
Q 1688 2584 1439 2293 
Q 1191 2003 1191 1497 
Q 1191 994 1439 701 
Q 1688 409 2113 409 
Q 2538 409 2786 701 
Q 3034 994 3034 1497 
Q 3034 2003 2786 2293 
Q 2538 2584 2113 2584 
z
M 3366 4563 
L 3366 3988 
Q 3128 4100 2886 4159 
Q 2644 4219 2406 4219 
Q 1781 4219 1451 3797 
Q 1122 3375 1075 2522 
Q 1259 2794 1537 2939 
Q 1816 3084 2150 3084 
Q 2853 3084 3261 2657 
Q 3669 2231 3669 1497 
Q 3669 778 3244 343 
Q 2819 -91 2113 -91 
Q 1303 -91 875 529 
Q 447 1150 447 2328 
Q 447 3434 972 4092 
Q 1497 4750 2381 4750 
Q 2619 4750 2861 4703 
Q 3103 4656 3366 4563 
z
" id="DejaVuSans-36" transform="scale(0.015625)"/>
       </defs>
       <use xlink:href="#DejaVuSans-36"/>
       <use x="63.623047" xlink:href="#DejaVuSans-65"/>
       <use x="125.146484" xlink:href="#DejaVuSans-2d"/>
       <use x="161.230469" xlink:href="#DejaVuSans-30"/>
       <use x="224.853516" xlink:href="#DejaVuSans-31"/>
      </g>
     </g>
    </g>
    <g id="xtick_17">
     <g id="line2d_41">
      <g>
       <use style="stroke:#000000;stroke-width:0.8;" x="395.136" xlink:href="#m1af0deb802" y="535.68"/>
      </g>
     </g>
     <g id="text_15">
      <!-- 8e-01 -->
      <g transform="translate(380.711781 550.278437)scale(0.1 -0.1)">
       <defs>
        <path d="M 2034 2216 
Q 1584 2216 1326 1975 
Q 1069 1734 1069 1313 
Q 1069 891 1326 650 
Q 1584 409 2034 409 
Q 2484 409 2743 651 
Q 3003 894 3003 1313 
Q 3003 1734 2745 1975 
Q 2488 2216 2034 2216 
z
M 1403 2484 
Q 997 2584 770 2862 
Q 544 3141 544 3541 
Q 544 4100 942 4425 
Q 1341 4750 2034 4750 
Q 2731 4750 3128 4425 
Q 3525 4100 3525 3541 
Q 3525 3141 3298 2862 
Q 3072 2584 2669 2484 
Q 3125 2378 3379 2068 
Q 3634 1759 3634 1313 
Q 3634 634 3220 271 
Q 2806 -91 2034 -91 
Q 1263 -91 848 271 
Q 434 634 434 1313 
Q 434 1759 690 2068 
Q 947 2378 1403 2484 
z
M 1172 3481 
Q 1172 3119 1398 2916 
Q 1625 2713 2034 2713 
Q 2441 2713 2670 2916 
Q 2900 3119 2900 3481 
Q 2900 3844 2670 4047 
Q 2441 4250 2034 4250 
Q 1625 4250 1398 4047 
Q 1172 3844 1172 3481 
z
" id="DejaVuSans-38" transform="scale(0.015625)"/>
       </defs>
       <use xlink:href="#DejaVuSans-38"/>
       <use x="63.623047" xlink:href="#DejaVuSans-65"/>
       <use x="125.146484" xlink:href="#DejaVuSans-2d"/>
       <use x="161.230469" xlink:href="#DejaVuSans-30"/>
       <use x="224.853516" xlink:href="#DejaVuSans-31"/>
      </g>
     </g>
    </g>
    <g id="xtick_18">
     <g id="line2d_42">
      <g>
       <use style="stroke:#000000;stroke-width:0.8;" x="478.8" xlink:href="#m1af0deb802" y="535.68"/>
      </g>
     </g>
     <g id="text_16">
      <!-- 1e+00 -->
      <g transform="translate(461.989844 550.278437)scale(0.1 -0.1)">
       <use xlink:href="#DejaVuSans-31"/>
       <use x="63.623047" xlink:href="#DejaVuSans-65"/>
       <use x="125.146484" xlink:href="#DejaVuSans-2b"/>
       <use x="208.935547" xlink:href="#DejaVuSans-30"/>
       <use x="272.558594" xlink:href="#DejaVuSans-30"/>
      </g>
     </g>
    </g>
    <g id="text_17">
     <!-- Coordinate, $x$ -->
     <g transform="translate(235.99 563.956563)scale(0.1 -0.1)">
      <defs>
       <path d="M 4122 4306 
L 4122 3641 
Q 3803 3938 3442 4084 
Q 3081 4231 2675 4231 
Q 1875 4231 1450 3742 
Q 1025 3253 1025 2328 
Q 1025 1406 1450 917 
Q 1875 428 2675 428 
Q 3081 428 3442 575 
Q 3803 722 4122 1019 
L 4122 359 
Q 3791 134 3420 21 
Q 3050 -91 2638 -91 
Q 1578 -91 968 557 
Q 359 1206 359 2328 
Q 359 3453 968 4101 
Q 1578 4750 2638 4750 
Q 3056 4750 3426 4639 
Q 3797 4528 4122 4306 
z
" id="DejaVuSans-43" transform="scale(0.015625)"/>
      </defs>
      <use transform="translate(0 0.015625)" xlink:href="#DejaVuSans-43"/>
      <use transform="translate(69.824219 0.015625)" xlink:href="#DejaVuSans-6f"/>
      <use transform="translate(131.005859 0.015625)" xlink:href="#DejaVuSans-6f"/>
      <use transform="translate(192.1875 0.015625)" xlink:href="#DejaVuSans-72"/>
      <use transform="translate(233.300781 0.015625)" xlink:href="#DejaVuSans-64"/>
      <use transform="translate(296.777344 0.015625)" xlink:href="#DejaVuSans-69"/>
      <use transform="translate(324.560547 0.015625)" xlink:href="#DejaVuSans-6e"/>
      <use transform="translate(387.939453 0.015625)" xlink:href="#DejaVuSans-61"/>
      <use transform="translate(449.21875 0.015625)" xlink:href="#DejaVuSans-74"/>
      <use transform="translate(488.427734 0.015625)" xlink:href="#DejaVuSans-65"/>
      <use transform="translate(549.951172 0.015625)" xlink:href="#DejaVuSans-2c"/>
      <use transform="translate(581.738281 0.015625)" xlink:href="#DejaVuSans-20"/>
      <use transform="translate(613.525391 0.015625)" xlink:href="#DejaVuSans-Oblique-78"/>
     </g>
    </g>
   </g>
   <g id="matplotlib.axis_6">
    <g id="ytick_9">
     <g id="line2d_43">
      <g>
       <use style="stroke:#000000;stroke-width:0.8;" x="60.48" xlink:href="#mde0b708ce4" y="526.035349"/>
      </g>
     </g>
     <g id="text_18">
      <!-- -2e-02 -->
      <g transform="translate(21.02375 529.834568)scale(0.1 -0.1)">
       <use xlink:href="#DejaVuSans-2d"/>
       <use x="36.083984" xlink:href="#DejaVuSans-32"/>
       <use x="99.707031" xlink:href="#DejaVuSans-65"/>
       <use x="161.230469" xlink:href="#DejaVuSans-2d"/>
       <use x="197.314453" xlink:href="#DejaVuSans-30"/>
       <use x="260.9375" xlink:href="#DejaVuSans-32"/>
      </g>
     </g>
    </g>
    <g id="ytick_10">
     <g id="line2d_44">
      <g>
       <use style="stroke:#000000;stroke-width:0.8;" x="60.48" xlink:href="#mde0b708ce4" y="500.316279"/>
      </g>
     </g>
     <g id="text_19">
      <!-- -2e-02 -->
      <g transform="translate(21.02375 504.115498)scale(0.1 -0.1)">
       <use xlink:href="#DejaVuSans-2d"/>
       <use x="36.083984" xlink:href="#DejaVuSans-32"/>
       <use x="99.707031" xlink:href="#DejaVuSans-65"/>
       <use x="161.230469" xlink:href="#DejaVuSans-2d"/>
       <use x="197.314453" xlink:href="#DejaVuSans-30"/>
       <use x="260.9375" xlink:href="#DejaVuSans-32"/>
      </g>
     </g>
    </g>
    <g id="ytick_11">
     <g id="line2d_45">
      <g>
       <use style="stroke:#000000;stroke-width:0.8;" x="60.48" xlink:href="#mde0b708ce4" y="474.597209"/>
      </g>
     </g>
     <g id="text_20">
      <!-- -1e-02 -->
      <g transform="translate(21.02375 478.396428)scale(0.1 -0.1)">
       <use xlink:href="#DejaVuSans-2d"/>
       <use x="36.083984" xlink:href="#DejaVuSans-31"/>
       <use x="99.707031" xlink:href="#DejaVuSans-65"/>
       <use x="161.230469" xlink:href="#DejaVuSans-2d"/>
       <use x="197.314453" xlink:href="#DejaVuSans-30"/>
       <use x="260.9375" xlink:href="#DejaVuSans-32"/>
      </g>
     </g>
    </g>
    <g id="ytick_12">
     <g id="line2d_46">
      <g>
       <use style="stroke:#000000;stroke-width:0.8;" x="60.48" xlink:href="#mde0b708ce4" y="448.87814"/>
      </g>
     </g>
     <g id="text_21">
      <!-- -5e-03 -->
      <g transform="translate(21.02375 452.677358)scale(0.1 -0.1)">
       <defs>
        <path d="M 2597 2516 
Q 3050 2419 3304 2112 
Q 3559 1806 3559 1356 
Q 3559 666 3084 287 
Q 2609 -91 1734 -91 
Q 1441 -91 1130 -33 
Q 819 25 488 141 
L 488 750 
Q 750 597 1062 519 
Q 1375 441 1716 441 
Q 2309 441 2620 675 
Q 2931 909 2931 1356 
Q 2931 1769 2642 2001 
Q 2353 2234 1838 2234 
L 1294 2234 
L 1294 2753 
L 1863 2753 
Q 2328 2753 2575 2939 
Q 2822 3125 2822 3475 
Q 2822 3834 2567 4026 
Q 2313 4219 1838 4219 
Q 1578 4219 1281 4162 
Q 984 4106 628 3988 
L 628 4550 
Q 988 4650 1302 4700 
Q 1616 4750 1894 4750 
Q 2613 4750 3031 4423 
Q 3450 4097 3450 3541 
Q 3450 3153 3228 2886 
Q 3006 2619 2597 2516 
z
" id="DejaVuSans-33" transform="scale(0.015625)"/>
       </defs>
       <use xlink:href="#DejaVuSans-2d"/>
       <use x="36.083984" xlink:href="#DejaVuSans-35"/>
       <use x="99.707031" xlink:href="#DejaVuSans-65"/>
       <use x="161.230469" xlink:href="#DejaVuSans-2d"/>
       <use x="197.314453" xlink:href="#DejaVuSans-30"/>
       <use x="260.9375" xlink:href="#DejaVuSans-33"/>
      </g>
     </g>
    </g>
    <g id="ytick_13">
     <g id="line2d_47">
      <g>
       <use style="stroke:#000000;stroke-width:0.8;" x="60.48" xlink:href="#mde0b708ce4" y="423.15907"/>
      </g>
     </g>
     <g id="text_22">
      <!-- 0e+00 -->
      <g transform="translate(19.859687 426.958289)scale(0.1 -0.1)">
       <use xlink:href="#DejaVuSans-30"/>
       <use x="63.623047" xlink:href="#DejaVuSans-65"/>
       <use x="125.146484" xlink:href="#DejaVuSans-2b"/>
       <use x="208.935547" xlink:href="#DejaVuSans-30"/>
       <use x="272.558594" xlink:href="#DejaVuSans-30"/>
      </g>
     </g>
    </g>
    <g id="text_23">
     <!-- Deflection, $v(x)$ -->
     <g transform="translate(13.78 515.240465)rotate(-90)scale(0.1 -0.1)">
      <defs>
       <path d="M 1259 4147 
L 1259 519 
L 2022 519 
Q 2988 519 3436 956 
Q 3884 1394 3884 2338 
Q 3884 3275 3436 3711 
Q 2988 4147 2022 4147 
L 1259 4147 
z
M 628 4666 
L 1925 4666 
Q 3281 4666 3915 4102 
Q 4550 3538 4550 2338 
Q 4550 1131 3912 565 
Q 3275 0 1925 0 
L 628 0 
L 628 4666 
z
" id="DejaVuSans-44" transform="scale(0.015625)"/>
       <path d="M 603 4863 
L 1178 4863 
L 1178 0 
L 603 0 
L 603 4863 
z
" id="DejaVuSans-6c" transform="scale(0.015625)"/>
       <path d="M 459 3500 
L 1069 3500 
L 1581 525 
L 3256 3500 
L 3866 3500 
L 1875 0 
L 1100 0 
L 459 3500 
z
" id="DejaVuSans-Oblique-76" transform="scale(0.015625)"/>
      </defs>
      <use transform="translate(0 0.015625)" xlink:href="#DejaVuSans-44"/>
      <use transform="translate(77.001953 0.015625)" xlink:href="#DejaVuSans-65"/>
      <use transform="translate(138.525391 0.015625)" xlink:href="#DejaVuSans-66"/>
      <use transform="translate(173.730469 0.015625)" xlink:href="#DejaVuSans-6c"/>
      <use transform="translate(201.513672 0.015625)" xlink:href="#DejaVuSans-65"/>
      <use transform="translate(263.037109 0.015625)" xlink:href="#DejaVuSans-63"/>
      <use transform="translate(318.017578 0.015625)" xlink:href="#DejaVuSans-74"/>
      <use transform="translate(357.226562 0.015625)" xlink:href="#DejaVuSans-69"/>
      <use transform="translate(385.009766 0.015625)" xlink:href="#DejaVuSans-6f"/>
      <use transform="translate(446.191406 0.015625)" xlink:href="#DejaVuSans-6e"/>
      <use transform="translate(509.570312 0.015625)" xlink:href="#DejaVuSans-2c"/>
      <use transform="translate(541.357422 0.015625)" xlink:href="#DejaVuSans-20"/>
      <use transform="translate(573.144531 0.015625)" xlink:href="#DejaVuSans-Oblique-76"/>
      <use transform="translate(632.324219 0.015625)" xlink:href="#DejaVuSans-28"/>
      <use transform="translate(671.337891 0.015625)" xlink:href="#DejaVuSans-Oblique-78"/>
      <use transform="translate(730.517578 0.015625)" xlink:href="#DejaVuSans-29"/>
     </g>
    </g>
   </g>
   <g id="line2d_48">
    <path clip-path="url(#pf13818f42b)" d="M 60.48 423.15907 
L 62.592727 424.782693 
L 64.705455 426.405985 
L 66.818182 428.028615 
L 68.930909 429.65025 
L 71.043636 431.27056 
L 73.156364 432.889214 
L 75.269091 434.505879 
L 77.381818 436.120226 
L 79.494545 437.731921 
L 81.607273 439.340635 
L 83.72 440.946035 
L 85.832727 442.547791 
L 87.945455 444.14557 
L 90.058182 445.739043 
L 92.170909 447.327877 
L 94.283636 448.911741 
L 96.396364 450.490303 
L 98.509091 452.063233 
L 100.621818 453.6302 
L 102.734545 455.19087 
L 104.847273 456.744915 
L 106.96 458.292001 
L 109.072727 459.831798 
L 111.185455 461.363975 
L 113.298182 462.8882 
L 115.410909 464.404141 
L 117.523636 465.911468 
L 119.636364 467.409849 
L 121.749091 468.898953 
L 123.861818 470.378448 
L 125.974545 471.848003 
L 128.087273 473.307287 
L 130.2 474.755969 
L 132.312727 476.193717 
L 134.425455 477.620199 
L 136.538182 479.035085 
L 138.650909 480.438044 
L 140.763636 481.828743 
L 142.876364 483.206851 
L 144.989091 484.572038 
L 147.101818 485.923971 
L 149.214545 487.26232 
L 151.327273 488.586753 
L 153.44 489.896939 
L 155.552727 491.192547 
L 157.665455 492.473245 
L 159.778182 493.738701 
L 161.890909 494.988585 
L 164.003636 496.222566 
L 166.116364 497.440311 
L 168.229091 498.64149 
L 170.341818 499.825771 
L 172.454545 500.992822 
L 174.567273 502.142314 
L 176.68 503.273913 
L 178.792727 504.38729 
L 180.905455 505.482112 
L 183.018182 506.558048 
L 185.130909 507.614767 
L 187.243636 508.651938 
L 189.356364 509.669229 
L 191.469091 510.666309 
L 193.581818 511.642847 
L 195.694545 512.59851 
L 197.807273 513.532969 
L 199.92 514.445891 
L 202.032727 515.336946 
L 204.145455 516.205802 
L 206.258182 517.052127 
L 208.370909 517.87559 
L 210.483636 518.675861 
L 212.596364 519.452607 
L 214.709091 520.205497 
L 216.821818 520.9342 
L 218.934545 521.638385 
L 221.047273 522.317721 
L 223.16 522.971875 
L 225.272727 523.600517 
L 227.385455 524.203315 
L 229.498182 524.779938 
L 231.610909 525.330055 
L 233.723636 525.853334 
L 235.836364 526.349444 
L 237.949091 526.818054 
L 240.061818 527.258833 
L 242.174545 527.671448 
L 244.287273 528.055569 
L 246.4 528.410864 
L 248.512727 528.737003 
L 250.625455 529.033653 
L 252.738182 529.300483 
L 254.850909 529.537163 
L 256.963636 529.74336 
L 259.076364 529.918743 
L 261.189091 530.062982 
L 263.301818 530.175744 
L 265.414545 530.256699 
L 267.527273 530.305515 
L 269.64 530.32186 
" style="fill:none;stroke:#000000;stroke-linecap:square;stroke-width:3;"/>
   </g>
   <g id="line2d_49">
    <path clip-path="url(#pf13818f42b)" d="M 60.48 423.15907 
L 269.64 423.15907 
" style="fill:none;stroke:#000000;stroke-dasharray:5.55,2.4;stroke-dashoffset:0;stroke-width:1.5;"/>
   </g>
   <g id="line2d_50">
    <path clip-path="url(#pf13818f42b)" d="M 269.64 530.32186 
L 271.752727 530.305515 
L 273.865455 530.256699 
L 275.978182 530.175744 
L 278.090909 530.062982 
L 280.203636 529.918743 
L 282.316364 529.74336 
L 284.429091 529.537163 
L 286.541818 529.300483 
L 288.654545 529.033653 
L 290.767273 528.737003 
L 292.88 528.410864 
L 294.992727 528.055569 
L 297.105455 527.671448 
L 299.218182 527.258833 
L 301.330909 526.818054 
L 303.443636 526.349444 
L 305.556364 525.853334 
L 307.669091 525.330055 
L 309.781818 524.779938 
L 311.894545 524.203315 
L 314.007273 523.600517 
L 316.12 522.971875 
L 318.232727 522.317721 
L 320.345455 521.638385 
L 322.458182 520.9342 
L 324.570909 520.205497 
L 326.683636 519.452607 
L 328.796364 518.675861 
L 330.909091 517.87559 
L 333.021818 517.052127 
L 335.134545 516.205802 
L 337.247273 515.336946 
L 339.36 514.445891 
L 341.472727 513.532969 
L 343.585455 512.59851 
L 345.698182 511.642847 
L 347.810909 510.666309 
L 349.923636 509.669229 
L 352.036364 508.651938 
L 354.149091 507.614767 
L 356.261818 506.558048 
L 358.374545 505.482112 
L 360.487273 504.38729 
L 362.6 503.273913 
L 364.712727 502.142314 
L 366.825455 500.992822 
L 368.938182 499.825771 
L 371.050909 498.64149 
L 373.163636 497.440311 
L 375.276364 496.222566 
L 377.389091 494.988585 
L 379.501818 493.738701 
L 381.614545 492.473245 
L 383.727273 491.192547 
L 385.84 489.896939 
L 387.952727 488.586753 
L 390.065455 487.26232 
L 392.178182 485.923971 
L 394.290909 484.572038 
L 396.403636 483.206851 
L 398.516364 481.828743 
L 400.629091 480.438044 
L 402.741818 479.035085 
L 404.854545 477.620199 
L 406.967273 476.193717 
L 409.08 474.755969 
L 411.192727 473.307287 
L 413.305455 471.848003 
L 415.418182 470.378448 
L 417.530909 468.898953 
L 419.643636 467.409849 
L 421.756364 465.911468 
L 423.869091 464.404141 
L 425.981818 462.8882 
L 428.094545 461.363975 
L 430.207273 459.831798 
L 432.32 458.292001 
L 434.432727 456.744915 
L 436.545455 455.19087 
L 438.658182 453.6302 
L 440.770909 452.063233 
L 442.883636 450.490303 
L 444.996364 448.911741 
L 447.109091 447.327877 
L 449.221818 445.739043 
L 451.334545 444.14557 
L 453.447273 442.547791 
L 455.56 440.946035 
L 457.672727 439.340635 
L 459.785455 437.731921 
L 461.898182 436.120226 
L 464.010909 434.505879 
L 466.123636 432.889214 
L 468.236364 431.27056 
L 470.349091 429.65025 
L 472.461818 428.028615 
L 474.574545 426.405985 
L 476.687273 424.782693 
L 478.8 423.15907 
" style="fill:none;stroke:#000000;stroke-linecap:square;stroke-width:3;"/>
   </g>
   <g id="line2d_51">
    <path clip-path="url(#pf13818f42b)" d="M 269.64 423.15907 
L 478.8 423.15907 
" style="fill:none;stroke:#000000;stroke-dasharray:5.55,2.4;stroke-dashoffset:0;stroke-width:1.5;"/>
   </g>
   <g id="patch_14">
    <path d="M 60.48 535.68 
L 60.48 417.80093 
" style="fill:none;stroke:#000000;stroke-linecap:square;stroke-linejoin:miter;stroke-width:0.8;"/>
   </g>
   <g id="patch_15">
    <path d="M 478.8 535.68 
L 478.8 417.80093 
" style="fill:none;stroke:#000000;stroke-linecap:square;stroke-linejoin:miter;stroke-width:0.8;"/>
   </g>
   <g id="patch_16">
    <path d="M 60.48 535.68 
L 478.8 535.68 
" style="fill:none;stroke:#000000;stroke-linecap:square;stroke-linejoin:miter;stroke-width:0.8;"/>
   </g>
   <g id="patch_17">
    <path d="M 60.48 417.80093 
L 478.8 417.80093 
" style="fill:none;stroke:#000000;stroke-linecap:square;stroke-linejoin:miter;stroke-width:0.8;"/>
   </g>
  </g>
 </g>
 <defs>
  <clipPath id="pbc9dfb9225">
   <rect height="117.87907" width="418.32" x="60.48" y="28.8"/>
  </clipPath>
  <clipPath id="p68fe09a4e4">
   <rect height="117.87907" width="418.32" x="60.48" y="158.466977"/>
  </clipPath>
  <clipPath id="p52b11ab6d4">
   <rect height="117.87907" width="418.32" x="60.48" y="288.133953"/>
  </clipPath>
  <clipPath id="pf13818f42b">
   <rect height="117.87907" width="418.32" x="60.48" y="417.80093"/>
  </clipPath>
 </defs>
</svg>
