<?xml version="1.0" encoding="utf-8" standalone="no"?>
<!DOCTYPE svg PUBLIC "-//W3C//DTD SVG 1.1//EN"
  "http://www.w3.org/Graphics/SVG/1.1/DTD/svg11.dtd">
<svg xmlns:xlink="http://www.w3.org/1999/xlink" width="504pt" height="576pt" viewBox="0 0 504 576" xmlns="http://www.w3.org/2000/svg" version="1.1">
 <metadata>
  <rdf:RDF xmlns:dc="http://purl.org/dc/elements/1.1/" xmlns:cc="http://creativecommons.org/ns#" xmlns:rdf="http://www.w3.org/1999/02/22-rdf-syntax-ns#">
   <cc:Work>
    <dc:type rdf:resource="http://purl.org/dc/dcmitype/StillImage"/>
    <dc:date>2026-01-17T12:48:25.197505</dc:date>
    <dc:format>image/svg+xml</dc:format>
    <dc:creator>
     <cc:Agent>
      <dc:title>Matplotlib v3.10.8, https://matplotlib.org/</dc:title>
     </cc:Agent>
    </dc:creator>
   </cc:Work>
  </rdf:RDF>
 </metadata>
 <defs>
  <style type="text/css">*{stroke-linejoin: round; stroke-linecap: butt}</style>
 </defs>
 <g id="figure_1">
  <g id="patch_1">
   <path d="M 0 576 
L 504 576 
L 504 0 
L 0 0 
z
" style="fill: #ffffff"/>
  </g>
  <g id="axes_1">
   <g id="FillBetweenPolyCollection_1">
    <defs>
     <path id="m5119f03569" d="M 60.48 -488.260465 
L 60.48 -531.126456 
L 64.705455 -531.555072 
L 68.930909 -531.974941 
L 73.156364 -532.386063 
L 77.381818 -532.788437 
L 81.607273 -533.182064 
L 85.832727 -533.566944 
L 90.058182 -533.943077 
L 94.283636 -534.310462 
L 98.509091 -534.6691 
L 102.734545 -535.018991 
L 106.96 -535.360134 
L 111.185455 -535.69253 
L 115.410909 -536.016179 
L 119.636364 -536.331081 
L 123.861818 -536.637235 
L 128.087273 -536.934643 
L 132.312727 -537.223303 
L 136.538182 -537.503215 
L 140.763636 -537.77438 
L 144.989091 -538.036799 
L 149.214545 -538.290469 
L 153.44 -538.535393 
L 157.665455 -538.771569 
L 161.890909 -538.998998 
L 166.116364 -539.21768 
L 170.341818 -539.427614 
L 174.567273 -539.628801 
L 178.792727 -539.821241 
L 183.018182 -540.004934 
L 187.243636 -540.179879 
L 191.469091 -540.346077 
L 195.694545 -540.503528 
L 199.92 -540.652232 
L 204.145455 -540.792188 
L 208.370909 -540.923397 
L 212.596364 -541.045859 
L 216.821818 -541.159573 
L 221.047273 -541.264541 
L 225.272727 -541.360761 
L 229.498182 -541.448233 
L 233.723636 -541.526959 
L 237.949091 -541.596937 
L 242.174545 -541.658168 
L 246.4 -541.710651 
L 250.625455 -541.754388 
L 254.850909 -541.789377 
L 259.076364 -541.815619 
L 263.301818 -541.833113 
L 267.527273 -541.84186 
L 271.752727 -541.84186 
L 275.978182 -541.833113 
L 280.203636 -541.815619 
L 284.429091 -541.789377 
L 288.654545 -541.754388 
L 292.88 -541.710651 
L 297.105455 -541.658168 
L 301.330909 -541.596937 
L 305.556364 -541.526959 
L 309.781818 -541.448233 
L 314.007273 -541.360761 
L 318.232727 -541.264541 
L 322.458182 -541.159573 
L 326.683636 -541.045859 
L 330.909091 -540.923397 
L 335.134545 -540.792188 
L 339.36 -540.652232 
L 343.585455 -540.503528 
L 347.810909 -540.346077 
L 352.036364 -540.179879 
L 356.261818 -540.004934 
L 360.487273 -539.821241 
L 364.712727 -539.628801 
L 368.938182 -539.427614 
L 373.163636 -539.21768 
L 377.389091 -538.998998 
L 381.614545 -538.771569 
L 385.84 -538.535393 
L 390.065455 -538.290469 
L 394.290909 -538.036799 
L 398.516364 -537.77438 
L 402.741818 -537.503215 
L 406.967273 -537.223303 
L 411.192727 -536.934643 
L 415.418182 -536.637235 
L 419.643636 -536.331081 
L 423.869091 -536.016179 
L 428.094545 -535.69253 
L 432.32 -535.360134 
L 436.545455 -535.018991 
L 440.770909 -534.6691 
L 444.996364 -534.310462 
L 449.221818 -533.943077 
L 453.447273 -533.566944 
L 457.672727 -533.182064 
L 461.898182 -532.788437 
L 466.123636 -532.386063 
L 470.349091 -531.974941 
L 474.574545 -531.555072 
L 478.8 -531.126456 
L 478.8 -488.260465 
L 478.8 -488.260465 
L 474.574545 -488.260465 
L 470.349091 -488.260465 
L 466.123636 -488.260465 
L 461.898182 -488.260465 
L 457.672727 -488.260465 
L 453.447273 -488.260465 
L 449.221818 -488.260465 
L 444.996364 -488.260465 
L 440.770909 -488.260465 
L 436.545455 -488.260465 
L 432.32 -488.260465 
L 428.094545 -488.260465 
L 423.869091 -488.260465 
L 419.643636 -488.260465 
L 415.418182 -488.260465 
L 411.192727 -488.260465 
L 406.967273 -488.260465 
L 402.741818 -488.260465 
L 398.516364 -488.260465 
L 394.290909 -488.260465 
L 390.065455 -488.260465 
L 385.84 -488.260465 
L 381.614545 -488.260465 
L 377.389091 -488.260465 
L 373.163636 -488.260465 
L 368.938182 -488.260465 
L 364.712727 -488.260465 
L 360.487273 -488.260465 
L 356.261818 -488.260465 
L 352.036364 -488.260465 
L 347.810909 -488.260465 
L 343.585455 -488.260465 
L 339.36 -488.260465 
L 335.134545 -488.260465 
L 330.909091 -488.260465 
L 326.683636 -488.260465 
L 322.458182 -488.260465 
L 318.232727 -488.260465 
L 314.007273 -488.260465 
L 309.781818 -488.260465 
L 305.556364 -488.260465 
L 301.330909 -488.260465 
L 297.105455 -488.260465 
L 292.88 -488.260465 
L 288.654545 -488.260465 
L 284.429091 -488.260465 
L 280.203636 -488.260465 
L 275.978182 -488.260465 
L 271.752727 -488.260465 
L 267.527273 -488.260465 
L 263.301818 -488.260465 
L 259.076364 -488.260465 
L 254.850909 -488.260465 
L 250.625455 -488.260465 
L 246.4 -488.260465 
L 242.174545 -488.260465 
L 237.949091 -488.260465 
L 233.723636 -488.260465 
L 229.498182 -488.260465 
L 225.272727 -488.260465 
L 221.047273 -488.260465 
L 216.821818 -488.260465 
L 212.596364 -488.260465 
L 208.370909 -488.260465 
L 204.145455 -488.260465 
L 199.92 -488.260465 
L 195.694545 -488.260465 
L 191.469091 -488.260465 
L 187.243636 -488.260465 
L 183.018182 -488.260465 
L 178.792727 -488.260465 
L 174.567273 -488.260465 
L 170.341818 -488.260465 
L 166.116364 -488.260465 
L 161.890909 -488.260465 
L 157.665455 -488.260465 
L 153.44 -488.260465 
L 149.214545 -488.260465 
L 144.989091 -488.260465 
L 140.763636 -488.260465 
L 136.538182 -488.260465 
L 132.312727 -488.260465 
L 128.087273 -488.260465 
L 123.861818 -488.260465 
L 119.636364 -488.260465 
L 115.410909 -488.260465 
L 111.185455 -488.260465 
L 106.96 -488.260465 
L 102.734545 -488.260465 
L 98.509091 -488.260465 
L 94.283636 -488.260465 
L 90.058182 -488.260465 
L 85.832727 -488.260465 
L 81.607273 -488.260465 
L 77.381818 -488.260465 
L 73.156364 -488.260465 
L 68.930909 -488.260465 
L 64.705455 -488.260465 
L 60.48 -488.260465 
z
" style="stroke: #4169e1; stroke-opacity: 0.35; stroke-width: 2"/>
    </defs>
    <g clip-path="url(#p13ffd8827b)">
     <use xlink:href="#m5119f03569" x="0" y="576" style="fill: #4169e1; fill-opacity: 0.35; stroke: #4169e1; stroke-opacity: 0.35; stroke-width: 2"/>
    </g>
   </g>
   <g id="FillBetweenPolyCollection_2">
    <path d="M 50.022 109.172093 
L 50.022 109.172093 
L 60.48 109.172093 
L 70.938 109.172093 
L 70.938 109.172093 
L 70.938 109.172093 
L 60.48 87.739535 
L 50.022 109.172093 
z
" style="fill: #c0c0c0"/>
   </g>
   <g id="FillBetweenPolyCollection_3">
    <path d="M 471.4794 102.742326 
L 471.4794 102.742326 
L 478.8 102.742326 
L 486.1206 102.742326 
L 486.1206 102.742326 
L 486.1206 102.742326 
L 478.8 87.739535 
L 471.4794 102.742326 
z
" style="fill: #c0c0c0"/>
   </g>
   <g id="line2d_1">
    <path d="M 60.48 44.873544 
L 64.705455 44.444928 
L 68.930909 44.025059 
L 73.156364 43.613937 
L 77.381818 43.211563 
L 81.607273 42.817936 
L 85.832727 42.433056 
L 90.058182 42.056923 
L 94.283636 41.689538 
L 98.509091 41.3309 
L 102.734545 40.981009 
L 106.96 40.639866 
L 111.185455 40.30747 
L 115.410909 39.983821 
L 119.636364 39.668919 
L 123.861818 39.362765 
L 128.087273 39.065357 
L 132.312727 38.776697 
L 136.538182 38.496785 
L 140.763636 38.22562 
L 144.989091 37.963201 
L 149.214545 37.709531 
L 153.44 37.464607 
L 157.665455 37.228431 
L 161.890909 37.001002 
L 166.116364 36.78232 
L 170.341818 36.572386 
L 174.567273 36.371199 
L 178.792727 36.178759 
L 183.018182 35.995066 
L 187.243636 35.820121 
L 191.469091 35.653923 
L 195.694545 35.496472 
L 199.92 35.347768 
L 204.145455 35.207812 
L 208.370909 35.076603 
L 212.596364 34.954141 
L 216.821818 34.840427 
L 221.047273 34.735459 
L 225.272727 34.639239 
L 229.498182 34.551767 
L 233.723636 34.473041 
L 237.949091 34.403063 
L 242.174545 34.341832 
L 246.4 34.289349 
L 250.625455 34.245612 
L 254.850909 34.210623 
L 259.076364 34.184381 
L 263.301818 34.166887 
L 267.527273 34.15814 
L 271.752727 34.15814 
L 275.978182 34.166887 
L 280.203636 34.184381 
L 284.429091 34.210623 
L 288.654545 34.245612 
L 292.88 34.289349 
L 297.105455 34.341832 
L 301.330909 34.403063 
L 305.556364 34.473041 
L 309.781818 34.551767 
L 314.007273 34.639239 
L 318.232727 34.735459 
L 322.458182 34.840427 
L 326.683636 34.954141 
L 330.909091 35.076603 
L 335.134545 35.207812 
L 339.36 35.347768 
L 343.585455 35.496472 
L 347.810909 35.653923 
L 352.036364 35.820121 
L 356.261818 35.995066 
L 360.487273 36.178759 
L 364.712727 36.371199 
L 368.938182 36.572386 
L 373.163636 36.78232 
L 377.389091 37.001002 
L 381.614545 37.228431 
L 385.84 37.464607 
L 390.065455 37.709531 
L 394.290909 37.963201 
L 398.516364 38.22562 
L 402.741818 38.496785 
L 406.967273 38.776697 
L 411.192727 39.065357 
L 415.418182 39.362765 
L 419.643636 39.668919 
L 423.869091 39.983821 
L 428.094545 40.30747 
L 432.32 40.639866 
L 436.545455 40.981009 
L 440.770909 41.3309 
L 444.996364 41.689538 
L 449.221818 42.056923 
L 453.447273 42.433056 
L 457.672727 42.817936 
L 461.898182 43.211563 
L 466.123636 43.613937 
L 470.349091 44.025059 
L 474.574545 44.444928 
L 478.8 44.873544 
" clip-path="url(#p13ffd8827b)" style="fill: none; stroke: #4169e1; stroke-width: 2; stroke-linecap: square"/>
   </g>
   <g id="line2d_2">
    <path d="M 60.48 87.739535 
L 478.8 87.739535 
" clip-path="url(#p13ffd8827b)" style="fill: none; stroke: #000000; stroke-width: 3; stroke-linecap: square"/>
   </g>
   <g id="line2d_3">
    <path d="M 60.48 87.739535 
L 60.49937 87.842975 
L 60.556155 87.935751 
L 60.646453 88.007806 
L 60.763982 88.05027 
L 60.900403 88.055983 
L 61.045758 88.019932 
L 61.188985 87.93959 
L 61.318507 87.81513 
L 61.422857 87.649503 
L 61.491309 87.448389 
L 61.514489 87.219995 
L 61.484937 86.974734 
L 61.397586 86.724778 
L 61.250149 86.483511 
L 61.043372 86.264911 
L 60.781157 86.082871 
L 60.470538 85.950507 
L 60.121503 85.879475 
L 59.746678 85.879331 
L 59.360869 85.956953 
L 58.980489 86.116082 
L 58.622888 86.356966 
L 58.305607 86.676164 
L 58.045602 87.066496 
L 57.858454 87.517163 
L 57.757604 88.014029 
L 57.753661 88.54006 
L 57.853785 89.075909 
L 58.061212 89.600623 
L 58.374908 90.092449 
L 58.789403 90.52971 
L 59.294794 90.891712 
L 59.876943 91.159642 
L 60.517848 91.317441 
L 61.196197 91.35258 
L 61.888074 91.256734 
L 62.567805 91.026314 
L 63.208899 90.66282 
L 63.78507 90.173006 
L 64.271281 89.56885 
L 64.644786 88.867298 
L 64.886112 88.089821 
L 64.97996 87.261757 
L 64.915962 86.411495 
L 64.689284 85.569498 
L 64.301031 84.767214 
L 63.758435 84.035912 
L 63.074813 83.405479 
L 62.269293 82.903233 
L 61.366304 82.552794 
L 60.394845 82.37305 
L 59.387561 82.377285 
L 58.379645 82.572472 
L 57.407606 82.958796 
L 56.507955 83.529414 
L 55.715845 84.270468 
L 55.063713 85.161371 
L 54.579997 86.175344 
L 54.287946 87.280209 
L 54.2046 88.439401 
L 54.339967 89.613181 
L 54.696436 90.759994 
L 55.268451 91.837942 
L 56.042484 92.806306 
L 56.99728 93.627071 
L 58.104418 94.266392 
L 59.329129 94.695952 
L 60.631382 94.894147 
L 61.967194 94.847062 
L 63.290109 94.549191 
L 64.552818 94.003868 
L 65.708844 93.223389 
L 66.714247 92.228802 
L 67.529274 91.049388 
L 68.119905 89.721816 
L 68.459223 88.289016 
L 68.528567 86.798792 
L 68.318408 85.302235 
L 67.828922 83.851964 
L 67.070222 82.50028 
L 66.062238 81.297289 
L 64.834241 80.289049 
L 63.424021 79.515832 
L 61.876737 79.010547 
L 60.243476 78.797396 
L 58.57957 78.890806 
L 56.942723 79.294696 
L 55.391007 80.002097 
L 53.980807 80.995161 
L 52.764777 82.24555 
L 51.789892 83.715214 
L 51.095654 85.357535 
L 50.712531 87.118794 
L 50.660688 88.939924 
L 50.949054 90.758491 
L 51.574774 92.510837 
L 52.523065 94.134303 
L 53.767499 95.569468 
L 55.270698 96.762311 
" style="fill: none; stroke: #000000; stroke-width: 1.5; stroke-linecap: round"/>
   </g>
   <g id="line2d_4">
    <path d="M 50.022 109.172093 
L 60.48 109.172093 
L 70.938 109.172093 
" style="fill: none; stroke: #000000; stroke-linecap: round"/>
   </g>
   <g id="line2d_5">
    <path d="M 50.022 109.172093 
L 60.48 87.739535 
L 70.938 109.172093 
" style="fill: none; stroke: #000000; stroke-linecap: round"/>
   </g>
   <g id="line2d_6">
    <path d="M 50.022 111.315349 
L 70.938 111.315349 
" style="fill: none; stroke: #c0c0c0; stroke-width: 5"/>
   </g>
   <g id="line2d_7">
    <path d="M 50.022 109.172093 
L 70.938 109.172093 
" style="fill: none; stroke: #000000; stroke-width: 1.5"/>
   </g>
   <g id="line2d_8">
    <path d="M 478.8 87.739535 
L 478.78063 87.842975 
L 478.723845 87.935751 
L 478.633547 88.007806 
L 478.516018 88.05027 
L 478.379597 88.055983 
L 478.234242 88.019932 
L 478.091015 87.93959 
L 477.961493 87.81513 
L 477.857143 87.649503 
L 477.788691 87.448389 
L 477.765511 87.219995 
L 477.795063 86.974734 
L 477.882414 86.724778 
L 478.029851 86.483511 
L 478.236628 86.264911 
L 478.498843 86.082871 
L 478.809462 85.950507 
L 479.158497 85.879475 
L 479.533322 85.879331 
L 479.919131 85.956953 
L 480.299511 86.116082 
L 480.657112 86.356966 
L 480.974393 86.676164 
L 481.234398 87.066496 
L 481.421546 87.517163 
L 481.522396 88.014029 
L 481.526339 88.54006 
L 481.426215 89.075909 
L 481.218788 89.600623 
L 480.905092 90.092449 
L 480.490597 90.52971 
L 479.985206 90.891712 
L 479.403057 91.159642 
L 478.762152 91.317441 
L 478.083803 91.35258 
L 477.391926 91.256734 
L 476.712195 91.026314 
L 476.071101 90.66282 
L 475.49493 90.173006 
L 475.008719 89.56885 
L 474.635214 88.867298 
L 474.393888 88.089821 
L 474.30004 87.261757 
L 474.364038 86.411495 
L 474.590716 85.569498 
L 474.978969 84.767214 
L 475.521565 84.035912 
L 476.205187 83.405479 
L 477.010707 82.903233 
L 477.913696 82.552794 
L 478.885155 82.37305 
L 479.892439 82.377285 
L 480.900355 82.572472 
L 481.872394 82.958796 
L 482.772045 83.529414 
L 483.564155 84.270468 
L 484.216287 85.161371 
L 484.700003 86.175344 
L 484.992054 87.280209 
L 485.0754 88.439401 
L 484.940033 89.613181 
L 484.583564 90.759994 
L 484.011549 91.837942 
L 483.237516 92.806306 
L 482.28272 93.627071 
L 481.175582 94.266392 
L 479.950871 94.695952 
L 478.648618 94.894147 
L 477.312806 94.847062 
L 475.989891 94.549191 
L 474.727182 94.003868 
L 473.571156 93.223389 
L 472.565753 92.228802 
L 471.750726 91.049388 
L 471.160095 89.721816 
L 470.820777 88.289016 
L 470.751433 86.798792 
L 470.961592 85.302235 
L 471.451078 83.851964 
L 472.209778 82.50028 
L 473.217762 81.297289 
L 474.445759 80.289049 
L 475.855979 79.515832 
L 477.403263 79.010547 
L 479.036524 78.797396 
L 480.70043 78.890806 
L 482.337277 79.294696 
L 483.888993 80.002097 
L 485.299193 80.995161 
L 486.515223 82.24555 
L 487.490108 83.715214 
L 488.184346 85.357535 
L 488.567469 87.118794 
L 488.619312 88.939924 
L 488.330946 90.758491 
L 487.705226 92.510837 
L 486.756935 94.134303 
L 485.512501 95.569468 
L 484.009302 96.762311 
" style="fill: none; stroke: #000000; stroke-width: 1.5; stroke-linecap: round"/>
   </g>
   <g id="line2d_9">
    <path d="M 471.4794 102.742326 
L 478.8 102.742326 
L 486.1206 102.742326 
" style="fill: none; stroke: #000000; stroke-linecap: round"/>
   </g>
   <g id="line2d_10">
    <path d="M 471.4794 102.742326 
L 478.8 87.739535 
L 486.1206 102.742326 
" style="fill: none; stroke: #000000; stroke-linecap: round"/>
   </g>
   <g id="line2d_11">
    <path d="M 474.6168 105.957209 
" style="fill: none; stroke: #000000; stroke-width: 1.5; stroke-linecap: square"/>
    <defs>
     <path id="mda48930e6b" d="M 0 3 
C 0.795609 3 1.55874 2.683901 2.12132 2.12132 
C 2.683901 1.55874 3 0.795609 3 0 
C 3 -0.795609 2.683901 -1.55874 2.12132 -2.12132 
C 1.55874 -2.683901 0.795609 -3 0 -3 
C -0.795609 -3 -1.55874 -2.683901 -2.12132 -2.12132 
C -2.683901 -1.55874 -3 -0.795609 -3 0 
C -3 0.795609 -2.683901 1.55874 -2.12132 2.12132 
C -1.55874 2.683901 -0.795609 3 0 3 
z
"/>
    </defs>
    <g>
     <use xlink:href="#mda48930e6b" x="474.6168" y="105.957209"/>
    </g>
   </g>
   <g id="line2d_12">
    <path d="M 482.9832 105.957209 
" style="fill: none; stroke: #000000; stroke-width: 1.5; stroke-linecap: square"/>
    <g>
     <use xlink:href="#mda48930e6b" x="482.9832" y="105.957209"/>
    </g>
   </g>
   <g id="line2d_13">
    <path d="M 468.342 111.315349 
L 489.258 111.315349 
" style="fill: none; stroke: #c0c0c0; stroke-width: 5"/>
   </g>
   <g id="line2d_14">
    <path d="M 468.342 109.172093 
L 489.258 109.172093 
" style="fill: none; stroke: #000000; stroke-width: 1.5"/>
   </g>
  </g>
  <g id="axes_2">
   <g id="patch_2">
    <path d="M 60.48 276.346047 
L 478.8 276.346047 
L 478.8 158.466977 
L 60.48 158.466977 
z
" style="fill: #ffffff"/>
   </g>
   <g id="FillBetweenPolyCollection_4">
    <defs>
     <path id="m5ed2b116de" d="M 60.48 -358.593488 
L 60.48 -305.012093 
L 64.705455 -305.944564 
L 68.930909 -306.886217 
L 73.156364 -307.836864 
L 77.381818 -308.796314 
L 81.607273 -309.764379 
L 85.832727 -310.740869 
L 90.058182 -311.725595 
L 94.283636 -312.718368 
L 98.509091 -313.718998 
L 102.734545 -314.727296 
L 106.96 -315.743072 
L 111.185455 -316.766138 
L 115.410909 -317.796303 
L 119.636364 -318.833379 
L 123.861818 -319.877177 
L 128.087273 -320.927506 
L 132.312727 -321.984178 
L 136.538182 -323.047003 
L 140.763636 -324.115792 
L 144.989091 -325.190356 
L 149.214545 -326.270505 
L 153.44 -327.356049 
L 157.665455 -328.446801 
L 161.890909 -329.54257 
L 166.116364 -330.643166 
L 170.341818 -331.748401 
L 174.567273 -332.858086 
L 178.792727 -333.97203 
L 183.018182 -335.090046 
L 187.243636 -336.211942 
L 191.469091 -337.33753 
L 195.694545 -338.466621 
L 199.92 -339.599025 
L 204.145455 -340.734554 
L 208.370909 -341.873017 
L 212.596364 -343.014225 
L 216.821818 -344.157989 
L 221.047273 -345.30412 
L 225.272727 -346.452428 
L 229.498182 -347.602724 
L 233.723636 -348.754818 
L 237.949091 -349.908522 
L 242.174545 -351.063646 
L 246.4 -352.220001 
L 250.625455 -353.377397 
L 254.850909 -354.535645 
L 259.076364 -355.694555 
L 263.301818 -356.853939 
L 267.527273 -358.013607 
L 271.752727 -359.17337 
L 275.978182 -360.333038 
L 280.203636 -361.492421 
L 284.429091 -362.651332 
L 288.654545 -363.80958 
L 292.88 -364.966976 
L 297.105455 -366.123331 
L 301.330909 -367.278455 
L 305.556364 -368.432158 
L 309.781818 -369.584253 
L 314.007273 -370.734549 
L 318.232727 -371.882857 
L 322.458182 -373.028988 
L 326.683636 -374.172752 
L 330.909091 -375.31396 
L 335.134545 -376.452423 
L 339.36 -377.587951 
L 343.585455 -378.720356 
L 347.810909 -379.849446 
L 352.036364 -380.975035 
L 356.261818 -382.096931 
L 360.487273 -383.214946 
L 364.712727 -384.328891 
L 368.938182 -385.438575 
L 373.163636 -386.543811 
L 377.389091 -387.644407 
L 381.614545 -388.740176 
L 385.84 -389.830927 
L 390.065455 -390.916472 
L 394.290909 -391.996621 
L 398.516364 -393.071185 
L 402.741818 -394.139974 
L 406.967273 -395.202799 
L 411.192727 -396.259471 
L 415.418182 -397.3098 
L 419.643636 -398.353597 
L 423.869091 -399.390674 
L 428.094545 -400.420839 
L 432.32 -401.443905 
L 436.545455 -402.459681 
L 440.770909 -403.467979 
L 444.996364 -404.468609 
L 449.221818 -405.461381 
L 453.447273 -406.446108 
L 457.672727 -407.422598 
L 461.898182 -408.390663 
L 466.123636 -409.350113 
L 470.349091 -410.30076 
L 474.574545 -411.242413 
L 478.8 -412.174884 
L 478.8 -358.593488 
L 478.8 -358.593488 
L 474.574545 -358.593488 
L 470.349091 -358.593488 
L 466.123636 -358.593488 
L 461.898182 -358.593488 
L 457.672727 -358.593488 
L 453.447273 -358.593488 
L 449.221818 -358.593488 
L 444.996364 -358.593488 
L 440.770909 -358.593488 
L 436.545455 -358.593488 
L 432.32 -358.593488 
L 428.094545 -358.593488 
L 423.869091 -358.593488 
L 419.643636 -358.593488 
L 415.418182 -358.593488 
L 411.192727 -358.593488 
L 406.967273 -358.593488 
L 402.741818 -358.593488 
L 398.516364 -358.593488 
L 394.290909 -358.593488 
L 390.065455 -358.593488 
L 385.84 -358.593488 
L 381.614545 -358.593488 
L 377.389091 -358.593488 
L 373.163636 -358.593488 
L 368.938182 -358.593488 
L 364.712727 -358.593488 
L 360.487273 -358.593488 
L 356.261818 -358.593488 
L 352.036364 -358.593488 
L 347.810909 -358.593488 
L 343.585455 -358.593488 
L 339.36 -358.593488 
L 335.134545 -358.593488 
L 330.909091 -358.593488 
L 326.683636 -358.593488 
L 322.458182 -358.593488 
L 318.232727 -358.593488 
L 314.007273 -358.593488 
L 309.781818 -358.593488 
L 305.556364 -358.593488 
L 301.330909 -358.593488 
L 297.105455 -358.593488 
L 292.88 -358.593488 
L 288.654545 -358.593488 
L 284.429091 -358.593488 
L 280.203636 -358.593488 
L 275.978182 -358.593488 
L 271.752727 -358.593488 
L 267.527273 -358.593488 
L 263.301818 -358.593488 
L 259.076364 -358.593488 
L 254.850909 -358.593488 
L 250.625455 -358.593488 
L 246.4 -358.593488 
L 242.174545 -358.593488 
L 237.949091 -358.593488 
L 233.723636 -358.593488 
L 229.498182 -358.593488 
L 225.272727 -358.593488 
L 221.047273 -358.593488 
L 216.821818 -358.593488 
L 212.596364 -358.593488 
L 208.370909 -358.593488 
L 204.145455 -358.593488 
L 199.92 -358.593488 
L 195.694545 -358.593488 
L 191.469091 -358.593488 
L 187.243636 -358.593488 
L 183.018182 -358.593488 
L 178.792727 -358.593488 
L 174.567273 -358.593488 
L 170.341818 -358.593488 
L 166.116364 -358.593488 
L 161.890909 -358.593488 
L 157.665455 -358.593488 
L 153.44 -358.593488 
L 149.214545 -358.593488 
L 144.989091 -358.593488 
L 140.763636 -358.593488 
L 136.538182 -358.593488 
L 132.312727 -358.593488 
L 128.087273 -358.593488 
L 123.861818 -358.593488 
L 119.636364 -358.593488 
L 115.410909 -358.593488 
L 111.185455 -358.593488 
L 106.96 -358.593488 
L 102.734545 -358.593488 
L 98.509091 -358.593488 
L 94.283636 -358.593488 
L 90.058182 -358.593488 
L 85.832727 -358.593488 
L 81.607273 -358.593488 
L 77.381818 -358.593488 
L 73.156364 -358.593488 
L 68.930909 -358.593488 
L 64.705455 -358.593488 
L 60.48 -358.593488 
z
" style="stroke: #228b22; stroke-opacity: 0.35"/>
    </defs>
    <g clip-path="url(#p9b21ee7393)">
     <use xlink:href="#m5ed2b116de" x="0" y="576" style="fill: #228b22; fill-opacity: 0.35; stroke: #228b22; stroke-opacity: 0.35"/>
    </g>
   </g>
   <g id="matplotlib.axis_1">
    <g id="xtick_1">
     <g id="line2d_15">
      <defs>
       <path id="m391ec7c154" d="M 0 0 
L 0 3.5 
" style="stroke: #000000; stroke-width: 0.8"/>
      </defs>
      <g>
       <use xlink:href="#m391ec7c154" x="60.48" y="276.346047" style="stroke: #000000; stroke-width: 0.8"/>
      </g>
     </g>
    </g>
    <g id="xtick_2">
     <g id="line2d_16">
      <g>
       <use xlink:href="#m391ec7c154" x="144.144" y="276.346047" style="stroke: #000000; stroke-width: 0.8"/>
      </g>
     </g>
    </g>
    <g id="xtick_3">
     <g id="line2d_17">
      <g>
       <use xlink:href="#m391ec7c154" x="227.808" y="276.346047" style="stroke: #000000; stroke-width: 0.8"/>
      </g>
     </g>
    </g>
    <g id="xtick_4">
     <g id="line2d_18">
      <g>
       <use xlink:href="#m391ec7c154" x="311.472" y="276.346047" style="stroke: #000000; stroke-width: 0.8"/>
      </g>
     </g>
    </g>
    <g id="xtick_5">
     <g id="line2d_19">
      <g>
       <use xlink:href="#m391ec7c154" x="395.136" y="276.346047" style="stroke: #000000; stroke-width: 0.8"/>
      </g>
     </g>
    </g>
    <g id="xtick_6">
     <g id="line2d_20">
      <g>
       <use xlink:href="#m391ec7c154" x="478.8" y="276.346047" style="stroke: #000000; stroke-width: 0.8"/>
      </g>
     </g>
    </g>
   </g>
   <g id="matplotlib.axis_2">
    <g id="ytick_1">
     <g id="line2d_21">
      <defs>
       <path id="m203c729565" d="M 0 0 
L -3.5 0 
" style="stroke: #000000; stroke-width: 0.8"/>
      </defs>
      <g>
       <use xlink:href="#m203c729565" x="60.48" y="263.333422" style="stroke: #000000; stroke-width: 0.8"/>
      </g>
     </g>
     <g id="text_1">
      <!-- -5e-01 -->
      <g transform="translate(21.02375 267.132641) scale(0.1 -0.1)">
       <defs>
        <path id="DejaVuSans-2d" d="M 313 2009 
L 1997 2009 
L 1997 1497 
L 313 1497 
L 313 2009 
z
" transform="scale(0.015625)"/>
        <path id="DejaVuSans-35" d="M 691 4666 
L 3169 4666 
L 3169 4134 
L 1269 4134 
L 1269 2991 
Q 1406 3038 1543 3061 
Q 1681 3084 1819 3084 
Q 2600 3084 3056 2656 
Q 3513 2228 3513 1497 
Q 3513 744 3044 326 
Q 2575 -91 1722 -91 
Q 1428 -91 1123 -41 
Q 819 9 494 109 
L 494 744 
Q 775 591 1075 516 
Q 1375 441 1709 441 
Q 2250 441 2565 725 
Q 2881 1009 2881 1497 
Q 2881 1984 2565 2268 
Q 2250 2553 1709 2553 
Q 1456 2553 1204 2497 
Q 953 2441 691 2322 
L 691 4666 
z
" transform="scale(0.015625)"/>
        <path id="DejaVuSans-65" d="M 3597 1894 
L 3597 1613 
L 953 1613 
Q 991 1019 1311 708 
Q 1631 397 2203 397 
Q 2534 397 2845 478 
Q 3156 559 3463 722 
L 3463 178 
Q 3153 47 2828 -22 
Q 2503 -91 2169 -91 
Q 1331 -91 842 396 
Q 353 884 353 1716 
Q 353 2575 817 3079 
Q 1281 3584 2069 3584 
Q 2775 3584 3186 3129 
Q 3597 2675 3597 1894 
z
M 3022 2063 
Q 3016 2534 2758 2815 
Q 2500 3097 2075 3097 
Q 1594 3097 1305 2825 
Q 1016 2553 972 2059 
L 3022 2063 
z
" transform="scale(0.015625)"/>
        <path id="DejaVuSans-30" d="M 2034 4250 
Q 1547 4250 1301 3770 
Q 1056 3291 1056 2328 
Q 1056 1369 1301 889 
Q 1547 409 2034 409 
Q 2525 409 2770 889 
Q 3016 1369 3016 2328 
Q 3016 3291 2770 3770 
Q 2525 4250 2034 4250 
z
M 2034 4750 
Q 2819 4750 3233 4129 
Q 3647 3509 3647 2328 
Q 3647 1150 3233 529 
Q 2819 -91 2034 -91 
Q 1250 -91 836 529 
Q 422 1150 422 2328 
Q 422 3509 836 4129 
Q 1250 4750 2034 4750 
z
" transform="scale(0.015625)"/>
        <path id="DejaVuSans-31" d="M 794 531 
L 1825 531 
L 1825 4091 
L 703 3866 
L 703 4441 
L 1819 4666 
L 2450 4666 
L 2450 531 
L 3481 531 
L 3481 0 
L 794 0 
L 794 531 
z
" transform="scale(0.015625)"/>
       </defs>
       <use xlink:href="#DejaVuSans-2d"/>
       <use xlink:href="#DejaVuSans-35" transform="translate(36.083984 0)"/>
       <use xlink:href="#DejaVuSans-65" transform="translate(99.707031 0)"/>
       <use xlink:href="#DejaVuSans-2d" transform="translate(161.230469 0)"/>
       <use xlink:href="#DejaVuSans-30" transform="translate(197.314453 0)"/>
       <use xlink:href="#DejaVuSans-31" transform="translate(260.9375 0)"/>
      </g>
     </g>
    </g>
    <g id="ytick_2">
     <g id="line2d_22">
      <g>
       <use xlink:href="#m203c729565" x="60.48" y="217.406512" style="stroke: #000000; stroke-width: 0.8"/>
      </g>
     </g>
     <g id="text_2">
      <!-- 0e+00 -->
      <g transform="translate(19.859687 221.20573) scale(0.1 -0.1)">
       <defs>
        <path id="DejaVuSans-2b" d="M 2944 4013 
L 2944 2272 
L 4684 2272 
L 4684 1741 
L 2944 1741 
L 2944 0 
L 2419 0 
L 2419 1741 
L 678 1741 
L 678 2272 
L 2419 2272 
L 2419 4013 
L 2944 4013 
z
" transform="scale(0.015625)"/>
       </defs>
       <use xlink:href="#DejaVuSans-30"/>
       <use xlink:href="#DejaVuSans-65" transform="translate(63.623047 0)"/>
       <use xlink:href="#DejaVuSans-2b" transform="translate(125.146484 0)"/>
       <use xlink:href="#DejaVuSans-30" transform="translate(208.935547 0)"/>
       <use xlink:href="#DejaVuSans-30" transform="translate(272.558594 0)"/>
      </g>
     </g>
    </g>
    <g id="ytick_3">
     <g id="line2d_23">
      <g>
       <use xlink:href="#m203c729565" x="60.48" y="171.479601" style="stroke: #000000; stroke-width: 0.8"/>
      </g>
     </g>
     <g id="text_3">
      <!-- 5e-01 -->
      <g transform="translate(24.631562 175.27882) scale(0.1 -0.1)">
       <use xlink:href="#DejaVuSans-35"/>
       <use xlink:href="#DejaVuSans-65" transform="translate(63.623047 0)"/>
       <use xlink:href="#DejaVuSans-2d" transform="translate(125.146484 0)"/>
       <use xlink:href="#DejaVuSans-30" transform="translate(161.230469 0)"/>
       <use xlink:href="#DejaVuSans-31" transform="translate(224.853516 0)"/>
      </g>
     </g>
    </g>
    <g id="text_4">
     <!-- Shear force, $V(x)$ -->
     <g transform="translate(13.78 259.706512) rotate(-90) scale(0.1 -0.1)">
      <defs>
       <path id="DejaVuSans-53" d="M 3425 4513 
L 3425 3897 
Q 3066 4069 2747 4153 
Q 2428 4238 2131 4238 
Q 1616 4238 1336 4038 
Q 1056 3838 1056 3469 
Q 1056 3159 1242 3001 
Q 1428 2844 1947 2747 
L 2328 2669 
Q 3034 2534 3370 2195 
Q 3706 1856 3706 1288 
Q 3706 609 3251 259 
Q 2797 -91 1919 -91 
Q 1588 -91 1214 -16 
Q 841 59 441 206 
L 441 856 
Q 825 641 1194 531 
Q 1563 422 1919 422 
Q 2459 422 2753 634 
Q 3047 847 3047 1241 
Q 3047 1584 2836 1778 
Q 2625 1972 2144 2069 
L 1759 2144 
Q 1053 2284 737 2584 
Q 422 2884 422 3419 
Q 422 4038 858 4394 
Q 1294 4750 2059 4750 
Q 2388 4750 2728 4690 
Q 3069 4631 3425 4513 
z
" transform="scale(0.015625)"/>
       <path id="DejaVuSans-68" d="M 3513 2113 
L 3513 0 
L 2938 0 
L 2938 2094 
Q 2938 2591 2744 2837 
Q 2550 3084 2163 3084 
Q 1697 3084 1428 2787 
Q 1159 2491 1159 1978 
L 1159 0 
L 581 0 
L 581 4863 
L 1159 4863 
L 1159 2956 
Q 1366 3272 1645 3428 
Q 1925 3584 2291 3584 
Q 2894 3584 3203 3211 
Q 3513 2838 3513 2113 
z
" transform="scale(0.015625)"/>
       <path id="DejaVuSans-61" d="M 2194 1759 
Q 1497 1759 1228 1600 
Q 959 1441 959 1056 
Q 959 750 1161 570 
Q 1363 391 1709 391 
Q 2188 391 2477 730 
Q 2766 1069 2766 1631 
L 2766 1759 
L 2194 1759 
z
M 3341 1997 
L 3341 0 
L 2766 0 
L 2766 531 
Q 2569 213 2275 61 
Q 1981 -91 1556 -91 
Q 1019 -91 701 211 
Q 384 513 384 1019 
Q 384 1609 779 1909 
Q 1175 2209 1959 2209 
L 2766 2209 
L 2766 2266 
Q 2766 2663 2505 2880 
Q 2244 3097 1772 3097 
Q 1472 3097 1187 3025 
Q 903 2953 641 2809 
L 641 3341 
Q 956 3463 1253 3523 
Q 1550 3584 1831 3584 
Q 2591 3584 2966 3190 
Q 3341 2797 3341 1997 
z
" transform="scale(0.015625)"/>
       <path id="DejaVuSans-72" d="M 2631 2963 
Q 2534 3019 2420 3045 
Q 2306 3072 2169 3072 
Q 1681 3072 1420 2755 
Q 1159 2438 1159 1844 
L 1159 0 
L 581 0 
L 581 3500 
L 1159 3500 
L 1159 2956 
Q 1341 3275 1631 3429 
Q 1922 3584 2338 3584 
Q 2397 3584 2469 3576 
Q 2541 3569 2628 3553 
L 2631 2963 
z
" transform="scale(0.015625)"/>
       <path id="DejaVuSans-20" transform="scale(0.015625)"/>
       <path id="DejaVuSans-66" d="M 2375 4863 
L 2375 4384 
L 1825 4384 
Q 1516 4384 1395 4259 
Q 1275 4134 1275 3809 
L 1275 3500 
L 2222 3500 
L 2222 3053 
L 1275 3053 
L 1275 0 
L 697 0 
L 697 3053 
L 147 3053 
L 147 3500 
L 697 3500 
L 697 3744 
Q 697 4328 969 4595 
Q 1241 4863 1831 4863 
L 2375 4863 
z
" transform="scale(0.015625)"/>
       <path id="DejaVuSans-6f" d="M 1959 3097 
Q 1497 3097 1228 2736 
Q 959 2375 959 1747 
Q 959 1119 1226 758 
Q 1494 397 1959 397 
Q 2419 397 2687 759 
Q 2956 1122 2956 1747 
Q 2956 2369 2687 2733 
Q 2419 3097 1959 3097 
z
M 1959 3584 
Q 2709 3584 3137 3096 
Q 3566 2609 3566 1747 
Q 3566 888 3137 398 
Q 2709 -91 1959 -91 
Q 1206 -91 779 398 
Q 353 888 353 1747 
Q 353 2609 779 3096 
Q 1206 3584 1959 3584 
z
" transform="scale(0.015625)"/>
       <path id="DejaVuSans-63" d="M 3122 3366 
L 3122 2828 
Q 2878 2963 2633 3030 
Q 2388 3097 2138 3097 
Q 1578 3097 1268 2742 
Q 959 2388 959 1747 
Q 959 1106 1268 751 
Q 1578 397 2138 397 
Q 2388 397 2633 464 
Q 2878 531 3122 666 
L 3122 134 
Q 2881 22 2623 -34 
Q 2366 -91 2075 -91 
Q 1284 -91 818 406 
Q 353 903 353 1747 
Q 353 2603 823 3093 
Q 1294 3584 2113 3584 
Q 2378 3584 2631 3529 
Q 2884 3475 3122 3366 
z
" transform="scale(0.015625)"/>
       <path id="DejaVuSans-2c" d="M 750 794 
L 1409 794 
L 1409 256 
L 897 -744 
L 494 -744 
L 750 256 
L 750 794 
z
" transform="scale(0.015625)"/>
       <path id="DejaVuSans-Oblique-56" d="M 1319 0 
L 500 4666 
L 1119 4666 
L 1797 653 
L 4063 4666 
L 4750 4666 
L 2053 0 
L 1319 0 
z
" transform="scale(0.015625)"/>
       <path id="DejaVuSans-28" d="M 1984 4856 
Q 1566 4138 1362 3434 
Q 1159 2731 1159 2009 
Q 1159 1288 1364 580 
Q 1569 -128 1984 -844 
L 1484 -844 
Q 1016 -109 783 600 
Q 550 1309 550 2009 
Q 550 2706 781 3412 
Q 1013 4119 1484 4856 
L 1984 4856 
z
" transform="scale(0.015625)"/>
       <path id="DejaVuSans-Oblique-78" d="M 3841 3500 
L 2234 1784 
L 3219 0 
L 2559 0 
L 1819 1388 
L 531 0 
L -166 0 
L 1556 1844 
L 641 3500 
L 1300 3500 
L 1972 2234 
L 3144 3500 
L 3841 3500 
z
" transform="scale(0.015625)"/>
       <path id="DejaVuSans-29" d="M 513 4856 
L 1013 4856 
Q 1481 4119 1714 3412 
Q 1947 2706 1947 2009 
Q 1947 1309 1714 600 
Q 1481 -109 1013 -844 
L 513 -844 
Q 928 -128 1133 580 
Q 1338 1288 1338 2009 
Q 1338 2731 1133 3434 
Q 928 4138 513 4856 
z
" transform="scale(0.015625)"/>
      </defs>
      <use xlink:href="#DejaVuSans-53" transform="translate(0 0.015625)"/>
      <use xlink:href="#DejaVuSans-68" transform="translate(63.476562 0.015625)"/>
      <use xlink:href="#DejaVuSans-65" transform="translate(126.855469 0.015625)"/>
      <use xlink:href="#DejaVuSans-61" transform="translate(188.378906 0.015625)"/>
      <use xlink:href="#DejaVuSans-72" transform="translate(249.658203 0.015625)"/>
      <use xlink:href="#DejaVuSans-20" transform="translate(290.771484 0.015625)"/>
      <use xlink:href="#DejaVuSans-66" transform="translate(322.558594 0.015625)"/>
      <use xlink:href="#DejaVuSans-6f" transform="translate(357.763672 0.015625)"/>
      <use xlink:href="#DejaVuSans-72" transform="translate(418.945312 0.015625)"/>
      <use xlink:href="#DejaVuSans-63" transform="translate(460.058594 0.015625)"/>
      <use xlink:href="#DejaVuSans-65" transform="translate(515.039062 0.015625)"/>
      <use xlink:href="#DejaVuSans-2c" transform="translate(576.5625 0.015625)"/>
      <use xlink:href="#DejaVuSans-20" transform="translate(608.349609 0.015625)"/>
      <use xlink:href="#DejaVuSans-Oblique-56" transform="translate(640.136719 0.015625)"/>
      <use xlink:href="#DejaVuSans-28" transform="translate(708.544922 0.015625)"/>
      <use xlink:href="#DejaVuSans-Oblique-78" transform="translate(747.558594 0.015625)"/>
      <use xlink:href="#DejaVuSans-29" transform="translate(806.738281 0.015625)"/>
     </g>
    </g>
   </g>
   <g id="line2d_24">
    <path d="M 60.48 270.987907 
L 64.705455 270.055436 
L 68.930909 269.113783 
L 73.156364 268.163136 
L 77.381818 267.203686 
L 81.607273 266.235621 
L 85.832727 265.259131 
L 90.058182 264.274405 
L 94.283636 263.281632 
L 98.509091 262.281002 
L 102.734545 261.272704 
L 106.96 260.256928 
L 111.185455 259.233862 
L 115.410909 258.203697 
L 119.636364 257.166621 
L 123.861818 256.122823 
L 128.087273 255.072494 
L 132.312727 254.015822 
L 136.538182 252.952997 
L 140.763636 251.884208 
L 144.989091 250.809644 
L 149.214545 249.729495 
L 153.44 248.643951 
L 157.665455 247.553199 
L 161.890909 246.45743 
L 166.116364 245.356834 
L 170.341818 244.251599 
L 174.567273 243.141914 
L 178.792727 242.02797 
L 183.018182 240.909954 
L 187.243636 239.788058 
L 191.469091 238.66247 
L 195.694545 237.533379 
L 199.92 236.400975 
L 204.145455 235.265446 
L 208.370909 234.126983 
L 212.596364 232.985775 
L 216.821818 231.842011 
L 221.047273 230.69588 
L 225.272727 229.547572 
L 229.498182 228.397276 
L 233.723636 227.245182 
L 237.949091 226.091478 
L 242.174545 224.936354 
L 246.4 223.779999 
L 250.625455 222.622603 
L 254.850909 221.464355 
L 259.076364 220.305445 
L 263.301818 219.146061 
L 267.527273 217.986393 
L 271.752727 216.82663 
L 275.978182 215.666962 
L 280.203636 214.507579 
L 284.429091 213.348668 
L 288.654545 212.19042 
L 292.88 211.033024 
L 297.105455 209.876669 
L 301.330909 208.721545 
L 305.556364 207.567842 
L 309.781818 206.415747 
L 314.007273 205.265451 
L 318.232727 204.117143 
L 322.458182 202.971012 
L 326.683636 201.827248 
L 330.909091 200.68604 
L 335.134545 199.547577 
L 339.36 198.412049 
L 343.585455 197.279644 
L 347.810909 196.150554 
L 352.036364 195.024965 
L 356.261818 193.903069 
L 360.487273 192.785054 
L 364.712727 191.671109 
L 368.938182 190.561425 
L 373.163636 189.456189 
L 377.389091 188.355593 
L 381.614545 187.259824 
L 385.84 186.169073 
L 390.065455 185.083528 
L 394.290909 184.003379 
L 398.516364 182.928815 
L 402.741818 181.860026 
L 406.967273 180.797201 
L 411.192727 179.740529 
L 415.418182 178.6902 
L 419.643636 177.646403 
L 423.869091 176.609326 
L 428.094545 175.579161 
L 432.32 174.556095 
L 436.545455 173.540319 
L 440.770909 172.532021 
L 444.996364 171.531391 
L 449.221818 170.538619 
L 453.447273 169.553892 
L 457.672727 168.577402 
L 461.898182 167.609337 
L 466.123636 166.649887 
L 470.349091 165.69924 
L 474.574545 164.757587 
L 478.8 163.825116 
" clip-path="url(#p9b21ee7393)" style="fill: none; stroke: #228b22; stroke-width: 2; stroke-linecap: square"/>
   </g>
   <g id="patch_3">
    <path d="M 60.48 276.346047 
L 60.48 158.466977 
" style="fill: none; stroke: #000000; stroke-width: 0.8; stroke-linejoin: miter; stroke-linecap: square"/>
   </g>
   <g id="patch_4">
    <path d="M 478.8 276.346047 
L 478.8 158.466977 
" style="fill: none; stroke: #000000; stroke-width: 0.8; stroke-linejoin: miter; stroke-linecap: square"/>
   </g>
   <g id="patch_5">
    <path d="M 60.48 276.346047 
L 478.8 276.346047 
" style="fill: none; stroke: #000000; stroke-width: 0.8; stroke-linejoin: miter; stroke-linecap: square"/>
   </g>
   <g id="patch_6">
    <path d="M 60.48 158.466977 
L 478.8 158.466977 
" style="fill: none; stroke: #000000; stroke-width: 0.8; stroke-linejoin: miter; stroke-linecap: square"/>
   </g>
  </g>
  <g id="axes_3">
   <g id="patch_7">
    <path d="M 60.48 406.013023 
L 478.8 406.013023 
L 478.8 288.133953 
L 60.48 288.133953 
z
" style="fill: #ffffff"/>
   </g>
   <g id="FillBetweenPolyCollection_5">
    <defs>
     <path id="m6761e8b40a" d="M 60.48 -198.997332 
L 60.48 -175.345116 
L 64.705455 -179.489744 
L 68.930909 -183.561251 
L 73.156364 -187.558929 
L 77.381818 -191.482084 
L 81.607273 -195.330035 
L 85.832727 -199.102119 
L 90.058182 -202.797684 
L 94.283636 -206.416097 
L 98.509091 -209.956736 
L 102.734545 -213.418995 
L 106.96 -216.802285 
L 111.185455 -220.106027 
L 115.410909 -223.329662 
L 119.636364 -226.472643 
L 123.861818 -229.534437 
L 128.087273 -232.514527 
L 132.312727 -235.412412 
L 136.538182 -238.227604 
L 140.763636 -240.959629 
L 144.989091 -243.608031 
L 149.214545 -246.172366 
L 153.44 -248.652205 
L 157.665455 -251.047135 
L 161.890909 -253.356756 
L 166.116364 -255.580686 
L 170.341818 -257.718553 
L 174.567273 -259.770005 
L 178.792727 -261.734701 
L 183.018182 -263.612316 
L 187.243636 -265.402539 
L 191.469091 -267.105076 
L 195.694545 -268.719646 
L 199.92 -270.245982 
L 204.145455 -271.683834 
L 208.370909 -273.032965 
L 212.596364 -274.293154 
L 216.821818 -275.464193 
L 221.047273 -276.545891 
L 225.272727 -277.538071 
L 229.498182 -278.44057 
L 233.723636 -279.253239 
L 237.949091 -279.975947 
L 242.174545 -280.608575 
L 246.4 -281.15102 
L 250.625455 -281.603192 
L 254.850909 -281.965019 
L 259.076364 -282.236441 
L 263.301818 -282.417413 
L 267.527273 -282.507907 
L 271.752727 -282.507907 
L 275.978182 -282.417413 
L 280.203636 -282.236441 
L 284.429091 -281.965019 
L 288.654545 -281.603192 
L 292.88 -281.15102 
L 297.105455 -280.608575 
L 301.330909 -279.975947 
L 305.556364 -279.253239 
L 309.781818 -278.44057 
L 314.007273 -277.538071 
L 318.232727 -276.545891 
L 322.458182 -275.464193 
L 326.683636 -274.293154 
L 330.909091 -273.032965 
L 335.134545 -271.683834 
L 339.36 -270.245982 
L 343.585455 -268.719646 
L 347.810909 -267.105076 
L 352.036364 -265.402539 
L 356.261818 -263.612316 
L 360.487273 -261.734701 
L 364.712727 -259.770005 
L 368.938182 -257.718553 
L 373.163636 -255.580686 
L 377.389091 -253.356756 
L 381.614545 -251.047135 
L 385.84 -248.652205 
L 390.065455 -246.172366 
L 394.290909 -243.608031 
L 398.516364 -240.959629 
L 402.741818 -238.227604 
L 406.967273 -235.412412 
L 411.192727 -232.514527 
L 415.418182 -229.534437 
L 419.643636 -226.472643 
L 423.869091 -223.329662 
L 428.094545 -220.106027 
L 432.32 -216.802285 
L 436.545455 -213.418995 
L 440.770909 -209.956736 
L 444.996364 -206.416097 
L 449.221818 -202.797684 
L 453.447273 -199.102119 
L 457.672727 -195.330035 
L 461.898182 -191.482084 
L 466.123636 -187.558929 
L 470.349091 -183.561251 
L 474.574545 -179.489744 
L 478.8 -175.345116 
L 478.8 -198.997332 
L 478.8 -198.997332 
L 474.574545 -198.997332 
L 470.349091 -198.997332 
L 466.123636 -198.997332 
L 461.898182 -198.997332 
L 457.672727 -198.997332 
L 453.447273 -198.997332 
L 449.221818 -198.997332 
L 444.996364 -198.997332 
L 440.770909 -198.997332 
L 436.545455 -198.997332 
L 432.32 -198.997332 
L 428.094545 -198.997332 
L 423.869091 -198.997332 
L 419.643636 -198.997332 
L 415.418182 -198.997332 
L 411.192727 -198.997332 
L 406.967273 -198.997332 
L 402.741818 -198.997332 
L 398.516364 -198.997332 
L 394.290909 -198.997332 
L 390.065455 -198.997332 
L 385.84 -198.997332 
L 381.614545 -198.997332 
L 377.389091 -198.997332 
L 373.163636 -198.997332 
L 368.938182 -198.997332 
L 364.712727 -198.997332 
L 360.487273 -198.997332 
L 356.261818 -198.997332 
L 352.036364 -198.997332 
L 347.810909 -198.997332 
L 343.585455 -198.997332 
L 339.36 -198.997332 
L 335.134545 -198.997332 
L 330.909091 -198.997332 
L 326.683636 -198.997332 
L 322.458182 -198.997332 
L 318.232727 -198.997332 
L 314.007273 -198.997332 
L 309.781818 -198.997332 
L 305.556364 -198.997332 
L 301.330909 -198.997332 
L 297.105455 -198.997332 
L 292.88 -198.997332 
L 288.654545 -198.997332 
L 284.429091 -198.997332 
L 280.203636 -198.997332 
L 275.978182 -198.997332 
L 271.752727 -198.997332 
L 267.527273 -198.997332 
L 263.301818 -198.997332 
L 259.076364 -198.997332 
L 254.850909 -198.997332 
L 250.625455 -198.997332 
L 246.4 -198.997332 
L 242.174545 -198.997332 
L 237.949091 -198.997332 
L 233.723636 -198.997332 
L 229.498182 -198.997332 
L 225.272727 -198.997332 
L 221.047273 -198.997332 
L 216.821818 -198.997332 
L 212.596364 -198.997332 
L 208.370909 -198.997332 
L 204.145455 -198.997332 
L 199.92 -198.997332 
L 195.694545 -198.997332 
L 191.469091 -198.997332 
L 187.243636 -198.997332 
L 183.018182 -198.997332 
L 178.792727 -198.997332 
L 174.567273 -198.997332 
L 170.341818 -198.997332 
L 166.116364 -198.997332 
L 161.890909 -198.997332 
L 157.665455 -198.997332 
L 153.44 -198.997332 
L 149.214545 -198.997332 
L 144.989091 -198.997332 
L 140.763636 -198.997332 
L 136.538182 -198.997332 
L 132.312727 -198.997332 
L 128.087273 -198.997332 
L 123.861818 -198.997332 
L 119.636364 -198.997332 
L 115.410909 -198.997332 
L 111.185455 -198.997332 
L 106.96 -198.997332 
L 102.734545 -198.997332 
L 98.509091 -198.997332 
L 94.283636 -198.997332 
L 90.058182 -198.997332 
L 85.832727 -198.997332 
L 81.607273 -198.997332 
L 77.381818 -198.997332 
L 73.156364 -198.997332 
L 68.930909 -198.997332 
L 64.705455 -198.997332 
L 60.48 -198.997332 
z
" style="stroke: #b22222; stroke-opacity: 0.35"/>
    </defs>
    <g clip-path="url(#pa655037730)">
     <use xlink:href="#m6761e8b40a" x="0" y="576" style="fill: #b22222; fill-opacity: 0.35; stroke: #b22222; stroke-opacity: 0.35"/>
    </g>
   </g>
   <g id="matplotlib.axis_3">
    <g id="xtick_7">
     <g id="line2d_25">
      <g>
       <use xlink:href="#m391ec7c154" x="60.48" y="406.013023" style="stroke: #000000; stroke-width: 0.8"/>
      </g>
     </g>
    </g>
    <g id="xtick_8">
     <g id="line2d_26">
      <g>
       <use xlink:href="#m391ec7c154" x="144.144" y="406.013023" style="stroke: #000000; stroke-width: 0.8"/>
      </g>
     </g>
    </g>
    <g id="xtick_9">
     <g id="line2d_27">
      <g>
       <use xlink:href="#m391ec7c154" x="227.808" y="406.013023" style="stroke: #000000; stroke-width: 0.8"/>
      </g>
     </g>
    </g>
    <g id="xtick_10">
     <g id="line2d_28">
      <g>
       <use xlink:href="#m391ec7c154" x="311.472" y="406.013023" style="stroke: #000000; stroke-width: 0.8"/>
      </g>
     </g>
    </g>
    <g id="xtick_11">
     <g id="line2d_29">
      <g>
       <use xlink:href="#m391ec7c154" x="395.136" y="406.013023" style="stroke: #000000; stroke-width: 0.8"/>
      </g>
     </g>
    </g>
    <g id="xtick_12">
     <g id="line2d_30">
      <g>
       <use xlink:href="#m391ec7c154" x="478.8" y="406.013023" style="stroke: #000000; stroke-width: 0.8"/>
      </g>
     </g>
    </g>
   </g>
   <g id="matplotlib.axis_4">
    <g id="ytick_4">
     <g id="line2d_31">
      <g>
       <use xlink:href="#m203c729565" x="60.48" y="377.002668" style="stroke: #000000; stroke-width: 0.8"/>
      </g>
     </g>
     <g id="text_5">
      <!-- 0e+00 -->
      <g transform="translate(19.859687 380.801887) scale(0.1 -0.1)">
       <use xlink:href="#DejaVuSans-30"/>
       <use xlink:href="#DejaVuSans-65" transform="translate(63.623047 0)"/>
       <use xlink:href="#DejaVuSans-2b" transform="translate(125.146484 0)"/>
       <use xlink:href="#DejaVuSans-30" transform="translate(208.935547 0)"/>
       <use xlink:href="#DejaVuSans-30" transform="translate(272.558594 0)"/>
      </g>
     </g>
    </g>
    <g id="ytick_5">
     <g id="line2d_32">
      <g>
       <use xlink:href="#m203c729565" x="60.48" y="341.524344" style="stroke: #000000; stroke-width: 0.8"/>
      </g>
     </g>
     <g id="text_6">
      <!-- 5e-02 -->
      <g transform="translate(24.631562 345.323563) scale(0.1 -0.1)">
       <defs>
        <path id="DejaVuSans-32" d="M 1228 531 
L 3431 531 
L 3431 0 
L 469 0 
L 469 531 
Q 828 903 1448 1529 
Q 2069 2156 2228 2338 
Q 2531 2678 2651 2914 
Q 2772 3150 2772 3378 
Q 2772 3750 2511 3984 
Q 2250 4219 1831 4219 
Q 1534 4219 1204 4116 
Q 875 4013 500 3803 
L 500 4441 
Q 881 4594 1212 4672 
Q 1544 4750 1819 4750 
Q 2544 4750 2975 4387 
Q 3406 4025 3406 3419 
Q 3406 3131 3298 2873 
Q 3191 2616 2906 2266 
Q 2828 2175 2409 1742 
Q 1991 1309 1228 531 
z
" transform="scale(0.015625)"/>
       </defs>
       <use xlink:href="#DejaVuSans-35"/>
       <use xlink:href="#DejaVuSans-65" transform="translate(63.623047 0)"/>
       <use xlink:href="#DejaVuSans-2d" transform="translate(125.146484 0)"/>
       <use xlink:href="#DejaVuSans-30" transform="translate(161.230469 0)"/>
       <use xlink:href="#DejaVuSans-32" transform="translate(224.853516 0)"/>
      </g>
     </g>
    </g>
    <g id="ytick_6">
     <g id="line2d_33">
      <g>
       <use xlink:href="#m203c729565" x="60.48" y="306.046021" style="stroke: #000000; stroke-width: 0.8"/>
      </g>
     </g>
     <g id="text_7">
      <!-- 1e-01 -->
      <g transform="translate(24.631562 309.845239) scale(0.1 -0.1)">
       <use xlink:href="#DejaVuSans-31"/>
       <use xlink:href="#DejaVuSans-65" transform="translate(63.623047 0)"/>
       <use xlink:href="#DejaVuSans-2d" transform="translate(125.146484 0)"/>
       <use xlink:href="#DejaVuSans-30" transform="translate(161.230469 0)"/>
       <use xlink:href="#DejaVuSans-31" transform="translate(224.853516 0)"/>
      </g>
     </g>
    </g>
    <g id="text_8">
     <!-- Bending moment, $M(x)$ -->
     <g transform="translate(13.759687 404.623488) rotate(-90) scale(0.1 -0.1)">
      <defs>
       <path id="DejaVuSans-42" d="M 1259 2228 
L 1259 519 
L 2272 519 
Q 2781 519 3026 730 
Q 3272 941 3272 1375 
Q 3272 1813 3026 2020 
Q 2781 2228 2272 2228 
L 1259 2228 
z
M 1259 4147 
L 1259 2741 
L 2194 2741 
Q 2656 2741 2882 2914 
Q 3109 3088 3109 3444 
Q 3109 3797 2882 3972 
Q 2656 4147 2194 4147 
L 1259 4147 
z
M 628 4666 
L 2241 4666 
Q 2963 4666 3353 4366 
Q 3744 4066 3744 3513 
Q 3744 3084 3544 2831 
Q 3344 2578 2956 2516 
Q 3422 2416 3680 2098 
Q 3938 1781 3938 1306 
Q 3938 681 3513 340 
Q 3088 0 2303 0 
L 628 0 
L 628 4666 
z
" transform="scale(0.015625)"/>
       <path id="DejaVuSans-6e" d="M 3513 2113 
L 3513 0 
L 2938 0 
L 2938 2094 
Q 2938 2591 2744 2837 
Q 2550 3084 2163 3084 
Q 1697 3084 1428 2787 
Q 1159 2491 1159 1978 
L 1159 0 
L 581 0 
L 581 3500 
L 1159 3500 
L 1159 2956 
Q 1366 3272 1645 3428 
Q 1925 3584 2291 3584 
Q 2894 3584 3203 3211 
Q 3513 2838 3513 2113 
z
" transform="scale(0.015625)"/>
       <path id="DejaVuSans-64" d="M 2906 2969 
L 2906 4863 
L 3481 4863 
L 3481 0 
L 2906 0 
L 2906 525 
Q 2725 213 2448 61 
Q 2172 -91 1784 -91 
Q 1150 -91 751 415 
Q 353 922 353 1747 
Q 353 2572 751 3078 
Q 1150 3584 1784 3584 
Q 2172 3584 2448 3432 
Q 2725 3281 2906 2969 
z
M 947 1747 
Q 947 1113 1208 752 
Q 1469 391 1925 391 
Q 2381 391 2643 752 
Q 2906 1113 2906 1747 
Q 2906 2381 2643 2742 
Q 2381 3103 1925 3103 
Q 1469 3103 1208 2742 
Q 947 2381 947 1747 
z
" transform="scale(0.015625)"/>
       <path id="DejaVuSans-69" d="M 603 3500 
L 1178 3500 
L 1178 0 
L 603 0 
L 603 3500 
z
M 603 4863 
L 1178 4863 
L 1178 4134 
L 603 4134 
L 603 4863 
z
" transform="scale(0.015625)"/>
       <path id="DejaVuSans-67" d="M 2906 1791 
Q 2906 2416 2648 2759 
Q 2391 3103 1925 3103 
Q 1463 3103 1205 2759 
Q 947 2416 947 1791 
Q 947 1169 1205 825 
Q 1463 481 1925 481 
Q 2391 481 2648 825 
Q 2906 1169 2906 1791 
z
M 3481 434 
Q 3481 -459 3084 -895 
Q 2688 -1331 1869 -1331 
Q 1566 -1331 1297 -1286 
Q 1028 -1241 775 -1147 
L 775 -588 
Q 1028 -725 1275 -790 
Q 1522 -856 1778 -856 
Q 2344 -856 2625 -561 
Q 2906 -266 2906 331 
L 2906 616 
Q 2728 306 2450 153 
Q 2172 0 1784 0 
Q 1141 0 747 490 
Q 353 981 353 1791 
Q 353 2603 747 3093 
Q 1141 3584 1784 3584 
Q 2172 3584 2450 3431 
Q 2728 3278 2906 2969 
L 2906 3500 
L 3481 3500 
L 3481 434 
z
" transform="scale(0.015625)"/>
       <path id="DejaVuSans-6d" d="M 3328 2828 
Q 3544 3216 3844 3400 
Q 4144 3584 4550 3584 
Q 5097 3584 5394 3201 
Q 5691 2819 5691 2113 
L 5691 0 
L 5113 0 
L 5113 2094 
Q 5113 2597 4934 2840 
Q 4756 3084 4391 3084 
Q 3944 3084 3684 2787 
Q 3425 2491 3425 1978 
L 3425 0 
L 2847 0 
L 2847 2094 
Q 2847 2600 2669 2842 
Q 2491 3084 2119 3084 
Q 1678 3084 1418 2786 
Q 1159 2488 1159 1978 
L 1159 0 
L 581 0 
L 581 3500 
L 1159 3500 
L 1159 2956 
Q 1356 3278 1631 3431 
Q 1906 3584 2284 3584 
Q 2666 3584 2933 3390 
Q 3200 3197 3328 2828 
z
" transform="scale(0.015625)"/>
       <path id="DejaVuSans-74" d="M 1172 4494 
L 1172 3500 
L 2356 3500 
L 2356 3053 
L 1172 3053 
L 1172 1153 
Q 1172 725 1289 603 
Q 1406 481 1766 481 
L 2356 481 
L 2356 0 
L 1766 0 
Q 1100 0 847 248 
Q 594 497 594 1153 
L 594 3053 
L 172 3053 
L 172 3500 
L 594 3500 
L 594 4494 
L 1172 4494 
z
" transform="scale(0.015625)"/>
       <path id="DejaVuSans-Oblique-4d" d="M 1081 4666 
L 2028 4666 
L 2572 1522 
L 4378 4666 
L 5350 4666 
L 4441 0 
L 3828 0 
L 4622 4091 
L 2791 897 
L 2175 897 
L 1581 4103 
L 788 0 
L 172 0 
L 1081 4666 
z
" transform="scale(0.015625)"/>
      </defs>
      <use xlink:href="#DejaVuSans-42" transform="translate(0 0.015625)"/>
      <use xlink:href="#DejaVuSans-65" transform="translate(68.603516 0.015625)"/>
      <use xlink:href="#DejaVuSans-6e" transform="translate(130.126953 0.015625)"/>
      <use xlink:href="#DejaVuSans-64" transform="translate(193.505859 0.015625)"/>
      <use xlink:href="#DejaVuSans-69" transform="translate(256.982422 0.015625)"/>
      <use xlink:href="#DejaVuSans-6e" transform="translate(284.765625 0.015625)"/>
      <use xlink:href="#DejaVuSans-67" transform="translate(348.144531 0.015625)"/>
      <use xlink:href="#DejaVuSans-20" transform="translate(411.621094 0.015625)"/>
      <use xlink:href="#DejaVuSans-6d" transform="translate(443.408203 0.015625)"/>
      <use xlink:href="#DejaVuSans-6f" transform="translate(540.820312 0.015625)"/>
      <use xlink:href="#DejaVuSans-6d" transform="translate(602.001953 0.015625)"/>
      <use xlink:href="#DejaVuSans-65" transform="translate(699.414062 0.015625)"/>
      <use xlink:href="#DejaVuSans-6e" transform="translate(760.9375 0.015625)"/>
      <use xlink:href="#DejaVuSans-74" transform="translate(824.316406 0.015625)"/>
      <use xlink:href="#DejaVuSans-2c" transform="translate(863.525391 0.015625)"/>
      <use xlink:href="#DejaVuSans-20" transform="translate(895.3125 0.015625)"/>
      <use xlink:href="#DejaVuSans-Oblique-4d" transform="translate(927.099609 0.015625)"/>
      <use xlink:href="#DejaVuSans-28" transform="translate(1013.378906 0.015625)"/>
      <use xlink:href="#DejaVuSans-Oblique-78" transform="translate(1052.392578 0.015625)"/>
      <use xlink:href="#DejaVuSans-29" transform="translate(1111.572266 0.015625)"/>
     </g>
    </g>
   </g>
   <g id="line2d_34">
    <path d="M 60.48 400.654884 
L 64.705455 396.510256 
L 68.930909 392.438749 
L 73.156364 388.441071 
L 77.381818 384.517916 
L 81.607273 380.669965 
L 85.832727 376.897881 
L 90.058182 373.202316 
L 94.283636 369.583903 
L 98.509091 366.043264 
L 102.734545 362.581005 
L 106.96 359.197715 
L 111.185455 355.893973 
L 115.410909 352.670338 
L 119.636364 349.527357 
L 123.861818 346.465563 
L 128.087273 343.485473 
L 132.312727 340.587588 
L 136.538182 337.772396 
L 140.763636 335.040371 
L 144.989091 332.391969 
L 149.214545 329.827634 
L 153.44 327.347795 
L 157.665455 324.952865 
L 161.890909 322.643244 
L 166.116364 320.419314 
L 170.341818 318.281447 
L 174.567273 316.229995 
L 178.792727 314.265299 
L 183.018182 312.387684 
L 187.243636 310.597461 
L 191.469091 308.894924 
L 195.694545 307.280354 
L 199.92 305.754018 
L 204.145455 304.316166 
L 208.370909 302.967035 
L 212.596364 301.706846 
L 216.821818 300.535807 
L 221.047273 299.454109 
L 225.272727 298.461929 
L 229.498182 297.55943 
L 233.723636 296.746761 
L 237.949091 296.024053 
L 242.174545 295.391425 
L 246.4 294.84898 
L 250.625455 294.396808 
L 254.850909 294.034981 
L 259.076364 293.763559 
L 263.301818 293.582587 
L 267.527273 293.492093 
L 271.752727 293.492093 
L 275.978182 293.582587 
L 280.203636 293.763559 
L 284.429091 294.034981 
L 288.654545 294.396808 
L 292.88 294.84898 
L 297.105455 295.391425 
L 301.330909 296.024053 
L 305.556364 296.746761 
L 309.781818 297.55943 
L 314.007273 298.461929 
L 318.232727 299.454109 
L 322.458182 300.535807 
L 326.683636 301.706846 
L 330.909091 302.967035 
L 335.134545 304.316166 
L 339.36 305.754018 
L 343.585455 307.280354 
L 347.810909 308.894924 
L 352.036364 310.597461 
L 356.261818 312.387684 
L 360.487273 314.265299 
L 364.712727 316.229995 
L 368.938182 318.281447 
L 373.163636 320.419314 
L 377.389091 322.643244 
L 381.614545 324.952865 
L 385.84 327.347795 
L 390.065455 329.827634 
L 394.290909 332.391969 
L 398.516364 335.040371 
L 402.741818 337.772396 
L 406.967273 340.587588 
L 411.192727 343.485473 
L 415.418182 346.465563 
L 419.643636 349.527357 
L 423.869091 352.670338 
L 428.094545 355.893973 
L 432.32 359.197715 
L 436.545455 362.581005 
L 440.770909 366.043264 
L 444.996364 369.583903 
L 449.221818 373.202316 
L 453.447273 376.897881 
L 457.672727 380.669965 
L 461.898182 384.517916 
L 466.123636 388.441071 
L 470.349091 392.438749 
L 474.574545 396.510256 
L 478.8 400.654884 
" clip-path="url(#pa655037730)" style="fill: none; stroke: #b22222; stroke-width: 2; stroke-linecap: square"/>
   </g>
   <g id="patch_8">
    <path d="M 60.48 406.013023 
L 60.48 288.133953 
" style="fill: none; stroke: #000000; stroke-width: 0.8; stroke-linejoin: miter; stroke-linecap: square"/>
   </g>
   <g id="patch_9">
    <path d="M 478.8 406.013023 
L 478.8 288.133953 
" style="fill: none; stroke: #000000; stroke-width: 0.8; stroke-linejoin: miter; stroke-linecap: square"/>
   </g>
   <g id="patch_10">
    <path d="M 60.48 406.013023 
L 478.8 406.013023 
" style="fill: none; stroke: #000000; stroke-width: 0.8; stroke-linejoin: miter; stroke-linecap: square"/>
   </g>
   <g id="patch_11">
    <path d="M 60.48 288.133953 
L 478.8 288.133953 
" style="fill: none; stroke: #000000; stroke-width: 0.8; stroke-linejoin: miter; stroke-linecap: square"/>
   </g>
  </g>
  <g id="axes_4">
   <g id="patch_12">
    <path d="M 60.48 535.68 
L 478.8 535.68 
L 478.8 417.80093 
L 60.48 417.80093 
z
" style="fill: #ffffff"/>
   </g>
   <g id="matplotlib.axis_5">
    <g id="xtick_13">
     <g id="line2d_35">
      <g>
       <use xlink:href="#m391ec7c154" x="60.48" y="535.68" style="stroke: #000000; stroke-width: 0.8"/>
      </g>
     </g>
     <g id="text_9">
      <!-- 0e+00 -->
      <g transform="translate(43.669844 550.278437) scale(0.1 -0.1)">
       <use xlink:href="#DejaVuSans-30"/>
       <use xlink:href="#DejaVuSans-65" transform="translate(63.623047 0)"/>
       <use xlink:href="#DejaVuSans-2b" transform="translate(125.146484 0)"/>
       <use xlink:href="#DejaVuSans-30" transform="translate(208.935547 0)"/>
       <use xlink:href="#DejaVuSans-30" transform="translate(272.558594 0)"/>
      </g>
     </g>
    </g>
    <g id="xtick_14">
     <g id="line2d_36">
      <g>
       <use xlink:href="#m391ec7c154" x="144.144" y="535.68" style="stroke: #000000; stroke-width: 0.8"/>
      </g>
     </g>
     <g id="text_10">
      <!-- 2e-01 -->
      <g transform="translate(129.719781 550.278437) scale(0.1 -0.1)">
       <use xlink:href="#DejaVuSans-32"/>
       <use xlink:href="#DejaVuSans-65" transform="translate(63.623047 0)"/>
       <use xlink:href="#DejaVuSans-2d" transform="translate(125.146484 0)"/>
       <use xlink:href="#DejaVuSans-30" transform="translate(161.230469 0)"/>
       <use xlink:href="#DejaVuSans-31" transform="translate(224.853516 0)"/>
      </g>
     </g>
    </g>
    <g id="xtick_15">
     <g id="line2d_37">
      <g>
       <use xlink:href="#m391ec7c154" x="227.808" y="535.68" style="stroke: #000000; stroke-width: 0.8"/>
      </g>
     </g>
     <g id="text_11">
      <!-- 4e-01 -->
      <g transform="translate(213.383781 550.278437) scale(0.1 -0.1)">
       <defs>
        <path id="DejaVuSans-34" d="M 2419 4116 
L 825 1625 
L 2419 1625 
L 2419 4116 
z
M 2253 4666 
L 3047 4666 
L 3047 1625 
L 3713 1625 
L 3713 1100 
L 3047 1100 
L 3047 0 
L 2419 0 
L 2419 1100 
L 313 1100 
L 313 1709 
L 2253 4666 
z
" transform="scale(0.015625)"/>
       </defs>
       <use xlink:href="#DejaVuSans-34"/>
       <use xlink:href="#DejaVuSans-65" transform="translate(63.623047 0)"/>
       <use xlink:href="#DejaVuSans-2d" transform="translate(125.146484 0)"/>
       <use xlink:href="#DejaVuSans-30" transform="translate(161.230469 0)"/>
       <use xlink:href="#DejaVuSans-31" transform="translate(224.853516 0)"/>
      </g>
     </g>
    </g>
    <g id="xtick_16">
     <g id="line2d_38">
      <g>
       <use xlink:href="#m391ec7c154" x="311.472" y="535.68" style="stroke: #000000; stroke-width: 0.8"/>
      </g>
     </g>
     <g id="text_12">
      <!-- 6e-01 -->
      <g transform="translate(297.047781 550.278437) scale(0.1 -0.1)">
       <defs>
        <path id="DejaVuSans-36" d="M 2113 2584 
Q 1688 2584 1439 2293 
Q 1191 2003 1191 1497 
Q 1191 994 1439 701 
Q 1688 409 2113 409 
Q 2538 409 2786 701 
Q 3034 994 3034 1497 
Q 3034 2003 2786 2293 
Q 2538 2584 2113 2584 
z
M 3366 4563 
L 3366 3988 
Q 3128 4100 2886 4159 
Q 2644 4219 2406 4219 
Q 1781 4219 1451 3797 
Q 1122 3375 1075 2522 
Q 1259 2794 1537 2939 
Q 1816 3084 2150 3084 
Q 2853 3084 3261 2657 
Q 3669 2231 3669 1497 
Q 3669 778 3244 343 
Q 2819 -91 2113 -91 
Q 1303 -91 875 529 
Q 447 1150 447 2328 
Q 447 3434 972 4092 
Q 1497 4750 2381 4750 
Q 2619 4750 2861 4703 
Q 3103 4656 3366 4563 
z
" transform="scale(0.015625)"/>
       </defs>
       <use xlink:href="#DejaVuSans-36"/>
       <use xlink:href="#DejaVuSans-65" transform="translate(63.623047 0)"/>
       <use xlink:href="#DejaVuSans-2d" transform="translate(125.146484 0)"/>
       <use xlink:href="#DejaVuSans-30" transform="translate(161.230469 0)"/>
       <use xlink:href="#DejaVuSans-31" transform="translate(224.853516 0)"/>
      </g>
     </g>
    </g>
    <g id="xtick_17">
     <g id="line2d_39">
      <g>
       <use xlink:href="#m391ec7c154" x="395.136" y="535.68" style="stroke: #000000; stroke-width: 0.8"/>
      </g>
     </g>
     <g id="text_13">
      <!-- 8e-01 -->
      <g transform="translate(380.711781 550.278437) scale(0.1 -0.1)">
       <defs>
        <path id="DejaVuSans-38" d="M 2034 2216 
Q 1584 2216 1326 1975 
Q 1069 1734 1069 1313 
Q 1069 891 1326 650 
Q 1584 409 2034 409 
Q 2484 409 2743 651 
Q 3003 894 3003 1313 
Q 3003 1734 2745 1975 
Q 2488 2216 2034 2216 
z
M 1403 2484 
Q 997 2584 770 2862 
Q 544 3141 544 3541 
Q 544 4100 942 4425 
Q 1341 4750 2034 4750 
Q 2731 4750 3128 4425 
Q 3525 4100 3525 3541 
Q 3525 3141 3298 2862 
Q 3072 2584 2669 2484 
Q 3125 2378 3379 2068 
Q 3634 1759 3634 1313 
Q 3634 634 3220 271 
Q 2806 -91 2034 -91 
Q 1263 -91 848 271 
Q 434 634 434 1313 
Q 434 1759 690 2068 
Q 947 2378 1403 2484 
z
M 1172 3481 
Q 1172 3119 1398 2916 
Q 1625 2713 2034 2713 
Q 2441 2713 2670 2916 
Q 2900 3119 2900 3481 
Q 2900 3844 2670 4047 
Q 2441 4250 2034 4250 
Q 1625 4250 1398 4047 
Q 1172 3844 1172 3481 
z
" transform="scale(0.015625)"/>
       </defs>
       <use xlink:href="#DejaVuSans-38"/>
       <use xlink:href="#DejaVuSans-65" transform="translate(63.623047 0)"/>
       <use xlink:href="#DejaVuSans-2d" transform="translate(125.146484 0)"/>
       <use xlink:href="#DejaVuSans-30" transform="translate(161.230469 0)"/>
       <use xlink:href="#DejaVuSans-31" transform="translate(224.853516 0)"/>
      </g>
     </g>
    </g>
    <g id="xtick_18">
     <g id="line2d_40">
      <g>
       <use xlink:href="#m391ec7c154" x="478.8" y="535.68" style="stroke: #000000; stroke-width: 0.8"/>
      </g>
     </g>
     <g id="text_14">
      <!-- 1e+00 -->
      <g transform="translate(461.989844 550.278437) scale(0.1 -0.1)">
       <use xlink:href="#DejaVuSans-31"/>
       <use xlink:href="#DejaVuSans-65" transform="translate(63.623047 0)"/>
       <use xlink:href="#DejaVuSans-2b" transform="translate(125.146484 0)"/>
       <use xlink:href="#DejaVuSans-30" transform="translate(208.935547 0)"/>
       <use xlink:href="#DejaVuSans-30" transform="translate(272.558594 0)"/>
      </g>
     </g>
    </g>
    <g id="text_15">
     <!-- Coordinate, $x$ -->
     <g transform="translate(235.99 563.956563) scale(0.1 -0.1)">
      <defs>
       <path id="DejaVuSans-43" d="M 4122 4306 
L 4122 3641 
Q 3803 3938 3442 4084 
Q 3081 4231 2675 4231 
Q 1875 4231 1450 3742 
Q 1025 3253 1025 2328 
Q 1025 1406 1450 917 
Q 1875 428 2675 428 
Q 3081 428 3442 575 
Q 3803 722 4122 1019 
L 4122 359 
Q 3791 134 3420 21 
Q 3050 -91 2638 -91 
Q 1578 -91 968 557 
Q 359 1206 359 2328 
Q 359 3453 968 4101 
Q 1578 4750 2638 4750 
Q 3056 4750 3426 4639 
Q 3797 4528 4122 4306 
z
" transform="scale(0.015625)"/>
      </defs>
      <use xlink:href="#DejaVuSans-43" transform="translate(0 0.015625)"/>
      <use xlink:href="#DejaVuSans-6f" transform="translate(69.824219 0.015625)"/>
      <use xlink:href="#DejaVuSans-6f" transform="translate(131.005859 0.015625)"/>
      <use xlink:href="#DejaVuSans-72" transform="translate(192.1875 0.015625)"/>
      <use xlink:href="#DejaVuSans-64" transform="translate(233.300781 0.015625)"/>
      <use xlink:href="#DejaVuSans-69" transform="translate(296.777344 0.015625)"/>
      <use xlink:href="#DejaVuSans-6e" transform="translate(324.560547 0.015625)"/>
      <use xlink:href="#DejaVuSans-61" transform="translate(387.939453 0.015625)"/>
      <use xlink:href="#DejaVuSans-74" transform="translate(449.21875 0.015625)"/>
      <use xlink:href="#DejaVuSans-65" transform="translate(488.427734 0.015625)"/>
      <use xlink:href="#DejaVuSans-2c" transform="translate(549.951172 0.015625)"/>
      <use xlink:href="#DejaVuSans-20" transform="translate(581.738281 0.015625)"/>
      <use xlink:href="#DejaVuSans-Oblique-78" transform="translate(613.525391 0.015625)"/>
     </g>
    </g>
   </g>
   <g id="matplotlib.axis_6">
    <g id="ytick_7">
     <g id="line2d_41">
      <g>
       <use xlink:href="#m203c729565" x="60.48" y="516.342202" style="stroke: #000000; stroke-width: 0.8"/>
      </g>
     </g>
     <g id="text_16">
      <!-- -1e-02 -->
      <g transform="translate(21.02375 520.14142) scale(0.1 -0.1)">
       <use xlink:href="#DejaVuSans-2d"/>
       <use xlink:href="#DejaVuSans-31" transform="translate(36.083984 0)"/>
       <use xlink:href="#DejaVuSans-65" transform="translate(99.707031 0)"/>
       <use xlink:href="#DejaVuSans-2d" transform="translate(161.230469 0)"/>
       <use xlink:href="#DejaVuSans-30" transform="translate(197.314453 0)"/>
       <use xlink:href="#DejaVuSans-32" transform="translate(260.9375 0)"/>
      </g>
     </g>
    </g>
    <g id="ytick_8">
     <g id="line2d_42">
      <g>
       <use xlink:href="#m203c729565" x="60.48" y="469.750636" style="stroke: #000000; stroke-width: 0.8"/>
      </g>
     </g>
     <g id="text_17">
      <!-- -5e-03 -->
      <g transform="translate(21.02375 473.549854) scale(0.1 -0.1)">
       <defs>
        <path id="DejaVuSans-33" d="M 2597 2516 
Q 3050 2419 3304 2112 
Q 3559 1806 3559 1356 
Q 3559 666 3084 287 
Q 2609 -91 1734 -91 
Q 1441 -91 1130 -33 
Q 819 25 488 141 
L 488 750 
Q 750 597 1062 519 
Q 1375 441 1716 441 
Q 2309 441 2620 675 
Q 2931 909 2931 1356 
Q 2931 1769 2642 2001 
Q 2353 2234 1838 2234 
L 1294 2234 
L 1294 2753 
L 1863 2753 
Q 2328 2753 2575 2939 
Q 2822 3125 2822 3475 
Q 2822 3834 2567 4026 
Q 2313 4219 1838 4219 
Q 1578 4219 1281 4162 
Q 984 4106 628 3988 
L 628 4550 
Q 988 4650 1302 4700 
Q 1616 4750 1894 4750 
Q 2613 4750 3031 4423 
Q 3450 4097 3450 3541 
Q 3450 3153 3228 2886 
Q 3006 2619 2597 2516 
z
" transform="scale(0.015625)"/>
       </defs>
       <use xlink:href="#DejaVuSans-2d"/>
       <use xlink:href="#DejaVuSans-35" transform="translate(36.083984 0)"/>
       <use xlink:href="#DejaVuSans-65" transform="translate(99.707031 0)"/>
       <use xlink:href="#DejaVuSans-2d" transform="translate(161.230469 0)"/>
       <use xlink:href="#DejaVuSans-30" transform="translate(197.314453 0)"/>
       <use xlink:href="#DejaVuSans-33" transform="translate(260.9375 0)"/>
      </g>
     </g>
    </g>
    <g id="ytick_9">
     <g id="line2d_43">
      <g>
       <use xlink:href="#m203c729565" x="60.48" y="423.15907" style="stroke: #000000; stroke-width: 0.8"/>
      </g>
     </g>
     <g id="text_18">
      <!-- 0e+00 -->
      <g transform="translate(19.859687 426.958289) scale(0.1 -0.1)">
       <use xlink:href="#DejaVuSans-30"/>
       <use xlink:href="#DejaVuSans-65" transform="translate(63.623047 0)"/>
       <use xlink:href="#DejaVuSans-2b" transform="translate(125.146484 0)"/>
       <use xlink:href="#DejaVuSans-30" transform="translate(208.935547 0)"/>
       <use xlink:href="#DejaVuSans-30" transform="translate(272.558594 0)"/>
      </g>
     </g>
    </g>
    <g id="text_19">
     <!-- Deflection, $v(x)$ -->
     <g transform="translate(13.78 515.240465) rotate(-90) scale(0.1 -0.1)">
      <defs>
       <path id="DejaVuSans-44" d="M 1259 4147 
L 1259 519 
L 2022 519 
Q 2988 519 3436 956 
Q 3884 1394 3884 2338 
Q 3884 3275 3436 3711 
Q 2988 4147 2022 4147 
L 1259 4147 
z
M 628 4666 
L 1925 4666 
Q 3281 4666 3915 4102 
Q 4550 3538 4550 2338 
Q 4550 1131 3912 565 
Q 3275 0 1925 0 
L 628 0 
L 628 4666 
z
" transform="scale(0.015625)"/>
       <path id="DejaVuSans-6c" d="M 603 4863 
L 1178 4863 
L 1178 0 
L 603 0 
L 603 4863 
z
" transform="scale(0.015625)"/>
       <path id="DejaVuSans-Oblique-76" d="M 459 3500 
L 1069 3500 
L 1581 525 
L 3256 3500 
L 3866 3500 
L 1875 0 
L 1100 0 
L 459 3500 
z
" transform="scale(0.015625)"/>
      </defs>
      <use xlink:href="#DejaVuSans-44" transform="translate(0 0.015625)"/>
      <use xlink:href="#DejaVuSans-65" transform="translate(77.001953 0.015625)"/>
      <use xlink:href="#DejaVuSans-66" transform="translate(138.525391 0.015625)"/>
      <use xlink:href="#DejaVuSans-6c" transform="translate(173.730469 0.015625)"/>
      <use xlink:href="#DejaVuSans-65" transform="translate(201.513672 0.015625)"/>
      <use xlink:href="#DejaVuSans-63" transform="translate(263.037109 0.015625)"/>
      <use xlink:href="#DejaVuSans-74" transform="translate(318.017578 0.015625)"/>
      <use xlink:href="#DejaVuSans-69" transform="translate(357.226562 0.015625)"/>
      <use xlink:href="#DejaVuSans-6f" transform="translate(385.009766 0.015625)"/>
      <use xlink:href="#DejaVuSans-6e" transform="translate(446.191406 0.015625)"/>
      <use xlink:href="#DejaVuSans-2c" transform="translate(509.570312 0.015625)"/>
      <use xlink:href="#DejaVuSans-20" transform="translate(541.357422 0.015625)"/>
      <use xlink:href="#DejaVuSans-Oblique-76" transform="translate(573.144531 0.015625)"/>
      <use xlink:href="#DejaVuSans-28" transform="translate(632.324219 0.015625)"/>
      <use xlink:href="#DejaVuSans-Oblique-78" transform="translate(671.337891 0.015625)"/>
      <use xlink:href="#DejaVuSans-29" transform="translate(730.517578 0.015625)"/>
     </g>
    </g>
   </g>
   <g id="line2d_44">
    <path d="M 60.48 423.15907 
L 64.705455 426.311465 
L 68.930909 429.490007 
L 73.156364 432.68924 
L 77.381818 435.903808 
L 81.607273 439.128454 
L 85.832727 442.358022 
L 90.058182 445.587458 
L 94.283636 448.811811 
L 98.509091 452.026232 
L 102.734545 455.225977 
L 106.96 458.406407 
L 111.185455 461.562989 
L 115.410909 464.691297 
L 119.636364 467.787011 
L 123.861818 470.845919 
L 128.087273 473.86392 
L 132.312727 476.83702 
L 136.538182 479.761336 
L 140.763636 482.633098 
L 144.989091 485.448642 
L 149.214545 488.204423 
L 153.44 490.897002 
L 157.665455 493.523059 
L 161.890909 496.079383 
L 166.116364 498.56288 
L 170.341818 500.97057 
L 174.567273 503.29959 
L 178.792727 505.547189 
L 183.018182 507.710736 
L 187.243636 509.787715 
L 191.469091 511.775727 
L 195.694545 513.672492 
L 199.92 515.475844 
L 204.145455 517.18374 
L 208.370909 518.794254 
L 212.596364 520.305576 
L 216.821818 521.716019 
L 221.047273 523.024014 
L 225.272727 524.228111 
L 229.498182 525.326981 
L 233.723636 526.319415 
L 237.949091 527.204324 
L 242.174545 527.980739 
L 246.4 528.647812 
L 250.625455 529.204818 
L 254.850909 529.65115 
L 259.076364 529.986323 
L 263.301818 530.209974 
L 267.527273 530.32186 
L 271.752727 530.32186 
L 275.978182 530.209974 
L 280.203636 529.986323 
L 284.429091 529.65115 
L 288.654545 529.204818 
L 292.88 528.647812 
L 297.105455 527.980739 
L 301.330909 527.204324 
L 305.556364 526.319415 
L 309.781818 525.326981 
L 314.007273 524.228111 
L 318.232727 523.024014 
L 322.458182 521.716019 
L 326.683636 520.305576 
L 330.909091 518.794254 
L 335.134545 517.18374 
L 339.36 515.475844 
L 343.585455 513.672492 
L 347.810909 511.775727 
L 352.036364 509.787715 
L 356.261818 507.710736 
L 360.487273 505.547189 
L 364.712727 503.29959 
L 368.938182 500.97057 
L 373.163636 498.56288 
L 377.389091 496.079383 
L 381.614545 493.523059 
L 385.84 490.897002 
L 390.065455 488.204423 
L 394.290909 485.448642 
L 398.516364 482.633098 
L 402.741818 479.761336 
L 406.967273 476.83702 
L 411.192727 473.86392 
L 415.418182 470.845919 
L 419.643636 467.787011 
L 423.869091 464.691297 
L 428.094545 461.562989 
L 432.32 458.406407 
L 436.545455 455.225977 
L 440.770909 452.026232 
L 444.996364 448.811811 
L 449.221818 445.587458 
L 453.447273 442.358022 
L 457.672727 439.128454 
L 461.898182 435.903808 
L 466.123636 432.68924 
L 470.349091 429.490007 
L 474.574545 426.311465 
L 478.8 423.15907 
" clip-path="url(#paf9efebe74)" style="fill: none; stroke: #000000; stroke-width: 3; stroke-linecap: square"/>
   </g>
   <g id="line2d_45">
    <path d="M 60.48 423.15907 
L 478.8 423.15907 
" clip-path="url(#paf9efebe74)" style="fill: none; stroke-dasharray: 5.55,2.4; stroke-dashoffset: 0; stroke: #000000; stroke-width: 1.5"/>
   </g>
   <g id="patch_13">
    <path d="M 60.48 535.68 
L 60.48 417.80093 
" style="fill: none; stroke: #000000; stroke-width: 0.8; stroke-linejoin: miter; stroke-linecap: square"/>
   </g>
   <g id="patch_14">
    <path d="M 478.8 535.68 
L 478.8 417.80093 
" style="fill: none; stroke: #000000; stroke-width: 0.8; stroke-linejoin: miter; stroke-linecap: square"/>
   </g>
   <g id="patch_15">
    <path d="M 60.48 535.68 
L 478.8 535.68 
" style="fill: none; stroke: #000000; stroke-width: 0.8; stroke-linejoin: miter; stroke-linecap: square"/>
   </g>
   <g id="patch_16">
    <path d="M 60.48 417.80093 
L 478.8 417.80093 
" style="fill: none; stroke: #000000; stroke-width: 0.8; stroke-linejoin: miter; stroke-linecap: square"/>
   </g>
  </g>
 </g>
 <defs>
  <clipPath id="p13ffd8827b">
   <rect x="60.48" y="28.8" width="418.32" height="117.87907"/>
  </clipPath>
  <clipPath id="p9b21ee7393">
   <rect x="60.48" y="158.466977" width="418.32" height="117.87907"/>
  </clipPath>
  <clipPath id="pa655037730">
   <rect x="60.48" y="288.133953" width="418.32" height="117.87907"/>
  </clipPath>
  <clipPath id="paf9efebe74">
   <rect x="60.48" y="417.80093" width="418.32" height="117.87907"/>
  </clipPath>
 </defs>
</svg>
