<?xml version="1.0" encoding="utf-8" standalone="no"?>
<!DOCTYPE svg PUBLIC "-//W3C//DTD SVG 1.1//EN"
  "http://www.w3.org/Graphics/SVG/1.1/DTD/svg11.dtd">
<svg height="576pt" version="1.1" viewBox="0 0 504 576" width="504pt" xmlns="http://www.w3.org/2000/svg" xmlns:xlink="http://www.w3.org/1999/xlink">
 <metadata>
  <rdf:RDF xmlns:cc="http://creativecommons.org/ns#" xmlns:dc="http://purl.org/dc/elements/1.1/" xmlns:rdf="http://www.w3.org/1999/02/22-rdf-syntax-ns#">
   <cc:Work>
    <dc:type rdf:resource="http://purl.org/dc/dcmitype/StillImage"/>
    <dc:date>2022-10-28T17:21:59.410381</dc:date>
    <dc:format>image/svg+xml</dc:format>
    <dc:creator>
     <cc:Agent>
      <dc:title>Matplotlib v3.4.2, https://matplotlib.org/</dc:title>
     </cc:Agent>
    </dc:creator>
   </cc:Work>
  </rdf:RDF>
 </metadata>
 <defs>
  <style type="text/css">*{stroke-linecap:butt;stroke-linejoin:round;}</style>
 </defs>
 <g id="figure_1">
  <g id="patch_1">
   <path d="M 0 576 
L 504 576 
L 504 0 
L 0 0 
z
" style="fill:#ffffff;"/>
  </g>
  <g id="axes_1">
   <g id="PolyCollection_1">
    <defs>
     <path d="M 60.48 -488.260465 
L 60.48 -488.260465 
L 62.592727 -488.801691 
L 64.705455 -489.342918 
L 66.818182 -489.884144 
L 68.930909 -490.42537 
L 71.043636 -490.966596 
L 73.156364 -491.507822 
L 75.269091 -492.049049 
L 77.381818 -492.590275 
L 79.494545 -493.131501 
L 81.607273 -493.672727 
L 83.72 -494.213953 
L 85.832727 -494.75518 
L 87.945455 -495.296406 
L 90.058182 -495.837632 
L 92.170909 -496.378858 
L 94.283636 -496.920085 
L 96.396364 -497.461311 
L 98.509091 -498.002537 
L 100.621818 -498.543763 
L 102.734545 -499.084989 
L 104.847273 -499.626216 
L 106.96 -500.167442 
L 109.072727 -500.708668 
L 111.185455 -501.249894 
L 113.298182 -501.791121 
L 115.410909 -502.332347 
L 117.523636 -502.873573 
L 119.636364 -503.414799 
L 121.749091 -503.956025 
L 123.861818 -504.497252 
L 125.974545 -505.038478 
L 128.087273 -505.579704 
L 130.2 -506.12093 
L 132.312727 -506.662156 
L 134.425455 -507.203383 
L 136.538182 -507.744609 
L 138.650909 -508.285835 
L 140.763636 -508.827061 
L 142.876364 -509.368288 
L 144.989091 -509.909514 
L 147.101818 -510.45074 
L 149.214545 -510.991966 
L 151.327273 -511.533192 
L 153.44 -512.074419 
L 155.552727 -512.615645 
L 157.665455 -513.156871 
L 159.778182 -513.698097 
L 161.890909 -514.239323 
L 164.003636 -514.78055 
L 166.116364 -515.321776 
L 168.229091 -515.863002 
L 170.341818 -516.404228 
L 172.454545 -516.945455 
L 174.567273 -517.486681 
L 176.68 -518.027907 
L 178.792727 -518.569133 
L 180.905455 -519.110359 
L 183.018182 -519.651586 
L 185.130909 -520.192812 
L 187.243636 -520.734038 
L 189.356364 -521.275264 
L 191.469091 -521.81649 
L 193.581818 -522.357717 
L 195.694545 -522.898943 
L 197.807273 -523.440169 
L 199.92 -523.981395 
L 202.032727 -524.522622 
L 204.145455 -525.063848 
L 206.258182 -525.605074 
L 208.370909 -526.1463 
L 210.483636 -526.687526 
L 212.596364 -527.228753 
L 214.709091 -527.769979 
L 216.821818 -528.311205 
L 218.934545 -528.852431 
L 221.047273 -529.393658 
L 223.16 -529.934884 
L 225.272727 -530.47611 
L 227.385455 -531.017336 
L 229.498182 -531.558562 
L 231.610909 -532.099789 
L 233.723636 -532.641015 
L 235.836364 -533.182241 
L 237.949091 -533.723467 
L 240.061818 -534.264693 
L 242.174545 -534.80592 
L 244.287273 -535.347146 
L 246.4 -535.888372 
L 248.512727 -536.429598 
L 250.625455 -536.970825 
L 252.738182 -537.512051 
L 254.850909 -538.053277 
L 256.963636 -538.594503 
L 259.076364 -539.135729 
L 261.189091 -539.676956 
L 263.301818 -540.218182 
L 265.414545 -540.759408 
L 267.527273 -541.300634 
L 269.64 -541.84186 
L 269.64 -488.260465 
L 269.64 -488.260465 
L 267.527273 -488.260465 
L 265.414545 -488.260465 
L 263.301818 -488.260465 
L 261.189091 -488.260465 
L 259.076364 -488.260465 
L 256.963636 -488.260465 
L 254.850909 -488.260465 
L 252.738182 -488.260465 
L 250.625455 -488.260465 
L 248.512727 -488.260465 
L 246.4 -488.260465 
L 244.287273 -488.260465 
L 242.174545 -488.260465 
L 240.061818 -488.260465 
L 237.949091 -488.260465 
L 235.836364 -488.260465 
L 233.723636 -488.260465 
L 231.610909 -488.260465 
L 229.498182 -488.260465 
L 227.385455 -488.260465 
L 225.272727 -488.260465 
L 223.16 -488.260465 
L 221.047273 -488.260465 
L 218.934545 -488.260465 
L 216.821818 -488.260465 
L 214.709091 -488.260465 
L 212.596364 -488.260465 
L 210.483636 -488.260465 
L 208.370909 -488.260465 
L 206.258182 -488.260465 
L 204.145455 -488.260465 
L 202.032727 -488.260465 
L 199.92 -488.260465 
L 197.807273 -488.260465 
L 195.694545 -488.260465 
L 193.581818 -488.260465 
L 191.469091 -488.260465 
L 189.356364 -488.260465 
L 187.243636 -488.260465 
L 185.130909 -488.260465 
L 183.018182 -488.260465 
L 180.905455 -488.260465 
L 178.792727 -488.260465 
L 176.68 -488.260465 
L 174.567273 -488.260465 
L 172.454545 -488.260465 
L 170.341818 -488.260465 
L 168.229091 -488.260465 
L 166.116364 -488.260465 
L 164.003636 -488.260465 
L 161.890909 -488.260465 
L 159.778182 -488.260465 
L 157.665455 -488.260465 
L 155.552727 -488.260465 
L 153.44 -488.260465 
L 151.327273 -488.260465 
L 149.214545 -488.260465 
L 147.101818 -488.260465 
L 144.989091 -488.260465 
L 142.876364 -488.260465 
L 140.763636 -488.260465 
L 138.650909 -488.260465 
L 136.538182 -488.260465 
L 134.425455 -488.260465 
L 132.312727 -488.260465 
L 130.2 -488.260465 
L 128.087273 -488.260465 
L 125.974545 -488.260465 
L 123.861818 -488.260465 
L 121.749091 -488.260465 
L 119.636364 -488.260465 
L 117.523636 -488.260465 
L 115.410909 -488.260465 
L 113.298182 -488.260465 
L 111.185455 -488.260465 
L 109.072727 -488.260465 
L 106.96 -488.260465 
L 104.847273 -488.260465 
L 102.734545 -488.260465 
L 100.621818 -488.260465 
L 98.509091 -488.260465 
L 96.396364 -488.260465 
L 94.283636 -488.260465 
L 92.170909 -488.260465 
L 90.058182 -488.260465 
L 87.945455 -488.260465 
L 85.832727 -488.260465 
L 83.72 -488.260465 
L 81.607273 -488.260465 
L 79.494545 -488.260465 
L 77.381818 -488.260465 
L 75.269091 -488.260465 
L 73.156364 -488.260465 
L 71.043636 -488.260465 
L 68.930909 -488.260465 
L 66.818182 -488.260465 
L 64.705455 -488.260465 
L 62.592727 -488.260465 
L 60.48 -488.260465 
z
" id="mf7638494b4" style="stroke:#4169e1;stroke-opacity:0.35;stroke-width:2;"/>
    </defs>
    <g clip-path="url(#pb830363b2b)">
     <use style="fill:#4169e1;fill-opacity:0.35;stroke:#4169e1;stroke-opacity:0.35;stroke-width:2;" x="0" xlink:href="#mf7638494b4" y="576"/>
    </g>
   </g>
   <g id="PolyCollection_2">
    <defs>
     <path d="M 269.64 -488.260465 
L 269.64 -541.84186 
L 271.752727 -541.84186 
L 273.865455 -541.84186 
L 275.978182 -541.84186 
L 278.090909 -541.84186 
L 280.203636 -541.84186 
L 282.316364 -541.84186 
L 284.429091 -541.84186 
L 286.541818 -541.84186 
L 288.654545 -541.84186 
L 290.767273 -541.84186 
L 292.88 -541.84186 
L 294.992727 -541.84186 
L 297.105455 -541.84186 
L 299.218182 -541.84186 
L 301.330909 -541.84186 
L 303.443636 -541.84186 
L 305.556364 -541.84186 
L 307.669091 -541.84186 
L 309.781818 -541.84186 
L 311.894545 -541.84186 
L 314.007273 -541.84186 
L 316.12 -541.84186 
L 318.232727 -541.84186 
L 320.345455 -541.84186 
L 322.458182 -541.84186 
L 324.570909 -541.84186 
L 326.683636 -541.84186 
L 328.796364 -541.84186 
L 330.909091 -541.84186 
L 333.021818 -541.84186 
L 335.134545 -541.84186 
L 337.247273 -541.84186 
L 339.36 -541.84186 
L 341.472727 -541.84186 
L 343.585455 -541.84186 
L 345.698182 -541.84186 
L 347.810909 -541.84186 
L 349.923636 -541.84186 
L 352.036364 -541.84186 
L 354.149091 -541.84186 
L 356.261818 -541.84186 
L 358.374545 -541.84186 
L 360.487273 -541.84186 
L 362.6 -541.84186 
L 364.712727 -541.84186 
L 366.825455 -541.84186 
L 368.938182 -541.84186 
L 371.050909 -541.84186 
L 373.163636 -541.84186 
L 375.276364 -541.84186 
L 377.389091 -541.84186 
L 379.501818 -541.84186 
L 381.614545 -541.84186 
L 383.727273 -541.84186 
L 385.84 -541.84186 
L 387.952727 -541.84186 
L 390.065455 -541.84186 
L 392.178182 -541.84186 
L 394.290909 -541.84186 
L 396.403636 -541.84186 
L 398.516364 -541.84186 
L 400.629091 -541.84186 
L 402.741818 -541.84186 
L 404.854545 -541.84186 
L 406.967273 -541.84186 
L 409.08 -541.84186 
L 411.192727 -541.84186 
L 413.305455 -541.84186 
L 415.418182 -541.84186 
L 417.530909 -541.84186 
L 419.643636 -541.84186 
L 421.756364 -541.84186 
L 423.869091 -541.84186 
L 425.981818 -541.84186 
L 428.094545 -541.84186 
L 430.207273 -541.84186 
L 432.32 -541.84186 
L 434.432727 -541.84186 
L 436.545455 -541.84186 
L 438.658182 -541.84186 
L 440.770909 -541.84186 
L 442.883636 -541.84186 
L 444.996364 -541.84186 
L 447.109091 -541.84186 
L 449.221818 -541.84186 
L 451.334545 -541.84186 
L 453.447273 -541.84186 
L 455.56 -541.84186 
L 457.672727 -541.84186 
L 459.785455 -541.84186 
L 461.898182 -541.84186 
L 464.010909 -541.84186 
L 466.123636 -541.84186 
L 468.236364 -541.84186 
L 470.349091 -541.84186 
L 472.461818 -541.84186 
L 474.574545 -541.84186 
L 476.687273 -541.84186 
L 478.8 -541.84186 
L 478.8 -488.260465 
L 478.8 -488.260465 
L 476.687273 -488.260465 
L 474.574545 -488.260465 
L 472.461818 -488.260465 
L 470.349091 -488.260465 
L 468.236364 -488.260465 
L 466.123636 -488.260465 
L 464.010909 -488.260465 
L 461.898182 -488.260465 
L 459.785455 -488.260465 
L 457.672727 -488.260465 
L 455.56 -488.260465 
L 453.447273 -488.260465 
L 451.334545 -488.260465 
L 449.221818 -488.260465 
L 447.109091 -488.260465 
L 444.996364 -488.260465 
L 442.883636 -488.260465 
L 440.770909 -488.260465 
L 438.658182 -488.260465 
L 436.545455 -488.260465 
L 434.432727 -488.260465 
L 432.32 -488.260465 
L 430.207273 -488.260465 
L 428.094545 -488.260465 
L 425.981818 -488.260465 
L 423.869091 -488.260465 
L 421.756364 -488.260465 
L 419.643636 -488.260465 
L 417.530909 -488.260465 
L 415.418182 -488.260465 
L 413.305455 -488.260465 
L 411.192727 -488.260465 
L 409.08 -488.260465 
L 406.967273 -488.260465 
L 404.854545 -488.260465 
L 402.741818 -488.260465 
L 400.629091 -488.260465 
L 398.516364 -488.260465 
L 396.403636 -488.260465 
L 394.290909 -488.260465 
L 392.178182 -488.260465 
L 390.065455 -488.260465 
L 387.952727 -488.260465 
L 385.84 -488.260465 
L 383.727273 -488.260465 
L 381.614545 -488.260465 
L 379.501818 -488.260465 
L 377.389091 -488.260465 
L 375.276364 -488.260465 
L 373.163636 -488.260465 
L 371.050909 -488.260465 
L 368.938182 -488.260465 
L 366.825455 -488.260465 
L 364.712727 -488.260465 
L 362.6 -488.260465 
L 360.487273 -488.260465 
L 358.374545 -488.260465 
L 356.261818 -488.260465 
L 354.149091 -488.260465 
L 352.036364 -488.260465 
L 349.923636 -488.260465 
L 347.810909 -488.260465 
L 345.698182 -488.260465 
L 343.585455 -488.260465 
L 341.472727 -488.260465 
L 339.36 -488.260465 
L 337.247273 -488.260465 
L 335.134545 -488.260465 
L 333.021818 -488.260465 
L 330.909091 -488.260465 
L 328.796364 -488.260465 
L 326.683636 -488.260465 
L 324.570909 -488.260465 
L 322.458182 -488.260465 
L 320.345455 -488.260465 
L 318.232727 -488.260465 
L 316.12 -488.260465 
L 314.007273 -488.260465 
L 311.894545 -488.260465 
L 309.781818 -488.260465 
L 307.669091 -488.260465 
L 305.556364 -488.260465 
L 303.443636 -488.260465 
L 301.330909 -488.260465 
L 299.218182 -488.260465 
L 297.105455 -488.260465 
L 294.992727 -488.260465 
L 292.88 -488.260465 
L 290.767273 -488.260465 
L 288.654545 -488.260465 
L 286.541818 -488.260465 
L 284.429091 -488.260465 
L 282.316364 -488.260465 
L 280.203636 -488.260465 
L 278.090909 -488.260465 
L 275.978182 -488.260465 
L 273.865455 -488.260465 
L 271.752727 -488.260465 
L 269.64 -488.260465 
z
" id="mc4b9c1b28d" style="stroke:#4169e1;stroke-opacity:0.35;stroke-width:2;"/>
    </defs>
    <g clip-path="url(#pb830363b2b)">
     <use style="fill:#4169e1;fill-opacity:0.35;stroke:#4169e1;stroke-opacity:0.35;stroke-width:2;" x="0" xlink:href="#mc4b9c1b28d" y="576"/>
    </g>
   </g>
   <g id="line2d_1">
    <path clip-path="url(#pb830363b2b)" d="M 60.48 87.739535 
L 62.592727 87.198309 
L 64.705455 86.657082 
L 66.818182 86.115856 
L 68.930909 85.57463 
L 71.043636 85.033404 
L 73.156364 84.492178 
L 75.269091 83.950951 
L 77.381818 83.409725 
L 79.494545 82.868499 
L 81.607273 82.327273 
L 83.72 81.786047 
L 85.832727 81.24482 
L 87.945455 80.703594 
L 90.058182 80.162368 
L 92.170909 79.621142 
L 94.283636 79.079915 
L 96.396364 78.538689 
L 98.509091 77.997463 
L 100.621818 77.456237 
L 102.734545 76.915011 
L 104.847273 76.373784 
L 106.96 75.832558 
L 109.072727 75.291332 
L 111.185455 74.750106 
L 113.298182 74.208879 
L 115.410909 73.667653 
L 117.523636 73.126427 
L 119.636364 72.585201 
L 121.749091 72.043975 
L 123.861818 71.502748 
L 125.974545 70.961522 
L 128.087273 70.420296 
L 130.2 69.87907 
L 132.312727 69.337844 
L 134.425455 68.796617 
L 136.538182 68.255391 
L 138.650909 67.714165 
L 140.763636 67.172939 
L 142.876364 66.631712 
L 144.989091 66.090486 
L 147.101818 65.54926 
L 149.214545 65.008034 
L 151.327273 64.466808 
L 153.44 63.925581 
L 155.552727 63.384355 
L 157.665455 62.843129 
L 159.778182 62.301903 
L 161.890909 61.760677 
L 164.003636 61.21945 
L 166.116364 60.678224 
L 168.229091 60.136998 
L 170.341818 59.595772 
L 172.454545 59.054545 
L 174.567273 58.513319 
L 176.68 57.972093 
L 178.792727 57.430867 
L 180.905455 56.889641 
L 183.018182 56.348414 
L 185.130909 55.807188 
L 187.243636 55.265962 
L 189.356364 54.724736 
L 191.469091 54.18351 
L 193.581818 53.642283 
L 195.694545 53.101057 
L 197.807273 52.559831 
L 199.92 52.018605 
L 202.032727 51.477378 
L 204.145455 50.936152 
L 206.258182 50.394926 
L 208.370909 49.8537 
L 210.483636 49.312474 
L 212.596364 48.771247 
L 214.709091 48.230021 
L 216.821818 47.688795 
L 218.934545 47.147569 
L 221.047273 46.606342 
L 223.16 46.065116 
L 225.272727 45.52389 
L 227.385455 44.982664 
L 229.498182 44.441438 
L 231.610909 43.900211 
L 233.723636 43.358985 
L 235.836364 42.817759 
L 237.949091 42.276533 
L 240.061818 41.735307 
L 242.174545 41.19408 
L 244.287273 40.652854 
L 246.4 40.111628 
L 248.512727 39.570402 
L 250.625455 39.029175 
L 252.738182 38.487949 
L 254.850909 37.946723 
L 256.963636 37.405497 
L 259.076364 36.864271 
L 261.189091 36.323044 
L 263.301818 35.781818 
L 265.414545 35.240592 
L 267.527273 34.699366 
L 269.64 34.15814 
" style="fill:none;stroke:#4169e1;stroke-linecap:square;stroke-width:2;"/>
   </g>
   <g id="line2d_2">
    <path clip-path="url(#pb830363b2b)" d="M 60.48 87.739535 
L 269.64 87.739535 
" style="fill:none;stroke:#000000;stroke-linecap:square;stroke-width:3;"/>
   </g>
   <g id="line2d_3">
    <path clip-path="url(#pb830363b2b)" d="M 269.64 34.15814 
L 271.752727 34.15814 
L 273.865455 34.15814 
L 275.978182 34.15814 
L 278.090909 34.15814 
L 280.203636 34.15814 
L 282.316364 34.15814 
L 284.429091 34.15814 
L 286.541818 34.15814 
L 288.654545 34.15814 
L 290.767273 34.15814 
L 292.88 34.15814 
L 294.992727 34.15814 
L 297.105455 34.15814 
L 299.218182 34.15814 
L 301.330909 34.15814 
L 303.443636 34.15814 
L 305.556364 34.15814 
L 307.669091 34.15814 
L 309.781818 34.15814 
L 311.894545 34.15814 
L 314.007273 34.15814 
L 316.12 34.15814 
L 318.232727 34.15814 
L 320.345455 34.15814 
L 322.458182 34.15814 
L 324.570909 34.15814 
L 326.683636 34.15814 
L 328.796364 34.15814 
L 330.909091 34.15814 
L 333.021818 34.15814 
L 335.134545 34.15814 
L 337.247273 34.15814 
L 339.36 34.15814 
L 341.472727 34.15814 
L 343.585455 34.15814 
L 345.698182 34.15814 
L 347.810909 34.15814 
L 349.923636 34.15814 
L 352.036364 34.15814 
L 354.149091 34.15814 
L 356.261818 34.15814 
L 358.374545 34.15814 
L 360.487273 34.15814 
L 362.6 34.15814 
L 364.712727 34.15814 
L 366.825455 34.15814 
L 368.938182 34.15814 
L 371.050909 34.15814 
L 373.163636 34.15814 
L 375.276364 34.15814 
L 377.389091 34.15814 
L 379.501818 34.15814 
L 381.614545 34.15814 
L 383.727273 34.15814 
L 385.84 34.15814 
L 387.952727 34.15814 
L 390.065455 34.15814 
L 392.178182 34.15814 
L 394.290909 34.15814 
L 396.403636 34.15814 
L 398.516364 34.15814 
L 400.629091 34.15814 
L 402.741818 34.15814 
L 404.854545 34.15814 
L 406.967273 34.15814 
L 409.08 34.15814 
L 411.192727 34.15814 
L 413.305455 34.15814 
L 415.418182 34.15814 
L 417.530909 34.15814 
L 419.643636 34.15814 
L 421.756364 34.15814 
L 423.869091 34.15814 
L 425.981818 34.15814 
L 428.094545 34.15814 
L 430.207273 34.15814 
L 432.32 34.15814 
L 434.432727 34.15814 
L 436.545455 34.15814 
L 438.658182 34.15814 
L 440.770909 34.15814 
L 442.883636 34.15814 
L 444.996364 34.15814 
L 447.109091 34.15814 
L 449.221818 34.15814 
L 451.334545 34.15814 
L 453.447273 34.15814 
L 455.56 34.15814 
L 457.672727 34.15814 
L 459.785455 34.15814 
L 461.898182 34.15814 
L 464.010909 34.15814 
L 466.123636 34.15814 
L 468.236364 34.15814 
L 470.349091 34.15814 
L 472.461818 34.15814 
L 474.574545 34.15814 
L 476.687273 34.15814 
L 478.8 34.15814 
" style="fill:none;stroke:#4169e1;stroke-linecap:square;stroke-width:2;"/>
   </g>
   <g id="line2d_4">
    <path clip-path="url(#pb830363b2b)" d="M 269.64 87.739535 
L 478.8 87.739535 
" style="fill:none;stroke:#000000;stroke-linecap:square;stroke-width:3;"/>
   </g>
   <g id="line2d_5">
    <path d="M 60.48 95.344636 
" style="fill:none;stroke:#1f77b4;stroke-linecap:square;stroke-width:1.5;"/>
    <defs>
     <path d="M 0 -7.5 
L -7.5 7.5 
L 7.5 7.5 
z
" id="ma17baabdf9" style="stroke:#000000;stroke-linejoin:miter;"/>
    </defs>
    <g>
     <use style="fill:#c0c0c0;stroke:#000000;stroke-linejoin:miter;" x="60.48" xlink:href="#ma17baabdf9" y="95.344636"/>
    </g>
   </g>
   <g id="line2d_6">
    <path d="M 64.6632 105.074692 
" style="fill:none;stroke:#ff7f0e;stroke-linecap:square;stroke-width:1.5;"/>
    <defs>
     <path d="M 0 3 
C 0.795609 3 1.55874 2.683901 2.12132 2.12132 
C 2.683901 1.55874 3 0.795609 3 0 
C 3 -0.795609 2.683901 -1.55874 2.12132 -2.12132 
C 1.55874 -2.683901 0.795609 -3 0 -3 
C -0.795609 -3 -1.55874 -2.683901 -2.12132 -2.12132 
C -2.683901 -1.55874 -3 -0.795609 -3 0 
C -3 0.795609 -2.683901 1.55874 -2.12132 2.12132 
C -1.55874 2.683901 -0.795609 3 0 3 
z
" id="mcd40d628ce"/>
    </defs>
    <g>
     <use x="64.6632" xlink:href="#mcd40d628ce" y="105.074692"/>
    </g>
   </g>
   <g id="line2d_7">
    <path d="M 56.2968 105.074692 
" style="fill:none;stroke:#2ca02c;stroke-linecap:square;stroke-width:1.5;"/>
    <g>
     <use x="56.2968" xlink:href="#mcd40d628ce" y="105.074692"/>
    </g>
   </g>
   <g id="line2d_8">
    <path d="M 50.022 111.315349 
L 70.938 111.315349 
" style="fill:none;stroke:#c0c0c0;stroke-width:5;"/>
   </g>
   <g id="line2d_9">
    <path d="M 50.022 109.172093 
L 70.938 109.172093 
" style="fill:none;stroke:#000000;stroke-width:1.5;"/>
   </g>
   <g id="line2d_10">
    <path d="M 478.8 98.455814 
" style="fill:none;stroke:#d62728;stroke-linecap:square;stroke-width:1.5;"/>
    <defs>
     <path d="M 0 -10 
L -10 10 
L 10 10 
z
" id="m8b438326e5" style="stroke:#000000;stroke-linejoin:miter;"/>
    </defs>
    <g>
     <use style="fill:#c0c0c0;stroke:#000000;stroke-linejoin:miter;" x="478.8" xlink:href="#m8b438326e5" y="98.455814"/>
    </g>
   </g>
   <g id="line2d_11">
    <path d="M 468.342 111.315349 
L 489.258 111.315349 
" style="fill:none;stroke:#c0c0c0;stroke-width:5;"/>
   </g>
   <g id="line2d_12">
    <path d="M 468.342 109.172093 
L 489.258 109.172093 
" style="fill:none;stroke:#000000;stroke-width:1.5;"/>
   </g>
  </g>
  <g id="axes_2">
   <g id="patch_2">
    <path d="M 60.48 276.346047 
L 478.8 276.346047 
L 478.8 158.466977 
L 60.48 158.466977 
z
" style="fill:#ffffff;"/>
   </g>
   <g id="PolyCollection_3">
    <defs>
     <path d="M 60.48 -346.686512 
L 60.48 -305.012093 
L 62.592727 -305.015738 
L 64.705455 -305.026672 
L 66.818182 -305.044895 
L 68.930909 -305.070407 
L 71.043636 -305.103209 
L 73.156364 -305.143299 
L 75.269091 -305.190679 
L 77.381818 -305.245349 
L 79.494545 -305.307307 
L 81.607273 -305.376555 
L 83.72 -305.453092 
L 85.832727 -305.536918 
L 87.945455 -305.628034 
L 90.058182 -305.726439 
L 92.170909 -305.832133 
L 94.283636 -305.945116 
L 96.396364 -306.065388 
L 98.509091 -306.19295 
L 100.621818 -306.327801 
L 102.734545 -306.469941 
L 104.847273 -306.619371 
L 106.96 -306.77609 
L 109.072727 -306.940098 
L 111.185455 -307.111395 
L 113.298182 -307.289981 
L 115.410909 -307.475857 
L 117.523636 -307.669022 
L 119.636364 -307.869476 
L 121.749091 -308.077219 
L 123.861818 -308.292252 
L 125.974545 -308.514574 
L 128.087273 -308.744185 
L 130.2 -308.981085 
L 132.312727 -309.225275 
L 134.425455 -309.476754 
L 136.538182 -309.735522 
L 138.650909 -310.001579 
L 140.763636 -310.274926 
L 142.876364 -310.555562 
L 144.989091 -310.843487 
L 147.101818 -311.138701 
L 149.214545 -311.441204 
L 151.327273 -311.750997 
L 153.44 -312.068079 
L 155.552727 -312.392451 
L 157.665455 -312.724111 
L 159.778182 -313.063061 
L 161.890909 -313.4093 
L 164.003636 -313.762828 
L 166.116364 -314.123645 
L 168.229091 -314.491752 
L 170.341818 -314.867148 
L 172.454545 -315.249833 
L 174.567273 -315.639808 
L 176.68 -316.037071 
L 178.792727 -316.441624 
L 180.905455 -316.853467 
L 183.018182 -317.272598 
L 185.130909 -317.699019 
L 187.243636 -318.132729 
L 189.356364 -318.573728 
L 191.469091 -319.022016 
L 193.581818 -319.477594 
L 195.694545 -319.940461 
L 197.807273 -320.410617 
L 199.92 -320.888062 
L 202.032727 -321.372797 
L 204.145455 -321.86482 
L 206.258182 -322.364134 
L 208.370909 -322.870736 
L 210.483636 -323.384627 
L 212.596364 -323.905808 
L 214.709091 -324.434278 
L 216.821818 -324.970038 
L 218.934545 -325.513086 
L 221.047273 -326.063424 
L 223.16 -326.621051 
L 225.272727 -327.185967 
L 227.385455 -327.758173 
L 229.498182 -328.337667 
L 231.610909 -328.924451 
L 233.723636 -329.518524 
L 235.836364 -330.119887 
L 237.949091 -330.728539 
L 240.061818 -331.34448 
L 242.174545 -331.96771 
L 244.287273 -332.598229 
L 246.4 -333.236038 
L 248.512727 -333.881136 
L 250.625455 -334.533523 
L 252.738182 -335.193199 
L 254.850909 -335.860165 
L 256.963636 -336.53442 
L 259.076364 -337.215964 
L 261.189091 -337.904797 
L 263.301818 -338.60092 
L 265.414545 -339.304332 
L 267.527273 -340.015033 
L 269.64 -340.733023 
L 269.64 -346.686512 
L 269.64 -346.686512 
L 267.527273 -346.686512 
L 265.414545 -346.686512 
L 263.301818 -346.686512 
L 261.189091 -346.686512 
L 259.076364 -346.686512 
L 256.963636 -346.686512 
L 254.850909 -346.686512 
L 252.738182 -346.686512 
L 250.625455 -346.686512 
L 248.512727 -346.686512 
L 246.4 -346.686512 
L 244.287273 -346.686512 
L 242.174545 -346.686512 
L 240.061818 -346.686512 
L 237.949091 -346.686512 
L 235.836364 -346.686512 
L 233.723636 -346.686512 
L 231.610909 -346.686512 
L 229.498182 -346.686512 
L 227.385455 -346.686512 
L 225.272727 -346.686512 
L 223.16 -346.686512 
L 221.047273 -346.686512 
L 218.934545 -346.686512 
L 216.821818 -346.686512 
L 214.709091 -346.686512 
L 212.596364 -346.686512 
L 210.483636 -346.686512 
L 208.370909 -346.686512 
L 206.258182 -346.686512 
L 204.145455 -346.686512 
L 202.032727 -346.686512 
L 199.92 -346.686512 
L 197.807273 -346.686512 
L 195.694545 -346.686512 
L 193.581818 -346.686512 
L 191.469091 -346.686512 
L 189.356364 -346.686512 
L 187.243636 -346.686512 
L 185.130909 -346.686512 
L 183.018182 -346.686512 
L 180.905455 -346.686512 
L 178.792727 -346.686512 
L 176.68 -346.686512 
L 174.567273 -346.686512 
L 172.454545 -346.686512 
L 170.341818 -346.686512 
L 168.229091 -346.686512 
L 166.116364 -346.686512 
L 164.003636 -346.686512 
L 161.890909 -346.686512 
L 159.778182 -346.686512 
L 157.665455 -346.686512 
L 155.552727 -346.686512 
L 153.44 -346.686512 
L 151.327273 -346.686512 
L 149.214545 -346.686512 
L 147.101818 -346.686512 
L 144.989091 -346.686512 
L 142.876364 -346.686512 
L 140.763636 -346.686512 
L 138.650909 -346.686512 
L 136.538182 -346.686512 
L 134.425455 -346.686512 
L 132.312727 -346.686512 
L 130.2 -346.686512 
L 128.087273 -346.686512 
L 125.974545 -346.686512 
L 123.861818 -346.686512 
L 121.749091 -346.686512 
L 119.636364 -346.686512 
L 117.523636 -346.686512 
L 115.410909 -346.686512 
L 113.298182 -346.686512 
L 111.185455 -346.686512 
L 109.072727 -346.686512 
L 106.96 -346.686512 
L 104.847273 -346.686512 
L 102.734545 -346.686512 
L 100.621818 -346.686512 
L 98.509091 -346.686512 
L 96.396364 -346.686512 
L 94.283636 -346.686512 
L 92.170909 -346.686512 
L 90.058182 -346.686512 
L 87.945455 -346.686512 
L 85.832727 -346.686512 
L 83.72 -346.686512 
L 81.607273 -346.686512 
L 79.494545 -346.686512 
L 77.381818 -346.686512 
L 75.269091 -346.686512 
L 73.156364 -346.686512 
L 71.043636 -346.686512 
L 68.930909 -346.686512 
L 66.818182 -346.686512 
L 64.705455 -346.686512 
L 62.592727 -346.686512 
L 60.48 -346.686512 
z
" id="m4a17e2b3eb" style="stroke:#228b22;stroke-opacity:0.35;"/>
    </defs>
    <g clip-path="url(#pcf3a379cee)">
     <use style="fill:#228b22;fill-opacity:0.35;stroke:#228b22;stroke-opacity:0.35;" x="0" xlink:href="#m4a17e2b3eb" y="576"/>
    </g>
   </g>
   <g id="PolyCollection_4">
    <defs>
     <path d="M 269.64 -346.686512 
L 269.64 -340.733023 
L 271.752727 -341.454658 
L 273.865455 -342.176293 
L 275.978182 -342.897928 
L 278.090909 -343.619563 
L 280.203636 -344.341198 
L 282.316364 -345.062833 
L 284.429091 -345.784468 
L 286.541818 -346.506103 
L 288.654545 -347.227738 
L 290.767273 -347.949373 
L 292.88 -348.671008 
L 294.992727 -349.392643 
L 297.105455 -350.114278 
L 299.218182 -350.835913 
L 301.330909 -351.557548 
L 303.443636 -352.279183 
L 305.556364 -353.000817 
L 307.669091 -353.722452 
L 309.781818 -354.444087 
L 311.894545 -355.165722 
L 314.007273 -355.887357 
L 316.12 -356.608992 
L 318.232727 -357.330627 
L 320.345455 -358.052262 
L 322.458182 -358.773897 
L 324.570909 -359.495532 
L 326.683636 -360.217167 
L 328.796364 -360.938802 
L 330.909091 -361.660437 
L 333.021818 -362.382072 
L 335.134545 -363.103707 
L 337.247273 -363.825342 
L 339.36 -364.546977 
L 341.472727 -365.268612 
L 343.585455 -365.990247 
L 345.698182 -366.711882 
L 347.810909 -367.433517 
L 349.923636 -368.155152 
L 352.036364 -368.876786 
L 354.149091 -369.598421 
L 356.261818 -370.320056 
L 358.374545 -371.041691 
L 360.487273 -371.763326 
L 362.6 -372.484961 
L 364.712727 -373.206596 
L 366.825455 -373.928231 
L 368.938182 -374.649866 
L 371.050909 -375.371501 
L 373.163636 -376.093136 
L 375.276364 -376.814771 
L 377.389091 -377.536406 
L 379.501818 -378.258041 
L 381.614545 -378.979676 
L 383.727273 -379.701311 
L 385.84 -380.422946 
L 387.952727 -381.144581 
L 390.065455 -381.866216 
L 392.178182 -382.587851 
L 394.290909 -383.309486 
L 396.403636 -384.031121 
L 398.516364 -384.752755 
L 400.629091 -385.47439 
L 402.741818 -386.196025 
L 404.854545 -386.91766 
L 406.967273 -387.639295 
L 409.08 -388.36093 
L 411.192727 -389.082565 
L 413.305455 -389.8042 
L 415.418182 -390.525835 
L 417.530909 -391.24747 
L 419.643636 -391.969105 
L 421.756364 -392.69074 
L 423.869091 -393.412375 
L 425.981818 -394.13401 
L 428.094545 -394.855645 
L 430.207273 -395.57728 
L 432.32 -396.298915 
L 434.432727 -397.02055 
L 436.545455 -397.742185 
L 438.658182 -398.46382 
L 440.770909 -399.185455 
L 442.883636 -399.907089 
L 444.996364 -400.628724 
L 447.109091 -401.350359 
L 449.221818 -402.071994 
L 451.334545 -402.793629 
L 453.447273 -403.515264 
L 455.56 -404.236899 
L 457.672727 -404.958534 
L 459.785455 -405.680169 
L 461.898182 -406.401804 
L 464.010909 -407.123439 
L 466.123636 -407.845074 
L 468.236364 -408.566709 
L 470.349091 -409.288344 
L 472.461818 -410.009979 
L 474.574545 -410.731614 
L 476.687273 -411.453249 
L 478.8 -412.174884 
L 478.8 -346.686512 
L 478.8 -346.686512 
L 476.687273 -346.686512 
L 474.574545 -346.686512 
L 472.461818 -346.686512 
L 470.349091 -346.686512 
L 468.236364 -346.686512 
L 466.123636 -346.686512 
L 464.010909 -346.686512 
L 461.898182 -346.686512 
L 459.785455 -346.686512 
L 457.672727 -346.686512 
L 455.56 -346.686512 
L 453.447273 -346.686512 
L 451.334545 -346.686512 
L 449.221818 -346.686512 
L 447.109091 -346.686512 
L 444.996364 -346.686512 
L 442.883636 -346.686512 
L 440.770909 -346.686512 
L 438.658182 -346.686512 
L 436.545455 -346.686512 
L 434.432727 -346.686512 
L 432.32 -346.686512 
L 430.207273 -346.686512 
L 428.094545 -346.686512 
L 425.981818 -346.686512 
L 423.869091 -346.686512 
L 421.756364 -346.686512 
L 419.643636 -346.686512 
L 417.530909 -346.686512 
L 415.418182 -346.686512 
L 413.305455 -346.686512 
L 411.192727 -346.686512 
L 409.08 -346.686512 
L 406.967273 -346.686512 
L 404.854545 -346.686512 
L 402.741818 -346.686512 
L 400.629091 -346.686512 
L 398.516364 -346.686512 
L 396.403636 -346.686512 
L 394.290909 -346.686512 
L 392.178182 -346.686512 
L 390.065455 -346.686512 
L 387.952727 -346.686512 
L 385.84 -346.686512 
L 383.727273 -346.686512 
L 381.614545 -346.686512 
L 379.501818 -346.686512 
L 377.389091 -346.686512 
L 375.276364 -346.686512 
L 373.163636 -346.686512 
L 371.050909 -346.686512 
L 368.938182 -346.686512 
L 366.825455 -346.686512 
L 364.712727 -346.686512 
L 362.6 -346.686512 
L 360.487273 -346.686512 
L 358.374545 -346.686512 
L 356.261818 -346.686512 
L 354.149091 -346.686512 
L 352.036364 -346.686512 
L 349.923636 -346.686512 
L 347.810909 -346.686512 
L 345.698182 -346.686512 
L 343.585455 -346.686512 
L 341.472727 -346.686512 
L 339.36 -346.686512 
L 337.247273 -346.686512 
L 335.134545 -346.686512 
L 333.021818 -346.686512 
L 330.909091 -346.686512 
L 328.796364 -346.686512 
L 326.683636 -346.686512 
L 324.570909 -346.686512 
L 322.458182 -346.686512 
L 320.345455 -346.686512 
L 318.232727 -346.686512 
L 316.12 -346.686512 
L 314.007273 -346.686512 
L 311.894545 -346.686512 
L 309.781818 -346.686512 
L 307.669091 -346.686512 
L 305.556364 -346.686512 
L 303.443636 -346.686512 
L 301.330909 -346.686512 
L 299.218182 -346.686512 
L 297.105455 -346.686512 
L 294.992727 -346.686512 
L 292.88 -346.686512 
L 290.767273 -346.686512 
L 288.654545 -346.686512 
L 286.541818 -346.686512 
L 284.429091 -346.686512 
L 282.316364 -346.686512 
L 280.203636 -346.686512 
L 278.090909 -346.686512 
L 275.978182 -346.686512 
L 273.865455 -346.686512 
L 271.752727 -346.686512 
L 269.64 -346.686512 
z
" id="m339205cf02" style="stroke:#228b22;stroke-opacity:0.35;"/>
    </defs>
    <g clip-path="url(#pcf3a379cee)">
     <use style="fill:#228b22;fill-opacity:0.35;stroke:#228b22;stroke-opacity:0.35;" x="0" xlink:href="#m339205cf02" y="576"/>
    </g>
   </g>
   <g id="matplotlib.axis_1">
    <g id="xtick_1">
     <g id="line2d_13">
      <defs>
       <path d="M 0 0 
L 0 3.5 
" id="m03ee45ac75" style="stroke:#000000;stroke-width:0.8;"/>
      </defs>
      <g>
       <use style="stroke:#000000;stroke-width:0.8;" x="60.48" xlink:href="#m03ee45ac75" y="276.346047"/>
      </g>
     </g>
    </g>
    <g id="xtick_2">
     <g id="line2d_14">
      <g>
       <use style="stroke:#000000;stroke-width:0.8;" x="144.144" xlink:href="#m03ee45ac75" y="276.346047"/>
      </g>
     </g>
    </g>
    <g id="xtick_3">
     <g id="line2d_15">
      <g>
       <use style="stroke:#000000;stroke-width:0.8;" x="227.808" xlink:href="#m03ee45ac75" y="276.346047"/>
      </g>
     </g>
    </g>
    <g id="xtick_4">
     <g id="line2d_16">
      <g>
       <use style="stroke:#000000;stroke-width:0.8;" x="311.472" xlink:href="#m03ee45ac75" y="276.346047"/>
      </g>
     </g>
    </g>
    <g id="xtick_5">
     <g id="line2d_17">
      <g>
       <use style="stroke:#000000;stroke-width:0.8;" x="395.136" xlink:href="#m03ee45ac75" y="276.346047"/>
      </g>
     </g>
    </g>
    <g id="xtick_6">
     <g id="line2d_18">
      <g>
       <use style="stroke:#000000;stroke-width:0.8;" x="478.8" xlink:href="#m03ee45ac75" y="276.346047"/>
      </g>
     </g>
    </g>
   </g>
   <g id="matplotlib.axis_2">
    <g id="ytick_1">
     <g id="line2d_19">
      <defs>
       <path d="M 0 0 
L -3.5 0 
" id="m0d39b060ab" style="stroke:#000000;stroke-width:0.8;"/>
      </defs>
      <g>
       <use style="stroke:#000000;stroke-width:0.8;" x="60.48" xlink:href="#m0d39b060ab" y="257.890233"/>
      </g>
     </g>
     <g id="text_1">
      <!-- -2e-01 -->
      <g transform="translate(21.02375 261.689451)scale(0.1 -0.1)">
       <defs>
        <path d="M 313 2009 
L 1997 2009 
L 1997 1497 
L 313 1497 
L 313 2009 
z
" id="DejaVuSans-2d" transform="scale(0.015625)"/>
        <path d="M 1228 531 
L 3431 531 
L 3431 0 
L 469 0 
L 469 531 
Q 828 903 1448 1529 
Q 2069 2156 2228 2338 
Q 2531 2678 2651 2914 
Q 2772 3150 2772 3378 
Q 2772 3750 2511 3984 
Q 2250 4219 1831 4219 
Q 1534 4219 1204 4116 
Q 875 4013 500 3803 
L 500 4441 
Q 881 4594 1212 4672 
Q 1544 4750 1819 4750 
Q 2544 4750 2975 4387 
Q 3406 4025 3406 3419 
Q 3406 3131 3298 2873 
Q 3191 2616 2906 2266 
Q 2828 2175 2409 1742 
Q 1991 1309 1228 531 
z
" id="DejaVuSans-32" transform="scale(0.015625)"/>
        <path d="M 3597 1894 
L 3597 1613 
L 953 1613 
Q 991 1019 1311 708 
Q 1631 397 2203 397 
Q 2534 397 2845 478 
Q 3156 559 3463 722 
L 3463 178 
Q 3153 47 2828 -22 
Q 2503 -91 2169 -91 
Q 1331 -91 842 396 
Q 353 884 353 1716 
Q 353 2575 817 3079 
Q 1281 3584 2069 3584 
Q 2775 3584 3186 3129 
Q 3597 2675 3597 1894 
z
M 3022 2063 
Q 3016 2534 2758 2815 
Q 2500 3097 2075 3097 
Q 1594 3097 1305 2825 
Q 1016 2553 972 2059 
L 3022 2063 
z
" id="DejaVuSans-65" transform="scale(0.015625)"/>
        <path d="M 2034 4250 
Q 1547 4250 1301 3770 
Q 1056 3291 1056 2328 
Q 1056 1369 1301 889 
Q 1547 409 2034 409 
Q 2525 409 2770 889 
Q 3016 1369 3016 2328 
Q 3016 3291 2770 3770 
Q 2525 4250 2034 4250 
z
M 2034 4750 
Q 2819 4750 3233 4129 
Q 3647 3509 3647 2328 
Q 3647 1150 3233 529 
Q 2819 -91 2034 -91 
Q 1250 -91 836 529 
Q 422 1150 422 2328 
Q 422 3509 836 4129 
Q 1250 4750 2034 4750 
z
" id="DejaVuSans-30" transform="scale(0.015625)"/>
        <path d="M 794 531 
L 1825 531 
L 1825 4091 
L 703 3866 
L 703 4441 
L 1819 4666 
L 2450 4666 
L 2450 531 
L 3481 531 
L 3481 0 
L 794 0 
L 794 531 
z
" id="DejaVuSans-31" transform="scale(0.015625)"/>
       </defs>
       <use xlink:href="#DejaVuSans-2d"/>
       <use x="36.083984" xlink:href="#DejaVuSans-32"/>
       <use x="99.707031" xlink:href="#DejaVuSans-65"/>
       <use x="161.230469" xlink:href="#DejaVuSans-2d"/>
       <use x="197.314453" xlink:href="#DejaVuSans-30"/>
       <use x="260.9375" xlink:href="#DejaVuSans-31"/>
      </g>
     </g>
    </g>
    <g id="ytick_2">
     <g id="line2d_20">
      <g>
       <use style="stroke:#000000;stroke-width:0.8;" x="60.48" xlink:href="#m0d39b060ab" y="229.313488"/>
      </g>
     </g>
     <g id="text_2">
      <!-- 0e+00 -->
      <g transform="translate(19.859687 233.112707)scale(0.1 -0.1)">
       <defs>
        <path d="M 2944 4013 
L 2944 2272 
L 4684 2272 
L 4684 1741 
L 2944 1741 
L 2944 0 
L 2419 0 
L 2419 1741 
L 678 1741 
L 678 2272 
L 2419 2272 
L 2419 4013 
L 2944 4013 
z
" id="DejaVuSans-2b" transform="scale(0.015625)"/>
       </defs>
       <use xlink:href="#DejaVuSans-30"/>
       <use x="63.623047" xlink:href="#DejaVuSans-65"/>
       <use x="125.146484" xlink:href="#DejaVuSans-2b"/>
       <use x="208.935547" xlink:href="#DejaVuSans-30"/>
       <use x="272.558594" xlink:href="#DejaVuSans-30"/>
      </g>
     </g>
    </g>
    <g id="ytick_3">
     <g id="line2d_21">
      <g>
       <use style="stroke:#000000;stroke-width:0.8;" x="60.48" xlink:href="#m0d39b060ab" y="200.736744"/>
      </g>
     </g>
     <g id="text_3">
      <!-- 2e-01 -->
      <g transform="translate(24.631562 204.535963)scale(0.1 -0.1)">
       <use xlink:href="#DejaVuSans-32"/>
       <use x="63.623047" xlink:href="#DejaVuSans-65"/>
       <use x="125.146484" xlink:href="#DejaVuSans-2d"/>
       <use x="161.230469" xlink:href="#DejaVuSans-30"/>
       <use x="224.853516" xlink:href="#DejaVuSans-31"/>
      </g>
     </g>
    </g>
    <g id="ytick_4">
     <g id="line2d_22">
      <g>
       <use style="stroke:#000000;stroke-width:0.8;" x="60.48" xlink:href="#m0d39b060ab" y="172.16"/>
      </g>
     </g>
     <g id="text_4">
      <!-- 4e-01 -->
      <g transform="translate(24.631562 175.959219)scale(0.1 -0.1)">
       <defs>
        <path d="M 2419 4116 
L 825 1625 
L 2419 1625 
L 2419 4116 
z
M 2253 4666 
L 3047 4666 
L 3047 1625 
L 3713 1625 
L 3713 1100 
L 3047 1100 
L 3047 0 
L 2419 0 
L 2419 1100 
L 313 1100 
L 313 1709 
L 2253 4666 
z
" id="DejaVuSans-34" transform="scale(0.015625)"/>
       </defs>
       <use xlink:href="#DejaVuSans-34"/>
       <use x="63.623047" xlink:href="#DejaVuSans-65"/>
       <use x="125.146484" xlink:href="#DejaVuSans-2d"/>
       <use x="161.230469" xlink:href="#DejaVuSans-30"/>
       <use x="224.853516" xlink:href="#DejaVuSans-31"/>
      </g>
     </g>
    </g>
    <g id="text_5">
     <!-- Shear force, $V(x)$ -->
     <g transform="translate(13.78 259.706512)rotate(-90)scale(0.1 -0.1)">
      <defs>
       <path d="M 3425 4513 
L 3425 3897 
Q 3066 4069 2747 4153 
Q 2428 4238 2131 4238 
Q 1616 4238 1336 4038 
Q 1056 3838 1056 3469 
Q 1056 3159 1242 3001 
Q 1428 2844 1947 2747 
L 2328 2669 
Q 3034 2534 3370 2195 
Q 3706 1856 3706 1288 
Q 3706 609 3251 259 
Q 2797 -91 1919 -91 
Q 1588 -91 1214 -16 
Q 841 59 441 206 
L 441 856 
Q 825 641 1194 531 
Q 1563 422 1919 422 
Q 2459 422 2753 634 
Q 3047 847 3047 1241 
Q 3047 1584 2836 1778 
Q 2625 1972 2144 2069 
L 1759 2144 
Q 1053 2284 737 2584 
Q 422 2884 422 3419 
Q 422 4038 858 4394 
Q 1294 4750 2059 4750 
Q 2388 4750 2728 4690 
Q 3069 4631 3425 4513 
z
" id="DejaVuSans-53" transform="scale(0.015625)"/>
       <path d="M 3513 2113 
L 3513 0 
L 2938 0 
L 2938 2094 
Q 2938 2591 2744 2837 
Q 2550 3084 2163 3084 
Q 1697 3084 1428 2787 
Q 1159 2491 1159 1978 
L 1159 0 
L 581 0 
L 581 4863 
L 1159 4863 
L 1159 2956 
Q 1366 3272 1645 3428 
Q 1925 3584 2291 3584 
Q 2894 3584 3203 3211 
Q 3513 2838 3513 2113 
z
" id="DejaVuSans-68" transform="scale(0.015625)"/>
       <path d="M 2194 1759 
Q 1497 1759 1228 1600 
Q 959 1441 959 1056 
Q 959 750 1161 570 
Q 1363 391 1709 391 
Q 2188 391 2477 730 
Q 2766 1069 2766 1631 
L 2766 1759 
L 2194 1759 
z
M 3341 1997 
L 3341 0 
L 2766 0 
L 2766 531 
Q 2569 213 2275 61 
Q 1981 -91 1556 -91 
Q 1019 -91 701 211 
Q 384 513 384 1019 
Q 384 1609 779 1909 
Q 1175 2209 1959 2209 
L 2766 2209 
L 2766 2266 
Q 2766 2663 2505 2880 
Q 2244 3097 1772 3097 
Q 1472 3097 1187 3025 
Q 903 2953 641 2809 
L 641 3341 
Q 956 3463 1253 3523 
Q 1550 3584 1831 3584 
Q 2591 3584 2966 3190 
Q 3341 2797 3341 1997 
z
" id="DejaVuSans-61" transform="scale(0.015625)"/>
       <path d="M 2631 2963 
Q 2534 3019 2420 3045 
Q 2306 3072 2169 3072 
Q 1681 3072 1420 2755 
Q 1159 2438 1159 1844 
L 1159 0 
L 581 0 
L 581 3500 
L 1159 3500 
L 1159 2956 
Q 1341 3275 1631 3429 
Q 1922 3584 2338 3584 
Q 2397 3584 2469 3576 
Q 2541 3569 2628 3553 
L 2631 2963 
z
" id="DejaVuSans-72" transform="scale(0.015625)"/>
       <path id="DejaVuSans-20" transform="scale(0.015625)"/>
       <path d="M 2375 4863 
L 2375 4384 
L 1825 4384 
Q 1516 4384 1395 4259 
Q 1275 4134 1275 3809 
L 1275 3500 
L 2222 3500 
L 2222 3053 
L 1275 3053 
L 1275 0 
L 697 0 
L 697 3053 
L 147 3053 
L 147 3500 
L 697 3500 
L 697 3744 
Q 697 4328 969 4595 
Q 1241 4863 1831 4863 
L 2375 4863 
z
" id="DejaVuSans-66" transform="scale(0.015625)"/>
       <path d="M 1959 3097 
Q 1497 3097 1228 2736 
Q 959 2375 959 1747 
Q 959 1119 1226 758 
Q 1494 397 1959 397 
Q 2419 397 2687 759 
Q 2956 1122 2956 1747 
Q 2956 2369 2687 2733 
Q 2419 3097 1959 3097 
z
M 1959 3584 
Q 2709 3584 3137 3096 
Q 3566 2609 3566 1747 
Q 3566 888 3137 398 
Q 2709 -91 1959 -91 
Q 1206 -91 779 398 
Q 353 888 353 1747 
Q 353 2609 779 3096 
Q 1206 3584 1959 3584 
z
" id="DejaVuSans-6f" transform="scale(0.015625)"/>
       <path d="M 3122 3366 
L 3122 2828 
Q 2878 2963 2633 3030 
Q 2388 3097 2138 3097 
Q 1578 3097 1268 2742 
Q 959 2388 959 1747 
Q 959 1106 1268 751 
Q 1578 397 2138 397 
Q 2388 397 2633 464 
Q 2878 531 3122 666 
L 3122 134 
Q 2881 22 2623 -34 
Q 2366 -91 2075 -91 
Q 1284 -91 818 406 
Q 353 903 353 1747 
Q 353 2603 823 3093 
Q 1294 3584 2113 3584 
Q 2378 3584 2631 3529 
Q 2884 3475 3122 3366 
z
" id="DejaVuSans-63" transform="scale(0.015625)"/>
       <path d="M 750 794 
L 1409 794 
L 1409 256 
L 897 -744 
L 494 -744 
L 750 256 
L 750 794 
z
" id="DejaVuSans-2c" transform="scale(0.015625)"/>
       <path d="M 1319 0 
L 500 4666 
L 1119 4666 
L 1797 653 
L 4063 4666 
L 4750 4666 
L 2053 0 
L 1319 0 
z
" id="DejaVuSans-Oblique-56" transform="scale(0.015625)"/>
       <path d="M 1984 4856 
Q 1566 4138 1362 3434 
Q 1159 2731 1159 2009 
Q 1159 1288 1364 580 
Q 1569 -128 1984 -844 
L 1484 -844 
Q 1016 -109 783 600 
Q 550 1309 550 2009 
Q 550 2706 781 3412 
Q 1013 4119 1484 4856 
L 1984 4856 
z
" id="DejaVuSans-28" transform="scale(0.015625)"/>
       <path d="M 3841 3500 
L 2234 1784 
L 3219 0 
L 2559 0 
L 1819 1388 
L 531 0 
L -166 0 
L 1556 1844 
L 641 3500 
L 1300 3500 
L 1972 2234 
L 3144 3500 
L 3841 3500 
z
" id="DejaVuSans-Oblique-78" transform="scale(0.015625)"/>
       <path d="M 513 4856 
L 1013 4856 
Q 1481 4119 1714 3412 
Q 1947 2706 1947 2009 
Q 1947 1309 1714 600 
Q 1481 -109 1013 -844 
L 513 -844 
Q 928 -128 1133 580 
Q 1338 1288 1338 2009 
Q 1338 2731 1133 3434 
Q 928 4138 513 4856 
z
" id="DejaVuSans-29" transform="scale(0.015625)"/>
      </defs>
      <use transform="translate(0 0.015625)" xlink:href="#DejaVuSans-53"/>
      <use transform="translate(63.476562 0.015625)" xlink:href="#DejaVuSans-68"/>
      <use transform="translate(126.855469 0.015625)" xlink:href="#DejaVuSans-65"/>
      <use transform="translate(188.378906 0.015625)" xlink:href="#DejaVuSans-61"/>
      <use transform="translate(249.658203 0.015625)" xlink:href="#DejaVuSans-72"/>
      <use transform="translate(290.771484 0.015625)" xlink:href="#DejaVuSans-20"/>
      <use transform="translate(322.558594 0.015625)" xlink:href="#DejaVuSans-66"/>
      <use transform="translate(357.763672 0.015625)" xlink:href="#DejaVuSans-6f"/>
      <use transform="translate(418.945312 0.015625)" xlink:href="#DejaVuSans-72"/>
      <use transform="translate(460.058594 0.015625)" xlink:href="#DejaVuSans-63"/>
      <use transform="translate(515.039062 0.015625)" xlink:href="#DejaVuSans-65"/>
      <use transform="translate(576.5625 0.015625)" xlink:href="#DejaVuSans-2c"/>
      <use transform="translate(608.349609 0.015625)" xlink:href="#DejaVuSans-20"/>
      <use transform="translate(640.136719 0.015625)" xlink:href="#DejaVuSans-Oblique-56"/>
      <use transform="translate(708.544922 0.015625)" xlink:href="#DejaVuSans-28"/>
      <use transform="translate(747.558594 0.015625)" xlink:href="#DejaVuSans-Oblique-78"/>
      <use transform="translate(806.738281 0.015625)" xlink:href="#DejaVuSans-29"/>
     </g>
    </g>
   </g>
   <g id="line2d_23">
    <path clip-path="url(#pcf3a379cee)" d="M 60.48 270.987907 
L 62.592727 270.984262 
L 64.705455 270.973328 
L 66.818182 270.955105 
L 68.930909 270.929593 
L 71.043636 270.896791 
L 73.156364 270.856701 
L 75.269091 270.809321 
L 77.381818 270.754651 
L 79.494545 270.692693 
L 81.607273 270.623445 
L 83.72 270.546908 
L 85.832727 270.463082 
L 87.945455 270.371966 
L 90.058182 270.273561 
L 92.170909 270.167867 
L 94.283636 270.054884 
L 96.396364 269.934612 
L 98.509091 269.80705 
L 100.621818 269.672199 
L 102.734545 269.530059 
L 104.847273 269.380629 
L 106.96 269.22391 
L 109.072727 269.059902 
L 111.185455 268.888605 
L 113.298182 268.710019 
L 115.410909 268.524143 
L 117.523636 268.330978 
L 119.636364 268.130524 
L 121.749091 267.922781 
L 123.861818 267.707748 
L 125.974545 267.485426 
L 128.087273 267.255815 
L 130.2 267.018915 
L 132.312727 266.774725 
L 134.425455 266.523246 
L 136.538182 266.264478 
L 138.650909 265.998421 
L 140.763636 265.725074 
L 142.876364 265.444438 
L 144.989091 265.156513 
L 147.101818 264.861299 
L 149.214545 264.558796 
L 151.327273 264.249003 
L 153.44 263.931921 
L 155.552727 263.607549 
L 157.665455 263.275889 
L 159.778182 262.936939 
L 161.890909 262.5907 
L 164.003636 262.237172 
L 166.116364 261.876355 
L 168.229091 261.508248 
L 170.341818 261.132852 
L 172.454545 260.750167 
L 174.567273 260.360192 
L 176.68 259.962929 
L 178.792727 259.558376 
L 180.905455 259.146533 
L 183.018182 258.727402 
L 185.130909 258.300981 
L 187.243636 257.867271 
L 189.356364 257.426272 
L 191.469091 256.977984 
L 193.581818 256.522406 
L 195.694545 256.059539 
L 197.807273 255.589383 
L 199.92 255.111938 
L 202.032727 254.627203 
L 204.145455 254.13518 
L 206.258182 253.635866 
L 208.370909 253.129264 
L 210.483636 252.615373 
L 212.596364 252.094192 
L 214.709091 251.565722 
L 216.821818 251.029962 
L 218.934545 250.486914 
L 221.047273 249.936576 
L 223.16 249.378949 
L 225.272727 248.814033 
L 227.385455 248.241827 
L 229.498182 247.662333 
L 231.610909 247.075549 
L 233.723636 246.481476 
L 235.836364 245.880113 
L 237.949091 245.271461 
L 240.061818 244.65552 
L 242.174545 244.03229 
L 244.287273 243.401771 
L 246.4 242.763962 
L 248.512727 242.118864 
L 250.625455 241.466477 
L 252.738182 240.806801 
L 254.850909 240.139835 
L 256.963636 239.46558 
L 259.076364 238.784036 
L 261.189091 238.095203 
L 263.301818 237.39908 
L 265.414545 236.695668 
L 267.527273 235.984967 
L 269.64 235.266977 
" style="fill:none;stroke:#228b22;stroke-linecap:square;stroke-width:2;"/>
   </g>
   <g id="line2d_24">
    <path clip-path="url(#pcf3a379cee)" d="M 269.64 235.266977 
L 271.752727 234.545342 
L 273.865455 233.823707 
L 275.978182 233.102072 
L 278.090909 232.380437 
L 280.203636 231.658802 
L 282.316364 230.937167 
L 284.429091 230.215532 
L 286.541818 229.493897 
L 288.654545 228.772262 
L 290.767273 228.050627 
L 292.88 227.328992 
L 294.992727 226.607357 
L 297.105455 225.885722 
L 299.218182 225.164087 
L 301.330909 224.442452 
L 303.443636 223.720817 
L 305.556364 222.999183 
L 307.669091 222.277548 
L 309.781818 221.555913 
L 311.894545 220.834278 
L 314.007273 220.112643 
L 316.12 219.391008 
L 318.232727 218.669373 
L 320.345455 217.947738 
L 322.458182 217.226103 
L 324.570909 216.504468 
L 326.683636 215.782833 
L 328.796364 215.061198 
L 330.909091 214.339563 
L 333.021818 213.617928 
L 335.134545 212.896293 
L 337.247273 212.174658 
L 339.36 211.453023 
L 341.472727 210.731388 
L 343.585455 210.009753 
L 345.698182 209.288118 
L 347.810909 208.566483 
L 349.923636 207.844848 
L 352.036364 207.123214 
L 354.149091 206.401579 
L 356.261818 205.679944 
L 358.374545 204.958309 
L 360.487273 204.236674 
L 362.6 203.515039 
L 364.712727 202.793404 
L 366.825455 202.071769 
L 368.938182 201.350134 
L 371.050909 200.628499 
L 373.163636 199.906864 
L 375.276364 199.185229 
L 377.389091 198.463594 
L 379.501818 197.741959 
L 381.614545 197.020324 
L 383.727273 196.298689 
L 385.84 195.577054 
L 387.952727 194.855419 
L 390.065455 194.133784 
L 392.178182 193.412149 
L 394.290909 192.690514 
L 396.403636 191.968879 
L 398.516364 191.247245 
L 400.629091 190.52561 
L 402.741818 189.803975 
L 404.854545 189.08234 
L 406.967273 188.360705 
L 409.08 187.63907 
L 411.192727 186.917435 
L 413.305455 186.1958 
L 415.418182 185.474165 
L 417.530909 184.75253 
L 419.643636 184.030895 
L 421.756364 183.30926 
L 423.869091 182.587625 
L 425.981818 181.86599 
L 428.094545 181.144355 
L 430.207273 180.42272 
L 432.32 179.701085 
L 434.432727 178.97945 
L 436.545455 178.257815 
L 438.658182 177.53618 
L 440.770909 176.814545 
L 442.883636 176.092911 
L 444.996364 175.371276 
L 447.109091 174.649641 
L 449.221818 173.928006 
L 451.334545 173.206371 
L 453.447273 172.484736 
L 455.56 171.763101 
L 457.672727 171.041466 
L 459.785455 170.319831 
L 461.898182 169.598196 
L 464.010909 168.876561 
L 466.123636 168.154926 
L 468.236364 167.433291 
L 470.349091 166.711656 
L 472.461818 165.990021 
L 474.574545 165.268386 
L 476.687273 164.546751 
L 478.8 163.825116 
" style="fill:none;stroke:#228b22;stroke-linecap:square;stroke-width:2;"/>
   </g>
   <g id="patch_3">
    <path d="M 60.48 276.346047 
L 60.48 158.466977 
" style="fill:none;stroke:#000000;stroke-linecap:square;stroke-linejoin:miter;stroke-width:0.8;"/>
   </g>
   <g id="patch_4">
    <path d="M 478.8 276.346047 
L 478.8 158.466977 
" style="fill:none;stroke:#000000;stroke-linecap:square;stroke-linejoin:miter;stroke-width:0.8;"/>
   </g>
   <g id="patch_5">
    <path d="M 60.48 276.346047 
L 478.8 276.346047 
" style="fill:none;stroke:#000000;stroke-linecap:square;stroke-linejoin:miter;stroke-width:0.8;"/>
   </g>
   <g id="patch_6">
    <path d="M 60.48 158.466977 
L 478.8 158.466977 
" style="fill:none;stroke:#000000;stroke-linecap:square;stroke-linejoin:miter;stroke-width:0.8;"/>
   </g>
  </g>
  <g id="axes_3">
   <g id="patch_7">
    <path d="M 60.48 406.013023 
L 478.8 406.013023 
L 478.8 288.133953 
L 60.48 288.133953 
z
" style="fill:#ffffff;"/>
   </g>
   <g id="PolyCollection_5">
    <defs>
     <path d="M 60.48 -175.345116 
L 60.48 -175.345116 
L 62.592727 -176.847993 
L 64.705455 -178.350607 
L 66.818182 -179.852695 
L 68.930909 -181.353995 
L 71.043636 -182.854243 
L 73.156364 -184.353176 
L 75.269091 -185.850533 
L 77.381818 -187.346049 
L 79.494545 -188.839462 
L 81.607273 -190.330509 
L 83.72 -191.818928 
L 85.832727 -193.304455 
L 87.945455 -194.786828 
L 90.058182 -196.265783 
L 92.170909 -197.741058 
L 94.283636 -199.21239 
L 96.396364 -200.679515 
L 98.509091 -202.142172 
L 100.621818 -203.600097 
L 102.734545 -205.053028 
L 104.847273 -206.500701 
L 106.96 -207.942854 
L 109.072727 -209.379223 
L 111.185455 -210.809546 
L 113.298182 -212.233561 
L 115.410909 -213.651003 
L 117.523636 -215.061611 
L 119.636364 -216.465121 
L 121.749091 -217.861271 
L 123.861818 -219.249797 
L 125.974545 -220.630437 
L 128.087273 -222.002928 
L 130.2 -223.367007 
L 132.312727 -224.722411 
L 134.425455 -226.068877 
L 136.538182 -227.406143 
L 138.650909 -228.733945 
L 140.763636 -230.052021 
L 142.876364 -231.360107 
L 144.989091 -232.657942 
L 147.101818 -233.945261 
L 149.214545 -235.221803 
L 151.327273 -236.487304 
L 153.44 -237.741501 
L 155.552727 -238.984132 
L 157.665455 -240.214933 
L 159.778182 -241.433642 
L 161.890909 -242.639996 
L 164.003636 -243.833732 
L 166.116364 -245.014588 
L 168.229091 -246.182299 
L 170.341818 -247.336604 
L 172.454545 -248.477239 
L 174.567273 -249.603942 
L 176.68 -250.71645 
L 178.792727 -251.8145 
L 180.905455 -252.897829 
L 183.018182 -253.966173 
L 185.130909 -255.019271 
L 187.243636 -256.05686 
L 189.356364 -257.078676 
L 191.469091 -258.084457 
L 193.581818 -259.073939 
L 195.694545 -260.04686 
L 197.807273 -261.002958 
L 199.92 -261.941968 
L 202.032727 -262.863629 
L 204.145455 -263.767677 
L 206.258182 -264.653849 
L 208.370909 -265.521884 
L 210.483636 -266.371517 
L 212.596364 -267.202486 
L 214.709091 -268.014528 
L 216.821818 -268.80738 
L 218.934545 -269.580779 
L 221.047273 -270.334463 
L 223.16 -271.068168 
L 225.272727 -271.781632 
L 227.385455 -272.474592 
L 229.498182 -273.146784 
L 231.610909 -273.797947 
L 233.723636 -274.427817 
L 235.836364 -275.036131 
L 237.949091 -275.622626 
L 240.061818 -276.18704 
L 242.174545 -276.72911 
L 244.287273 -277.248572 
L 246.4 -277.745164 
L 248.512727 -278.218624 
L 250.625455 -278.668687 
L 252.738182 -279.095092 
L 254.850909 -279.497575 
L 256.963636 -279.875874 
L 259.076364 -280.229725 
L 261.189091 -280.558866 
L 263.301818 -280.863034 
L 265.414545 -281.141966 
L 267.527273 -281.395399 
L 269.64 -281.623071 
L 269.64 -175.345116 
L 269.64 -175.345116 
L 267.527273 -175.345116 
L 265.414545 -175.345116 
L 263.301818 -175.345116 
L 261.189091 -175.345116 
L 259.076364 -175.345116 
L 256.963636 -175.345116 
L 254.850909 -175.345116 
L 252.738182 -175.345116 
L 250.625455 -175.345116 
L 248.512727 -175.345116 
L 246.4 -175.345116 
L 244.287273 -175.345116 
L 242.174545 -175.345116 
L 240.061818 -175.345116 
L 237.949091 -175.345116 
L 235.836364 -175.345116 
L 233.723636 -175.345116 
L 231.610909 -175.345116 
L 229.498182 -175.345116 
L 227.385455 -175.345116 
L 225.272727 -175.345116 
L 223.16 -175.345116 
L 221.047273 -175.345116 
L 218.934545 -175.345116 
L 216.821818 -175.345116 
L 214.709091 -175.345116 
L 212.596364 -175.345116 
L 210.483636 -175.345116 
L 208.370909 -175.345116 
L 206.258182 -175.345116 
L 204.145455 -175.345116 
L 202.032727 -175.345116 
L 199.92 -175.345116 
L 197.807273 -175.345116 
L 195.694545 -175.345116 
L 193.581818 -175.345116 
L 191.469091 -175.345116 
L 189.356364 -175.345116 
L 187.243636 -175.345116 
L 185.130909 -175.345116 
L 183.018182 -175.345116 
L 180.905455 -175.345116 
L 178.792727 -175.345116 
L 176.68 -175.345116 
L 174.567273 -175.345116 
L 172.454545 -175.345116 
L 170.341818 -175.345116 
L 168.229091 -175.345116 
L 166.116364 -175.345116 
L 164.003636 -175.345116 
L 161.890909 -175.345116 
L 159.778182 -175.345116 
L 157.665455 -175.345116 
L 155.552727 -175.345116 
L 153.44 -175.345116 
L 151.327273 -175.345116 
L 149.214545 -175.345116 
L 147.101818 -175.345116 
L 144.989091 -175.345116 
L 142.876364 -175.345116 
L 140.763636 -175.345116 
L 138.650909 -175.345116 
L 136.538182 -175.345116 
L 134.425455 -175.345116 
L 132.312727 -175.345116 
L 130.2 -175.345116 
L 128.087273 -175.345116 
L 125.974545 -175.345116 
L 123.861818 -175.345116 
L 121.749091 -175.345116 
L 119.636364 -175.345116 
L 117.523636 -175.345116 
L 115.410909 -175.345116 
L 113.298182 -175.345116 
L 111.185455 -175.345116 
L 109.072727 -175.345116 
L 106.96 -175.345116 
L 104.847273 -175.345116 
L 102.734545 -175.345116 
L 100.621818 -175.345116 
L 98.509091 -175.345116 
L 96.396364 -175.345116 
L 94.283636 -175.345116 
L 92.170909 -175.345116 
L 90.058182 -175.345116 
L 87.945455 -175.345116 
L 85.832727 -175.345116 
L 83.72 -175.345116 
L 81.607273 -175.345116 
L 79.494545 -175.345116 
L 77.381818 -175.345116 
L 75.269091 -175.345116 
L 73.156364 -175.345116 
L 71.043636 -175.345116 
L 68.930909 -175.345116 
L 66.818182 -175.345116 
L 64.705455 -175.345116 
L 62.592727 -175.345116 
L 60.48 -175.345116 
z
" id="m5207977b00" style="stroke:#b22222;stroke-opacity:0.35;"/>
    </defs>
    <g clip-path="url(#pbf6442532a)">
     <use style="fill:#b22222;fill-opacity:0.35;stroke:#b22222;stroke-opacity:0.35;" x="0" xlink:href="#m5207977b00" y="576"/>
    </g>
   </g>
   <g id="PolyCollection_6">
    <defs>
     <path d="M 269.64 -175.345116 
L 269.64 -281.623071 
L 271.752727 -281.824761 
L 273.865455 -282.000427 
L 275.978182 -282.150069 
L 278.090909 -282.273686 
L 280.203636 -282.371278 
L 282.316364 -282.442845 
L 284.429091 -282.488389 
L 286.541818 -282.507907 
L 288.654545 -282.501401 
L 290.767273 -282.46887 
L 292.88 -282.410315 
L 294.992727 -282.325735 
L 297.105455 -282.21513 
L 299.218182 -282.078501 
L 301.330909 -281.915847 
L 303.443636 -281.727169 
L 305.556364 -281.512466 
L 307.669091 -281.271739 
L 309.781818 -281.004986 
L 311.894545 -280.71221 
L 314.007273 -280.393408 
L 316.12 -280.048582 
L 318.232727 -279.677732 
L 320.345455 -279.280857 
L 322.458182 -278.857957 
L 324.570909 -278.409033 
L 326.683636 -277.934084 
L 328.796364 -277.43311 
L 330.909091 -276.906112 
L 333.021818 -276.353089 
L 335.134545 -275.774042 
L 337.247273 -275.16897 
L 339.36 -274.537874 
L 341.472727 -273.880753 
L 343.585455 -273.197607 
L 345.698182 -272.488437 
L 347.810909 -271.753242 
L 349.923636 -270.992022 
L 352.036364 -270.204778 
L 354.149091 -269.391509 
L 356.261818 -268.552216 
L 358.374545 -267.686898 
L 360.487273 -266.795556 
L 362.6 -265.878189 
L 364.712727 -264.934797 
L 366.825455 -263.965381 
L 368.938182 -262.96994 
L 371.050909 -261.948474 
L 373.163636 -260.900984 
L 375.276364 -259.827469 
L 377.389091 -258.72793 
L 379.501818 -257.602366 
L 381.614545 -256.450778 
L 383.727273 -255.273165 
L 385.84 -254.069527 
L 387.952727 -252.839865 
L 390.065455 -251.584178 
L 392.178182 -250.302466 
L 394.290909 -248.99473 
L 396.403636 -247.66097 
L 398.516364 -246.301184 
L 400.629091 -244.915374 
L 402.741818 -243.50354 
L 404.854545 -242.065681 
L 406.967273 -240.601797 
L 409.08 -239.111889 
L 411.192727 -237.595956 
L 413.305455 -236.053999 
L 415.418182 -234.486016 
L 417.530909 -232.89201 
L 419.643636 -231.271979 
L 421.756364 -229.625923 
L 423.869091 -227.953842 
L 425.981818 -226.255737 
L 428.094545 -224.531608 
L 430.207273 -222.781453 
L 432.32 -221.005274 
L 434.432727 -219.203071 
L 436.545455 -217.374843 
L 438.658182 -215.52059 
L 440.770909 -213.640313 
L 442.883636 -211.734011 
L 444.996364 -209.801685 
L 447.109091 -207.843334 
L 449.221818 -205.858958 
L 451.334545 -203.848558 
L 453.447273 -201.812133 
L 455.56 -199.749684 
L 457.672727 -197.66121 
L 459.785455 -195.546711 
L 461.898182 -193.406188 
L 464.010909 -191.23964 
L 466.123636 -189.047067 
L 468.236364 -186.82847 
L 470.349091 -184.583849 
L 472.461818 -182.313203 
L 474.574545 -180.016532 
L 476.687273 -177.693836 
L 478.8 -175.345116 
L 478.8 -175.345116 
L 478.8 -175.345116 
L 476.687273 -175.345116 
L 474.574545 -175.345116 
L 472.461818 -175.345116 
L 470.349091 -175.345116 
L 468.236364 -175.345116 
L 466.123636 -175.345116 
L 464.010909 -175.345116 
L 461.898182 -175.345116 
L 459.785455 -175.345116 
L 457.672727 -175.345116 
L 455.56 -175.345116 
L 453.447273 -175.345116 
L 451.334545 -175.345116 
L 449.221818 -175.345116 
L 447.109091 -175.345116 
L 444.996364 -175.345116 
L 442.883636 -175.345116 
L 440.770909 -175.345116 
L 438.658182 -175.345116 
L 436.545455 -175.345116 
L 434.432727 -175.345116 
L 432.32 -175.345116 
L 430.207273 -175.345116 
L 428.094545 -175.345116 
L 425.981818 -175.345116 
L 423.869091 -175.345116 
L 421.756364 -175.345116 
L 419.643636 -175.345116 
L 417.530909 -175.345116 
L 415.418182 -175.345116 
L 413.305455 -175.345116 
L 411.192727 -175.345116 
L 409.08 -175.345116 
L 406.967273 -175.345116 
L 404.854545 -175.345116 
L 402.741818 -175.345116 
L 400.629091 -175.345116 
L 398.516364 -175.345116 
L 396.403636 -175.345116 
L 394.290909 -175.345116 
L 392.178182 -175.345116 
L 390.065455 -175.345116 
L 387.952727 -175.345116 
L 385.84 -175.345116 
L 383.727273 -175.345116 
L 381.614545 -175.345116 
L 379.501818 -175.345116 
L 377.389091 -175.345116 
L 375.276364 -175.345116 
L 373.163636 -175.345116 
L 371.050909 -175.345116 
L 368.938182 -175.345116 
L 366.825455 -175.345116 
L 364.712727 -175.345116 
L 362.6 -175.345116 
L 360.487273 -175.345116 
L 358.374545 -175.345116 
L 356.261818 -175.345116 
L 354.149091 -175.345116 
L 352.036364 -175.345116 
L 349.923636 -175.345116 
L 347.810909 -175.345116 
L 345.698182 -175.345116 
L 343.585455 -175.345116 
L 341.472727 -175.345116 
L 339.36 -175.345116 
L 337.247273 -175.345116 
L 335.134545 -175.345116 
L 333.021818 -175.345116 
L 330.909091 -175.345116 
L 328.796364 -175.345116 
L 326.683636 -175.345116 
L 324.570909 -175.345116 
L 322.458182 -175.345116 
L 320.345455 -175.345116 
L 318.232727 -175.345116 
L 316.12 -175.345116 
L 314.007273 -175.345116 
L 311.894545 -175.345116 
L 309.781818 -175.345116 
L 307.669091 -175.345116 
L 305.556364 -175.345116 
L 303.443636 -175.345116 
L 301.330909 -175.345116 
L 299.218182 -175.345116 
L 297.105455 -175.345116 
L 294.992727 -175.345116 
L 292.88 -175.345116 
L 290.767273 -175.345116 
L 288.654545 -175.345116 
L 286.541818 -175.345116 
L 284.429091 -175.345116 
L 282.316364 -175.345116 
L 280.203636 -175.345116 
L 278.090909 -175.345116 
L 275.978182 -175.345116 
L 273.865455 -175.345116 
L 271.752727 -175.345116 
L 269.64 -175.345116 
z
" id="me79ef4743d" style="stroke:#b22222;stroke-opacity:0.35;"/>
    </defs>
    <g clip-path="url(#pbf6442532a)">
     <use style="fill:#b22222;fill-opacity:0.35;stroke:#b22222;stroke-opacity:0.35;" x="0" xlink:href="#me79ef4743d" y="576"/>
    </g>
   </g>
   <g id="matplotlib.axis_3">
    <g id="xtick_7">
     <g id="line2d_25">
      <g>
       <use style="stroke:#000000;stroke-width:0.8;" x="60.48" xlink:href="#m03ee45ac75" y="406.013023"/>
      </g>
     </g>
    </g>
    <g id="xtick_8">
     <g id="line2d_26">
      <g>
       <use style="stroke:#000000;stroke-width:0.8;" x="144.144" xlink:href="#m03ee45ac75" y="406.013023"/>
      </g>
     </g>
    </g>
    <g id="xtick_9">
     <g id="line2d_27">
      <g>
       <use style="stroke:#000000;stroke-width:0.8;" x="227.808" xlink:href="#m03ee45ac75" y="406.013023"/>
      </g>
     </g>
    </g>
    <g id="xtick_10">
     <g id="line2d_28">
      <g>
       <use style="stroke:#000000;stroke-width:0.8;" x="311.472" xlink:href="#m03ee45ac75" y="406.013023"/>
      </g>
     </g>
    </g>
    <g id="xtick_11">
     <g id="line2d_29">
      <g>
       <use style="stroke:#000000;stroke-width:0.8;" x="395.136" xlink:href="#m03ee45ac75" y="406.013023"/>
      </g>
     </g>
    </g>
    <g id="xtick_12">
     <g id="line2d_30">
      <g>
       <use style="stroke:#000000;stroke-width:0.8;" x="478.8" xlink:href="#m03ee45ac75" y="406.013023"/>
      </g>
     </g>
    </g>
   </g>
   <g id="matplotlib.axis_4">
    <g id="ytick_5">
     <g id="line2d_31">
      <g>
       <use style="stroke:#000000;stroke-width:0.8;" x="60.48" xlink:href="#m0d39b060ab" y="400.654884"/>
      </g>
     </g>
     <g id="text_6">
      <!-- 0e+00 -->
      <g transform="translate(19.859687 404.454102)scale(0.1 -0.1)">
       <use xlink:href="#DejaVuSans-30"/>
       <use x="63.623047" xlink:href="#DejaVuSans-65"/>
       <use x="125.146484" xlink:href="#DejaVuSans-2b"/>
       <use x="208.935547" xlink:href="#DejaVuSans-30"/>
       <use x="272.558594" xlink:href="#DejaVuSans-30"/>
      </g>
     </g>
    </g>
    <g id="ytick_6">
     <g id="line2d_32">
      <g>
       <use style="stroke:#000000;stroke-width:0.8;" x="60.48" xlink:href="#m0d39b060ab" y="375.148175"/>
      </g>
     </g>
     <g id="text_7">
      <!-- 3e-02 -->
      <g transform="translate(24.631562 378.947393)scale(0.1 -0.1)">
       <defs>
        <path d="M 2597 2516 
Q 3050 2419 3304 2112 
Q 3559 1806 3559 1356 
Q 3559 666 3084 287 
Q 2609 -91 1734 -91 
Q 1441 -91 1130 -33 
Q 819 25 488 141 
L 488 750 
Q 750 597 1062 519 
Q 1375 441 1716 441 
Q 2309 441 2620 675 
Q 2931 909 2931 1356 
Q 2931 1769 2642 2001 
Q 2353 2234 1838 2234 
L 1294 2234 
L 1294 2753 
L 1863 2753 
Q 2328 2753 2575 2939 
Q 2822 3125 2822 3475 
Q 2822 3834 2567 4026 
Q 2313 4219 1838 4219 
Q 1578 4219 1281 4162 
Q 984 4106 628 3988 
L 628 4550 
Q 988 4650 1302 4700 
Q 1616 4750 1894 4750 
Q 2613 4750 3031 4423 
Q 3450 4097 3450 3541 
Q 3450 3153 3228 2886 
Q 3006 2619 2597 2516 
z
" id="DejaVuSans-33" transform="scale(0.015625)"/>
       </defs>
       <use xlink:href="#DejaVuSans-33"/>
       <use x="63.623047" xlink:href="#DejaVuSans-65"/>
       <use x="125.146484" xlink:href="#DejaVuSans-2d"/>
       <use x="161.230469" xlink:href="#DejaVuSans-30"/>
       <use x="224.853516" xlink:href="#DejaVuSans-32"/>
      </g>
     </g>
    </g>
    <g id="ytick_7">
     <g id="line2d_33">
      <g>
       <use style="stroke:#000000;stroke-width:0.8;" x="60.48" xlink:href="#m0d39b060ab" y="349.641466"/>
      </g>
     </g>
     <g id="text_8">
      <!-- 5e-02 -->
      <g transform="translate(24.631562 353.440684)scale(0.1 -0.1)">
       <defs>
        <path d="M 691 4666 
L 3169 4666 
L 3169 4134 
L 1269 4134 
L 1269 2991 
Q 1406 3038 1543 3061 
Q 1681 3084 1819 3084 
Q 2600 3084 3056 2656 
Q 3513 2228 3513 1497 
Q 3513 744 3044 326 
Q 2575 -91 1722 -91 
Q 1428 -91 1123 -41 
Q 819 9 494 109 
L 494 744 
Q 775 591 1075 516 
Q 1375 441 1709 441 
Q 2250 441 2565 725 
Q 2881 1009 2881 1497 
Q 2881 1984 2565 2268 
Q 2250 2553 1709 2553 
Q 1456 2553 1204 2497 
Q 953 2441 691 2322 
L 691 4666 
z
" id="DejaVuSans-35" transform="scale(0.015625)"/>
       </defs>
       <use xlink:href="#DejaVuSans-35"/>
       <use x="63.623047" xlink:href="#DejaVuSans-65"/>
       <use x="125.146484" xlink:href="#DejaVuSans-2d"/>
       <use x="161.230469" xlink:href="#DejaVuSans-30"/>
       <use x="224.853516" xlink:href="#DejaVuSans-32"/>
      </g>
     </g>
    </g>
    <g id="ytick_8">
     <g id="line2d_34">
      <g>
       <use style="stroke:#000000;stroke-width:0.8;" x="60.48" xlink:href="#m0d39b060ab" y="324.134757"/>
      </g>
     </g>
     <g id="text_9">
      <!-- 8e-02 -->
      <g transform="translate(24.631562 327.933975)scale(0.1 -0.1)">
       <defs>
        <path d="M 2034 2216 
Q 1584 2216 1326 1975 
Q 1069 1734 1069 1313 
Q 1069 891 1326 650 
Q 1584 409 2034 409 
Q 2484 409 2743 651 
Q 3003 894 3003 1313 
Q 3003 1734 2745 1975 
Q 2488 2216 2034 2216 
z
M 1403 2484 
Q 997 2584 770 2862 
Q 544 3141 544 3541 
Q 544 4100 942 4425 
Q 1341 4750 2034 4750 
Q 2731 4750 3128 4425 
Q 3525 4100 3525 3541 
Q 3525 3141 3298 2862 
Q 3072 2584 2669 2484 
Q 3125 2378 3379 2068 
Q 3634 1759 3634 1313 
Q 3634 634 3220 271 
Q 2806 -91 2034 -91 
Q 1263 -91 848 271 
Q 434 634 434 1313 
Q 434 1759 690 2068 
Q 947 2378 1403 2484 
z
M 1172 3481 
Q 1172 3119 1398 2916 
Q 1625 2713 2034 2713 
Q 2441 2713 2670 2916 
Q 2900 3119 2900 3481 
Q 2900 3844 2670 4047 
Q 2441 4250 2034 4250 
Q 1625 4250 1398 4047 
Q 1172 3844 1172 3481 
z
" id="DejaVuSans-38" transform="scale(0.015625)"/>
       </defs>
       <use xlink:href="#DejaVuSans-38"/>
       <use x="63.623047" xlink:href="#DejaVuSans-65"/>
       <use x="125.146484" xlink:href="#DejaVuSans-2d"/>
       <use x="161.230469" xlink:href="#DejaVuSans-30"/>
       <use x="224.853516" xlink:href="#DejaVuSans-32"/>
      </g>
     </g>
    </g>
    <g id="ytick_9">
     <g id="line2d_35">
      <g>
       <use style="stroke:#000000;stroke-width:0.8;" x="60.48" xlink:href="#m0d39b060ab" y="298.628048"/>
      </g>
     </g>
     <g id="text_10">
      <!-- 1e-01 -->
      <g transform="translate(24.631562 302.427266)scale(0.1 -0.1)">
       <use xlink:href="#DejaVuSans-31"/>
       <use x="63.623047" xlink:href="#DejaVuSans-65"/>
       <use x="125.146484" xlink:href="#DejaVuSans-2d"/>
       <use x="161.230469" xlink:href="#DejaVuSans-30"/>
       <use x="224.853516" xlink:href="#DejaVuSans-31"/>
      </g>
     </g>
    </g>
    <g id="text_11">
     <!-- Bending moment, $M(x)$ -->
     <g transform="translate(13.759687 404.623488)rotate(-90)scale(0.1 -0.1)">
      <defs>
       <path d="M 1259 2228 
L 1259 519 
L 2272 519 
Q 2781 519 3026 730 
Q 3272 941 3272 1375 
Q 3272 1813 3026 2020 
Q 2781 2228 2272 2228 
L 1259 2228 
z
M 1259 4147 
L 1259 2741 
L 2194 2741 
Q 2656 2741 2882 2914 
Q 3109 3088 3109 3444 
Q 3109 3797 2882 3972 
Q 2656 4147 2194 4147 
L 1259 4147 
z
M 628 4666 
L 2241 4666 
Q 2963 4666 3353 4366 
Q 3744 4066 3744 3513 
Q 3744 3084 3544 2831 
Q 3344 2578 2956 2516 
Q 3422 2416 3680 2098 
Q 3938 1781 3938 1306 
Q 3938 681 3513 340 
Q 3088 0 2303 0 
L 628 0 
L 628 4666 
z
" id="DejaVuSans-42" transform="scale(0.015625)"/>
       <path d="M 3513 2113 
L 3513 0 
L 2938 0 
L 2938 2094 
Q 2938 2591 2744 2837 
Q 2550 3084 2163 3084 
Q 1697 3084 1428 2787 
Q 1159 2491 1159 1978 
L 1159 0 
L 581 0 
L 581 3500 
L 1159 3500 
L 1159 2956 
Q 1366 3272 1645 3428 
Q 1925 3584 2291 3584 
Q 2894 3584 3203 3211 
Q 3513 2838 3513 2113 
z
" id="DejaVuSans-6e" transform="scale(0.015625)"/>
       <path d="M 2906 2969 
L 2906 4863 
L 3481 4863 
L 3481 0 
L 2906 0 
L 2906 525 
Q 2725 213 2448 61 
Q 2172 -91 1784 -91 
Q 1150 -91 751 415 
Q 353 922 353 1747 
Q 353 2572 751 3078 
Q 1150 3584 1784 3584 
Q 2172 3584 2448 3432 
Q 2725 3281 2906 2969 
z
M 947 1747 
Q 947 1113 1208 752 
Q 1469 391 1925 391 
Q 2381 391 2643 752 
Q 2906 1113 2906 1747 
Q 2906 2381 2643 2742 
Q 2381 3103 1925 3103 
Q 1469 3103 1208 2742 
Q 947 2381 947 1747 
z
" id="DejaVuSans-64" transform="scale(0.015625)"/>
       <path d="M 603 3500 
L 1178 3500 
L 1178 0 
L 603 0 
L 603 3500 
z
M 603 4863 
L 1178 4863 
L 1178 4134 
L 603 4134 
L 603 4863 
z
" id="DejaVuSans-69" transform="scale(0.015625)"/>
       <path d="M 2906 1791 
Q 2906 2416 2648 2759 
Q 2391 3103 1925 3103 
Q 1463 3103 1205 2759 
Q 947 2416 947 1791 
Q 947 1169 1205 825 
Q 1463 481 1925 481 
Q 2391 481 2648 825 
Q 2906 1169 2906 1791 
z
M 3481 434 
Q 3481 -459 3084 -895 
Q 2688 -1331 1869 -1331 
Q 1566 -1331 1297 -1286 
Q 1028 -1241 775 -1147 
L 775 -588 
Q 1028 -725 1275 -790 
Q 1522 -856 1778 -856 
Q 2344 -856 2625 -561 
Q 2906 -266 2906 331 
L 2906 616 
Q 2728 306 2450 153 
Q 2172 0 1784 0 
Q 1141 0 747 490 
Q 353 981 353 1791 
Q 353 2603 747 3093 
Q 1141 3584 1784 3584 
Q 2172 3584 2450 3431 
Q 2728 3278 2906 2969 
L 2906 3500 
L 3481 3500 
L 3481 434 
z
" id="DejaVuSans-67" transform="scale(0.015625)"/>
       <path d="M 3328 2828 
Q 3544 3216 3844 3400 
Q 4144 3584 4550 3584 
Q 5097 3584 5394 3201 
Q 5691 2819 5691 2113 
L 5691 0 
L 5113 0 
L 5113 2094 
Q 5113 2597 4934 2840 
Q 4756 3084 4391 3084 
Q 3944 3084 3684 2787 
Q 3425 2491 3425 1978 
L 3425 0 
L 2847 0 
L 2847 2094 
Q 2847 2600 2669 2842 
Q 2491 3084 2119 3084 
Q 1678 3084 1418 2786 
Q 1159 2488 1159 1978 
L 1159 0 
L 581 0 
L 581 3500 
L 1159 3500 
L 1159 2956 
Q 1356 3278 1631 3431 
Q 1906 3584 2284 3584 
Q 2666 3584 2933 3390 
Q 3200 3197 3328 2828 
z
" id="DejaVuSans-6d" transform="scale(0.015625)"/>
       <path d="M 1172 4494 
L 1172 3500 
L 2356 3500 
L 2356 3053 
L 1172 3053 
L 1172 1153 
Q 1172 725 1289 603 
Q 1406 481 1766 481 
L 2356 481 
L 2356 0 
L 1766 0 
Q 1100 0 847 248 
Q 594 497 594 1153 
L 594 3053 
L 172 3053 
L 172 3500 
L 594 3500 
L 594 4494 
L 1172 4494 
z
" id="DejaVuSans-74" transform="scale(0.015625)"/>
       <path d="M 1081 4666 
L 2028 4666 
L 2572 1522 
L 4378 4666 
L 5350 4666 
L 4441 0 
L 3828 0 
L 4622 4091 
L 2791 897 
L 2175 897 
L 1581 4103 
L 788 0 
L 172 0 
L 1081 4666 
z
" id="DejaVuSans-Oblique-4d" transform="scale(0.015625)"/>
      </defs>
      <use transform="translate(0 0.015625)" xlink:href="#DejaVuSans-42"/>
      <use transform="translate(68.603516 0.015625)" xlink:href="#DejaVuSans-65"/>
      <use transform="translate(130.126953 0.015625)" xlink:href="#DejaVuSans-6e"/>
      <use transform="translate(193.505859 0.015625)" xlink:href="#DejaVuSans-64"/>
      <use transform="translate(256.982422 0.015625)" xlink:href="#DejaVuSans-69"/>
      <use transform="translate(284.765625 0.015625)" xlink:href="#DejaVuSans-6e"/>
      <use transform="translate(348.144531 0.015625)" xlink:href="#DejaVuSans-67"/>
      <use transform="translate(411.621094 0.015625)" xlink:href="#DejaVuSans-20"/>
      <use transform="translate(443.408203 0.015625)" xlink:href="#DejaVuSans-6d"/>
      <use transform="translate(540.820312 0.015625)" xlink:href="#DejaVuSans-6f"/>
      <use transform="translate(602.001953 0.015625)" xlink:href="#DejaVuSans-6d"/>
      <use transform="translate(699.414062 0.015625)" xlink:href="#DejaVuSans-65"/>
      <use transform="translate(760.9375 0.015625)" xlink:href="#DejaVuSans-6e"/>
      <use transform="translate(824.316406 0.015625)" xlink:href="#DejaVuSans-74"/>
      <use transform="translate(863.525391 0.015625)" xlink:href="#DejaVuSans-2c"/>
      <use transform="translate(895.3125 0.015625)" xlink:href="#DejaVuSans-20"/>
      <use transform="translate(927.099609 0.015625)" xlink:href="#DejaVuSans-Oblique-4d"/>
      <use transform="translate(1013.378906 0.015625)" xlink:href="#DejaVuSans-28"/>
      <use transform="translate(1052.392578 0.015625)" xlink:href="#DejaVuSans-Oblique-78"/>
      <use transform="translate(1111.572266 0.015625)" xlink:href="#DejaVuSans-29"/>
     </g>
    </g>
   </g>
   <g id="line2d_36">
    <path clip-path="url(#pbf6442532a)" d="M 60.48 400.654884 
L 62.592727 399.152007 
L 64.705455 397.649393 
L 66.818182 396.147305 
L 68.930909 394.646005 
L 71.043636 393.145757 
L 73.156364 391.646824 
L 75.269091 390.149467 
L 77.381818 388.653951 
L 79.494545 387.160538 
L 81.607273 385.669491 
L 83.72 384.181072 
L 85.832727 382.695545 
L 87.945455 381.213172 
L 90.058182 379.734217 
L 92.170909 378.258942 
L 94.283636 376.78761 
L 96.396364 375.320485 
L 98.509091 373.857828 
L 100.621818 372.399903 
L 102.734545 370.946972 
L 104.847273 369.499299 
L 106.96 368.057146 
L 109.072727 366.620777 
L 111.185455 365.190454 
L 113.298182 363.766439 
L 115.410909 362.348997 
L 117.523636 360.938389 
L 119.636364 359.534879 
L 121.749091 358.138729 
L 123.861818 356.750203 
L 125.974545 355.369563 
L 128.087273 353.997072 
L 130.2 352.632993 
L 132.312727 351.277589 
L 134.425455 349.931123 
L 136.538182 348.593857 
L 138.650909 347.266055 
L 140.763636 345.947979 
L 142.876364 344.639893 
L 144.989091 343.342058 
L 147.101818 342.054739 
L 149.214545 340.778197 
L 151.327273 339.512696 
L 153.44 338.258499 
L 155.552727 337.015868 
L 157.665455 335.785067 
L 159.778182 334.566358 
L 161.890909 333.360004 
L 164.003636 332.166268 
L 166.116364 330.985412 
L 168.229091 329.817701 
L 170.341818 328.663396 
L 172.454545 327.522761 
L 174.567273 326.396058 
L 176.68 325.28355 
L 178.792727 324.1855 
L 180.905455 323.102171 
L 183.018182 322.033827 
L 185.130909 320.980729 
L 187.243636 319.94314 
L 189.356364 318.921324 
L 191.469091 317.915543 
L 193.581818 316.926061 
L 195.694545 315.95314 
L 197.807273 314.997042 
L 199.92 314.058032 
L 202.032727 313.136371 
L 204.145455 312.232323 
L 206.258182 311.346151 
L 208.370909 310.478116 
L 210.483636 309.628483 
L 212.596364 308.797514 
L 214.709091 307.985472 
L 216.821818 307.19262 
L 218.934545 306.419221 
L 221.047273 305.665537 
L 223.16 304.931832 
L 225.272727 304.218368 
L 227.385455 303.525408 
L 229.498182 302.853216 
L 231.610909 302.202053 
L 233.723636 301.572183 
L 235.836364 300.963869 
L 237.949091 300.377374 
L 240.061818 299.81296 
L 242.174545 299.27089 
L 244.287273 298.751428 
L 246.4 298.254836 
L 248.512727 297.781376 
L 250.625455 297.331313 
L 252.738182 296.904908 
L 254.850909 296.502425 
L 256.963636 296.124126 
L 259.076364 295.770275 
L 261.189091 295.441134 
L 263.301818 295.136966 
L 265.414545 294.858034 
L 267.527273 294.604601 
L 269.64 294.376929 
" style="fill:none;stroke:#b22222;stroke-linecap:square;stroke-width:2;"/>
   </g>
   <g id="line2d_37">
    <path clip-path="url(#pbf6442532a)" d="M 269.64 294.376929 
L 271.752727 294.175239 
L 273.865455 293.999573 
L 275.978182 293.849931 
L 278.090909 293.726314 
L 280.203636 293.628722 
L 282.316364 293.557155 
L 284.429091 293.511611 
L 286.541818 293.492093 
L 288.654545 293.498599 
L 290.767273 293.53113 
L 292.88 293.589685 
L 294.992727 293.674265 
L 297.105455 293.78487 
L 299.218182 293.921499 
L 301.330909 294.084153 
L 303.443636 294.272831 
L 305.556364 294.487534 
L 307.669091 294.728261 
L 309.781818 294.995014 
L 311.894545 295.28779 
L 314.007273 295.606592 
L 316.12 295.951418 
L 318.232727 296.322268 
L 320.345455 296.719143 
L 322.458182 297.142043 
L 324.570909 297.590967 
L 326.683636 298.065916 
L 328.796364 298.56689 
L 330.909091 299.093888 
L 333.021818 299.646911 
L 335.134545 300.225958 
L 337.247273 300.83103 
L 339.36 301.462126 
L 341.472727 302.119247 
L 343.585455 302.802393 
L 345.698182 303.511563 
L 347.810909 304.246758 
L 349.923636 305.007978 
L 352.036364 305.795222 
L 354.149091 306.608491 
L 356.261818 307.447784 
L 358.374545 308.313102 
L 360.487273 309.204444 
L 362.6 310.121811 
L 364.712727 311.065203 
L 366.825455 312.034619 
L 368.938182 313.03006 
L 371.050909 314.051526 
L 373.163636 315.099016 
L 375.276364 316.172531 
L 377.389091 317.27207 
L 379.501818 318.397634 
L 381.614545 319.549222 
L 383.727273 320.726835 
L 385.84 321.930473 
L 387.952727 323.160135 
L 390.065455 324.415822 
L 392.178182 325.697534 
L 394.290909 327.00527 
L 396.403636 328.33903 
L 398.516364 329.698816 
L 400.629091 331.084626 
L 402.741818 332.49646 
L 404.854545 333.934319 
L 406.967273 335.398203 
L 409.08 336.888111 
L 411.192727 338.404044 
L 413.305455 339.946001 
L 415.418182 341.513984 
L 417.530909 343.10799 
L 419.643636 344.728021 
L 421.756364 346.374077 
L 423.869091 348.046158 
L 425.981818 349.744263 
L 428.094545 351.468392 
L 430.207273 353.218547 
L 432.32 354.994726 
L 434.432727 356.796929 
L 436.545455 358.625157 
L 438.658182 360.47941 
L 440.770909 362.359687 
L 442.883636 364.265989 
L 444.996364 366.198315 
L 447.109091 368.156666 
L 449.221818 370.141042 
L 451.334545 372.151442 
L 453.447273 374.187867 
L 455.56 376.250316 
L 457.672727 378.33879 
L 459.785455 380.453289 
L 461.898182 382.593812 
L 464.010909 384.76036 
L 466.123636 386.952933 
L 468.236364 389.17153 
L 470.349091 391.416151 
L 472.461818 393.686797 
L 474.574545 395.983468 
L 476.687273 398.306164 
L 478.8 400.654884 
" style="fill:none;stroke:#b22222;stroke-linecap:square;stroke-width:2;"/>
   </g>
   <g id="patch_8">
    <path d="M 60.48 406.013023 
L 60.48 288.133953 
" style="fill:none;stroke:#000000;stroke-linecap:square;stroke-linejoin:miter;stroke-width:0.8;"/>
   </g>
   <g id="patch_9">
    <path d="M 478.8 406.013023 
L 478.8 288.133953 
" style="fill:none;stroke:#000000;stroke-linecap:square;stroke-linejoin:miter;stroke-width:0.8;"/>
   </g>
   <g id="patch_10">
    <path d="M 60.48 406.013023 
L 478.8 406.013023 
" style="fill:none;stroke:#000000;stroke-linecap:square;stroke-linejoin:miter;stroke-width:0.8;"/>
   </g>
   <g id="patch_11">
    <path d="M 60.48 288.133953 
L 478.8 288.133953 
" style="fill:none;stroke:#000000;stroke-linecap:square;stroke-linejoin:miter;stroke-width:0.8;"/>
   </g>
  </g>
  <g id="axes_4">
   <g id="patch_12">
    <path d="M 60.48 535.68 
L 478.8 535.68 
L 478.8 417.80093 
L 60.48 417.80093 
z
" style="fill:#ffffff;"/>
   </g>
   <g id="matplotlib.axis_5">
    <g id="xtick_13">
     <g id="line2d_38">
      <g>
       <use style="stroke:#000000;stroke-width:0.8;" x="60.48" xlink:href="#m03ee45ac75" y="535.68"/>
      </g>
     </g>
     <g id="text_12">
      <!-- 0e+00 -->
      <g transform="translate(43.669844 550.278437)scale(0.1 -0.1)">
       <use xlink:href="#DejaVuSans-30"/>
       <use x="63.623047" xlink:href="#DejaVuSans-65"/>
       <use x="125.146484" xlink:href="#DejaVuSans-2b"/>
       <use x="208.935547" xlink:href="#DejaVuSans-30"/>
       <use x="272.558594" xlink:href="#DejaVuSans-30"/>
      </g>
     </g>
    </g>
    <g id="xtick_14">
     <g id="line2d_39">
      <g>
       <use style="stroke:#000000;stroke-width:0.8;" x="144.144" xlink:href="#m03ee45ac75" y="535.68"/>
      </g>
     </g>
     <g id="text_13">
      <!-- 2e-01 -->
      <g transform="translate(129.719781 550.278437)scale(0.1 -0.1)">
       <use xlink:href="#DejaVuSans-32"/>
       <use x="63.623047" xlink:href="#DejaVuSans-65"/>
       <use x="125.146484" xlink:href="#DejaVuSans-2d"/>
       <use x="161.230469" xlink:href="#DejaVuSans-30"/>
       <use x="224.853516" xlink:href="#DejaVuSans-31"/>
      </g>
     </g>
    </g>
    <g id="xtick_15">
     <g id="line2d_40">
      <g>
       <use style="stroke:#000000;stroke-width:0.8;" x="227.808" xlink:href="#m03ee45ac75" y="535.68"/>
      </g>
     </g>
     <g id="text_14">
      <!-- 4e-01 -->
      <g transform="translate(213.383781 550.278437)scale(0.1 -0.1)">
       <use xlink:href="#DejaVuSans-34"/>
       <use x="63.623047" xlink:href="#DejaVuSans-65"/>
       <use x="125.146484" xlink:href="#DejaVuSans-2d"/>
       <use x="161.230469" xlink:href="#DejaVuSans-30"/>
       <use x="224.853516" xlink:href="#DejaVuSans-31"/>
      </g>
     </g>
    </g>
    <g id="xtick_16">
     <g id="line2d_41">
      <g>
       <use style="stroke:#000000;stroke-width:0.8;" x="311.472" xlink:href="#m03ee45ac75" y="535.68"/>
      </g>
     </g>
     <g id="text_15">
      <!-- 6e-01 -->
      <g transform="translate(297.047781 550.278437)scale(0.1 -0.1)">
       <defs>
        <path d="M 2113 2584 
Q 1688 2584 1439 2293 
Q 1191 2003 1191 1497 
Q 1191 994 1439 701 
Q 1688 409 2113 409 
Q 2538 409 2786 701 
Q 3034 994 3034 1497 
Q 3034 2003 2786 2293 
Q 2538 2584 2113 2584 
z
M 3366 4563 
L 3366 3988 
Q 3128 4100 2886 4159 
Q 2644 4219 2406 4219 
Q 1781 4219 1451 3797 
Q 1122 3375 1075 2522 
Q 1259 2794 1537 2939 
Q 1816 3084 2150 3084 
Q 2853 3084 3261 2657 
Q 3669 2231 3669 1497 
Q 3669 778 3244 343 
Q 2819 -91 2113 -91 
Q 1303 -91 875 529 
Q 447 1150 447 2328 
Q 447 3434 972 4092 
Q 1497 4750 2381 4750 
Q 2619 4750 2861 4703 
Q 3103 4656 3366 4563 
z
" id="DejaVuSans-36" transform="scale(0.015625)"/>
       </defs>
       <use xlink:href="#DejaVuSans-36"/>
       <use x="63.623047" xlink:href="#DejaVuSans-65"/>
       <use x="125.146484" xlink:href="#DejaVuSans-2d"/>
       <use x="161.230469" xlink:href="#DejaVuSans-30"/>
       <use x="224.853516" xlink:href="#DejaVuSans-31"/>
      </g>
     </g>
    </g>
    <g id="xtick_17">
     <g id="line2d_42">
      <g>
       <use style="stroke:#000000;stroke-width:0.8;" x="395.136" xlink:href="#m03ee45ac75" y="535.68"/>
      </g>
     </g>
     <g id="text_16">
      <!-- 8e-01 -->
      <g transform="translate(380.711781 550.278437)scale(0.1 -0.1)">
       <use xlink:href="#DejaVuSans-38"/>
       <use x="63.623047" xlink:href="#DejaVuSans-65"/>
       <use x="125.146484" xlink:href="#DejaVuSans-2d"/>
       <use x="161.230469" xlink:href="#DejaVuSans-30"/>
       <use x="224.853516" xlink:href="#DejaVuSans-31"/>
      </g>
     </g>
    </g>
    <g id="xtick_18">
     <g id="line2d_43">
      <g>
       <use style="stroke:#000000;stroke-width:0.8;" x="478.8" xlink:href="#m03ee45ac75" y="535.68"/>
      </g>
     </g>
     <g id="text_17">
      <!-- 1e+00 -->
      <g transform="translate(461.989844 550.278437)scale(0.1 -0.1)">
       <use xlink:href="#DejaVuSans-31"/>
       <use x="63.623047" xlink:href="#DejaVuSans-65"/>
       <use x="125.146484" xlink:href="#DejaVuSans-2b"/>
       <use x="208.935547" xlink:href="#DejaVuSans-30"/>
       <use x="272.558594" xlink:href="#DejaVuSans-30"/>
      </g>
     </g>
    </g>
    <g id="text_18">
     <!-- Coordinate, $x$ -->
     <g transform="translate(235.99 563.956563)scale(0.1 -0.1)">
      <defs>
       <path d="M 4122 4306 
L 4122 3641 
Q 3803 3938 3442 4084 
Q 3081 4231 2675 4231 
Q 1875 4231 1450 3742 
Q 1025 3253 1025 2328 
Q 1025 1406 1450 917 
Q 1875 428 2675 428 
Q 3081 428 3442 575 
Q 3803 722 4122 1019 
L 4122 359 
Q 3791 134 3420 21 
Q 3050 -91 2638 -91 
Q 1578 -91 968 557 
Q 359 1206 359 2328 
Q 359 3453 968 4101 
Q 1578 4750 2638 4750 
Q 3056 4750 3426 4639 
Q 3797 4528 4122 4306 
z
" id="DejaVuSans-43" transform="scale(0.015625)"/>
      </defs>
      <use transform="translate(0 0.015625)" xlink:href="#DejaVuSans-43"/>
      <use transform="translate(69.824219 0.015625)" xlink:href="#DejaVuSans-6f"/>
      <use transform="translate(131.005859 0.015625)" xlink:href="#DejaVuSans-6f"/>
      <use transform="translate(192.1875 0.015625)" xlink:href="#DejaVuSans-72"/>
      <use transform="translate(233.300781 0.015625)" xlink:href="#DejaVuSans-64"/>
      <use transform="translate(296.777344 0.015625)" xlink:href="#DejaVuSans-69"/>
      <use transform="translate(324.560547 0.015625)" xlink:href="#DejaVuSans-6e"/>
      <use transform="translate(387.939453 0.015625)" xlink:href="#DejaVuSans-61"/>
      <use transform="translate(449.21875 0.015625)" xlink:href="#DejaVuSans-74"/>
      <use transform="translate(488.427734 0.015625)" xlink:href="#DejaVuSans-65"/>
      <use transform="translate(549.951172 0.015625)" xlink:href="#DejaVuSans-2c"/>
      <use transform="translate(581.738281 0.015625)" xlink:href="#DejaVuSans-20"/>
      <use transform="translate(613.525391 0.015625)" xlink:href="#DejaVuSans-Oblique-78"/>
     </g>
    </g>
   </g>
   <g id="matplotlib.axis_6">
    <g id="ytick_10">
     <g id="line2d_44">
      <g>
       <use style="stroke:#000000;stroke-width:0.8;" x="60.48" xlink:href="#m0d39b060ab" y="523.460838"/>
      </g>
     </g>
     <g id="text_19">
      <!-- -1e-02 -->
      <g transform="translate(21.02375 527.260057)scale(0.1 -0.1)">
       <use xlink:href="#DejaVuSans-2d"/>
       <use x="36.083984" xlink:href="#DejaVuSans-31"/>
       <use x="99.707031" xlink:href="#DejaVuSans-65"/>
       <use x="161.230469" xlink:href="#DejaVuSans-2d"/>
       <use x="197.314453" xlink:href="#DejaVuSans-30"/>
       <use x="260.9375" xlink:href="#DejaVuSans-32"/>
      </g>
     </g>
    </g>
    <g id="ytick_11">
     <g id="line2d_45">
      <g>
       <use style="stroke:#000000;stroke-width:0.8;" x="60.48" xlink:href="#m0d39b060ab" y="498.385396"/>
      </g>
     </g>
     <g id="text_20">
      <!-- -8e-03 -->
      <g transform="translate(21.02375 502.184615)scale(0.1 -0.1)">
       <use xlink:href="#DejaVuSans-2d"/>
       <use x="36.083984" xlink:href="#DejaVuSans-38"/>
       <use x="99.707031" xlink:href="#DejaVuSans-65"/>
       <use x="161.230469" xlink:href="#DejaVuSans-2d"/>
       <use x="197.314453" xlink:href="#DejaVuSans-30"/>
       <use x="260.9375" xlink:href="#DejaVuSans-33"/>
      </g>
     </g>
    </g>
    <g id="ytick_12">
     <g id="line2d_46">
      <g>
       <use style="stroke:#000000;stroke-width:0.8;" x="60.48" xlink:href="#m0d39b060ab" y="473.309954"/>
      </g>
     </g>
     <g id="text_21">
      <!-- -5e-03 -->
      <g transform="translate(21.02375 477.109173)scale(0.1 -0.1)">
       <use xlink:href="#DejaVuSans-2d"/>
       <use x="36.083984" xlink:href="#DejaVuSans-35"/>
       <use x="99.707031" xlink:href="#DejaVuSans-65"/>
       <use x="161.230469" xlink:href="#DejaVuSans-2d"/>
       <use x="197.314453" xlink:href="#DejaVuSans-30"/>
       <use x="260.9375" xlink:href="#DejaVuSans-33"/>
      </g>
     </g>
    </g>
    <g id="ytick_13">
     <g id="line2d_47">
      <g>
       <use style="stroke:#000000;stroke-width:0.8;" x="60.48" xlink:href="#m0d39b060ab" y="448.234512"/>
      </g>
     </g>
     <g id="text_22">
      <!-- -3e-03 -->
      <g transform="translate(21.02375 452.033731)scale(0.1 -0.1)">
       <use xlink:href="#DejaVuSans-2d"/>
       <use x="36.083984" xlink:href="#DejaVuSans-33"/>
       <use x="99.707031" xlink:href="#DejaVuSans-65"/>
       <use x="161.230469" xlink:href="#DejaVuSans-2d"/>
       <use x="197.314453" xlink:href="#DejaVuSans-30"/>
       <use x="260.9375" xlink:href="#DejaVuSans-33"/>
      </g>
     </g>
    </g>
    <g id="ytick_14">
     <g id="line2d_48">
      <g>
       <use style="stroke:#000000;stroke-width:0.8;" x="60.48" xlink:href="#m0d39b060ab" y="423.15907"/>
      </g>
     </g>
     <g id="text_23">
      <!-- 0e+00 -->
      <g transform="translate(19.859687 426.958289)scale(0.1 -0.1)">
       <use xlink:href="#DejaVuSans-30"/>
       <use x="63.623047" xlink:href="#DejaVuSans-65"/>
       <use x="125.146484" xlink:href="#DejaVuSans-2b"/>
       <use x="208.935547" xlink:href="#DejaVuSans-30"/>
       <use x="272.558594" xlink:href="#DejaVuSans-30"/>
      </g>
     </g>
    </g>
    <g id="text_24">
     <!-- Deflection, $v(x)$ -->
     <g transform="translate(13.78 515.240465)rotate(-90)scale(0.1 -0.1)">
      <defs>
       <path d="M 1259 4147 
L 1259 519 
L 2022 519 
Q 2988 519 3436 956 
Q 3884 1394 3884 2338 
Q 3884 3275 3436 3711 
Q 2988 4147 2022 4147 
L 1259 4147 
z
M 628 4666 
L 1925 4666 
Q 3281 4666 3915 4102 
Q 4550 3538 4550 2338 
Q 4550 1131 3912 565 
Q 3275 0 1925 0 
L 628 0 
L 628 4666 
z
" id="DejaVuSans-44" transform="scale(0.015625)"/>
       <path d="M 603 4863 
L 1178 4863 
L 1178 0 
L 603 0 
L 603 4863 
z
" id="DejaVuSans-6c" transform="scale(0.015625)"/>
       <path d="M 459 3500 
L 1069 3500 
L 1581 525 
L 3256 3500 
L 3866 3500 
L 1875 0 
L 1100 0 
L 459 3500 
z
" id="DejaVuSans-Oblique-76" transform="scale(0.015625)"/>
      </defs>
      <use transform="translate(0 0.015625)" xlink:href="#DejaVuSans-44"/>
      <use transform="translate(77.001953 0.015625)" xlink:href="#DejaVuSans-65"/>
      <use transform="translate(138.525391 0.015625)" xlink:href="#DejaVuSans-66"/>
      <use transform="translate(173.730469 0.015625)" xlink:href="#DejaVuSans-6c"/>
      <use transform="translate(201.513672 0.015625)" xlink:href="#DejaVuSans-65"/>
      <use transform="translate(263.037109 0.015625)" xlink:href="#DejaVuSans-63"/>
      <use transform="translate(318.017578 0.015625)" xlink:href="#DejaVuSans-74"/>
      <use transform="translate(357.226562 0.015625)" xlink:href="#DejaVuSans-69"/>
      <use transform="translate(385.009766 0.015625)" xlink:href="#DejaVuSans-6f"/>
      <use transform="translate(446.191406 0.015625)" xlink:href="#DejaVuSans-6e"/>
      <use transform="translate(509.570312 0.015625)" xlink:href="#DejaVuSans-2c"/>
      <use transform="translate(541.357422 0.015625)" xlink:href="#DejaVuSans-20"/>
      <use transform="translate(573.144531 0.015625)" xlink:href="#DejaVuSans-Oblique-76"/>
      <use transform="translate(632.324219 0.015625)" xlink:href="#DejaVuSans-28"/>
      <use transform="translate(671.337891 0.015625)" xlink:href="#DejaVuSans-Oblique-78"/>
      <use transform="translate(730.517578 0.015625)" xlink:href="#DejaVuSans-29"/>
     </g>
    </g>
   </g>
   <g id="line2d_49">
    <path clip-path="url(#p9d36c5da34)" d="M 60.48 423.15907 
L 62.592727 424.803615 
L 64.705455 426.447784 
L 66.818182 428.091199 
L 68.930909 429.733484 
L 71.043636 431.374262 
L 73.156364 433.013157 
L 75.269091 434.649793 
L 77.381818 436.283795 
L 79.494545 437.914788 
L 81.607273 439.542396 
L 83.72 441.166247 
L 85.832727 442.785967 
L 87.945455 444.401184 
L 90.058182 446.011525 
L 92.170909 447.61662 
L 94.283636 449.2161 
L 96.396364 450.809594 
L 98.509091 452.396736 
L 100.621818 453.977157 
L 102.734545 455.550494 
L 104.847273 457.116381 
L 106.96 458.674456 
L 109.072727 460.224356 
L 111.185455 461.765722 
L 113.298182 463.298195 
L 115.410909 464.821418 
L 117.523636 466.335035 
L 119.636364 467.838693 
L 121.749091 469.33204 
L 123.861818 470.814725 
L 125.974545 472.286401 
L 128.087273 473.746721 
L 130.2 475.195342 
L 132.312727 476.63192 
L 134.425455 478.056116 
L 136.538182 479.467593 
L 138.650909 480.866016 
L 140.763636 482.25105 
L 142.876364 483.622367 
L 144.989091 484.979636 
L 147.101818 486.322535 
L 149.214545 487.650738 
L 151.327273 488.963928 
L 153.44 490.261785 
L 155.552727 491.543995 
L 157.665455 492.810248 
L 159.778182 494.060234 
L 161.890909 495.293647 
L 164.003636 496.510186 
L 166.116364 497.70955 
L 168.229091 498.891445 
L 170.341818 500.055576 
L 172.454545 501.201655 
L 174.567273 502.329395 
L 176.68 503.438514 
L 178.792727 504.528733 
L 180.905455 505.599776 
L 183.018182 506.651373 
L 185.130909 507.683255 
L 187.243636 508.695157 
L 189.356364 509.68682 
L 191.469091 510.657988 
L 193.581818 511.608409 
L 195.694545 512.537833 
L 197.807273 513.446018 
L 199.92 514.332723 
L 202.032727 515.197714 
L 204.145455 516.040758 
L 206.258182 516.86163 
L 208.370909 517.660106 
L 210.483636 518.43597 
L 212.596364 519.189009 
L 214.709091 519.919013 
L 216.821818 520.625779 
L 218.934545 521.30911 
L 221.047273 521.968809 
L 223.16 522.604689 
L 225.272727 523.216566 
L 227.385455 523.804261 
L 229.498182 524.367599 
L 231.610909 524.906413 
L 233.723636 525.420539 
L 235.836364 525.909819 
L 237.949091 526.374101 
L 240.061818 526.813237 
L 242.174545 527.227087 
L 244.287273 527.615513 
L 246.4 527.978386 
L 248.512727 528.315582 
L 250.625455 528.626981 
L 252.738182 528.912471 
L 254.850909 529.171945 
L 256.963636 529.405302 
L 259.076364 529.612446 
L 261.189091 529.79329 
L 263.301818 529.947751 
L 265.414545 530.075752 
L 267.527273 530.177224 
L 269.64 530.252103 
" style="fill:none;stroke:#000000;stroke-linecap:square;stroke-width:3;"/>
   </g>
   <g id="line2d_50">
    <path clip-path="url(#p9d36c5da34)" d="M 60.48 423.15907 
L 269.64 423.15907 
" style="fill:none;stroke:#000000;stroke-dasharray:5.55,2.4;stroke-dashoffset:0;stroke-width:1.5;"/>
   </g>
   <g id="line2d_51">
    <path clip-path="url(#p9d36c5da34)" d="M 269.64 530.252103 
L 271.752727 530.300332 
L 273.865455 530.32186 
L 275.978182 530.316644 
L 278.090909 530.284645 
L 280.203636 530.225834 
L 282.316364 530.140184 
L 284.429091 530.027679 
L 286.541818 529.888307 
L 288.654545 529.722063 
L 290.767273 529.528948 
L 292.88 529.308972 
L 294.992727 529.062147 
L 297.105455 528.788497 
L 299.218182 528.488048 
L 301.330909 528.160835 
L 303.443636 527.806899 
L 305.556364 527.426286 
L 307.669091 527.019051 
L 309.781818 526.585254 
L 311.894545 526.124962 
L 314.007273 525.638248 
L 316.12 525.125193 
L 318.232727 524.585882 
L 320.345455 524.020409 
L 322.458182 523.428874 
L 324.570909 522.811381 
L 326.683636 522.168045 
L 328.796364 521.498984 
L 330.909091 520.804323 
L 333.021818 520.084195 
L 335.134545 519.338739 
L 337.247273 518.568099 
L 339.36 517.772427 
L 341.472727 516.951883 
L 343.585455 516.106629 
L 345.698182 515.236839 
L 347.810909 514.342689 
L 349.923636 513.424364 
L 352.036364 512.482054 
L 354.149091 511.515958 
L 356.261818 510.52628 
L 358.374545 509.513228 
L 360.487273 508.477022 
L 362.6 507.417883 
L 364.712727 506.336043 
L 366.825455 505.231737 
L 368.938182 504.10521 
L 371.050909 502.95671 
L 373.163636 501.786493 
L 375.276364 500.594823 
L 377.389091 499.381968 
L 379.501818 498.148204 
L 381.614545 496.893814 
L 383.727273 495.619086 
L 385.84 494.324316 
L 387.952727 493.009805 
L 390.065455 491.675861 
L 392.178182 490.3228 
L 394.290909 488.950944 
L 396.403636 487.560619 
L 398.516364 486.15216 
L 400.629091 484.725909 
L 402.741818 483.282213 
L 404.854545 481.821426 
L 406.967273 480.343908 
L 409.08 478.850027 
L 411.192727 477.340156 
L 413.305455 475.814675 
L 415.418182 474.273972 
L 417.530909 472.718438 
L 419.643636 471.148474 
L 421.756364 469.564487 
L 423.869091 467.966888 
L 425.981818 466.356098 
L 428.094545 464.732542 
L 430.207273 463.096652 
L 432.32 461.448867 
L 434.432727 459.789633 
L 436.545455 458.119402 
L 438.658182 456.438631 
L 440.770909 454.747787 
L 442.883636 453.04734 
L 444.996364 451.337769 
L 447.109091 449.619557 
L 449.221818 447.893197 
L 451.334545 446.159186 
L 453.447273 444.418028 
L 455.56 442.670233 
L 457.672727 440.916319 
L 459.785455 439.15681 
L 461.898182 437.392235 
L 464.010909 435.623132 
L 466.123636 433.850043 
L 468.236364 432.07352 
L 470.349091 430.294117 
L 472.461818 428.512398 
L 474.574545 426.728932 
L 476.687273 424.944295 
L 478.8 423.15907 
" style="fill:none;stroke:#000000;stroke-linecap:square;stroke-width:3;"/>
   </g>
   <g id="line2d_52">
    <path clip-path="url(#p9d36c5da34)" d="M 269.64 423.15907 
L 478.8 423.15907 
" style="fill:none;stroke:#000000;stroke-dasharray:5.55,2.4;stroke-dashoffset:0;stroke-width:1.5;"/>
   </g>
   <g id="patch_13">
    <path d="M 60.48 535.68 
L 60.48 417.80093 
" style="fill:none;stroke:#000000;stroke-linecap:square;stroke-linejoin:miter;stroke-width:0.8;"/>
   </g>
   <g id="patch_14">
    <path d="M 478.8 535.68 
L 478.8 417.80093 
" style="fill:none;stroke:#000000;stroke-linecap:square;stroke-linejoin:miter;stroke-width:0.8;"/>
   </g>
   <g id="patch_15">
    <path d="M 60.48 535.68 
L 478.8 535.68 
" style="fill:none;stroke:#000000;stroke-linecap:square;stroke-linejoin:miter;stroke-width:0.8;"/>
   </g>
   <g id="patch_16">
    <path d="M 60.48 417.80093 
L 478.8 417.80093 
" style="fill:none;stroke:#000000;stroke-linecap:square;stroke-linejoin:miter;stroke-width:0.8;"/>
   </g>
  </g>
 </g>
 <defs>
  <clipPath id="pb830363b2b">
   <rect height="117.87907" width="418.32" x="60.48" y="28.8"/>
  </clipPath>
  <clipPath id="pcf3a379cee">
   <rect height="117.87907" width="418.32" x="60.48" y="158.466977"/>
  </clipPath>
  <clipPath id="pbf6442532a">
   <rect height="117.87907" width="418.32" x="60.48" y="288.133953"/>
  </clipPath>
  <clipPath id="p9d36c5da34">
   <rect height="117.87907" width="418.32" x="60.48" y="417.80093"/>
  </clipPath>
 </defs>
</svg>
