<?xml version="1.0" encoding="utf-8" standalone="no"?>
<!DOCTYPE svg PUBLIC "-//W3C//DTD SVG 1.1//EN"
  "http://www.w3.org/Graphics/SVG/1.1/DTD/svg11.dtd">
<!-- Created with matplotlib (https://matplotlib.org/) -->
<svg height="576pt" version="1.1" viewBox="0 0 504 576" width="504pt" xmlns="http://www.w3.org/2000/svg" xmlns:xlink="http://www.w3.org/1999/xlink">
 <defs>
  <style type="text/css">
*{stroke-linecap:butt;stroke-linejoin:round;}
  </style>
 </defs>
 <g id="figure_1">
  <g id="patch_1">
   <path d="M 0 576 
L 504 576 
L 504 0 
L 0 0 
z
" style="fill:#ffffff;"/>
  </g>
  <g id="axes_1">
   <g id="PolyCollection_1">
    <defs>
     <path d="M 57.320552 -509.749531 
L 57.320552 -509.749531 
L 61.632361 -509.749531 
L 65.94417 -509.749531 
L 70.255978 -509.749531 
L 74.567787 -509.749531 
L 78.879595 -509.749531 
L 83.191404 -509.749531 
L 87.503213 -509.749531 
L 91.815021 -509.749531 
L 96.12683 -509.749531 
L 100.438638 -509.749531 
L 104.750447 -509.749531 
L 109.062256 -509.749531 
L 113.374064 -509.749531 
L 117.685873 -509.749531 
L 121.997681 -509.749531 
L 126.30949 -509.749531 
L 130.621299 -509.749531 
L 134.933107 -509.749531 
L 139.244916 -509.749531 
L 143.556724 -509.749531 
L 147.868533 -509.749531 
L 152.180342 -509.749531 
L 156.49215 -509.749531 
L 160.803959 -509.749531 
L 165.115767 -509.749531 
L 169.427576 -509.749531 
L 173.739385 -509.749531 
L 178.051193 -509.749531 
L 182.363002 -509.749531 
L 186.67481 -509.749531 
L 190.986619 -509.749531 
L 195.298428 -509.749531 
L 199.610236 -509.749531 
L 203.922045 -509.749531 
L 208.233853 -509.749531 
L 212.545662 -509.749531 
L 216.857471 -509.749531 
L 221.169279 -509.749531 
L 225.481088 -509.749531 
L 229.792896 -509.749531 
L 234.104705 -509.749531 
L 238.416514 -509.749531 
L 242.728322 -509.749531 
L 247.040131 -509.749531 
L 251.351939 -509.749531 
L 255.663748 -509.749531 
L 259.975557 -509.749531 
L 264.287365 -509.749531 
L 268.599174 -509.749531 
L 272.910982 -509.749531 
L 277.222791 -509.749531 
L 281.5346 -509.749531 
L 285.846408 -509.749531 
L 290.158217 -509.749531 
L 294.470025 -509.749531 
L 298.781834 -509.749531 
L 303.093643 -509.749531 
L 307.405451 -509.749531 
L 311.71726 -509.749531 
L 316.029068 -509.749531 
L 320.340877 -509.749531 
L 324.652686 -509.749531 
L 328.964494 -509.749531 
L 333.276303 -509.749531 
L 337.588111 -509.749531 
L 341.89992 -509.749531 
L 346.211729 -509.749531 
L 350.523537 -509.749531 
L 354.835346 -509.749531 
L 359.147154 -509.749531 
L 363.458963 -509.749531 
L 367.770772 -509.749531 
L 372.08258 -509.749531 
L 376.394389 -509.749531 
L 380.706197 -509.749531 
L 385.018006 -509.749531 
L 389.329815 -509.749531 
L 393.641623 -509.749531 
L 397.953432 -509.749531 
L 402.26524 -509.749531 
L 406.577049 -509.749531 
L 410.888858 -509.749531 
L 415.200666 -509.749531 
L 419.512475 -509.749531 
L 423.824283 -509.749531 
L 428.136092 -509.749531 
L 432.447901 -509.749531 
L 436.759709 -509.749531 
L 441.071518 -509.749531 
L 445.383326 -509.749531 
L 449.695135 -509.749531 
L 454.006944 -509.749531 
L 458.318752 -509.749531 
L 462.630561 -509.749531 
L 466.942369 -509.749531 
L 471.254178 -509.749531 
L 475.565987 -509.749531 
L 479.877795 -509.749531 
L 484.189604 -509.749531 
L 484.189604 -509.749531 
L 484.189604 -509.749531 
L 479.877795 -509.749531 
L 475.565987 -509.749531 
L 471.254178 -509.749531 
L 466.942369 -509.749531 
L 462.630561 -509.749531 
L 458.318752 -509.749531 
L 454.006944 -509.749531 
L 449.695135 -509.749531 
L 445.383326 -509.749531 
L 441.071518 -509.749531 
L 436.759709 -509.749531 
L 432.447901 -509.749531 
L 428.136092 -509.749531 
L 423.824283 -509.749531 
L 419.512475 -509.749531 
L 415.200666 -509.749531 
L 410.888858 -509.749531 
L 406.577049 -509.749531 
L 402.26524 -509.749531 
L 397.953432 -509.749531 
L 393.641623 -509.749531 
L 389.329815 -509.749531 
L 385.018006 -509.749531 
L 380.706197 -509.749531 
L 376.394389 -509.749531 
L 372.08258 -509.749531 
L 367.770772 -509.749531 
L 363.458963 -509.749531 
L 359.147154 -509.749531 
L 354.835346 -509.749531 
L 350.523537 -509.749531 
L 346.211729 -509.749531 
L 341.89992 -509.749531 
L 337.588111 -509.749531 
L 333.276303 -509.749531 
L 328.964494 -509.749531 
L 324.652686 -509.749531 
L 320.340877 -509.749531 
L 316.029068 -509.749531 
L 311.71726 -509.749531 
L 307.405451 -509.749531 
L 303.093643 -509.749531 
L 298.781834 -509.749531 
L 294.470025 -509.749531 
L 290.158217 -509.749531 
L 285.846408 -509.749531 
L 281.5346 -509.749531 
L 277.222791 -509.749531 
L 272.910982 -509.749531 
L 268.599174 -509.749531 
L 264.287365 -509.749531 
L 259.975557 -509.749531 
L 255.663748 -509.749531 
L 251.351939 -509.749531 
L 247.040131 -509.749531 
L 242.728322 -509.749531 
L 238.416514 -509.749531 
L 234.104705 -509.749531 
L 229.792896 -509.749531 
L 225.481088 -509.749531 
L 221.169279 -509.749531 
L 216.857471 -509.749531 
L 212.545662 -509.749531 
L 208.233853 -509.749531 
L 203.922045 -509.749531 
L 199.610236 -509.749531 
L 195.298428 -509.749531 
L 190.986619 -509.749531 
L 186.67481 -509.749531 
L 182.363002 -509.749531 
L 178.051193 -509.749531 
L 173.739385 -509.749531 
L 169.427576 -509.749531 
L 165.115767 -509.749531 
L 160.803959 -509.749531 
L 156.49215 -509.749531 
L 152.180342 -509.749531 
L 147.868533 -509.749531 
L 143.556724 -509.749531 
L 139.244916 -509.749531 
L 134.933107 -509.749531 
L 130.621299 -509.749531 
L 126.30949 -509.749531 
L 121.997681 -509.749531 
L 117.685873 -509.749531 
L 113.374064 -509.749531 
L 109.062256 -509.749531 
L 104.750447 -509.749531 
L 100.438638 -509.749531 
L 96.12683 -509.749531 
L 91.815021 -509.749531 
L 87.503213 -509.749531 
L 83.191404 -509.749531 
L 78.879595 -509.749531 
L 74.567787 -509.749531 
L 70.255978 -509.749531 
L 65.94417 -509.749531 
L 61.632361 -509.749531 
L 57.320552 -509.749531 
z
" id="m8610ce7f82" style="stroke:#4169e1;stroke-opacity:0.35;stroke-width:2;"/>
    </defs>
    <g clip-path="url(#pacd958008f)">
     <use style="fill:#4169e1;fill-opacity:0.35;stroke:#4169e1;stroke-opacity:0.35;stroke-width:2;" x="0" xlink:href="#m8610ce7f82" y="576"/>
    </g>
   </g>
   <g id="line2d_1">
    <path clip-path="url(#pacd958008f)" d="M 57.320552 66.250469 
L 61.632361 66.250469 
L 65.94417 66.250469 
L 70.255978 66.250469 
L 74.567787 66.250469 
L 78.879595 66.250469 
L 83.191404 66.250469 
L 87.503213 66.250469 
L 91.815021 66.250469 
L 96.12683 66.250469 
L 100.438638 66.250469 
L 104.750447 66.250469 
L 109.062256 66.250469 
L 113.374064 66.250469 
L 117.685873 66.250469 
L 121.997681 66.250469 
L 126.30949 66.250469 
L 130.621299 66.250469 
L 134.933107 66.250469 
L 139.244916 66.250469 
L 143.556724 66.250469 
L 147.868533 66.250469 
L 152.180342 66.250469 
L 156.49215 66.250469 
L 160.803959 66.250469 
L 165.115767 66.250469 
L 169.427576 66.250469 
L 173.739385 66.250469 
L 178.051193 66.250469 
L 182.363002 66.250469 
L 186.67481 66.250469 
L 190.986619 66.250469 
L 195.298428 66.250469 
L 199.610236 66.250469 
L 203.922045 66.250469 
L 208.233853 66.250469 
L 212.545662 66.250469 
L 216.857471 66.250469 
L 221.169279 66.250469 
L 225.481088 66.250469 
L 229.792896 66.250469 
L 234.104705 66.250469 
L 238.416514 66.250469 
L 242.728322 66.250469 
L 247.040131 66.250469 
L 251.351939 66.250469 
L 255.663748 66.250469 
L 259.975557 66.250469 
L 264.287365 66.250469 
L 268.599174 66.250469 
L 272.910982 66.250469 
L 277.222791 66.250469 
L 281.5346 66.250469 
L 285.846408 66.250469 
L 290.158217 66.250469 
L 294.470025 66.250469 
L 298.781834 66.250469 
L 303.093643 66.250469 
L 307.405451 66.250469 
L 311.71726 66.250469 
L 316.029068 66.250469 
L 320.340877 66.250469 
L 324.652686 66.250469 
L 328.964494 66.250469 
L 333.276303 66.250469 
L 337.588111 66.250469 
L 341.89992 66.250469 
L 346.211729 66.250469 
L 350.523537 66.250469 
L 354.835346 66.250469 
L 359.147154 66.250469 
L 363.458963 66.250469 
L 367.770772 66.250469 
L 372.08258 66.250469 
L 376.394389 66.250469 
L 380.706197 66.250469 
L 385.018006 66.250469 
L 389.329815 66.250469 
L 393.641623 66.250469 
L 397.953432 66.250469 
L 402.26524 66.250469 
L 406.577049 66.250469 
L 410.888858 66.250469 
L 415.200666 66.250469 
L 419.512475 66.250469 
L 423.824283 66.250469 
L 428.136092 66.250469 
L 432.447901 66.250469 
L 436.759709 66.250469 
L 441.071518 66.250469 
L 445.383326 66.250469 
L 449.695135 66.250469 
L 454.006944 66.250469 
L 458.318752 66.250469 
L 462.630561 66.250469 
L 466.942369 66.250469 
L 471.254178 66.250469 
L 475.565987 66.250469 
L 479.877795 66.250469 
L 484.189604 66.250469 
" style="fill:none;stroke:#4169e1;stroke-linecap:square;stroke-width:2;"/>
   </g>
   <g id="line2d_2">
    <path clip-path="url(#pacd958008f)" d="M 57.320552 66.250469 
L 484.189604 66.250469 
" style="fill:none;stroke:#000000;stroke-linecap:square;stroke-width:3;"/>
   </g>
   <g id="line2d_3">
    <path d="M 54.474759 74.411789 
L 54.474759 58.089149 
" style="fill:none;stroke:#c0c0c0;stroke-width:5;"/>
   </g>
   <g id="line2d_4">
    <path d="M 57.320552 74.411789 
L 57.320552 58.089149 
" style="fill:none;stroke:#000000;stroke-width:1.5;"/>
   </g>
   <g id="line2d_5">
    <path d="M 484.189604 66.250469 
" style="fill:none;stroke:#1f77b4;stroke-linecap:square;stroke-width:1.5;"/>
    <defs>
     <path d="M -4 0 
L 4 0 
M 0 4 
L 0 -4 
" id="m0ad5de4a7b" style="stroke:#b22222;"/>
    </defs>
    <g>
     <use style="fill:#b22222;stroke:#b22222;" x="484.189604" xlink:href="#m0ad5de4a7b" y="66.250469"/>
    </g>
   </g>
   <g id="line2d_6">
    <path d="M 484.189604 56.001057 
" style="fill:none;stroke:#ff7f0e;stroke-linecap:square;stroke-width:1.5;"/>
    <defs>
     <path d="M -3.5 -0 
L 3.5 3.5 
L 3.5 -3.5 
z
" id="m7e8678d51b"/>
    </defs>
    <g>
     <use style="fill:#b22222;" x="484.189604" xlink:href="#m7e8678d51b" y="56.001057"/>
    </g>
   </g>
   <g id="patch_2">
    <path d="M 476.435294 61.962436 
C 476.051694 62.962234 475.804747 64.029724 475.703959 65.123817 
C 475.603171 66.217909 475.649851 67.324385 475.842202 68.400653 
C 476.034554 69.476921 476.370078 70.508994 476.835858 71.457146 
C 477.301639 72.405298 477.891622 73.257205 478.5831 73.980077 
C 479.274578 74.702949 480.058562 75.28739 480.904877 75.710905 
C 481.751191 76.134419 482.648836 76.391503 483.56326 76.47226 
C 484.477685 76.553018 485.397003 76.456399 486.28583 76.186123 
C 487.174657 75.915847 488.02144 75.475427 488.793585 74.881815 
C 489.565731 74.288202 490.253203 73.549114 490.829541 72.692996 
C 491.405878 71.836879 491.86359 70.874861 492.185059 69.843971 
C 492.506528 68.81308 492.687575 67.726717 492.721231 66.626695 
C 492.754888 65.526674 492.640717 64.427292 492.383112 63.370866 
C 492.125508 62.31444 491.727818 61.3147 491.205351 60.410128 
C 490.682884 59.505556 490.04243 58.707908 489.308641 58.047887 
C 488.574852 57.387867 487.757265 56.874051 486.88735 56.526219 
C 486.017435 56.178386 485.106499 56.001057 484.189604 56.001057 
" style="fill:none;stroke:#b22222;stroke-linejoin:miter;stroke-width:2;"/>
   </g>
  </g>
  <g id="axes_2">
   <g id="patch_3">
    <path d="M 57.320552 264.881635 
L 484.189604 264.881635 
L 484.189604 138.381177 
L 57.320552 138.381177 
z
" style="fill:#ffffff;"/>
   </g>
   <g id="PolyCollection_2">
    <defs>
     <path d="M 57.320552 -374.368594 
L 57.320552 -374.368594 
L 61.632361 -374.368594 
L 65.94417 -374.368594 
L 70.255978 -374.368594 
L 74.567787 -374.368594 
L 78.879595 -374.368594 
L 83.191404 -374.368594 
L 87.503213 -374.368594 
L 91.815021 -374.368594 
L 96.12683 -374.368594 
L 100.438638 -374.368594 
L 104.750447 -374.368594 
L 109.062256 -374.368594 
L 113.374064 -374.368594 
L 117.685873 -374.368594 
L 121.997681 -374.368594 
L 126.30949 -374.368594 
L 130.621299 -374.368594 
L 134.933107 -374.368594 
L 139.244916 -374.368594 
L 143.556724 -374.368594 
L 147.868533 -374.368594 
L 152.180342 -374.368594 
L 156.49215 -374.368594 
L 160.803959 -374.368594 
L 165.115767 -374.368594 
L 169.427576 -374.368594 
L 173.739385 -374.368594 
L 178.051193 -374.368594 
L 182.363002 -374.368594 
L 186.67481 -374.368594 
L 190.986619 -374.368594 
L 195.298428 -374.368594 
L 199.610236 -374.368594 
L 203.922045 -374.368594 
L 208.233853 -374.368594 
L 212.545662 -374.368594 
L 216.857471 -374.368594 
L 221.169279 -374.368594 
L 225.481088 -374.368594 
L 229.792896 -374.368594 
L 234.104705 -374.368594 
L 238.416514 -374.368594 
L 242.728322 -374.368594 
L 247.040131 -374.368594 
L 251.351939 -374.368594 
L 255.663748 -374.368594 
L 259.975557 -374.368594 
L 264.287365 -374.368594 
L 268.599174 -374.368594 
L 272.910982 -374.368594 
L 277.222791 -374.368594 
L 281.5346 -374.368594 
L 285.846408 -374.368594 
L 290.158217 -374.368594 
L 294.470025 -374.368594 
L 298.781834 -374.368594 
L 303.093643 -374.368594 
L 307.405451 -374.368594 
L 311.71726 -374.368594 
L 316.029068 -374.368594 
L 320.340877 -374.368594 
L 324.652686 -374.368594 
L 328.964494 -374.368594 
L 333.276303 -374.368594 
L 337.588111 -374.368594 
L 341.89992 -374.368594 
L 346.211729 -374.368594 
L 350.523537 -374.368594 
L 354.835346 -374.368594 
L 359.147154 -374.368594 
L 363.458963 -374.368594 
L 367.770772 -374.368594 
L 372.08258 -374.368594 
L 376.394389 -374.368594 
L 380.706197 -374.368594 
L 385.018006 -374.368594 
L 389.329815 -374.368594 
L 393.641623 -374.368594 
L 397.953432 -374.368594 
L 402.26524 -374.368594 
L 406.577049 -374.368594 
L 410.888858 -374.368594 
L 415.200666 -374.368594 
L 419.512475 -374.368594 
L 423.824283 -374.368594 
L 428.136092 -374.368594 
L 432.447901 -374.368594 
L 436.759709 -374.368594 
L 441.071518 -374.368594 
L 445.383326 -374.368594 
L 449.695135 -374.368594 
L 454.006944 -374.368594 
L 458.318752 -374.368594 
L 462.630561 -374.368594 
L 466.942369 -374.368594 
L 471.254178 -374.368594 
L 475.565987 -374.368594 
L 479.877795 -374.368594 
L 484.189604 -374.368594 
L 484.189604 -374.368594 
L 484.189604 -374.368594 
L 479.877795 -374.368594 
L 475.565987 -374.368594 
L 471.254178 -374.368594 
L 466.942369 -374.368594 
L 462.630561 -374.368594 
L 458.318752 -374.368594 
L 454.006944 -374.368594 
L 449.695135 -374.368594 
L 445.383326 -374.368594 
L 441.071518 -374.368594 
L 436.759709 -374.368594 
L 432.447901 -374.368594 
L 428.136092 -374.368594 
L 423.824283 -374.368594 
L 419.512475 -374.368594 
L 415.200666 -374.368594 
L 410.888858 -374.368594 
L 406.577049 -374.368594 
L 402.26524 -374.368594 
L 397.953432 -374.368594 
L 393.641623 -374.368594 
L 389.329815 -374.368594 
L 385.018006 -374.368594 
L 380.706197 -374.368594 
L 376.394389 -374.368594 
L 372.08258 -374.368594 
L 367.770772 -374.368594 
L 363.458963 -374.368594 
L 359.147154 -374.368594 
L 354.835346 -374.368594 
L 350.523537 -374.368594 
L 346.211729 -374.368594 
L 341.89992 -374.368594 
L 337.588111 -374.368594 
L 333.276303 -374.368594 
L 328.964494 -374.368594 
L 324.652686 -374.368594 
L 320.340877 -374.368594 
L 316.029068 -374.368594 
L 311.71726 -374.368594 
L 307.405451 -374.368594 
L 303.093643 -374.368594 
L 298.781834 -374.368594 
L 294.470025 -374.368594 
L 290.158217 -374.368594 
L 285.846408 -374.368594 
L 281.5346 -374.368594 
L 277.222791 -374.368594 
L 272.910982 -374.368594 
L 268.599174 -374.368594 
L 264.287365 -374.368594 
L 259.975557 -374.368594 
L 255.663748 -374.368594 
L 251.351939 -374.368594 
L 247.040131 -374.368594 
L 242.728322 -374.368594 
L 238.416514 -374.368594 
L 234.104705 -374.368594 
L 229.792896 -374.368594 
L 225.481088 -374.368594 
L 221.169279 -374.368594 
L 216.857471 -374.368594 
L 212.545662 -374.368594 
L 208.233853 -374.368594 
L 203.922045 -374.368594 
L 199.610236 -374.368594 
L 195.298428 -374.368594 
L 190.986619 -374.368594 
L 186.67481 -374.368594 
L 182.363002 -374.368594 
L 178.051193 -374.368594 
L 173.739385 -374.368594 
L 169.427576 -374.368594 
L 165.115767 -374.368594 
L 160.803959 -374.368594 
L 156.49215 -374.368594 
L 152.180342 -374.368594 
L 147.868533 -374.368594 
L 143.556724 -374.368594 
L 139.244916 -374.368594 
L 134.933107 -374.368594 
L 130.621299 -374.368594 
L 126.30949 -374.368594 
L 121.997681 -374.368594 
L 117.685873 -374.368594 
L 113.374064 -374.368594 
L 109.062256 -374.368594 
L 104.750447 -374.368594 
L 100.438638 -374.368594 
L 96.12683 -374.368594 
L 91.815021 -374.368594 
L 87.503213 -374.368594 
L 83.191404 -374.368594 
L 78.879595 -374.368594 
L 74.567787 -374.368594 
L 70.255978 -374.368594 
L 65.94417 -374.368594 
L 61.632361 -374.368594 
L 57.320552 -374.368594 
z
" id="m65f3409b82" style="stroke:#228b22;stroke-opacity:0.35;"/>
    </defs>
    <g clip-path="url(#pc399a29501)">
     <use style="fill:#228b22;fill-opacity:0.35;stroke:#228b22;stroke-opacity:0.35;" x="0" xlink:href="#m65f3409b82" y="576"/>
    </g>
   </g>
   <g id="matplotlib.axis_1">
    <g id="xtick_1">
     <g id="line2d_7">
      <defs>
       <path d="M 0 0 
L 0 3.5 
" id="m5f60f1a625" style="stroke:#000000;stroke-width:0.8;"/>
      </defs>
      <g>
       <use style="stroke:#000000;stroke-width:0.8;" x="57.320552" xlink:href="#m5f60f1a625" y="264.881635"/>
      </g>
     </g>
    </g>
    <g id="xtick_2">
     <g id="line2d_8">
      <g>
       <use style="stroke:#000000;stroke-width:0.8;" x="142.694363" xlink:href="#m5f60f1a625" y="264.881635"/>
      </g>
     </g>
    </g>
    <g id="xtick_3">
     <g id="line2d_9">
      <g>
       <use style="stroke:#000000;stroke-width:0.8;" x="228.068173" xlink:href="#m5f60f1a625" y="264.881635"/>
      </g>
     </g>
    </g>
    <g id="xtick_4">
     <g id="line2d_10">
      <g>
       <use style="stroke:#000000;stroke-width:0.8;" x="313.441983" xlink:href="#m5f60f1a625" y="264.881635"/>
      </g>
     </g>
    </g>
    <g id="xtick_5">
     <g id="line2d_11">
      <g>
       <use style="stroke:#000000;stroke-width:0.8;" x="398.815794" xlink:href="#m5f60f1a625" y="264.881635"/>
      </g>
     </g>
    </g>
    <g id="xtick_6">
     <g id="line2d_12">
      <g>
       <use style="stroke:#000000;stroke-width:0.8;" x="484.189604" xlink:href="#m5f60f1a625" y="264.881635"/>
      </g>
     </g>
    </g>
   </g>
   <g id="matplotlib.axis_2">
    <g id="ytick_1">
     <g id="line2d_13">
      <defs>
       <path d="M 0 0 
L -3.5 0 
" id="m30d5c5bbb0" style="stroke:#000000;stroke-width:0.8;"/>
      </defs>
      <g>
       <use style="stroke:#000000;stroke-width:0.8;" x="57.320552" xlink:href="#m30d5c5bbb0" y="247.631573"/>
      </g>
     </g>
     <g id="text_1">
      <!-- -4e-02 -->
      <defs>
       <path d="M 4.890625 31.390625 
L 31.203125 31.390625 
L 31.203125 23.390625 
L 4.890625 23.390625 
z
" id="DejaVuSans-45"/>
       <path d="M 37.796875 64.3125 
L 12.890625 25.390625 
L 37.796875 25.390625 
z
M 35.203125 72.90625 
L 47.609375 72.90625 
L 47.609375 25.390625 
L 58.015625 25.390625 
L 58.015625 17.1875 
L 47.609375 17.1875 
L 47.609375 0 
L 37.796875 0 
L 37.796875 17.1875 
L 4.890625 17.1875 
L 4.890625 26.703125 
z
" id="DejaVuSans-52"/>
       <path d="M 56.203125 29.59375 
L 56.203125 25.203125 
L 14.890625 25.203125 
Q 15.484375 15.921875 20.484375 11.0625 
Q 25.484375 6.203125 34.421875 6.203125 
Q 39.59375 6.203125 44.453125 7.46875 
Q 49.3125 8.734375 54.109375 11.28125 
L 54.109375 2.78125 
Q 49.265625 0.734375 44.1875 -0.34375 
Q 39.109375 -1.421875 33.890625 -1.421875 
Q 20.796875 -1.421875 13.15625 6.1875 
Q 5.515625 13.8125 5.515625 26.8125 
Q 5.515625 40.234375 12.765625 48.109375 
Q 20.015625 56 32.328125 56 
Q 43.359375 56 49.78125 48.890625 
Q 56.203125 41.796875 56.203125 29.59375 
z
M 47.21875 32.234375 
Q 47.125 39.59375 43.09375 43.984375 
Q 39.0625 48.390625 32.421875 48.390625 
Q 24.90625 48.390625 20.390625 44.140625 
Q 15.875 39.890625 15.1875 32.171875 
z
" id="DejaVuSans-101"/>
       <path d="M 31.78125 66.40625 
Q 24.171875 66.40625 20.328125 58.90625 
Q 16.5 51.421875 16.5 36.375 
Q 16.5 21.390625 20.328125 13.890625 
Q 24.171875 6.390625 31.78125 6.390625 
Q 39.453125 6.390625 43.28125 13.890625 
Q 47.125 21.390625 47.125 36.375 
Q 47.125 51.421875 43.28125 58.90625 
Q 39.453125 66.40625 31.78125 66.40625 
z
M 31.78125 74.21875 
Q 44.046875 74.21875 50.515625 64.515625 
Q 56.984375 54.828125 56.984375 36.375 
Q 56.984375 17.96875 50.515625 8.265625 
Q 44.046875 -1.421875 31.78125 -1.421875 
Q 19.53125 -1.421875 13.0625 8.265625 
Q 6.59375 17.96875 6.59375 36.375 
Q 6.59375 54.828125 13.0625 64.515625 
Q 19.53125 74.21875 31.78125 74.21875 
z
" id="DejaVuSans-48"/>
       <path d="M 19.1875 8.296875 
L 53.609375 8.296875 
L 53.609375 0 
L 7.328125 0 
L 7.328125 8.296875 
Q 12.9375 14.109375 22.625 23.890625 
Q 32.328125 33.6875 34.8125 36.53125 
Q 39.546875 41.84375 41.421875 45.53125 
Q 43.3125 49.21875 43.3125 52.78125 
Q 43.3125 58.59375 39.234375 62.25 
Q 35.15625 65.921875 28.609375 65.921875 
Q 23.96875 65.921875 18.8125 64.3125 
Q 13.671875 62.703125 7.8125 59.421875 
L 7.8125 69.390625 
Q 13.765625 71.78125 18.9375 73 
Q 24.125 74.21875 28.421875 74.21875 
Q 39.75 74.21875 46.484375 68.546875 
Q 53.21875 62.890625 53.21875 53.421875 
Q 53.21875 48.921875 51.53125 44.890625 
Q 49.859375 40.875 45.40625 35.40625 
Q 44.1875 33.984375 37.640625 27.21875 
Q 31.109375 20.453125 19.1875 8.296875 
z
" id="DejaVuSans-50"/>
      </defs>
      <g transform="translate(17.864302 251.430791)scale(0.1 -0.1)">
       <use xlink:href="#DejaVuSans-45"/>
       <use x="36.083984" xlink:href="#DejaVuSans-52"/>
       <use x="99.707031" xlink:href="#DejaVuSans-101"/>
       <use x="161.230469" xlink:href="#DejaVuSans-45"/>
       <use x="197.314453" xlink:href="#DejaVuSans-48"/>
       <use x="260.9375" xlink:href="#DejaVuSans-50"/>
      </g>
     </g>
    </g>
    <g id="ytick_2">
     <g id="line2d_14">
      <g>
       <use style="stroke:#000000;stroke-width:0.8;" x="57.320552" xlink:href="#m30d5c5bbb0" y="224.631489"/>
      </g>
     </g>
     <g id="text_2">
      <!-- -2e-02 -->
      <g transform="translate(17.864302 228.430708)scale(0.1 -0.1)">
       <use xlink:href="#DejaVuSans-45"/>
       <use x="36.083984" xlink:href="#DejaVuSans-50"/>
       <use x="99.707031" xlink:href="#DejaVuSans-101"/>
       <use x="161.230469" xlink:href="#DejaVuSans-45"/>
       <use x="197.314453" xlink:href="#DejaVuSans-48"/>
       <use x="260.9375" xlink:href="#DejaVuSans-50"/>
      </g>
     </g>
    </g>
    <g id="ytick_3">
     <g id="line2d_15">
      <g>
       <use style="stroke:#000000;stroke-width:0.8;" x="57.320552" xlink:href="#m30d5c5bbb0" y="201.631406"/>
      </g>
     </g>
     <g id="text_3">
      <!-- 0e+00 -->
      <defs>
       <path d="M 46 62.703125 
L 46 35.5 
L 73.1875 35.5 
L 73.1875 27.203125 
L 46 27.203125 
L 46 0 
L 37.796875 0 
L 37.796875 27.203125 
L 10.59375 27.203125 
L 10.59375 35.5 
L 37.796875 35.5 
L 37.796875 62.703125 
z
" id="DejaVuSans-43"/>
      </defs>
      <g transform="translate(16.70024 205.430625)scale(0.1 -0.1)">
       <use xlink:href="#DejaVuSans-48"/>
       <use x="63.623047" xlink:href="#DejaVuSans-101"/>
       <use x="125.146484" xlink:href="#DejaVuSans-43"/>
       <use x="208.935547" xlink:href="#DejaVuSans-48"/>
       <use x="272.558594" xlink:href="#DejaVuSans-48"/>
      </g>
     </g>
    </g>
    <g id="ytick_4">
     <g id="line2d_16">
      <g>
       <use style="stroke:#000000;stroke-width:0.8;" x="57.320552" xlink:href="#m30d5c5bbb0" y="178.631323"/>
      </g>
     </g>
     <g id="text_4">
      <!-- 2e-02 -->
      <g transform="translate(21.472115 182.430542)scale(0.1 -0.1)">
       <use xlink:href="#DejaVuSans-50"/>
       <use x="63.623047" xlink:href="#DejaVuSans-101"/>
       <use x="125.146484" xlink:href="#DejaVuSans-45"/>
       <use x="161.230469" xlink:href="#DejaVuSans-48"/>
       <use x="224.853516" xlink:href="#DejaVuSans-50"/>
      </g>
     </g>
    </g>
    <g id="ytick_5">
     <g id="line2d_17">
      <g>
       <use style="stroke:#000000;stroke-width:0.8;" x="57.320552" xlink:href="#m30d5c5bbb0" y="155.63124"/>
      </g>
     </g>
     <g id="text_5">
      <!-- 4e-02 -->
      <g transform="translate(21.472115 159.430459)scale(0.1 -0.1)">
       <use xlink:href="#DejaVuSans-52"/>
       <use x="63.623047" xlink:href="#DejaVuSans-101"/>
       <use x="125.146484" xlink:href="#DejaVuSans-45"/>
       <use x="161.230469" xlink:href="#DejaVuSans-48"/>
       <use x="224.853516" xlink:href="#DejaVuSans-50"/>
      </g>
     </g>
    </g>
    <g id="text_6">
     <!-- Shear force, $V(x)$ -->
     <defs>
      <path d="M 53.515625 70.515625 
L 53.515625 60.890625 
Q 47.90625 63.578125 42.921875 64.890625 
Q 37.9375 66.21875 33.296875 66.21875 
Q 25.25 66.21875 20.875 63.09375 
Q 16.5 59.96875 16.5 54.203125 
Q 16.5 49.359375 19.40625 46.890625 
Q 22.3125 44.4375 30.421875 42.921875 
L 36.375 41.703125 
Q 47.40625 39.59375 52.65625 34.296875 
Q 57.90625 29 57.90625 20.125 
Q 57.90625 9.515625 50.796875 4.046875 
Q 43.703125 -1.421875 29.984375 -1.421875 
Q 24.8125 -1.421875 18.96875 -0.25 
Q 13.140625 0.921875 6.890625 3.21875 
L 6.890625 13.375 
Q 12.890625 10.015625 18.65625 8.296875 
Q 24.421875 6.59375 29.984375 6.59375 
Q 38.421875 6.59375 43.015625 9.90625 
Q 47.609375 13.234375 47.609375 19.390625 
Q 47.609375 24.75 44.3125 27.78125 
Q 41.015625 30.8125 33.5 32.328125 
L 27.484375 33.5 
Q 16.453125 35.6875 11.515625 40.375 
Q 6.59375 45.0625 6.59375 53.421875 
Q 6.59375 63.09375 13.40625 68.65625 
Q 20.21875 74.21875 32.171875 74.21875 
Q 37.3125 74.21875 42.625 73.28125 
Q 47.953125 72.359375 53.515625 70.515625 
z
" id="DejaVuSans-83"/>
      <path d="M 54.890625 33.015625 
L 54.890625 0 
L 45.90625 0 
L 45.90625 32.71875 
Q 45.90625 40.484375 42.875 44.328125 
Q 39.84375 48.1875 33.796875 48.1875 
Q 26.515625 48.1875 22.3125 43.546875 
Q 18.109375 38.921875 18.109375 30.90625 
L 18.109375 0 
L 9.078125 0 
L 9.078125 75.984375 
L 18.109375 75.984375 
L 18.109375 46.1875 
Q 21.34375 51.125 25.703125 53.5625 
Q 30.078125 56 35.796875 56 
Q 45.21875 56 50.046875 50.171875 
Q 54.890625 44.34375 54.890625 33.015625 
z
" id="DejaVuSans-104"/>
      <path d="M 34.28125 27.484375 
Q 23.390625 27.484375 19.1875 25 
Q 14.984375 22.515625 14.984375 16.5 
Q 14.984375 11.71875 18.140625 8.90625 
Q 21.296875 6.109375 26.703125 6.109375 
Q 34.1875 6.109375 38.703125 11.40625 
Q 43.21875 16.703125 43.21875 25.484375 
L 43.21875 27.484375 
z
M 52.203125 31.203125 
L 52.203125 0 
L 43.21875 0 
L 43.21875 8.296875 
Q 40.140625 3.328125 35.546875 0.953125 
Q 30.953125 -1.421875 24.3125 -1.421875 
Q 15.921875 -1.421875 10.953125 3.296875 
Q 6 8.015625 6 15.921875 
Q 6 25.140625 12.171875 29.828125 
Q 18.359375 34.515625 30.609375 34.515625 
L 43.21875 34.515625 
L 43.21875 35.40625 
Q 43.21875 41.609375 39.140625 45 
Q 35.0625 48.390625 27.6875 48.390625 
Q 23 48.390625 18.546875 47.265625 
Q 14.109375 46.140625 10.015625 43.890625 
L 10.015625 52.203125 
Q 14.9375 54.109375 19.578125 55.046875 
Q 24.21875 56 28.609375 56 
Q 40.484375 56 46.34375 49.84375 
Q 52.203125 43.703125 52.203125 31.203125 
z
" id="DejaVuSans-97"/>
      <path d="M 41.109375 46.296875 
Q 39.59375 47.171875 37.8125 47.578125 
Q 36.03125 48 33.890625 48 
Q 26.265625 48 22.1875 43.046875 
Q 18.109375 38.09375 18.109375 28.8125 
L 18.109375 0 
L 9.078125 0 
L 9.078125 54.6875 
L 18.109375 54.6875 
L 18.109375 46.1875 
Q 20.953125 51.171875 25.484375 53.578125 
Q 30.03125 56 36.53125 56 
Q 37.453125 56 38.578125 55.875 
Q 39.703125 55.765625 41.0625 55.515625 
z
" id="DejaVuSans-114"/>
      <path id="DejaVuSans-32"/>
      <path d="M 37.109375 75.984375 
L 37.109375 68.5 
L 28.515625 68.5 
Q 23.6875 68.5 21.796875 66.546875 
Q 19.921875 64.59375 19.921875 59.515625 
L 19.921875 54.6875 
L 34.71875 54.6875 
L 34.71875 47.703125 
L 19.921875 47.703125 
L 19.921875 0 
L 10.890625 0 
L 10.890625 47.703125 
L 2.296875 47.703125 
L 2.296875 54.6875 
L 10.890625 54.6875 
L 10.890625 58.5 
Q 10.890625 67.625 15.140625 71.796875 
Q 19.390625 75.984375 28.609375 75.984375 
z
" id="DejaVuSans-102"/>
      <path d="M 30.609375 48.390625 
Q 23.390625 48.390625 19.1875 42.75 
Q 14.984375 37.109375 14.984375 27.296875 
Q 14.984375 17.484375 19.15625 11.84375 
Q 23.34375 6.203125 30.609375 6.203125 
Q 37.796875 6.203125 41.984375 11.859375 
Q 46.1875 17.53125 46.1875 27.296875 
Q 46.1875 37.015625 41.984375 42.703125 
Q 37.796875 48.390625 30.609375 48.390625 
z
M 30.609375 56 
Q 42.328125 56 49.015625 48.375 
Q 55.71875 40.765625 55.71875 27.296875 
Q 55.71875 13.875 49.015625 6.21875 
Q 42.328125 -1.421875 30.609375 -1.421875 
Q 18.84375 -1.421875 12.171875 6.21875 
Q 5.515625 13.875 5.515625 27.296875 
Q 5.515625 40.765625 12.171875 48.375 
Q 18.84375 56 30.609375 56 
z
" id="DejaVuSans-111"/>
      <path d="M 48.78125 52.59375 
L 48.78125 44.1875 
Q 44.96875 46.296875 41.140625 47.34375 
Q 37.3125 48.390625 33.40625 48.390625 
Q 24.65625 48.390625 19.8125 42.84375 
Q 14.984375 37.3125 14.984375 27.296875 
Q 14.984375 17.28125 19.8125 11.734375 
Q 24.65625 6.203125 33.40625 6.203125 
Q 37.3125 6.203125 41.140625 7.25 
Q 44.96875 8.296875 48.78125 10.40625 
L 48.78125 2.09375 
Q 45.015625 0.34375 40.984375 -0.53125 
Q 36.96875 -1.421875 32.421875 -1.421875 
Q 20.0625 -1.421875 12.78125 6.34375 
Q 5.515625 14.109375 5.515625 27.296875 
Q 5.515625 40.671875 12.859375 48.328125 
Q 20.21875 56 33.015625 56 
Q 37.15625 56 41.109375 55.140625 
Q 45.0625 54.296875 48.78125 52.59375 
z
" id="DejaVuSans-99"/>
      <path d="M 11.71875 12.40625 
L 22.015625 12.40625 
L 22.015625 4 
L 14.015625 -11.625 
L 7.71875 -11.625 
L 11.71875 4 
z
" id="DejaVuSans-44"/>
      <path d="M 20.609375 0 
L 7.8125 72.90625 
L 17.484375 72.90625 
L 28.078125 10.203125 
L 63.484375 72.90625 
L 74.21875 72.90625 
L 32.078125 0 
z
" id="DejaVuSans-Oblique-86"/>
      <path d="M 31 75.875 
Q 24.46875 64.65625 21.28125 53.65625 
Q 18.109375 42.671875 18.109375 31.390625 
Q 18.109375 20.125 21.3125 9.0625 
Q 24.515625 -2 31 -13.1875 
L 23.1875 -13.1875 
Q 15.875 -1.703125 12.234375 9.375 
Q 8.59375 20.453125 8.59375 31.390625 
Q 8.59375 42.28125 12.203125 53.3125 
Q 15.828125 64.359375 23.1875 75.875 
z
" id="DejaVuSans-40"/>
      <path d="M 60.015625 54.6875 
L 34.90625 27.875 
L 50.296875 0 
L 39.984375 0 
L 28.421875 21.6875 
L 8.296875 0 
L -2.59375 0 
L 24.3125 28.8125 
L 10.015625 54.6875 
L 20.3125 54.6875 
L 30.8125 34.90625 
L 49.125 54.6875 
z
" id="DejaVuSans-Oblique-120"/>
      <path d="M 8.015625 75.875 
L 15.828125 75.875 
Q 23.140625 64.359375 26.78125 53.3125 
Q 30.421875 42.28125 30.421875 31.390625 
Q 30.421875 20.453125 26.78125 9.375 
Q 23.140625 -1.703125 15.828125 -13.1875 
L 8.015625 -13.1875 
Q 14.5 -2 17.703125 9.0625 
Q 20.90625 20.125 20.90625 31.390625 
Q 20.90625 42.671875 17.703125 53.65625 
Q 14.5 64.65625 8.015625 75.875 
z
" id="DejaVuSans-41"/>
     </defs>
     <g transform="translate(10.620552 243.931406)rotate(-90)scale(0.1 -0.1)">
      <use transform="translate(0 0.015625)" xlink:href="#DejaVuSans-83"/>
      <use transform="translate(63.476562 0.015625)" xlink:href="#DejaVuSans-104"/>
      <use transform="translate(126.855469 0.015625)" xlink:href="#DejaVuSans-101"/>
      <use transform="translate(188.378906 0.015625)" xlink:href="#DejaVuSans-97"/>
      <use transform="translate(249.658203 0.015625)" xlink:href="#DejaVuSans-114"/>
      <use transform="translate(290.771484 0.015625)" xlink:href="#DejaVuSans-32"/>
      <use transform="translate(322.558594 0.015625)" xlink:href="#DejaVuSans-102"/>
      <use transform="translate(357.763672 0.015625)" xlink:href="#DejaVuSans-111"/>
      <use transform="translate(418.945312 0.015625)" xlink:href="#DejaVuSans-114"/>
      <use transform="translate(460.058594 0.015625)" xlink:href="#DejaVuSans-99"/>
      <use transform="translate(515.039062 0.015625)" xlink:href="#DejaVuSans-101"/>
      <use transform="translate(576.5625 0.015625)" xlink:href="#DejaVuSans-44"/>
      <use transform="translate(608.349609 0.015625)" xlink:href="#DejaVuSans-32"/>
      <use transform="translate(640.136719 0.015625)" xlink:href="#DejaVuSans-Oblique-86"/>
      <use transform="translate(708.544922 0.015625)" xlink:href="#DejaVuSans-40"/>
      <use transform="translate(747.558594 0.015625)" xlink:href="#DejaVuSans-Oblique-120"/>
      <use transform="translate(806.738281 0.015625)" xlink:href="#DejaVuSans-41"/>
     </g>
    </g>
   </g>
   <g id="line2d_18">
    <path clip-path="url(#pc399a29501)" d="M 57.320552 201.631406 
L 61.632361 201.631406 
L 65.94417 201.631406 
L 70.255978 201.631406 
L 74.567787 201.631406 
L 78.879595 201.631406 
L 83.191404 201.631406 
L 87.503213 201.631406 
L 91.815021 201.631406 
L 96.12683 201.631406 
L 100.438638 201.631406 
L 104.750447 201.631406 
L 109.062256 201.631406 
L 113.374064 201.631406 
L 117.685873 201.631406 
L 121.997681 201.631406 
L 126.30949 201.631406 
L 130.621299 201.631406 
L 134.933107 201.631406 
L 139.244916 201.631406 
L 143.556724 201.631406 
L 147.868533 201.631406 
L 152.180342 201.631406 
L 156.49215 201.631406 
L 160.803959 201.631406 
L 165.115767 201.631406 
L 169.427576 201.631406 
L 173.739385 201.631406 
L 178.051193 201.631406 
L 182.363002 201.631406 
L 186.67481 201.631406 
L 190.986619 201.631406 
L 195.298428 201.631406 
L 199.610236 201.631406 
L 203.922045 201.631406 
L 208.233853 201.631406 
L 212.545662 201.631406 
L 216.857471 201.631406 
L 221.169279 201.631406 
L 225.481088 201.631406 
L 229.792896 201.631406 
L 234.104705 201.631406 
L 238.416514 201.631406 
L 242.728322 201.631406 
L 247.040131 201.631406 
L 251.351939 201.631406 
L 255.663748 201.631406 
L 259.975557 201.631406 
L 264.287365 201.631406 
L 268.599174 201.631406 
L 272.910982 201.631406 
L 277.222791 201.631406 
L 281.5346 201.631406 
L 285.846408 201.631406 
L 290.158217 201.631406 
L 294.470025 201.631406 
L 298.781834 201.631406 
L 303.093643 201.631406 
L 307.405451 201.631406 
L 311.71726 201.631406 
L 316.029068 201.631406 
L 320.340877 201.631406 
L 324.652686 201.631406 
L 328.964494 201.631406 
L 333.276303 201.631406 
L 337.588111 201.631406 
L 341.89992 201.631406 
L 346.211729 201.631406 
L 350.523537 201.631406 
L 354.835346 201.631406 
L 359.147154 201.631406 
L 363.458963 201.631406 
L 367.770772 201.631406 
L 372.08258 201.631406 
L 376.394389 201.631406 
L 380.706197 201.631406 
L 385.018006 201.631406 
L 389.329815 201.631406 
L 393.641623 201.631406 
L 397.953432 201.631406 
L 402.26524 201.631406 
L 406.577049 201.631406 
L 410.888858 201.631406 
L 415.200666 201.631406 
L 419.512475 201.631406 
L 423.824283 201.631406 
L 428.136092 201.631406 
L 432.447901 201.631406 
L 436.759709 201.631406 
L 441.071518 201.631406 
L 445.383326 201.631406 
L 449.695135 201.631406 
L 454.006944 201.631406 
L 458.318752 201.631406 
L 462.630561 201.631406 
L 466.942369 201.631406 
L 471.254178 201.631406 
L 475.565987 201.631406 
L 479.877795 201.631406 
L 484.189604 201.631406 
" style="fill:none;stroke:#228b22;stroke-linecap:square;stroke-width:2;"/>
   </g>
   <g id="patch_4">
    <path d="M 57.320552 264.881635 
L 57.320552 138.381177 
" style="fill:none;stroke:#000000;stroke-linecap:square;stroke-linejoin:miter;stroke-width:0.8;"/>
   </g>
   <g id="patch_5">
    <path d="M 484.189604 264.881635 
L 484.189604 138.381177 
" style="fill:none;stroke:#000000;stroke-linecap:square;stroke-linejoin:miter;stroke-width:0.8;"/>
   </g>
   <g id="patch_6">
    <path d="M 57.320552 264.881635 
L 484.189604 264.881635 
" style="fill:none;stroke:#000000;stroke-linecap:square;stroke-linejoin:miter;stroke-width:0.8;"/>
   </g>
   <g id="patch_7">
    <path d="M 57.320552 138.381177 
L 484.189604 138.381177 
" style="fill:none;stroke:#000000;stroke-linecap:square;stroke-linejoin:miter;stroke-width:0.8;"/>
   </g>
  </g>
  <g id="axes_3">
   <g id="patch_8">
    <path d="M 57.320552 403.762572 
L 484.189604 403.762572 
L 484.189604 277.262115 
L 57.320552 277.262115 
z
" style="fill:#ffffff;"/>
   </g>
   <g id="PolyCollection_3">
    <defs>
     <path d="M 57.320552 -177.987448 
L 57.320552 -292.987864 
L 61.632361 -292.987864 
L 65.94417 -292.987864 
L 70.255978 -292.987864 
L 74.567787 -292.987864 
L 78.879595 -292.987864 
L 83.191404 -292.987864 
L 87.503213 -292.987864 
L 91.815021 -292.987864 
L 96.12683 -292.987864 
L 100.438638 -292.987864 
L 104.750447 -292.987864 
L 109.062256 -292.987864 
L 113.374064 -292.987864 
L 117.685873 -292.987864 
L 121.997681 -292.987864 
L 126.30949 -292.987864 
L 130.621299 -292.987864 
L 134.933107 -292.987864 
L 139.244916 -292.987864 
L 143.556724 -292.987864 
L 147.868533 -292.987864 
L 152.180342 -292.987864 
L 156.49215 -292.987864 
L 160.803959 -292.987864 
L 165.115767 -292.987864 
L 169.427576 -292.987864 
L 173.739385 -292.987864 
L 178.051193 -292.987864 
L 182.363002 -292.987864 
L 186.67481 -292.987864 
L 190.986619 -292.987864 
L 195.298428 -292.987864 
L 199.610236 -292.987864 
L 203.922045 -292.987864 
L 208.233853 -292.987864 
L 212.545662 -292.987864 
L 216.857471 -292.987864 
L 221.169279 -292.987864 
L 225.481088 -292.987864 
L 229.792896 -292.987864 
L 234.104705 -292.987864 
L 238.416514 -292.987864 
L 242.728322 -292.987864 
L 247.040131 -292.987864 
L 251.351939 -292.987864 
L 255.663748 -292.987864 
L 259.975557 -292.987864 
L 264.287365 -292.987864 
L 268.599174 -292.987864 
L 272.910982 -292.987864 
L 277.222791 -292.987864 
L 281.5346 -292.987864 
L 285.846408 -292.987864 
L 290.158217 -292.987864 
L 294.470025 -292.987864 
L 298.781834 -292.987864 
L 303.093643 -292.987864 
L 307.405451 -292.987864 
L 311.71726 -292.987864 
L 316.029068 -292.987864 
L 320.340877 -292.987864 
L 324.652686 -292.987864 
L 328.964494 -292.987864 
L 333.276303 -292.987864 
L 337.588111 -292.987864 
L 341.89992 -292.987864 
L 346.211729 -292.987864 
L 350.523537 -292.987864 
L 354.835346 -292.987864 
L 359.147154 -292.987864 
L 363.458963 -292.987864 
L 367.770772 -292.987864 
L 372.08258 -292.987864 
L 376.394389 -292.987864 
L 380.706197 -292.987864 
L 385.018006 -292.987864 
L 389.329815 -292.987864 
L 393.641623 -292.987864 
L 397.953432 -292.987864 
L 402.26524 -292.987864 
L 406.577049 -292.987864 
L 410.888858 -292.987864 
L 415.200666 -292.987864 
L 419.512475 -292.987864 
L 423.824283 -292.987864 
L 428.136092 -292.987864 
L 432.447901 -292.987864 
L 436.759709 -292.987864 
L 441.071518 -292.987864 
L 445.383326 -292.987864 
L 449.695135 -292.987864 
L 454.006944 -292.987864 
L 458.318752 -292.987864 
L 462.630561 -292.987864 
L 466.942369 -292.987864 
L 471.254178 -292.987864 
L 475.565987 -292.987864 
L 479.877795 -292.987864 
L 484.189604 -292.987864 
L 484.189604 -177.987448 
L 484.189604 -177.987448 
L 479.877795 -177.987448 
L 475.565987 -177.987448 
L 471.254178 -177.987448 
L 466.942369 -177.987448 
L 462.630561 -177.987448 
L 458.318752 -177.987448 
L 454.006944 -177.987448 
L 449.695135 -177.987448 
L 445.383326 -177.987448 
L 441.071518 -177.987448 
L 436.759709 -177.987448 
L 432.447901 -177.987448 
L 428.136092 -177.987448 
L 423.824283 -177.987448 
L 419.512475 -177.987448 
L 415.200666 -177.987448 
L 410.888858 -177.987448 
L 406.577049 -177.987448 
L 402.26524 -177.987448 
L 397.953432 -177.987448 
L 393.641623 -177.987448 
L 389.329815 -177.987448 
L 385.018006 -177.987448 
L 380.706197 -177.987448 
L 376.394389 -177.987448 
L 372.08258 -177.987448 
L 367.770772 -177.987448 
L 363.458963 -177.987448 
L 359.147154 -177.987448 
L 354.835346 -177.987448 
L 350.523537 -177.987448 
L 346.211729 -177.987448 
L 341.89992 -177.987448 
L 337.588111 -177.987448 
L 333.276303 -177.987448 
L 328.964494 -177.987448 
L 324.652686 -177.987448 
L 320.340877 -177.987448 
L 316.029068 -177.987448 
L 311.71726 -177.987448 
L 307.405451 -177.987448 
L 303.093643 -177.987448 
L 298.781834 -177.987448 
L 294.470025 -177.987448 
L 290.158217 -177.987448 
L 285.846408 -177.987448 
L 281.5346 -177.987448 
L 277.222791 -177.987448 
L 272.910982 -177.987448 
L 268.599174 -177.987448 
L 264.287365 -177.987448 
L 259.975557 -177.987448 
L 255.663748 -177.987448 
L 251.351939 -177.987448 
L 247.040131 -177.987448 
L 242.728322 -177.987448 
L 238.416514 -177.987448 
L 234.104705 -177.987448 
L 229.792896 -177.987448 
L 225.481088 -177.987448 
L 221.169279 -177.987448 
L 216.857471 -177.987448 
L 212.545662 -177.987448 
L 208.233853 -177.987448 
L 203.922045 -177.987448 
L 199.610236 -177.987448 
L 195.298428 -177.987448 
L 190.986619 -177.987448 
L 186.67481 -177.987448 
L 182.363002 -177.987448 
L 178.051193 -177.987448 
L 173.739385 -177.987448 
L 169.427576 -177.987448 
L 165.115767 -177.987448 
L 160.803959 -177.987448 
L 156.49215 -177.987448 
L 152.180342 -177.987448 
L 147.868533 -177.987448 
L 143.556724 -177.987448 
L 139.244916 -177.987448 
L 134.933107 -177.987448 
L 130.621299 -177.987448 
L 126.30949 -177.987448 
L 121.997681 -177.987448 
L 117.685873 -177.987448 
L 113.374064 -177.987448 
L 109.062256 -177.987448 
L 104.750447 -177.987448 
L 100.438638 -177.987448 
L 96.12683 -177.987448 
L 91.815021 -177.987448 
L 87.503213 -177.987448 
L 83.191404 -177.987448 
L 78.879595 -177.987448 
L 74.567787 -177.987448 
L 70.255978 -177.987448 
L 65.94417 -177.987448 
L 61.632361 -177.987448 
L 57.320552 -177.987448 
z
" id="ma09969cff6" style="stroke:#b22222;stroke-opacity:0.35;"/>
    </defs>
    <g clip-path="url(#p7e7874e1e7)">
     <use style="fill:#b22222;fill-opacity:0.35;stroke:#b22222;stroke-opacity:0.35;" x="0" xlink:href="#ma09969cff6" y="576"/>
    </g>
   </g>
   <g id="matplotlib.axis_3">
    <g id="xtick_7">
     <g id="line2d_19">
      <g>
       <use style="stroke:#000000;stroke-width:0.8;" x="57.320552" xlink:href="#m5f60f1a625" y="403.762572"/>
      </g>
     </g>
    </g>
    <g id="xtick_8">
     <g id="line2d_20">
      <g>
       <use style="stroke:#000000;stroke-width:0.8;" x="142.694363" xlink:href="#m5f60f1a625" y="403.762572"/>
      </g>
     </g>
    </g>
    <g id="xtick_9">
     <g id="line2d_21">
      <g>
       <use style="stroke:#000000;stroke-width:0.8;" x="228.068173" xlink:href="#m5f60f1a625" y="403.762572"/>
      </g>
     </g>
    </g>
    <g id="xtick_10">
     <g id="line2d_22">
      <g>
       <use style="stroke:#000000;stroke-width:0.8;" x="313.441983" xlink:href="#m5f60f1a625" y="403.762572"/>
      </g>
     </g>
    </g>
    <g id="xtick_11">
     <g id="line2d_23">
      <g>
       <use style="stroke:#000000;stroke-width:0.8;" x="398.815794" xlink:href="#m5f60f1a625" y="403.762572"/>
      </g>
     </g>
    </g>
    <g id="xtick_12">
     <g id="line2d_24">
      <g>
       <use style="stroke:#000000;stroke-width:0.8;" x="484.189604" xlink:href="#m5f60f1a625" y="403.762572"/>
      </g>
     </g>
    </g>
   </g>
   <g id="matplotlib.axis_4">
    <g id="ytick_6">
     <g id="line2d_25">
      <g>
       <use style="stroke:#000000;stroke-width:0.8;" x="57.320552" xlink:href="#m30d5c5bbb0" y="398.012552"/>
      </g>
     </g>
     <g id="text_7">
      <!-- 0e+00 -->
      <g transform="translate(16.70024 401.81177)scale(0.1 -0.1)">
       <use xlink:href="#DejaVuSans-48"/>
       <use x="63.623047" xlink:href="#DejaVuSans-101"/>
       <use x="125.146484" xlink:href="#DejaVuSans-43"/>
       <use x="208.935547" xlink:href="#DejaVuSans-48"/>
       <use x="272.558594" xlink:href="#DejaVuSans-48"/>
      </g>
     </g>
    </g>
    <g id="ytick_7">
     <g id="line2d_26">
      <g>
       <use style="stroke:#000000;stroke-width:0.8;" x="57.320552" xlink:href="#m30d5c5bbb0" y="375.012469"/>
      </g>
     </g>
     <g id="text_8">
      <!-- 2e-01 -->
      <defs>
       <path d="M 12.40625 8.296875 
L 28.515625 8.296875 
L 28.515625 63.921875 
L 10.984375 60.40625 
L 10.984375 69.390625 
L 28.421875 72.90625 
L 38.28125 72.90625 
L 38.28125 8.296875 
L 54.390625 8.296875 
L 54.390625 0 
L 12.40625 0 
z
" id="DejaVuSans-49"/>
      </defs>
      <g transform="translate(21.472115 378.811687)scale(0.1 -0.1)">
       <use xlink:href="#DejaVuSans-50"/>
       <use x="63.623047" xlink:href="#DejaVuSans-101"/>
       <use x="125.146484" xlink:href="#DejaVuSans-45"/>
       <use x="161.230469" xlink:href="#DejaVuSans-48"/>
       <use x="224.853516" xlink:href="#DejaVuSans-49"/>
      </g>
     </g>
    </g>
    <g id="ytick_8">
     <g id="line2d_27">
      <g>
       <use style="stroke:#000000;stroke-width:0.8;" x="57.320552" xlink:href="#m30d5c5bbb0" y="352.012385"/>
      </g>
     </g>
     <g id="text_9">
      <!-- 4e-01 -->
      <g transform="translate(21.472115 355.811604)scale(0.1 -0.1)">
       <use xlink:href="#DejaVuSans-52"/>
       <use x="63.623047" xlink:href="#DejaVuSans-101"/>
       <use x="125.146484" xlink:href="#DejaVuSans-45"/>
       <use x="161.230469" xlink:href="#DejaVuSans-48"/>
       <use x="224.853516" xlink:href="#DejaVuSans-49"/>
      </g>
     </g>
    </g>
    <g id="ytick_9">
     <g id="line2d_28">
      <g>
       <use style="stroke:#000000;stroke-width:0.8;" x="57.320552" xlink:href="#m30d5c5bbb0" y="329.012302"/>
      </g>
     </g>
     <g id="text_10">
      <!-- 6e-01 -->
      <defs>
       <path d="M 33.015625 40.375 
Q 26.375 40.375 22.484375 35.828125 
Q 18.609375 31.296875 18.609375 23.390625 
Q 18.609375 15.53125 22.484375 10.953125 
Q 26.375 6.390625 33.015625 6.390625 
Q 39.65625 6.390625 43.53125 10.953125 
Q 47.40625 15.53125 47.40625 23.390625 
Q 47.40625 31.296875 43.53125 35.828125 
Q 39.65625 40.375 33.015625 40.375 
z
M 52.59375 71.296875 
L 52.59375 62.3125 
Q 48.875 64.0625 45.09375 64.984375 
Q 41.3125 65.921875 37.59375 65.921875 
Q 27.828125 65.921875 22.671875 59.328125 
Q 17.53125 52.734375 16.796875 39.40625 
Q 19.671875 43.65625 24.015625 45.921875 
Q 28.375 48.1875 33.59375 48.1875 
Q 44.578125 48.1875 50.953125 41.515625 
Q 57.328125 34.859375 57.328125 23.390625 
Q 57.328125 12.15625 50.6875 5.359375 
Q 44.046875 -1.421875 33.015625 -1.421875 
Q 20.359375 -1.421875 13.671875 8.265625 
Q 6.984375 17.96875 6.984375 36.375 
Q 6.984375 53.65625 15.1875 63.9375 
Q 23.390625 74.21875 37.203125 74.21875 
Q 40.921875 74.21875 44.703125 73.484375 
Q 48.484375 72.75 52.59375 71.296875 
z
" id="DejaVuSans-54"/>
      </defs>
      <g transform="translate(21.472115 332.811521)scale(0.1 -0.1)">
       <use xlink:href="#DejaVuSans-54"/>
       <use x="63.623047" xlink:href="#DejaVuSans-101"/>
       <use x="125.146484" xlink:href="#DejaVuSans-45"/>
       <use x="161.230469" xlink:href="#DejaVuSans-48"/>
       <use x="224.853516" xlink:href="#DejaVuSans-49"/>
      </g>
     </g>
    </g>
    <g id="ytick_10">
     <g id="line2d_29">
      <g>
       <use style="stroke:#000000;stroke-width:0.8;" x="57.320552" xlink:href="#m30d5c5bbb0" y="306.012219"/>
      </g>
     </g>
     <g id="text_11">
      <!-- 8e-01 -->
      <defs>
       <path d="M 31.78125 34.625 
Q 24.75 34.625 20.71875 30.859375 
Q 16.703125 27.09375 16.703125 20.515625 
Q 16.703125 13.921875 20.71875 10.15625 
Q 24.75 6.390625 31.78125 6.390625 
Q 38.8125 6.390625 42.859375 10.171875 
Q 46.921875 13.96875 46.921875 20.515625 
Q 46.921875 27.09375 42.890625 30.859375 
Q 38.875 34.625 31.78125 34.625 
z
M 21.921875 38.8125 
Q 15.578125 40.375 12.03125 44.71875 
Q 8.5 49.078125 8.5 55.328125 
Q 8.5 64.0625 14.71875 69.140625 
Q 20.953125 74.21875 31.78125 74.21875 
Q 42.671875 74.21875 48.875 69.140625 
Q 55.078125 64.0625 55.078125 55.328125 
Q 55.078125 49.078125 51.53125 44.71875 
Q 48 40.375 41.703125 38.8125 
Q 48.828125 37.15625 52.796875 32.3125 
Q 56.78125 27.484375 56.78125 20.515625 
Q 56.78125 9.90625 50.3125 4.234375 
Q 43.84375 -1.421875 31.78125 -1.421875 
Q 19.734375 -1.421875 13.25 4.234375 
Q 6.78125 9.90625 6.78125 20.515625 
Q 6.78125 27.484375 10.78125 32.3125 
Q 14.796875 37.15625 21.921875 38.8125 
z
M 18.3125 54.390625 
Q 18.3125 48.734375 21.84375 45.5625 
Q 25.390625 42.390625 31.78125 42.390625 
Q 38.140625 42.390625 41.71875 45.5625 
Q 45.3125 48.734375 45.3125 54.390625 
Q 45.3125 60.0625 41.71875 63.234375 
Q 38.140625 66.40625 31.78125 66.40625 
Q 25.390625 66.40625 21.84375 63.234375 
Q 18.3125 60.0625 18.3125 54.390625 
z
" id="DejaVuSans-56"/>
      </defs>
      <g transform="translate(21.472115 309.811438)scale(0.1 -0.1)">
       <use xlink:href="#DejaVuSans-56"/>
       <use x="63.623047" xlink:href="#DejaVuSans-101"/>
       <use x="125.146484" xlink:href="#DejaVuSans-45"/>
       <use x="161.230469" xlink:href="#DejaVuSans-48"/>
       <use x="224.853516" xlink:href="#DejaVuSans-49"/>
      </g>
     </g>
    </g>
    <g id="ytick_11">
     <g id="line2d_30">
      <g>
       <use style="stroke:#000000;stroke-width:0.8;" x="57.320552" xlink:href="#m30d5c5bbb0" y="283.012136"/>
      </g>
     </g>
     <g id="text_12">
      <!-- 1e+00 -->
      <g transform="translate(16.70024 286.811355)scale(0.1 -0.1)">
       <use xlink:href="#DejaVuSans-49"/>
       <use x="63.623047" xlink:href="#DejaVuSans-101"/>
       <use x="125.146484" xlink:href="#DejaVuSans-43"/>
       <use x="208.935547" xlink:href="#DejaVuSans-48"/>
       <use x="272.558594" xlink:href="#DejaVuSans-48"/>
      </g>
     </g>
    </g>
    <g id="text_13">
     <!-- Bending moment, $M(x)$ -->
     <defs>
      <path d="M 19.671875 34.8125 
L 19.671875 8.109375 
L 35.5 8.109375 
Q 43.453125 8.109375 47.28125 11.40625 
Q 51.125 14.703125 51.125 21.484375 
Q 51.125 28.328125 47.28125 31.5625 
Q 43.453125 34.8125 35.5 34.8125 
z
M 19.671875 64.796875 
L 19.671875 42.828125 
L 34.28125 42.828125 
Q 41.5 42.828125 45.03125 45.53125 
Q 48.578125 48.25 48.578125 53.8125 
Q 48.578125 59.328125 45.03125 62.0625 
Q 41.5 64.796875 34.28125 64.796875 
z
M 9.8125 72.90625 
L 35.015625 72.90625 
Q 46.296875 72.90625 52.390625 68.21875 
Q 58.5 63.53125 58.5 54.890625 
Q 58.5 48.1875 55.375 44.234375 
Q 52.25 40.28125 46.1875 39.3125 
Q 53.46875 37.75 57.5 32.78125 
Q 61.53125 27.828125 61.53125 20.40625 
Q 61.53125 10.640625 54.890625 5.3125 
Q 48.25 0 35.984375 0 
L 9.8125 0 
z
" id="DejaVuSans-66"/>
      <path d="M 54.890625 33.015625 
L 54.890625 0 
L 45.90625 0 
L 45.90625 32.71875 
Q 45.90625 40.484375 42.875 44.328125 
Q 39.84375 48.1875 33.796875 48.1875 
Q 26.515625 48.1875 22.3125 43.546875 
Q 18.109375 38.921875 18.109375 30.90625 
L 18.109375 0 
L 9.078125 0 
L 9.078125 54.6875 
L 18.109375 54.6875 
L 18.109375 46.1875 
Q 21.34375 51.125 25.703125 53.5625 
Q 30.078125 56 35.796875 56 
Q 45.21875 56 50.046875 50.171875 
Q 54.890625 44.34375 54.890625 33.015625 
z
" id="DejaVuSans-110"/>
      <path d="M 45.40625 46.390625 
L 45.40625 75.984375 
L 54.390625 75.984375 
L 54.390625 0 
L 45.40625 0 
L 45.40625 8.203125 
Q 42.578125 3.328125 38.25 0.953125 
Q 33.9375 -1.421875 27.875 -1.421875 
Q 17.96875 -1.421875 11.734375 6.484375 
Q 5.515625 14.40625 5.515625 27.296875 
Q 5.515625 40.1875 11.734375 48.09375 
Q 17.96875 56 27.875 56 
Q 33.9375 56 38.25 53.625 
Q 42.578125 51.265625 45.40625 46.390625 
z
M 14.796875 27.296875 
Q 14.796875 17.390625 18.875 11.75 
Q 22.953125 6.109375 30.078125 6.109375 
Q 37.203125 6.109375 41.296875 11.75 
Q 45.40625 17.390625 45.40625 27.296875 
Q 45.40625 37.203125 41.296875 42.84375 
Q 37.203125 48.484375 30.078125 48.484375 
Q 22.953125 48.484375 18.875 42.84375 
Q 14.796875 37.203125 14.796875 27.296875 
z
" id="DejaVuSans-100"/>
      <path d="M 9.421875 54.6875 
L 18.40625 54.6875 
L 18.40625 0 
L 9.421875 0 
z
M 9.421875 75.984375 
L 18.40625 75.984375 
L 18.40625 64.59375 
L 9.421875 64.59375 
z
" id="DejaVuSans-105"/>
      <path d="M 45.40625 27.984375 
Q 45.40625 37.75 41.375 43.109375 
Q 37.359375 48.484375 30.078125 48.484375 
Q 22.859375 48.484375 18.828125 43.109375 
Q 14.796875 37.75 14.796875 27.984375 
Q 14.796875 18.265625 18.828125 12.890625 
Q 22.859375 7.515625 30.078125 7.515625 
Q 37.359375 7.515625 41.375 12.890625 
Q 45.40625 18.265625 45.40625 27.984375 
z
M 54.390625 6.78125 
Q 54.390625 -7.171875 48.1875 -13.984375 
Q 42 -20.796875 29.203125 -20.796875 
Q 24.46875 -20.796875 20.265625 -20.09375 
Q 16.0625 -19.390625 12.109375 -17.921875 
L 12.109375 -9.1875 
Q 16.0625 -11.328125 19.921875 -12.34375 
Q 23.78125 -13.375 27.78125 -13.375 
Q 36.625 -13.375 41.015625 -8.765625 
Q 45.40625 -4.15625 45.40625 5.171875 
L 45.40625 9.625 
Q 42.625 4.78125 38.28125 2.390625 
Q 33.9375 0 27.875 0 
Q 17.828125 0 11.671875 7.65625 
Q 5.515625 15.328125 5.515625 27.984375 
Q 5.515625 40.671875 11.671875 48.328125 
Q 17.828125 56 27.875 56 
Q 33.9375 56 38.28125 53.609375 
Q 42.625 51.21875 45.40625 46.390625 
L 45.40625 54.6875 
L 54.390625 54.6875 
z
" id="DejaVuSans-103"/>
      <path d="M 52 44.1875 
Q 55.375 50.25 60.0625 53.125 
Q 64.75 56 71.09375 56 
Q 79.640625 56 84.28125 50.015625 
Q 88.921875 44.046875 88.921875 33.015625 
L 88.921875 0 
L 79.890625 0 
L 79.890625 32.71875 
Q 79.890625 40.578125 77.09375 44.375 
Q 74.3125 48.1875 68.609375 48.1875 
Q 61.625 48.1875 57.5625 43.546875 
Q 53.515625 38.921875 53.515625 30.90625 
L 53.515625 0 
L 44.484375 0 
L 44.484375 32.71875 
Q 44.484375 40.625 41.703125 44.40625 
Q 38.921875 48.1875 33.109375 48.1875 
Q 26.21875 48.1875 22.15625 43.53125 
Q 18.109375 38.875 18.109375 30.90625 
L 18.109375 0 
L 9.078125 0 
L 9.078125 54.6875 
L 18.109375 54.6875 
L 18.109375 46.1875 
Q 21.1875 51.21875 25.484375 53.609375 
Q 29.78125 56 35.6875 56 
Q 41.65625 56 45.828125 52.96875 
Q 50 49.953125 52 44.1875 
z
" id="DejaVuSans-109"/>
      <path d="M 18.3125 70.21875 
L 18.3125 54.6875 
L 36.8125 54.6875 
L 36.8125 47.703125 
L 18.3125 47.703125 
L 18.3125 18.015625 
Q 18.3125 11.328125 20.140625 9.421875 
Q 21.96875 7.515625 27.59375 7.515625 
L 36.8125 7.515625 
L 36.8125 0 
L 27.59375 0 
Q 17.1875 0 13.234375 3.875 
Q 9.28125 7.765625 9.28125 18.015625 
L 9.28125 47.703125 
L 2.6875 47.703125 
L 2.6875 54.6875 
L 9.28125 54.6875 
L 9.28125 70.21875 
z
" id="DejaVuSans-116"/>
      <path d="M 16.890625 72.90625 
L 31.6875 72.90625 
L 40.1875 23.78125 
L 68.40625 72.90625 
L 83.59375 72.90625 
L 69.390625 0 
L 59.8125 0 
L 72.21875 63.921875 
L 43.609375 14.015625 
L 33.984375 14.015625 
L 24.703125 64.109375 
L 12.3125 0 
L 2.6875 0 
z
" id="DejaVuSans-Oblique-77"/>
     </defs>
     <g transform="translate(10.60024 398.062344)rotate(-90)scale(0.1 -0.1)">
      <use transform="translate(0 0.015625)" xlink:href="#DejaVuSans-66"/>
      <use transform="translate(68.603516 0.015625)" xlink:href="#DejaVuSans-101"/>
      <use transform="translate(130.126953 0.015625)" xlink:href="#DejaVuSans-110"/>
      <use transform="translate(193.505859 0.015625)" xlink:href="#DejaVuSans-100"/>
      <use transform="translate(256.982422 0.015625)" xlink:href="#DejaVuSans-105"/>
      <use transform="translate(284.765625 0.015625)" xlink:href="#DejaVuSans-110"/>
      <use transform="translate(348.144531 0.015625)" xlink:href="#DejaVuSans-103"/>
      <use transform="translate(411.621094 0.015625)" xlink:href="#DejaVuSans-32"/>
      <use transform="translate(443.408203 0.015625)" xlink:href="#DejaVuSans-109"/>
      <use transform="translate(540.820312 0.015625)" xlink:href="#DejaVuSans-111"/>
      <use transform="translate(602.001953 0.015625)" xlink:href="#DejaVuSans-109"/>
      <use transform="translate(699.414062 0.015625)" xlink:href="#DejaVuSans-101"/>
      <use transform="translate(760.9375 0.015625)" xlink:href="#DejaVuSans-110"/>
      <use transform="translate(824.316406 0.015625)" xlink:href="#DejaVuSans-116"/>
      <use transform="translate(863.525391 0.015625)" xlink:href="#DejaVuSans-44"/>
      <use transform="translate(895.3125 0.015625)" xlink:href="#DejaVuSans-32"/>
      <use transform="translate(927.099609 0.015625)" xlink:href="#DejaVuSans-Oblique-77"/>
      <use transform="translate(1013.378906 0.015625)" xlink:href="#DejaVuSans-40"/>
      <use transform="translate(1052.392578 0.015625)" xlink:href="#DejaVuSans-Oblique-120"/>
      <use transform="translate(1111.572266 0.015625)" xlink:href="#DejaVuSans-41"/>
     </g>
    </g>
   </g>
   <g id="line2d_31">
    <path clip-path="url(#p7e7874e1e7)" d="M 57.320552 283.012136 
L 61.632361 283.012136 
L 65.94417 283.012136 
L 70.255978 283.012136 
L 74.567787 283.012136 
L 78.879595 283.012136 
L 83.191404 283.012136 
L 87.503213 283.012136 
L 91.815021 283.012136 
L 96.12683 283.012136 
L 100.438638 283.012136 
L 104.750447 283.012136 
L 109.062256 283.012136 
L 113.374064 283.012136 
L 117.685873 283.012136 
L 121.997681 283.012136 
L 126.30949 283.012136 
L 130.621299 283.012136 
L 134.933107 283.012136 
L 139.244916 283.012136 
L 143.556724 283.012136 
L 147.868533 283.012136 
L 152.180342 283.012136 
L 156.49215 283.012136 
L 160.803959 283.012136 
L 165.115767 283.012136 
L 169.427576 283.012136 
L 173.739385 283.012136 
L 178.051193 283.012136 
L 182.363002 283.012136 
L 186.67481 283.012136 
L 190.986619 283.012136 
L 195.298428 283.012136 
L 199.610236 283.012136 
L 203.922045 283.012136 
L 208.233853 283.012136 
L 212.545662 283.012136 
L 216.857471 283.012136 
L 221.169279 283.012136 
L 225.481088 283.012136 
L 229.792896 283.012136 
L 234.104705 283.012136 
L 238.416514 283.012136 
L 242.728322 283.012136 
L 247.040131 283.012136 
L 251.351939 283.012136 
L 255.663748 283.012136 
L 259.975557 283.012136 
L 264.287365 283.012136 
L 268.599174 283.012136 
L 272.910982 283.012136 
L 277.222791 283.012136 
L 281.5346 283.012136 
L 285.846408 283.012136 
L 290.158217 283.012136 
L 294.470025 283.012136 
L 298.781834 283.012136 
L 303.093643 283.012136 
L 307.405451 283.012136 
L 311.71726 283.012136 
L 316.029068 283.012136 
L 320.340877 283.012136 
L 324.652686 283.012136 
L 328.964494 283.012136 
L 333.276303 283.012136 
L 337.588111 283.012136 
L 341.89992 283.012136 
L 346.211729 283.012136 
L 350.523537 283.012136 
L 354.835346 283.012136 
L 359.147154 283.012136 
L 363.458963 283.012136 
L 367.770772 283.012136 
L 372.08258 283.012136 
L 376.394389 283.012136 
L 380.706197 283.012136 
L 385.018006 283.012136 
L 389.329815 283.012136 
L 393.641623 283.012136 
L 397.953432 283.012136 
L 402.26524 283.012136 
L 406.577049 283.012136 
L 410.888858 283.012136 
L 415.200666 283.012136 
L 419.512475 283.012136 
L 423.824283 283.012136 
L 428.136092 283.012136 
L 432.447901 283.012136 
L 436.759709 283.012136 
L 441.071518 283.012136 
L 445.383326 283.012136 
L 449.695135 283.012136 
L 454.006944 283.012136 
L 458.318752 283.012136 
L 462.630561 283.012136 
L 466.942369 283.012136 
L 471.254178 283.012136 
L 475.565987 283.012136 
L 479.877795 283.012136 
L 484.189604 283.012136 
" style="fill:none;stroke:#b22222;stroke-linecap:square;stroke-width:2;"/>
   </g>
   <g id="patch_9">
    <path d="M 57.320552 403.762572 
L 57.320552 277.262115 
" style="fill:none;stroke:#000000;stroke-linecap:square;stroke-linejoin:miter;stroke-width:0.8;"/>
   </g>
   <g id="patch_10">
    <path d="M 484.189604 403.762572 
L 484.189604 277.262115 
" style="fill:none;stroke:#000000;stroke-linecap:square;stroke-linejoin:miter;stroke-width:0.8;"/>
   </g>
   <g id="patch_11">
    <path d="M 57.320552 403.762572 
L 484.189604 403.762572 
" style="fill:none;stroke:#000000;stroke-linecap:square;stroke-linejoin:miter;stroke-width:0.8;"/>
   </g>
   <g id="patch_12">
    <path d="M 57.320552 277.262115 
L 484.189604 277.262115 
" style="fill:none;stroke:#000000;stroke-linecap:square;stroke-linejoin:miter;stroke-width:0.8;"/>
   </g>
  </g>
  <g id="axes_4">
   <g id="patch_13">
    <path d="M 57.320552 542.64351 
L 484.189604 542.64351 
L 484.189604 416.143052 
L 57.320552 416.143052 
z
" style="fill:#ffffff;"/>
   </g>
   <g id="matplotlib.axis_5">
    <g id="xtick_13">
     <g id="line2d_32">
      <g>
       <use style="stroke:#000000;stroke-width:0.8;" x="57.320552" xlink:href="#m5f60f1a625" y="542.64351"/>
      </g>
     </g>
     <g id="text_14">
      <!-- 0e+00 -->
      <g transform="translate(40.510396 557.241948)scale(0.1 -0.1)">
       <use xlink:href="#DejaVuSans-48"/>
       <use x="63.623047" xlink:href="#DejaVuSans-101"/>
       <use x="125.146484" xlink:href="#DejaVuSans-43"/>
       <use x="208.935547" xlink:href="#DejaVuSans-48"/>
       <use x="272.558594" xlink:href="#DejaVuSans-48"/>
      </g>
     </g>
    </g>
    <g id="xtick_14">
     <g id="line2d_33">
      <g>
       <use style="stroke:#000000;stroke-width:0.8;" x="142.694363" xlink:href="#m5f60f1a625" y="542.64351"/>
      </g>
     </g>
     <g id="text_15">
      <!-- 2e-01 -->
      <g transform="translate(128.270144 557.241948)scale(0.1 -0.1)">
       <use xlink:href="#DejaVuSans-50"/>
       <use x="63.623047" xlink:href="#DejaVuSans-101"/>
       <use x="125.146484" xlink:href="#DejaVuSans-45"/>
       <use x="161.230469" xlink:href="#DejaVuSans-48"/>
       <use x="224.853516" xlink:href="#DejaVuSans-49"/>
      </g>
     </g>
    </g>
    <g id="xtick_15">
     <g id="line2d_34">
      <g>
       <use style="stroke:#000000;stroke-width:0.8;" x="228.068173" xlink:href="#m5f60f1a625" y="542.64351"/>
      </g>
     </g>
     <g id="text_16">
      <!-- 4e-01 -->
      <g transform="translate(213.643954 557.241948)scale(0.1 -0.1)">
       <use xlink:href="#DejaVuSans-52"/>
       <use x="63.623047" xlink:href="#DejaVuSans-101"/>
       <use x="125.146484" xlink:href="#DejaVuSans-45"/>
       <use x="161.230469" xlink:href="#DejaVuSans-48"/>
       <use x="224.853516" xlink:href="#DejaVuSans-49"/>
      </g>
     </g>
    </g>
    <g id="xtick_16">
     <g id="line2d_35">
      <g>
       <use style="stroke:#000000;stroke-width:0.8;" x="313.441983" xlink:href="#m5f60f1a625" y="542.64351"/>
      </g>
     </g>
     <g id="text_17">
      <!-- 6e-01 -->
      <g transform="translate(299.017765 557.241948)scale(0.1 -0.1)">
       <use xlink:href="#DejaVuSans-54"/>
       <use x="63.623047" xlink:href="#DejaVuSans-101"/>
       <use x="125.146484" xlink:href="#DejaVuSans-45"/>
       <use x="161.230469" xlink:href="#DejaVuSans-48"/>
       <use x="224.853516" xlink:href="#DejaVuSans-49"/>
      </g>
     </g>
    </g>
    <g id="xtick_17">
     <g id="line2d_36">
      <g>
       <use style="stroke:#000000;stroke-width:0.8;" x="398.815794" xlink:href="#m5f60f1a625" y="542.64351"/>
      </g>
     </g>
     <g id="text_18">
      <!-- 8e-01 -->
      <g transform="translate(384.391575 557.241948)scale(0.1 -0.1)">
       <use xlink:href="#DejaVuSans-56"/>
       <use x="63.623047" xlink:href="#DejaVuSans-101"/>
       <use x="125.146484" xlink:href="#DejaVuSans-45"/>
       <use x="161.230469" xlink:href="#DejaVuSans-48"/>
       <use x="224.853516" xlink:href="#DejaVuSans-49"/>
      </g>
     </g>
    </g>
    <g id="xtick_18">
     <g id="line2d_37">
      <g>
       <use style="stroke:#000000;stroke-width:0.8;" x="484.189604" xlink:href="#m5f60f1a625" y="542.64351"/>
      </g>
     </g>
     <g id="text_19">
      <!-- 1e+00 -->
      <g transform="translate(467.379448 557.241948)scale(0.1 -0.1)">
       <use xlink:href="#DejaVuSans-49"/>
       <use x="63.623047" xlink:href="#DejaVuSans-101"/>
       <use x="125.146484" xlink:href="#DejaVuSans-43"/>
       <use x="208.935547" xlink:href="#DejaVuSans-48"/>
       <use x="272.558594" xlink:href="#DejaVuSans-48"/>
      </g>
     </g>
    </g>
    <g id="text_20">
     <!-- Coordinate, $x$ -->
     <defs>
      <path d="M 64.40625 67.28125 
L 64.40625 56.890625 
Q 59.421875 61.53125 53.78125 63.8125 
Q 48.140625 66.109375 41.796875 66.109375 
Q 29.296875 66.109375 22.65625 58.46875 
Q 16.015625 50.828125 16.015625 36.375 
Q 16.015625 21.96875 22.65625 14.328125 
Q 29.296875 6.6875 41.796875 6.6875 
Q 48.140625 6.6875 53.78125 8.984375 
Q 59.421875 11.28125 64.40625 15.921875 
L 64.40625 5.609375 
Q 59.234375 2.09375 53.4375 0.328125 
Q 47.65625 -1.421875 41.21875 -1.421875 
Q 24.65625 -1.421875 15.125 8.703125 
Q 5.609375 18.84375 5.609375 36.375 
Q 5.609375 53.953125 15.125 64.078125 
Q 24.65625 74.21875 41.21875 74.21875 
Q 47.75 74.21875 53.53125 72.484375 
Q 59.328125 70.75 64.40625 67.28125 
z
" id="DejaVuSans-67"/>
     </defs>
     <g transform="translate(237.105078 570.920072)scale(0.1 -0.1)">
      <use transform="translate(0 0.015625)" xlink:href="#DejaVuSans-67"/>
      <use transform="translate(69.824219 0.015625)" xlink:href="#DejaVuSans-111"/>
      <use transform="translate(131.005859 0.015625)" xlink:href="#DejaVuSans-111"/>
      <use transform="translate(192.1875 0.015625)" xlink:href="#DejaVuSans-114"/>
      <use transform="translate(233.300781 0.015625)" xlink:href="#DejaVuSans-100"/>
      <use transform="translate(296.777344 0.015625)" xlink:href="#DejaVuSans-105"/>
      <use transform="translate(324.560547 0.015625)" xlink:href="#DejaVuSans-110"/>
      <use transform="translate(387.939453 0.015625)" xlink:href="#DejaVuSans-97"/>
      <use transform="translate(449.21875 0.015625)" xlink:href="#DejaVuSans-116"/>
      <use transform="translate(488.427734 0.015625)" xlink:href="#DejaVuSans-101"/>
      <use transform="translate(549.951172 0.015625)" xlink:href="#DejaVuSans-44"/>
      <use transform="translate(581.738281 0.015625)" xlink:href="#DejaVuSans-32"/>
      <use transform="translate(613.525391 0.015625)" xlink:href="#DejaVuSans-Oblique-120"/>
     </g>
    </g>
   </g>
   <g id="matplotlib.axis_6">
    <g id="ytick_12">
     <g id="line2d_38">
      <g>
       <use style="stroke:#000000;stroke-width:0.8;" x="57.320552" xlink:href="#m30d5c5bbb0" y="536.893489"/>
      </g>
     </g>
     <g id="text_21">
      <!-- 0e+00 -->
      <g transform="translate(16.70024 540.692708)scale(0.1 -0.1)">
       <use xlink:href="#DejaVuSans-48"/>
       <use x="63.623047" xlink:href="#DejaVuSans-101"/>
       <use x="125.146484" xlink:href="#DejaVuSans-43"/>
       <use x="208.935547" xlink:href="#DejaVuSans-48"/>
       <use x="272.558594" xlink:href="#DejaVuSans-48"/>
      </g>
     </g>
    </g>
    <g id="ytick_13">
     <g id="line2d_39">
      <g>
       <use style="stroke:#000000;stroke-width:0.8;" x="57.320552" xlink:href="#m30d5c5bbb0" y="513.893406"/>
      </g>
     </g>
     <g id="text_22">
      <!-- 1e-01 -->
      <g transform="translate(21.472115 517.692625)scale(0.1 -0.1)">
       <use xlink:href="#DejaVuSans-49"/>
       <use x="63.623047" xlink:href="#DejaVuSans-101"/>
       <use x="125.146484" xlink:href="#DejaVuSans-45"/>
       <use x="161.230469" xlink:href="#DejaVuSans-48"/>
       <use x="224.853516" xlink:href="#DejaVuSans-49"/>
      </g>
     </g>
    </g>
    <g id="ytick_14">
     <g id="line2d_40">
      <g>
       <use style="stroke:#000000;stroke-width:0.8;" x="57.320552" xlink:href="#m30d5c5bbb0" y="490.893323"/>
      </g>
     </g>
     <g id="text_23">
      <!-- 2e-01 -->
      <g transform="translate(21.472115 494.692542)scale(0.1 -0.1)">
       <use xlink:href="#DejaVuSans-50"/>
       <use x="63.623047" xlink:href="#DejaVuSans-101"/>
       <use x="125.146484" xlink:href="#DejaVuSans-45"/>
       <use x="161.230469" xlink:href="#DejaVuSans-48"/>
       <use x="224.853516" xlink:href="#DejaVuSans-49"/>
      </g>
     </g>
    </g>
    <g id="ytick_15">
     <g id="line2d_41">
      <g>
       <use style="stroke:#000000;stroke-width:0.8;" x="57.320552" xlink:href="#m30d5c5bbb0" y="467.89324"/>
      </g>
     </g>
     <g id="text_24">
      <!-- 3e-01 -->
      <defs>
       <path d="M 40.578125 39.3125 
Q 47.65625 37.796875 51.625 33 
Q 55.609375 28.21875 55.609375 21.1875 
Q 55.609375 10.40625 48.1875 4.484375 
Q 40.765625 -1.421875 27.09375 -1.421875 
Q 22.515625 -1.421875 17.65625 -0.515625 
Q 12.796875 0.390625 7.625 2.203125 
L 7.625 11.71875 
Q 11.71875 9.328125 16.59375 8.109375 
Q 21.484375 6.890625 26.8125 6.890625 
Q 36.078125 6.890625 40.9375 10.546875 
Q 45.796875 14.203125 45.796875 21.1875 
Q 45.796875 27.640625 41.28125 31.265625 
Q 36.765625 34.90625 28.71875 34.90625 
L 20.21875 34.90625 
L 20.21875 43.015625 
L 29.109375 43.015625 
Q 36.375 43.015625 40.234375 45.921875 
Q 44.09375 48.828125 44.09375 54.296875 
Q 44.09375 59.90625 40.109375 62.90625 
Q 36.140625 65.921875 28.71875 65.921875 
Q 24.65625 65.921875 20.015625 65.03125 
Q 15.375 64.15625 9.8125 62.3125 
L 9.8125 71.09375 
Q 15.4375 72.65625 20.34375 73.4375 
Q 25.25 74.21875 29.59375 74.21875 
Q 40.828125 74.21875 47.359375 69.109375 
Q 53.90625 64.015625 53.90625 55.328125 
Q 53.90625 49.265625 50.4375 45.09375 
Q 46.96875 40.921875 40.578125 39.3125 
z
" id="DejaVuSans-51"/>
      </defs>
      <g transform="translate(21.472115 471.692458)scale(0.1 -0.1)">
       <use xlink:href="#DejaVuSans-51"/>
       <use x="63.623047" xlink:href="#DejaVuSans-101"/>
       <use x="125.146484" xlink:href="#DejaVuSans-45"/>
       <use x="161.230469" xlink:href="#DejaVuSans-48"/>
       <use x="224.853516" xlink:href="#DejaVuSans-49"/>
      </g>
     </g>
    </g>
    <g id="ytick_16">
     <g id="line2d_42">
      <g>
       <use style="stroke:#000000;stroke-width:0.8;" x="57.320552" xlink:href="#m30d5c5bbb0" y="444.893156"/>
      </g>
     </g>
     <g id="text_25">
      <!-- 4e-01 -->
      <g transform="translate(21.472115 448.692375)scale(0.1 -0.1)">
       <use xlink:href="#DejaVuSans-52"/>
       <use x="63.623047" xlink:href="#DejaVuSans-101"/>
       <use x="125.146484" xlink:href="#DejaVuSans-45"/>
       <use x="161.230469" xlink:href="#DejaVuSans-48"/>
       <use x="224.853516" xlink:href="#DejaVuSans-49"/>
      </g>
     </g>
    </g>
    <g id="ytick_17">
     <g id="line2d_43">
      <g>
       <use style="stroke:#000000;stroke-width:0.8;" x="57.320552" xlink:href="#m30d5c5bbb0" y="421.893073"/>
      </g>
     </g>
     <g id="text_26">
      <!-- 5e-01 -->
      <defs>
       <path d="M 10.796875 72.90625 
L 49.515625 72.90625 
L 49.515625 64.59375 
L 19.828125 64.59375 
L 19.828125 46.734375 
Q 21.96875 47.46875 24.109375 47.828125 
Q 26.265625 48.1875 28.421875 48.1875 
Q 40.625 48.1875 47.75 41.5 
Q 54.890625 34.8125 54.890625 23.390625 
Q 54.890625 11.625 47.5625 5.09375 
Q 40.234375 -1.421875 26.90625 -1.421875 
Q 22.3125 -1.421875 17.546875 -0.640625 
Q 12.796875 0.140625 7.71875 1.703125 
L 7.71875 11.625 
Q 12.109375 9.234375 16.796875 8.0625 
Q 21.484375 6.890625 26.703125 6.890625 
Q 35.15625 6.890625 40.078125 11.328125 
Q 45.015625 15.765625 45.015625 23.390625 
Q 45.015625 31 40.078125 35.4375 
Q 35.15625 39.890625 26.703125 39.890625 
Q 22.75 39.890625 18.8125 39.015625 
Q 14.890625 38.140625 10.796875 36.28125 
z
" id="DejaVuSans-53"/>
      </defs>
      <g transform="translate(21.472115 425.692292)scale(0.1 -0.1)">
       <use xlink:href="#DejaVuSans-53"/>
       <use x="63.623047" xlink:href="#DejaVuSans-101"/>
       <use x="125.146484" xlink:href="#DejaVuSans-45"/>
       <use x="161.230469" xlink:href="#DejaVuSans-48"/>
       <use x="224.853516" xlink:href="#DejaVuSans-49"/>
      </g>
     </g>
    </g>
    <g id="text_27">
     <!-- Deflection, $v(x)$ -->
     <defs>
      <path d="M 19.671875 64.796875 
L 19.671875 8.109375 
L 31.59375 8.109375 
Q 46.6875 8.109375 53.6875 14.9375 
Q 60.6875 21.78125 60.6875 36.53125 
Q 60.6875 51.171875 53.6875 57.984375 
Q 46.6875 64.796875 31.59375 64.796875 
z
M 9.8125 72.90625 
L 30.078125 72.90625 
Q 51.265625 72.90625 61.171875 64.09375 
Q 71.09375 55.28125 71.09375 36.53125 
Q 71.09375 17.671875 61.125 8.828125 
Q 51.171875 0 30.078125 0 
L 9.8125 0 
z
" id="DejaVuSans-68"/>
      <path d="M 9.421875 75.984375 
L 18.40625 75.984375 
L 18.40625 0 
L 9.421875 0 
z
" id="DejaVuSans-108"/>
      <path d="M 7.171875 54.6875 
L 16.703125 54.6875 
L 24.703125 8.203125 
L 50.875 54.6875 
L 60.40625 54.6875 
L 29.296875 0 
L 17.1875 0 
z
" id="DejaVuSans-Oblique-118"/>
     </defs>
     <g transform="translate(10.620552 517.893281)rotate(-90)scale(0.1 -0.1)">
      <use transform="translate(0 0.015625)" xlink:href="#DejaVuSans-68"/>
      <use transform="translate(77.001953 0.015625)" xlink:href="#DejaVuSans-101"/>
      <use transform="translate(138.525391 0.015625)" xlink:href="#DejaVuSans-102"/>
      <use transform="translate(173.730469 0.015625)" xlink:href="#DejaVuSans-108"/>
      <use transform="translate(201.513672 0.015625)" xlink:href="#DejaVuSans-101"/>
      <use transform="translate(263.037109 0.015625)" xlink:href="#DejaVuSans-99"/>
      <use transform="translate(318.017578 0.015625)" xlink:href="#DejaVuSans-116"/>
      <use transform="translate(357.226562 0.015625)" xlink:href="#DejaVuSans-105"/>
      <use transform="translate(385.009766 0.015625)" xlink:href="#DejaVuSans-111"/>
      <use transform="translate(446.191406 0.015625)" xlink:href="#DejaVuSans-110"/>
      <use transform="translate(509.570312 0.015625)" xlink:href="#DejaVuSans-44"/>
      <use transform="translate(541.357422 0.015625)" xlink:href="#DejaVuSans-32"/>
      <use transform="translate(573.144531 0.015625)" xlink:href="#DejaVuSans-Oblique-118"/>
      <use transform="translate(632.324219 0.015625)" xlink:href="#DejaVuSans-40"/>
      <use transform="translate(671.337891 0.015625)" xlink:href="#DejaVuSans-Oblique-120"/>
      <use transform="translate(730.517578 0.015625)" xlink:href="#DejaVuSans-41"/>
     </g>
    </g>
   </g>
   <g id="line2d_44">
    <path clip-path="url(#p0429fe6cbb)" d="M 57.320552 536.893489 
L 61.632361 536.881756 
L 65.94417 536.846555 
L 70.255978 536.787887 
L 74.567787 536.705753 
L 78.879595 536.600151 
L 83.191404 536.471082 
L 87.503213 536.318546 
L 91.815021 536.142543 
L 96.12683 535.943073 
L 100.438638 535.720135 
L 104.750447 535.473731 
L 109.062256 535.20386 
L 113.374064 534.910521 
L 117.685873 534.593716 
L 121.997681 534.253443 
L 126.30949 533.889703 
L 130.621299 533.502496 
L 134.933107 533.091823 
L 139.244916 532.657682 
L 143.556724 532.200074 
L 147.868533 531.718998 
L 152.180342 531.214456 
L 156.49215 530.686447 
L 160.803959 530.134971 
L 165.115767 529.560027 
L 169.427576 528.961617 
L 173.739385 528.339739 
L 178.051193 527.694395 
L 182.363002 527.025583 
L 186.67481 526.333304 
L 190.986619 525.617558 
L 195.298428 524.878345 
L 199.610236 524.115665 
L 203.922045 523.329518 
L 208.233853 522.519904 
L 212.545662 521.686823 
L 216.857471 520.830274 
L 221.169279 519.950259 
L 225.481088 519.046776 
L 229.792896 518.119827 
L 234.104705 517.16941 
L 238.416514 516.195526 
L 242.728322 515.198176 
L 247.040131 514.177358 
L 251.351939 513.133073 
L 255.663748 512.065321 
L 259.975557 510.974102 
L 264.287365 509.859415 
L 268.599174 508.721262 
L 272.910982 507.559642 
L 277.222791 506.374554 
L 281.5346 505.166 
L 285.846408 503.933978 
L 290.158217 502.678489 
L 294.470025 501.399534 
L 298.781834 500.097111 
L 303.093643 498.771221 
L 307.405451 497.421864 
L 311.71726 496.04904 
L 316.029068 494.652749 
L 320.340877 493.232991 
L 324.652686 491.789765 
L 328.964494 490.323073 
L 333.276303 488.832913 
L 337.588111 487.319287 
L 341.89992 485.782193 
L 346.211729 484.221633 
L 350.523537 482.637605 
L 354.835346 481.03011 
L 359.147154 479.399148 
L 363.458963 477.744719 
L 367.770772 476.066823 
L 372.08258 474.36546 
L 376.394389 472.64063 
L 380.706197 470.892332 
L 385.018006 469.120568 
L 389.329815 467.325336 
L 393.641623 465.506638 
L 397.953432 463.664472 
L 402.26524 461.798839 
L 406.577049 459.90974 
L 410.888858 457.997173 
L 415.200666 456.061139 
L 419.512475 454.101638 
L 423.824283 452.11867 
L 428.136092 450.112235 
L 432.447901 448.082332 
L 436.759709 446.028963 
L 441.071518 443.952127 
L 445.383326 441.851823 
L 449.695135 439.728053 
L 454.006944 437.580815 
L 458.318752 435.41011 
L 462.630561 433.215938 
L 466.942369 430.9983 
L 471.254178 428.757194 
L 475.565987 426.492621 
L 479.877795 424.20458 
L 484.189604 421.893073 
" style="fill:none;stroke:#000000;stroke-linecap:square;stroke-width:3;"/>
   </g>
   <g id="line2d_45">
    <path clip-path="url(#p0429fe6cbb)" d="M 57.320552 536.893489 
L 484.189604 536.893489 
" style="fill:none;stroke:#000000;stroke-dasharray:5.55,2.4;stroke-dashoffset:0;stroke-width:1.5;"/>
   </g>
   <g id="patch_14">
    <path d="M 57.320552 542.64351 
L 57.320552 416.143052 
" style="fill:none;stroke:#000000;stroke-linecap:square;stroke-linejoin:miter;stroke-width:0.8;"/>
   </g>
   <g id="patch_15">
    <path d="M 484.189604 542.64351 
L 484.189604 416.143052 
" style="fill:none;stroke:#000000;stroke-linecap:square;stroke-linejoin:miter;stroke-width:0.8;"/>
   </g>
   <g id="patch_16">
    <path d="M 57.320552 542.64351 
L 484.189604 542.64351 
" style="fill:none;stroke:#000000;stroke-linecap:square;stroke-linejoin:miter;stroke-width:0.8;"/>
   </g>
   <g id="patch_17">
    <path d="M 57.320552 416.143052 
L 484.189604 416.143052 
" style="fill:none;stroke:#000000;stroke-linecap:square;stroke-linejoin:miter;stroke-width:0.8;"/>
   </g>
  </g>
 </g>
 <defs>
  <clipPath id="pacd958008f">
   <rect height="126.500458" width="426.869051" x="57.320552" y="3.00024"/>
  </clipPath>
  <clipPath id="pc399a29501">
   <rect height="126.500457" width="426.869051" x="57.320552" y="138.381177"/>
  </clipPath>
  <clipPath id="p7e7874e1e7">
   <rect height="126.500457" width="426.869051" x="57.320552" y="277.262115"/>
  </clipPath>
  <clipPath id="p0429fe6cbb">
   <rect height="126.500458" width="426.869051" x="57.320552" y="416.143052"/>
  </clipPath>
 </defs>
</svg>
