<?xml version="1.0" encoding="utf-8" standalone="no"?>
<!DOCTYPE svg PUBLIC "-//W3C//DTD SVG 1.1//EN"
  "http://www.w3.org/Graphics/SVG/1.1/DTD/svg11.dtd">
<svg xmlns:xlink="http://www.w3.org/1999/xlink" width="504pt" height="576pt" viewBox="0 0 504 576" xmlns="http://www.w3.org/2000/svg" version="1.1">
 <metadata>
  <rdf:RDF xmlns:dc="http://purl.org/dc/elements/1.1/" xmlns:cc="http://creativecommons.org/ns#" xmlns:rdf="http://www.w3.org/1999/02/22-rdf-syntax-ns#">
   <cc:Work>
    <dc:type rdf:resource="http://purl.org/dc/dcmitype/StillImage"/>
    <dc:date>2026-01-17T12:48:10.648007</dc:date>
    <dc:format>image/svg+xml</dc:format>
    <dc:creator>
     <cc:Agent>
      <dc:title>Matplotlib v3.10.8, https://matplotlib.org/</dc:title>
     </cc:Agent>
    </dc:creator>
   </cc:Work>
  </rdf:RDF>
 </metadata>
 <defs>
  <style type="text/css">*{stroke-linejoin: round; stroke-linecap: butt}</style>
 </defs>
 <g id="figure_1">
  <g id="patch_1">
   <path d="M 0 576 
L 504 576 
L 504 0 
L 0 0 
z
" style="fill: #ffffff"/>
  </g>
  <g id="axes_1">
   <g id="FillBetweenPolyCollection_1">
    <defs>
     <path id="m3a34c2535d" d="M 60.48 -488.260465 
L 60.48 -488.260465 
L 62.592727 -488.801691 
L 64.705455 -489.342918 
L 66.818182 -489.884144 
L 68.930909 -490.42537 
L 71.043636 -490.966596 
L 73.156364 -491.507822 
L 75.269091 -492.049049 
L 77.381818 -492.590275 
L 79.494545 -493.131501 
L 81.607273 -493.672727 
L 83.72 -494.213953 
L 85.832727 -494.75518 
L 87.945455 -495.296406 
L 90.058182 -495.837632 
L 92.170909 -496.378858 
L 94.283636 -496.920085 
L 96.396364 -497.461311 
L 98.509091 -498.002537 
L 100.621818 -498.543763 
L 102.734545 -499.084989 
L 104.847273 -499.626216 
L 106.96 -500.167442 
L 109.072727 -500.708668 
L 111.185455 -501.249894 
L 113.298182 -501.791121 
L 115.410909 -502.332347 
L 117.523636 -502.873573 
L 119.636364 -503.414799 
L 121.749091 -503.956025 
L 123.861818 -504.497252 
L 125.974545 -505.038478 
L 128.087273 -505.579704 
L 130.2 -506.12093 
L 132.312727 -506.662156 
L 134.425455 -507.203383 
L 136.538182 -507.744609 
L 138.650909 -508.285835 
L 140.763636 -508.827061 
L 142.876364 -509.368288 
L 144.989091 -509.909514 
L 147.101818 -510.45074 
L 149.214545 -510.991966 
L 151.327273 -511.533192 
L 153.44 -512.074419 
L 155.552727 -512.615645 
L 157.665455 -513.156871 
L 159.778182 -513.698097 
L 161.890909 -514.239323 
L 164.003636 -514.78055 
L 166.116364 -515.321776 
L 168.229091 -515.863002 
L 170.341818 -516.404228 
L 172.454545 -516.945455 
L 174.567273 -517.486681 
L 176.68 -518.027907 
L 178.792727 -518.569133 
L 180.905455 -519.110359 
L 183.018182 -519.651586 
L 185.130909 -520.192812 
L 187.243636 -520.734038 
L 189.356364 -521.275264 
L 191.469091 -521.81649 
L 193.581818 -522.357717 
L 195.694545 -522.898943 
L 197.807273 -523.440169 
L 199.92 -523.981395 
L 202.032727 -524.522622 
L 204.145455 -525.063848 
L 206.258182 -525.605074 
L 208.370909 -526.1463 
L 210.483636 -526.687526 
L 212.596364 -527.228753 
L 214.709091 -527.769979 
L 216.821818 -528.311205 
L 218.934545 -528.852431 
L 221.047273 -529.393658 
L 223.16 -529.934884 
L 225.272727 -530.47611 
L 227.385455 -531.017336 
L 229.498182 -531.558562 
L 231.610909 -532.099789 
L 233.723636 -532.641015 
L 235.836364 -533.182241 
L 237.949091 -533.723467 
L 240.061818 -534.264693 
L 242.174545 -534.80592 
L 244.287273 -535.347146 
L 246.4 -535.888372 
L 248.512727 -536.429598 
L 250.625455 -536.970825 
L 252.738182 -537.512051 
L 254.850909 -538.053277 
L 256.963636 -538.594503 
L 259.076364 -539.135729 
L 261.189091 -539.676956 
L 263.301818 -540.218182 
L 265.414545 -540.759408 
L 267.527273 -541.300634 
L 269.64 -541.84186 
L 269.64 -488.260465 
L 269.64 -488.260465 
L 267.527273 -488.260465 
L 265.414545 -488.260465 
L 263.301818 -488.260465 
L 261.189091 -488.260465 
L 259.076364 -488.260465 
L 256.963636 -488.260465 
L 254.850909 -488.260465 
L 252.738182 -488.260465 
L 250.625455 -488.260465 
L 248.512727 -488.260465 
L 246.4 -488.260465 
L 244.287273 -488.260465 
L 242.174545 -488.260465 
L 240.061818 -488.260465 
L 237.949091 -488.260465 
L 235.836364 -488.260465 
L 233.723636 -488.260465 
L 231.610909 -488.260465 
L 229.498182 -488.260465 
L 227.385455 -488.260465 
L 225.272727 -488.260465 
L 223.16 -488.260465 
L 221.047273 -488.260465 
L 218.934545 -488.260465 
L 216.821818 -488.260465 
L 214.709091 -488.260465 
L 212.596364 -488.260465 
L 210.483636 -488.260465 
L 208.370909 -488.260465 
L 206.258182 -488.260465 
L 204.145455 -488.260465 
L 202.032727 -488.260465 
L 199.92 -488.260465 
L 197.807273 -488.260465 
L 195.694545 -488.260465 
L 193.581818 -488.260465 
L 191.469091 -488.260465 
L 189.356364 -488.260465 
L 187.243636 -488.260465 
L 185.130909 -488.260465 
L 183.018182 -488.260465 
L 180.905455 -488.260465 
L 178.792727 -488.260465 
L 176.68 -488.260465 
L 174.567273 -488.260465 
L 172.454545 -488.260465 
L 170.341818 -488.260465 
L 168.229091 -488.260465 
L 166.116364 -488.260465 
L 164.003636 -488.260465 
L 161.890909 -488.260465 
L 159.778182 -488.260465 
L 157.665455 -488.260465 
L 155.552727 -488.260465 
L 153.44 -488.260465 
L 151.327273 -488.260465 
L 149.214545 -488.260465 
L 147.101818 -488.260465 
L 144.989091 -488.260465 
L 142.876364 -488.260465 
L 140.763636 -488.260465 
L 138.650909 -488.260465 
L 136.538182 -488.260465 
L 134.425455 -488.260465 
L 132.312727 -488.260465 
L 130.2 -488.260465 
L 128.087273 -488.260465 
L 125.974545 -488.260465 
L 123.861818 -488.260465 
L 121.749091 -488.260465 
L 119.636364 -488.260465 
L 117.523636 -488.260465 
L 115.410909 -488.260465 
L 113.298182 -488.260465 
L 111.185455 -488.260465 
L 109.072727 -488.260465 
L 106.96 -488.260465 
L 104.847273 -488.260465 
L 102.734545 -488.260465 
L 100.621818 -488.260465 
L 98.509091 -488.260465 
L 96.396364 -488.260465 
L 94.283636 -488.260465 
L 92.170909 -488.260465 
L 90.058182 -488.260465 
L 87.945455 -488.260465 
L 85.832727 -488.260465 
L 83.72 -488.260465 
L 81.607273 -488.260465 
L 79.494545 -488.260465 
L 77.381818 -488.260465 
L 75.269091 -488.260465 
L 73.156364 -488.260465 
L 71.043636 -488.260465 
L 68.930909 -488.260465 
L 66.818182 -488.260465 
L 64.705455 -488.260465 
L 62.592727 -488.260465 
L 60.48 -488.260465 
z
" style="stroke: #4169e1; stroke-opacity: 0.35; stroke-width: 2"/>
    </defs>
    <g clip-path="url(#p88b502b551)">
     <use xlink:href="#m3a34c2535d" x="0" y="576" style="fill: #4169e1; fill-opacity: 0.35; stroke: #4169e1; stroke-opacity: 0.35; stroke-width: 2"/>
    </g>
   </g>
   <g id="FillBetweenPolyCollection_2">
    <defs>
     <path id="m4b55072b20" d="M 269.64 -488.260465 
L 269.64 -541.84186 
L 271.752727 -540.984646 
L 273.865455 -540.144925 
L 275.978182 -539.322698 
L 278.090909 -538.517966 
L 280.203636 -537.730728 
L 282.316364 -536.960984 
L 284.429091 -536.208734 
L 286.541818 -535.473979 
L 288.654545 -534.756717 
L 290.767273 -534.05695 
L 292.88 -533.374677 
L 294.992727 -532.709898 
L 297.105455 -532.062613 
L 299.218182 -531.432823 
L 301.330909 -530.820527 
L 303.443636 -530.225724 
L 305.556364 -529.648417 
L 307.669091 -529.088603 
L 309.781818 -528.546283 
L 311.894545 -528.021458 
L 314.007273 -527.514126 
L 316.12 -527.024289 
L 318.232727 -526.551947 
L 320.345455 -526.097098 
L 322.458182 -525.659743 
L 324.570909 -525.239883 
L 326.683636 -524.837517 
L 328.796364 -524.452645 
L 330.909091 -524.085267 
L 333.021818 -523.735383 
L 335.134545 -523.402994 
L 337.247273 -523.088099 
L 339.36 -522.790698 
L 341.472727 -522.510791 
L 343.585455 -522.248378 
L 345.698182 -522.00346 
L 347.810909 -521.776035 
L 349.923636 -521.566105 
L 352.036364 -521.373669 
L 354.149091 -521.198727 
L 356.261818 -521.04128 
L 358.374545 -520.901326 
L 360.487273 -520.778867 
L 362.6 -520.673902 
L 364.712727 -520.586431 
L 366.825455 -520.516454 
L 368.938182 -520.463972 
L 371.050909 -520.428983 
L 373.163636 -520.411489 
L 375.276364 -520.411489 
L 377.389091 -520.428983 
L 379.501818 -520.463972 
L 381.614545 -520.516454 
L 383.727273 -520.586431 
L 385.84 -520.673902 
L 387.952727 -520.778867 
L 390.065455 -520.901326 
L 392.178182 -521.04128 
L 394.290909 -521.198727 
L 396.403636 -521.373669 
L 398.516364 -521.566105 
L 400.629091 -521.776035 
L 402.741818 -522.00346 
L 404.854545 -522.248378 
L 406.967273 -522.510791 
L 409.08 -522.790698 
L 411.192727 -523.088099 
L 413.305455 -523.402994 
L 415.418182 -523.735383 
L 417.530909 -524.085267 
L 419.643636 -524.452645 
L 421.756364 -524.837517 
L 423.869091 -525.239883 
L 425.981818 -525.659743 
L 428.094545 -526.097098 
L 430.207273 -526.551947 
L 432.32 -527.024289 
L 434.432727 -527.514126 
L 436.545455 -528.021458 
L 438.658182 -528.546283 
L 440.770909 -529.088603 
L 442.883636 -529.648417 
L 444.996364 -530.225724 
L 447.109091 -530.820527 
L 449.221818 -531.432823 
L 451.334545 -532.062613 
L 453.447273 -532.709898 
L 455.56 -533.374677 
L 457.672727 -534.05695 
L 459.785455 -534.756717 
L 461.898182 -535.473979 
L 464.010909 -536.208734 
L 466.123636 -536.960984 
L 468.236364 -537.730728 
L 470.349091 -538.517966 
L 472.461818 -539.322698 
L 474.574545 -540.144925 
L 476.687273 -540.984646 
L 478.8 -541.84186 
L 478.8 -488.260465 
L 478.8 -488.260465 
L 476.687273 -488.260465 
L 474.574545 -488.260465 
L 472.461818 -488.260465 
L 470.349091 -488.260465 
L 468.236364 -488.260465 
L 466.123636 -488.260465 
L 464.010909 -488.260465 
L 461.898182 -488.260465 
L 459.785455 -488.260465 
L 457.672727 -488.260465 
L 455.56 -488.260465 
L 453.447273 -488.260465 
L 451.334545 -488.260465 
L 449.221818 -488.260465 
L 447.109091 -488.260465 
L 444.996364 -488.260465 
L 442.883636 -488.260465 
L 440.770909 -488.260465 
L 438.658182 -488.260465 
L 436.545455 -488.260465 
L 434.432727 -488.260465 
L 432.32 -488.260465 
L 430.207273 -488.260465 
L 428.094545 -488.260465 
L 425.981818 -488.260465 
L 423.869091 -488.260465 
L 421.756364 -488.260465 
L 419.643636 -488.260465 
L 417.530909 -488.260465 
L 415.418182 -488.260465 
L 413.305455 -488.260465 
L 411.192727 -488.260465 
L 409.08 -488.260465 
L 406.967273 -488.260465 
L 404.854545 -488.260465 
L 402.741818 -488.260465 
L 400.629091 -488.260465 
L 398.516364 -488.260465 
L 396.403636 -488.260465 
L 394.290909 -488.260465 
L 392.178182 -488.260465 
L 390.065455 -488.260465 
L 387.952727 -488.260465 
L 385.84 -488.260465 
L 383.727273 -488.260465 
L 381.614545 -488.260465 
L 379.501818 -488.260465 
L 377.389091 -488.260465 
L 375.276364 -488.260465 
L 373.163636 -488.260465 
L 371.050909 -488.260465 
L 368.938182 -488.260465 
L 366.825455 -488.260465 
L 364.712727 -488.260465 
L 362.6 -488.260465 
L 360.487273 -488.260465 
L 358.374545 -488.260465 
L 356.261818 -488.260465 
L 354.149091 -488.260465 
L 352.036364 -488.260465 
L 349.923636 -488.260465 
L 347.810909 -488.260465 
L 345.698182 -488.260465 
L 343.585455 -488.260465 
L 341.472727 -488.260465 
L 339.36 -488.260465 
L 337.247273 -488.260465 
L 335.134545 -488.260465 
L 333.021818 -488.260465 
L 330.909091 -488.260465 
L 328.796364 -488.260465 
L 326.683636 -488.260465 
L 324.570909 -488.260465 
L 322.458182 -488.260465 
L 320.345455 -488.260465 
L 318.232727 -488.260465 
L 316.12 -488.260465 
L 314.007273 -488.260465 
L 311.894545 -488.260465 
L 309.781818 -488.260465 
L 307.669091 -488.260465 
L 305.556364 -488.260465 
L 303.443636 -488.260465 
L 301.330909 -488.260465 
L 299.218182 -488.260465 
L 297.105455 -488.260465 
L 294.992727 -488.260465 
L 292.88 -488.260465 
L 290.767273 -488.260465 
L 288.654545 -488.260465 
L 286.541818 -488.260465 
L 284.429091 -488.260465 
L 282.316364 -488.260465 
L 280.203636 -488.260465 
L 278.090909 -488.260465 
L 275.978182 -488.260465 
L 273.865455 -488.260465 
L 271.752727 -488.260465 
L 269.64 -488.260465 
z
" style="stroke: #4169e1; stroke-opacity: 0.35; stroke-width: 2"/>
    </defs>
    <g clip-path="url(#p88b502b551)">
     <use xlink:href="#m4b55072b20" x="0" y="576" style="fill: #4169e1; fill-opacity: 0.35; stroke: #4169e1; stroke-opacity: 0.35; stroke-width: 2"/>
    </g>
   </g>
   <g id="FillBetweenPolyCollection_3">
    <path d="M 262.3194 102.742326 
L 262.3194 102.742326 
L 269.64 102.742326 
L 276.9606 102.742326 
L 276.9606 102.742326 
L 276.9606 102.742326 
L 269.64 87.739535 
L 262.3194 102.742326 
z
" style="fill: #c0c0c0"/>
   </g>
   <g id="FillBetweenPolyCollection_4">
    <path d="M 468.342 109.172093 
L 468.342 109.172093 
L 478.8 109.172093 
L 489.258 109.172093 
L 489.258 109.172093 
L 489.258 109.172093 
L 478.8 87.739535 
L 468.342 109.172093 
z
" style="fill: #c0c0c0"/>
   </g>
   <g id="line2d_1">
    <path d="M 60.48 87.739535 
L 62.592727 87.198309 
L 64.705455 86.657082 
L 66.818182 86.115856 
L 68.930909 85.57463 
L 71.043636 85.033404 
L 73.156364 84.492178 
L 75.269091 83.950951 
L 77.381818 83.409725 
L 79.494545 82.868499 
L 81.607273 82.327273 
L 83.72 81.786047 
L 85.832727 81.24482 
L 87.945455 80.703594 
L 90.058182 80.162368 
L 92.170909 79.621142 
L 94.283636 79.079915 
L 96.396364 78.538689 
L 98.509091 77.997463 
L 100.621818 77.456237 
L 102.734545 76.915011 
L 104.847273 76.373784 
L 106.96 75.832558 
L 109.072727 75.291332 
L 111.185455 74.750106 
L 113.298182 74.208879 
L 115.410909 73.667653 
L 117.523636 73.126427 
L 119.636364 72.585201 
L 121.749091 72.043975 
L 123.861818 71.502748 
L 125.974545 70.961522 
L 128.087273 70.420296 
L 130.2 69.87907 
L 132.312727 69.337844 
L 134.425455 68.796617 
L 136.538182 68.255391 
L 138.650909 67.714165 
L 140.763636 67.172939 
L 142.876364 66.631712 
L 144.989091 66.090486 
L 147.101818 65.54926 
L 149.214545 65.008034 
L 151.327273 64.466808 
L 153.44 63.925581 
L 155.552727 63.384355 
L 157.665455 62.843129 
L 159.778182 62.301903 
L 161.890909 61.760677 
L 164.003636 61.21945 
L 166.116364 60.678224 
L 168.229091 60.136998 
L 170.341818 59.595772 
L 172.454545 59.054545 
L 174.567273 58.513319 
L 176.68 57.972093 
L 178.792727 57.430867 
L 180.905455 56.889641 
L 183.018182 56.348414 
L 185.130909 55.807188 
L 187.243636 55.265962 
L 189.356364 54.724736 
L 191.469091 54.18351 
L 193.581818 53.642283 
L 195.694545 53.101057 
L 197.807273 52.559831 
L 199.92 52.018605 
L 202.032727 51.477378 
L 204.145455 50.936152 
L 206.258182 50.394926 
L 208.370909 49.8537 
L 210.483636 49.312474 
L 212.596364 48.771247 
L 214.709091 48.230021 
L 216.821818 47.688795 
L 218.934545 47.147569 
L 221.047273 46.606342 
L 223.16 46.065116 
L 225.272727 45.52389 
L 227.385455 44.982664 
L 229.498182 44.441438 
L 231.610909 43.900211 
L 233.723636 43.358985 
L 235.836364 42.817759 
L 237.949091 42.276533 
L 240.061818 41.735307 
L 242.174545 41.19408 
L 244.287273 40.652854 
L 246.4 40.111628 
L 248.512727 39.570402 
L 250.625455 39.029175 
L 252.738182 38.487949 
L 254.850909 37.946723 
L 256.963636 37.405497 
L 259.076364 36.864271 
L 261.189091 36.323044 
L 263.301818 35.781818 
L 265.414545 35.240592 
L 267.527273 34.699366 
L 269.64 34.15814 
" clip-path="url(#p88b502b551)" style="fill: none; stroke: #4169e1; stroke-width: 2; stroke-linecap: square"/>
   </g>
   <g id="line2d_2">
    <path d="M 60.48 87.739535 
L 269.64 87.739535 
" clip-path="url(#p88b502b551)" style="fill: none; stroke: #000000; stroke-width: 3; stroke-linecap: square"/>
   </g>
   <g id="line2d_3">
    <path d="M 269.64 34.15814 
L 271.752727 35.015354 
L 273.865455 35.855075 
L 275.978182 36.677302 
L 278.090909 37.482034 
L 280.203636 38.269272 
L 282.316364 39.039016 
L 284.429091 39.791266 
L 286.541818 40.526021 
L 288.654545 41.243283 
L 290.767273 41.94305 
L 292.88 42.625323 
L 294.992727 43.290102 
L 297.105455 43.937387 
L 299.218182 44.567177 
L 301.330909 45.179473 
L 303.443636 45.774276 
L 305.556364 46.351583 
L 307.669091 46.911397 
L 309.781818 47.453717 
L 311.894545 47.978542 
L 314.007273 48.485874 
L 316.12 48.975711 
L 318.232727 49.448053 
L 320.345455 49.902902 
L 322.458182 50.340257 
L 324.570909 50.760117 
L 326.683636 51.162483 
L 328.796364 51.547355 
L 330.909091 51.914733 
L 333.021818 52.264617 
L 335.134545 52.597006 
L 337.247273 52.911901 
L 339.36 53.209302 
L 341.472727 53.489209 
L 343.585455 53.751622 
L 345.698182 53.99654 
L 347.810909 54.223965 
L 349.923636 54.433895 
L 352.036364 54.626331 
L 354.149091 54.801273 
L 356.261818 54.95872 
L 358.374545 55.098674 
L 360.487273 55.221133 
L 362.6 55.326098 
L 364.712727 55.413569 
L 366.825455 55.483546 
L 368.938182 55.536028 
L 371.050909 55.571017 
L 373.163636 55.588511 
L 375.276364 55.588511 
L 377.389091 55.571017 
L 379.501818 55.536028 
L 381.614545 55.483546 
L 383.727273 55.413569 
L 385.84 55.326098 
L 387.952727 55.221133 
L 390.065455 55.098674 
L 392.178182 54.95872 
L 394.290909 54.801273 
L 396.403636 54.626331 
L 398.516364 54.433895 
L 400.629091 54.223965 
L 402.741818 53.99654 
L 404.854545 53.751622 
L 406.967273 53.489209 
L 409.08 53.209302 
L 411.192727 52.911901 
L 413.305455 52.597006 
L 415.418182 52.264617 
L 417.530909 51.914733 
L 419.643636 51.547355 
L 421.756364 51.162483 
L 423.869091 50.760117 
L 425.981818 50.340257 
L 428.094545 49.902902 
L 430.207273 49.448053 
L 432.32 48.975711 
L 434.432727 48.485874 
L 436.545455 47.978542 
L 438.658182 47.453717 
L 440.770909 46.911397 
L 442.883636 46.351583 
L 444.996364 45.774276 
L 447.109091 45.179473 
L 449.221818 44.567177 
L 451.334545 43.937387 
L 453.447273 43.290102 
L 455.56 42.625323 
L 457.672727 41.94305 
L 459.785455 41.243283 
L 461.898182 40.526021 
L 464.010909 39.791266 
L 466.123636 39.039016 
L 468.236364 38.269272 
L 470.349091 37.482034 
L 472.461818 36.677302 
L 474.574545 35.855075 
L 476.687273 35.015354 
L 478.8 34.15814 
" clip-path="url(#p88b502b551)" style="fill: none; stroke: #4169e1; stroke-width: 2; stroke-linecap: square"/>
   </g>
   <g id="line2d_4">
    <path d="M 269.64 87.739535 
L 478.8 87.739535 
" clip-path="url(#p88b502b551)" style="fill: none; stroke: #000000; stroke-width: 3; stroke-linecap: square"/>
   </g>
   <g id="line2d_5">
    <path d="M 262.3194 102.742326 
L 269.64 102.742326 
L 276.9606 102.742326 
" style="fill: none; stroke: #000000; stroke-linecap: round"/>
   </g>
   <g id="line2d_6">
    <path d="M 262.3194 102.742326 
L 269.64 87.739535 
L 276.9606 102.742326 
" style="fill: none; stroke: #000000; stroke-linecap: round"/>
   </g>
   <g id="line2d_7">
    <path d="M 265.4568 105.957209 
" style="fill: none; stroke: #000000; stroke-width: 1.5; stroke-linecap: square"/>
    <defs>
     <path id="mff5494f5cb" d="M 0 3 
C 0.795609 3 1.55874 2.683901 2.12132 2.12132 
C 2.683901 1.55874 3 0.795609 3 0 
C 3 -0.795609 2.683901 -1.55874 2.12132 -2.12132 
C 1.55874 -2.683901 0.795609 -3 0 -3 
C -0.795609 -3 -1.55874 -2.683901 -2.12132 -2.12132 
C -2.683901 -1.55874 -3 -0.795609 -3 0 
C -3 0.795609 -2.683901 1.55874 -2.12132 2.12132 
C -1.55874 2.683901 -0.795609 3 0 3 
z
"/>
    </defs>
    <g>
     <use xlink:href="#mff5494f5cb" x="265.4568" y="105.957209"/>
    </g>
   </g>
   <g id="line2d_8">
    <path d="M 273.8232 105.957209 
" style="fill: none; stroke: #000000; stroke-width: 1.5; stroke-linecap: square"/>
    <g>
     <use xlink:href="#mff5494f5cb" x="273.8232" y="105.957209"/>
    </g>
   </g>
   <g id="line2d_9">
    <path d="M 259.182 111.315349 
L 280.098 111.315349 
" style="fill: none; stroke: #c0c0c0; stroke-width: 5"/>
   </g>
   <g id="line2d_10">
    <path d="M 259.182 109.172093 
L 280.098 109.172093 
" style="fill: none; stroke: #000000; stroke-width: 1.5"/>
   </g>
   <g id="line2d_11">
    <path d="M 468.342 109.172093 
L 478.8 109.172093 
L 489.258 109.172093 
" style="fill: none; stroke: #000000; stroke-linecap: round"/>
   </g>
   <g id="line2d_12">
    <path d="M 468.342 109.172093 
L 478.8 87.739535 
L 489.258 109.172093 
" style="fill: none; stroke: #000000; stroke-linecap: round"/>
   </g>
   <g id="line2d_13">
    <path d="M 468.342 111.315349 
L 489.258 111.315349 
" style="fill: none; stroke: #c0c0c0; stroke-width: 5"/>
   </g>
   <g id="line2d_14">
    <path d="M 468.342 109.172093 
L 489.258 109.172093 
" style="fill: none; stroke: #000000; stroke-width: 1.5"/>
   </g>
  </g>
  <g id="axes_2">
   <g id="patch_2">
    <path d="M 60.48 276.346047 
L 478.8 276.346047 
L 478.8 158.466977 
L 60.48 158.466977 
z
" style="fill: #ffffff"/>
   </g>
   <g id="FillBetweenPolyCollection_5">
    <defs>
     <path id="m33f11883b3" d="M 60.48 -360.32192 
L 60.48 -360.32192 
L 62.592727 -360.327211 
L 64.705455 -360.343083 
L 66.818182 -360.369536 
L 68.930909 -360.40657 
L 71.043636 -360.454185 
L 73.156364 -360.512381 
L 75.269091 -360.581159 
L 77.381818 -360.660518 
L 79.494545 -360.750457 
L 81.607273 -360.850978 
L 83.72 -360.962081 
L 85.832727 -361.083764 
L 87.945455 -361.216028 
L 90.058182 -361.358874 
L 92.170909 -361.512301 
L 94.283636 -361.676309 
L 96.396364 -361.850898 
L 98.509091 -362.036068 
L 100.621818 -362.231819 
L 102.734545 -362.438152 
L 104.847273 -362.655066 
L 106.96 -362.882561 
L 109.072727 -363.120637 
L 111.185455 -363.369294 
L 113.298182 -363.628532 
L 115.410909 -363.898352 
L 117.523636 -364.178752 
L 119.636364 -364.469734 
L 121.749091 -364.771297 
L 123.861818 -365.083441 
L 125.974545 -365.406167 
L 128.087273 -365.739473 
L 130.2 -366.083361 
L 132.312727 -366.43783 
L 134.425455 -366.80288 
L 136.538182 -367.178511 
L 138.650909 -367.564723 
L 140.763636 -367.961516 
L 142.876364 -368.368891 
L 144.989091 -368.786847 
L 147.101818 -369.215384 
L 149.214545 -369.654502 
L 151.327273 -370.104201 
L 153.44 -370.564481 
L 155.552727 -371.035343 
L 157.665455 -371.516785 
L 159.778182 -372.008809 
L 161.890909 -372.511414 
L 164.003636 -373.0246 
L 166.116364 -373.548368 
L 168.229091 -374.082716 
L 170.341818 -374.627646 
L 172.454545 -375.183156 
L 174.567273 -375.749248 
L 176.68 -376.325921 
L 178.792727 -376.913176 
L 180.905455 -377.511011 
L 183.018182 -378.119428 
L 185.130909 -378.738425 
L 187.243636 -379.368004 
L 189.356364 -380.008164 
L 191.469091 -380.658906 
L 193.581818 -381.320228 
L 195.694545 -381.992131 
L 197.807273 -382.674616 
L 199.92 -383.367682 
L 202.032727 -384.071329 
L 204.145455 -384.785557 
L 206.258182 -385.510366 
L 208.370909 -386.245757 
L 210.483636 -386.991728 
L 212.596364 -387.748281 
L 214.709091 -388.515415 
L 216.821818 -389.29313 
L 218.934545 -390.081426 
L 221.047273 -390.880304 
L 223.16 -391.689762 
L 225.272727 -392.509802 
L 227.385455 -393.340423 
L 229.498182 -394.181625 
L 231.610909 -395.033408 
L 233.723636 -395.895773 
L 235.836364 -396.768718 
L 237.949091 -397.652245 
L 240.061818 -398.546353 
L 242.174545 -399.451042 
L 244.287273 -400.366312 
L 246.4 -401.292163 
L 248.512727 -402.228595 
L 250.625455 -403.175609 
L 252.738182 -404.133204 
L 254.850909 -405.10138 
L 256.963636 -406.080137 
L 259.076364 -407.069475 
L 261.189091 -408.069395 
L 263.301818 -409.079895 
L 265.414545 -410.100977 
L 267.527273 -411.13264 
L 269.64 -412.174884 
L 269.64 -360.32192 
L 269.64 -360.32192 
L 267.527273 -360.32192 
L 265.414545 -360.32192 
L 263.301818 -360.32192 
L 261.189091 -360.32192 
L 259.076364 -360.32192 
L 256.963636 -360.32192 
L 254.850909 -360.32192 
L 252.738182 -360.32192 
L 250.625455 -360.32192 
L 248.512727 -360.32192 
L 246.4 -360.32192 
L 244.287273 -360.32192 
L 242.174545 -360.32192 
L 240.061818 -360.32192 
L 237.949091 -360.32192 
L 235.836364 -360.32192 
L 233.723636 -360.32192 
L 231.610909 -360.32192 
L 229.498182 -360.32192 
L 227.385455 -360.32192 
L 225.272727 -360.32192 
L 223.16 -360.32192 
L 221.047273 -360.32192 
L 218.934545 -360.32192 
L 216.821818 -360.32192 
L 214.709091 -360.32192 
L 212.596364 -360.32192 
L 210.483636 -360.32192 
L 208.370909 -360.32192 
L 206.258182 -360.32192 
L 204.145455 -360.32192 
L 202.032727 -360.32192 
L 199.92 -360.32192 
L 197.807273 -360.32192 
L 195.694545 -360.32192 
L 193.581818 -360.32192 
L 191.469091 -360.32192 
L 189.356364 -360.32192 
L 187.243636 -360.32192 
L 185.130909 -360.32192 
L 183.018182 -360.32192 
L 180.905455 -360.32192 
L 178.792727 -360.32192 
L 176.68 -360.32192 
L 174.567273 -360.32192 
L 172.454545 -360.32192 
L 170.341818 -360.32192 
L 168.229091 -360.32192 
L 166.116364 -360.32192 
L 164.003636 -360.32192 
L 161.890909 -360.32192 
L 159.778182 -360.32192 
L 157.665455 -360.32192 
L 155.552727 -360.32192 
L 153.44 -360.32192 
L 151.327273 -360.32192 
L 149.214545 -360.32192 
L 147.101818 -360.32192 
L 144.989091 -360.32192 
L 142.876364 -360.32192 
L 140.763636 -360.32192 
L 138.650909 -360.32192 
L 136.538182 -360.32192 
L 134.425455 -360.32192 
L 132.312727 -360.32192 
L 130.2 -360.32192 
L 128.087273 -360.32192 
L 125.974545 -360.32192 
L 123.861818 -360.32192 
L 121.749091 -360.32192 
L 119.636364 -360.32192 
L 117.523636 -360.32192 
L 115.410909 -360.32192 
L 113.298182 -360.32192 
L 111.185455 -360.32192 
L 109.072727 -360.32192 
L 106.96 -360.32192 
L 104.847273 -360.32192 
L 102.734545 -360.32192 
L 100.621818 -360.32192 
L 98.509091 -360.32192 
L 96.396364 -360.32192 
L 94.283636 -360.32192 
L 92.170909 -360.32192 
L 90.058182 -360.32192 
L 87.945455 -360.32192 
L 85.832727 -360.32192 
L 83.72 -360.32192 
L 81.607273 -360.32192 
L 79.494545 -360.32192 
L 77.381818 -360.32192 
L 75.269091 -360.32192 
L 73.156364 -360.32192 
L 71.043636 -360.32192 
L 68.930909 -360.32192 
L 66.818182 -360.32192 
L 64.705455 -360.32192 
L 62.592727 -360.32192 
L 60.48 -360.32192 
z
" style="stroke: #228b22; stroke-opacity: 0.35"/>
    </defs>
    <g clip-path="url(#pb5857b7a19)">
     <use xlink:href="#m33f11883b3" x="0" y="576" style="fill: #228b22; fill-opacity: 0.35; stroke: #228b22; stroke-opacity: 0.35"/>
    </g>
   </g>
   <g id="FillBetweenPolyCollection_6">
    <defs>
     <path id="m3b7649f1b9" d="M 269.64 -360.32192 
L 269.64 -305.012093 
L 271.752727 -306.05122 
L 273.865455 -307.073759 
L 275.978182 -308.080052 
L 278.090909 -309.070441 
L 280.203636 -310.045268 
L 282.316364 -311.004876 
L 284.429091 -311.949606 
L 286.541818 -312.8798 
L 288.654545 -313.795801 
L 290.767273 -314.697949 
L 292.88 -315.586588 
L 294.992727 -316.46206 
L 297.105455 -317.324706 
L 299.218182 -318.174868 
L 301.330909 -319.012888 
L 303.443636 -319.839109 
L 305.556364 -320.653873 
L 307.669091 -321.457521 
L 309.781818 -322.250395 
L 311.894545 -323.032838 
L 314.007273 -323.805191 
L 316.12 -324.567797 
L 318.232727 -325.320997 
L 320.345455 -326.065134 
L 322.458182 -326.800549 
L 324.570909 -327.527585 
L 326.683636 -328.246584 
L 328.796364 -328.957887 
L 330.909091 -329.661837 
L 333.021818 -330.358775 
L 335.134545 -331.049044 
L 337.247273 -331.732986 
L 339.36 -332.410943 
L 341.472727 -333.083256 
L 343.585455 -333.750268 
L 345.698182 -334.412321 
L 347.810909 -335.069756 
L 349.923636 -335.722916 
L 352.036364 -336.372143 
L 354.149091 -337.017779 
L 356.261818 -337.660166 
L 358.374545 -338.299646 
L 360.487273 -338.93656 
L 362.6 -339.571251 
L 364.712727 -340.204062 
L 366.825455 -340.835333 
L 368.938182 -341.465407 
L 371.050909 -342.094626 
L 373.163636 -342.723332 
L 375.276364 -343.351867 
L 377.389091 -343.980573 
L 379.501818 -344.609792 
L 381.614545 -345.239866 
L 383.727273 -345.871137 
L 385.84 -346.503947 
L 387.952727 -347.138639 
L 390.065455 -347.775553 
L 392.178182 -348.415033 
L 394.290909 -349.05742 
L 396.403636 -349.703055 
L 398.516364 -350.352282 
L 400.629091 -351.005443 
L 402.741818 -351.662878 
L 404.854545 -352.324931 
L 406.967273 -352.991943 
L 409.08 -353.664256 
L 411.192727 -354.342213 
L 413.305455 -355.026154 
L 415.418182 -355.716424 
L 417.530909 -356.413362 
L 419.643636 -357.117312 
L 421.756364 -357.828615 
L 423.869091 -358.547614 
L 425.981818 -359.27465 
L 428.094545 -360.010065 
L 430.207273 -360.754202 
L 432.32 -361.507402 
L 434.432727 -362.270008 
L 436.545455 -363.042361 
L 438.658182 -363.824804 
L 440.770909 -364.617678 
L 442.883636 -365.421326 
L 444.996364 -366.236089 
L 447.109091 -367.06231 
L 449.221818 -367.900331 
L 451.334545 -368.750493 
L 453.447273 -369.613139 
L 455.56 -370.48861 
L 457.672727 -371.377249 
L 459.785455 -372.279398 
L 461.898182 -373.195399 
L 464.010909 -374.125593 
L 466.123636 -375.070323 
L 468.236364 -376.029931 
L 470.349091 -377.004758 
L 472.461818 -377.995147 
L 474.574545 -379.00144 
L 476.687273 -380.023979 
L 478.8 -381.063106 
L 478.8 -360.32192 
L 478.8 -360.32192 
L 476.687273 -360.32192 
L 474.574545 -360.32192 
L 472.461818 -360.32192 
L 470.349091 -360.32192 
L 468.236364 -360.32192 
L 466.123636 -360.32192 
L 464.010909 -360.32192 
L 461.898182 -360.32192 
L 459.785455 -360.32192 
L 457.672727 -360.32192 
L 455.56 -360.32192 
L 453.447273 -360.32192 
L 451.334545 -360.32192 
L 449.221818 -360.32192 
L 447.109091 -360.32192 
L 444.996364 -360.32192 
L 442.883636 -360.32192 
L 440.770909 -360.32192 
L 438.658182 -360.32192 
L 436.545455 -360.32192 
L 434.432727 -360.32192 
L 432.32 -360.32192 
L 430.207273 -360.32192 
L 428.094545 -360.32192 
L 425.981818 -360.32192 
L 423.869091 -360.32192 
L 421.756364 -360.32192 
L 419.643636 -360.32192 
L 417.530909 -360.32192 
L 415.418182 -360.32192 
L 413.305455 -360.32192 
L 411.192727 -360.32192 
L 409.08 -360.32192 
L 406.967273 -360.32192 
L 404.854545 -360.32192 
L 402.741818 -360.32192 
L 400.629091 -360.32192 
L 398.516364 -360.32192 
L 396.403636 -360.32192 
L 394.290909 -360.32192 
L 392.178182 -360.32192 
L 390.065455 -360.32192 
L 387.952727 -360.32192 
L 385.84 -360.32192 
L 383.727273 -360.32192 
L 381.614545 -360.32192 
L 379.501818 -360.32192 
L 377.389091 -360.32192 
L 375.276364 -360.32192 
L 373.163636 -360.32192 
L 371.050909 -360.32192 
L 368.938182 -360.32192 
L 366.825455 -360.32192 
L 364.712727 -360.32192 
L 362.6 -360.32192 
L 360.487273 -360.32192 
L 358.374545 -360.32192 
L 356.261818 -360.32192 
L 354.149091 -360.32192 
L 352.036364 -360.32192 
L 349.923636 -360.32192 
L 347.810909 -360.32192 
L 345.698182 -360.32192 
L 343.585455 -360.32192 
L 341.472727 -360.32192 
L 339.36 -360.32192 
L 337.247273 -360.32192 
L 335.134545 -360.32192 
L 333.021818 -360.32192 
L 330.909091 -360.32192 
L 328.796364 -360.32192 
L 326.683636 -360.32192 
L 324.570909 -360.32192 
L 322.458182 -360.32192 
L 320.345455 -360.32192 
L 318.232727 -360.32192 
L 316.12 -360.32192 
L 314.007273 -360.32192 
L 311.894545 -360.32192 
L 309.781818 -360.32192 
L 307.669091 -360.32192 
L 305.556364 -360.32192 
L 303.443636 -360.32192 
L 301.330909 -360.32192 
L 299.218182 -360.32192 
L 297.105455 -360.32192 
L 294.992727 -360.32192 
L 292.88 -360.32192 
L 290.767273 -360.32192 
L 288.654545 -360.32192 
L 286.541818 -360.32192 
L 284.429091 -360.32192 
L 282.316364 -360.32192 
L 280.203636 -360.32192 
L 278.090909 -360.32192 
L 275.978182 -360.32192 
L 273.865455 -360.32192 
L 271.752727 -360.32192 
L 269.64 -360.32192 
z
" style="stroke: #228b22; stroke-opacity: 0.35"/>
    </defs>
    <g clip-path="url(#pb5857b7a19)">
     <use xlink:href="#m3b7649f1b9" x="0" y="576" style="fill: #228b22; fill-opacity: 0.35; stroke: #228b22; stroke-opacity: 0.35"/>
    </g>
   </g>
   <g id="matplotlib.axis_1">
    <g id="xtick_1">
     <g id="line2d_15">
      <defs>
       <path id="m5ff1fa64e7" d="M 0 0 
L 0 3.5 
" style="stroke: #000000; stroke-width: 0.8"/>
      </defs>
      <g>
       <use xlink:href="#m5ff1fa64e7" x="60.48" y="276.346047" style="stroke: #000000; stroke-width: 0.8"/>
      </g>
     </g>
    </g>
    <g id="xtick_2">
     <g id="line2d_16">
      <g>
       <use xlink:href="#m5ff1fa64e7" x="112.77" y="276.346047" style="stroke: #000000; stroke-width: 0.8"/>
      </g>
     </g>
    </g>
    <g id="xtick_3">
     <g id="line2d_17">
      <g>
       <use xlink:href="#m5ff1fa64e7" x="165.06" y="276.346047" style="stroke: #000000; stroke-width: 0.8"/>
      </g>
     </g>
    </g>
    <g id="xtick_4">
     <g id="line2d_18">
      <g>
       <use xlink:href="#m5ff1fa64e7" x="217.35" y="276.346047" style="stroke: #000000; stroke-width: 0.8"/>
      </g>
     </g>
    </g>
    <g id="xtick_5">
     <g id="line2d_19">
      <g>
       <use xlink:href="#m5ff1fa64e7" x="269.64" y="276.346047" style="stroke: #000000; stroke-width: 0.8"/>
      </g>
     </g>
    </g>
    <g id="xtick_6">
     <g id="line2d_20">
      <g>
       <use xlink:href="#m5ff1fa64e7" x="321.93" y="276.346047" style="stroke: #000000; stroke-width: 0.8"/>
      </g>
     </g>
    </g>
    <g id="xtick_7">
     <g id="line2d_21">
      <g>
       <use xlink:href="#m5ff1fa64e7" x="374.22" y="276.346047" style="stroke: #000000; stroke-width: 0.8"/>
      </g>
     </g>
    </g>
    <g id="xtick_8">
     <g id="line2d_22">
      <g>
       <use xlink:href="#m5ff1fa64e7" x="426.51" y="276.346047" style="stroke: #000000; stroke-width: 0.8"/>
      </g>
     </g>
    </g>
    <g id="xtick_9">
     <g id="line2d_23">
      <g>
       <use xlink:href="#m5ff1fa64e7" x="478.8" y="276.346047" style="stroke: #000000; stroke-width: 0.8"/>
      </g>
     </g>
    </g>
   </g>
   <g id="matplotlib.axis_2">
    <g id="ytick_1">
     <g id="line2d_24">
      <defs>
       <path id="m9b19e4fe92" d="M 0 0 
L -3.5 0 
" style="stroke: #000000; stroke-width: 0.8"/>
      </defs>
      <g>
       <use xlink:href="#m9b19e4fe92" x="60.48" y="267.531043" style="stroke: #000000; stroke-width: 0.8"/>
      </g>
     </g>
     <g id="text_1">
      <!-- -1e+01 -->
      <g transform="translate(16.251875 271.330262) scale(0.1 -0.1)">
       <defs>
        <path id="DejaVuSans-2d" d="M 313 2009 
L 1997 2009 
L 1997 1497 
L 313 1497 
L 313 2009 
z
" transform="scale(0.015625)"/>
        <path id="DejaVuSans-31" d="M 794 531 
L 1825 531 
L 1825 4091 
L 703 3866 
L 703 4441 
L 1819 4666 
L 2450 4666 
L 2450 531 
L 3481 531 
L 3481 0 
L 794 0 
L 794 531 
z
" transform="scale(0.015625)"/>
        <path id="DejaVuSans-65" d="M 3597 1894 
L 3597 1613 
L 953 1613 
Q 991 1019 1311 708 
Q 1631 397 2203 397 
Q 2534 397 2845 478 
Q 3156 559 3463 722 
L 3463 178 
Q 3153 47 2828 -22 
Q 2503 -91 2169 -91 
Q 1331 -91 842 396 
Q 353 884 353 1716 
Q 353 2575 817 3079 
Q 1281 3584 2069 3584 
Q 2775 3584 3186 3129 
Q 3597 2675 3597 1894 
z
M 3022 2063 
Q 3016 2534 2758 2815 
Q 2500 3097 2075 3097 
Q 1594 3097 1305 2825 
Q 1016 2553 972 2059 
L 3022 2063 
z
" transform="scale(0.015625)"/>
        <path id="DejaVuSans-2b" d="M 2944 4013 
L 2944 2272 
L 4684 2272 
L 4684 1741 
L 2944 1741 
L 2944 0 
L 2419 0 
L 2419 1741 
L 678 1741 
L 678 2272 
L 2419 2272 
L 2419 4013 
L 2944 4013 
z
" transform="scale(0.015625)"/>
        <path id="DejaVuSans-30" d="M 2034 4250 
Q 1547 4250 1301 3770 
Q 1056 3291 1056 2328 
Q 1056 1369 1301 889 
Q 1547 409 2034 409 
Q 2525 409 2770 889 
Q 3016 1369 3016 2328 
Q 3016 3291 2770 3770 
Q 2525 4250 2034 4250 
z
M 2034 4750 
Q 2819 4750 3233 4129 
Q 3647 3509 3647 2328 
Q 3647 1150 3233 529 
Q 2819 -91 2034 -91 
Q 1250 -91 836 529 
Q 422 1150 422 2328 
Q 422 3509 836 4129 
Q 1250 4750 2034 4750 
z
" transform="scale(0.015625)"/>
       </defs>
       <use xlink:href="#DejaVuSans-2d"/>
       <use xlink:href="#DejaVuSans-31" transform="translate(36.083984 0)"/>
       <use xlink:href="#DejaVuSans-65" transform="translate(99.707031 0)"/>
       <use xlink:href="#DejaVuSans-2b" transform="translate(161.230469 0)"/>
       <use xlink:href="#DejaVuSans-30" transform="translate(245.019531 0)"/>
       <use xlink:href="#DejaVuSans-31" transform="translate(308.642578 0)"/>
      </g>
     </g>
    </g>
    <g id="ytick_2">
     <g id="line2d_25">
      <g>
       <use xlink:href="#m9b19e4fe92" x="60.48" y="241.604561" style="stroke: #000000; stroke-width: 0.8"/>
      </g>
     </g>
     <g id="text_2">
      <!-- -5e+00 -->
      <g transform="translate(16.251875 245.40378) scale(0.1 -0.1)">
       <defs>
        <path id="DejaVuSans-35" d="M 691 4666 
L 3169 4666 
L 3169 4134 
L 1269 4134 
L 1269 2991 
Q 1406 3038 1543 3061 
Q 1681 3084 1819 3084 
Q 2600 3084 3056 2656 
Q 3513 2228 3513 1497 
Q 3513 744 3044 326 
Q 2575 -91 1722 -91 
Q 1428 -91 1123 -41 
Q 819 9 494 109 
L 494 744 
Q 775 591 1075 516 
Q 1375 441 1709 441 
Q 2250 441 2565 725 
Q 2881 1009 2881 1497 
Q 2881 1984 2565 2268 
Q 2250 2553 1709 2553 
Q 1456 2553 1204 2497 
Q 953 2441 691 2322 
L 691 4666 
z
" transform="scale(0.015625)"/>
       </defs>
       <use xlink:href="#DejaVuSans-2d"/>
       <use xlink:href="#DejaVuSans-35" transform="translate(36.083984 0)"/>
       <use xlink:href="#DejaVuSans-65" transform="translate(99.707031 0)"/>
       <use xlink:href="#DejaVuSans-2b" transform="translate(161.230469 0)"/>
       <use xlink:href="#DejaVuSans-30" transform="translate(245.019531 0)"/>
       <use xlink:href="#DejaVuSans-30" transform="translate(308.642578 0)"/>
      </g>
     </g>
    </g>
    <g id="ytick_3">
     <g id="line2d_26">
      <g>
       <use xlink:href="#m9b19e4fe92" x="60.48" y="215.67808" style="stroke: #000000; stroke-width: 0.8"/>
      </g>
     </g>
     <g id="text_3">
      <!-- 0e+00 -->
      <g transform="translate(19.859687 219.477298) scale(0.1 -0.1)">
       <use xlink:href="#DejaVuSans-30"/>
       <use xlink:href="#DejaVuSans-65" transform="translate(63.623047 0)"/>
       <use xlink:href="#DejaVuSans-2b" transform="translate(125.146484 0)"/>
       <use xlink:href="#DejaVuSans-30" transform="translate(208.935547 0)"/>
       <use xlink:href="#DejaVuSans-30" transform="translate(272.558594 0)"/>
      </g>
     </g>
    </g>
    <g id="ytick_4">
     <g id="line2d_27">
      <g>
       <use xlink:href="#m9b19e4fe92" x="60.48" y="189.751598" style="stroke: #000000; stroke-width: 0.8"/>
      </g>
     </g>
     <g id="text_4">
      <!-- 5e+00 -->
      <g transform="translate(19.859687 193.550817) scale(0.1 -0.1)">
       <use xlink:href="#DejaVuSans-35"/>
       <use xlink:href="#DejaVuSans-65" transform="translate(63.623047 0)"/>
       <use xlink:href="#DejaVuSans-2b" transform="translate(125.146484 0)"/>
       <use xlink:href="#DejaVuSans-30" transform="translate(208.935547 0)"/>
       <use xlink:href="#DejaVuSans-30" transform="translate(272.558594 0)"/>
      </g>
     </g>
    </g>
    <g id="ytick_5">
     <g id="line2d_28">
      <g>
       <use xlink:href="#m9b19e4fe92" x="60.48" y="163.825116" style="stroke: #000000; stroke-width: 0.8"/>
      </g>
     </g>
     <g id="text_5">
      <!-- 1e+01 -->
      <g transform="translate(19.859687 167.624335) scale(0.1 -0.1)">
       <use xlink:href="#DejaVuSans-31"/>
       <use xlink:href="#DejaVuSans-65" transform="translate(63.623047 0)"/>
       <use xlink:href="#DejaVuSans-2b" transform="translate(125.146484 0)"/>
       <use xlink:href="#DejaVuSans-30" transform="translate(208.935547 0)"/>
       <use xlink:href="#DejaVuSans-31" transform="translate(272.558594 0)"/>
      </g>
     </g>
    </g>
    <g id="text_6">
     <!-- Shear force, $V(x)$ -->
     <g transform="translate(10.172187 259.706512) rotate(-90) scale(0.1 -0.1)">
      <defs>
       <path id="DejaVuSans-53" d="M 3425 4513 
L 3425 3897 
Q 3066 4069 2747 4153 
Q 2428 4238 2131 4238 
Q 1616 4238 1336 4038 
Q 1056 3838 1056 3469 
Q 1056 3159 1242 3001 
Q 1428 2844 1947 2747 
L 2328 2669 
Q 3034 2534 3370 2195 
Q 3706 1856 3706 1288 
Q 3706 609 3251 259 
Q 2797 -91 1919 -91 
Q 1588 -91 1214 -16 
Q 841 59 441 206 
L 441 856 
Q 825 641 1194 531 
Q 1563 422 1919 422 
Q 2459 422 2753 634 
Q 3047 847 3047 1241 
Q 3047 1584 2836 1778 
Q 2625 1972 2144 2069 
L 1759 2144 
Q 1053 2284 737 2584 
Q 422 2884 422 3419 
Q 422 4038 858 4394 
Q 1294 4750 2059 4750 
Q 2388 4750 2728 4690 
Q 3069 4631 3425 4513 
z
" transform="scale(0.015625)"/>
       <path id="DejaVuSans-68" d="M 3513 2113 
L 3513 0 
L 2938 0 
L 2938 2094 
Q 2938 2591 2744 2837 
Q 2550 3084 2163 3084 
Q 1697 3084 1428 2787 
Q 1159 2491 1159 1978 
L 1159 0 
L 581 0 
L 581 4863 
L 1159 4863 
L 1159 2956 
Q 1366 3272 1645 3428 
Q 1925 3584 2291 3584 
Q 2894 3584 3203 3211 
Q 3513 2838 3513 2113 
z
" transform="scale(0.015625)"/>
       <path id="DejaVuSans-61" d="M 2194 1759 
Q 1497 1759 1228 1600 
Q 959 1441 959 1056 
Q 959 750 1161 570 
Q 1363 391 1709 391 
Q 2188 391 2477 730 
Q 2766 1069 2766 1631 
L 2766 1759 
L 2194 1759 
z
M 3341 1997 
L 3341 0 
L 2766 0 
L 2766 531 
Q 2569 213 2275 61 
Q 1981 -91 1556 -91 
Q 1019 -91 701 211 
Q 384 513 384 1019 
Q 384 1609 779 1909 
Q 1175 2209 1959 2209 
L 2766 2209 
L 2766 2266 
Q 2766 2663 2505 2880 
Q 2244 3097 1772 3097 
Q 1472 3097 1187 3025 
Q 903 2953 641 2809 
L 641 3341 
Q 956 3463 1253 3523 
Q 1550 3584 1831 3584 
Q 2591 3584 2966 3190 
Q 3341 2797 3341 1997 
z
" transform="scale(0.015625)"/>
       <path id="DejaVuSans-72" d="M 2631 2963 
Q 2534 3019 2420 3045 
Q 2306 3072 2169 3072 
Q 1681 3072 1420 2755 
Q 1159 2438 1159 1844 
L 1159 0 
L 581 0 
L 581 3500 
L 1159 3500 
L 1159 2956 
Q 1341 3275 1631 3429 
Q 1922 3584 2338 3584 
Q 2397 3584 2469 3576 
Q 2541 3569 2628 3553 
L 2631 2963 
z
" transform="scale(0.015625)"/>
       <path id="DejaVuSans-20" transform="scale(0.015625)"/>
       <path id="DejaVuSans-66" d="M 2375 4863 
L 2375 4384 
L 1825 4384 
Q 1516 4384 1395 4259 
Q 1275 4134 1275 3809 
L 1275 3500 
L 2222 3500 
L 2222 3053 
L 1275 3053 
L 1275 0 
L 697 0 
L 697 3053 
L 147 3053 
L 147 3500 
L 697 3500 
L 697 3744 
Q 697 4328 969 4595 
Q 1241 4863 1831 4863 
L 2375 4863 
z
" transform="scale(0.015625)"/>
       <path id="DejaVuSans-6f" d="M 1959 3097 
Q 1497 3097 1228 2736 
Q 959 2375 959 1747 
Q 959 1119 1226 758 
Q 1494 397 1959 397 
Q 2419 397 2687 759 
Q 2956 1122 2956 1747 
Q 2956 2369 2687 2733 
Q 2419 3097 1959 3097 
z
M 1959 3584 
Q 2709 3584 3137 3096 
Q 3566 2609 3566 1747 
Q 3566 888 3137 398 
Q 2709 -91 1959 -91 
Q 1206 -91 779 398 
Q 353 888 353 1747 
Q 353 2609 779 3096 
Q 1206 3584 1959 3584 
z
" transform="scale(0.015625)"/>
       <path id="DejaVuSans-63" d="M 3122 3366 
L 3122 2828 
Q 2878 2963 2633 3030 
Q 2388 3097 2138 3097 
Q 1578 3097 1268 2742 
Q 959 2388 959 1747 
Q 959 1106 1268 751 
Q 1578 397 2138 397 
Q 2388 397 2633 464 
Q 2878 531 3122 666 
L 3122 134 
Q 2881 22 2623 -34 
Q 2366 -91 2075 -91 
Q 1284 -91 818 406 
Q 353 903 353 1747 
Q 353 2603 823 3093 
Q 1294 3584 2113 3584 
Q 2378 3584 2631 3529 
Q 2884 3475 3122 3366 
z
" transform="scale(0.015625)"/>
       <path id="DejaVuSans-2c" d="M 750 794 
L 1409 794 
L 1409 256 
L 897 -744 
L 494 -744 
L 750 256 
L 750 794 
z
" transform="scale(0.015625)"/>
       <path id="DejaVuSans-Oblique-56" d="M 1319 0 
L 500 4666 
L 1119 4666 
L 1797 653 
L 4063 4666 
L 4750 4666 
L 2053 0 
L 1319 0 
z
" transform="scale(0.015625)"/>
       <path id="DejaVuSans-28" d="M 1984 4856 
Q 1566 4138 1362 3434 
Q 1159 2731 1159 2009 
Q 1159 1288 1364 580 
Q 1569 -128 1984 -844 
L 1484 -844 
Q 1016 -109 783 600 
Q 550 1309 550 2009 
Q 550 2706 781 3412 
Q 1013 4119 1484 4856 
L 1984 4856 
z
" transform="scale(0.015625)"/>
       <path id="DejaVuSans-Oblique-78" d="M 3841 3500 
L 2234 1784 
L 3219 0 
L 2559 0 
L 1819 1388 
L 531 0 
L -166 0 
L 1556 1844 
L 641 3500 
L 1300 3500 
L 1972 2234 
L 3144 3500 
L 3841 3500 
z
" transform="scale(0.015625)"/>
       <path id="DejaVuSans-29" d="M 513 4856 
L 1013 4856 
Q 1481 4119 1714 3412 
Q 1947 2706 1947 2009 
Q 1947 1309 1714 600 
Q 1481 -109 1013 -844 
L 513 -844 
Q 928 -128 1133 580 
Q 1338 1288 1338 2009 
Q 1338 2731 1133 3434 
Q 928 4138 513 4856 
z
" transform="scale(0.015625)"/>
      </defs>
      <use xlink:href="#DejaVuSans-53" transform="translate(0 0.015625)"/>
      <use xlink:href="#DejaVuSans-68" transform="translate(63.476562 0.015625)"/>
      <use xlink:href="#DejaVuSans-65" transform="translate(126.855469 0.015625)"/>
      <use xlink:href="#DejaVuSans-61" transform="translate(188.378906 0.015625)"/>
      <use xlink:href="#DejaVuSans-72" transform="translate(249.658203 0.015625)"/>
      <use xlink:href="#DejaVuSans-20" transform="translate(290.771484 0.015625)"/>
      <use xlink:href="#DejaVuSans-66" transform="translate(322.558594 0.015625)"/>
      <use xlink:href="#DejaVuSans-6f" transform="translate(357.763672 0.015625)"/>
      <use xlink:href="#DejaVuSans-72" transform="translate(418.945312 0.015625)"/>
      <use xlink:href="#DejaVuSans-63" transform="translate(460.058594 0.015625)"/>
      <use xlink:href="#DejaVuSans-65" transform="translate(515.039062 0.015625)"/>
      <use xlink:href="#DejaVuSans-2c" transform="translate(576.5625 0.015625)"/>
      <use xlink:href="#DejaVuSans-20" transform="translate(608.349609 0.015625)"/>
      <use xlink:href="#DejaVuSans-Oblique-56" transform="translate(640.136719 0.015625)"/>
      <use xlink:href="#DejaVuSans-28" transform="translate(708.544922 0.015625)"/>
      <use xlink:href="#DejaVuSans-Oblique-78" transform="translate(747.558594 0.015625)"/>
      <use xlink:href="#DejaVuSans-29" transform="translate(806.738281 0.015625)"/>
     </g>
    </g>
   </g>
   <g id="line2d_29">
    <path d="M 60.48 215.67808 
L 62.592727 215.672789 
L 64.705455 215.656917 
L 66.818182 215.630464 
L 68.930909 215.59343 
L 71.043636 215.545815 
L 73.156364 215.487619 
L 75.269091 215.418841 
L 77.381818 215.339482 
L 79.494545 215.249543 
L 81.607273 215.149022 
L 83.72 215.037919 
L 85.832727 214.916236 
L 87.945455 214.783972 
L 90.058182 214.641126 
L 92.170909 214.487699 
L 94.283636 214.323691 
L 96.396364 214.149102 
L 98.509091 213.963932 
L 100.621818 213.768181 
L 102.734545 213.561848 
L 104.847273 213.344934 
L 106.96 213.117439 
L 109.072727 212.879363 
L 111.185455 212.630706 
L 113.298182 212.371468 
L 115.410909 212.101648 
L 117.523636 211.821248 
L 119.636364 211.530266 
L 121.749091 211.228703 
L 123.861818 210.916559 
L 125.974545 210.593833 
L 128.087273 210.260527 
L 130.2 209.916639 
L 132.312727 209.56217 
L 134.425455 209.19712 
L 136.538182 208.821489 
L 138.650909 208.435277 
L 140.763636 208.038484 
L 142.876364 207.631109 
L 144.989091 207.213153 
L 147.101818 206.784616 
L 149.214545 206.345498 
L 151.327273 205.895799 
L 153.44 205.435519 
L 155.552727 204.964657 
L 157.665455 204.483215 
L 159.778182 203.991191 
L 161.890909 203.488586 
L 164.003636 202.9754 
L 166.116364 202.451632 
L 168.229091 201.917284 
L 170.341818 201.372354 
L 172.454545 200.816844 
L 174.567273 200.250752 
L 176.68 199.674079 
L 178.792727 199.086824 
L 180.905455 198.488989 
L 183.018182 197.880572 
L 185.130909 197.261575 
L 187.243636 196.631996 
L 189.356364 195.991836 
L 191.469091 195.341094 
L 193.581818 194.679772 
L 195.694545 194.007869 
L 197.807273 193.325384 
L 199.92 192.632318 
L 202.032727 191.928671 
L 204.145455 191.214443 
L 206.258182 190.489634 
L 208.370909 189.754243 
L 210.483636 189.008272 
L 212.596364 188.251719 
L 214.709091 187.484585 
L 216.821818 186.70687 
L 218.934545 185.918574 
L 221.047273 185.119696 
L 223.16 184.310238 
L 225.272727 183.490198 
L 227.385455 182.659577 
L 229.498182 181.818375 
L 231.610909 180.966592 
L 233.723636 180.104227 
L 235.836364 179.231282 
L 237.949091 178.347755 
L 240.061818 177.453647 
L 242.174545 176.548958 
L 244.287273 175.633688 
L 246.4 174.707837 
L 248.512727 173.771405 
L 250.625455 172.824391 
L 252.738182 171.866796 
L 254.850909 170.89862 
L 256.963636 169.919863 
L 259.076364 168.930525 
L 261.189091 167.930605 
L 263.301818 166.920105 
L 265.414545 165.899023 
L 267.527273 164.86736 
L 269.64 163.825116 
" clip-path="url(#pb5857b7a19)" style="fill: none; stroke: #228b22; stroke-width: 2; stroke-linecap: square"/>
   </g>
   <g id="line2d_30">
    <path d="M 269.64 270.987907 
L 271.752727 269.94878 
L 273.865455 268.926241 
L 275.978182 267.919948 
L 278.090909 266.929559 
L 280.203636 265.954732 
L 282.316364 264.995124 
L 284.429091 264.050394 
L 286.541818 263.1202 
L 288.654545 262.204199 
L 290.767273 261.302051 
L 292.88 260.413412 
L 294.992727 259.53794 
L 297.105455 258.675294 
L 299.218182 257.825132 
L 301.330909 256.987112 
L 303.443636 256.160891 
L 305.556364 255.346127 
L 307.669091 254.542479 
L 309.781818 253.749605 
L 311.894545 252.967162 
L 314.007273 252.194809 
L 316.12 251.432203 
L 318.232727 250.679003 
L 320.345455 249.934866 
L 322.458182 249.199451 
L 324.570909 248.472415 
L 326.683636 247.753416 
L 328.796364 247.042113 
L 330.909091 246.338163 
L 333.021818 245.641225 
L 335.134545 244.950956 
L 337.247273 244.267014 
L 339.36 243.589057 
L 341.472727 242.916744 
L 343.585455 242.249732 
L 345.698182 241.587679 
L 347.810909 240.930244 
L 349.923636 240.277084 
L 352.036364 239.627857 
L 354.149091 238.982221 
L 356.261818 238.339834 
L 358.374545 237.700354 
L 360.487273 237.06344 
L 362.6 236.428749 
L 364.712727 235.795938 
L 366.825455 235.164667 
L 368.938182 234.534593 
L 371.050909 233.905374 
L 373.163636 233.276668 
L 375.276364 232.648133 
L 377.389091 232.019427 
L 379.501818 231.390208 
L 381.614545 230.760134 
L 383.727273 230.128863 
L 385.84 229.496053 
L 387.952727 228.861361 
L 390.065455 228.224447 
L 392.178182 227.584967 
L 394.290909 226.94258 
L 396.403636 226.296945 
L 398.516364 225.647718 
L 400.629091 224.994557 
L 402.741818 224.337122 
L 404.854545 223.675069 
L 406.967273 223.008057 
L 409.08 222.335744 
L 411.192727 221.657787 
L 413.305455 220.973846 
L 415.418182 220.283576 
L 417.530909 219.586638 
L 419.643636 218.882688 
L 421.756364 218.171385 
L 423.869091 217.452386 
L 425.981818 216.72535 
L 428.094545 215.989935 
L 430.207273 215.245798 
L 432.32 214.492598 
L 434.432727 213.729992 
L 436.545455 212.957639 
L 438.658182 212.175196 
L 440.770909 211.382322 
L 442.883636 210.578674 
L 444.996364 209.763911 
L 447.109091 208.93769 
L 449.221818 208.099669 
L 451.334545 207.249507 
L 453.447273 206.386861 
L 455.56 205.51139 
L 457.672727 204.622751 
L 459.785455 203.720602 
L 461.898182 202.804601 
L 464.010909 201.874407 
L 466.123636 200.929677 
L 468.236364 199.970069 
L 470.349091 198.995242 
L 472.461818 198.004853 
L 474.574545 196.99856 
L 476.687273 195.976021 
L 478.8 194.936894 
" clip-path="url(#pb5857b7a19)" style="fill: none; stroke: #228b22; stroke-width: 2; stroke-linecap: square"/>
   </g>
   <g id="patch_3">
    <path d="M 60.48 276.346047 
L 60.48 158.466977 
" style="fill: none; stroke: #000000; stroke-width: 0.8; stroke-linejoin: miter; stroke-linecap: square"/>
   </g>
   <g id="patch_4">
    <path d="M 478.8 276.346047 
L 478.8 158.466977 
" style="fill: none; stroke: #000000; stroke-width: 0.8; stroke-linejoin: miter; stroke-linecap: square"/>
   </g>
   <g id="patch_5">
    <path d="M 60.48 276.346047 
L 478.8 276.346047 
" style="fill: none; stroke: #000000; stroke-width: 0.8; stroke-linejoin: miter; stroke-linecap: square"/>
   </g>
   <g id="patch_6">
    <path d="M 60.48 158.466977 
L 478.8 158.466977 
" style="fill: none; stroke: #000000; stroke-width: 0.8; stroke-linejoin: miter; stroke-linecap: square"/>
   </g>
  </g>
  <g id="axes_3">
   <g id="patch_7">
    <path d="M 60.48 406.013023 
L 478.8 406.013023 
L 478.8 288.133953 
L 60.48 288.133953 
z
" style="fill: #ffffff"/>
   </g>
   <g id="FillBetweenPolyCollection_7">
    <defs>
     <path id="m7085b28f02" d="M 60.48 -269.792218 
L 60.48 -269.792218 
L 62.592727 -269.792121 
L 64.705455 -269.79144 
L 66.818182 -269.78959 
L 68.930909 -269.785989 
L 71.043636 -269.780051 
L 73.156364 -269.771193 
L 75.269091 -269.758831 
L 77.381818 -269.742381 
L 79.494545 -269.721259 
L 81.607273 -269.69488 
L 83.72 -269.662661 
L 85.832727 -269.624018 
L 87.945455 -269.578367 
L 90.058182 -269.525123 
L 92.170909 -269.463702 
L 94.283636 -269.393521 
L 96.396364 -269.313996 
L 98.509091 -269.224542 
L 100.621818 -269.124576 
L 102.734545 -269.013513 
L 104.847273 -268.89077 
L 106.96 -268.755762 
L 109.072727 -268.607905 
L 111.185455 -268.446616 
L 113.298182 -268.27131 
L 115.410909 -268.081403 
L 117.523636 -267.876312 
L 119.636364 -267.655452 
L 121.749091 -267.418238 
L 123.861818 -267.164089 
L 125.974545 -266.892418 
L 128.087273 -266.602642 
L 130.2 -266.294178 
L 132.312727 -265.96644 
L 134.425455 -265.618846 
L 136.538182 -265.25081 
L 138.650909 -264.861749 
L 140.763636 -264.45108 
L 142.876364 -264.018217 
L 144.989091 -263.562577 
L 147.101818 -263.083576 
L 149.214545 -262.58063 
L 151.327273 -262.053155 
L 153.44 -261.500566 
L 155.552727 -260.92228 
L 157.665455 -260.317713 
L 159.778182 -259.68628 
L 161.890909 -259.027399 
L 164.003636 -258.340483 
L 166.116364 -257.624951 
L 168.229091 -256.880216 
L 170.341818 -256.105697 
L 172.454545 -255.300808 
L 174.567273 -254.464965 
L 176.68 -253.597585 
L 178.792727 -252.698083 
L 180.905455 -251.765876 
L 183.018182 -250.800379 
L 185.130909 -249.801008 
L 187.243636 -248.76718 
L 189.356364 -247.69831 
L 191.469091 -246.593814 
L 193.581818 -245.453108 
L 195.694545 -244.275608 
L 197.807273 -243.060731 
L 199.92 -241.807892 
L 202.032727 -240.516507 
L 204.145455 -239.185992 
L 206.258182 -237.815763 
L 208.370909 -236.405236 
L 210.483636 -234.953827 
L 212.596364 -233.460951 
L 214.709091 -231.926026 
L 216.821818 -230.348467 
L 218.934545 -228.72769 
L 221.047273 -227.06311 
L 223.16 -225.354144 
L 225.272727 -223.600208 
L 227.385455 -221.800718 
L 229.498182 -219.95509 
L 231.610909 -218.062739 
L 233.723636 -216.123082 
L 235.836364 -214.135534 
L 237.949091 -212.099512 
L 240.061818 -210.014432 
L 242.174545 -207.879709 
L 244.287273 -205.69476 
L 246.4 -203.459 
L 248.512727 -201.171846 
L 250.625455 -198.832713 
L 252.738182 -196.441017 
L 254.850909 -193.996175 
L 256.963636 -191.497602 
L 259.076364 -188.944715 
L 261.189091 -186.336929 
L 263.301818 -183.67366 
L 265.414545 -180.954324 
L 267.527273 -178.178338 
L 269.64 -175.345116 
L 269.64 -269.792218 
L 269.64 -269.792218 
L 267.527273 -269.792218 
L 265.414545 -269.792218 
L 263.301818 -269.792218 
L 261.189091 -269.792218 
L 259.076364 -269.792218 
L 256.963636 -269.792218 
L 254.850909 -269.792218 
L 252.738182 -269.792218 
L 250.625455 -269.792218 
L 248.512727 -269.792218 
L 246.4 -269.792218 
L 244.287273 -269.792218 
L 242.174545 -269.792218 
L 240.061818 -269.792218 
L 237.949091 -269.792218 
L 235.836364 -269.792218 
L 233.723636 -269.792218 
L 231.610909 -269.792218 
L 229.498182 -269.792218 
L 227.385455 -269.792218 
L 225.272727 -269.792218 
L 223.16 -269.792218 
L 221.047273 -269.792218 
L 218.934545 -269.792218 
L 216.821818 -269.792218 
L 214.709091 -269.792218 
L 212.596364 -269.792218 
L 210.483636 -269.792218 
L 208.370909 -269.792218 
L 206.258182 -269.792218 
L 204.145455 -269.792218 
L 202.032727 -269.792218 
L 199.92 -269.792218 
L 197.807273 -269.792218 
L 195.694545 -269.792218 
L 193.581818 -269.792218 
L 191.469091 -269.792218 
L 189.356364 -269.792218 
L 187.243636 -269.792218 
L 185.130909 -269.792218 
L 183.018182 -269.792218 
L 180.905455 -269.792218 
L 178.792727 -269.792218 
L 176.68 -269.792218 
L 174.567273 -269.792218 
L 172.454545 -269.792218 
L 170.341818 -269.792218 
L 168.229091 -269.792218 
L 166.116364 -269.792218 
L 164.003636 -269.792218 
L 161.890909 -269.792218 
L 159.778182 -269.792218 
L 157.665455 -269.792218 
L 155.552727 -269.792218 
L 153.44 -269.792218 
L 151.327273 -269.792218 
L 149.214545 -269.792218 
L 147.101818 -269.792218 
L 144.989091 -269.792218 
L 142.876364 -269.792218 
L 140.763636 -269.792218 
L 138.650909 -269.792218 
L 136.538182 -269.792218 
L 134.425455 -269.792218 
L 132.312727 -269.792218 
L 130.2 -269.792218 
L 128.087273 -269.792218 
L 125.974545 -269.792218 
L 123.861818 -269.792218 
L 121.749091 -269.792218 
L 119.636364 -269.792218 
L 117.523636 -269.792218 
L 115.410909 -269.792218 
L 113.298182 -269.792218 
L 111.185455 -269.792218 
L 109.072727 -269.792218 
L 106.96 -269.792218 
L 104.847273 -269.792218 
L 102.734545 -269.792218 
L 100.621818 -269.792218 
L 98.509091 -269.792218 
L 96.396364 -269.792218 
L 94.283636 -269.792218 
L 92.170909 -269.792218 
L 90.058182 -269.792218 
L 87.945455 -269.792218 
L 85.832727 -269.792218 
L 83.72 -269.792218 
L 81.607273 -269.792218 
L 79.494545 -269.792218 
L 77.381818 -269.792218 
L 75.269091 -269.792218 
L 73.156364 -269.792218 
L 71.043636 -269.792218 
L 68.930909 -269.792218 
L 66.818182 -269.792218 
L 64.705455 -269.792218 
L 62.592727 -269.792218 
L 60.48 -269.792218 
z
" style="stroke: #b22222; stroke-opacity: 0.35"/>
    </defs>
    <g clip-path="url(#pc2dfb6a648)">
     <use xlink:href="#m7085b28f02" x="0" y="576" style="fill: #b22222; fill-opacity: 0.35; stroke: #b22222; stroke-opacity: 0.35"/>
    </g>
   </g>
   <g id="FillBetweenPolyCollection_8">
    <defs>
     <path id="m544b3cf966" d="M 269.64 -269.792218 
L 269.64 -175.345116 
L 271.752727 -178.369197 
L 273.865455 -181.336383 
L 275.978182 -184.24758 
L 278.090909 -187.103674 
L 280.203636 -189.905535 
L 282.316364 -192.654011 
L 284.429091 -195.349934 
L 286.541818 -197.994115 
L 288.654545 -200.587348 
L 290.767273 -203.130405 
L 292.88 -205.624042 
L 294.992727 -208.068996 
L 297.105455 -210.465984 
L 299.218182 -212.815704 
L 301.330909 -215.118835 
L 303.443636 -217.376039 
L 305.556364 -219.587958 
L 307.669091 -221.755213 
L 309.781818 -223.878411 
L 311.894545 -225.958134 
L 314.007273 -227.994951 
L 316.12 -229.989408 
L 318.232727 -231.942034 
L 320.345455 -233.853339 
L 322.458182 -235.723814 
L 324.570909 -237.553929 
L 326.683636 -239.34414 
L 328.796364 -241.094879 
L 330.909091 -242.806562 
L 333.021818 -244.479585 
L 335.134545 -246.114326 
L 337.247273 -247.711144 
L 339.36 -249.270379 
L 341.472727 -250.792351 
L 343.585455 -252.277362 
L 345.698182 -253.725696 
L 347.810909 -255.137617 
L 349.923636 -256.51337 
L 352.036364 -257.853182 
L 354.149091 -259.15726 
L 356.261818 -260.425794 
L 358.374545 -261.658953 
L 360.487273 -262.856888 
L 362.6 -264.019731 
L 364.712727 -265.147596 
L 366.825455 -266.240577 
L 368.938182 -267.298749 
L 371.050909 -268.32217 
L 373.163636 -269.310876 
L 375.276364 -270.264888 
L 377.389091 -271.184203 
L 379.501818 -272.068805 
L 381.614545 -272.918655 
L 383.727273 -273.733696 
L 385.84 -274.513854 
L 387.952727 -275.259033 
L 390.065455 -275.96912 
L 392.178182 -276.643983 
L 394.290909 -277.283472 
L 396.403636 -277.887416 
L 398.516364 -278.455626 
L 400.629091 -278.987895 
L 402.741818 -279.483997 
L 404.854545 -279.943685 
L 406.967273 -280.366696 
L 409.08 -280.752746 
L 411.192727 -281.101534 
L 413.305455 -281.412738 
L 415.418182 -281.686019 
L 417.530909 -281.921018 
L 419.643636 -282.117357 
L 421.756364 -282.274641 
L 423.869091 -282.392453 
L 425.981818 -282.470359 
L 428.094545 -282.507907 
L 430.207273 -282.504624 
L 432.32 -282.460021 
L 434.432727 -282.373586 
L 436.545455 -282.244791 
L 438.658182 -282.07309 
L 440.770909 -281.857915 
L 442.883636 -281.598681 
L 444.996364 -281.294785 
L 447.109091 -280.945603 
L 449.221818 -280.550494 
L 451.334545 -280.108796 
L 453.447273 -279.619831 
L 455.56 -279.0829 
L 457.672727 -278.497284 
L 459.785455 -277.862249 
L 461.898182 -277.177039 
L 464.010909 -276.440881 
L 466.123636 -275.65298 
L 468.236364 -274.812526 
L 470.349091 -273.918687 
L 472.461818 -272.970615 
L 474.574545 -271.967441 
L 476.687273 -270.908277 
L 478.8 -269.792218 
L 478.8 -269.792218 
L 478.8 -269.792218 
L 476.687273 -269.792218 
L 474.574545 -269.792218 
L 472.461818 -269.792218 
L 470.349091 -269.792218 
L 468.236364 -269.792218 
L 466.123636 -269.792218 
L 464.010909 -269.792218 
L 461.898182 -269.792218 
L 459.785455 -269.792218 
L 457.672727 -269.792218 
L 455.56 -269.792218 
L 453.447273 -269.792218 
L 451.334545 -269.792218 
L 449.221818 -269.792218 
L 447.109091 -269.792218 
L 444.996364 -269.792218 
L 442.883636 -269.792218 
L 440.770909 -269.792218 
L 438.658182 -269.792218 
L 436.545455 -269.792218 
L 434.432727 -269.792218 
L 432.32 -269.792218 
L 430.207273 -269.792218 
L 428.094545 -269.792218 
L 425.981818 -269.792218 
L 423.869091 -269.792218 
L 421.756364 -269.792218 
L 419.643636 -269.792218 
L 417.530909 -269.792218 
L 415.418182 -269.792218 
L 413.305455 -269.792218 
L 411.192727 -269.792218 
L 409.08 -269.792218 
L 406.967273 -269.792218 
L 404.854545 -269.792218 
L 402.741818 -269.792218 
L 400.629091 -269.792218 
L 398.516364 -269.792218 
L 396.403636 -269.792218 
L 394.290909 -269.792218 
L 392.178182 -269.792218 
L 390.065455 -269.792218 
L 387.952727 -269.792218 
L 385.84 -269.792218 
L 383.727273 -269.792218 
L 381.614545 -269.792218 
L 379.501818 -269.792218 
L 377.389091 -269.792218 
L 375.276364 -269.792218 
L 373.163636 -269.792218 
L 371.050909 -269.792218 
L 368.938182 -269.792218 
L 366.825455 -269.792218 
L 364.712727 -269.792218 
L 362.6 -269.792218 
L 360.487273 -269.792218 
L 358.374545 -269.792218 
L 356.261818 -269.792218 
L 354.149091 -269.792218 
L 352.036364 -269.792218 
L 349.923636 -269.792218 
L 347.810909 -269.792218 
L 345.698182 -269.792218 
L 343.585455 -269.792218 
L 341.472727 -269.792218 
L 339.36 -269.792218 
L 337.247273 -269.792218 
L 335.134545 -269.792218 
L 333.021818 -269.792218 
L 330.909091 -269.792218 
L 328.796364 -269.792218 
L 326.683636 -269.792218 
L 324.570909 -269.792218 
L 322.458182 -269.792218 
L 320.345455 -269.792218 
L 318.232727 -269.792218 
L 316.12 -269.792218 
L 314.007273 -269.792218 
L 311.894545 -269.792218 
L 309.781818 -269.792218 
L 307.669091 -269.792218 
L 305.556364 -269.792218 
L 303.443636 -269.792218 
L 301.330909 -269.792218 
L 299.218182 -269.792218 
L 297.105455 -269.792218 
L 294.992727 -269.792218 
L 292.88 -269.792218 
L 290.767273 -269.792218 
L 288.654545 -269.792218 
L 286.541818 -269.792218 
L 284.429091 -269.792218 
L 282.316364 -269.792218 
L 280.203636 -269.792218 
L 278.090909 -269.792218 
L 275.978182 -269.792218 
L 273.865455 -269.792218 
L 271.752727 -269.792218 
L 269.64 -269.792218 
z
" style="stroke: #b22222; stroke-opacity: 0.35"/>
    </defs>
    <g clip-path="url(#pc2dfb6a648)">
     <use xlink:href="#m544b3cf966" x="0" y="576" style="fill: #b22222; fill-opacity: 0.35; stroke: #b22222; stroke-opacity: 0.35"/>
    </g>
   </g>
   <g id="matplotlib.axis_3">
    <g id="xtick_10">
     <g id="line2d_31">
      <g>
       <use xlink:href="#m5ff1fa64e7" x="60.48" y="406.013023" style="stroke: #000000; stroke-width: 0.8"/>
      </g>
     </g>
    </g>
    <g id="xtick_11">
     <g id="line2d_32">
      <g>
       <use xlink:href="#m5ff1fa64e7" x="112.77" y="406.013023" style="stroke: #000000; stroke-width: 0.8"/>
      </g>
     </g>
    </g>
    <g id="xtick_12">
     <g id="line2d_33">
      <g>
       <use xlink:href="#m5ff1fa64e7" x="165.06" y="406.013023" style="stroke: #000000; stroke-width: 0.8"/>
      </g>
     </g>
    </g>
    <g id="xtick_13">
     <g id="line2d_34">
      <g>
       <use xlink:href="#m5ff1fa64e7" x="217.35" y="406.013023" style="stroke: #000000; stroke-width: 0.8"/>
      </g>
     </g>
    </g>
    <g id="xtick_14">
     <g id="line2d_35">
      <g>
       <use xlink:href="#m5ff1fa64e7" x="269.64" y="406.013023" style="stroke: #000000; stroke-width: 0.8"/>
      </g>
     </g>
    </g>
    <g id="xtick_15">
     <g id="line2d_36">
      <g>
       <use xlink:href="#m5ff1fa64e7" x="321.93" y="406.013023" style="stroke: #000000; stroke-width: 0.8"/>
      </g>
     </g>
    </g>
    <g id="xtick_16">
     <g id="line2d_37">
      <g>
       <use xlink:href="#m5ff1fa64e7" x="374.22" y="406.013023" style="stroke: #000000; stroke-width: 0.8"/>
      </g>
     </g>
    </g>
    <g id="xtick_17">
     <g id="line2d_38">
      <g>
       <use xlink:href="#m5ff1fa64e7" x="426.51" y="406.013023" style="stroke: #000000; stroke-width: 0.8"/>
      </g>
     </g>
    </g>
    <g id="xtick_18">
     <g id="line2d_39">
      <g>
       <use xlink:href="#m5ff1fa64e7" x="478.8" y="406.013023" style="stroke: #000000; stroke-width: 0.8"/>
      </g>
     </g>
    </g>
   </g>
   <g id="matplotlib.axis_4">
    <g id="ytick_6">
     <g id="line2d_40">
      <g>
       <use xlink:href="#m9b19e4fe92" x="60.48" y="391.210174" style="stroke: #000000; stroke-width: 0.8"/>
      </g>
     </g>
     <g id="text_7">
      <!-- -6e+00 -->
      <g transform="translate(16.251875 395.009392) scale(0.1 -0.1)">
       <defs>
        <path id="DejaVuSans-36" d="M 2113 2584 
Q 1688 2584 1439 2293 
Q 1191 2003 1191 1497 
Q 1191 994 1439 701 
Q 1688 409 2113 409 
Q 2538 409 2786 701 
Q 3034 994 3034 1497 
Q 3034 2003 2786 2293 
Q 2538 2584 2113 2584 
z
M 3366 4563 
L 3366 3988 
Q 3128 4100 2886 4159 
Q 2644 4219 2406 4219 
Q 1781 4219 1451 3797 
Q 1122 3375 1075 2522 
Q 1259 2794 1537 2939 
Q 1816 3084 2150 3084 
Q 2853 3084 3261 2657 
Q 3669 2231 3669 1497 
Q 3669 778 3244 343 
Q 2819 -91 2113 -91 
Q 1303 -91 875 529 
Q 447 1150 447 2328 
Q 447 3434 972 4092 
Q 1497 4750 2381 4750 
Q 2619 4750 2861 4703 
Q 3103 4656 3366 4563 
z
" transform="scale(0.015625)"/>
       </defs>
       <use xlink:href="#DejaVuSans-2d"/>
       <use xlink:href="#DejaVuSans-36" transform="translate(36.083984 0)"/>
       <use xlink:href="#DejaVuSans-65" transform="translate(99.707031 0)"/>
       <use xlink:href="#DejaVuSans-2b" transform="translate(161.230469 0)"/>
       <use xlink:href="#DejaVuSans-30" transform="translate(245.019531 0)"/>
       <use xlink:href="#DejaVuSans-30" transform="translate(308.642578 0)"/>
      </g>
     </g>
    </g>
    <g id="ytick_7">
     <g id="line2d_41">
      <g>
       <use xlink:href="#m9b19e4fe92" x="60.48" y="362.876043" style="stroke: #000000; stroke-width: 0.8"/>
      </g>
     </g>
     <g id="text_8">
      <!-- -4e+00 -->
      <g transform="translate(16.251875 366.675262) scale(0.1 -0.1)">
       <defs>
        <path id="DejaVuSans-34" d="M 2419 4116 
L 825 1625 
L 2419 1625 
L 2419 4116 
z
M 2253 4666 
L 3047 4666 
L 3047 1625 
L 3713 1625 
L 3713 1100 
L 3047 1100 
L 3047 0 
L 2419 0 
L 2419 1100 
L 313 1100 
L 313 1709 
L 2253 4666 
z
" transform="scale(0.015625)"/>
       </defs>
       <use xlink:href="#DejaVuSans-2d"/>
       <use xlink:href="#DejaVuSans-34" transform="translate(36.083984 0)"/>
       <use xlink:href="#DejaVuSans-65" transform="translate(99.707031 0)"/>
       <use xlink:href="#DejaVuSans-2b" transform="translate(161.230469 0)"/>
       <use xlink:href="#DejaVuSans-30" transform="translate(245.019531 0)"/>
       <use xlink:href="#DejaVuSans-30" transform="translate(308.642578 0)"/>
      </g>
     </g>
    </g>
    <g id="ytick_8">
     <g id="line2d_42">
      <g>
       <use xlink:href="#m9b19e4fe92" x="60.48" y="334.541912" style="stroke: #000000; stroke-width: 0.8"/>
      </g>
     </g>
     <g id="text_9">
      <!-- -2e+00 -->
      <g transform="translate(16.251875 338.341131) scale(0.1 -0.1)">
       <defs>
        <path id="DejaVuSans-32" d="M 1228 531 
L 3431 531 
L 3431 0 
L 469 0 
L 469 531 
Q 828 903 1448 1529 
Q 2069 2156 2228 2338 
Q 2531 2678 2651 2914 
Q 2772 3150 2772 3378 
Q 2772 3750 2511 3984 
Q 2250 4219 1831 4219 
Q 1534 4219 1204 4116 
Q 875 4013 500 3803 
L 500 4441 
Q 881 4594 1212 4672 
Q 1544 4750 1819 4750 
Q 2544 4750 2975 4387 
Q 3406 4025 3406 3419 
Q 3406 3131 3298 2873 
Q 3191 2616 2906 2266 
Q 2828 2175 2409 1742 
Q 1991 1309 1228 531 
z
" transform="scale(0.015625)"/>
       </defs>
       <use xlink:href="#DejaVuSans-2d"/>
       <use xlink:href="#DejaVuSans-32" transform="translate(36.083984 0)"/>
       <use xlink:href="#DejaVuSans-65" transform="translate(99.707031 0)"/>
       <use xlink:href="#DejaVuSans-2b" transform="translate(161.230469 0)"/>
       <use xlink:href="#DejaVuSans-30" transform="translate(245.019531 0)"/>
       <use xlink:href="#DejaVuSans-30" transform="translate(308.642578 0)"/>
      </g>
     </g>
    </g>
    <g id="ytick_9">
     <g id="line2d_43">
      <g>
       <use xlink:href="#m9b19e4fe92" x="60.48" y="306.207782" style="stroke: #000000; stroke-width: 0.8"/>
      </g>
     </g>
     <g id="text_10">
      <!-- 0e+00 -->
      <g transform="translate(19.859687 310.007) scale(0.1 -0.1)">
       <use xlink:href="#DejaVuSans-30"/>
       <use xlink:href="#DejaVuSans-65" transform="translate(63.623047 0)"/>
       <use xlink:href="#DejaVuSans-2b" transform="translate(125.146484 0)"/>
       <use xlink:href="#DejaVuSans-30" transform="translate(208.935547 0)"/>
       <use xlink:href="#DejaVuSans-30" transform="translate(272.558594 0)"/>
      </g>
     </g>
    </g>
    <g id="text_11">
     <!-- Bending moment, $M(x)$ -->
     <g transform="translate(10.151875 404.623488) rotate(-90) scale(0.1 -0.1)">
      <defs>
       <path id="DejaVuSans-42" d="M 1259 2228 
L 1259 519 
L 2272 519 
Q 2781 519 3026 730 
Q 3272 941 3272 1375 
Q 3272 1813 3026 2020 
Q 2781 2228 2272 2228 
L 1259 2228 
z
M 1259 4147 
L 1259 2741 
L 2194 2741 
Q 2656 2741 2882 2914 
Q 3109 3088 3109 3444 
Q 3109 3797 2882 3972 
Q 2656 4147 2194 4147 
L 1259 4147 
z
M 628 4666 
L 2241 4666 
Q 2963 4666 3353 4366 
Q 3744 4066 3744 3513 
Q 3744 3084 3544 2831 
Q 3344 2578 2956 2516 
Q 3422 2416 3680 2098 
Q 3938 1781 3938 1306 
Q 3938 681 3513 340 
Q 3088 0 2303 0 
L 628 0 
L 628 4666 
z
" transform="scale(0.015625)"/>
       <path id="DejaVuSans-6e" d="M 3513 2113 
L 3513 0 
L 2938 0 
L 2938 2094 
Q 2938 2591 2744 2837 
Q 2550 3084 2163 3084 
Q 1697 3084 1428 2787 
Q 1159 2491 1159 1978 
L 1159 0 
L 581 0 
L 581 3500 
L 1159 3500 
L 1159 2956 
Q 1366 3272 1645 3428 
Q 1925 3584 2291 3584 
Q 2894 3584 3203 3211 
Q 3513 2838 3513 2113 
z
" transform="scale(0.015625)"/>
       <path id="DejaVuSans-64" d="M 2906 2969 
L 2906 4863 
L 3481 4863 
L 3481 0 
L 2906 0 
L 2906 525 
Q 2725 213 2448 61 
Q 2172 -91 1784 -91 
Q 1150 -91 751 415 
Q 353 922 353 1747 
Q 353 2572 751 3078 
Q 1150 3584 1784 3584 
Q 2172 3584 2448 3432 
Q 2725 3281 2906 2969 
z
M 947 1747 
Q 947 1113 1208 752 
Q 1469 391 1925 391 
Q 2381 391 2643 752 
Q 2906 1113 2906 1747 
Q 2906 2381 2643 2742 
Q 2381 3103 1925 3103 
Q 1469 3103 1208 2742 
Q 947 2381 947 1747 
z
" transform="scale(0.015625)"/>
       <path id="DejaVuSans-69" d="M 603 3500 
L 1178 3500 
L 1178 0 
L 603 0 
L 603 3500 
z
M 603 4863 
L 1178 4863 
L 1178 4134 
L 603 4134 
L 603 4863 
z
" transform="scale(0.015625)"/>
       <path id="DejaVuSans-67" d="M 2906 1791 
Q 2906 2416 2648 2759 
Q 2391 3103 1925 3103 
Q 1463 3103 1205 2759 
Q 947 2416 947 1791 
Q 947 1169 1205 825 
Q 1463 481 1925 481 
Q 2391 481 2648 825 
Q 2906 1169 2906 1791 
z
M 3481 434 
Q 3481 -459 3084 -895 
Q 2688 -1331 1869 -1331 
Q 1566 -1331 1297 -1286 
Q 1028 -1241 775 -1147 
L 775 -588 
Q 1028 -725 1275 -790 
Q 1522 -856 1778 -856 
Q 2344 -856 2625 -561 
Q 2906 -266 2906 331 
L 2906 616 
Q 2728 306 2450 153 
Q 2172 0 1784 0 
Q 1141 0 747 490 
Q 353 981 353 1791 
Q 353 2603 747 3093 
Q 1141 3584 1784 3584 
Q 2172 3584 2450 3431 
Q 2728 3278 2906 2969 
L 2906 3500 
L 3481 3500 
L 3481 434 
z
" transform="scale(0.015625)"/>
       <path id="DejaVuSans-6d" d="M 3328 2828 
Q 3544 3216 3844 3400 
Q 4144 3584 4550 3584 
Q 5097 3584 5394 3201 
Q 5691 2819 5691 2113 
L 5691 0 
L 5113 0 
L 5113 2094 
Q 5113 2597 4934 2840 
Q 4756 3084 4391 3084 
Q 3944 3084 3684 2787 
Q 3425 2491 3425 1978 
L 3425 0 
L 2847 0 
L 2847 2094 
Q 2847 2600 2669 2842 
Q 2491 3084 2119 3084 
Q 1678 3084 1418 2786 
Q 1159 2488 1159 1978 
L 1159 0 
L 581 0 
L 581 3500 
L 1159 3500 
L 1159 2956 
Q 1356 3278 1631 3431 
Q 1906 3584 2284 3584 
Q 2666 3584 2933 3390 
Q 3200 3197 3328 2828 
z
" transform="scale(0.015625)"/>
       <path id="DejaVuSans-74" d="M 1172 4494 
L 1172 3500 
L 2356 3500 
L 2356 3053 
L 1172 3053 
L 1172 1153 
Q 1172 725 1289 603 
Q 1406 481 1766 481 
L 2356 481 
L 2356 0 
L 1766 0 
Q 1100 0 847 248 
Q 594 497 594 1153 
L 594 3053 
L 172 3053 
L 172 3500 
L 594 3500 
L 594 4494 
L 1172 4494 
z
" transform="scale(0.015625)"/>
       <path id="DejaVuSans-Oblique-4d" d="M 1081 4666 
L 2028 4666 
L 2572 1522 
L 4378 4666 
L 5350 4666 
L 4441 0 
L 3828 0 
L 4622 4091 
L 2791 897 
L 2175 897 
L 1581 4103 
L 788 0 
L 172 0 
L 1081 4666 
z
" transform="scale(0.015625)"/>
      </defs>
      <use xlink:href="#DejaVuSans-42" transform="translate(0 0.015625)"/>
      <use xlink:href="#DejaVuSans-65" transform="translate(68.603516 0.015625)"/>
      <use xlink:href="#DejaVuSans-6e" transform="translate(130.126953 0.015625)"/>
      <use xlink:href="#DejaVuSans-64" transform="translate(193.505859 0.015625)"/>
      <use xlink:href="#DejaVuSans-69" transform="translate(256.982422 0.015625)"/>
      <use xlink:href="#DejaVuSans-6e" transform="translate(284.765625 0.015625)"/>
      <use xlink:href="#DejaVuSans-67" transform="translate(348.144531 0.015625)"/>
      <use xlink:href="#DejaVuSans-20" transform="translate(411.621094 0.015625)"/>
      <use xlink:href="#DejaVuSans-6d" transform="translate(443.408203 0.015625)"/>
      <use xlink:href="#DejaVuSans-6f" transform="translate(540.820312 0.015625)"/>
      <use xlink:href="#DejaVuSans-6d" transform="translate(602.001953 0.015625)"/>
      <use xlink:href="#DejaVuSans-65" transform="translate(699.414062 0.015625)"/>
      <use xlink:href="#DejaVuSans-6e" transform="translate(760.9375 0.015625)"/>
      <use xlink:href="#DejaVuSans-74" transform="translate(824.316406 0.015625)"/>
      <use xlink:href="#DejaVuSans-2c" transform="translate(863.525391 0.015625)"/>
      <use xlink:href="#DejaVuSans-20" transform="translate(895.3125 0.015625)"/>
      <use xlink:href="#DejaVuSans-Oblique-4d" transform="translate(927.099609 0.015625)"/>
      <use xlink:href="#DejaVuSans-28" transform="translate(1013.378906 0.015625)"/>
      <use xlink:href="#DejaVuSans-Oblique-78" transform="translate(1052.392578 0.015625)"/>
      <use xlink:href="#DejaVuSans-29" transform="translate(1111.572266 0.015625)"/>
     </g>
    </g>
   </g>
   <g id="line2d_44">
    <path d="M 60.48 306.207782 
L 62.592727 306.207879 
L 64.705455 306.20856 
L 66.818182 306.21041 
L 68.930909 306.214011 
L 71.043636 306.219949 
L 73.156364 306.228807 
L 75.269091 306.241169 
L 77.381818 306.257619 
L 79.494545 306.278741 
L 81.607273 306.30512 
L 83.72 306.337339 
L 85.832727 306.375982 
L 87.945455 306.421633 
L 90.058182 306.474877 
L 92.170909 306.536298 
L 94.283636 306.606479 
L 96.396364 306.686004 
L 98.509091 306.775458 
L 100.621818 306.875424 
L 102.734545 306.986487 
L 104.847273 307.10923 
L 106.96 307.244238 
L 109.072727 307.392095 
L 111.185455 307.553384 
L 113.298182 307.72869 
L 115.410909 307.918597 
L 117.523636 308.123688 
L 119.636364 308.344548 
L 121.749091 308.581762 
L 123.861818 308.835911 
L 125.974545 309.107582 
L 128.087273 309.397358 
L 130.2 309.705822 
L 132.312727 310.03356 
L 134.425455 310.381154 
L 136.538182 310.74919 
L 138.650909 311.138251 
L 140.763636 311.54892 
L 142.876364 311.981783 
L 144.989091 312.437423 
L 147.101818 312.916424 
L 149.214545 313.41937 
L 151.327273 313.946845 
L 153.44 314.499434 
L 155.552727 315.07772 
L 157.665455 315.682287 
L 159.778182 316.31372 
L 161.890909 316.972601 
L 164.003636 317.659517 
L 166.116364 318.375049 
L 168.229091 319.119784 
L 170.341818 319.894303 
L 172.454545 320.699192 
L 174.567273 321.535035 
L 176.68 322.402415 
L 178.792727 323.301917 
L 180.905455 324.234124 
L 183.018182 325.199621 
L 185.130909 326.198992 
L 187.243636 327.23282 
L 189.356364 328.30169 
L 191.469091 329.406186 
L 193.581818 330.546892 
L 195.694545 331.724392 
L 197.807273 332.939269 
L 199.92 334.192108 
L 202.032727 335.483493 
L 204.145455 336.814008 
L 206.258182 338.184237 
L 208.370909 339.594764 
L 210.483636 341.046173 
L 212.596364 342.539049 
L 214.709091 344.073974 
L 216.821818 345.651533 
L 218.934545 347.27231 
L 221.047273 348.93689 
L 223.16 350.645856 
L 225.272727 352.399792 
L 227.385455 354.199282 
L 229.498182 356.04491 
L 231.610909 357.937261 
L 233.723636 359.876918 
L 235.836364 361.864466 
L 237.949091 363.900488 
L 240.061818 365.985568 
L 242.174545 368.120291 
L 244.287273 370.30524 
L 246.4 372.541 
L 248.512727 374.828154 
L 250.625455 377.167287 
L 252.738182 379.558983 
L 254.850909 382.003825 
L 256.963636 384.502398 
L 259.076364 387.055285 
L 261.189091 389.663071 
L 263.301818 392.32634 
L 265.414545 395.045676 
L 267.527273 397.821662 
L 269.64 400.654884 
" clip-path="url(#pc2dfb6a648)" style="fill: none; stroke: #b22222; stroke-width: 2; stroke-linecap: square"/>
   </g>
   <g id="line2d_45">
    <path d="M 269.64 400.654884 
L 271.752727 397.630803 
L 273.865455 394.663617 
L 275.978182 391.75242 
L 278.090909 388.896326 
L 280.203636 386.094465 
L 282.316364 383.345989 
L 284.429091 380.650066 
L 286.541818 378.005885 
L 288.654545 375.412652 
L 290.767273 372.869595 
L 292.88 370.375958 
L 294.992727 367.931004 
L 297.105455 365.534016 
L 299.218182 363.184296 
L 301.330909 360.881165 
L 303.443636 358.623961 
L 305.556364 356.412042 
L 307.669091 354.244787 
L 309.781818 352.121589 
L 311.894545 350.041866 
L 314.007273 348.005049 
L 316.12 346.010592 
L 318.232727 344.057966 
L 320.345455 342.146661 
L 322.458182 340.276186 
L 324.570909 338.446071 
L 326.683636 336.65586 
L 328.796364 334.905121 
L 330.909091 333.193438 
L 333.021818 331.520415 
L 335.134545 329.885674 
L 337.247273 328.288856 
L 339.36 326.729621 
L 341.472727 325.207649 
L 343.585455 323.722638 
L 345.698182 322.274304 
L 347.810909 320.862383 
L 349.923636 319.48663 
L 352.036364 318.146818 
L 354.149091 316.84274 
L 356.261818 315.574206 
L 358.374545 314.341047 
L 360.487273 313.143112 
L 362.6 311.980269 
L 364.712727 310.852404 
L 366.825455 309.759423 
L 368.938182 308.701251 
L 371.050909 307.67783 
L 373.163636 306.689124 
L 375.276364 305.735112 
L 377.389091 304.815797 
L 379.501818 303.931195 
L 381.614545 303.081345 
L 383.727273 302.266304 
L 385.84 301.486146 
L 387.952727 300.740967 
L 390.065455 300.03088 
L 392.178182 299.356017 
L 394.290909 298.716528 
L 396.403636 298.112584 
L 398.516364 297.544374 
L 400.629091 297.012105 
L 402.741818 296.516003 
L 404.854545 296.056315 
L 406.967273 295.633304 
L 409.08 295.247254 
L 411.192727 294.898466 
L 413.305455 294.587262 
L 415.418182 294.313981 
L 417.530909 294.078982 
L 419.643636 293.882643 
L 421.756364 293.725359 
L 423.869091 293.607547 
L 425.981818 293.529641 
L 428.094545 293.492093 
L 430.207273 293.495376 
L 432.32 293.539979 
L 434.432727 293.626414 
L 436.545455 293.755209 
L 438.658182 293.92691 
L 440.770909 294.142085 
L 442.883636 294.401319 
L 444.996364 294.705215 
L 447.109091 295.054397 
L 449.221818 295.449506 
L 451.334545 295.891204 
L 453.447273 296.380169 
L 455.56 296.9171 
L 457.672727 297.502716 
L 459.785455 298.137751 
L 461.898182 298.822961 
L 464.010909 299.559119 
L 466.123636 300.34702 
L 468.236364 301.187474 
L 470.349091 302.081313 
L 472.461818 303.029385 
L 474.574545 304.032559 
L 476.687273 305.091723 
L 478.8 306.207782 
" clip-path="url(#pc2dfb6a648)" style="fill: none; stroke: #b22222; stroke-width: 2; stroke-linecap: square"/>
   </g>
   <g id="patch_8">
    <path d="M 60.48 406.013023 
L 60.48 288.133953 
" style="fill: none; stroke: #000000; stroke-width: 0.8; stroke-linejoin: miter; stroke-linecap: square"/>
   </g>
   <g id="patch_9">
    <path d="M 478.8 406.013023 
L 478.8 288.133953 
" style="fill: none; stroke: #000000; stroke-width: 0.8; stroke-linejoin: miter; stroke-linecap: square"/>
   </g>
   <g id="patch_10">
    <path d="M 60.48 406.013023 
L 478.8 406.013023 
" style="fill: none; stroke: #000000; stroke-width: 0.8; stroke-linejoin: miter; stroke-linecap: square"/>
   </g>
   <g id="patch_11">
    <path d="M 60.48 288.133953 
L 478.8 288.133953 
" style="fill: none; stroke: #000000; stroke-width: 0.8; stroke-linejoin: miter; stroke-linecap: square"/>
   </g>
  </g>
  <g id="axes_4">
   <g id="patch_12">
    <path d="M 60.48 535.68 
L 478.8 535.68 
L 478.8 417.80093 
L 60.48 417.80093 
z
" style="fill: #ffffff"/>
   </g>
   <g id="matplotlib.axis_5">
    <g id="xtick_19">
     <g id="line2d_46">
      <g>
       <use xlink:href="#m5ff1fa64e7" x="60.48" y="535.68" style="stroke: #000000; stroke-width: 0.8"/>
      </g>
     </g>
     <g id="text_12">
      <!-- 0e+00 -->
      <g transform="translate(43.669844 550.278437) scale(0.1 -0.1)">
       <use xlink:href="#DejaVuSans-30"/>
       <use xlink:href="#DejaVuSans-65" transform="translate(63.623047 0)"/>
       <use xlink:href="#DejaVuSans-2b" transform="translate(125.146484 0)"/>
       <use xlink:href="#DejaVuSans-30" transform="translate(208.935547 0)"/>
       <use xlink:href="#DejaVuSans-30" transform="translate(272.558594 0)"/>
      </g>
     </g>
    </g>
    <g id="xtick_20">
     <g id="line2d_47">
      <g>
       <use xlink:href="#m5ff1fa64e7" x="112.77" y="535.68" style="stroke: #000000; stroke-width: 0.8"/>
      </g>
     </g>
     <g id="text_13">
      <!-- 5e-01 -->
      <g transform="translate(98.345781 550.278437) scale(0.1 -0.1)">
       <use xlink:href="#DejaVuSans-35"/>
       <use xlink:href="#DejaVuSans-65" transform="translate(63.623047 0)"/>
       <use xlink:href="#DejaVuSans-2d" transform="translate(125.146484 0)"/>
       <use xlink:href="#DejaVuSans-30" transform="translate(161.230469 0)"/>
       <use xlink:href="#DejaVuSans-31" transform="translate(224.853516 0)"/>
      </g>
     </g>
    </g>
    <g id="xtick_21">
     <g id="line2d_48">
      <g>
       <use xlink:href="#m5ff1fa64e7" x="165.06" y="535.68" style="stroke: #000000; stroke-width: 0.8"/>
      </g>
     </g>
     <g id="text_14">
      <!-- 1e+00 -->
      <g transform="translate(148.249844 550.278437) scale(0.1 -0.1)">
       <use xlink:href="#DejaVuSans-31"/>
       <use xlink:href="#DejaVuSans-65" transform="translate(63.623047 0)"/>
       <use xlink:href="#DejaVuSans-2b" transform="translate(125.146484 0)"/>
       <use xlink:href="#DejaVuSans-30" transform="translate(208.935547 0)"/>
       <use xlink:href="#DejaVuSans-30" transform="translate(272.558594 0)"/>
      </g>
     </g>
    </g>
    <g id="xtick_22">
     <g id="line2d_49">
      <g>
       <use xlink:href="#m5ff1fa64e7" x="217.35" y="535.68" style="stroke: #000000; stroke-width: 0.8"/>
      </g>
     </g>
     <g id="text_15">
      <!-- 2e+00 -->
      <g transform="translate(200.539844 550.278437) scale(0.1 -0.1)">
       <use xlink:href="#DejaVuSans-32"/>
       <use xlink:href="#DejaVuSans-65" transform="translate(63.623047 0)"/>
       <use xlink:href="#DejaVuSans-2b" transform="translate(125.146484 0)"/>
       <use xlink:href="#DejaVuSans-30" transform="translate(208.935547 0)"/>
       <use xlink:href="#DejaVuSans-30" transform="translate(272.558594 0)"/>
      </g>
     </g>
    </g>
    <g id="xtick_23">
     <g id="line2d_50">
      <g>
       <use xlink:href="#m5ff1fa64e7" x="269.64" y="535.68" style="stroke: #000000; stroke-width: 0.8"/>
      </g>
     </g>
     <g id="text_16">
      <!-- 2e+00 -->
      <g transform="translate(252.829844 550.278437) scale(0.1 -0.1)">
       <use xlink:href="#DejaVuSans-32"/>
       <use xlink:href="#DejaVuSans-65" transform="translate(63.623047 0)"/>
       <use xlink:href="#DejaVuSans-2b" transform="translate(125.146484 0)"/>
       <use xlink:href="#DejaVuSans-30" transform="translate(208.935547 0)"/>
       <use xlink:href="#DejaVuSans-30" transform="translate(272.558594 0)"/>
      </g>
     </g>
    </g>
    <g id="xtick_24">
     <g id="line2d_51">
      <g>
       <use xlink:href="#m5ff1fa64e7" x="321.93" y="535.68" style="stroke: #000000; stroke-width: 0.8"/>
      </g>
     </g>
     <g id="text_17">
      <!-- 2e+00 -->
      <g transform="translate(305.119844 550.278437) scale(0.1 -0.1)">
       <use xlink:href="#DejaVuSans-32"/>
       <use xlink:href="#DejaVuSans-65" transform="translate(63.623047 0)"/>
       <use xlink:href="#DejaVuSans-2b" transform="translate(125.146484 0)"/>
       <use xlink:href="#DejaVuSans-30" transform="translate(208.935547 0)"/>
       <use xlink:href="#DejaVuSans-30" transform="translate(272.558594 0)"/>
      </g>
     </g>
    </g>
    <g id="xtick_25">
     <g id="line2d_52">
      <g>
       <use xlink:href="#m5ff1fa64e7" x="374.22" y="535.68" style="stroke: #000000; stroke-width: 0.8"/>
      </g>
     </g>
     <g id="text_18">
      <!-- 3e+00 -->
      <g transform="translate(357.409844 550.278437) scale(0.1 -0.1)">
       <defs>
        <path id="DejaVuSans-33" d="M 2597 2516 
Q 3050 2419 3304 2112 
Q 3559 1806 3559 1356 
Q 3559 666 3084 287 
Q 2609 -91 1734 -91 
Q 1441 -91 1130 -33 
Q 819 25 488 141 
L 488 750 
Q 750 597 1062 519 
Q 1375 441 1716 441 
Q 2309 441 2620 675 
Q 2931 909 2931 1356 
Q 2931 1769 2642 2001 
Q 2353 2234 1838 2234 
L 1294 2234 
L 1294 2753 
L 1863 2753 
Q 2328 2753 2575 2939 
Q 2822 3125 2822 3475 
Q 2822 3834 2567 4026 
Q 2313 4219 1838 4219 
Q 1578 4219 1281 4162 
Q 984 4106 628 3988 
L 628 4550 
Q 988 4650 1302 4700 
Q 1616 4750 1894 4750 
Q 2613 4750 3031 4423 
Q 3450 4097 3450 3541 
Q 3450 3153 3228 2886 
Q 3006 2619 2597 2516 
z
" transform="scale(0.015625)"/>
       </defs>
       <use xlink:href="#DejaVuSans-33"/>
       <use xlink:href="#DejaVuSans-65" transform="translate(63.623047 0)"/>
       <use xlink:href="#DejaVuSans-2b" transform="translate(125.146484 0)"/>
       <use xlink:href="#DejaVuSans-30" transform="translate(208.935547 0)"/>
       <use xlink:href="#DejaVuSans-30" transform="translate(272.558594 0)"/>
      </g>
     </g>
    </g>
    <g id="xtick_26">
     <g id="line2d_53">
      <g>
       <use xlink:href="#m5ff1fa64e7" x="426.51" y="535.68" style="stroke: #000000; stroke-width: 0.8"/>
      </g>
     </g>
     <g id="text_19">
      <!-- 4e+00 -->
      <g transform="translate(409.699844 550.278437) scale(0.1 -0.1)">
       <use xlink:href="#DejaVuSans-34"/>
       <use xlink:href="#DejaVuSans-65" transform="translate(63.623047 0)"/>
       <use xlink:href="#DejaVuSans-2b" transform="translate(125.146484 0)"/>
       <use xlink:href="#DejaVuSans-30" transform="translate(208.935547 0)"/>
       <use xlink:href="#DejaVuSans-30" transform="translate(272.558594 0)"/>
      </g>
     </g>
    </g>
    <g id="xtick_27">
     <g id="line2d_54">
      <g>
       <use xlink:href="#m5ff1fa64e7" x="478.8" y="535.68" style="stroke: #000000; stroke-width: 0.8"/>
      </g>
     </g>
     <g id="text_20">
      <!-- 4e+00 -->
      <g transform="translate(461.989844 550.278437) scale(0.1 -0.1)">
       <use xlink:href="#DejaVuSans-34"/>
       <use xlink:href="#DejaVuSans-65" transform="translate(63.623047 0)"/>
       <use xlink:href="#DejaVuSans-2b" transform="translate(125.146484 0)"/>
       <use xlink:href="#DejaVuSans-30" transform="translate(208.935547 0)"/>
       <use xlink:href="#DejaVuSans-30" transform="translate(272.558594 0)"/>
      </g>
     </g>
    </g>
    <g id="text_21">
     <!-- Coordinate, $x$ -->
     <g transform="translate(235.99 563.956563) scale(0.1 -0.1)">
      <defs>
       <path id="DejaVuSans-43" d="M 4122 4306 
L 4122 3641 
Q 3803 3938 3442 4084 
Q 3081 4231 2675 4231 
Q 1875 4231 1450 3742 
Q 1025 3253 1025 2328 
Q 1025 1406 1450 917 
Q 1875 428 2675 428 
Q 3081 428 3442 575 
Q 3803 722 4122 1019 
L 4122 359 
Q 3791 134 3420 21 
Q 3050 -91 2638 -91 
Q 1578 -91 968 557 
Q 359 1206 359 2328 
Q 359 3453 968 4101 
Q 1578 4750 2638 4750 
Q 3056 4750 3426 4639 
Q 3797 4528 4122 4306 
z
" transform="scale(0.015625)"/>
      </defs>
      <use xlink:href="#DejaVuSans-43" transform="translate(0 0.015625)"/>
      <use xlink:href="#DejaVuSans-6f" transform="translate(69.824219 0.015625)"/>
      <use xlink:href="#DejaVuSans-6f" transform="translate(131.005859 0.015625)"/>
      <use xlink:href="#DejaVuSans-72" transform="translate(192.1875 0.015625)"/>
      <use xlink:href="#DejaVuSans-64" transform="translate(233.300781 0.015625)"/>
      <use xlink:href="#DejaVuSans-69" transform="translate(296.777344 0.015625)"/>
      <use xlink:href="#DejaVuSans-6e" transform="translate(324.560547 0.015625)"/>
      <use xlink:href="#DejaVuSans-61" transform="translate(387.939453 0.015625)"/>
      <use xlink:href="#DejaVuSans-74" transform="translate(449.21875 0.015625)"/>
      <use xlink:href="#DejaVuSans-65" transform="translate(488.427734 0.015625)"/>
      <use xlink:href="#DejaVuSans-2c" transform="translate(549.951172 0.015625)"/>
      <use xlink:href="#DejaVuSans-20" transform="translate(581.738281 0.015625)"/>
      <use xlink:href="#DejaVuSans-Oblique-78" transform="translate(613.525391 0.015625)"/>
     </g>
    </g>
   </g>
   <g id="matplotlib.axis_6">
    <g id="ytick_10">
     <g id="line2d_55">
      <g>
       <use xlink:href="#m9b19e4fe92" x="60.48" y="518.966939" style="stroke: #000000; stroke-width: 0.8"/>
      </g>
     </g>
     <g id="text_22">
      <!-- -2e-06 -->
      <g transform="translate(21.02375 522.766157) scale(0.1 -0.1)">
       <use xlink:href="#DejaVuSans-2d"/>
       <use xlink:href="#DejaVuSans-32" transform="translate(36.083984 0)"/>
       <use xlink:href="#DejaVuSans-65" transform="translate(99.707031 0)"/>
       <use xlink:href="#DejaVuSans-2d" transform="translate(161.230469 0)"/>
       <use xlink:href="#DejaVuSans-30" transform="translate(197.314453 0)"/>
       <use xlink:href="#DejaVuSans-36" transform="translate(260.9375 0)"/>
      </g>
     </g>
    </g>
    <g id="ytick_11">
     <g id="line2d_56">
      <g>
       <use xlink:href="#m9b19e4fe92" x="60.48" y="473.459086" style="stroke: #000000; stroke-width: 0.8"/>
      </g>
     </g>
     <g id="text_23">
      <!-- -1e-06 -->
      <g transform="translate(21.02375 477.258305) scale(0.1 -0.1)">
       <use xlink:href="#DejaVuSans-2d"/>
       <use xlink:href="#DejaVuSans-31" transform="translate(36.083984 0)"/>
       <use xlink:href="#DejaVuSans-65" transform="translate(99.707031 0)"/>
       <use xlink:href="#DejaVuSans-2d" transform="translate(161.230469 0)"/>
       <use xlink:href="#DejaVuSans-30" transform="translate(197.314453 0)"/>
       <use xlink:href="#DejaVuSans-36" transform="translate(260.9375 0)"/>
      </g>
     </g>
    </g>
    <g id="ytick_12">
     <g id="line2d_57">
      <g>
       <use xlink:href="#m9b19e4fe92" x="60.48" y="427.951233" style="stroke: #000000; stroke-width: 0.8"/>
      </g>
     </g>
     <g id="text_24">
      <!-- 0e+00 -->
      <g transform="translate(19.859687 431.750452) scale(0.1 -0.1)">
       <use xlink:href="#DejaVuSans-30"/>
       <use xlink:href="#DejaVuSans-65" transform="translate(63.623047 0)"/>
       <use xlink:href="#DejaVuSans-2b" transform="translate(125.146484 0)"/>
       <use xlink:href="#DejaVuSans-30" transform="translate(208.935547 0)"/>
       <use xlink:href="#DejaVuSans-30" transform="translate(272.558594 0)"/>
      </g>
     </g>
    </g>
    <g id="text_25">
     <!-- Deflection, $v(x)$ -->
     <g transform="translate(13.78 515.240465) rotate(-90) scale(0.1 -0.1)">
      <defs>
       <path id="DejaVuSans-44" d="M 1259 4147 
L 1259 519 
L 2022 519 
Q 2988 519 3436 956 
Q 3884 1394 3884 2338 
Q 3884 3275 3436 3711 
Q 2988 4147 2022 4147 
L 1259 4147 
z
M 628 4666 
L 1925 4666 
Q 3281 4666 3915 4102 
Q 4550 3538 4550 2338 
Q 4550 1131 3912 565 
Q 3275 0 1925 0 
L 628 0 
L 628 4666 
z
" transform="scale(0.015625)"/>
       <path id="DejaVuSans-6c" d="M 603 4863 
L 1178 4863 
L 1178 0 
L 603 0 
L 603 4863 
z
" transform="scale(0.015625)"/>
       <path id="DejaVuSans-Oblique-76" d="M 459 3500 
L 1069 3500 
L 1581 525 
L 3256 3500 
L 3866 3500 
L 1875 0 
L 1100 0 
L 459 3500 
z
" transform="scale(0.015625)"/>
      </defs>
      <use xlink:href="#DejaVuSans-44" transform="translate(0 0.015625)"/>
      <use xlink:href="#DejaVuSans-65" transform="translate(77.001953 0.015625)"/>
      <use xlink:href="#DejaVuSans-66" transform="translate(138.525391 0.015625)"/>
      <use xlink:href="#DejaVuSans-6c" transform="translate(173.730469 0.015625)"/>
      <use xlink:href="#DejaVuSans-65" transform="translate(201.513672 0.015625)"/>
      <use xlink:href="#DejaVuSans-63" transform="translate(263.037109 0.015625)"/>
      <use xlink:href="#DejaVuSans-74" transform="translate(318.017578 0.015625)"/>
      <use xlink:href="#DejaVuSans-69" transform="translate(357.226562 0.015625)"/>
      <use xlink:href="#DejaVuSans-6f" transform="translate(385.009766 0.015625)"/>
      <use xlink:href="#DejaVuSans-6e" transform="translate(446.191406 0.015625)"/>
      <use xlink:href="#DejaVuSans-2c" transform="translate(509.570312 0.015625)"/>
      <use xlink:href="#DejaVuSans-20" transform="translate(541.357422 0.015625)"/>
      <use xlink:href="#DejaVuSans-Oblique-76" transform="translate(573.144531 0.015625)"/>
      <use xlink:href="#DejaVuSans-28" transform="translate(632.324219 0.015625)"/>
      <use xlink:href="#DejaVuSans-Oblique-78" transform="translate(671.337891 0.015625)"/>
      <use xlink:href="#DejaVuSans-29" transform="translate(730.517578 0.015625)"/>
     </g>
    </g>
   </g>
   <g id="line2d_58">
    <path d="M 60.48 530.32186 
L 62.592727 529.145514 
L 64.705455 527.969167 
L 66.818182 526.792821 
L 68.930909 525.616475 
L 71.043636 524.440131 
L 73.156364 523.263791 
L 75.269091 522.087458 
L 77.381818 520.911135 
L 79.494545 519.734827 
L 81.607273 518.558541 
L 83.72 517.382285 
L 85.832727 516.206068 
L 87.945455 515.029903 
L 90.058182 513.853803 
L 92.170909 512.677784 
L 94.283636 511.501866 
L 96.396364 510.326069 
L 98.509091 509.150418 
L 100.621818 507.97494 
L 102.734545 506.799666 
L 104.847273 505.624629 
L 106.96 504.449866 
L 109.072727 503.27542 
L 111.185455 502.101334 
L 113.298182 500.927658 
L 115.410909 499.754446 
L 117.523636 498.581754 
L 119.636364 497.409646 
L 121.749091 496.238189 
L 123.861818 495.067455 
L 125.974545 493.897522 
L 128.087273 492.728471 
L 130.2 491.560392 
L 132.312727 490.393378 
L 134.425455 489.227529 
L 136.538182 488.06295 
L 138.650909 486.899755 
L 140.763636 485.738061 
L 142.876364 484.577993 
L 144.989091 483.419683 
L 147.101818 482.26327 
L 149.214545 481.108899 
L 151.327273 479.956724 
L 153.44 478.806906 
L 155.552727 477.659611 
L 157.665455 476.515018 
L 159.778182 475.373308 
L 161.890909 474.234676 
L 164.003636 473.099321 
L 166.116364 471.967452 
L 168.229091 470.839287 
L 170.341818 469.715053 
L 172.454545 468.594986 
L 174.567273 467.47933 
L 176.68 466.36834 
L 178.792727 465.262281 
L 180.905455 464.161425 
L 183.018182 463.066057 
L 185.130909 461.976471 
L 187.243636 460.89297 
L 189.356364 459.81587 
L 191.469091 458.745495 
L 193.581818 457.682183 
L 195.694545 456.626279 
L 197.807273 455.578144 
L 199.92 454.538145 
L 202.032727 453.506666 
L 204.145455 452.484098 
L 206.258182 451.470847 
L 208.370909 450.46733 
L 210.483636 449.473976 
L 212.596364 448.491227 
L 214.709091 447.519538 
L 216.821818 446.559375 
L 218.934545 445.611219 
L 221.047273 444.675564 
L 223.16 443.752915 
L 225.272727 442.843793 
L 227.385455 441.948732 
L 229.498182 441.06828 
L 231.610909 440.202999 
L 233.723636 439.353463 
L 235.836364 438.520265 
L 237.949091 437.704008 
L 240.061818 436.905313 
L 242.174545 436.124814 
L 244.287273 435.363161 
L 246.4 434.621019 
L 248.512727 433.899069 
L 250.625455 433.198007 
L 252.738182 432.518544 
L 254.850909 431.861409 
L 256.963636 431.227346 
L 259.076364 430.617115 
L 261.189091 430.031494 
L 263.301818 429.471276 
L 265.414545 428.937271 
L 267.527273 428.430309 
L 269.64 427.951233 
" clip-path="url(#pb36323f1f2)" style="fill: none; stroke: #000000; stroke-width: 3; stroke-linecap: square"/>
   </g>
   <g id="line2d_59">
    <path d="M 60.48 427.951233 
L 269.64 427.951233 
" clip-path="url(#pb36323f1f2)" style="fill: none; stroke-dasharray: 5.55,2.4; stroke-dashoffset: 0; stroke: #000000; stroke-width: 1.5"/>
   </g>
   <g id="line2d_60">
    <path d="M 269.64 427.951233 
L 271.752727 427.500606 
L 273.865455 427.077807 
L 275.978182 426.681934 
L 278.090909 426.3121 
L 280.203636 425.967435 
L 282.316364 425.647088 
L 284.429091 425.350221 
L 286.541818 425.076014 
L 288.654545 424.823662 
L 290.767273 424.592375 
L 292.88 424.38138 
L 294.992727 424.189917 
L 297.105455 424.017243 
L 299.218182 423.862628 
L 301.330909 423.725355 
L 303.443636 423.604726 
L 305.556364 423.500052 
L 307.669091 423.41066 
L 309.781818 423.33589 
L 311.894545 423.275097 
L 314.007273 423.227646 
L 316.12 423.192919 
L 318.232727 423.170308 
L 320.345455 423.159219 
L 322.458182 423.15907 
L 324.570909 423.169291 
L 326.683636 423.189326 
L 328.796364 423.21863 
L 330.909091 423.256669 
L 333.021818 423.302923 
L 335.134545 423.356883 
L 337.247273 423.418051 
L 339.36 423.485941 
L 341.472727 423.560078 
L 343.585455 423.639999 
L 345.698182 423.725252 
L 347.810909 423.815396 
L 349.923636 423.910002 
L 352.036364 424.00865 
L 354.149091 424.110933 
L 356.261818 424.216454 
L 358.374545 424.324827 
L 360.487273 424.435677 
L 362.6 424.548638 
L 364.712727 424.663357 
L 366.825455 424.779491 
L 368.938182 424.896707 
L 371.050909 425.014682 
L 373.163636 425.133106 
L 375.276364 425.251677 
L 377.389091 425.370105 
L 379.501818 425.488111 
L 381.614545 425.605424 
L 383.727273 425.721787 
L 385.84 425.836951 
L 387.952727 425.950678 
L 390.065455 426.062743 
L 392.178182 426.172928 
L 394.290909 426.281029 
L 396.403636 426.38685 
L 398.516364 426.490209 
L 400.629091 426.590931 
L 402.741818 426.688855 
L 404.854545 426.78383 
L 406.967273 426.875717 
L 409.08 426.964385 
L 411.192727 427.049719 
L 413.305455 427.131611 
L 415.418182 427.209967 
L 417.530909 427.284704 
L 419.643636 427.35575 
L 421.756364 427.423045 
L 423.869091 427.486543 
L 425.981818 427.546206 
L 428.094545 427.602011 
L 430.207273 427.653947 
L 432.32 427.702014 
L 434.432727 427.746227 
L 436.545455 427.786611 
L 438.658182 427.823207 
L 440.770909 427.856065 
L 442.883636 427.885252 
L 444.996364 427.910846 
L 447.109091 427.932941 
L 449.221818 427.951642 
L 451.334545 427.967069 
L 453.447273 427.979357 
L 455.56 427.988656 
L 457.672727 427.995128 
L 459.785455 427.998951 
L 461.898182 428.000319 
L 464.010909 427.999441 
L 466.123636 427.996541 
L 468.236364 427.991858 
L 470.349091 427.985648 
L 472.461818 427.978184 
L 474.574545 427.969753 
L 476.687273 427.960662 
L 478.8 427.951233 
" clip-path="url(#pb36323f1f2)" style="fill: none; stroke: #000000; stroke-width: 3; stroke-linecap: square"/>
   </g>
   <g id="line2d_61">
    <path d="M 269.64 427.951233 
L 478.8 427.951233 
" clip-path="url(#pb36323f1f2)" style="fill: none; stroke-dasharray: 5.55,2.4; stroke-dashoffset: 0; stroke: #000000; stroke-width: 1.5"/>
   </g>
   <g id="patch_13">
    <path d="M 60.48 535.68 
L 60.48 417.80093 
" style="fill: none; stroke: #000000; stroke-width: 0.8; stroke-linejoin: miter; stroke-linecap: square"/>
   </g>
   <g id="patch_14">
    <path d="M 478.8 535.68 
L 478.8 417.80093 
" style="fill: none; stroke: #000000; stroke-width: 0.8; stroke-linejoin: miter; stroke-linecap: square"/>
   </g>
   <g id="patch_15">
    <path d="M 60.48 535.68 
L 478.8 535.68 
" style="fill: none; stroke: #000000; stroke-width: 0.8; stroke-linejoin: miter; stroke-linecap: square"/>
   </g>
   <g id="patch_16">
    <path d="M 60.48 417.80093 
L 478.8 417.80093 
" style="fill: none; stroke: #000000; stroke-width: 0.8; stroke-linejoin: miter; stroke-linecap: square"/>
   </g>
  </g>
 </g>
 <defs>
  <clipPath id="p88b502b551">
   <rect x="60.48" y="28.8" width="418.32" height="117.87907"/>
  </clipPath>
  <clipPath id="pb5857b7a19">
   <rect x="60.48" y="158.466977" width="418.32" height="117.87907"/>
  </clipPath>
  <clipPath id="pc2dfb6a648">
   <rect x="60.48" y="288.133953" width="418.32" height="117.87907"/>
  </clipPath>
  <clipPath id="pb36323f1f2">
   <rect x="60.48" y="417.80093" width="418.32" height="117.87907"/>
  </clipPath>
 </defs>
</svg>
