<?xml version="1.0" encoding="utf-8" standalone="no"?>
<!DOCTYPE svg PUBLIC "-//W3C//DTD SVG 1.1//EN"
  "http://www.w3.org/Graphics/SVG/1.1/DTD/svg11.dtd">
<!-- Created with matplotlib (https://matplotlib.org/) -->
<svg height="576pt" version="1.1" viewBox="0 0 504 576" width="504pt" xmlns="http://www.w3.org/2000/svg" xmlns:xlink="http://www.w3.org/1999/xlink">
 <metadata>
  <rdf:RDF xmlns:cc="http://creativecommons.org/ns#" xmlns:dc="http://purl.org/dc/elements/1.1/" xmlns:rdf="http://www.w3.org/1999/02/22-rdf-syntax-ns#">
   <cc:Work>
    <dc:type rdf:resource="http://purl.org/dc/dcmitype/StillImage"/>
    <dc:date>2021-01-07T09:08:09.522060</dc:date>
    <dc:format>image/svg+xml</dc:format>
    <dc:creator>
     <cc:Agent>
      <dc:title>Matplotlib v3.3.1, https://matplotlib.org/</dc:title>
     </cc:Agent>
    </dc:creator>
   </cc:Work>
  </rdf:RDF>
 </metadata>
 <defs>
  <style type="text/css">*{stroke-linecap:butt;stroke-linejoin:round;}</style>
 </defs>
 <g id="figure_1">
  <g id="patch_1">
   <path d="M 0 576 
L 504 576 
L 504 0 
L 0 0 
z
" style="fill:#ffffff;"/>
  </g>
  <g id="axes_1">
   <g id="PolyCollection_1">
    <defs>
     <path d="M 60.928365 -509.749531 
L 60.928365 -509.749531 
L 65.203731 -509.749531 
L 69.479097 -509.749531 
L 73.754463 -509.749531 
L 78.029829 -509.749531 
L 82.305195 -509.749531 
L 86.580561 -509.749531 
L 90.855927 -509.749531 
L 95.131293 -509.749531 
L 99.406659 -509.749531 
L 103.682025 -509.749531 
L 107.957392 -509.749531 
L 112.232758 -509.749531 
L 116.508124 -509.749531 
L 120.78349 -509.749531 
L 125.058856 -509.749531 
L 129.334222 -509.749531 
L 133.609588 -509.749531 
L 137.884954 -509.749531 
L 142.16032 -509.749531 
L 146.435686 -509.749531 
L 150.711052 -509.749531 
L 154.986418 -509.749531 
L 159.261784 -509.749531 
L 163.53715 -509.749531 
L 167.812516 -509.749531 
L 172.087882 -509.749531 
L 176.363248 -509.749531 
L 180.638614 -509.749531 
L 184.91398 -509.749531 
L 189.189346 -509.749531 
L 193.464712 -509.749531 
L 197.740079 -509.749531 
L 202.015445 -509.749531 
L 206.290811 -509.749531 
L 210.566177 -509.749531 
L 214.841543 -509.749531 
L 219.116909 -509.749531 
L 223.392275 -509.749531 
L 227.667641 -509.749531 
L 231.943007 -509.749531 
L 236.218373 -509.749531 
L 240.493739 -509.749531 
L 244.769105 -509.749531 
L 249.044471 -509.749531 
L 253.319837 -509.749531 
L 257.595203 -509.749531 
L 261.870569 -509.749531 
L 266.145935 -509.749531 
L 270.421301 -509.749531 
L 274.696667 -509.749531 
L 278.972033 -509.749531 
L 283.247399 -509.749531 
L 287.522766 -509.749531 
L 291.798132 -509.749531 
L 296.073498 -509.749531 
L 300.348864 -509.749531 
L 304.62423 -509.749531 
L 308.899596 -509.749531 
L 313.174962 -509.749531 
L 317.450328 -509.749531 
L 321.725694 -509.749531 
L 326.00106 -509.749531 
L 330.276426 -509.749531 
L 334.551792 -509.749531 
L 338.827158 -509.749531 
L 343.102524 -509.749531 
L 347.37789 -509.749531 
L 351.653256 -509.749531 
L 355.928622 -509.749531 
L 360.203988 -509.749531 
L 364.479354 -509.749531 
L 368.75472 -509.749531 
L 373.030087 -509.749531 
L 377.305453 -509.749531 
L 381.580819 -509.749531 
L 385.856185 -509.749531 
L 390.131551 -509.749531 
L 394.406917 -509.749531 
L 398.682283 -509.749531 
L 402.957649 -509.749531 
L 407.233015 -509.749531 
L 411.508381 -509.749531 
L 415.783747 -509.749531 
L 420.059113 -509.749531 
L 424.334479 -509.749531 
L 428.609845 -509.749531 
L 432.885211 -509.749531 
L 437.160577 -509.749531 
L 441.435943 -509.749531 
L 445.711309 -509.749531 
L 449.986675 -509.749531 
L 454.262041 -509.749531 
L 458.537407 -509.749531 
L 462.812774 -509.749531 
L 467.08814 -509.749531 
L 471.363506 -509.749531 
L 475.638872 -509.749531 
L 479.914238 -509.749531 
L 484.189604 -509.749531 
L 484.189604 -509.749531 
L 484.189604 -509.749531 
L 479.914238 -509.749531 
L 475.638872 -509.749531 
L 471.363506 -509.749531 
L 467.08814 -509.749531 
L 462.812774 -509.749531 
L 458.537407 -509.749531 
L 454.262041 -509.749531 
L 449.986675 -509.749531 
L 445.711309 -509.749531 
L 441.435943 -509.749531 
L 437.160577 -509.749531 
L 432.885211 -509.749531 
L 428.609845 -509.749531 
L 424.334479 -509.749531 
L 420.059113 -509.749531 
L 415.783747 -509.749531 
L 411.508381 -509.749531 
L 407.233015 -509.749531 
L 402.957649 -509.749531 
L 398.682283 -509.749531 
L 394.406917 -509.749531 
L 390.131551 -509.749531 
L 385.856185 -509.749531 
L 381.580819 -509.749531 
L 377.305453 -509.749531 
L 373.030087 -509.749531 
L 368.75472 -509.749531 
L 364.479354 -509.749531 
L 360.203988 -509.749531 
L 355.928622 -509.749531 
L 351.653256 -509.749531 
L 347.37789 -509.749531 
L 343.102524 -509.749531 
L 338.827158 -509.749531 
L 334.551792 -509.749531 
L 330.276426 -509.749531 
L 326.00106 -509.749531 
L 321.725694 -509.749531 
L 317.450328 -509.749531 
L 313.174962 -509.749531 
L 308.899596 -509.749531 
L 304.62423 -509.749531 
L 300.348864 -509.749531 
L 296.073498 -509.749531 
L 291.798132 -509.749531 
L 287.522766 -509.749531 
L 283.247399 -509.749531 
L 278.972033 -509.749531 
L 274.696667 -509.749531 
L 270.421301 -509.749531 
L 266.145935 -509.749531 
L 261.870569 -509.749531 
L 257.595203 -509.749531 
L 253.319837 -509.749531 
L 249.044471 -509.749531 
L 244.769105 -509.749531 
L 240.493739 -509.749531 
L 236.218373 -509.749531 
L 231.943007 -509.749531 
L 227.667641 -509.749531 
L 223.392275 -509.749531 
L 219.116909 -509.749531 
L 214.841543 -509.749531 
L 210.566177 -509.749531 
L 206.290811 -509.749531 
L 202.015445 -509.749531 
L 197.740079 -509.749531 
L 193.464712 -509.749531 
L 189.189346 -509.749531 
L 184.91398 -509.749531 
L 180.638614 -509.749531 
L 176.363248 -509.749531 
L 172.087882 -509.749531 
L 167.812516 -509.749531 
L 163.53715 -509.749531 
L 159.261784 -509.749531 
L 154.986418 -509.749531 
L 150.711052 -509.749531 
L 146.435686 -509.749531 
L 142.16032 -509.749531 
L 137.884954 -509.749531 
L 133.609588 -509.749531 
L 129.334222 -509.749531 
L 125.058856 -509.749531 
L 120.78349 -509.749531 
L 116.508124 -509.749531 
L 112.232758 -509.749531 
L 107.957392 -509.749531 
L 103.682025 -509.749531 
L 99.406659 -509.749531 
L 95.131293 -509.749531 
L 90.855927 -509.749531 
L 86.580561 -509.749531 
L 82.305195 -509.749531 
L 78.029829 -509.749531 
L 73.754463 -509.749531 
L 69.479097 -509.749531 
L 65.203731 -509.749531 
L 60.928365 -509.749531 
z
" id="ma989fa6665" style="stroke:#4169e1;stroke-opacity:0.35;stroke-width:2;"/>
    </defs>
    <g clip-path="url(#pdeceeef37e)">
     <use style="fill:#4169e1;fill-opacity:0.35;stroke:#4169e1;stroke-opacity:0.35;stroke-width:2;" x="0" xlink:href="#ma989fa6665" y="576"/>
    </g>
   </g>
   <g id="patch_2">
    <path d="M 484.189604 66.250469 
L 481.226775 57.395437 
L 483.766343 57.395437 
L 483.766343 9.325263 
L 484.612865 9.325263 
L 484.612865 57.395437 
L 487.152432 57.395437 
z
" style="fill:#2e8b57;stroke:#2e8b57;stroke-linejoin:miter;"/>
   </g>
   <g id="line2d_1">
    <path clip-path="url(#pdeceeef37e)" d="M 60.928365 66.250469 
L 65.203731 66.250469 
L 69.479097 66.250469 
L 73.754463 66.250469 
L 78.029829 66.250469 
L 82.305195 66.250469 
L 86.580561 66.250469 
L 90.855927 66.250469 
L 95.131293 66.250469 
L 99.406659 66.250469 
L 103.682025 66.250469 
L 107.957392 66.250469 
L 112.232758 66.250469 
L 116.508124 66.250469 
L 120.78349 66.250469 
L 125.058856 66.250469 
L 129.334222 66.250469 
L 133.609588 66.250469 
L 137.884954 66.250469 
L 142.16032 66.250469 
L 146.435686 66.250469 
L 150.711052 66.250469 
L 154.986418 66.250469 
L 159.261784 66.250469 
L 163.53715 66.250469 
L 167.812516 66.250469 
L 172.087882 66.250469 
L 176.363248 66.250469 
L 180.638614 66.250469 
L 184.91398 66.250469 
L 189.189346 66.250469 
L 193.464712 66.250469 
L 197.740079 66.250469 
L 202.015445 66.250469 
L 206.290811 66.250469 
L 210.566177 66.250469 
L 214.841543 66.250469 
L 219.116909 66.250469 
L 223.392275 66.250469 
L 227.667641 66.250469 
L 231.943007 66.250469 
L 236.218373 66.250469 
L 240.493739 66.250469 
L 244.769105 66.250469 
L 249.044471 66.250469 
L 253.319837 66.250469 
L 257.595203 66.250469 
L 261.870569 66.250469 
L 266.145935 66.250469 
L 270.421301 66.250469 
L 274.696667 66.250469 
L 278.972033 66.250469 
L 283.247399 66.250469 
L 287.522766 66.250469 
L 291.798132 66.250469 
L 296.073498 66.250469 
L 300.348864 66.250469 
L 304.62423 66.250469 
L 308.899596 66.250469 
L 313.174962 66.250469 
L 317.450328 66.250469 
L 321.725694 66.250469 
L 326.00106 66.250469 
L 330.276426 66.250469 
L 334.551792 66.250469 
L 338.827158 66.250469 
L 343.102524 66.250469 
L 347.37789 66.250469 
L 351.653256 66.250469 
L 355.928622 66.250469 
L 360.203988 66.250469 
L 364.479354 66.250469 
L 368.75472 66.250469 
L 373.030087 66.250469 
L 377.305453 66.250469 
L 381.580819 66.250469 
L 385.856185 66.250469 
L 390.131551 66.250469 
L 394.406917 66.250469 
L 398.682283 66.250469 
L 402.957649 66.250469 
L 407.233015 66.250469 
L 411.508381 66.250469 
L 415.783747 66.250469 
L 420.059113 66.250469 
L 424.334479 66.250469 
L 428.609845 66.250469 
L 432.885211 66.250469 
L 437.160577 66.250469 
L 441.435943 66.250469 
L 445.711309 66.250469 
L 449.986675 66.250469 
L 454.262041 66.250469 
L 458.537407 66.250469 
L 462.812774 66.250469 
L 467.08814 66.250469 
L 471.363506 66.250469 
L 475.638872 66.250469 
L 479.914238 66.250469 
L 484.189604 66.250469 
" style="fill:none;stroke:#4169e1;stroke-linecap:square;stroke-width:2;"/>
   </g>
   <g id="line2d_2">
    <path clip-path="url(#pdeceeef37e)" d="M 60.928365 66.250469 
L 484.189604 66.250469 
" style="fill:none;stroke:#000000;stroke-linecap:square;stroke-width:3;"/>
   </g>
   <g id="line2d_3">
    <path d="M 58.106623 74.411789 
L 58.106623 58.089149 
" style="fill:none;stroke:#c0c0c0;stroke-width:5;"/>
   </g>
   <g id="line2d_4">
    <path d="M 60.928365 74.411789 
L 60.928365 58.089149 
" style="fill:none;stroke:#000000;stroke-width:1.5;"/>
   </g>
  </g>
  <g id="axes_2">
   <g id="patch_3">
    <path d="M 60.928365 264.881635 
L 484.189604 264.881635 
L 484.189604 138.381177 
L 60.928365 138.381177 
z
" style="fill:#ffffff;"/>
   </g>
   <g id="PolyCollection_2">
    <defs>
     <path d="M 60.928365 -431.868802 
L 60.928365 -316.868386 
L 65.203731 -316.868386 
L 69.479097 -316.868386 
L 73.754463 -316.868386 
L 78.029829 -316.868386 
L 82.305195 -316.868386 
L 86.580561 -316.868386 
L 90.855927 -316.868386 
L 95.131293 -316.868386 
L 99.406659 -316.868386 
L 103.682025 -316.868386 
L 107.957392 -316.868386 
L 112.232758 -316.868386 
L 116.508124 -316.868386 
L 120.78349 -316.868386 
L 125.058856 -316.868386 
L 129.334222 -316.868386 
L 133.609588 -316.868386 
L 137.884954 -316.868386 
L 142.16032 -316.868386 
L 146.435686 -316.868386 
L 150.711052 -316.868386 
L 154.986418 -316.868386 
L 159.261784 -316.868386 
L 163.53715 -316.868386 
L 167.812516 -316.868386 
L 172.087882 -316.868386 
L 176.363248 -316.868386 
L 180.638614 -316.868386 
L 184.91398 -316.868386 
L 189.189346 -316.868386 
L 193.464712 -316.868386 
L 197.740079 -316.868386 
L 202.015445 -316.868386 
L 206.290811 -316.868386 
L 210.566177 -316.868386 
L 214.841543 -316.868386 
L 219.116909 -316.868386 
L 223.392275 -316.868386 
L 227.667641 -316.868386 
L 231.943007 -316.868386 
L 236.218373 -316.868386 
L 240.493739 -316.868386 
L 244.769105 -316.868386 
L 249.044471 -316.868386 
L 253.319837 -316.868386 
L 257.595203 -316.868386 
L 261.870569 -316.868386 
L 266.145935 -316.868386 
L 270.421301 -316.868386 
L 274.696667 -316.868386 
L 278.972033 -316.868386 
L 283.247399 -316.868386 
L 287.522766 -316.868386 
L 291.798132 -316.868386 
L 296.073498 -316.868386 
L 300.348864 -316.868386 
L 304.62423 -316.868386 
L 308.899596 -316.868386 
L 313.174962 -316.868386 
L 317.450328 -316.868386 
L 321.725694 -316.868386 
L 326.00106 -316.868386 
L 330.276426 -316.868386 
L 334.551792 -316.868386 
L 338.827158 -316.868386 
L 343.102524 -316.868386 
L 347.37789 -316.868386 
L 351.653256 -316.868386 
L 355.928622 -316.868386 
L 360.203988 -316.868386 
L 364.479354 -316.868386 
L 368.75472 -316.868386 
L 373.030087 -316.868386 
L 377.305453 -316.868386 
L 381.580819 -316.868386 
L 385.856185 -316.868386 
L 390.131551 -316.868386 
L 394.406917 -316.868386 
L 398.682283 -316.868386 
L 402.957649 -316.868386 
L 407.233015 -316.868386 
L 411.508381 -316.868386 
L 415.783747 -316.868386 
L 420.059113 -316.868386 
L 424.334479 -316.868386 
L 428.609845 -316.868386 
L 432.885211 -316.868386 
L 437.160577 -316.868386 
L 441.435943 -316.868386 
L 445.711309 -316.868386 
L 449.986675 -316.868386 
L 454.262041 -316.868386 
L 458.537407 -316.868386 
L 462.812774 -316.868386 
L 467.08814 -316.868386 
L 471.363506 -316.868386 
L 475.638872 -316.868386 
L 479.914238 -316.868386 
L 484.189604 -316.868386 
L 484.189604 -431.868802 
L 484.189604 -431.868802 
L 479.914238 -431.868802 
L 475.638872 -431.868802 
L 471.363506 -431.868802 
L 467.08814 -431.868802 
L 462.812774 -431.868802 
L 458.537407 -431.868802 
L 454.262041 -431.868802 
L 449.986675 -431.868802 
L 445.711309 -431.868802 
L 441.435943 -431.868802 
L 437.160577 -431.868802 
L 432.885211 -431.868802 
L 428.609845 -431.868802 
L 424.334479 -431.868802 
L 420.059113 -431.868802 
L 415.783747 -431.868802 
L 411.508381 -431.868802 
L 407.233015 -431.868802 
L 402.957649 -431.868802 
L 398.682283 -431.868802 
L 394.406917 -431.868802 
L 390.131551 -431.868802 
L 385.856185 -431.868802 
L 381.580819 -431.868802 
L 377.305453 -431.868802 
L 373.030087 -431.868802 
L 368.75472 -431.868802 
L 364.479354 -431.868802 
L 360.203988 -431.868802 
L 355.928622 -431.868802 
L 351.653256 -431.868802 
L 347.37789 -431.868802 
L 343.102524 -431.868802 
L 338.827158 -431.868802 
L 334.551792 -431.868802 
L 330.276426 -431.868802 
L 326.00106 -431.868802 
L 321.725694 -431.868802 
L 317.450328 -431.868802 
L 313.174962 -431.868802 
L 308.899596 -431.868802 
L 304.62423 -431.868802 
L 300.348864 -431.868802 
L 296.073498 -431.868802 
L 291.798132 -431.868802 
L 287.522766 -431.868802 
L 283.247399 -431.868802 
L 278.972033 -431.868802 
L 274.696667 -431.868802 
L 270.421301 -431.868802 
L 266.145935 -431.868802 
L 261.870569 -431.868802 
L 257.595203 -431.868802 
L 253.319837 -431.868802 
L 249.044471 -431.868802 
L 244.769105 -431.868802 
L 240.493739 -431.868802 
L 236.218373 -431.868802 
L 231.943007 -431.868802 
L 227.667641 -431.868802 
L 223.392275 -431.868802 
L 219.116909 -431.868802 
L 214.841543 -431.868802 
L 210.566177 -431.868802 
L 206.290811 -431.868802 
L 202.015445 -431.868802 
L 197.740079 -431.868802 
L 193.464712 -431.868802 
L 189.189346 -431.868802 
L 184.91398 -431.868802 
L 180.638614 -431.868802 
L 176.363248 -431.868802 
L 172.087882 -431.868802 
L 167.812516 -431.868802 
L 163.53715 -431.868802 
L 159.261784 -431.868802 
L 154.986418 -431.868802 
L 150.711052 -431.868802 
L 146.435686 -431.868802 
L 142.16032 -431.868802 
L 137.884954 -431.868802 
L 133.609588 -431.868802 
L 129.334222 -431.868802 
L 125.058856 -431.868802 
L 120.78349 -431.868802 
L 116.508124 -431.868802 
L 112.232758 -431.868802 
L 107.957392 -431.868802 
L 103.682025 -431.868802 
L 99.406659 -431.868802 
L 95.131293 -431.868802 
L 90.855927 -431.868802 
L 86.580561 -431.868802 
L 82.305195 -431.868802 
L 78.029829 -431.868802 
L 73.754463 -431.868802 
L 69.479097 -431.868802 
L 65.203731 -431.868802 
L 60.928365 -431.868802 
z
" id="md468a23a08" style="stroke:#228b22;stroke-opacity:0.35;"/>
    </defs>
    <g clip-path="url(#p5b5b75dc28)">
     <use style="fill:#228b22;fill-opacity:0.35;stroke:#228b22;stroke-opacity:0.35;" x="0" xlink:href="#md468a23a08" y="576"/>
    </g>
   </g>
   <g id="matplotlib.axis_1">
    <g id="xtick_1">
     <g id="line2d_5">
      <defs>
       <path d="M 0 0 
L 0 3.5 
" id="m10ee17775b" style="stroke:#000000;stroke-width:0.8;"/>
      </defs>
      <g>
       <use style="stroke:#000000;stroke-width:0.8;" x="60.928365" xlink:href="#m10ee17775b" y="264.881635"/>
      </g>
     </g>
    </g>
    <g id="xtick_2">
     <g id="line2d_6">
      <g>
       <use style="stroke:#000000;stroke-width:0.8;" x="145.580613" xlink:href="#m10ee17775b" y="264.881635"/>
      </g>
     </g>
    </g>
    <g id="xtick_3">
     <g id="line2d_7">
      <g>
       <use style="stroke:#000000;stroke-width:0.8;" x="230.232861" xlink:href="#m10ee17775b" y="264.881635"/>
      </g>
     </g>
    </g>
    <g id="xtick_4">
     <g id="line2d_8">
      <g>
       <use style="stroke:#000000;stroke-width:0.8;" x="314.885108" xlink:href="#m10ee17775b" y="264.881635"/>
      </g>
     </g>
    </g>
    <g id="xtick_5">
     <g id="line2d_9">
      <g>
       <use style="stroke:#000000;stroke-width:0.8;" x="399.537356" xlink:href="#m10ee17775b" y="264.881635"/>
      </g>
     </g>
    </g>
    <g id="xtick_6">
     <g id="line2d_10">
      <g>
       <use style="stroke:#000000;stroke-width:0.8;" x="484.189604" xlink:href="#m10ee17775b" y="264.881635"/>
      </g>
     </g>
    </g>
   </g>
   <g id="matplotlib.axis_2">
    <g id="ytick_1">
     <g id="line2d_11">
      <defs>
       <path d="M 0 0 
L -3.5 0 
" id="m3cdf5b9830" style="stroke:#000000;stroke-width:0.8;"/>
      </defs>
      <g>
       <use style="stroke:#000000;stroke-width:0.8;" x="60.928365" xlink:href="#m3cdf5b9830" y="259.131614"/>
      </g>
     </g>
     <g id="text_1">
      <!-- -1e+00 -->
      <g transform="translate(16.70024 262.930833)scale(0.1 -0.1)">
       <defs>
        <path d="M 4.890625 31.390625 
L 31.203125 31.390625 
L 31.203125 23.390625 
L 4.890625 23.390625 
z
" id="DejaVuSans-45"/>
        <path d="M 12.40625 8.296875 
L 28.515625 8.296875 
L 28.515625 63.921875 
L 10.984375 60.40625 
L 10.984375 69.390625 
L 28.421875 72.90625 
L 38.28125 72.90625 
L 38.28125 8.296875 
L 54.390625 8.296875 
L 54.390625 0 
L 12.40625 0 
z
" id="DejaVuSans-49"/>
        <path d="M 56.203125 29.59375 
L 56.203125 25.203125 
L 14.890625 25.203125 
Q 15.484375 15.921875 20.484375 11.0625 
Q 25.484375 6.203125 34.421875 6.203125 
Q 39.59375 6.203125 44.453125 7.46875 
Q 49.3125 8.734375 54.109375 11.28125 
L 54.109375 2.78125 
Q 49.265625 0.734375 44.1875 -0.34375 
Q 39.109375 -1.421875 33.890625 -1.421875 
Q 20.796875 -1.421875 13.15625 6.1875 
Q 5.515625 13.8125 5.515625 26.8125 
Q 5.515625 40.234375 12.765625 48.109375 
Q 20.015625 56 32.328125 56 
Q 43.359375 56 49.78125 48.890625 
Q 56.203125 41.796875 56.203125 29.59375 
z
M 47.21875 32.234375 
Q 47.125 39.59375 43.09375 43.984375 
Q 39.0625 48.390625 32.421875 48.390625 
Q 24.90625 48.390625 20.390625 44.140625 
Q 15.875 39.890625 15.1875 32.171875 
z
" id="DejaVuSans-101"/>
        <path d="M 46 62.703125 
L 46 35.5 
L 73.1875 35.5 
L 73.1875 27.203125 
L 46 27.203125 
L 46 0 
L 37.796875 0 
L 37.796875 27.203125 
L 10.59375 27.203125 
L 10.59375 35.5 
L 37.796875 35.5 
L 37.796875 62.703125 
z
" id="DejaVuSans-43"/>
        <path d="M 31.78125 66.40625 
Q 24.171875 66.40625 20.328125 58.90625 
Q 16.5 51.421875 16.5 36.375 
Q 16.5 21.390625 20.328125 13.890625 
Q 24.171875 6.390625 31.78125 6.390625 
Q 39.453125 6.390625 43.28125 13.890625 
Q 47.125 21.390625 47.125 36.375 
Q 47.125 51.421875 43.28125 58.90625 
Q 39.453125 66.40625 31.78125 66.40625 
z
M 31.78125 74.21875 
Q 44.046875 74.21875 50.515625 64.515625 
Q 56.984375 54.828125 56.984375 36.375 
Q 56.984375 17.96875 50.515625 8.265625 
Q 44.046875 -1.421875 31.78125 -1.421875 
Q 19.53125 -1.421875 13.0625 8.265625 
Q 6.59375 17.96875 6.59375 36.375 
Q 6.59375 54.828125 13.0625 64.515625 
Q 19.53125 74.21875 31.78125 74.21875 
z
" id="DejaVuSans-48"/>
       </defs>
       <use xlink:href="#DejaVuSans-45"/>
       <use x="36.083984" xlink:href="#DejaVuSans-49"/>
       <use x="99.707031" xlink:href="#DejaVuSans-101"/>
       <use x="161.230469" xlink:href="#DejaVuSans-43"/>
       <use x="245.019531" xlink:href="#DejaVuSans-48"/>
       <use x="308.642578" xlink:href="#DejaVuSans-48"/>
      </g>
     </g>
    </g>
    <g id="ytick_2">
     <g id="line2d_12">
      <g>
       <use style="stroke:#000000;stroke-width:0.8;" x="60.928365" xlink:href="#m3cdf5b9830" y="236.131531"/>
      </g>
     </g>
     <g id="text_2">
      <!-- -8e-01 -->
      <g transform="translate(21.472115 239.93075)scale(0.1 -0.1)">
       <defs>
        <path d="M 31.78125 34.625 
Q 24.75 34.625 20.71875 30.859375 
Q 16.703125 27.09375 16.703125 20.515625 
Q 16.703125 13.921875 20.71875 10.15625 
Q 24.75 6.390625 31.78125 6.390625 
Q 38.8125 6.390625 42.859375 10.171875 
Q 46.921875 13.96875 46.921875 20.515625 
Q 46.921875 27.09375 42.890625 30.859375 
Q 38.875 34.625 31.78125 34.625 
z
M 21.921875 38.8125 
Q 15.578125 40.375 12.03125 44.71875 
Q 8.5 49.078125 8.5 55.328125 
Q 8.5 64.0625 14.71875 69.140625 
Q 20.953125 74.21875 31.78125 74.21875 
Q 42.671875 74.21875 48.875 69.140625 
Q 55.078125 64.0625 55.078125 55.328125 
Q 55.078125 49.078125 51.53125 44.71875 
Q 48 40.375 41.703125 38.8125 
Q 48.828125 37.15625 52.796875 32.3125 
Q 56.78125 27.484375 56.78125 20.515625 
Q 56.78125 9.90625 50.3125 4.234375 
Q 43.84375 -1.421875 31.78125 -1.421875 
Q 19.734375 -1.421875 13.25 4.234375 
Q 6.78125 9.90625 6.78125 20.515625 
Q 6.78125 27.484375 10.78125 32.3125 
Q 14.796875 37.15625 21.921875 38.8125 
z
M 18.3125 54.390625 
Q 18.3125 48.734375 21.84375 45.5625 
Q 25.390625 42.390625 31.78125 42.390625 
Q 38.140625 42.390625 41.71875 45.5625 
Q 45.3125 48.734375 45.3125 54.390625 
Q 45.3125 60.0625 41.71875 63.234375 
Q 38.140625 66.40625 31.78125 66.40625 
Q 25.390625 66.40625 21.84375 63.234375 
Q 18.3125 60.0625 18.3125 54.390625 
z
" id="DejaVuSans-56"/>
       </defs>
       <use xlink:href="#DejaVuSans-45"/>
       <use x="36.083984" xlink:href="#DejaVuSans-56"/>
       <use x="99.707031" xlink:href="#DejaVuSans-101"/>
       <use x="161.230469" xlink:href="#DejaVuSans-45"/>
       <use x="197.314453" xlink:href="#DejaVuSans-48"/>
       <use x="260.9375" xlink:href="#DejaVuSans-49"/>
      </g>
     </g>
    </g>
    <g id="ytick_3">
     <g id="line2d_13">
      <g>
       <use style="stroke:#000000;stroke-width:0.8;" x="60.928365" xlink:href="#m3cdf5b9830" y="213.131448"/>
      </g>
     </g>
     <g id="text_3">
      <!-- -6e-01 -->
      <g transform="translate(21.472115 216.930667)scale(0.1 -0.1)">
       <defs>
        <path d="M 33.015625 40.375 
Q 26.375 40.375 22.484375 35.828125 
Q 18.609375 31.296875 18.609375 23.390625 
Q 18.609375 15.53125 22.484375 10.953125 
Q 26.375 6.390625 33.015625 6.390625 
Q 39.65625 6.390625 43.53125 10.953125 
Q 47.40625 15.53125 47.40625 23.390625 
Q 47.40625 31.296875 43.53125 35.828125 
Q 39.65625 40.375 33.015625 40.375 
z
M 52.59375 71.296875 
L 52.59375 62.3125 
Q 48.875 64.0625 45.09375 64.984375 
Q 41.3125 65.921875 37.59375 65.921875 
Q 27.828125 65.921875 22.671875 59.328125 
Q 17.53125 52.734375 16.796875 39.40625 
Q 19.671875 43.65625 24.015625 45.921875 
Q 28.375 48.1875 33.59375 48.1875 
Q 44.578125 48.1875 50.953125 41.515625 
Q 57.328125 34.859375 57.328125 23.390625 
Q 57.328125 12.15625 50.6875 5.359375 
Q 44.046875 -1.421875 33.015625 -1.421875 
Q 20.359375 -1.421875 13.671875 8.265625 
Q 6.984375 17.96875 6.984375 36.375 
Q 6.984375 53.65625 15.1875 63.9375 
Q 23.390625 74.21875 37.203125 74.21875 
Q 40.921875 74.21875 44.703125 73.484375 
Q 48.484375 72.75 52.59375 71.296875 
z
" id="DejaVuSans-54"/>
       </defs>
       <use xlink:href="#DejaVuSans-45"/>
       <use x="36.083984" xlink:href="#DejaVuSans-54"/>
       <use x="99.707031" xlink:href="#DejaVuSans-101"/>
       <use x="161.230469" xlink:href="#DejaVuSans-45"/>
       <use x="197.314453" xlink:href="#DejaVuSans-48"/>
       <use x="260.9375" xlink:href="#DejaVuSans-49"/>
      </g>
     </g>
    </g>
    <g id="ytick_4">
     <g id="line2d_14">
      <g>
       <use style="stroke:#000000;stroke-width:0.8;" x="60.928365" xlink:href="#m3cdf5b9830" y="190.131365"/>
      </g>
     </g>
     <g id="text_4">
      <!-- -4e-01 -->
      <g transform="translate(21.472115 193.930583)scale(0.1 -0.1)">
       <defs>
        <path d="M 37.796875 64.3125 
L 12.890625 25.390625 
L 37.796875 25.390625 
z
M 35.203125 72.90625 
L 47.609375 72.90625 
L 47.609375 25.390625 
L 58.015625 25.390625 
L 58.015625 17.1875 
L 47.609375 17.1875 
L 47.609375 0 
L 37.796875 0 
L 37.796875 17.1875 
L 4.890625 17.1875 
L 4.890625 26.703125 
z
" id="DejaVuSans-52"/>
       </defs>
       <use xlink:href="#DejaVuSans-45"/>
       <use x="36.083984" xlink:href="#DejaVuSans-52"/>
       <use x="99.707031" xlink:href="#DejaVuSans-101"/>
       <use x="161.230469" xlink:href="#DejaVuSans-45"/>
       <use x="197.314453" xlink:href="#DejaVuSans-48"/>
       <use x="260.9375" xlink:href="#DejaVuSans-49"/>
      </g>
     </g>
    </g>
    <g id="ytick_5">
     <g id="line2d_15">
      <g>
       <use style="stroke:#000000;stroke-width:0.8;" x="60.928365" xlink:href="#m3cdf5b9830" y="167.131281"/>
      </g>
     </g>
     <g id="text_5">
      <!-- -2e-01 -->
      <g transform="translate(21.472115 170.9305)scale(0.1 -0.1)">
       <defs>
        <path d="M 19.1875 8.296875 
L 53.609375 8.296875 
L 53.609375 0 
L 7.328125 0 
L 7.328125 8.296875 
Q 12.9375 14.109375 22.625 23.890625 
Q 32.328125 33.6875 34.8125 36.53125 
Q 39.546875 41.84375 41.421875 45.53125 
Q 43.3125 49.21875 43.3125 52.78125 
Q 43.3125 58.59375 39.234375 62.25 
Q 35.15625 65.921875 28.609375 65.921875 
Q 23.96875 65.921875 18.8125 64.3125 
Q 13.671875 62.703125 7.8125 59.421875 
L 7.8125 69.390625 
Q 13.765625 71.78125 18.9375 73 
Q 24.125 74.21875 28.421875 74.21875 
Q 39.75 74.21875 46.484375 68.546875 
Q 53.21875 62.890625 53.21875 53.421875 
Q 53.21875 48.921875 51.53125 44.890625 
Q 49.859375 40.875 45.40625 35.40625 
Q 44.1875 33.984375 37.640625 27.21875 
Q 31.109375 20.453125 19.1875 8.296875 
z
" id="DejaVuSans-50"/>
       </defs>
       <use xlink:href="#DejaVuSans-45"/>
       <use x="36.083984" xlink:href="#DejaVuSans-50"/>
       <use x="99.707031" xlink:href="#DejaVuSans-101"/>
       <use x="161.230469" xlink:href="#DejaVuSans-45"/>
       <use x="197.314453" xlink:href="#DejaVuSans-48"/>
       <use x="260.9375" xlink:href="#DejaVuSans-49"/>
      </g>
     </g>
    </g>
    <g id="ytick_6">
     <g id="line2d_16">
      <g>
       <use style="stroke:#000000;stroke-width:0.8;" x="60.928365" xlink:href="#m3cdf5b9830" y="144.131198"/>
      </g>
     </g>
     <g id="text_6">
      <!-- 0e+00 -->
      <g transform="translate(20.308052 147.930417)scale(0.1 -0.1)">
       <use xlink:href="#DejaVuSans-48"/>
       <use x="63.623047" xlink:href="#DejaVuSans-101"/>
       <use x="125.146484" xlink:href="#DejaVuSans-43"/>
       <use x="208.935547" xlink:href="#DejaVuSans-48"/>
       <use x="272.558594" xlink:href="#DejaVuSans-48"/>
      </g>
     </g>
    </g>
    <g id="text_7">
     <!-- Shear force, $V(x)$ -->
     <g transform="translate(10.620552 243.931406)rotate(-90)scale(0.1 -0.1)">
      <defs>
       <path d="M 53.515625 70.515625 
L 53.515625 60.890625 
Q 47.90625 63.578125 42.921875 64.890625 
Q 37.9375 66.21875 33.296875 66.21875 
Q 25.25 66.21875 20.875 63.09375 
Q 16.5 59.96875 16.5 54.203125 
Q 16.5 49.359375 19.40625 46.890625 
Q 22.3125 44.4375 30.421875 42.921875 
L 36.375 41.703125 
Q 47.40625 39.59375 52.65625 34.296875 
Q 57.90625 29 57.90625 20.125 
Q 57.90625 9.515625 50.796875 4.046875 
Q 43.703125 -1.421875 29.984375 -1.421875 
Q 24.8125 -1.421875 18.96875 -0.25 
Q 13.140625 0.921875 6.890625 3.21875 
L 6.890625 13.375 
Q 12.890625 10.015625 18.65625 8.296875 
Q 24.421875 6.59375 29.984375 6.59375 
Q 38.421875 6.59375 43.015625 9.90625 
Q 47.609375 13.234375 47.609375 19.390625 
Q 47.609375 24.75 44.3125 27.78125 
Q 41.015625 30.8125 33.5 32.328125 
L 27.484375 33.5 
Q 16.453125 35.6875 11.515625 40.375 
Q 6.59375 45.0625 6.59375 53.421875 
Q 6.59375 63.09375 13.40625 68.65625 
Q 20.21875 74.21875 32.171875 74.21875 
Q 37.3125 74.21875 42.625 73.28125 
Q 47.953125 72.359375 53.515625 70.515625 
z
" id="DejaVuSans-83"/>
       <path d="M 54.890625 33.015625 
L 54.890625 0 
L 45.90625 0 
L 45.90625 32.71875 
Q 45.90625 40.484375 42.875 44.328125 
Q 39.84375 48.1875 33.796875 48.1875 
Q 26.515625 48.1875 22.3125 43.546875 
Q 18.109375 38.921875 18.109375 30.90625 
L 18.109375 0 
L 9.078125 0 
L 9.078125 75.984375 
L 18.109375 75.984375 
L 18.109375 46.1875 
Q 21.34375 51.125 25.703125 53.5625 
Q 30.078125 56 35.796875 56 
Q 45.21875 56 50.046875 50.171875 
Q 54.890625 44.34375 54.890625 33.015625 
z
" id="DejaVuSans-104"/>
       <path d="M 34.28125 27.484375 
Q 23.390625 27.484375 19.1875 25 
Q 14.984375 22.515625 14.984375 16.5 
Q 14.984375 11.71875 18.140625 8.90625 
Q 21.296875 6.109375 26.703125 6.109375 
Q 34.1875 6.109375 38.703125 11.40625 
Q 43.21875 16.703125 43.21875 25.484375 
L 43.21875 27.484375 
z
M 52.203125 31.203125 
L 52.203125 0 
L 43.21875 0 
L 43.21875 8.296875 
Q 40.140625 3.328125 35.546875 0.953125 
Q 30.953125 -1.421875 24.3125 -1.421875 
Q 15.921875 -1.421875 10.953125 3.296875 
Q 6 8.015625 6 15.921875 
Q 6 25.140625 12.171875 29.828125 
Q 18.359375 34.515625 30.609375 34.515625 
L 43.21875 34.515625 
L 43.21875 35.40625 
Q 43.21875 41.609375 39.140625 45 
Q 35.0625 48.390625 27.6875 48.390625 
Q 23 48.390625 18.546875 47.265625 
Q 14.109375 46.140625 10.015625 43.890625 
L 10.015625 52.203125 
Q 14.9375 54.109375 19.578125 55.046875 
Q 24.21875 56 28.609375 56 
Q 40.484375 56 46.34375 49.84375 
Q 52.203125 43.703125 52.203125 31.203125 
z
" id="DejaVuSans-97"/>
       <path d="M 41.109375 46.296875 
Q 39.59375 47.171875 37.8125 47.578125 
Q 36.03125 48 33.890625 48 
Q 26.265625 48 22.1875 43.046875 
Q 18.109375 38.09375 18.109375 28.8125 
L 18.109375 0 
L 9.078125 0 
L 9.078125 54.6875 
L 18.109375 54.6875 
L 18.109375 46.1875 
Q 20.953125 51.171875 25.484375 53.578125 
Q 30.03125 56 36.53125 56 
Q 37.453125 56 38.578125 55.875 
Q 39.703125 55.765625 41.0625 55.515625 
z
" id="DejaVuSans-114"/>
       <path id="DejaVuSans-32"/>
       <path d="M 37.109375 75.984375 
L 37.109375 68.5 
L 28.515625 68.5 
Q 23.6875 68.5 21.796875 66.546875 
Q 19.921875 64.59375 19.921875 59.515625 
L 19.921875 54.6875 
L 34.71875 54.6875 
L 34.71875 47.703125 
L 19.921875 47.703125 
L 19.921875 0 
L 10.890625 0 
L 10.890625 47.703125 
L 2.296875 47.703125 
L 2.296875 54.6875 
L 10.890625 54.6875 
L 10.890625 58.5 
Q 10.890625 67.625 15.140625 71.796875 
Q 19.390625 75.984375 28.609375 75.984375 
z
" id="DejaVuSans-102"/>
       <path d="M 30.609375 48.390625 
Q 23.390625 48.390625 19.1875 42.75 
Q 14.984375 37.109375 14.984375 27.296875 
Q 14.984375 17.484375 19.15625 11.84375 
Q 23.34375 6.203125 30.609375 6.203125 
Q 37.796875 6.203125 41.984375 11.859375 
Q 46.1875 17.53125 46.1875 27.296875 
Q 46.1875 37.015625 41.984375 42.703125 
Q 37.796875 48.390625 30.609375 48.390625 
z
M 30.609375 56 
Q 42.328125 56 49.015625 48.375 
Q 55.71875 40.765625 55.71875 27.296875 
Q 55.71875 13.875 49.015625 6.21875 
Q 42.328125 -1.421875 30.609375 -1.421875 
Q 18.84375 -1.421875 12.171875 6.21875 
Q 5.515625 13.875 5.515625 27.296875 
Q 5.515625 40.765625 12.171875 48.375 
Q 18.84375 56 30.609375 56 
z
" id="DejaVuSans-111"/>
       <path d="M 48.78125 52.59375 
L 48.78125 44.1875 
Q 44.96875 46.296875 41.140625 47.34375 
Q 37.3125 48.390625 33.40625 48.390625 
Q 24.65625 48.390625 19.8125 42.84375 
Q 14.984375 37.3125 14.984375 27.296875 
Q 14.984375 17.28125 19.8125 11.734375 
Q 24.65625 6.203125 33.40625 6.203125 
Q 37.3125 6.203125 41.140625 7.25 
Q 44.96875 8.296875 48.78125 10.40625 
L 48.78125 2.09375 
Q 45.015625 0.34375 40.984375 -0.53125 
Q 36.96875 -1.421875 32.421875 -1.421875 
Q 20.0625 -1.421875 12.78125 6.34375 
Q 5.515625 14.109375 5.515625 27.296875 
Q 5.515625 40.671875 12.859375 48.328125 
Q 20.21875 56 33.015625 56 
Q 37.15625 56 41.109375 55.140625 
Q 45.0625 54.296875 48.78125 52.59375 
z
" id="DejaVuSans-99"/>
       <path d="M 11.71875 12.40625 
L 22.015625 12.40625 
L 22.015625 4 
L 14.015625 -11.625 
L 7.71875 -11.625 
L 11.71875 4 
z
" id="DejaVuSans-44"/>
       <path d="M 20.609375 0 
L 7.8125 72.90625 
L 17.484375 72.90625 
L 28.078125 10.203125 
L 63.484375 72.90625 
L 74.21875 72.90625 
L 32.078125 0 
z
" id="DejaVuSans-Oblique-86"/>
       <path d="M 31 75.875 
Q 24.46875 64.65625 21.28125 53.65625 
Q 18.109375 42.671875 18.109375 31.390625 
Q 18.109375 20.125 21.3125 9.0625 
Q 24.515625 -2 31 -13.1875 
L 23.1875 -13.1875 
Q 15.875 -1.703125 12.234375 9.375 
Q 8.59375 20.453125 8.59375 31.390625 
Q 8.59375 42.28125 12.203125 53.3125 
Q 15.828125 64.359375 23.1875 75.875 
z
" id="DejaVuSans-40"/>
       <path d="M 60.015625 54.6875 
L 34.90625 27.875 
L 50.296875 0 
L 39.984375 0 
L 28.421875 21.6875 
L 8.296875 0 
L -2.59375 0 
L 24.3125 28.8125 
L 10.015625 54.6875 
L 20.3125 54.6875 
L 30.8125 34.90625 
L 49.125 54.6875 
z
" id="DejaVuSans-Oblique-120"/>
       <path d="M 8.015625 75.875 
L 15.828125 75.875 
Q 23.140625 64.359375 26.78125 53.3125 
Q 30.421875 42.28125 30.421875 31.390625 
Q 30.421875 20.453125 26.78125 9.375 
Q 23.140625 -1.703125 15.828125 -13.1875 
L 8.015625 -13.1875 
Q 14.5 -2 17.703125 9.0625 
Q 20.90625 20.125 20.90625 31.390625 
Q 20.90625 42.671875 17.703125 53.65625 
Q 14.5 64.65625 8.015625 75.875 
z
" id="DejaVuSans-41"/>
      </defs>
      <use transform="translate(0 0.015625)" xlink:href="#DejaVuSans-83"/>
      <use transform="translate(63.476562 0.015625)" xlink:href="#DejaVuSans-104"/>
      <use transform="translate(126.855469 0.015625)" xlink:href="#DejaVuSans-101"/>
      <use transform="translate(188.378906 0.015625)" xlink:href="#DejaVuSans-97"/>
      <use transform="translate(249.658203 0.015625)" xlink:href="#DejaVuSans-114"/>
      <use transform="translate(290.771484 0.015625)" xlink:href="#DejaVuSans-32"/>
      <use transform="translate(322.558594 0.015625)" xlink:href="#DejaVuSans-102"/>
      <use transform="translate(357.763672 0.015625)" xlink:href="#DejaVuSans-111"/>
      <use transform="translate(418.945312 0.015625)" xlink:href="#DejaVuSans-114"/>
      <use transform="translate(460.058594 0.015625)" xlink:href="#DejaVuSans-99"/>
      <use transform="translate(515.039062 0.015625)" xlink:href="#DejaVuSans-101"/>
      <use transform="translate(576.5625 0.015625)" xlink:href="#DejaVuSans-44"/>
      <use transform="translate(608.349609 0.015625)" xlink:href="#DejaVuSans-32"/>
      <use transform="translate(640.136719 0.015625)" xlink:href="#DejaVuSans-Oblique-86"/>
      <use transform="translate(708.544922 0.015625)" xlink:href="#DejaVuSans-40"/>
      <use transform="translate(747.558594 0.015625)" xlink:href="#DejaVuSans-Oblique-120"/>
      <use transform="translate(806.738281 0.015625)" xlink:href="#DejaVuSans-41"/>
     </g>
    </g>
   </g>
   <g id="line2d_17">
    <path clip-path="url(#p5b5b75dc28)" d="M 60.928365 259.131614 
L 65.203731 259.131614 
L 69.479097 259.131614 
L 73.754463 259.131614 
L 78.029829 259.131614 
L 82.305195 259.131614 
L 86.580561 259.131614 
L 90.855927 259.131614 
L 95.131293 259.131614 
L 99.406659 259.131614 
L 103.682025 259.131614 
L 107.957392 259.131614 
L 112.232758 259.131614 
L 116.508124 259.131614 
L 120.78349 259.131614 
L 125.058856 259.131614 
L 129.334222 259.131614 
L 133.609588 259.131614 
L 137.884954 259.131614 
L 142.16032 259.131614 
L 146.435686 259.131614 
L 150.711052 259.131614 
L 154.986418 259.131614 
L 159.261784 259.131614 
L 163.53715 259.131614 
L 167.812516 259.131614 
L 172.087882 259.131614 
L 176.363248 259.131614 
L 180.638614 259.131614 
L 184.91398 259.131614 
L 189.189346 259.131614 
L 193.464712 259.131614 
L 197.740079 259.131614 
L 202.015445 259.131614 
L 206.290811 259.131614 
L 210.566177 259.131614 
L 214.841543 259.131614 
L 219.116909 259.131614 
L 223.392275 259.131614 
L 227.667641 259.131614 
L 231.943007 259.131614 
L 236.218373 259.131614 
L 240.493739 259.131614 
L 244.769105 259.131614 
L 249.044471 259.131614 
L 253.319837 259.131614 
L 257.595203 259.131614 
L 261.870569 259.131614 
L 266.145935 259.131614 
L 270.421301 259.131614 
L 274.696667 259.131614 
L 278.972033 259.131614 
L 283.247399 259.131614 
L 287.522766 259.131614 
L 291.798132 259.131614 
L 296.073498 259.131614 
L 300.348864 259.131614 
L 304.62423 259.131614 
L 308.899596 259.131614 
L 313.174962 259.131614 
L 317.450328 259.131614 
L 321.725694 259.131614 
L 326.00106 259.131614 
L 330.276426 259.131614 
L 334.551792 259.131614 
L 338.827158 259.131614 
L 343.102524 259.131614 
L 347.37789 259.131614 
L 351.653256 259.131614 
L 355.928622 259.131614 
L 360.203988 259.131614 
L 364.479354 259.131614 
L 368.75472 259.131614 
L 373.030087 259.131614 
L 377.305453 259.131614 
L 381.580819 259.131614 
L 385.856185 259.131614 
L 390.131551 259.131614 
L 394.406917 259.131614 
L 398.682283 259.131614 
L 402.957649 259.131614 
L 407.233015 259.131614 
L 411.508381 259.131614 
L 415.783747 259.131614 
L 420.059113 259.131614 
L 424.334479 259.131614 
L 428.609845 259.131614 
L 432.885211 259.131614 
L 437.160577 259.131614 
L 441.435943 259.131614 
L 445.711309 259.131614 
L 449.986675 259.131614 
L 454.262041 259.131614 
L 458.537407 259.131614 
L 462.812774 259.131614 
L 467.08814 259.131614 
L 471.363506 259.131614 
L 475.638872 259.131614 
L 479.914238 259.131614 
L 484.189604 259.131614 
" style="fill:none;stroke:#228b22;stroke-linecap:square;stroke-width:2;"/>
   </g>
   <g id="patch_4">
    <path d="M 60.928365 264.881635 
L 60.928365 138.381177 
" style="fill:none;stroke:#000000;stroke-linecap:square;stroke-linejoin:miter;stroke-width:0.8;"/>
   </g>
   <g id="patch_5">
    <path d="M 484.189604 264.881635 
L 484.189604 138.381177 
" style="fill:none;stroke:#000000;stroke-linecap:square;stroke-linejoin:miter;stroke-width:0.8;"/>
   </g>
   <g id="patch_6">
    <path d="M 60.928365 264.881635 
L 484.189604 264.881635 
" style="fill:none;stroke:#000000;stroke-linecap:square;stroke-linejoin:miter;stroke-width:0.8;"/>
   </g>
   <g id="patch_7">
    <path d="M 60.928365 138.381177 
L 484.189604 138.381177 
" style="fill:none;stroke:#000000;stroke-linecap:square;stroke-linejoin:miter;stroke-width:0.8;"/>
   </g>
  </g>
  <g id="axes_3">
   <g id="patch_8">
    <path d="M 60.928365 403.762572 
L 484.189604 403.762572 
L 484.189604 277.262115 
L 60.928365 277.262115 
z
" style="fill:#ffffff;"/>
   </g>
   <g id="PolyCollection_3">
    <defs>
     <path d="M 60.928365 -292.987864 
L 60.928365 -177.987448 
L 65.203731 -179.149069 
L 69.479097 -180.310689 
L 73.754463 -181.472309 
L 78.029829 -182.63393 
L 82.305195 -183.79555 
L 86.580561 -184.95717 
L 90.855927 -186.118791 
L 95.131293 -187.280411 
L 99.406659 -188.442032 
L 103.682025 -189.603652 
L 107.957392 -190.765272 
L 112.232758 -191.926893 
L 116.508124 -193.088513 
L 120.78349 -194.250133 
L 125.058856 -195.411754 
L 129.334222 -196.573374 
L 133.609588 -197.734994 
L 137.884954 -198.896615 
L 142.16032 -200.058235 
L 146.435686 -201.219856 
L 150.711052 -202.381476 
L 154.986418 -203.543096 
L 159.261784 -204.704717 
L 163.53715 -205.866337 
L 167.812516 -207.027957 
L 172.087882 -208.189578 
L 176.363248 -209.351198 
L 180.638614 -210.512818 
L 184.91398 -211.674439 
L 189.189346 -212.836059 
L 193.464712 -213.99768 
L 197.740079 -215.1593 
L 202.015445 -216.32092 
L 206.290811 -217.482541 
L 210.566177 -218.644161 
L 214.841543 -219.805781 
L 219.116909 -220.967402 
L 223.392275 -222.129022 
L 227.667641 -223.290642 
L 231.943007 -224.452263 
L 236.218373 -225.613883 
L 240.493739 -226.775504 
L 244.769105 -227.937124 
L 249.044471 -229.098744 
L 253.319837 -230.260365 
L 257.595203 -231.421985 
L 261.870569 -232.583605 
L 266.145935 -233.745226 
L 270.421301 -234.906846 
L 274.696667 -236.068466 
L 278.972033 -237.230087 
L 283.247399 -238.391707 
L 287.522766 -239.553328 
L 291.798132 -240.714948 
L 296.073498 -241.876568 
L 300.348864 -243.038189 
L 304.62423 -244.199809 
L 308.899596 -245.361429 
L 313.174962 -246.52305 
L 317.450328 -247.68467 
L 321.725694 -248.84629 
L 326.00106 -250.007911 
L 330.276426 -251.169531 
L 334.551792 -252.331152 
L 338.827158 -253.492772 
L 343.102524 -254.654392 
L 347.37789 -255.816013 
L 351.653256 -256.977633 
L 355.928622 -258.139253 
L 360.203988 -259.300874 
L 364.479354 -260.462494 
L 368.75472 -261.624114 
L 373.030087 -262.785735 
L 377.305453 -263.947355 
L 381.580819 -265.108975 
L 385.856185 -266.270596 
L 390.131551 -267.432216 
L 394.406917 -268.593837 
L 398.682283 -269.755457 
L 402.957649 -270.917077 
L 407.233015 -272.078698 
L 411.508381 -273.240318 
L 415.783747 -274.401938 
L 420.059113 -275.563559 
L 424.334479 -276.725179 
L 428.609845 -277.886799 
L 432.885211 -279.04842 
L 437.160577 -280.21004 
L 441.435943 -281.371661 
L 445.711309 -282.533281 
L 449.986675 -283.694901 
L 454.262041 -284.856522 
L 458.537407 -286.018142 
L 462.812774 -287.179762 
L 467.08814 -288.341383 
L 471.363506 -289.503003 
L 475.638872 -290.664623 
L 479.914238 -291.826244 
L 484.189604 -292.987864 
L 484.189604 -292.987864 
L 484.189604 -292.987864 
L 479.914238 -292.987864 
L 475.638872 -292.987864 
L 471.363506 -292.987864 
L 467.08814 -292.987864 
L 462.812774 -292.987864 
L 458.537407 -292.987864 
L 454.262041 -292.987864 
L 449.986675 -292.987864 
L 445.711309 -292.987864 
L 441.435943 -292.987864 
L 437.160577 -292.987864 
L 432.885211 -292.987864 
L 428.609845 -292.987864 
L 424.334479 -292.987864 
L 420.059113 -292.987864 
L 415.783747 -292.987864 
L 411.508381 -292.987864 
L 407.233015 -292.987864 
L 402.957649 -292.987864 
L 398.682283 -292.987864 
L 394.406917 -292.987864 
L 390.131551 -292.987864 
L 385.856185 -292.987864 
L 381.580819 -292.987864 
L 377.305453 -292.987864 
L 373.030087 -292.987864 
L 368.75472 -292.987864 
L 364.479354 -292.987864 
L 360.203988 -292.987864 
L 355.928622 -292.987864 
L 351.653256 -292.987864 
L 347.37789 -292.987864 
L 343.102524 -292.987864 
L 338.827158 -292.987864 
L 334.551792 -292.987864 
L 330.276426 -292.987864 
L 326.00106 -292.987864 
L 321.725694 -292.987864 
L 317.450328 -292.987864 
L 313.174962 -292.987864 
L 308.899596 -292.987864 
L 304.62423 -292.987864 
L 300.348864 -292.987864 
L 296.073498 -292.987864 
L 291.798132 -292.987864 
L 287.522766 -292.987864 
L 283.247399 -292.987864 
L 278.972033 -292.987864 
L 274.696667 -292.987864 
L 270.421301 -292.987864 
L 266.145935 -292.987864 
L 261.870569 -292.987864 
L 257.595203 -292.987864 
L 253.319837 -292.987864 
L 249.044471 -292.987864 
L 244.769105 -292.987864 
L 240.493739 -292.987864 
L 236.218373 -292.987864 
L 231.943007 -292.987864 
L 227.667641 -292.987864 
L 223.392275 -292.987864 
L 219.116909 -292.987864 
L 214.841543 -292.987864 
L 210.566177 -292.987864 
L 206.290811 -292.987864 
L 202.015445 -292.987864 
L 197.740079 -292.987864 
L 193.464712 -292.987864 
L 189.189346 -292.987864 
L 184.91398 -292.987864 
L 180.638614 -292.987864 
L 176.363248 -292.987864 
L 172.087882 -292.987864 
L 167.812516 -292.987864 
L 163.53715 -292.987864 
L 159.261784 -292.987864 
L 154.986418 -292.987864 
L 150.711052 -292.987864 
L 146.435686 -292.987864 
L 142.16032 -292.987864 
L 137.884954 -292.987864 
L 133.609588 -292.987864 
L 129.334222 -292.987864 
L 125.058856 -292.987864 
L 120.78349 -292.987864 
L 116.508124 -292.987864 
L 112.232758 -292.987864 
L 107.957392 -292.987864 
L 103.682025 -292.987864 
L 99.406659 -292.987864 
L 95.131293 -292.987864 
L 90.855927 -292.987864 
L 86.580561 -292.987864 
L 82.305195 -292.987864 
L 78.029829 -292.987864 
L 73.754463 -292.987864 
L 69.479097 -292.987864 
L 65.203731 -292.987864 
L 60.928365 -292.987864 
z
" id="m5ce87f7d24" style="stroke:#b22222;stroke-opacity:0.35;"/>
    </defs>
    <g clip-path="url(#pf2839e76a8)">
     <use style="fill:#b22222;fill-opacity:0.35;stroke:#b22222;stroke-opacity:0.35;" x="0" xlink:href="#m5ce87f7d24" y="576"/>
    </g>
   </g>
   <g id="matplotlib.axis_3">
    <g id="xtick_7">
     <g id="line2d_18">
      <g>
       <use style="stroke:#000000;stroke-width:0.8;" x="60.928365" xlink:href="#m10ee17775b" y="403.762572"/>
      </g>
     </g>
    </g>
    <g id="xtick_8">
     <g id="line2d_19">
      <g>
       <use style="stroke:#000000;stroke-width:0.8;" x="145.580613" xlink:href="#m10ee17775b" y="403.762572"/>
      </g>
     </g>
    </g>
    <g id="xtick_9">
     <g id="line2d_20">
      <g>
       <use style="stroke:#000000;stroke-width:0.8;" x="230.232861" xlink:href="#m10ee17775b" y="403.762572"/>
      </g>
     </g>
    </g>
    <g id="xtick_10">
     <g id="line2d_21">
      <g>
       <use style="stroke:#000000;stroke-width:0.8;" x="314.885108" xlink:href="#m10ee17775b" y="403.762572"/>
      </g>
     </g>
    </g>
    <g id="xtick_11">
     <g id="line2d_22">
      <g>
       <use style="stroke:#000000;stroke-width:0.8;" x="399.537356" xlink:href="#m10ee17775b" y="403.762572"/>
      </g>
     </g>
    </g>
    <g id="xtick_12">
     <g id="line2d_23">
      <g>
       <use style="stroke:#000000;stroke-width:0.8;" x="484.189604" xlink:href="#m10ee17775b" y="403.762572"/>
      </g>
     </g>
    </g>
   </g>
   <g id="matplotlib.axis_4">
    <g id="ytick_7">
     <g id="line2d_24">
      <g>
       <use style="stroke:#000000;stroke-width:0.8;" x="60.928365" xlink:href="#m3cdf5b9830" y="398.012552"/>
      </g>
     </g>
     <g id="text_8">
      <!-- -1e+00 -->
      <g transform="translate(16.70024 401.81177)scale(0.1 -0.1)">
       <use xlink:href="#DejaVuSans-45"/>
       <use x="36.083984" xlink:href="#DejaVuSans-49"/>
       <use x="99.707031" xlink:href="#DejaVuSans-101"/>
       <use x="161.230469" xlink:href="#DejaVuSans-43"/>
       <use x="245.019531" xlink:href="#DejaVuSans-48"/>
       <use x="308.642578" xlink:href="#DejaVuSans-48"/>
      </g>
     </g>
    </g>
    <g id="ytick_8">
     <g id="line2d_25">
      <g>
       <use style="stroke:#000000;stroke-width:0.8;" x="60.928365" xlink:href="#m3cdf5b9830" y="375.012469"/>
      </g>
     </g>
     <g id="text_9">
      <!-- -8e-01 -->
      <g transform="translate(21.472115 378.811687)scale(0.1 -0.1)">
       <use xlink:href="#DejaVuSans-45"/>
       <use x="36.083984" xlink:href="#DejaVuSans-56"/>
       <use x="99.707031" xlink:href="#DejaVuSans-101"/>
       <use x="161.230469" xlink:href="#DejaVuSans-45"/>
       <use x="197.314453" xlink:href="#DejaVuSans-48"/>
       <use x="260.9375" xlink:href="#DejaVuSans-49"/>
      </g>
     </g>
    </g>
    <g id="ytick_9">
     <g id="line2d_26">
      <g>
       <use style="stroke:#000000;stroke-width:0.8;" x="60.928365" xlink:href="#m3cdf5b9830" y="352.012385"/>
      </g>
     </g>
     <g id="text_10">
      <!-- -6e-01 -->
      <g transform="translate(21.472115 355.811604)scale(0.1 -0.1)">
       <use xlink:href="#DejaVuSans-45"/>
       <use x="36.083984" xlink:href="#DejaVuSans-54"/>
       <use x="99.707031" xlink:href="#DejaVuSans-101"/>
       <use x="161.230469" xlink:href="#DejaVuSans-45"/>
       <use x="197.314453" xlink:href="#DejaVuSans-48"/>
       <use x="260.9375" xlink:href="#DejaVuSans-49"/>
      </g>
     </g>
    </g>
    <g id="ytick_10">
     <g id="line2d_27">
      <g>
       <use style="stroke:#000000;stroke-width:0.8;" x="60.928365" xlink:href="#m3cdf5b9830" y="329.012302"/>
      </g>
     </g>
     <g id="text_11">
      <!-- -4e-01 -->
      <g transform="translate(21.472115 332.811521)scale(0.1 -0.1)">
       <use xlink:href="#DejaVuSans-45"/>
       <use x="36.083984" xlink:href="#DejaVuSans-52"/>
       <use x="99.707031" xlink:href="#DejaVuSans-101"/>
       <use x="161.230469" xlink:href="#DejaVuSans-45"/>
       <use x="197.314453" xlink:href="#DejaVuSans-48"/>
       <use x="260.9375" xlink:href="#DejaVuSans-49"/>
      </g>
     </g>
    </g>
    <g id="ytick_11">
     <g id="line2d_28">
      <g>
       <use style="stroke:#000000;stroke-width:0.8;" x="60.928365" xlink:href="#m3cdf5b9830" y="306.012219"/>
      </g>
     </g>
     <g id="text_12">
      <!-- -2e-01 -->
      <g transform="translate(21.472115 309.811438)scale(0.1 -0.1)">
       <use xlink:href="#DejaVuSans-45"/>
       <use x="36.083984" xlink:href="#DejaVuSans-50"/>
       <use x="99.707031" xlink:href="#DejaVuSans-101"/>
       <use x="161.230469" xlink:href="#DejaVuSans-45"/>
       <use x="197.314453" xlink:href="#DejaVuSans-48"/>
       <use x="260.9375" xlink:href="#DejaVuSans-49"/>
      </g>
     </g>
    </g>
    <g id="ytick_12">
     <g id="line2d_29">
      <g>
       <use style="stroke:#000000;stroke-width:0.8;" x="60.928365" xlink:href="#m3cdf5b9830" y="283.012136"/>
      </g>
     </g>
     <g id="text_13">
      <!-- 0e+00 -->
      <g transform="translate(20.308052 286.811355)scale(0.1 -0.1)">
       <use xlink:href="#DejaVuSans-48"/>
       <use x="63.623047" xlink:href="#DejaVuSans-101"/>
       <use x="125.146484" xlink:href="#DejaVuSans-43"/>
       <use x="208.935547" xlink:href="#DejaVuSans-48"/>
       <use x="272.558594" xlink:href="#DejaVuSans-48"/>
      </g>
     </g>
    </g>
    <g id="text_14">
     <!-- Bending moment, $M(x)$ -->
     <g transform="translate(10.60024 398.062344)rotate(-90)scale(0.1 -0.1)">
      <defs>
       <path d="M 19.671875 34.8125 
L 19.671875 8.109375 
L 35.5 8.109375 
Q 43.453125 8.109375 47.28125 11.40625 
Q 51.125 14.703125 51.125 21.484375 
Q 51.125 28.328125 47.28125 31.5625 
Q 43.453125 34.8125 35.5 34.8125 
z
M 19.671875 64.796875 
L 19.671875 42.828125 
L 34.28125 42.828125 
Q 41.5 42.828125 45.03125 45.53125 
Q 48.578125 48.25 48.578125 53.8125 
Q 48.578125 59.328125 45.03125 62.0625 
Q 41.5 64.796875 34.28125 64.796875 
z
M 9.8125 72.90625 
L 35.015625 72.90625 
Q 46.296875 72.90625 52.390625 68.21875 
Q 58.5 63.53125 58.5 54.890625 
Q 58.5 48.1875 55.375 44.234375 
Q 52.25 40.28125 46.1875 39.3125 
Q 53.46875 37.75 57.5 32.78125 
Q 61.53125 27.828125 61.53125 20.40625 
Q 61.53125 10.640625 54.890625 5.3125 
Q 48.25 0 35.984375 0 
L 9.8125 0 
z
" id="DejaVuSans-66"/>
       <path d="M 54.890625 33.015625 
L 54.890625 0 
L 45.90625 0 
L 45.90625 32.71875 
Q 45.90625 40.484375 42.875 44.328125 
Q 39.84375 48.1875 33.796875 48.1875 
Q 26.515625 48.1875 22.3125 43.546875 
Q 18.109375 38.921875 18.109375 30.90625 
L 18.109375 0 
L 9.078125 0 
L 9.078125 54.6875 
L 18.109375 54.6875 
L 18.109375 46.1875 
Q 21.34375 51.125 25.703125 53.5625 
Q 30.078125 56 35.796875 56 
Q 45.21875 56 50.046875 50.171875 
Q 54.890625 44.34375 54.890625 33.015625 
z
" id="DejaVuSans-110"/>
       <path d="M 45.40625 46.390625 
L 45.40625 75.984375 
L 54.390625 75.984375 
L 54.390625 0 
L 45.40625 0 
L 45.40625 8.203125 
Q 42.578125 3.328125 38.25 0.953125 
Q 33.9375 -1.421875 27.875 -1.421875 
Q 17.96875 -1.421875 11.734375 6.484375 
Q 5.515625 14.40625 5.515625 27.296875 
Q 5.515625 40.1875 11.734375 48.09375 
Q 17.96875 56 27.875 56 
Q 33.9375 56 38.25 53.625 
Q 42.578125 51.265625 45.40625 46.390625 
z
M 14.796875 27.296875 
Q 14.796875 17.390625 18.875 11.75 
Q 22.953125 6.109375 30.078125 6.109375 
Q 37.203125 6.109375 41.296875 11.75 
Q 45.40625 17.390625 45.40625 27.296875 
Q 45.40625 37.203125 41.296875 42.84375 
Q 37.203125 48.484375 30.078125 48.484375 
Q 22.953125 48.484375 18.875 42.84375 
Q 14.796875 37.203125 14.796875 27.296875 
z
" id="DejaVuSans-100"/>
       <path d="M 9.421875 54.6875 
L 18.40625 54.6875 
L 18.40625 0 
L 9.421875 0 
z
M 9.421875 75.984375 
L 18.40625 75.984375 
L 18.40625 64.59375 
L 9.421875 64.59375 
z
" id="DejaVuSans-105"/>
       <path d="M 45.40625 27.984375 
Q 45.40625 37.75 41.375 43.109375 
Q 37.359375 48.484375 30.078125 48.484375 
Q 22.859375 48.484375 18.828125 43.109375 
Q 14.796875 37.75 14.796875 27.984375 
Q 14.796875 18.265625 18.828125 12.890625 
Q 22.859375 7.515625 30.078125 7.515625 
Q 37.359375 7.515625 41.375 12.890625 
Q 45.40625 18.265625 45.40625 27.984375 
z
M 54.390625 6.78125 
Q 54.390625 -7.171875 48.1875 -13.984375 
Q 42 -20.796875 29.203125 -20.796875 
Q 24.46875 -20.796875 20.265625 -20.09375 
Q 16.0625 -19.390625 12.109375 -17.921875 
L 12.109375 -9.1875 
Q 16.0625 -11.328125 19.921875 -12.34375 
Q 23.78125 -13.375 27.78125 -13.375 
Q 36.625 -13.375 41.015625 -8.765625 
Q 45.40625 -4.15625 45.40625 5.171875 
L 45.40625 9.625 
Q 42.625 4.78125 38.28125 2.390625 
Q 33.9375 0 27.875 0 
Q 17.828125 0 11.671875 7.65625 
Q 5.515625 15.328125 5.515625 27.984375 
Q 5.515625 40.671875 11.671875 48.328125 
Q 17.828125 56 27.875 56 
Q 33.9375 56 38.28125 53.609375 
Q 42.625 51.21875 45.40625 46.390625 
L 45.40625 54.6875 
L 54.390625 54.6875 
z
" id="DejaVuSans-103"/>
       <path d="M 52 44.1875 
Q 55.375 50.25 60.0625 53.125 
Q 64.75 56 71.09375 56 
Q 79.640625 56 84.28125 50.015625 
Q 88.921875 44.046875 88.921875 33.015625 
L 88.921875 0 
L 79.890625 0 
L 79.890625 32.71875 
Q 79.890625 40.578125 77.09375 44.375 
Q 74.3125 48.1875 68.609375 48.1875 
Q 61.625 48.1875 57.5625 43.546875 
Q 53.515625 38.921875 53.515625 30.90625 
L 53.515625 0 
L 44.484375 0 
L 44.484375 32.71875 
Q 44.484375 40.625 41.703125 44.40625 
Q 38.921875 48.1875 33.109375 48.1875 
Q 26.21875 48.1875 22.15625 43.53125 
Q 18.109375 38.875 18.109375 30.90625 
L 18.109375 0 
L 9.078125 0 
L 9.078125 54.6875 
L 18.109375 54.6875 
L 18.109375 46.1875 
Q 21.1875 51.21875 25.484375 53.609375 
Q 29.78125 56 35.6875 56 
Q 41.65625 56 45.828125 52.96875 
Q 50 49.953125 52 44.1875 
z
" id="DejaVuSans-109"/>
       <path d="M 18.3125 70.21875 
L 18.3125 54.6875 
L 36.8125 54.6875 
L 36.8125 47.703125 
L 18.3125 47.703125 
L 18.3125 18.015625 
Q 18.3125 11.328125 20.140625 9.421875 
Q 21.96875 7.515625 27.59375 7.515625 
L 36.8125 7.515625 
L 36.8125 0 
L 27.59375 0 
Q 17.1875 0 13.234375 3.875 
Q 9.28125 7.765625 9.28125 18.015625 
L 9.28125 47.703125 
L 2.6875 47.703125 
L 2.6875 54.6875 
L 9.28125 54.6875 
L 9.28125 70.21875 
z
" id="DejaVuSans-116"/>
       <path d="M 16.890625 72.90625 
L 31.6875 72.90625 
L 40.1875 23.78125 
L 68.40625 72.90625 
L 83.59375 72.90625 
L 69.390625 0 
L 59.8125 0 
L 72.21875 63.921875 
L 43.609375 14.015625 
L 33.984375 14.015625 
L 24.703125 64.109375 
L 12.3125 0 
L 2.6875 0 
z
" id="DejaVuSans-Oblique-77"/>
      </defs>
      <use transform="translate(0 0.015625)" xlink:href="#DejaVuSans-66"/>
      <use transform="translate(68.603516 0.015625)" xlink:href="#DejaVuSans-101"/>
      <use transform="translate(130.126953 0.015625)" xlink:href="#DejaVuSans-110"/>
      <use transform="translate(193.505859 0.015625)" xlink:href="#DejaVuSans-100"/>
      <use transform="translate(256.982422 0.015625)" xlink:href="#DejaVuSans-105"/>
      <use transform="translate(284.765625 0.015625)" xlink:href="#DejaVuSans-110"/>
      <use transform="translate(348.144531 0.015625)" xlink:href="#DejaVuSans-103"/>
      <use transform="translate(411.621094 0.015625)" xlink:href="#DejaVuSans-32"/>
      <use transform="translate(443.408203 0.015625)" xlink:href="#DejaVuSans-109"/>
      <use transform="translate(540.820312 0.015625)" xlink:href="#DejaVuSans-111"/>
      <use transform="translate(602.001953 0.015625)" xlink:href="#DejaVuSans-109"/>
      <use transform="translate(699.414062 0.015625)" xlink:href="#DejaVuSans-101"/>
      <use transform="translate(760.9375 0.015625)" xlink:href="#DejaVuSans-110"/>
      <use transform="translate(824.316406 0.015625)" xlink:href="#DejaVuSans-116"/>
      <use transform="translate(863.525391 0.015625)" xlink:href="#DejaVuSans-44"/>
      <use transform="translate(895.3125 0.015625)" xlink:href="#DejaVuSans-32"/>
      <use transform="translate(927.099609 0.015625)" xlink:href="#DejaVuSans-Oblique-77"/>
      <use transform="translate(1013.378906 0.015625)" xlink:href="#DejaVuSans-40"/>
      <use transform="translate(1052.392578 0.015625)" xlink:href="#DejaVuSans-Oblique-120"/>
      <use transform="translate(1111.572266 0.015625)" xlink:href="#DejaVuSans-41"/>
     </g>
    </g>
   </g>
   <g id="line2d_30">
    <path clip-path="url(#pf2839e76a8)" d="M 60.928365 398.012552 
L 65.203731 396.850931 
L 69.479097 395.689311 
L 73.754463 394.527691 
L 78.029829 393.36607 
L 82.305195 392.20445 
L 86.580561 391.04283 
L 90.855927 389.881209 
L 95.131293 388.719589 
L 99.406659 387.557968 
L 103.682025 386.396348 
L 107.957392 385.234728 
L 112.232758 384.073107 
L 116.508124 382.911487 
L 120.78349 381.749867 
L 125.058856 380.588246 
L 129.334222 379.426626 
L 133.609588 378.265006 
L 137.884954 377.103385 
L 142.16032 375.941765 
L 146.435686 374.780144 
L 150.711052 373.618524 
L 154.986418 372.456904 
L 159.261784 371.295283 
L 163.53715 370.133663 
L 167.812516 368.972043 
L 172.087882 367.810422 
L 176.363248 366.648802 
L 180.638614 365.487182 
L 184.91398 364.325561 
L 189.189346 363.163941 
L 193.464712 362.00232 
L 197.740079 360.8407 
L 202.015445 359.67908 
L 206.290811 358.517459 
L 210.566177 357.355839 
L 214.841543 356.194219 
L 219.116909 355.032598 
L 223.392275 353.870978 
L 227.667641 352.709358 
L 231.943007 351.547737 
L 236.218373 350.386117 
L 240.493739 349.224496 
L 244.769105 348.062876 
L 249.044471 346.901256 
L 253.319837 345.739635 
L 257.595203 344.578015 
L 261.870569 343.416395 
L 266.145935 342.254774 
L 270.421301 341.093154 
L 274.696667 339.931534 
L 278.972033 338.769913 
L 283.247399 337.608293 
L 287.522766 336.446672 
L 291.798132 335.285052 
L 296.073498 334.123432 
L 300.348864 332.961811 
L 304.62423 331.800191 
L 308.899596 330.638571 
L 313.174962 329.47695 
L 317.450328 328.31533 
L 321.725694 327.15371 
L 326.00106 325.992089 
L 330.276426 324.830469 
L 334.551792 323.668848 
L 338.827158 322.507228 
L 343.102524 321.345608 
L 347.37789 320.183987 
L 351.653256 319.022367 
L 355.928622 317.860747 
L 360.203988 316.699126 
L 364.479354 315.537506 
L 368.75472 314.375886 
L 373.030087 313.214265 
L 377.305453 312.052645 
L 381.580819 310.891025 
L 385.856185 309.729404 
L 390.131551 308.567784 
L 394.406917 307.406163 
L 398.682283 306.244543 
L 402.957649 305.082923 
L 407.233015 303.921302 
L 411.508381 302.759682 
L 415.783747 301.598062 
L 420.059113 300.436441 
L 424.334479 299.274821 
L 428.609845 298.113201 
L 432.885211 296.95158 
L 437.160577 295.78996 
L 441.435943 294.628339 
L 445.711309 293.466719 
L 449.986675 292.305099 
L 454.262041 291.143478 
L 458.537407 289.981858 
L 462.812774 288.820238 
L 467.08814 287.658617 
L 471.363506 286.496997 
L 475.638872 285.335377 
L 479.914238 284.173756 
L 484.189604 283.012136 
" style="fill:none;stroke:#b22222;stroke-linecap:square;stroke-width:2;"/>
   </g>
   <g id="patch_9">
    <path d="M 60.928365 403.762572 
L 60.928365 277.262115 
" style="fill:none;stroke:#000000;stroke-linecap:square;stroke-linejoin:miter;stroke-width:0.8;"/>
   </g>
   <g id="patch_10">
    <path d="M 484.189604 403.762572 
L 484.189604 277.262115 
" style="fill:none;stroke:#000000;stroke-linecap:square;stroke-linejoin:miter;stroke-width:0.8;"/>
   </g>
   <g id="patch_11">
    <path d="M 60.928365 403.762572 
L 484.189604 403.762572 
" style="fill:none;stroke:#000000;stroke-linecap:square;stroke-linejoin:miter;stroke-width:0.8;"/>
   </g>
   <g id="patch_12">
    <path d="M 60.928365 277.262115 
L 484.189604 277.262115 
" style="fill:none;stroke:#000000;stroke-linecap:square;stroke-linejoin:miter;stroke-width:0.8;"/>
   </g>
  </g>
  <g id="axes_4">
   <g id="patch_13">
    <path d="M 60.928365 542.64351 
L 484.189604 542.64351 
L 484.189604 416.143053 
L 60.928365 416.143053 
z
" style="fill:#ffffff;"/>
   </g>
   <g id="matplotlib.axis_5">
    <g id="xtick_13">
     <g id="line2d_31">
      <g>
       <use style="stroke:#000000;stroke-width:0.8;" x="60.928365" xlink:href="#m10ee17775b" y="542.64351"/>
      </g>
     </g>
     <g id="text_15">
      <!-- 0e+00 -->
      <g transform="translate(44.118209 557.241948)scale(0.1 -0.1)">
       <use xlink:href="#DejaVuSans-48"/>
       <use x="63.623047" xlink:href="#DejaVuSans-101"/>
       <use x="125.146484" xlink:href="#DejaVuSans-43"/>
       <use x="208.935547" xlink:href="#DejaVuSans-48"/>
       <use x="272.558594" xlink:href="#DejaVuSans-48"/>
      </g>
     </g>
    </g>
    <g id="xtick_14">
     <g id="line2d_32">
      <g>
       <use style="stroke:#000000;stroke-width:0.8;" x="145.580613" xlink:href="#m10ee17775b" y="542.64351"/>
      </g>
     </g>
     <g id="text_16">
      <!-- 2e-01 -->
      <g transform="translate(131.156394 557.241948)scale(0.1 -0.1)">
       <use xlink:href="#DejaVuSans-50"/>
       <use x="63.623047" xlink:href="#DejaVuSans-101"/>
       <use x="125.146484" xlink:href="#DejaVuSans-45"/>
       <use x="161.230469" xlink:href="#DejaVuSans-48"/>
       <use x="224.853516" xlink:href="#DejaVuSans-49"/>
      </g>
     </g>
    </g>
    <g id="xtick_15">
     <g id="line2d_33">
      <g>
       <use style="stroke:#000000;stroke-width:0.8;" x="230.232861" xlink:href="#m10ee17775b" y="542.64351"/>
      </g>
     </g>
     <g id="text_17">
      <!-- 4e-01 -->
      <g transform="translate(215.808642 557.241948)scale(0.1 -0.1)">
       <use xlink:href="#DejaVuSans-52"/>
       <use x="63.623047" xlink:href="#DejaVuSans-101"/>
       <use x="125.146484" xlink:href="#DejaVuSans-45"/>
       <use x="161.230469" xlink:href="#DejaVuSans-48"/>
       <use x="224.853516" xlink:href="#DejaVuSans-49"/>
      </g>
     </g>
    </g>
    <g id="xtick_16">
     <g id="line2d_34">
      <g>
       <use style="stroke:#000000;stroke-width:0.8;" x="314.885108" xlink:href="#m10ee17775b" y="542.64351"/>
      </g>
     </g>
     <g id="text_18">
      <!-- 6e-01 -->
      <g transform="translate(300.46089 557.241948)scale(0.1 -0.1)">
       <use xlink:href="#DejaVuSans-54"/>
       <use x="63.623047" xlink:href="#DejaVuSans-101"/>
       <use x="125.146484" xlink:href="#DejaVuSans-45"/>
       <use x="161.230469" xlink:href="#DejaVuSans-48"/>
       <use x="224.853516" xlink:href="#DejaVuSans-49"/>
      </g>
     </g>
    </g>
    <g id="xtick_17">
     <g id="line2d_35">
      <g>
       <use style="stroke:#000000;stroke-width:0.8;" x="399.537356" xlink:href="#m10ee17775b" y="542.64351"/>
      </g>
     </g>
     <g id="text_19">
      <!-- 8e-01 -->
      <g transform="translate(385.113137 557.241948)scale(0.1 -0.1)">
       <use xlink:href="#DejaVuSans-56"/>
       <use x="63.623047" xlink:href="#DejaVuSans-101"/>
       <use x="125.146484" xlink:href="#DejaVuSans-45"/>
       <use x="161.230469" xlink:href="#DejaVuSans-48"/>
       <use x="224.853516" xlink:href="#DejaVuSans-49"/>
      </g>
     </g>
    </g>
    <g id="xtick_18">
     <g id="line2d_36">
      <g>
       <use style="stroke:#000000;stroke-width:0.8;" x="484.189604" xlink:href="#m10ee17775b" y="542.64351"/>
      </g>
     </g>
     <g id="text_20">
      <!-- 1e+00 -->
      <g transform="translate(467.379448 557.241948)scale(0.1 -0.1)">
       <use xlink:href="#DejaVuSans-49"/>
       <use x="63.623047" xlink:href="#DejaVuSans-101"/>
       <use x="125.146484" xlink:href="#DejaVuSans-43"/>
       <use x="208.935547" xlink:href="#DejaVuSans-48"/>
       <use x="272.558594" xlink:href="#DejaVuSans-48"/>
      </g>
     </g>
    </g>
    <g id="text_21">
     <!-- Coordinate, $x$ -->
     <g transform="translate(238.908984 570.920072)scale(0.1 -0.1)">
      <defs>
       <path d="M 64.40625 67.28125 
L 64.40625 56.890625 
Q 59.421875 61.53125 53.78125 63.8125 
Q 48.140625 66.109375 41.796875 66.109375 
Q 29.296875 66.109375 22.65625 58.46875 
Q 16.015625 50.828125 16.015625 36.375 
Q 16.015625 21.96875 22.65625 14.328125 
Q 29.296875 6.6875 41.796875 6.6875 
Q 48.140625 6.6875 53.78125 8.984375 
Q 59.421875 11.28125 64.40625 15.921875 
L 64.40625 5.609375 
Q 59.234375 2.09375 53.4375 0.328125 
Q 47.65625 -1.421875 41.21875 -1.421875 
Q 24.65625 -1.421875 15.125 8.703125 
Q 5.609375 18.84375 5.609375 36.375 
Q 5.609375 53.953125 15.125 64.078125 
Q 24.65625 74.21875 41.21875 74.21875 
Q 47.75 74.21875 53.53125 72.484375 
Q 59.328125 70.75 64.40625 67.28125 
z
" id="DejaVuSans-67"/>
      </defs>
      <use transform="translate(0 0.015625)" xlink:href="#DejaVuSans-67"/>
      <use transform="translate(69.824219 0.015625)" xlink:href="#DejaVuSans-111"/>
      <use transform="translate(131.005859 0.015625)" xlink:href="#DejaVuSans-111"/>
      <use transform="translate(192.1875 0.015625)" xlink:href="#DejaVuSans-114"/>
      <use transform="translate(233.300781 0.015625)" xlink:href="#DejaVuSans-100"/>
      <use transform="translate(296.777344 0.015625)" xlink:href="#DejaVuSans-105"/>
      <use transform="translate(324.560547 0.015625)" xlink:href="#DejaVuSans-110"/>
      <use transform="translate(387.939453 0.015625)" xlink:href="#DejaVuSans-97"/>
      <use transform="translate(449.21875 0.015625)" xlink:href="#DejaVuSans-116"/>
      <use transform="translate(488.427734 0.015625)" xlink:href="#DejaVuSans-101"/>
      <use transform="translate(549.951172 0.015625)" xlink:href="#DejaVuSans-44"/>
      <use transform="translate(581.738281 0.015625)" xlink:href="#DejaVuSans-32"/>
      <use transform="translate(613.525391 0.015625)" xlink:href="#DejaVuSans-Oblique-120"/>
     </g>
    </g>
   </g>
   <g id="matplotlib.axis_6">
    <g id="ytick_13">
     <g id="line2d_37">
      <g>
       <use style="stroke:#000000;stroke-width:0.8;" x="60.928365" xlink:href="#m3cdf5b9830" y="525.393448"/>
      </g>
     </g>
     <g id="text_22">
      <!-- -3e-01 -->
      <g transform="translate(21.472115 529.192666)scale(0.1 -0.1)">
       <defs>
        <path d="M 40.578125 39.3125 
Q 47.65625 37.796875 51.625 33 
Q 55.609375 28.21875 55.609375 21.1875 
Q 55.609375 10.40625 48.1875 4.484375 
Q 40.765625 -1.421875 27.09375 -1.421875 
Q 22.515625 -1.421875 17.65625 -0.515625 
Q 12.796875 0.390625 7.625 2.203125 
L 7.625 11.71875 
Q 11.71875 9.328125 16.59375 8.109375 
Q 21.484375 6.890625 26.8125 6.890625 
Q 36.078125 6.890625 40.9375 10.546875 
Q 45.796875 14.203125 45.796875 21.1875 
Q 45.796875 27.640625 41.28125 31.265625 
Q 36.765625 34.90625 28.71875 34.90625 
L 20.21875 34.90625 
L 20.21875 43.015625 
L 29.109375 43.015625 
Q 36.375 43.015625 40.234375 45.921875 
Q 44.09375 48.828125 44.09375 54.296875 
Q 44.09375 59.90625 40.109375 62.90625 
Q 36.140625 65.921875 28.71875 65.921875 
Q 24.65625 65.921875 20.015625 65.03125 
Q 15.375 64.15625 9.8125 62.3125 
L 9.8125 71.09375 
Q 15.4375 72.65625 20.34375 73.4375 
Q 25.25 74.21875 29.59375 74.21875 
Q 40.828125 74.21875 47.359375 69.109375 
Q 53.90625 64.015625 53.90625 55.328125 
Q 53.90625 49.265625 50.4375 45.09375 
Q 46.96875 40.921875 40.578125 39.3125 
z
" id="DejaVuSans-51"/>
       </defs>
       <use xlink:href="#DejaVuSans-45"/>
       <use x="36.083984" xlink:href="#DejaVuSans-51"/>
       <use x="99.707031" xlink:href="#DejaVuSans-101"/>
       <use x="161.230469" xlink:href="#DejaVuSans-45"/>
       <use x="197.314453" xlink:href="#DejaVuSans-48"/>
       <use x="260.9375" xlink:href="#DejaVuSans-49"/>
      </g>
     </g>
    </g>
    <g id="ytick_14">
     <g id="line2d_38">
      <g>
       <use style="stroke:#000000;stroke-width:0.8;" x="60.928365" xlink:href="#m3cdf5b9830" y="490.893323"/>
      </g>
     </g>
     <g id="text_23">
      <!-- -2e-01 -->
      <g transform="translate(21.472115 494.692542)scale(0.1 -0.1)">
       <use xlink:href="#DejaVuSans-45"/>
       <use x="36.083984" xlink:href="#DejaVuSans-50"/>
       <use x="99.707031" xlink:href="#DejaVuSans-101"/>
       <use x="161.230469" xlink:href="#DejaVuSans-45"/>
       <use x="197.314453" xlink:href="#DejaVuSans-48"/>
       <use x="260.9375" xlink:href="#DejaVuSans-49"/>
      </g>
     </g>
    </g>
    <g id="ytick_15">
     <g id="line2d_39">
      <g>
       <use style="stroke:#000000;stroke-width:0.8;" x="60.928365" xlink:href="#m3cdf5b9830" y="456.393198"/>
      </g>
     </g>
     <g id="text_24">
      <!-- -1e-01 -->
      <g transform="translate(21.472115 460.192417)scale(0.1 -0.1)">
       <use xlink:href="#DejaVuSans-45"/>
       <use x="36.083984" xlink:href="#DejaVuSans-49"/>
       <use x="99.707031" xlink:href="#DejaVuSans-101"/>
       <use x="161.230469" xlink:href="#DejaVuSans-45"/>
       <use x="197.314453" xlink:href="#DejaVuSans-48"/>
       <use x="260.9375" xlink:href="#DejaVuSans-49"/>
      </g>
     </g>
    </g>
    <g id="ytick_16">
     <g id="line2d_40">
      <g>
       <use style="stroke:#000000;stroke-width:0.8;" x="60.928365" xlink:href="#m3cdf5b9830" y="421.893073"/>
      </g>
     </g>
     <g id="text_25">
      <!-- 0e+00 -->
      <g transform="translate(20.308052 425.692292)scale(0.1 -0.1)">
       <use xlink:href="#DejaVuSans-48"/>
       <use x="63.623047" xlink:href="#DejaVuSans-101"/>
       <use x="125.146484" xlink:href="#DejaVuSans-43"/>
       <use x="208.935547" xlink:href="#DejaVuSans-48"/>
       <use x="272.558594" xlink:href="#DejaVuSans-48"/>
      </g>
     </g>
    </g>
    <g id="text_26">
     <!-- Deflection, $v(x)$ -->
     <g transform="translate(14.228365 517.893281)rotate(-90)scale(0.1 -0.1)">
      <defs>
       <path d="M 19.671875 64.796875 
L 19.671875 8.109375 
L 31.59375 8.109375 
Q 46.6875 8.109375 53.6875 14.9375 
Q 60.6875 21.78125 60.6875 36.53125 
Q 60.6875 51.171875 53.6875 57.984375 
Q 46.6875 64.796875 31.59375 64.796875 
z
M 9.8125 72.90625 
L 30.078125 72.90625 
Q 51.265625 72.90625 61.171875 64.09375 
Q 71.09375 55.28125 71.09375 36.53125 
Q 71.09375 17.671875 61.125 8.828125 
Q 51.171875 0 30.078125 0 
L 9.8125 0 
z
" id="DejaVuSans-68"/>
       <path d="M 9.421875 75.984375 
L 18.40625 75.984375 
L 18.40625 0 
L 9.421875 0 
z
" id="DejaVuSans-108"/>
       <path d="M 7.171875 54.6875 
L 16.703125 54.6875 
L 24.703125 8.203125 
L 50.875 54.6875 
L 60.40625 54.6875 
L 29.296875 0 
L 17.1875 0 
z
" id="DejaVuSans-Oblique-118"/>
      </defs>
      <use transform="translate(0 0.015625)" xlink:href="#DejaVuSans-68"/>
      <use transform="translate(77.001953 0.015625)" xlink:href="#DejaVuSans-101"/>
      <use transform="translate(138.525391 0.015625)" xlink:href="#DejaVuSans-102"/>
      <use transform="translate(173.730469 0.015625)" xlink:href="#DejaVuSans-108"/>
      <use transform="translate(201.513672 0.015625)" xlink:href="#DejaVuSans-101"/>
      <use transform="translate(263.037109 0.015625)" xlink:href="#DejaVuSans-99"/>
      <use transform="translate(318.017578 0.015625)" xlink:href="#DejaVuSans-116"/>
      <use transform="translate(357.226562 0.015625)" xlink:href="#DejaVuSans-105"/>
      <use transform="translate(385.009766 0.015625)" xlink:href="#DejaVuSans-111"/>
      <use transform="translate(446.191406 0.015625)" xlink:href="#DejaVuSans-110"/>
      <use transform="translate(509.570312 0.015625)" xlink:href="#DejaVuSans-44"/>
      <use transform="translate(541.357422 0.015625)" xlink:href="#DejaVuSans-32"/>
      <use transform="translate(573.144531 0.015625)" xlink:href="#DejaVuSans-Oblique-118"/>
      <use transform="translate(632.324219 0.015625)" xlink:href="#DejaVuSans-40"/>
      <use transform="translate(671.337891 0.015625)" xlink:href="#DejaVuSans-Oblique-120"/>
      <use transform="translate(730.517578 0.015625)" xlink:href="#DejaVuSans-41"/>
     </g>
    </g>
   </g>
   <g id="line2d_41">
    <path clip-path="url(#pc1094ca1ad)" d="M 60.928365 421.893073 
L 65.203731 421.910614 
L 69.479097 421.963 
L 73.754463 422.049876 
L 78.029829 422.170886 
L 82.305195 422.325673 
L 86.580561 422.513884 
L 90.855927 422.735162 
L 95.131293 422.989152 
L 99.406659 423.275498 
L 103.682025 423.593844 
L 107.957392 423.943835 
L 112.232758 424.325116 
L 116.508124 424.737331 
L 120.78349 425.180124 
L 125.058856 425.653139 
L 129.334222 426.156022 
L 133.609588 426.688417 
L 137.884954 427.249967 
L 142.16032 427.840318 
L 146.435686 428.459114 
L 150.711052 429.106 
L 154.986418 429.780619 
L 159.261784 430.482616 
L 163.53715 431.211637 
L 167.812516 431.967324 
L 172.087882 432.749323 
L 176.363248 433.557278 
L 180.638614 434.390833 
L 184.91398 435.249633 
L 189.189346 436.133323 
L 193.464712 437.041546 
L 197.740079 437.973948 
L 202.015445 438.930172 
L 206.290811 439.909863 
L 210.566177 440.912666 
L 214.841543 441.938225 
L 219.116909 442.986184 
L 223.392275 444.056188 
L 227.667641 445.147881 
L 231.943007 446.260908 
L 236.218373 447.394913 
L 240.493739 448.549541 
L 244.769105 449.724435 
L 249.044471 450.919241 
L 253.319837 452.133603 
L 257.595203 453.367166 
L 261.870569 454.619573 
L 266.145935 455.890469 
L 270.421301 457.179499 
L 274.696667 458.486307 
L 278.972033 459.810538 
L 283.247399 461.151836 
L 287.522766 462.509845 
L 291.798132 463.884209 
L 296.073498 465.274574 
L 300.348864 466.680584 
L 304.62423 468.101883 
L 308.899596 469.538116 
L 313.174962 470.988927 
L 317.450328 472.45396 
L 321.725694 473.93286 
L 326.00106 475.425271 
L 330.276426 476.930838 
L 334.551792 478.449205 
L 338.827158 479.980017 
L 343.102524 481.522919 
L 347.37789 483.077553 
L 351.653256 484.643566 
L 355.928622 486.220601 
L 360.203988 487.808303 
L 364.479354 489.406316 
L 368.75472 491.014285 
L 373.030087 492.631854 
L 377.305453 494.258668 
L 381.580819 495.894371 
L 385.856185 497.538607 
L 390.131551 499.191021 
L 394.406917 500.851257 
L 398.682283 502.518961 
L 402.957649 504.193775 
L 407.233015 505.875345 
L 411.508381 507.563316 
L 415.783747 509.257331 
L 420.059113 510.957035 
L 424.334479 512.662072 
L 428.609845 514.372087 
L 432.885211 516.086724 
L 437.160577 517.805629 
L 441.435943 519.528444 
L 445.711309 521.254815 
L 449.986675 522.984386 
L 454.262041 524.716802 
L 458.537407 526.451706 
L 462.812774 528.188744 
L 467.08814 529.92756 
L 471.363506 531.667798 
L 475.638872 533.409102 
L 479.914238 535.151118 
L 484.189604 536.893489 
" style="fill:none;stroke:#000000;stroke-linecap:square;stroke-width:3;"/>
   </g>
   <g id="line2d_42">
    <path clip-path="url(#pc1094ca1ad)" d="M 60.928365 421.893073 
L 484.189604 421.893073 
" style="fill:none;stroke:#000000;stroke-dasharray:5.55,2.4;stroke-dashoffset:0;stroke-width:1.5;"/>
   </g>
   <g id="patch_14">
    <path d="M 60.928365 542.64351 
L 60.928365 416.143053 
" style="fill:none;stroke:#000000;stroke-linecap:square;stroke-linejoin:miter;stroke-width:0.8;"/>
   </g>
   <g id="patch_15">
    <path d="M 484.189604 542.64351 
L 484.189604 416.143053 
" style="fill:none;stroke:#000000;stroke-linecap:square;stroke-linejoin:miter;stroke-width:0.8;"/>
   </g>
   <g id="patch_16">
    <path d="M 60.928365 542.64351 
L 484.189604 542.64351 
" style="fill:none;stroke:#000000;stroke-linecap:square;stroke-linejoin:miter;stroke-width:0.8;"/>
   </g>
   <g id="patch_17">
    <path d="M 60.928365 416.143053 
L 484.189604 416.143053 
" style="fill:none;stroke:#000000;stroke-linecap:square;stroke-linejoin:miter;stroke-width:0.8;"/>
   </g>
  </g>
 </g>
 <defs>
  <clipPath id="pdeceeef37e">
   <rect height="126.500457" width="423.261239" x="60.928365" y="3.00024"/>
  </clipPath>
  <clipPath id="p5b5b75dc28">
   <rect height="126.500458" width="423.261239" x="60.928365" y="138.381177"/>
  </clipPath>
  <clipPath id="pf2839e76a8">
   <rect height="126.500457" width="423.261239" x="60.928365" y="277.262115"/>
  </clipPath>
  <clipPath id="pc1094ca1ad">
   <rect height="126.500457" width="423.261239" x="60.928365" y="416.143053"/>
  </clipPath>
 </defs>
</svg>
