<?xml version="1.0" encoding="UTF-8" standalone="no"?>
<!-- Created with matplotlib (https://matplotlib.org/) -->

<svg
   xmlns:dc="http://purl.org/dc/elements/1.1/"
   xmlns:cc="http://creativecommons.org/ns#"
   xmlns:rdf="http://www.w3.org/1999/02/22-rdf-syntax-ns#"
   xmlns:svg="http://www.w3.org/2000/svg"
   xmlns="http://www.w3.org/2000/svg"
   xmlns:xlink="http://www.w3.org/1999/xlink"
   xmlns:sodipodi="http://sodipodi.sourceforge.net/DTD/sodipodi-0.dtd"
   xmlns:inkscape="http://www.inkscape.org/namespaces/inkscape"
   height="162.05011pt"
   version="1.1"
   viewBox="0 0 502.62195 162.05011"
   width="502.62195pt"
   id="svg992"
   sodipodi:docname="example.svg"
   inkscape:version="0.92.3 (2405546, 2018-03-11)">
  <sodipodi:namedview
     pagecolor="#ffffff"
     bordercolor="#666666"
     borderopacity="1"
     objecttolerance="10"
     gridtolerance="10"
     guidetolerance="10"
     inkscape:pageopacity="0"
     inkscape:pageshadow="2"
     inkscape:window-width="1869"
     inkscape:window-height="1056"
     id="namedview994"
     showgrid="false"
     inkscape:zoom="0.86915208"
     inkscape:cx="152.76433"
     inkscape:cy="266.26156"
     inkscape:window-x="1731"
     inkscape:window-y="24"
     inkscape:window-maximized="1"
     inkscape:current-layer="g8203" />
  <metadata
     id="metadata2">
    <rdf:RDF>
      <cc:Work>
        <dc:type
           rdf:resource="http://purl.org/dc/dcmitype/StillImage" />
        <dc:date>2020-09-02T17:05:13.914000</dc:date>
        <dc:format>image/svg+xml</dc:format>
        <dc:creator>
          <cc:Agent>
            <dc:title>Matplotlib v3.3.1, https://matplotlib.org/</dc:title>
          </cc:Agent>
        </dc:creator>
      </cc:Work>
    </rdf:RDF>
  </metadata>
  <defs
     style="stroke-linecap:butt;stroke-linejoin:round"
     id="defs6">
    <marker
       inkscape:stockid="Arrow2Mend"
       orient="auto"
       refY="0"
       refX="0"
       id="marker7479"
       style="overflow:visible;stroke-linecap:butt;stroke-linejoin:round"
       inkscape:isstock="true">
      <path
         inkscape:connector-curvature="0"
         id="path7477"
         style="fill:#000000;fill-opacity:1;fill-rule:evenodd;stroke:#000000;stroke-width:0.625;stroke-linecap:butt;stroke-linejoin:round;stroke-opacity:1"
         d="M 8.7185878,4.0337352 -2.2072895,0.01601326 8.7185884,-4.0017078 c -1.7454984,2.3720609 -1.7354408,5.6174519 -6e-7,8.035443 z"
         transform="scale(-0.6)" />
    </marker>
    <marker
       inkscape:isstock="true"
       style="overflow:visible;stroke-linecap:butt;stroke-linejoin:round"
       id="Arrow2Mend"
       refX="0"
       refY="0"
       orient="auto"
       inkscape:stockid="Arrow2Mend"
       inkscape:collect="always">
      <path
         inkscape:connector-curvature="0"
         transform="scale(-0.6)"
         d="M 8.7185878,4.0337352 -2.2072895,0.01601326 8.7185884,-4.0017078 c -1.7454984,2.3720609 -1.7354408,5.6174519 -6e-7,8.035443 z"
         style="fill:#000000;fill-opacity:1;fill-rule:evenodd;stroke:#000000;stroke-width:0.625;stroke-linecap:butt;stroke-linejoin:round;stroke-opacity:1"
         id="path6293" />
    </marker>
    <marker
       inkscape:isstock="true"
       style="overflow:visible;stroke-linecap:butt;stroke-linejoin:round"
       id="Arrow1Mend"
       refX="0"
       refY="0"
       orient="auto"
       inkscape:stockid="Arrow1Mend">
      <path
         inkscape:connector-curvature="0"
         transform="matrix(-0.4,0,0,-0.4,-4,0)"
         style="fill:#000000;fill-opacity:1;fill-rule:evenodd;stroke:#000000;stroke-width:1.00000003pt;stroke-linecap:butt;stroke-linejoin:round;stroke-opacity:1"
         d="M 0,0 5,-5 -12.5,0 5,5 Z"
         id="path6275" />
    </marker>
    <marker
       inkscape:isstock="true"
       style="overflow:visible;stroke-linecap:butt;stroke-linejoin:round"
       id="Arrow2Mstart"
       refX="0"
       refY="0"
       orient="auto"
       inkscape:stockid="Arrow2Mstart">
      <path
         inkscape:connector-curvature="0"
         transform="scale(0.6)"
         d="M 8.7185878,4.0337352 -2.2072895,0.01601326 8.7185884,-4.0017078 c -1.7454984,2.3720609 -1.7354408,5.6174519 -6e-7,8.035443 z"
         style="fill:#000000;fill-opacity:1;fill-rule:evenodd;stroke:#000000;stroke-width:0.625;stroke-linecap:butt;stroke-linejoin:round;stroke-opacity:1"
         id="path6290" />
    </marker>
    <style
       id="style4"
       type="text/css">*{stroke-linecap:butt;stroke-linejoin:round;}</style>
    <marker
       inkscape:isstock="true"
       style="overflow:visible;stroke-linecap:butt;stroke-linejoin:round"
       id="Arrow2Mstart-6"
       refX="0"
       refY="0"
       orient="auto"
       inkscape:stockid="Arrow2Mstart">
      <path
         inkscape:connector-curvature="0"
         transform="scale(0.6)"
         d="M 8.7185878,4.0337352 -2.2072895,0.01601326 8.7185884,-4.0017078 c -1.7454984,2.3720609 -1.7354408,5.6174519 -6e-7,8.035443 z"
         style="fill:#000000;fill-opacity:1;fill-rule:evenodd;stroke:#000000;stroke-width:0.625;stroke-linecap:butt;stroke-linejoin:round;stroke-opacity:1"
         id="path6290-7" />
    </marker>
    <marker
       inkscape:isstock="true"
       style="overflow:visible;stroke-linecap:butt;stroke-linejoin:round"
       id="Arrow2Mend-5"
       refX="0"
       refY="0"
       orient="auto"
       inkscape:stockid="Arrow2Mend">
      <path
         inkscape:connector-curvature="0"
         transform="scale(-0.6)"
         d="M 8.7185878,4.0337352 -2.2072895,0.01601326 8.7185884,-4.0017078 c -1.7454984,2.3720609 -1.7354408,5.6174519 -6e-7,8.035443 z"
         style="fill:#000000;fill-opacity:1;fill-rule:evenodd;stroke:#000000;stroke-width:0.625;stroke-linecap:butt;stroke-linejoin:round;stroke-opacity:1"
         id="path6293-3" />
    </marker>
    <path
       inkscape:connector-curvature="0"
       style="stroke:#000000;stroke-width:1.5;stroke-linecap:butt;stroke-linejoin:round"
       id="m9c6f165268-6"
       d="M 0,4 C 1.060812,4 2.078319,3.578535 2.828427,2.828427 3.578535,2.078319 4,1.060812 4,0 4,-1.060812 3.578535,-2.078319 2.828427,-2.828427 2.078319,-3.578535 1.060812,-4 0,-4 -1.060812,-4 -2.078319,-3.578535 -2.828427,-2.828427 -3.578535,-2.078319 -4,-1.060812 -4,0 -4,1.060812 -3.578535,2.078319 -2.828427,2.828427 -2.078319,3.578535 -1.060812,4 0,4 Z" />
  </defs>
  <g
     style="stroke-linecap:butt;stroke-linejoin:round"
     id="PolyCollection_1"
     transform="translate(-55.606623,-7.5230507)">
    <defs
       id="defs12">
      <path
         inkscape:connector-curvature="0"
         style="stroke:#4169e1;stroke-width:2;stroke-linecap:butt;stroke-linejoin:round;stroke-opacity:0.35"
         id="maf8083f0e1"
         d="m 60.928365,-509.74953 v 0 l 2.137683,-0.58081 2.137683,-0.58081 2.137683,-0.58081 2.137683,-0.58081 2.137683,-0.58081 2.137683,-0.58081 2.137683,-0.58081 2.137683,-0.58081 2.137683,-0.58081 2.137683,-0.58081 2.137683,-0.58081 2.137683,-0.58081 2.137683,-0.58081 2.137683,-0.58081 2.137683,-0.58081 2.137683,-0.58081 2.137683,-0.58081 2.137683,-0.58081 2.137681,-0.58082 2.13768,-0.5808 2.13769,-0.58082 2.13768,-0.5808 2.13768,-0.58081 2.13769,-0.58082 2.13768,-0.58081 2.13768,-0.58081 2.13769,-0.58081 2.13768,-0.58081 2.13768,-0.58081 2.13769,-0.58081 2.13768,-0.58081 2.13768,-0.58081 2.13768,-0.58081 2.13769,-0.58081 2.13768,-0.58081 2.13768,-0.58081 2.13769,-0.58081 2.13768,-0.58081 2.13768,-0.58081 2.13769,-0.58081 2.13768,-0.58081 2.13768,-0.58081 2.13768,-0.58081 2.13769,-0.58081 2.13768,-0.58081 2.13768,-0.58081 2.13769,-0.58081 2.13768,-0.58081 2.13768,-0.58081 2.13769,-0.58081 2.13768,-0.58081 2.13768,-0.58081 2.13768,-0.58081 2.13769,-0.58081 2.13768,-0.58081 2.13768,-0.58081 2.13769,-0.58081 2.13768,-0.58081 2.13768,-0.58081 2.13769,-0.58081 2.13768,-0.58081 2.13768,-0.58081 2.13769,-0.58081 2.13768,-0.58081 2.13768,-0.58081 2.13768,-0.58081 2.13769,-0.58081 2.13768,-0.58081 2.13768,-0.58081 2.13769,-0.58081 2.13768,-0.58081 2.13768,-0.58081 2.13769,-0.58081 2.13768,-0.58081 2.13768,-0.58081 2.13768,-0.58082 2.13769,-0.5808 2.13768,-0.58081 2.13768,-0.58082 2.13769,-0.58081 2.13768,-0.58081 2.13768,-0.58081 2.13769,-0.58081 2.13768,-0.58081 2.13768,-0.58081 2.13768,-0.58081 2.13769,-0.58081 2.13768,-0.58081 2.13768,-0.58081 2.13769,-0.58081 2.13768,-0.58081 2.13768,-0.58081 2.13769,-0.58081 2.13768,-0.58081 2.13768,-0.58081 2.13768,-0.58081 2.13769,-0.58081 2.13768,-0.58081 2.13768,-0.58081 v 57.50021 0 h -2.13768 -2.13768 -2.13769 -2.13768 -2.13768 -2.13768 -2.13769 -2.13768 -2.13768 -2.13769 -2.13768 -2.13768 -2.13769 -2.13768 -2.13768 -2.13768 -2.13769 -2.13768 -2.13768 -2.13769 -2.13768 -2.13768 -2.13769 -2.13768 -2.13768 -2.13768 -2.13769 -2.13768 -2.13768 -2.13769 -2.13768 -2.13768 -2.13769 -2.13768 -2.13768 -2.13768 -2.13769 -2.13768 -2.13768 -2.13769 -2.13768 -2.13768 -2.13769 -2.13768 -2.13768 -2.13769 -2.13768 -2.13768 -2.13768 -2.13769 -2.13768 -2.13768 -2.13769 -2.13768 -2.13768 -2.13769 -2.13768 -2.13768 -2.13768 -2.13769 -2.13768 -2.13768 -2.13769 -2.13768 -2.13768 -2.13769 -2.13768 -2.13768 -2.13768 -2.13769 -2.13768 -2.13768 -2.13769 -2.13768 -2.13768 -2.13769 -2.13768 -2.13768 -2.13769 -2.13768 -2.137681 -2.137683 -2.137683 -2.137683 -2.137683 -2.137683 -2.137683 -2.137683 -2.137683 -2.137683 -2.137683 -2.137683 -2.137683 -2.137683 -2.137683 -2.137683 -2.137683 -2.137683 z" />
    </defs>
    <g
       style="stroke-linecap:butt;stroke-linejoin:round"
       id="g16"
       clip-path="url(#pe3c5a43747)">
      <use
         height="100%"
         width="100%"
         id="use14"
         y="576"
         xlink:href="#maf8083f0e1"
         x="0"
         style="fill:#4169e1;fill-opacity:0.35;stroke:#4169e1;stroke-width:2;stroke-linecap:butt;stroke-linejoin:round;stroke-opacity:0.35" />
    </g>
  </g>
  <g
     style="stroke-linecap:butt;stroke-linejoin:round"
     id="PolyCollection_2"
     transform="translate(-55.606623,-7.5230507)">
    <defs
       id="defs20">
      <path
         inkscape:connector-curvature="0"
         style="stroke:#4169e1;stroke-width:2;stroke-linecap:butt;stroke-linejoin:round;stroke-opacity:0.35"
         id="mf83ab92d6c"
         d="m 272.55898,-509.74953 v 0 h 1.06885 1.06884 1.06884 1.06884 1.06884 1.06884 1.06885 1.06884 1.06884 1.06884 1.06884 1.06884 1.06884 1.06885 1.06884 1.06884 1.06884 1.06884 1.06884 1.06884 1.06885 1.06884 1.06884 1.06884 1.06884 1.06884 1.06884 1.06885 1.06884 1.06884 1.06884 1.06884 1.06884 1.06885 1.06884 1.06884 1.06884 1.06884 1.06884 1.06884 1.06885 1.06884 1.06884 1.06884 1.06884 1.06884 1.06884 1.06885 1.06884 1.06884 1.06884 1.06884 1.06884 1.06885 1.06884 1.06884 1.06884 1.06884 1.06884 1.06885 1.06884 1.06884 1.06884 1.06884 1.06884 1.06884 1.06885 1.06884 1.06884 1.06884 1.06884 1.06884 1.06884 1.06885 1.06884 1.06884 1.06884 1.06884 1.06884 1.06884 1.06885 1.06884 1.06884 1.06884 1.06884 1.06884 1.06885 1.06884 1.06884 1.06884 1.06884 1.06884 1.06885 1.06884 1.06884 1.06884 1.06884 1.06884 1.06884 v 0 0 h -1.06884 -1.06884 -1.06884 -1.06884 -1.06884 -1.06884 -1.06885 -1.06884 -1.06884 -1.06884 -1.06884 -1.06884 -1.06885 -1.06884 -1.06884 -1.06884 -1.06884 -1.06884 -1.06885 -1.06884 -1.06884 -1.06884 -1.06884 -1.06884 -1.06884 -1.06885 -1.06884 -1.06884 -1.06884 -1.06884 -1.06884 -1.06884 -1.06885 -1.06884 -1.06884 -1.06884 -1.06884 -1.06884 -1.06884 -1.06885 -1.06884 -1.06884 -1.06884 -1.06884 -1.06884 -1.06885 -1.06884 -1.06884 -1.06884 -1.06884 -1.06884 -1.06885 -1.06884 -1.06884 -1.06884 -1.06884 -1.06884 -1.06884 -1.06885 -1.06884 -1.06884 -1.06884 -1.06884 -1.06884 -1.06884 -1.06885 -1.06884 -1.06884 -1.06884 -1.06884 -1.06884 -1.06885 -1.06884 -1.06884 -1.06884 -1.06884 -1.06884 -1.06884 -1.06885 -1.06884 -1.06884 -1.06884 -1.06884 -1.06884 -1.06884 -1.06885 -1.06884 -1.06884 -1.06884 -1.06884 -1.06884 -1.06884 -1.06885 -1.06884 -1.06884 -1.06884 -1.06884 -1.06884 z" />
    </defs>
    <g
       style="stroke-linecap:butt;stroke-linejoin:round"
       id="g24"
       clip-path="url(#pe3c5a43747)">
      <use
         height="100%"
         width="100%"
         id="use22"
         y="576"
         xlink:href="#mf83ab92d6c"
         x="0"
         style="fill:#4169e1;fill-opacity:0.35;stroke:#4169e1;stroke-width:2;stroke-linecap:butt;stroke-linejoin:round;stroke-opacity:0.35" />
    </g>
  </g>
  <g
     style="stroke-linecap:butt;stroke-linejoin:round"
     id="PolyCollection_3"
     transform="translate(-55.606623,-7.5230507)">
    <defs
       id="defs28">
      <path
         inkscape:connector-curvature="0"
         style="stroke:#4169e1;stroke-width:2;stroke-linecap:butt;stroke-linejoin:round;stroke-opacity:0.35"
         id="mf343c4ab14"
         d="m 378.37429,-509.74953 v 0 h 1.06885 1.06884 1.06884 1.06884 1.06884 1.06884 1.06884 1.06885 1.06884 1.06884 1.06884 1.06884 1.06884 1.06884 1.06885 1.06884 1.06884 1.06884 1.06884 1.06884 1.06885 1.06884 1.06884 1.06884 1.06884 1.06884 1.06885 1.06884 1.06884 1.06884 1.06884 1.06884 1.06884 1.06884 1.06885 1.06884 1.06884 1.06884 1.06884 1.06884 1.06885 1.06884 1.06884 1.06884 1.06884 1.06884 1.06884 1.06885 1.06884 1.06884 1.06884 1.06884 1.06884 1.06885 1.06884 1.06884 1.06884 1.06884 1.06884 1.06885 1.06884 1.06884 1.06884 1.06884 1.06884 1.06884 1.06884 1.06885 1.06884 1.06884 1.06884 1.06884 1.06884 1.06885 1.06884 1.06884 1.06884 1.06884 1.06884 1.06884 1.06885 1.06884 1.06884 1.06884 1.06884 1.06884 1.06885 1.06884 1.06884 1.06884 1.06884 1.06884 1.06884 1.06885 1.06884 1.06884 1.06884 1.06884 1.06884 v 0 0 h -1.06884 -1.06884 -1.06884 -1.06884 -1.06884 -1.06885 -1.06884 -1.06884 -1.06884 -1.06884 -1.06884 -1.06884 -1.06885 -1.06884 -1.06884 -1.06884 -1.06884 -1.06884 -1.06885 -1.06884 -1.06884 -1.06884 -1.06884 -1.06884 -1.06884 -1.06885 -1.06884 -1.06884 -1.06884 -1.06884 -1.06884 -1.06885 -1.06884 -1.06884 -1.06884 -1.06884 -1.06884 -1.06884 -1.06884 -1.06885 -1.06884 -1.06884 -1.06884 -1.06884 -1.06884 -1.06885 -1.06884 -1.06884 -1.06884 -1.06884 -1.06884 -1.06885 -1.06884 -1.06884 -1.06884 -1.06884 -1.06884 -1.06884 -1.06885 -1.06884 -1.06884 -1.06884 -1.06884 -1.06884 -1.06885 -1.06884 -1.06884 -1.06884 -1.06884 -1.06884 -1.06884 -1.06884 -1.06885 -1.06884 -1.06884 -1.06884 -1.06884 -1.06884 -1.06885 -1.06884 -1.06884 -1.06884 -1.06884 -1.06884 -1.06885 -1.06884 -1.06884 -1.06884 -1.06884 -1.06884 -1.06884 -1.06885 -1.06884 -1.06884 -1.06884 -1.06884 -1.06884 -1.06884 z" />
    </defs>
    <g
       style="stroke-linecap:butt;stroke-linejoin:round"
       id="g32"
       clip-path="url(#pe3c5a43747)">
      <use
         height="100%"
         width="100%"
         id="use30"
         y="576"
         xlink:href="#mf343c4ab14"
         x="0"
         style="fill:#4169e1;fill-opacity:0.35;stroke:#4169e1;stroke-width:2;stroke-linecap:butt;stroke-linejoin:round;stroke-opacity:0.35" />
    </g>
  </g>
  <g
     style="stroke-linecap:butt;stroke-linejoin:round"
     id="patch_2"
     transform="translate(-55.606623,-7.5230507)">
    <path
       inkscape:connector-curvature="0"
       id="path35"
       style="fill:#2e8b57;stroke:#2e8b57;stroke-linecap:butt;stroke-linejoin:miter"
       d="m 378.37429,66.250469 -2.96282,-8.855032 h 2.75119 V 9.325263 h 0.42326 v 48.070174 h 2.7512 z" />
  </g>
  <g
     style="stroke-linecap:butt;stroke-linejoin:round"
     id="line2d_1"
     transform="translate(-55.606623,-7.5230507)">
    <path
       inkscape:connector-curvature="0"
       id="path38"
       style="fill:none;stroke:#4169e1;stroke-width:2;stroke-linecap:square;stroke-linejoin:round"
       d="m 60.928365,66.250469 2.137683,-0.58081 2.137683,-0.580811 2.137683,-0.58081 2.137683,-0.58081 2.137683,-0.58081 2.137683,-0.58081 2.137683,-0.580811 2.137683,-0.58081 2.137683,-0.58081 2.137683,-0.58081 2.137683,-0.58081 2.137683,-0.58081 2.137683,-0.580811 2.137683,-0.58081 2.137683,-0.58081 2.137683,-0.58081 2.137683,-0.58081 2.137683,-0.580811 2.137681,-0.58081 2.13768,-0.58081 2.13769,-0.58081 2.13768,-0.58081 2.13768,-0.58081 2.13769,-0.580811 2.13768,-0.58081 2.13768,-0.58081 2.13769,-0.58081 2.13768,-0.58081 2.13768,-0.580811 2.13769,-0.58081 2.13768,-0.58081 2.13768,-0.58081 2.13768,-0.58081 2.13769,-0.58081 2.13768,-0.580811 2.13768,-0.58081 2.13769,-0.58081 2.13768,-0.58081 2.13768,-0.58081 2.13769,-0.580811 2.13768,-0.58081 2.13768,-0.58081 2.13768,-0.58081 2.13769,-0.58081 2.13768,-0.58081 2.13768,-0.580811 2.13769,-0.58081 2.13768,-0.58081 2.13768,-0.58081 2.13769,-0.58081 2.13768,-0.58081 2.13768,-0.580811 2.13768,-0.58081 2.13769,-0.58081 2.13768,-0.58081 2.13768,-0.58081 2.13769,-0.580811 2.13768,-0.58081 2.13768,-0.58081 2.13769,-0.58081 2.13768,-0.58081 2.13768,-0.58081 2.13769,-0.580811 2.13768,-0.58081 2.13768,-0.58081 2.13768,-0.58081 2.13769,-0.58081 2.13768,-0.580811 2.13768,-0.58081 2.13769,-0.58081 2.13768,-0.58081 2.13768,-0.58081 2.13769,-0.58081 2.13768,-0.580811 2.13768,-0.58081 2.13768,-0.58081 2.13769,-0.58081 2.13768,-0.58081 2.13768,-0.580811 2.13769,-0.58081 2.13768,-0.58081 2.13768,-0.58081 2.13769,-0.58081 2.13768,-0.58081 2.13768,-0.580811 2.13768,-0.58081 2.13769,-0.58081 2.13768,-0.58081 2.13768,-0.58081 2.13769,-0.580811 2.13768,-0.58081 2.13768,-0.58081 2.13769,-0.58081 2.13768,-0.58081 2.13768,-0.58081 2.13768,-0.580811 2.13769,-0.58081 2.13768,-0.58081 2.13768,-0.58081"
       clip-path="url(#pe3c5a43747)" />
  </g>
  <g
     style="stroke-linecap:butt;stroke-linejoin:round"
     id="line2d_2"
     transform="translate(-55.606623,-7.5230507)">
    <path
       inkscape:connector-curvature="0"
       id="path41"
       style="fill:none;stroke:#000000;stroke-width:3;stroke-linecap:square;stroke-linejoin:round"
       d="M 60.928365,66.250469 H 272.55898"
       clip-path="url(#pe3c5a43747)" />
  </g>
  <g
     style="stroke-linecap:butt;stroke-linejoin:round"
     id="line2d_3"
     transform="translate(-55.606623,-7.5230507)">
    <path
       inkscape:connector-curvature="0"
       id="path44"
       style="fill:none;stroke:#4169e1;stroke-width:2;stroke-linecap:square;stroke-linejoin:round"
       d="m 272.55898,66.250469 h 1.06885 1.06884 1.06884 1.06884 1.06884 1.06884 1.06885 1.06884 1.06884 1.06884 1.06884 1.06884 1.06884 1.06885 1.06884 1.06884 1.06884 1.06884 1.06884 1.06884 1.06885 1.06884 1.06884 1.06884 1.06884 1.06884 1.06884 1.06885 1.06884 1.06884 1.06884 1.06884 1.06884 1.06885 1.06884 1.06884 1.06884 1.06884 1.06884 1.06884 1.06885 1.06884 1.06884 1.06884 1.06884 1.06884 1.06884 1.06885 1.06884 1.06884 1.06884 1.06884 1.06884 1.06885 1.06884 1.06884 1.06884 1.06884 1.06884 1.06885 1.06884 1.06884 1.06884 1.06884 1.06884 1.06884 1.06885 1.06884 1.06884 1.06884 1.06884 1.06884 1.06884 1.06885 1.06884 1.06884 1.06884 1.06884 1.06884 1.06884 1.06885 1.06884 1.06884 1.06884 1.06884 1.06884 1.06885 1.06884 1.06884 1.06884 1.06884 1.06884 1.06885 1.06884 1.06884 1.06884 1.06884 1.06884 1.06884"
       clip-path="url(#pe3c5a43747)" />
  </g>
  <g
     style="stroke-linecap:butt;stroke-linejoin:round"
     id="line2d_4"
     transform="translate(-55.606623,-7.5230507)">
    <path
       inkscape:connector-curvature="0"
       id="path47"
       style="fill:none;stroke:#000000;stroke-width:3;stroke-linecap:square;stroke-linejoin:round"
       d="M 272.55898,66.250469 H 378.37429"
       clip-path="url(#pe3c5a43747)" />
  </g>
  <g
     style="stroke-linecap:butt;stroke-linejoin:round"
     id="line2d_5"
     transform="translate(-55.606623,-7.5230507)">
    <path
       inkscape:connector-curvature="0"
       id="path50"
       style="fill:none;stroke:#4169e1;stroke-width:2;stroke-linecap:square;stroke-linejoin:round"
       d="m 378.37429,66.250469 h 1.06885 1.06884 1.06884 1.06884 1.06884 1.06884 1.06884 1.06885 1.06884 1.06884 1.06884 1.06884 1.06884 1.06884 1.06885 1.06884 1.06884 1.06884 1.06884 1.06884 1.06885 1.06884 1.06884 1.06884 1.06884 1.06884 1.06885 1.06884 1.06884 1.06884 1.06884 1.06884 1.06884 1.06884 1.06885 1.06884 1.06884 1.06884 1.06884 1.06884 1.06885 1.06884 1.06884 1.06884 1.06884 1.06884 1.06884 1.06885 1.06884 1.06884 1.06884 1.06884 1.06884 1.06885 1.06884 1.06884 1.06884 1.06884 1.06884 1.06885 1.06884 1.06884 1.06884 1.06884 1.06884 1.06884 1.06884 1.06885 1.06884 1.06884 1.06884 1.06884 1.06884 1.06885 1.06884 1.06884 1.06884 1.06884 1.06884 1.06884 1.06885 1.06884 1.06884 1.06884 1.06884 1.06884 1.06885 1.06884 1.06884 1.06884 1.06884 1.06884 1.06884 1.06885 1.06884 1.06884 1.06884 1.06884 1.06884"
       clip-path="url(#pe3c5a43747)" />
  </g>
  <g
     style="stroke-linecap:butt;stroke-linejoin:round"
     id="line2d_6"
     transform="translate(-55.606623,-7.5230507)">
    <path
       inkscape:connector-curvature="0"
       id="path53"
       style="fill:none;stroke:#000000;stroke-width:3;stroke-linecap:square;stroke-linejoin:round"
       d="M 378.37429,66.250469 H 484.1896"
       clip-path="url(#pe3c5a43747)" />
  </g>
  <g
     style="stroke-linecap:butt;stroke-linejoin:round"
     id="line2d_7"
     transform="translate(-55.606623,-7.5230507)">
    <path
       inkscape:connector-curvature="0"
       id="path56"
       style="fill:none;stroke:#c0c0c0;stroke-width:5;stroke-linecap:butt;stroke-linejoin:round"
       d="M 58.106623,74.411789 V 58.089149" />
  </g>
  <g
     style="stroke-linecap:butt;stroke-linejoin:round"
     id="line2d_8"
     transform="translate(-55.606623,-7.5230507)">
    <path
       inkscape:connector-curvature="0"
       id="path59"
       style="fill:none;stroke:#000000;stroke-width:1.5;stroke-linecap:butt;stroke-linejoin:round"
       d="M 60.928365,74.411789 V 58.089149" />
  </g>
  <g
     style="stroke-linecap:butt;stroke-linejoin:round"
     id="line2d_9"
     transform="translate(-55.606623,-7.5230507)">
    <path
       inkscape:connector-curvature="0"
       id="path62"
       style="fill:none;stroke:#1f77b4;stroke-width:1.5;stroke-linecap:square;stroke-linejoin:round"
       d="M 378.37429,66.250469" />
    <defs
       id="defs65">
      <path
         inkscape:connector-curvature="0"
         style="stroke:#000000;stroke-width:1.5;stroke-linecap:butt;stroke-linejoin:round"
         id="m9c6f165268"
         d="M 0,4 C 1.060812,4 2.078319,3.578535 2.828427,2.828427 3.578535,2.078319 4,1.060812 4,0 4,-1.060812 3.578535,-2.078319 2.828427,-2.828427 2.078319,-3.578535 1.060812,-4 0,-4 -1.060812,-4 -2.078319,-3.578535 -2.828427,-2.828427 -3.578535,-2.078319 -4,-1.060812 -4,0 -4,1.060812 -3.578535,2.078319 -2.828427,2.828427 -2.078319,3.578535 -1.060812,4 0,4 Z" />
    </defs>
    <g
       style="stroke-linecap:butt;stroke-linejoin:round"
       id="g69">
      <use
         height="100%"
         width="100%"
         id="use67"
         y="66.250465"
         xlink:href="#m9c6f165268"
         x="378.3743"
         style="fill:#ffffff;stroke:#000000;stroke-width:1.5;stroke-linecap:butt;stroke-linejoin:round" />
    </g>
  </g>
  <g
     style="stroke-linecap:butt;stroke-linejoin:round"
     id="line2d_10"
     transform="translate(-55.606623,-7.5230507)">
    <path
       inkscape:connector-curvature="0"
       id="path72"
       style="fill:none;stroke:#ff7f0e;stroke-width:1.5;stroke-linecap:square;stroke-linejoin:round"
       d="M 484.1896,74.411789" />
    <defs
       id="defs75">
      <path
         inkscape:connector-curvature="0"
         style="stroke:#000000;stroke-linecap:butt;stroke-linejoin:miter"
         id="m34f11b3f91"
         d="m 0,-7.5 -7.5,15 h 15 z" />
    </defs>
    <g
       style="stroke-linecap:butt;stroke-linejoin:round"
       id="g79">
      <use
         height="100%"
         width="100%"
         id="use77"
         y="74.411789"
         xlink:href="#m34f11b3f91"
         x="484.18961"
         style="fill:#c0c0c0;stroke:#000000;stroke-linecap:butt;stroke-linejoin:miter" />
    </g>
  </g>
  <g
     style="stroke-linecap:butt;stroke-linejoin:round"
     id="line2d_11"
     transform="translate(-55.606623,-7.5230507)">
    <path
       inkscape:connector-curvature="0"
       id="path82"
       style="fill:none;stroke:#2ca02c;stroke-width:1.5;stroke-linecap:square;stroke-linejoin:round"
       d="M 488.42222,84.853477" />
    <defs
       id="defs85">
      <path
         style="stroke-linecap:butt;stroke-linejoin:round"
         inkscape:connector-curvature="0"
         id="mc7efc18ae8"
         d="M 0,3 C 0.795609,3 1.55874,2.683901 2.12132,2.12132 2.683901,1.55874 3,0.795609 3,0 3,-0.795609 2.683901,-1.55874 2.12132,-2.12132 1.55874,-2.683901 0.795609,-3 0,-3 -0.795609,-3 -1.55874,-2.683901 -2.12132,-2.12132 -2.683901,-1.55874 -3,-0.795609 -3,0 -3,0.795609 -2.683901,1.55874 -2.12132,2.12132 -1.55874,2.683901 -0.795609,3 0,3 Z" />
    </defs>
    <g
       style="stroke-linecap:butt;stroke-linejoin:round"
       id="g89">
      <use
         height="100%"
         width="100%"
         style="stroke-linecap:butt;stroke-linejoin:round"
         id="use87"
         y="84.853477"
         xlink:href="#mc7efc18ae8"
         x="488.42221" />
    </g>
  </g>
  <g
     style="stroke-linecap:butt;stroke-linejoin:round"
     id="line2d_12"
     transform="translate(-55.606623,-7.5230507)">
    <path
       inkscape:connector-curvature="0"
       id="path92"
       style="fill:none;stroke:#d62728;stroke-width:1.5;stroke-linecap:square;stroke-linejoin:round"
       d="M 479.95699,84.853477" />
    <g
       style="stroke-linecap:butt;stroke-linejoin:round"
       id="g96">
      <use
         height="100%"
         width="100%"
         style="stroke-linecap:butt;stroke-linejoin:round"
         id="use94"
         y="84.853477"
         xlink:href="#mc7efc18ae8"
         x="479.957" />
    </g>
  </g>
  <g
     style="stroke-linecap:butt;stroke-linejoin:round"
     id="line2d_13"
     transform="translate(-55.606623,-7.5230507)">
    <path
       inkscape:connector-curvature="0"
       id="path99"
       style="fill:none;stroke:#c0c0c0;stroke-width:5;stroke-linecap:butt;stroke-linejoin:round"
       d="m 473.60807,91.55056 h 21.16307" />
  </g>
  <g
     style="stroke-linecap:butt;stroke-linejoin:round"
     id="line2d_14"
     transform="translate(-55.606623,-7.5230507)">
    <path
       inkscape:connector-curvature="0"
       id="path102"
       style="fill:none;stroke:#000000;stroke-width:1.5;stroke-linecap:butt;stroke-linejoin:round"
       d="m 473.60807,89.250552 h 21.16307" />
  </g>
  <g
     style="stroke-linecap:butt;stroke-linejoin:round"
     id="line2d_15"
     transform="translate(-55.606623,-7.5230507)">
    <path
       inkscape:connector-curvature="0"
       id="path105"
       style="fill:none;stroke:#9467bd;stroke-width:1.5;stroke-linecap:square;stroke-linejoin:round"
       d="M 484.1896,66.250469" />
    <defs
       id="defs108">
      <path
         inkscape:connector-curvature="0"
         style="stroke:#b22222;stroke-linecap:butt;stroke-linejoin:round"
         id="meaa675c4a5"
         d="M -4,0 H 4 M 0,4 v -8" />
    </defs>
    <g
       style="stroke-linecap:butt;stroke-linejoin:round"
       id="g112">
      <use
         height="100%"
         width="100%"
         id="use110"
         y="66.250465"
         xlink:href="#meaa675c4a5"
         x="484.18961"
         style="fill:#b22222;stroke:#b22222;stroke-linecap:butt;stroke-linejoin:round" />
    </g>
  </g>
  <g
     style="stroke-linecap:butt;stroke-linejoin:round"
     id="line2d_16"
     transform="translate(-55.606623,-7.5230507)">
    <path
       inkscape:connector-curvature="0"
       id="path115"
       style="fill:none;stroke:#8c564b;stroke-width:1.5;stroke-linecap:square;stroke-linejoin:round"
       d="M 484.1896,56.001057" />
    <defs
       id="defs118">
      <path
         style="stroke-linecap:butt;stroke-linejoin:round"
         inkscape:connector-curvature="0"
         id="m79b37d016a"
         d="m -3.5,0 7,3.5 v -7 z" />
    </defs>
    <g
       style="stroke-linecap:butt;stroke-linejoin:round"
       id="g122">
      <use
         height="100%"
         width="100%"
         id="use120"
         y="56.001057"
         xlink:href="#m79b37d016a"
         x="484.18961"
         style="fill:#b22222;stroke-linecap:butt;stroke-linejoin:round" />
    </g>
  </g>
  <g
     style="stroke-linecap:butt;stroke-linejoin:round"
     id="patch_3"
     transform="translate(-55.606623,-7.5230507)">
    <path
       inkscape:connector-curvature="0"
       id="path125"
       style="fill:none;stroke:#b22222;stroke-width:2;stroke-linecap:butt;stroke-linejoin:miter"
       d="m 475.72438,66.248752 c -1.4e-4,1.008085 0.12256,2.010701 0.36412,2.975424 0.24157,0.964723 0.59937,1.881038 1.06184,2.719312 0.46246,0.838274 1.02455,1.58937 1.66809,2.228998 0.64354,0.639629 1.36151,1.160818 2.13069,1.546712 0.76918,0.385894 1.58119,0.632288 2.40978,0.731213 0.82858,0.09892 1.6647,0.0493 2.48132,-0.14726 0.81662,-0.196565 1.60484,-0.537929 2.33916,-1.013053 0.73432,-0.475124 1.40675,-1.07883 1.99554,-1.791594 0.58879,-0.712763 1.08751,-1.526817 1.48005,-2.415833 0.39254,-0.889017 0.67461,-1.843308 0.8371,-2.83201 0.16248,-0.988702 0.2036,-2.001041 0.12204,-3.004276 -0.0816,-1.003236 -0.28493,-1.986435 -0.60352,-2.9178 -0.31859,-0.931365 -0.74893,-1.800746 -1.27711,-2.580026 -0.52818,-0.77928 -1.14843,-1.459966 -1.8407,-2.020046 -0.69227,-0.560079 -1.44902,-0.993447 -2.24577,-1.286089 -0.79674,-0.292642 -1.62481,-0.441367 -2.45741,-0.441367" />
  </g>
  <defs
     id="defs990">
    <clipPath
       style="stroke-linecap:butt;stroke-linejoin:round"
       id="pe3c5a43747">
      <rect
         style="stroke-linecap:butt;stroke-linejoin:round"
         id="rect978"
         y="3.0002401"
         x="60.928364"
         width="423.26123"
         height="126.50046" />
    </clipPath>
    <clipPath
       style="stroke-linecap:butt;stroke-linejoin:round"
       id="p645a947fcc">
      <rect
         style="stroke-linecap:butt;stroke-linejoin:round"
         id="rect981"
         y="138.38118"
         x="60.928364"
         width="423.26123"
         height="126.50046" />
    </clipPath>
    <clipPath
       style="stroke-linecap:butt;stroke-linejoin:round"
       id="p98ca9df65e">
      <rect
         style="stroke-linecap:butt;stroke-linejoin:round"
         id="rect984"
         y="277.26212"
         x="60.928364"
         width="423.26123"
         height="126.50046" />
    </clipPath>
    <clipPath
       style="stroke-linecap:butt;stroke-linejoin:round"
       id="p2d4e475f2b">
      <rect
         style="stroke-linecap:butt;stroke-linejoin:round"
         id="rect987"
         y="416.14307"
         x="60.928364"
         width="423.26123"
         height="126.50046" />
    </clipPath>
  </defs>
  <path
     sodipodi:nodetypes="cc"
     inkscape:connector-curvature="0"
     id="path6247"
     d="M 5.3931874,71.788139 V 125.07283"
     style="fill:none;stroke:#000000;stroke-width:1.27499998;stroke-linecap:butt;stroke-linejoin:miter;stroke-miterlimit:4;stroke-dasharray:none;stroke-opacity:1" />
  <path
     inkscape:connector-curvature="0"
     id="path6247-3"
     d="m 428.58298,89.69352 v 35.37931"
     style="fill:none;stroke:#000000;stroke-width:1.27499998;stroke-linecap:butt;stroke-linejoin:miter;stroke-miterlimit:4;stroke-dasharray:none;stroke-opacity:1" />
  <path
     sodipodi:nodetypes="cc"
     inkscape:connector-curvature="0"
     id="path6264"
     d="M 7.9010195,115.90441 H 426.07489"
     style="fill:none;stroke:#000000;stroke-width:1.27499998;stroke-linecap:butt;stroke-linejoin:miter;stroke-miterlimit:4;stroke-dasharray:none;stroke-opacity:1;marker-start:url(#Arrow2Mstart);marker-end:url(#Arrow2Mend)" />
  <g
     id="g7275"
     transform="matrix(3.9625253,0,0,3.9625253,306.62851,-959.29649)"
     style="stroke-width:0.25236431;stroke-linecap:butt;stroke-linejoin:round">
    <g
       word-spacing="normal"
       letter-spacing="normal"
       font-size-adjust="none"
       font-stretch="normal"
       font-weight="normal"
       font-variant="normal"
       font-style="normal"
       stroke-miterlimit="10.433"
       xml:space="preserve"
       transform="matrix(0.12361073,0,0,-0.12361073,-21.631878,329.37339)"
       id="g8203"
       style="font-style:normal;font-variant:normal;font-weight:normal;font-stretch:normal;letter-spacing:normal;word-spacing:normal;text-anchor:start;fill:none;fill-opacity:1;fill-rule:evenodd;stroke:#000000;stroke-width:0.04717144;stroke-linecap:butt;stroke-linejoin:round;stroke-miterlimit:10.43299961;stroke-dasharray:none;stroke-dashoffset:0;stroke-opacity:1"><path
         id="path7248"
         d="m 565.53124,556.0217 0.03,0.13 0.04,0.15 0.04,0.16 0.04,0.18 0.06,0.19 0.06,0.21 0.06,0.22 0.07,0.22 0.08,0.23 0.09,0.24 0.1,0.25 0.1,0.24 0.11,0.25 0.12,0.25 0.13,0.25 0.14,0.25 0.15,0.24 0.15,0.24 0.17,0.23 0.18,0.22 0.18,0.22 0.2,0.2 0.21,0.19 0.22,0.18 0.23,0.16 0.25,0.14 0.12,0.07 0.13,0.06 0.14,0.05 0.13,0.05 0.14,0.05 0.14,0.04 0.15,0.03 0.15,0.03 0.15,0.02 0.16,0.02 0.16,0.01 h 0.16 c 0.25,0 1.44,0 2.48,-0.64 -1.39,-0.25 -2.39,-1.5 -2.39,-2.69 0,-0.79 0.55,-1.75 1.89,-1.75 1.1,0 2.69,0.89 2.69,2.89 0,2.6 -2.94,3.28 -4.63,3.28 -2.89,0 -4.64,-2.64 -5.23,-3.78 -1.25,3.28 -3.94,3.78 -5.37,3.78 -5.19,0 -8.04,-6.42 -8.04,-7.67 0,-0.5 0.5,-0.5 0.61,-0.5 0.39,0 0.55,0.11 0.64,0.55 1.69,5.28 4.99,6.53 6.68,6.53 0.95,0 2.68,-0.44 2.68,-3.33 0,-1.54 -0.84,-4.89 -2.68,-11.86 -0.8,-3.09 -2.54,-5.18 -4.74,-5.18 -0.3,0 -1.44,0 -2.48,0.65 1.25,0.24 2.34,1.28 2.34,2.69 0,1.34 -1.09,1.73 -1.84,1.73 -1.5,0 -2.75,-1.29 -2.75,-2.89 0,-2.28 2.5,-3.28 4.68,-3.28 3.3,0 5.08,3.49 5.24,3.78 0.59,-1.84 2.39,-3.78 5.37,-3.78 5.14,0 7.99,6.42 7.99,7.67 0,0.5 -0.45,0.5 -0.61,0.5 -0.44,0 -0.55,-0.2 -0.64,-0.54 -1.64,-5.33 -5.03,-6.53 -6.63,-6.53 -1.95,0 -2.75,1.59 -2.75,3.29 0,1.1 0.3,2.19 0.86,4.38 z"
         inkscape:connector-curvature="0"
         style="fill:#000000;stroke-width:0;stroke-linecap:butt;stroke-linejoin:round" /><path
         id="path7250"
         d="m 233.85455,670.35274 0.2,1.28 3.39,13.56 c 0.44,1.74 0.55,1.89 2.69,1.89 h 4.78 c 4.14,0 6.78,-1.34 6.78,-4.78 0,-1.95 -1,-6.23 -2.93,-8.03 -2.5,-2.23 -5.49,-2.64 -7.69,-2.64 h -7.02 l -0.2,-1.28 h 8.47 c 7.08,0 14,5.17 14,10.75 0,3.84 -3.28,7.53 -9.81,7.53 h -16.14 c -0.96,0 -1.5,0 -1.5,-0.95 0,-0.6 0.45,-0.6 1.45,-0.6 0.64,0 1.55,-0.04 2.14,-0.09 0.8,-0.11 1.09,-0.25 1.09,-0.8 0,-0.2 -0.04,-0.36 -0.2,-0.95 l -6.67,-26.75 c -0.5,-1.95 -0.6,-2.34 -4.53,-2.34 -0.85,0 -1.39,0 -1.39,-0.96 0,-0.59 0.59,-0.59 0.73,-0.59 1.41,0 4.94,0.16 6.33,0.16 1.05,0 2.14,-0.07 3.19,-0.07 1.11,0 2.2,-0.09 3.25,-0.09 0.34,0 0.98,0 0.98,1 0,0.55 -0.44,0.55 -1.39,0.55 -1.84,0 -3.23,0 -3.23,0.89 0,0.29 0.09,0.54 0.14,0.84 z"
         inkscape:connector-curvature="0"
         style="fill:#000000;stroke-width:0;stroke-linecap:butt;stroke-linejoin:round" /><path
         id="path7252"
         d="m 394.33685,632.82196 0.04,0.16 0.04,0.16 0.04,0.15 0.04,0.14 0.03,0.14 0.05,0.13 0.04,0.12 0.05,0.11 0.05,0.11 0.05,0.11 0.06,0.09 0.07,0.09 0.07,0.09 0.09,0.08 0.08,0.07 0.1,0.07 0.11,0.06 0.12,0.06 0.13,0.05 0.14,0.05 0.15,0.04 0.09,0.02 0.08,0.02 0.09,0.02 0.09,0.02 0.1,0.01 0.1,0.02 0.1,0.01 0.11,0.01 0.11,0.02 0.12,0.01 0.12,0.01 h 0.12 l 0.13,0.01 0.13,0.01 0.14,0.01 h 0.14 0.15 l 0.15,0.01 h 0.16 0.16 0.17 0.17 c 1.14,0 1.59,0 1.59,1 0,0.55 -0.5,0.55 -1.34,0.55 h -6.58 c -1.29,0 -1.34,0 -1.94,-0.95 l -18.18,-28.39 -3.89,28.18 c -0.16,1.16 -0.25,1.16 -1.55,1.16 h -6.83 c -0.94,0 -1.48,0 -1.48,-0.95 0,-0.6 0.43,-0.6 1.43,-0.6 0.66,0 1.55,-0.04 2.15,-0.09 0.79,-0.11 1.09,-0.25 1.09,-0.8 0,-0.2 -0.05,-0.36 -0.19,-0.95 l -6.33,-25.36 c -0.5,-2 -1.34,-3.59 -5.39,-3.73 -0.25,0 -0.89,-0.05 -0.89,-0.96 0,-0.43 0.3,-0.59 0.71,-0.59 1.59,0 3.32,0.16 4.96,0.16 1.71,0 3.5,-0.16 5.14,-0.16 0.25,0 0.9,0 0.9,1 0,0.55 -0.55,0.55 -0.9,0.55 -2.84,0.04 -3.39,1.04 -3.39,2.18 0,0.35 0.05,0.6 0.21,1.14 l 6.76,27.16 h 0.06 l 4.29,-30.89 c 0.09,-0.59 0.14,-1.14 0.75,-1.14 0.54,0 0.84,0.55 1.09,0.89 l 20.13,31.55 h 0.04 l -7.12,-28.55 c -0.5,-1.95 -0.6,-2.34 -4.53,-2.34 -0.85,0 -1.39,0 -1.39,-0.96 0,-0.59 0.59,-0.59 0.74,-0.59 1.4,0 4.79,0.16 6.18,0.16 2.04,0 4.18,-0.16 6.23,-0.16 0.3,0 0.94,0 0.94,1 0,0.55 -0.45,0.55 -1.39,0.55 -1.85,0 -3.24,0 -3.24,0.89 0,0.2 0,0.29 0.25,1.2 z"
         inkscape:connector-curvature="0"
         style="fill:#000000;stroke-width:0;stroke-linecap:butt;stroke-linejoin:round" /><path
         id="path7254"
         d="m 29.904541,699.23811 v 0.02 0.02 0.02 l -0.01,0.02 v 0.02 0.02 l -0.01,0.02 -0.01,0.02 v 0.02 l -0.01,0.02 -0.01,0.02 -0.01,0.03 -0.01,0.02 -0.02,0.02 -0.01,0.02 -0.01,0.01 -0.02,0.02 -0.02,0.02 -0.01,0.02 -0.02,0.01 -0.02,0.02 -0.02,0.01 -0.03,0.02 -0.02,0.01 -0.02,0.01 -0.03,0.01 -0.03,0.01 h -0.02 l -0.03,0.01 h -0.03 l -0.04,0.01 h -0.01 -0.02 c -0.55,0 -2.53,-1.99 -3.37,-3.44 -1.11,2.69 -3.05,3.48 -4.64,3.48 v -1.09 c 3.23,0 3.93,-4.03 3.93,-4.37 0,-0.32 -2.73,-11.22 -2.89,-11.43 -0.75,-1.39 -3.53,-4.57 -6.33,-4.57 v 0 c -2.98,0 -3.18,3.84 -3.18,4.68 0,2.39 1.43,7.82 2.29,9.91 1.54,3.69 4.13,5.78 6.18,5.78 v 1.09 c -5.88,0 -11.9999995,-7.37 -11.9999995,-14.59 0,-4.87 2.9299995,-7.97 6.5599995,-7.97 2.15,0 4.09,1.19 5.89,2.99 -0.45,-1.74 -2.09,-8.47 -2.25,-8.93 -0.39,-1.39 -0.8,-1.59 -3.58,-1.64 -0.66,0 -1.16,0 -1.16,-1 0,-0.04 0,-0.54 0.66,-0.54 1.59,0 3.33,0.15 4.98,0.15 1.69,0 3.49,-0.15 5.13,-0.15 0.25,0 0.89,0 0.89,1 0,0.54 -0.48,0.54 -1.28,0.54 -2.41,0 -2.41,0.36 -2.41,0.8 0,0.36 0.11,0.66 0.21,1.09 z"
         inkscape:connector-curvature="0"
         style="fill:#000000;stroke-width:0;stroke-linecap:butt;stroke-linejoin:round" /><g
         style="stroke-linecap:butt;stroke-linejoin:round"
         id="g8201"><g
           style="font-style:normal;font-variant:normal;font-weight:normal;font-stretch:normal;letter-spacing:normal;word-spacing:normal;text-anchor:start;fill:none;fill-opacity:1;fill-rule:evenodd;stroke:#000000;stroke-linecap:butt;stroke-linejoin:round;stroke-miterlimit:10.43299961;stroke-dasharray:none;stroke-dashoffset:0;stroke-opacity:1"
           id="g8468"
           transform="matrix(0.12361073,0,0,-0.12361073,-21.631878,329.37339)"
           xml:space="preserve"
           stroke-miterlimit="10.433"
           font-style="normal"
           font-variant="normal"
           font-weight="normal"
           font-stretch="normal"
           font-size-adjust="none"
           letter-spacing="normal"
           word-spacing="normal"><g
             id="g8466"
             style="stroke-linecap:butt;stroke-linejoin:round"><g
               word-spacing="normal"
               letter-spacing="normal"
               font-size-adjust="none"
               font-stretch="normal"
               font-weight="normal"
               font-variant="normal"
               font-style="normal"
               stroke-miterlimit="10.433"
               xml:space="preserve"
               transform="matrix(0.26956011,0,0,-0.26956011,-47.17302,521.97689)"
               id="g8728"
               style="font-style:normal;font-variant:normal;font-weight:normal;font-stretch:normal;letter-spacing:normal;word-spacing:normal;text-anchor:start;fill:none;fill-opacity:1;fill-rule:evenodd;stroke:#000000;stroke-linecap:butt;stroke-linejoin:round;stroke-miterlimit:10.43299961;stroke-dasharray:none;stroke-dashoffset:0;stroke-opacity:1"><g
                 id="g8726"
                 style="stroke-linecap:butt;stroke-linejoin:round"><g
                   id="g8998"
                   transform="matrix(0.26956011,0,0,-0.26956011,-47.17302,521.97689)"
                   xml:space="preserve"
                   stroke-miterlimit="10.433"
                   font-style="normal"
                   font-variant="normal"
                   font-weight="normal"
                   font-stretch="normal"
                   font-size-adjust="none"
                   letter-spacing="normal"
                   word-spacing="normal"
                   style="font-style:normal;font-variant:normal;font-weight:normal;font-stretch:normal;letter-spacing:normal;word-spacing:normal;text-anchor:start;fill:none;fill-opacity:1;fill-rule:evenodd;stroke:#000000;stroke-linecap:butt;stroke-linejoin:round;stroke-miterlimit:10.43299961;stroke-dasharray:none;stroke-dashoffset:0;stroke-opacity:1"><g
                     id="g8996"
                     style="stroke-linecap:butt;stroke-linejoin:round"><g
                       word-spacing="normal"
                       letter-spacing="normal"
                       font-size-adjust="none"
                       font-stretch="normal"
                       font-weight="normal"
                       font-variant="normal"
                       font-style="normal"
                       stroke-miterlimit="10.433"
                       xml:space="preserve"
                       transform="matrix(0.26956011,0,0,-0.26956011,-47.17302,521.97689)"
                       id="g9288"
                       style="font-style:normal;font-variant:normal;font-weight:normal;font-stretch:normal;letter-spacing:normal;word-spacing:normal;text-anchor:start;fill:none;fill-opacity:1;fill-rule:evenodd;stroke:#000000;stroke-linecap:butt;stroke-linejoin:round;stroke-miterlimit:10.43299961;stroke-dasharray:none;stroke-dashoffset:0;stroke-opacity:1"><g
                         id="g9286"
                         style="stroke-linecap:butt;stroke-linejoin:round"><g
                           id="g9588"
                           transform="matrix(0.26956011,0,0,-0.26956011,-47.17302,521.97689)"
                           xml:space="preserve"
                           stroke-miterlimit="10.433"
                           font-style="normal"
                           font-variant="normal"
                           font-weight="normal"
                           font-stretch="normal"
                           font-size-adjust="none"
                           letter-spacing="normal"
                           word-spacing="normal"
                           style="font-style:normal;font-variant:normal;font-weight:normal;font-stretch:normal;letter-spacing:normal;word-spacing:normal;text-anchor:start;fill:none;fill-opacity:1;fill-rule:evenodd;stroke:#000000;stroke-linecap:butt;stroke-linejoin:round;stroke-miterlimit:10.43299961;stroke-dasharray:none;stroke-dashoffset:0;stroke-opacity:1"><g
                             id="g9586"
                             style="stroke-linecap:butt;stroke-linejoin:round"><g
                               word-spacing="normal"
                               letter-spacing="normal"
                               font-size-adjust="none"
                               font-stretch="normal"
                               font-weight="normal"
                               font-variant="normal"
                               font-style="normal"
                               stroke-miterlimit="10.433"
                               xml:space="preserve"
                               transform="matrix(0.26956011,0,0,-0.26956011,-47.17302,521.97689)"
                               id="content"
                               style="font-style:normal;font-variant:normal;font-weight:normal;font-stretch:normal;letter-spacing:normal;word-spacing:normal;text-anchor:start;fill:none;fill-opacity:1;fill-rule:evenodd;stroke:#000000;stroke-linecap:butt;stroke-linejoin:round;stroke-miterlimit:10.43299961;stroke-dasharray:none;stroke-dashoffset:0;stroke-opacity:1" /></g></g></g></g></g></g></g></g></g></g></g><g
         style="font-style:normal;font-variant:normal;font-weight:normal;font-stretch:normal;letter-spacing:normal;word-spacing:normal;text-anchor:start;fill:none;fill-opacity:1;fill-rule:evenodd;stroke:#000000;stroke-width:0.00863406;stroke-linecap:butt;stroke-linejoin:round;stroke-miterlimit:10.43299961;stroke-dasharray:none;stroke-dashoffset:0;stroke-opacity:1"
         id="g1967"
         transform="matrix(0.97617778,0,0,0.97617778,-471.49611,-285.85544)"
         xml:space="preserve"
         stroke-miterlimit="10.433"
         font-style="normal"
         font-variant="normal"
         font-weight="normal"
         font-stretch="normal"
         font-size-adjust="none"
         letter-spacing="normal"
         word-spacing="normal"><g
           id="g2146"
           transform="translate(-246.28926,391.16296)"
           style="stroke-width:0.00863406;stroke-linecap:butt;stroke-linejoin:round"><path
             id="path1949"
             d="m 474.16,436.34 0.04,0.16 0.04,0.16 0.04,0.15 0.04,0.15 0.04,0.13 0.05,0.13 0.05,0.13 0.05,0.11 0.06,0.12 0.06,0.1 0.08,0.1 0.08,0.09 0.09,0.09 0.1,0.08 0.11,0.08 0.12,0.07 0.13,0.06 0.15,0.06 0.16,0.06 0.18,0.05 0.09,0.02 0.1,0.02 0.1,0.02 0.11,0.02 0.11,0.02 0.11,0.02 0.12,0.02 0.13,0.01 0.13,0.01 0.14,0.02 0.14,0.01 0.14,0.01 0.15,0.01 0.16,0.01 0.16,0.01 0.17,0.01 h 0.17 l 0.18,0.01 h 0.18 l 0.19,0.01 h 0.2 0.2 0.21 0.22 c 1.49,0 1.89,0 1.89,0.96 0,0.59 -0.54,0.59 -0.79,0.59 -1.66,0 -5.74,-0.16 -7.38,-0.16 -1.5,0 -5.14,0.16 -6.62,0.16 -0.36,0 -0.96,0 -0.96,-1 0,-0.55 0.46,-0.55 1.39,-0.55 0.11,0 1.05,0 1.91,-0.09 0.89,-0.11 1.34,-0.16 1.34,-0.8 0,-0.2 -0.06,-0.36 -0.2,-0.95 l -6.67,-26.75 c -0.5,-1.95 -0.61,-2.34 -4.55,-2.34 -0.84,0 -1.34,0 -1.34,-1 0,-0.55 0.45,-0.55 1.34,-0.55 h 23.08 c 1.19,0 1.23,0 1.55,0.84 l 3.92,10.77 c 0.2,0.55 0.2,0.64 0.2,0.7 0,0.19 -0.14,0.55 -0.59,0.55 -0.46,0 -0.5,-0.25 -0.85,-1.05 -1.7,-4.59 -3.89,-10.26 -12.51,-10.26 h -4.67 c -0.71,0 -0.8,0 -1.1,0.04 -0.5,0.05 -0.65,0.1 -0.65,0.5 0,0.14 0,0.25 0.25,1.14 z"
             inkscape:connector-curvature="0"
             style="fill:#000000;stroke-width:0;stroke-linecap:butt;stroke-linejoin:round" /><path
             id="path1951"
             d="m 511.35,441.67 0.01,0.03 0.01,0.03 0.02,0.03 0.01,0.03 0.01,0.02 0.01,0.03 0.01,0.03 v 0.02 l 0.02,0.05 0.02,0.05 0.01,0.04 0.02,0.05 0.01,0.04 0.01,0.04 0.01,0.03 0.01,0.04 0.01,0.03 0.01,0.03 v 0.03 l 0.01,0.02 0.01,0.03 v 0.02 l 0.01,0.02 v 0.02 0.02 0.02 l 0.01,0.01 v 0.02 0.01 0.01 0.01 0.01 0.01 0.01 0.01 0 c 0,0.55 -0.45,0.99 -1,0.99 -0.34,0 -0.7,-0.14 -0.84,-0.44 l -17.3,-47.48 c -0.25,-0.64 -0.25,-0.85 -0.25,-0.89 0,-0.55 0.45,-1 1,-1 0.66,0 0.8,0.34 1.09,1.18 z"
             inkscape:connector-curvature="0"
             style="fill:#000000;stroke-width:0;stroke-linecap:butt;stroke-linejoin:round" /><path
             id="path1953"
             d="m 520.76,410.04 5.28,5.13 c 7.77,6.87 10.77,9.56 10.77,14.54 0,5.69 -4.49,9.68 -10.56,9.68 -5.65,0 -9.33,-4.6 -9.33,-9.03 0,-2.79 2.5,-2.79 2.64,-2.79 0.86,0 2.59,0.6 2.59,2.64 0,1.3 -0.89,2.6 -2.64,2.6 -0.39,0 -0.5,0 -0.64,-0.05 1.14,3.24 3.83,5.08 6.72,5.08 4.53,0 6.69,-4.05 6.69,-8.13 0,-3.98 -2.5,-7.92 -5.24,-11.01 l -9.56,-10.66 c -0.56,-0.54 -0.56,-0.64 -0.56,-1.84 h 18.48 l 1.41,8.67 h -1.25 c -0.25,-1.5 -0.59,-3.69 -1.09,-4.44 -0.37,-0.39 -3.65,-0.39 -4.74,-0.39 z"
             inkscape:connector-curvature="0"
             style="fill:#000000;stroke-width:0;stroke-linecap:butt;stroke-linejoin:round" /></g><g
           id="g2141"
           style="stroke-width:0.00587192;stroke-linecap:butt;stroke-linejoin:round"
           transform="translate(-14.437711,391.16296)"><path
             id="path1955"
             d="m 574.47,436.34 0.04,0.16 0.04,0.16 0.04,0.15 0.04,0.15 0.05,0.13 0.04,0.13 0.05,0.13 0.05,0.11 0.06,0.12 0.07,0.1 0.07,0.1 0.08,0.09 0.09,0.09 0.1,0.08 0.11,0.08 0.12,0.07 0.13,0.06 0.15,0.06 0.16,0.06 0.18,0.05 0.09,0.02 0.1,0.02 0.1,0.02 0.11,0.02 0.11,0.02 0.12,0.02 0.12,0.02 0.12,0.01 0.13,0.01 0.14,0.02 0.14,0.01 0.14,0.01 0.15,0.01 0.16,0.01 0.16,0.01 0.17,0.01 h 0.17 l 0.18,0.01 h 0.19 l 0.19,0.01 h 0.19 0.21 0.21 0.21 c 1.49,0 1.9,0 1.9,0.96 0,0.59 -0.55,0.59 -0.8,0.59 -1.66,0 -5.74,-0.16 -7.38,-0.16 -1.5,0 -5.14,0.16 -6.62,0.16 -0.36,0 -0.95,0 -0.95,-1 0,-0.55 0.45,-0.55 1.38,-0.55 0.12,0 1.05,0 1.91,-0.09 0.89,-0.11 1.34,-0.16 1.34,-0.8 0,-0.2 -0.06,-0.36 -0.2,-0.95 l -6.67,-26.75 c -0.5,-1.95 -0.61,-2.34 -4.55,-2.34 -0.84,0 -1.34,0 -1.34,-1 0,-0.55 0.45,-0.55 1.34,-0.55 h 23.08 c 1.19,0 1.24,0 1.55,0.84 l 3.92,10.77 c 0.2,0.55 0.2,0.64 0.2,0.7 0,0.19 -0.14,0.55 -0.59,0.55 -0.45,0 -0.5,-0.25 -0.84,-1.05 -1.71,-4.59 -3.9,-10.26 -12.52,-10.26 h -4.67 c -0.71,0 -0.8,0 -1.09,0.04 -0.5,0.05 -0.66,0.1 -0.66,0.5 0,0.14 0,0.25 0.25,1.14 z"
             inkscape:connector-curvature="0"
             style="fill:#000000;stroke-width:0;stroke-linecap:butt;stroke-linejoin:round" /><path
             id="path1957"
             d="m 611.66,441.67 0.02,0.03 0.01,0.03 0.01,0.03 0.01,0.03 0.01,0.02 0.01,0.03 0.01,0.03 0.01,0.02 0.01,0.05 0.02,0.05 0.01,0.04 0.02,0.05 0.01,0.04 0.01,0.04 0.01,0.03 0.01,0.04 0.01,0.03 0.01,0.03 0.01,0.03 v 0.02 l 0.01,0.03 v 0.02 l 0.01,0.02 v 0.02 0.02 l 0.01,0.02 v 0.01 0.02 0.01 0.01 0.01 0.01 0.01 0.01 0.01 0 c 0,0.55 -0.45,0.99 -1,0.99 -0.34,0 -0.7,-0.14 -0.84,-0.44 l -17.3,-47.48 c -0.25,-0.64 -0.25,-0.85 -0.25,-0.89 0,-0.55 0.46,-1 1,-1 0.66,0 0.8,0.34 1.1,1.18 z"
             inkscape:connector-curvature="0"
             style="fill:#000000;stroke-width:0;stroke-linecap:butt;stroke-linejoin:round" /><path
             id="path1959"
             d="m 629.39,414.42 v -4.33 c 0,-1.8 -0.1,-2.34 -3.79,-2.34 h -1.04 v -1.55 c 2.04,0.16 4.64,0.16 6.73,0.16 2.1,0 4.74,0 6.77,-0.16 v 1.55 h -1.05 c -3.69,0 -3.78,0.54 -3.78,2.34 v 4.33 h 4.99 v 1.54 h -4.99 v 22.68 c 0,1 0,1.29 -0.8,1.29 -0.45,0 -0.59,0 -1,-0.61 l -15.29,-23.36 h 1.4 l 12.16,18.58 v -18.58 h -12.16 -1.4 v -1.54 z"
             inkscape:connector-curvature="0"
             style="fill:#000000;stroke-width:0;stroke-linecap:butt;stroke-linejoin:round" /></g><g
           id="g2136"
           style="stroke-width:0.00587192;stroke-linecap:butt;stroke-linejoin:round"
           transform="translate(110.08754,391.16296)"><path
             id="path1961"
             d="m 674.78,436.34 0.04,0.16 0.04,0.16 0.04,0.15 0.04,0.15 0.04,0.13 0.05,0.13 0.05,0.13 0.05,0.11 0.06,0.12 0.07,0.1 0.07,0.1 0.08,0.09 0.09,0.09 0.1,0.08 0.11,0.08 0.12,0.07 0.13,0.06 0.15,0.06 0.16,0.06 0.18,0.05 0.09,0.02 0.1,0.02 0.1,0.02 0.11,0.02 0.11,0.02 0.12,0.02 0.12,0.02 0.12,0.01 0.13,0.01 0.14,0.02 0.14,0.01 0.14,0.01 0.15,0.01 0.16,0.01 0.16,0.01 0.17,0.01 h 0.17 l 0.18,0.01 h 0.18 l 0.2,0.01 h 0.19 0.21 0.21 0.21 c 1.49,0 1.89,0 1.89,0.96 0,0.59 -0.54,0.59 -0.79,0.59 -1.66,0 -5.74,-0.16 -7.38,-0.16 -1.5,0 -5.14,0.16 -6.62,0.16 -0.36,0 -0.96,0 -0.96,-1 0,-0.55 0.46,-0.55 1.39,-0.55 0.11,0 1.05,0 1.91,-0.09 0.89,-0.11 1.34,-0.16 1.34,-0.8 0,-0.2 -0.06,-0.36 -0.2,-0.95 l -6.67,-26.75 c -0.5,-1.95 -0.61,-2.34 -4.55,-2.34 -0.84,0 -1.34,0 -1.34,-1 0,-0.55 0.45,-0.55 1.34,-0.55 h 23.08 c 1.19,0 1.23,0 1.55,0.84 l 3.92,10.77 c 0.2,0.55 0.2,0.64 0.2,0.7 0,0.19 -0.14,0.55 -0.59,0.55 -0.46,0 -0.5,-0.25 -0.85,-1.05 -1.7,-4.59 -3.89,-10.26 -12.51,-10.26 h -4.67 c -0.71,0 -0.8,0 -1.1,0.04 -0.5,0.05 -0.65,0.1 -0.65,0.5 0,0.14 0,0.25 0.25,1.14 z"
             inkscape:connector-curvature="0"
             style="fill:#000000;stroke-width:0;stroke-linecap:butt;stroke-linejoin:round" /><path
             id="path1963"
             d="m 711.97,441.67 0.01,0.03 0.02,0.03 0.01,0.03 0.01,0.03 0.01,0.02 0.01,0.03 0.01,0.03 0.01,0.02 0.01,0.05 0.02,0.05 0.01,0.04 0.02,0.05 0.01,0.04 0.01,0.04 0.01,0.03 0.01,0.04 0.01,0.03 0.01,0.03 0.01,0.03 v 0.02 l 0.01,0.03 v 0.02 l 0.01,0.02 v 0.02 0.02 l 0.01,0.02 v 0.01 0.02 0.01 0.01 0.01 0.01 0.01 0.01 0.01 0 c 0,0.55 -0.45,0.99 -1,0.99 -0.34,0 -0.7,-0.14 -0.84,-0.44 l -17.3,-47.48 c -0.25,-0.64 -0.25,-0.85 -0.25,-0.89 0,-0.55 0.45,-1 1,-1 0.66,0 0.8,0.34 1.1,1.18 z"
             inkscape:connector-curvature="0"
             style="fill:#000000;stroke-width:0;stroke-linecap:butt;stroke-linejoin:round" /><path
             id="path1965"
             d="m 729.7,414.42 v -4.33 c 0,-1.8 -0.1,-2.34 -3.79,-2.34 h -1.04 v -1.55 c 2.04,0.16 4.64,0.16 6.73,0.16 2.1,0 4.74,0 6.77,-0.16 v 1.55 h -1.05 c -3.69,0 -3.78,0.54 -3.78,2.34 v 4.33 h 4.98 v 1.54 h -4.98 v 22.68 c 0,1 0,1.29 -0.8,1.29 -0.45,0 -0.59,0 -1,-0.61 l -15.29,-23.36 h 1.4 l 12.16,18.58 v -18.58 h -12.16 -1.4 v -1.54 z"
             inkscape:connector-curvature="0"
             style="fill:#000000;stroke-width:0;stroke-linecap:butt;stroke-linejoin:round" /></g></g><g
         id="g2309"
         transform="translate(0,-15.855494)"
         style="stroke-linecap:butt;stroke-linejoin:round"><g
           style="stroke-width:0.03208071;stroke-linecap:butt;stroke-linejoin:round"
           transform="matrix(1.4703991,0,0,1.4703991,-486.39646,27.777013)"
           id="g2153"><g
             style="stroke-width:0.00863406;stroke-linecap:butt;stroke-linejoin:round"
             transform="matrix(3.7155983,0,0,-3.7155983,-43.990324,1388.3069)"
             id="g1125"><g
               style="font-style:normal;font-variant:normal;font-weight:normal;font-stretch:normal;letter-spacing:normal;word-spacing:normal;text-anchor:start;fill:none;fill-opacity:1;fill-rule:evenodd;stroke:#000000;stroke-width:0.00863406;stroke-linecap:butt;stroke-linejoin:round;stroke-miterlimit:10.43299961;stroke-dasharray:none;stroke-dashoffset:0;stroke-opacity:1"
               id="g1123"
               transform="matrix(0.17867547,0,0,-0.17867547,-31.268207,376.96646)"
               xml:space="preserve"
               stroke-miterlimit="10.433"
               font-style="normal"
               font-variant="normal"
               font-weight="normal"
               font-stretch="normal"
               font-size-adjust="none"
               letter-spacing="normal"
               word-spacing="normal"><path
                 style="fill:#000000;stroke-width:0;stroke-linecap:butt;stroke-linejoin:round"
                 inkscape:connector-curvature="0"
                 d="m 490.8,417.81 0.01,0.02 0.01,0.03 0.02,0.05 0.02,0.05 0.02,0.05 0.02,0.05 0.02,0.05 0.02,0.05 0.01,0.05 0.01,0.03 0.01,0.02 0.01,0.02 0.01,0.03 v 0.02 l 0.01,0.02 0.01,0.02 v 0.02 l 0.01,0.02 v 0.02 l 0.01,0.01 v 0.02 0.02 0.01 0.01 l 0.01,0.01 c 0,0.05 0,0.55 -0.6,0.55 -0.45,0 -0.55,-0.3 -0.64,-0.61 -3.25,-7.38 -5.08,-10.7 -13.61,-10.7 h -7.26 c -0.71,0 -0.8,0 -1.1,0.04 -0.5,0.05 -0.65,0.1 -0.65,0.5 0,0.14 0,0.25 0.25,1.14 l 3.39,13.61 h 4.93 c 4.24,0 4.24,-1.04 4.24,-2.29 0,-0.35 0,-0.96 -0.36,-2.44 -0.09,-0.25 -0.14,-0.41 -0.14,-0.55 0,-0.25 0.19,-0.55 0.64,-0.55 0.41,0 0.55,0.25 0.75,0.99 l 2.84,11.67 c 0,0.3 -0.25,0.55 -0.61,0.55 -0.43,0 -0.54,-0.3 -0.68,-0.91 -1.05,-3.78 -1.96,-4.92 -6.54,-4.92 h -4.68 l 3,12 c 0.43,1.75 0.5,1.94 2.68,1.94 h 7.02 c 6.08,0 7.58,-1.44 7.58,-5.53 0,-1.19 0,-1.29 -0.2,-2.64 0,-0.3 -0.05,-0.65 -0.05,-0.9 0,-0.25 0.15,-0.59 0.59,-0.59 0.56,0 0.61,0.3 0.71,1.25 l 1,8.61 c 0.14,1.34 -0.1,1.34 -1.35,1.34 h -25.15 c -1,0 -1.5,0 -1.5,-1 0,-0.54 0.45,-0.54 1.39,-0.54 1.84,0 3.23,0 3.23,-0.89 0,-0.21 0,-0.3 -0.25,-1.21 l -6.56,-26.34 c -0.5,-1.95 -0.61,-2.34 -4.55,-2.34 -0.84,0 -1.39,0 -1.39,-0.96 0,-0.59 0.45,-0.59 1.39,-0.59 h 25.86 c 1.16,0 1.2,0.05 1.55,0.84 z"
                 id="path1117" /><path
                 style="fill:#000000;stroke-width:0;stroke-linecap:butt;stroke-linejoin:round"
                 inkscape:connector-curvature="0"
                 d="m 505.23,406.25 -0.01,0.3 -0.01,0.3 -0.02,0.29 -0.02,0.28 -0.03,0.27 -0.04,0.26 -0.04,0.26 -0.06,0.24 -0.05,0.24 -0.07,0.23 -0.07,0.22 -0.08,0.21 -0.08,0.2 -0.09,0.19 -0.09,0.19 -0.1,0.17 -0.11,0.16 -0.11,0.16 -0.12,0.14 -0.12,0.13 -0.13,0.13 -0.14,0.11 -0.14,0.1 -0.14,0.1 -0.15,0.08 -0.15,0.07 -0.16,0.06 -0.16,0.05 -0.17,0.04 -0.17,0.03 -0.18,0.01 -0.18,0.01 c -1.64,0 -2.64,-1.25 -2.64,-2.64 0,-1.34 1,-2.64 2.64,-2.64 0.59,0 1.25,0.2 1.75,0.64 0.14,0.11 0.2,0.16 0.25,0.16 0.05,0 0.09,-0.05 0.09,-0.75 0,-3.69 -1.73,-6.68 -3.39,-8.32 -0.54,-0.54 -0.54,-0.65 -0.54,-0.79 0,-0.36 0.25,-0.55 0.5,-0.55 0.54,0 4.53,3.83 4.53,9.66 z"
                 id="path1119" /><path
                 style="fill:#000000;stroke-width:0;stroke-linecap:butt;stroke-linejoin:round"
                 inkscape:connector-curvature="0"
                 d="m 552.64,436.39 0.04,0.16 0.04,0.16 0.04,0.15 0.04,0.14 0.04,0.14 0.04,0.13 0.05,0.12 0.05,0.11 0.05,0.11 0.06,0.11 0.06,0.09 0.07,0.09 0.08,0.09 0.09,0.08 0.09,0.07 0.11,0.07 0.11,0.06 0.13,0.06 0.14,0.05 0.15,0.05 0.16,0.04 0.09,0.02 0.09,0.02 0.09,0.02 0.1,0.02 0.1,0.01 0.11,0.02 0.11,0.01 0.11,0.01 0.12,0.02 0.12,0.01 0.13,0.01 h 0.13 l 0.14,0.01 0.14,0.01 0.15,0.01 h 0.15 0.15 l 0.16,0.01 h 0.17 0.17 0.18 0.18 c 1.18,0 1.59,0 1.59,0.96 0,0.59 -0.54,0.59 -0.75,0.59 -1.45,0 -5.14,-0.16 -6.58,-0.16 -1.5,0 -5.12,0.16 -6.62,0.16 -0.34,0 -1,0 -1,-1 0,-0.55 0.45,-0.55 1.39,-0.55 2.09,0 3.44,0 3.44,-0.95 0,-0.25 0,-0.34 -0.1,-0.8 l -6.72,-26.84 c -0.45,-1.84 -0.6,-2.34 -4.54,-2.34 -1.14,0 -1.6,0 -1.6,-1 0,-0.55 0.61,-0.55 0.75,-0.55 1.46,0 5.08,0.16 6.54,0.16 1.5,0 5.18,-0.16 6.67,-0.16 0.4,0 1,0 1,0.95 0,0.6 -0.41,0.6 -1.5,0.6 -0.89,0 -1.14,0 -2.14,0.09 -1.05,0.11 -1.24,0.3 -1.24,0.84 0,0.41 0.09,0.8 0.19,1.16 z"
                 id="path1121" /></g></g></g><g
           style="stroke-width:0.03208071;stroke-linecap:butt;stroke-linejoin:round"
           transform="matrix(1.4703991,0,0,1.4703991,-400.51737,38.751113)"
           id="g2165"><g
             id="g1395"
             transform="matrix(3.7155983,0,0,-3.7155983,142.37628,1380.6809)"
             style="stroke-width:0.00863406;stroke-linecap:butt;stroke-linejoin:round"><g
               word-spacing="normal"
               letter-spacing="normal"
               font-size-adjust="none"
               font-stretch="normal"
               font-weight="normal"
               font-variant="normal"
               font-style="normal"
               stroke-miterlimit="10.433"
               xml:space="preserve"
               transform="matrix(0.17867547,0,0,-0.17867547,-31.268207,376.96646)"
               id="g1393"
               style="font-style:normal;font-variant:normal;font-weight:normal;font-stretch:normal;letter-spacing:normal;word-spacing:normal;text-anchor:start;fill:none;fill-opacity:1;fill-rule:evenodd;stroke:#000000;stroke-width:0.00863406;stroke-linecap:butt;stroke-linejoin:round;stroke-miterlimit:10.43299961;stroke-dasharray:none;stroke-dashoffset:0;stroke-opacity:1"><path
                 id="path1377"
                 d="m 490.8,417.81 0.01,0.02 0.01,0.03 0.02,0.05 0.02,0.05 0.02,0.05 0.02,0.05 0.02,0.05 0.02,0.05 0.01,0.05 0.01,0.03 0.01,0.02 0.01,0.02 0.01,0.03 v 0.02 l 0.01,0.02 0.01,0.02 v 0.02 l 0.01,0.02 v 0.02 l 0.01,0.01 v 0.02 0.02 0.01 0.01 l 0.01,0.01 c 0,0.05 0,0.55 -0.6,0.55 -0.45,0 -0.55,-0.3 -0.64,-0.61 -3.25,-7.38 -5.08,-10.7 -13.61,-10.7 h -7.26 c -0.71,0 -0.8,0 -1.1,0.04 -0.5,0.05 -0.65,0.1 -0.65,0.5 0,0.14 0,0.25 0.25,1.14 l 3.39,13.61 h 4.93 c 4.24,0 4.24,-1.04 4.24,-2.29 0,-0.35 0,-0.96 -0.36,-2.44 -0.09,-0.25 -0.14,-0.41 -0.14,-0.55 0,-0.25 0.19,-0.55 0.64,-0.55 0.41,0 0.55,0.25 0.75,0.99 l 2.84,11.67 c 0,0.3 -0.25,0.55 -0.61,0.55 -0.43,0 -0.54,-0.3 -0.68,-0.91 -1.05,-3.78 -1.96,-4.92 -6.54,-4.92 h -4.68 l 3,12 c 0.43,1.75 0.5,1.94 2.68,1.94 h 7.02 c 6.08,0 7.58,-1.44 7.58,-5.53 0,-1.19 0,-1.29 -0.2,-2.64 0,-0.3 -0.05,-0.65 -0.05,-0.9 0,-0.25 0.15,-0.59 0.59,-0.59 0.56,0 0.61,0.3 0.71,1.25 l 1,8.61 c 0.14,1.34 -0.1,1.34 -1.35,1.34 h -25.15 c -1,0 -1.5,0 -1.5,-1 0,-0.54 0.45,-0.54 1.39,-0.54 1.84,0 3.23,0 3.23,-0.89 0,-0.21 0,-0.3 -0.25,-1.21 l -6.56,-26.34 c -0.5,-1.95 -0.61,-2.34 -4.55,-2.34 -0.84,0 -1.39,0 -1.39,-0.96 0,-0.59 0.45,-0.59 1.39,-0.59 h 25.86 c 1.16,0 1.2,0.05 1.55,0.84 z"
                 inkscape:connector-curvature="0"
                 style="fill:#000000;stroke-width:0;stroke-linecap:butt;stroke-linejoin:round" /><path
                 id="path1379"
                 d="m 516.99,441.67 0.01,0.03 0.01,0.03 0.02,0.03 0.01,0.03 0.01,0.02 0.01,0.03 0.01,0.03 v 0.02 l 0.02,0.05 0.02,0.05 0.01,0.04 0.02,0.05 0.01,0.04 0.01,0.04 0.01,0.03 0.01,0.04 0.01,0.03 0.01,0.03 v 0.03 l 0.01,0.02 0.01,0.03 v 0.02 l 0.01,0.02 v 0.02 0.02 0.02 l 0.01,0.01 v 0.02 0.01 0.01 0.01 0.01 0.01 0.01 0.01 0 c 0,0.55 -0.45,0.99 -1,0.99 -0.34,0 -0.7,-0.14 -0.84,-0.44 l -17.3,-47.48 c -0.25,-0.64 -0.25,-0.85 -0.25,-0.89 0,-0.55 0.45,-1 1,-1 0.66,0 0.8,0.34 1.1,1.18 z"
                 inkscape:connector-curvature="0"
                 style="fill:#000000;stroke-width:0;stroke-linecap:butt;stroke-linejoin:round" /><path
                 id="path1381"
                 d="m 534.72,438.09 v 0.05 l -0.01,0.06 v 0.05 0.05 0.05 0.05 0.04 0.05 0.04 0.04 0.04 0.04 0.04 l -0.01,0.03 v 0.04 0.03 l -0.01,0.07 -0.01,0.06 -0.01,0.05 -0.02,0.05 -0.01,0.05 -0.02,0.04 -0.02,0.04 -0.03,0.03 -0.03,0.03 -0.03,0.03 -0.03,0.03 -0.04,0.02 -0.05,0.02 -0.02,0.01 -0.03,0.01 h -0.02 l -0.03,0.01 -0.03,0.01 h -0.03 l -0.03,0.01 h -0.03 l -0.03,0.01 h -0.04 -0.03 l -0.04,0.01 h -0.04 -0.04 -0.04 -0.04 -0.05 l -0.05,0.01 h -0.04 -0.05 -0.05 -0.06 c -3.09,-3.19 -7.47,-3.19 -9.06,-3.19 v -1.55 c 1,0 3.94,0 6.52,1.3 v -25.81 c 0,-1.8 -0.14,-2.39 -4.63,-2.39 h -1.59 v -1.55 c 1.75,0.16 6.08,0.16 8.06,0.16 2,0 6.33,0 8.08,-0.16 v 1.55 h -1.6 c -4.48,0 -4.63,0.54 -4.63,2.39 z"
                 inkscape:connector-curvature="0"
                 style="fill:#000000;stroke-width:0;stroke-linecap:butt;stroke-linejoin:round" /><path
                 id="path1383"
                 d="m 567.95,422.14 v 0.74 l -0.01,0.75 -0.02,0.75 -0.03,0.74 -0.05,0.75 -0.06,0.74 -0.08,0.74 -0.09,0.73 -0.12,0.73 -0.14,0.73 -0.16,0.72 -0.19,0.72 -0.21,0.72 -0.25,0.7 -0.28,0.7 -0.15,0.35 -0.16,0.34 c -2.28,4.8 -6.37,5.6 -8.47,5.6 -2.98,0 -6.62,-1.3 -8.67,-5.94 -1.59,-3.44 -1.84,-7.33 -1.84,-11.31 0,-3.74 0.2,-8.22 2.25,-12 2.14,-4.03 5.78,-5.03 8.22,-5.03 v 1.09 c -1.94,0 -4.89,1.25 -5.78,6.03 -0.55,2.98 -0.55,7.56 -0.55,10.52 0,3.18 0,6.46 0.41,9.15 0.93,5.94 4.67,6.38 5.92,6.38 1.64,0 4.94,-0.89 5.87,-5.83 0.5,-2.78 0.5,-6.58 0.5,-9.7 0,-3.75 0,-7.13 -0.54,-10.32 -0.75,-4.73 -3.6,-6.23 -5.83,-6.23 v 0 -1.09 c 2.68,0 6.47,1.04 8.67,5.78 1.59,3.43 1.84,7.31 1.84,11.25 z"
                 inkscape:connector-curvature="0"
                 style="fill:#000000;stroke-width:0;stroke-linecap:butt;stroke-linejoin:round" /><path
                 id="path1385"
                 d="m 580.1,406.25 -0.01,0.3 -0.01,0.3 -0.01,0.29 -0.03,0.28 -0.03,0.27 -0.04,0.26 -0.04,0.26 -0.06,0.24 -0.05,0.24 -0.07,0.23 -0.07,0.22 -0.08,0.21 -0.08,0.2 -0.09,0.19 -0.09,0.19 -0.1,0.17 -0.11,0.16 -0.11,0.16 -0.12,0.14 -0.12,0.13 -0.13,0.13 -0.14,0.11 -0.13,0.1 -0.15,0.1 -0.15,0.08 -0.15,0.07 -0.16,0.06 -0.16,0.05 -0.17,0.04 -0.17,0.03 -0.18,0.01 -0.18,0.01 c -1.64,0 -2.64,-1.25 -2.64,-2.64 0,-1.34 1,-2.64 2.64,-2.64 0.59,0 1.25,0.2 1.75,0.64 0.14,0.11 0.2,0.16 0.25,0.16 0.05,0 0.09,-0.05 0.09,-0.75 0,-3.69 -1.73,-6.68 -3.39,-8.32 -0.54,-0.54 -0.54,-0.65 -0.54,-0.79 0,-0.36 0.25,-0.55 0.5,-0.55 0.54,0 4.53,3.83 4.53,9.66 z"
                 inkscape:connector-curvature="0"
                 style="fill:#000000;stroke-width:0;stroke-linecap:butt;stroke-linejoin:round" /><path
                 id="path1387"
                 d="m 627.27,436.39 0.04,0.16 0.04,0.16 0.03,0.15 0.04,0.14 0.05,0.14 0.04,0.13 0.04,0.12 0.05,0.11 0.06,0.11 0.06,0.11 0.06,0.09 0.07,0.09 0.08,0.09 0.09,0.08 0.09,0.07 0.11,0.07 0.11,0.06 0.13,0.06 0.14,0.05 0.15,0.05 0.16,0.04 0.09,0.02 0.09,0.02 0.09,0.02 0.1,0.02 0.1,0.01 0.11,0.02 0.11,0.01 0.11,0.01 0.12,0.02 0.12,0.01 0.13,0.01 h 0.13 l 0.14,0.01 0.14,0.01 0.15,0.01 h 0.15 0.15 l 0.16,0.01 h 0.17 0.17 0.18 0.18 c 1.18,0 1.59,0 1.59,0.96 0,0.59 -0.55,0.59 -0.75,0.59 -1.45,0 -5.14,-0.16 -6.58,-0.16 -1.5,0 -5.12,0.16 -6.62,0.16 -0.35,0 -1,0 -1,-1 0,-0.55 0.45,-0.55 1.39,-0.55 2.09,0 3.44,0 3.44,-0.95 0,-0.25 0,-0.34 -0.1,-0.8 l -6.72,-26.84 c -0.45,-1.84 -0.61,-2.34 -4.54,-2.34 -1.14,0 -1.6,0 -1.6,-1 0,-0.55 0.61,-0.55 0.75,-0.55 1.46,0 5.08,0.16 6.53,0.16 1.5,0 5.19,-0.16 6.68,-0.16 0.4,0 1,0 1,0.95 0,0.6 -0.41,0.6 -1.5,0.6 -0.89,0 -1.15,0 -2.15,0.09 -1.04,0.11 -1.23,0.3 -1.23,0.84 0,0.41 0.09,0.8 0.19,1.16 z"
                 inkscape:connector-curvature="0"
                 style="fill:#000000;stroke-width:0;stroke-linecap:butt;stroke-linejoin:round" /><path
                 id="path1389"
                 d="m 656.3,441.67 0.01,0.03 0.01,0.03 0.01,0.03 0.02,0.03 0.01,0.02 v 0.03 l 0.01,0.03 0.01,0.02 0.02,0.05 0.02,0.05 0.01,0.04 0.02,0.05 0.01,0.04 0.01,0.04 0.01,0.03 0.01,0.04 0.01,0.03 0.01,0.03 v 0.03 l 0.01,0.02 0.01,0.03 v 0.02 0.02 l 0.01,0.02 v 0.02 0.02 l 0.01,0.01 v 0.02 0.01 0.01 0.01 0.01 0.01 0.01 0.01 0 c 0,0.55 -0.45,0.99 -1,0.99 -0.34,0 -0.7,-0.14 -0.84,-0.44 l -17.3,-47.48 c -0.25,-0.64 -0.25,-0.85 -0.25,-0.89 0,-0.55 0.45,-1 1,-1 0.66,0 0.8,0.34 1.09,1.18 z"
                 inkscape:connector-curvature="0"
                 style="fill:#000000;stroke-width:0;stroke-linecap:butt;stroke-linejoin:round" /><path
                 id="path1391"
                 d="m 665.71,410.04 5.28,5.13 c 7.77,6.87 10.77,9.56 10.77,14.54 0,5.69 -4.49,9.68 -10.56,9.68 -5.65,0 -9.33,-4.6 -9.33,-9.03 0,-2.79 2.5,-2.79 2.64,-2.79 0.86,0 2.59,0.6 2.59,2.64 0,1.3 -0.89,2.6 -2.64,2.6 -0.39,0 -0.5,0 -0.64,-0.05 1.14,3.24 3.83,5.08 6.72,5.08 4.53,0 6.69,-4.05 6.69,-8.13 0,-3.98 -2.5,-7.92 -5.24,-11.01 l -9.56,-10.66 c -0.56,-0.54 -0.56,-0.64 -0.56,-1.84 h 18.48 l 1.41,8.67 h -1.25 c -0.25,-1.5 -0.6,-3.69 -1.1,-4.44 -0.36,-0.39 -3.64,-0.39 -4.73,-0.39 z"
                 inkscape:connector-curvature="0"
                 style="fill:#000000;stroke-width:0;stroke-linecap:butt;stroke-linejoin:round" /></g></g></g><path
           sodipodi:nodetypes="cccc"
           inkscape:connector-curvature="0"
           id="path2286"
           d="M -440.00362,434.55337 V 391.87588 H 424.14294 V 434.6457"
           style="fill:none;stroke:#000000;stroke-width:1.53120399px;stroke-linecap:butt;stroke-linejoin:miter;stroke-opacity:1" /><path
           sodipodi:nodetypes="cc"
           inkscape:connector-curvature="0"
           id="path2288"
           d="M -9.2223219,434.34278 V 392.28646"
           style="fill:none;stroke:#000000;stroke-width:1.53120399px;stroke-linecap:butt;stroke-linejoin:miter;stroke-opacity:1" /></g></g>  </g>
  <path
     sodipodi:nodetypes="cc"
     inkscape:connector-curvature="0"
     id="path6264-5"
     d="m 447.11121,58.749037 h 44.18174"
     style="fill:none;stroke:#000000;stroke-width:2.25;stroke-linecap:butt;stroke-linejoin:miter;stroke-miterlimit:4;stroke-dasharray:none;stroke-opacity:1;marker-end:url(#Arrow2Mend-5)" />
  <path
     sodipodi:nodetypes="cc"
     inkscape:connector-curvature="0"
     id="path6247-36"
     d="M 216.39445,63.040653 V 125.1728"
     style="fill:none;stroke:#000000;stroke-width:1.27499998;stroke-linecap:butt;stroke-linejoin:miter;stroke-miterlimit:4;stroke-dasharray:none;stroke-opacity:1" />
  <path
     sodipodi:nodetypes="cc"
     inkscape:connector-curvature="0"
     id="path6247-36-7"
     d="M 322.74582,69.512476 V 125.1728"
     style="fill:none;stroke:#000000;stroke-width:1.27499998;stroke-linecap:butt;stroke-linejoin:miter;stroke-miterlimit:4;stroke-dasharray:none;stroke-opacity:1" />
  <circle
     style="opacity:1;vector-effect:none;fill:#000000;fill-opacity:1;stroke:none;stroke-width:2.25;stroke-linecap:round;stroke-linejoin:round;stroke-miterlimit:4;stroke-dasharray:none;stroke-dashoffset:0;stroke-opacity:1"
     id="path2229"
     cx="216.39445"
     cy="115.90441"
     r="4.206686" />
  <circle
     style="opacity:1;vector-effect:none;fill:#000000;fill-opacity:1;stroke:none;stroke-width:2.25000024;stroke-linecap:round;stroke-linejoin:round;stroke-miterlimit:4;stroke-dasharray:none;stroke-dashoffset:0;stroke-opacity:1"
     id="path2229-1"
     cx="322.74582"
     cy="115.90441"
     r="4.206686" />
</svg>
