<?xml version="1.0" encoding="utf-8" standalone="no"?>
<!DOCTYPE svg PUBLIC "-//W3C//DTD SVG 1.1//EN"
  "http://www.w3.org/Graphics/SVG/1.1/DTD/svg11.dtd">
<svg xmlns:xlink="http://www.w3.org/1999/xlink" width="504pt" height="360pt" viewBox="0 0 504 360" xmlns="http://www.w3.org/2000/svg" version="1.1">
 <metadata>
  <rdf:RDF xmlns:dc="http://purl.org/dc/elements/1.1/" xmlns:cc="http://creativecommons.org/ns#" xmlns:rdf="http://www.w3.org/1999/02/22-rdf-syntax-ns#">
   <cc:Work>
    <dc:type rdf:resource="http://purl.org/dc/dcmitype/StillImage"/>
    <dc:date>2026-01-17T11:08:48.235410</dc:date>
    <dc:format>image/svg+xml</dc:format>
    <dc:creator>
     <cc:Agent>
      <dc:title>Matplotlib v3.10.8, https://matplotlib.org/</dc:title>
     </cc:Agent>
    </dc:creator>
   </cc:Work>
  </rdf:RDF>
 </metadata>
 <defs>
  <style type="text/css">*{stroke-linejoin: round; stroke-linecap: butt}</style>
 </defs>
 <g id="figure_1">
  <g id="patch_1">
   <path d="M 0 360 
L 504 360 
L 504 0 
L 0 0 
z
" style="fill: #ffffff"/>
  </g>
  <g id="axes_1">
   <g id="patch_2">
    <path d="M 51.536 318.04 
L 485.28 318.04 
L 485.28 14.76 
L 51.536 14.76 
z
" style="fill: #ffffff"/>
   </g>
   <g id="matplotlib.axis_1">
    <g id="xtick_1">
     <g id="line2d_1">
      <defs>
       <path id="m9725436069" d="M 0 0 
L 0 3.5 
" style="stroke: #000000; stroke-width: 0.8"/>
      </defs>
      <g>
       <use xlink:href="#m9725436069" x="51.536" y="318.04" style="stroke: #000000; stroke-width: 0.8"/>
      </g>
     </g>
     <g id="text_1">
      <!-- 0.0 -->
      <g transform="translate(43.584438 332.638438) scale(0.1 -0.1)">
       <defs>
        <path id="DejaVuSans-30" d="M 2034 4250 
Q 1547 4250 1301 3770 
Q 1056 3291 1056 2328 
Q 1056 1369 1301 889 
Q 1547 409 2034 409 
Q 2525 409 2770 889 
Q 3016 1369 3016 2328 
Q 3016 3291 2770 3770 
Q 2525 4250 2034 4250 
z
M 2034 4750 
Q 2819 4750 3233 4129 
Q 3647 3509 3647 2328 
Q 3647 1150 3233 529 
Q 2819 -91 2034 -91 
Q 1250 -91 836 529 
Q 422 1150 422 2328 
Q 422 3509 836 4129 
Q 1250 4750 2034 4750 
z
" transform="scale(0.015625)"/>
        <path id="DejaVuSans-2e" d="M 684 794 
L 1344 794 
L 1344 0 
L 684 0 
L 684 794 
z
" transform="scale(0.015625)"/>
       </defs>
       <use xlink:href="#DejaVuSans-30"/>
       <use xlink:href="#DejaVuSans-2e" transform="translate(63.623047 0)"/>
       <use xlink:href="#DejaVuSans-30" transform="translate(95.410156 0)"/>
      </g>
     </g>
    </g>
    <g id="xtick_2">
     <g id="line2d_2">
      <g>
       <use xlink:href="#m9725436069" x="138.2848" y="318.04" style="stroke: #000000; stroke-width: 0.8"/>
      </g>
     </g>
     <g id="text_2">
      <!-- 0.2 -->
      <g transform="translate(130.333238 332.638438) scale(0.1 -0.1)">
       <defs>
        <path id="DejaVuSans-32" d="M 1228 531 
L 3431 531 
L 3431 0 
L 469 0 
L 469 531 
Q 828 903 1448 1529 
Q 2069 2156 2228 2338 
Q 2531 2678 2651 2914 
Q 2772 3150 2772 3378 
Q 2772 3750 2511 3984 
Q 2250 4219 1831 4219 
Q 1534 4219 1204 4116 
Q 875 4013 500 3803 
L 500 4441 
Q 881 4594 1212 4672 
Q 1544 4750 1819 4750 
Q 2544 4750 2975 4387 
Q 3406 4025 3406 3419 
Q 3406 3131 3298 2873 
Q 3191 2616 2906 2266 
Q 2828 2175 2409 1742 
Q 1991 1309 1228 531 
z
" transform="scale(0.015625)"/>
       </defs>
       <use xlink:href="#DejaVuSans-30"/>
       <use xlink:href="#DejaVuSans-2e" transform="translate(63.623047 0)"/>
       <use xlink:href="#DejaVuSans-32" transform="translate(95.410156 0)"/>
      </g>
     </g>
    </g>
    <g id="xtick_3">
     <g id="line2d_3">
      <g>
       <use xlink:href="#m9725436069" x="225.0336" y="318.04" style="stroke: #000000; stroke-width: 0.8"/>
      </g>
     </g>
     <g id="text_3">
      <!-- 0.4 -->
      <g transform="translate(217.082038 332.638438) scale(0.1 -0.1)">
       <defs>
        <path id="DejaVuSans-34" d="M 2419 4116 
L 825 1625 
L 2419 1625 
L 2419 4116 
z
M 2253 4666 
L 3047 4666 
L 3047 1625 
L 3713 1625 
L 3713 1100 
L 3047 1100 
L 3047 0 
L 2419 0 
L 2419 1100 
L 313 1100 
L 313 1709 
L 2253 4666 
z
" transform="scale(0.015625)"/>
       </defs>
       <use xlink:href="#DejaVuSans-30"/>
       <use xlink:href="#DejaVuSans-2e" transform="translate(63.623047 0)"/>
       <use xlink:href="#DejaVuSans-34" transform="translate(95.410156 0)"/>
      </g>
     </g>
    </g>
    <g id="xtick_4">
     <g id="line2d_4">
      <g>
       <use xlink:href="#m9725436069" x="311.7824" y="318.04" style="stroke: #000000; stroke-width: 0.8"/>
      </g>
     </g>
     <g id="text_4">
      <!-- 0.6 -->
      <g transform="translate(303.830837 332.638438) scale(0.1 -0.1)">
       <defs>
        <path id="DejaVuSans-36" d="M 2113 2584 
Q 1688 2584 1439 2293 
Q 1191 2003 1191 1497 
Q 1191 994 1439 701 
Q 1688 409 2113 409 
Q 2538 409 2786 701 
Q 3034 994 3034 1497 
Q 3034 2003 2786 2293 
Q 2538 2584 2113 2584 
z
M 3366 4563 
L 3366 3988 
Q 3128 4100 2886 4159 
Q 2644 4219 2406 4219 
Q 1781 4219 1451 3797 
Q 1122 3375 1075 2522 
Q 1259 2794 1537 2939 
Q 1816 3084 2150 3084 
Q 2853 3084 3261 2657 
Q 3669 2231 3669 1497 
Q 3669 778 3244 343 
Q 2819 -91 2113 -91 
Q 1303 -91 875 529 
Q 447 1150 447 2328 
Q 447 3434 972 4092 
Q 1497 4750 2381 4750 
Q 2619 4750 2861 4703 
Q 3103 4656 3366 4563 
z
" transform="scale(0.015625)"/>
       </defs>
       <use xlink:href="#DejaVuSans-30"/>
       <use xlink:href="#DejaVuSans-2e" transform="translate(63.623047 0)"/>
       <use xlink:href="#DejaVuSans-36" transform="translate(95.410156 0)"/>
      </g>
     </g>
    </g>
    <g id="xtick_5">
     <g id="line2d_5">
      <g>
       <use xlink:href="#m9725436069" x="398.5312" y="318.04" style="stroke: #000000; stroke-width: 0.8"/>
      </g>
     </g>
     <g id="text_5">
      <!-- 0.8 -->
      <g transform="translate(390.579637 332.638438) scale(0.1 -0.1)">
       <defs>
        <path id="DejaVuSans-38" d="M 2034 2216 
Q 1584 2216 1326 1975 
Q 1069 1734 1069 1313 
Q 1069 891 1326 650 
Q 1584 409 2034 409 
Q 2484 409 2743 651 
Q 3003 894 3003 1313 
Q 3003 1734 2745 1975 
Q 2488 2216 2034 2216 
z
M 1403 2484 
Q 997 2584 770 2862 
Q 544 3141 544 3541 
Q 544 4100 942 4425 
Q 1341 4750 2034 4750 
Q 2731 4750 3128 4425 
Q 3525 4100 3525 3541 
Q 3525 3141 3298 2862 
Q 3072 2584 2669 2484 
Q 3125 2378 3379 2068 
Q 3634 1759 3634 1313 
Q 3634 634 3220 271 
Q 2806 -91 2034 -91 
Q 1263 -91 848 271 
Q 434 634 434 1313 
Q 434 1759 690 2068 
Q 947 2378 1403 2484 
z
M 1172 3481 
Q 1172 3119 1398 2916 
Q 1625 2713 2034 2713 
Q 2441 2713 2670 2916 
Q 2900 3119 2900 3481 
Q 2900 3844 2670 4047 
Q 2441 4250 2034 4250 
Q 1625 4250 1398 4047 
Q 1172 3844 1172 3481 
z
" transform="scale(0.015625)"/>
       </defs>
       <use xlink:href="#DejaVuSans-30"/>
       <use xlink:href="#DejaVuSans-2e" transform="translate(63.623047 0)"/>
       <use xlink:href="#DejaVuSans-38" transform="translate(95.410156 0)"/>
      </g>
     </g>
    </g>
    <g id="xtick_6">
     <g id="line2d_6">
      <g>
       <use xlink:href="#m9725436069" x="485.28" y="318.04" style="stroke: #000000; stroke-width: 0.8"/>
      </g>
     </g>
     <g id="text_6">
      <!-- 1.0 -->
      <g transform="translate(477.328437 332.638438) scale(0.1 -0.1)">
       <defs>
        <path id="DejaVuSans-31" d="M 794 531 
L 1825 531 
L 1825 4091 
L 703 3866 
L 703 4441 
L 1819 4666 
L 2450 4666 
L 2450 531 
L 3481 531 
L 3481 0 
L 794 0 
L 794 531 
z
" transform="scale(0.015625)"/>
       </defs>
       <use xlink:href="#DejaVuSans-31"/>
       <use xlink:href="#DejaVuSans-2e" transform="translate(63.623047 0)"/>
       <use xlink:href="#DejaVuSans-30" transform="translate(95.410156 0)"/>
      </g>
     </g>
    </g>
    <g id="text_7">
     <!-- x/L -->
     <g transform="translate(260.978313 346.316563) scale(0.1 -0.1)">
      <defs>
       <path id="DejaVuSans-78" d="M 3513 3500 
L 2247 1797 
L 3578 0 
L 2900 0 
L 1881 1375 
L 863 0 
L 184 0 
L 1544 1831 
L 300 3500 
L 978 3500 
L 1906 2253 
L 2834 3500 
L 3513 3500 
z
" transform="scale(0.015625)"/>
       <path id="DejaVuSans-2f" d="M 1625 4666 
L 2156 4666 
L 531 -594 
L 0 -594 
L 1625 4666 
z
" transform="scale(0.015625)"/>
       <path id="DejaVuSans-4c" d="M 628 4666 
L 1259 4666 
L 1259 531 
L 3531 531 
L 3531 0 
L 628 0 
L 628 4666 
z
" transform="scale(0.015625)"/>
      </defs>
      <use xlink:href="#DejaVuSans-78"/>
      <use xlink:href="#DejaVuSans-2f" transform="translate(59.179688 0)"/>
      <use xlink:href="#DejaVuSans-4c" transform="translate(92.871094 0)"/>
     </g>
    </g>
   </g>
   <g id="matplotlib.axis_2">
    <g id="ytick_1">
     <g id="line2d_7">
      <defs>
       <path id="m39fbfb7f1d" d="M 0 0 
L -3.5 0 
" style="stroke: #000000; stroke-width: 0.8"/>
      </defs>
      <g>
       <use xlink:href="#m39fbfb7f1d" x="51.536" y="318.04" style="stroke: #000000; stroke-width: 0.8"/>
      </g>
     </g>
     <g id="text_8">
      <!-- 0.0 -->
      <g transform="translate(28.632875 321.839219) scale(0.1 -0.1)">
       <use xlink:href="#DejaVuSans-30"/>
       <use xlink:href="#DejaVuSans-2e" transform="translate(63.623047 0)"/>
       <use xlink:href="#DejaVuSans-30" transform="translate(95.410156 0)"/>
      </g>
     </g>
    </g>
    <g id="ytick_2">
     <g id="line2d_8">
      <g>
       <use xlink:href="#m39fbfb7f1d" x="51.536" y="280.13" style="stroke: #000000; stroke-width: 0.8"/>
      </g>
     </g>
     <g id="text_9">
      <!-- 0.5 -->
      <g transform="translate(28.632875 283.929219) scale(0.1 -0.1)">
       <defs>
        <path id="DejaVuSans-35" d="M 691 4666 
L 3169 4666 
L 3169 4134 
L 1269 4134 
L 1269 2991 
Q 1406 3038 1543 3061 
Q 1681 3084 1819 3084 
Q 2600 3084 3056 2656 
Q 3513 2228 3513 1497 
Q 3513 744 3044 326 
Q 2575 -91 1722 -91 
Q 1428 -91 1123 -41 
Q 819 9 494 109 
L 494 744 
Q 775 591 1075 516 
Q 1375 441 1709 441 
Q 2250 441 2565 725 
Q 2881 1009 2881 1497 
Q 2881 1984 2565 2268 
Q 2250 2553 1709 2553 
Q 1456 2553 1204 2497 
Q 953 2441 691 2322 
L 691 4666 
z
" transform="scale(0.015625)"/>
       </defs>
       <use xlink:href="#DejaVuSans-30"/>
       <use xlink:href="#DejaVuSans-2e" transform="translate(63.623047 0)"/>
       <use xlink:href="#DejaVuSans-35" transform="translate(95.410156 0)"/>
      </g>
     </g>
    </g>
    <g id="ytick_3">
     <g id="line2d_9">
      <g>
       <use xlink:href="#m39fbfb7f1d" x="51.536" y="242.22" style="stroke: #000000; stroke-width: 0.8"/>
      </g>
     </g>
     <g id="text_10">
      <!-- 1.0 -->
      <g transform="translate(28.632875 246.019219) scale(0.1 -0.1)">
       <use xlink:href="#DejaVuSans-31"/>
       <use xlink:href="#DejaVuSans-2e" transform="translate(63.623047 0)"/>
       <use xlink:href="#DejaVuSans-30" transform="translate(95.410156 0)"/>
      </g>
     </g>
    </g>
    <g id="ytick_4">
     <g id="line2d_10">
      <g>
       <use xlink:href="#m39fbfb7f1d" x="51.536" y="204.31" style="stroke: #000000; stroke-width: 0.8"/>
      </g>
     </g>
     <g id="text_11">
      <!-- 1.5 -->
      <g transform="translate(28.632875 208.109219) scale(0.1 -0.1)">
       <use xlink:href="#DejaVuSans-31"/>
       <use xlink:href="#DejaVuSans-2e" transform="translate(63.623047 0)"/>
       <use xlink:href="#DejaVuSans-35" transform="translate(95.410156 0)"/>
      </g>
     </g>
    </g>
    <g id="ytick_5">
     <g id="line2d_11">
      <g>
       <use xlink:href="#m39fbfb7f1d" x="51.536" y="166.4" style="stroke: #000000; stroke-width: 0.8"/>
      </g>
     </g>
     <g id="text_12">
      <!-- 2.0 -->
      <g transform="translate(28.632875 170.199219) scale(0.1 -0.1)">
       <use xlink:href="#DejaVuSans-32"/>
       <use xlink:href="#DejaVuSans-2e" transform="translate(63.623047 0)"/>
       <use xlink:href="#DejaVuSans-30" transform="translate(95.410156 0)"/>
      </g>
     </g>
    </g>
    <g id="ytick_6">
     <g id="line2d_12">
      <g>
       <use xlink:href="#m39fbfb7f1d" x="51.536" y="128.49" style="stroke: #000000; stroke-width: 0.8"/>
      </g>
     </g>
     <g id="text_13">
      <!-- 2.5 -->
      <g transform="translate(28.632875 132.289219) scale(0.1 -0.1)">
       <use xlink:href="#DejaVuSans-32"/>
       <use xlink:href="#DejaVuSans-2e" transform="translate(63.623047 0)"/>
       <use xlink:href="#DejaVuSans-35" transform="translate(95.410156 0)"/>
      </g>
     </g>
    </g>
    <g id="ytick_7">
     <g id="line2d_13">
      <g>
       <use xlink:href="#m39fbfb7f1d" x="51.536" y="90.58" style="stroke: #000000; stroke-width: 0.8"/>
      </g>
     </g>
     <g id="text_14">
      <!-- 3.0 -->
      <g transform="translate(28.632875 94.379219) scale(0.1 -0.1)">
       <defs>
        <path id="DejaVuSans-33" d="M 2597 2516 
Q 3050 2419 3304 2112 
Q 3559 1806 3559 1356 
Q 3559 666 3084 287 
Q 2609 -91 1734 -91 
Q 1441 -91 1130 -33 
Q 819 25 488 141 
L 488 750 
Q 750 597 1062 519 
Q 1375 441 1716 441 
Q 2309 441 2620 675 
Q 2931 909 2931 1356 
Q 2931 1769 2642 2001 
Q 2353 2234 1838 2234 
L 1294 2234 
L 1294 2753 
L 1863 2753 
Q 2328 2753 2575 2939 
Q 2822 3125 2822 3475 
Q 2822 3834 2567 4026 
Q 2313 4219 1838 4219 
Q 1578 4219 1281 4162 
Q 984 4106 628 3988 
L 628 4550 
Q 988 4650 1302 4700 
Q 1616 4750 1894 4750 
Q 2613 4750 3031 4423 
Q 3450 4097 3450 3541 
Q 3450 3153 3228 2886 
Q 3006 2619 2597 2516 
z
" transform="scale(0.015625)"/>
       </defs>
       <use xlink:href="#DejaVuSans-33"/>
       <use xlink:href="#DejaVuSans-2e" transform="translate(63.623047 0)"/>
       <use xlink:href="#DejaVuSans-30" transform="translate(95.410156 0)"/>
      </g>
     </g>
    </g>
    <g id="ytick_8">
     <g id="line2d_14">
      <g>
       <use xlink:href="#m39fbfb7f1d" x="51.536" y="52.67" style="stroke: #000000; stroke-width: 0.8"/>
      </g>
     </g>
     <g id="text_15">
      <!-- 3.5 -->
      <g transform="translate(28.632875 56.469219) scale(0.1 -0.1)">
       <use xlink:href="#DejaVuSans-33"/>
       <use xlink:href="#DejaVuSans-2e" transform="translate(63.623047 0)"/>
       <use xlink:href="#DejaVuSans-35" transform="translate(95.410156 0)"/>
      </g>
     </g>
    </g>
    <g id="ytick_9">
     <g id="line2d_15">
      <g>
       <use xlink:href="#m39fbfb7f1d" x="51.536" y="14.76" style="stroke: #000000; stroke-width: 0.8"/>
      </g>
     </g>
     <g id="text_16">
      <!-- 4.0 -->
      <g transform="translate(28.632875 18.559219) scale(0.1 -0.1)">
       <use xlink:href="#DejaVuSans-34"/>
       <use xlink:href="#DejaVuSans-2e" transform="translate(63.623047 0)"/>
       <use xlink:href="#DejaVuSans-30" transform="translate(95.410156 0)"/>
      </g>
     </g>
    </g>
    <g id="text_17">
     <!-- Deflection Ratio, $v_{spring}/v_{rigid}$ -->
     <g transform="translate(21.532875 236.2) rotate(-90) scale(0.1 -0.1)">
      <defs>
       <path id="DejaVuSans-44" d="M 1259 4147 
L 1259 519 
L 2022 519 
Q 2988 519 3436 956 
Q 3884 1394 3884 2338 
Q 3884 3275 3436 3711 
Q 2988 4147 2022 4147 
L 1259 4147 
z
M 628 4666 
L 1925 4666 
Q 3281 4666 3915 4102 
Q 4550 3538 4550 2338 
Q 4550 1131 3912 565 
Q 3275 0 1925 0 
L 628 0 
L 628 4666 
z
" transform="scale(0.015625)"/>
       <path id="DejaVuSans-65" d="M 3597 1894 
L 3597 1613 
L 953 1613 
Q 991 1019 1311 708 
Q 1631 397 2203 397 
Q 2534 397 2845 478 
Q 3156 559 3463 722 
L 3463 178 
Q 3153 47 2828 -22 
Q 2503 -91 2169 -91 
Q 1331 -91 842 396 
Q 353 884 353 1716 
Q 353 2575 817 3079 
Q 1281 3584 2069 3584 
Q 2775 3584 3186 3129 
Q 3597 2675 3597 1894 
z
M 3022 2063 
Q 3016 2534 2758 2815 
Q 2500 3097 2075 3097 
Q 1594 3097 1305 2825 
Q 1016 2553 972 2059 
L 3022 2063 
z
" transform="scale(0.015625)"/>
       <path id="DejaVuSans-66" d="M 2375 4863 
L 2375 4384 
L 1825 4384 
Q 1516 4384 1395 4259 
Q 1275 4134 1275 3809 
L 1275 3500 
L 2222 3500 
L 2222 3053 
L 1275 3053 
L 1275 0 
L 697 0 
L 697 3053 
L 147 3053 
L 147 3500 
L 697 3500 
L 697 3744 
Q 697 4328 969 4595 
Q 1241 4863 1831 4863 
L 2375 4863 
z
" transform="scale(0.015625)"/>
       <path id="DejaVuSans-6c" d="M 603 4863 
L 1178 4863 
L 1178 0 
L 603 0 
L 603 4863 
z
" transform="scale(0.015625)"/>
       <path id="DejaVuSans-63" d="M 3122 3366 
L 3122 2828 
Q 2878 2963 2633 3030 
Q 2388 3097 2138 3097 
Q 1578 3097 1268 2742 
Q 959 2388 959 1747 
Q 959 1106 1268 751 
Q 1578 397 2138 397 
Q 2388 397 2633 464 
Q 2878 531 3122 666 
L 3122 134 
Q 2881 22 2623 -34 
Q 2366 -91 2075 -91 
Q 1284 -91 818 406 
Q 353 903 353 1747 
Q 353 2603 823 3093 
Q 1294 3584 2113 3584 
Q 2378 3584 2631 3529 
Q 2884 3475 3122 3366 
z
" transform="scale(0.015625)"/>
       <path id="DejaVuSans-74" d="M 1172 4494 
L 1172 3500 
L 2356 3500 
L 2356 3053 
L 1172 3053 
L 1172 1153 
Q 1172 725 1289 603 
Q 1406 481 1766 481 
L 2356 481 
L 2356 0 
L 1766 0 
Q 1100 0 847 248 
Q 594 497 594 1153 
L 594 3053 
L 172 3053 
L 172 3500 
L 594 3500 
L 594 4494 
L 1172 4494 
z
" transform="scale(0.015625)"/>
       <path id="DejaVuSans-69" d="M 603 3500 
L 1178 3500 
L 1178 0 
L 603 0 
L 603 3500 
z
M 603 4863 
L 1178 4863 
L 1178 4134 
L 603 4134 
L 603 4863 
z
" transform="scale(0.015625)"/>
       <path id="DejaVuSans-6f" d="M 1959 3097 
Q 1497 3097 1228 2736 
Q 959 2375 959 1747 
Q 959 1119 1226 758 
Q 1494 397 1959 397 
Q 2419 397 2687 759 
Q 2956 1122 2956 1747 
Q 2956 2369 2687 2733 
Q 2419 3097 1959 3097 
z
M 1959 3584 
Q 2709 3584 3137 3096 
Q 3566 2609 3566 1747 
Q 3566 888 3137 398 
Q 2709 -91 1959 -91 
Q 1206 -91 779 398 
Q 353 888 353 1747 
Q 353 2609 779 3096 
Q 1206 3584 1959 3584 
z
" transform="scale(0.015625)"/>
       <path id="DejaVuSans-6e" d="M 3513 2113 
L 3513 0 
L 2938 0 
L 2938 2094 
Q 2938 2591 2744 2837 
Q 2550 3084 2163 3084 
Q 1697 3084 1428 2787 
Q 1159 2491 1159 1978 
L 1159 0 
L 581 0 
L 581 3500 
L 1159 3500 
L 1159 2956 
Q 1366 3272 1645 3428 
Q 1925 3584 2291 3584 
Q 2894 3584 3203 3211 
Q 3513 2838 3513 2113 
z
" transform="scale(0.015625)"/>
       <path id="DejaVuSans-20" transform="scale(0.015625)"/>
       <path id="DejaVuSans-52" d="M 2841 2188 
Q 3044 2119 3236 1894 
Q 3428 1669 3622 1275 
L 4263 0 
L 3584 0 
L 2988 1197 
Q 2756 1666 2539 1819 
Q 2322 1972 1947 1972 
L 1259 1972 
L 1259 0 
L 628 0 
L 628 4666 
L 2053 4666 
Q 2853 4666 3247 4331 
Q 3641 3997 3641 3322 
Q 3641 2881 3436 2590 
Q 3231 2300 2841 2188 
z
M 1259 4147 
L 1259 2491 
L 2053 2491 
Q 2509 2491 2742 2702 
Q 2975 2913 2975 3322 
Q 2975 3731 2742 3939 
Q 2509 4147 2053 4147 
L 1259 4147 
z
" transform="scale(0.015625)"/>
       <path id="DejaVuSans-61" d="M 2194 1759 
Q 1497 1759 1228 1600 
Q 959 1441 959 1056 
Q 959 750 1161 570 
Q 1363 391 1709 391 
Q 2188 391 2477 730 
Q 2766 1069 2766 1631 
L 2766 1759 
L 2194 1759 
z
M 3341 1997 
L 3341 0 
L 2766 0 
L 2766 531 
Q 2569 213 2275 61 
Q 1981 -91 1556 -91 
Q 1019 -91 701 211 
Q 384 513 384 1019 
Q 384 1609 779 1909 
Q 1175 2209 1959 2209 
L 2766 2209 
L 2766 2266 
Q 2766 2663 2505 2880 
Q 2244 3097 1772 3097 
Q 1472 3097 1187 3025 
Q 903 2953 641 2809 
L 641 3341 
Q 956 3463 1253 3523 
Q 1550 3584 1831 3584 
Q 2591 3584 2966 3190 
Q 3341 2797 3341 1997 
z
" transform="scale(0.015625)"/>
       <path id="DejaVuSans-2c" d="M 750 794 
L 1409 794 
L 1409 256 
L 897 -744 
L 494 -744 
L 750 256 
L 750 794 
z
" transform="scale(0.015625)"/>
       <path id="DejaVuSans-Oblique-76" d="M 459 3500 
L 1069 3500 
L 1581 525 
L 3256 3500 
L 3866 3500 
L 1875 0 
L 1100 0 
L 459 3500 
z
" transform="scale(0.015625)"/>
       <path id="DejaVuSans-Oblique-73" d="M 3200 3397 
L 3091 2853 
Q 2863 2978 2609 3040 
Q 2356 3103 2088 3103 
Q 1634 3103 1373 2948 
Q 1113 2794 1113 2528 
Q 1113 2219 1719 2053 
Q 1766 2041 1788 2034 
L 1972 1978 
Q 2547 1819 2739 1644 
Q 2931 1469 2931 1166 
Q 2931 609 2489 259 
Q 2047 -91 1331 -91 
Q 1053 -91 747 -37 
Q 441 16 72 128 
L 184 722 
Q 500 559 806 475 
Q 1113 391 1394 391 
Q 1816 391 2080 572 
Q 2344 753 2344 1031 
Q 2344 1331 1650 1516 
L 1591 1531 
L 1394 1581 
Q 956 1697 753 1886 
Q 550 2075 550 2369 
Q 550 2928 970 3256 
Q 1391 3584 2113 3584 
Q 2397 3584 2667 3537 
Q 2938 3491 3200 3397 
z
" transform="scale(0.015625)"/>
       <path id="DejaVuSans-Oblique-70" d="M 3175 2156 
Q 3175 2616 2975 2859 
Q 2775 3103 2400 3103 
Q 2144 3103 1911 2972 
Q 1678 2841 1497 2591 
Q 1319 2344 1212 1994 
Q 1106 1644 1106 1300 
Q 1106 863 1306 627 
Q 1506 391 1875 391 
Q 2147 391 2380 519 
Q 2613 647 2778 891 
Q 2956 1147 3065 1494 
Q 3175 1841 3175 2156 
z
M 1394 2969 
Q 1625 3272 1939 3428 
Q 2253 3584 2638 3584 
Q 3175 3584 3472 3232 
Q 3769 2881 3769 2247 
Q 3769 1728 3584 1258 
Q 3400 788 3053 416 
Q 2822 169 2531 39 
Q 2241 -91 1919 -91 
Q 1547 -91 1294 64 
Q 1041 219 916 525 
L 556 -1331 
L -19 -1331 
L 922 3500 
L 1497 3500 
L 1394 2969 
z
" transform="scale(0.015625)"/>
       <path id="DejaVuSans-Oblique-72" d="M 2853 2969 
Q 2766 3016 2653 3041 
Q 2541 3066 2413 3066 
Q 1953 3066 1609 2717 
Q 1266 2369 1153 1784 
L 800 0 
L 225 0 
L 909 3500 
L 1484 3500 
L 1375 2956 
Q 1603 3259 1920 3421 
Q 2238 3584 2597 3584 
Q 2691 3584 2781 3573 
Q 2872 3563 2963 3538 
L 2853 2969 
z
" transform="scale(0.015625)"/>
       <path id="DejaVuSans-Oblique-69" d="M 1172 4863 
L 1747 4863 
L 1606 4134 
L 1031 4134 
L 1172 4863 
z
M 909 3500 
L 1484 3500 
L 800 0 
L 225 0 
L 909 3500 
z
" transform="scale(0.015625)"/>
       <path id="DejaVuSans-Oblique-6e" d="M 3566 2113 
L 3156 0 
L 2578 0 
L 2988 2091 
Q 3016 2238 3031 2350 
Q 3047 2463 3047 2528 
Q 3047 2791 2881 2937 
Q 2716 3084 2419 3084 
Q 1956 3084 1622 2776 
Q 1288 2469 1184 1941 
L 800 0 
L 225 0 
L 903 3500 
L 1478 3500 
L 1363 2950 
Q 1603 3253 1940 3418 
Q 2278 3584 2650 3584 
Q 3113 3584 3367 3334 
Q 3622 3084 3622 2631 
Q 3622 2519 3608 2391 
Q 3594 2263 3566 2113 
z
" transform="scale(0.015625)"/>
       <path id="DejaVuSans-Oblique-67" d="M 3816 3500 
L 3219 434 
Q 3047 -456 2561 -893 
Q 2075 -1331 1253 -1331 
Q 950 -1331 690 -1286 
Q 431 -1241 206 -1147 
L 313 -588 
Q 525 -725 762 -790 
Q 1000 -856 1269 -856 
Q 1816 -856 2167 -557 
Q 2519 -259 2631 300 
L 2681 563 
Q 2441 288 2122 144 
Q 1803 0 1434 0 
Q 903 0 598 351 
Q 294 703 294 1319 
Q 294 1803 478 2267 
Q 663 2731 997 3091 
Q 1219 3328 1514 3456 
Q 1809 3584 2131 3584 
Q 2484 3584 2746 3420 
Q 3009 3256 3138 2956 
L 3238 3500 
L 3816 3500 
z
M 2950 2216 
Q 2950 2641 2750 2872 
Q 2550 3103 2181 3103 
Q 1953 3103 1747 3012 
Q 1541 2922 1394 2759 
Q 1156 2491 1023 2127 
Q 891 1763 891 1375 
Q 891 944 1092 712 
Q 1294 481 1672 481 
Q 2219 481 2584 976 
Q 2950 1472 2950 2216 
z
" transform="scale(0.015625)"/>
       <path id="DejaVuSans-Oblique-64" d="M 2675 525 
Q 2444 222 2128 65 
Q 1813 -91 1428 -91 
Q 903 -91 598 267 
Q 294 625 294 1247 
Q 294 1766 478 2236 
Q 663 2706 1013 3078 
Q 1244 3325 1534 3454 
Q 1825 3584 2144 3584 
Q 2481 3584 2739 3421 
Q 2997 3259 3138 2956 
L 3513 4863 
L 4091 4863 
L 3144 0 
L 2566 0 
L 2675 525 
z
M 891 1350 
Q 891 897 1095 644 
Q 1300 391 1663 391 
Q 1931 391 2161 520 
Q 2391 650 2566 903 
Q 2750 1166 2856 1509 
Q 2963 1853 2963 2188 
Q 2963 2622 2758 2865 
Q 2553 3109 2194 3109 
Q 1922 3109 1687 2981 
Q 1453 2853 1288 2613 
Q 1106 2353 998 2009 
Q 891 1666 891 1350 
z
" transform="scale(0.015625)"/>
      </defs>
      <use xlink:href="#DejaVuSans-44" transform="translate(0 0.015625)"/>
      <use xlink:href="#DejaVuSans-65" transform="translate(77.001953 0.015625)"/>
      <use xlink:href="#DejaVuSans-66" transform="translate(138.525391 0.015625)"/>
      <use xlink:href="#DejaVuSans-6c" transform="translate(173.730469 0.015625)"/>
      <use xlink:href="#DejaVuSans-65" transform="translate(201.513672 0.015625)"/>
      <use xlink:href="#DejaVuSans-63" transform="translate(263.037109 0.015625)"/>
      <use xlink:href="#DejaVuSans-74" transform="translate(318.017578 0.015625)"/>
      <use xlink:href="#DejaVuSans-69" transform="translate(357.226562 0.015625)"/>
      <use xlink:href="#DejaVuSans-6f" transform="translate(385.009766 0.015625)"/>
      <use xlink:href="#DejaVuSans-6e" transform="translate(446.191406 0.015625)"/>
      <use xlink:href="#DejaVuSans-20" transform="translate(509.570312 0.015625)"/>
      <use xlink:href="#DejaVuSans-52" transform="translate(541.357422 0.015625)"/>
      <use xlink:href="#DejaVuSans-61" transform="translate(610.839844 0.015625)"/>
      <use xlink:href="#DejaVuSans-74" transform="translate(672.119141 0.015625)"/>
      <use xlink:href="#DejaVuSans-69" transform="translate(711.328125 0.015625)"/>
      <use xlink:href="#DejaVuSans-6f" transform="translate(739.111328 0.015625)"/>
      <use xlink:href="#DejaVuSans-2c" transform="translate(800.292969 0.015625)"/>
      <use xlink:href="#DejaVuSans-20" transform="translate(832.080078 0.015625)"/>
      <use xlink:href="#DejaVuSans-Oblique-76" transform="translate(863.867188 0.015625)"/>
      <use xlink:href="#DejaVuSans-Oblique-73" transform="translate(923.046875 -16.390625) scale(0.7)"/>
      <use xlink:href="#DejaVuSans-Oblique-70" transform="translate(959.516602 -16.390625) scale(0.7)"/>
      <use xlink:href="#DejaVuSans-Oblique-72" transform="translate(1003.950195 -16.390625) scale(0.7)"/>
      <use xlink:href="#DejaVuSans-Oblique-69" transform="translate(1032.729492 -16.390625) scale(0.7)"/>
      <use xlink:href="#DejaVuSans-Oblique-6e" transform="translate(1052.177734 -16.390625) scale(0.7)"/>
      <use xlink:href="#DejaVuSans-Oblique-67" transform="translate(1096.542969 -16.390625) scale(0.7)"/>
      <use xlink:href="#DejaVuSans-2f" transform="translate(1143.710938 0.015625)"/>
      <use xlink:href="#DejaVuSans-Oblique-76" transform="translate(1177.402344 0.015625)"/>
      <use xlink:href="#DejaVuSans-Oblique-72" transform="translate(1236.582031 -16.390625) scale(0.7)"/>
      <use xlink:href="#DejaVuSans-Oblique-69" transform="translate(1265.361328 -16.390625) scale(0.7)"/>
      <use xlink:href="#DejaVuSans-Oblique-67" transform="translate(1284.80957 -16.390625) scale(0.7)"/>
      <use xlink:href="#DejaVuSans-Oblique-69" transform="translate(1329.243164 -16.390625) scale(0.7)"/>
      <use xlink:href="#DejaVuSans-Oblique-64" transform="translate(1348.691406 -16.390625) scale(0.7)"/>
     </g>
    </g>
   </g>
   <g id="line2d_16">
    <path d="M 181.756478 -1 
L 183.275882 3.773813 
L 187.652753 16.28751 
L 192.029625 27.710734 
L 196.406496 38.169445 
L 200.783367 47.771735 
L 205.160239 56.610805 
L 209.53711 64.767369 
L 213.913981 72.311622 
L 218.290852 79.304855 
L 222.667724 85.80078 
L 227.044595 91.84664 
L 231.421466 97.484122 
L 235.798337 102.750132 
L 240.175209 107.677441 
L 244.55208 112.295232 
L 248.928951 116.629565 
L 253.305823 120.703774 
L 257.682694 124.538801 
L 262.059565 128.15349 
L 266.436436 131.564834 
L 270.813308 134.788191 
L 275.190179 137.837472 
L 279.56705 140.725302 
L 283.943921 143.463158 
L 288.320793 146.0615 
L 292.697664 148.529871 
L 297.074535 150.876997 
L 301.451407 153.11087 
L 305.828278 155.238818 
L 310.205149 157.267575 
L 314.58202 159.203335 
L 318.958892 161.051807 
L 323.335763 162.818257 
L 327.712634 164.50755 
L 332.089505 166.124187 
L 336.466377 167.672338 
L 340.843248 169.155869 
L 345.220119 170.57837 
L 349.596991 171.94318 
L 353.973862 173.253402 
L 358.350733 174.511932 
L 362.727604 175.721467 
L 367.104476 176.884526 
L 371.481347 178.003463 
L 375.858218 179.08048 
L 380.235089 180.117639 
L 384.611961 181.116869 
L 388.988832 182.079984 
L 393.365703 183.008684 
L 397.742575 183.904565 
L 402.119446 184.769131 
L 406.496317 185.603795 
L 410.873188 186.409887 
L 415.25006 187.188661 
L 419.626931 187.941302 
L 424.003802 188.668924 
L 428.380673 189.372582 
L 432.757545 190.053271 
L 437.134416 190.711935 
L 441.511287 191.349464 
L 445.888159 191.966702 
L 450.26503 192.564448 
L 454.641901 193.143461 
L 459.018772 193.704457 
L 463.395644 194.248121 
L 467.772515 194.775098 
L 472.149386 195.286004 
L 476.526257 195.781424 
L 480.903129 196.261913 
L 485.28 196.728 
" clip-path="url(#p2f0bd5be9b)" style="fill: none; stroke: #fee838; stroke-width: 1.5; stroke-linecap: square"/>
   </g>
   <g id="line2d_17">
    <path d="M 87.795595 -1 
L 91.361585 39.635404 
L 95.738457 75.670652 
L 100.115328 102.581047 
L 104.492199 123.227566 
L 108.869071 139.428749 
L 113.245942 152.385998 
L 117.622813 162.919233 
L 121.999684 171.603783 
L 126.376556 178.853161 
L 130.753427 184.970875 
L 135.130298 190.183842 
L 139.507169 194.664522 
L 143.884041 198.545923 
L 148.260912 201.931984 
L 152.637783 204.904904 
L 157.014655 207.530395 
L 161.391526 209.861512 
L 165.768397 211.941477 
L 170.145268 213.805799 
L 174.52214 215.483875 
L 178.899011 217.000213 
L 183.275882 218.375381 
L 187.652753 219.626751 
L 192.029625 220.769073 
L 196.406496 221.814944 
L 200.783367 222.775174 
L 205.160239 223.659081 
L 209.53711 224.474737 
L 213.913981 225.229162 
L 218.290852 225.928485 
L 222.667724 226.578078 
L 227.044595 227.182664 
L 231.421466 227.746412 
L 235.798337 228.273013 
L 240.175209 228.765744 
L 244.55208 229.227523 
L 248.928951 229.660957 
L 253.305823 230.068377 
L 257.682694 230.45188 
L 262.059565 230.813349 
L 266.436436 231.154483 
L 270.813308 231.476819 
L 275.190179 231.781747 
L 279.56705 232.07053 
L 283.943921 232.344316 
L 288.320793 232.60415 
L 292.697664 232.850987 
L 297.074535 233.0857 
L 301.451407 233.309087 
L 305.828278 233.521882 
L 310.205149 233.724757 
L 314.58202 233.918334 
L 318.958892 234.103181 
L 323.335763 234.279826 
L 327.712634 234.448755 
L 332.089505 234.610419 
L 336.466377 234.765234 
L 340.843248 234.913587 
L 345.220119 235.055837 
L 349.596991 235.192318 
L 353.973862 235.32334 
L 358.350733 235.449193 
L 362.727604 235.570147 
L 367.104476 235.686453 
L 371.481347 235.798346 
L 375.858218 235.906048 
L 380.235089 236.009764 
L 384.611961 236.109687 
L 388.988832 236.205998 
L 393.365703 236.298868 
L 397.742575 236.388457 
L 402.119446 236.474913 
L 406.496317 236.558379 
L 410.873188 236.638989 
L 415.25006 236.716866 
L 419.626931 236.79213 
L 424.003802 236.864892 
L 428.380673 236.935258 
L 432.757545 237.003327 
L 437.134416 237.069194 
L 441.511287 237.132946 
L 445.888159 237.19467 
L 450.26503 237.254445 
L 454.641901 237.312346 
L 459.018772 237.368446 
L 463.395644 237.422812 
L 467.772515 237.47551 
L 472.149386 237.5266 
L 476.526257 237.576142 
L 480.903129 237.624191 
L 485.28 237.6708 
" clip-path="url(#p2f0bd5be9b)" style="fill: none; stroke: #c8b866; stroke-width: 1.5; stroke-linecap: square"/>
   </g>
   <g id="line2d_18">
    <path d="M 63.179441 -1 
L 65.100358 80.632878 
L 69.477229 148.63453 
L 73.8541 180.946849 
L 78.230972 198.832694 
L 82.607843 209.779286 
L 86.984714 216.97398 
L 91.361585 221.96154 
L 95.738457 225.565065 
L 100.115328 228.256105 
L 104.492199 230.320757 
L 108.869071 231.940875 
L 113.245942 233.2366 
L 117.622813 234.289923 
L 121.999684 235.158378 
L 126.376556 235.883316 
L 130.753427 236.495088 
L 135.130298 237.016384 
L 139.507169 237.464452 
L 143.884041 237.852592 
L 148.260912 238.191198 
L 152.637783 238.48849 
L 157.014655 238.75104 
L 161.391526 238.984151 
L 165.768397 239.192148 
L 170.145268 239.37858 
L 174.52214 239.546388 
L 178.899011 239.698021 
L 183.275882 239.835538 
L 187.652753 239.960675 
L 192.029625 240.074907 
L 196.406496 240.179494 
L 200.783367 240.275517 
L 205.160239 240.363908 
L 209.53711 240.445474 
L 213.913981 240.520916 
L 218.290852 240.590849 
L 222.667724 240.655808 
L 227.044595 240.716266 
L 231.421466 240.772641 
L 235.798337 240.825301 
L 240.175209 240.874574 
L 244.55208 240.920752 
L 248.928951 240.964096 
L 253.305823 241.004838 
L 257.682694 241.043188 
L 262.059565 241.079335 
L 266.436436 241.113448 
L 270.813308 241.145682 
L 275.190179 241.176175 
L 279.56705 241.205053 
L 283.943921 241.232432 
L 288.320793 241.258415 
L 292.697664 241.283099 
L 297.074535 241.30657 
L 301.451407 241.328909 
L 305.828278 241.350188 
L 310.205149 241.370476 
L 314.58202 241.389833 
L 318.958892 241.408318 
L 323.335763 241.425983 
L 327.712634 241.442875 
L 332.089505 241.459042 
L 336.466377 241.474523 
L 340.843248 241.489359 
L 345.220119 241.503584 
L 349.596991 241.517232 
L 353.973862 241.530334 
L 358.350733 241.542919 
L 362.727604 241.555015 
L 367.104476 241.566645 
L 371.481347 241.577835 
L 375.858218 241.588605 
L 380.235089 241.598976 
L 384.611961 241.608969 
L 388.988832 241.6186 
L 393.365703 241.627887 
L 397.742575 241.636846 
L 402.119446 241.645491 
L 406.496317 241.653838 
L 410.873188 241.661899 
L 415.25006 241.669687 
L 419.626931 241.677213 
L 424.003802 241.684489 
L 428.380673 241.691526 
L 432.757545 241.698333 
L 437.134416 241.704919 
L 441.511287 241.711295 
L 445.888159 241.717467 
L 450.26503 241.723444 
L 454.641901 241.729235 
L 459.018772 241.734845 
L 463.395644 241.740281 
L 467.772515 241.745551 
L 472.149386 241.75066 
L 476.526257 241.755614 
L 480.903129 241.760419 
L 485.28 241.76508 
" clip-path="url(#p2f0bd5be9b)" style="fill: none; stroke: #948e77; stroke-width: 1.5; stroke-linecap: square"/>
   </g>
   <g id="line2d_19">
    <path d="M 56.312286 -1 
L 56.346615 117.113971 
L 60.723487 207.460971 
L 65.100358 226.061288 
L 69.477229 232.861453 
L 73.8541 236.092685 
L 78.230972 237.881269 
L 82.607843 238.975929 
L 86.984714 239.695398 
L 91.361585 240.194154 
L 95.738457 240.554507 
L 100.115328 240.82361 
L 104.492199 241.030076 
L 108.869071 241.192087 
L 113.245942 241.32166 
L 117.622813 241.426992 
L 121.999684 241.513838 
L 126.376556 241.586332 
L 130.753427 241.647509 
L 135.130298 241.699638 
L 139.507169 241.744445 
L 143.884041 241.783259 
L 148.260912 241.81712 
L 152.637783 241.846849 
L 157.014655 241.873104 
L 161.391526 241.896415 
L 165.768397 241.917215 
L 170.145268 241.935858 
L 174.52214 241.952639 
L 178.899011 241.967802 
L 183.275882 241.981554 
L 187.652753 241.994068 
L 192.029625 242.005491 
L 196.406496 242.015949 
L 200.783367 242.025552 
L 205.160239 242.034391 
L 209.53711 242.042547 
L 213.913981 242.050092 
L 218.290852 242.057085 
L 222.667724 242.063581 
L 227.044595 242.069627 
L 231.421466 242.075264 
L 235.798337 242.08053 
L 240.175209 242.085457 
L 244.55208 242.090075 
L 248.928951 242.09441 
L 253.305823 242.098484 
L 257.682694 242.102319 
L 262.059565 242.105933 
L 266.436436 242.109345 
L 270.813308 242.112568 
L 275.190179 242.115617 
L 279.56705 242.118505 
L 283.943921 242.121243 
L 288.320793 242.123841 
L 292.697664 242.12631 
L 297.074535 242.128657 
L 301.451407 242.130891 
L 305.828278 242.133019 
L 310.205149 242.135048 
L 314.58202 242.136983 
L 318.958892 242.138832 
L 323.335763 242.140598 
L 327.712634 242.142288 
L 332.089505 242.143904 
L 336.466377 242.145452 
L 340.843248 242.146936 
L 345.220119 242.148358 
L 349.596991 242.149723 
L 353.973862 242.151033 
L 358.350733 242.152292 
L 362.727604 242.153501 
L 367.104476 242.154665 
L 371.481347 242.155783 
L 375.858218 242.15686 
L 380.235089 242.157898 
L 384.611961 242.158897 
L 388.988832 242.15986 
L 393.365703 242.160789 
L 397.742575 242.161685 
L 402.119446 242.162549 
L 406.496317 242.163384 
L 410.873188 242.16419 
L 415.25006 242.164969 
L 419.626931 242.165721 
L 424.003802 242.166449 
L 428.380673 242.167153 
L 432.757545 242.167833 
L 437.134416 242.168492 
L 441.511287 242.169129 
L 445.888159 242.169747 
L 450.26503 242.170344 
L 454.641901 242.170923 
L 459.018772 242.171484 
L 463.395644 242.172028 
L 467.772515 242.172555 
L 472.149386 242.173066 
L 476.526257 242.173561 
L 480.903129 242.174042 
L 485.28 242.174508 
" clip-path="url(#p2f0bd5be9b)" style="fill: none; stroke: #666970; stroke-width: 1.5; stroke-linecap: square"/>
   </g>
   <g id="line2d_20">
    <path d="M 55.676068 -1 
L 56.346615 229.709397 
L 60.723487 238.744097 
L 65.100358 240.604129 
L 69.477229 241.284145 
L 73.8541 241.607268 
L 78.230972 241.786127 
L 82.607843 241.895593 
L 86.984714 241.96754 
L 91.361585 242.017415 
L 95.738457 242.053451 
L 100.115328 242.080361 
L 104.492199 242.101008 
L 108.869071 242.117209 
L 113.245942 242.130166 
L 117.622813 242.140699 
L 121.999684 242.149384 
L 126.376556 242.156633 
L 130.753427 242.162751 
L 135.130298 242.167964 
L 139.507169 242.172445 
L 143.884041 242.176326 
L 148.260912 242.179712 
L 152.637783 242.182685 
L 157.014655 242.18531 
L 161.391526 242.187642 
L 165.768397 242.189721 
L 170.145268 242.191586 
L 174.52214 242.193264 
L 178.899011 242.19478 
L 183.275882 242.196155 
L 187.652753 242.197407 
L 192.029625 242.198549 
L 196.406496 242.199595 
L 200.783367 242.200555 
L 205.160239 242.201439 
L 209.53711 242.202255 
L 213.913981 242.203009 
L 218.290852 242.203708 
L 222.667724 242.204358 
L 227.044595 242.204963 
L 231.421466 242.205526 
L 235.798337 242.206053 
L 240.175209 242.206546 
L 244.55208 242.207008 
L 248.928951 242.207441 
L 253.305823 242.207848 
L 257.682694 242.208232 
L 262.059565 242.208593 
L 266.436436 242.208934 
L 270.813308 242.209257 
L 275.190179 242.209562 
L 279.56705 242.209851 
L 283.943921 242.210124 
L 288.320793 242.210384 
L 292.697664 242.210631 
L 297.074535 242.210866 
L 301.451407 242.211089 
L 305.828278 242.211302 
L 310.205149 242.211505 
L 314.58202 242.211698 
L 318.958892 242.211883 
L 323.335763 242.21206 
L 327.712634 242.212229 
L 332.089505 242.21239 
L 336.466377 242.212545 
L 340.843248 242.212694 
L 345.220119 242.212836 
L 349.596991 242.212972 
L 353.973862 242.213103 
L 358.350733 242.213229 
L 362.727604 242.21335 
L 367.104476 242.213466 
L 371.481347 242.213578 
L 375.858218 242.213686 
L 380.235089 242.21379 
L 384.611961 242.21389 
L 388.988832 242.213986 
L 393.365703 242.214079 
L 397.742575 242.214168 
L 402.119446 242.214255 
L 406.496317 242.214338 
L 410.873188 242.214419 
L 415.25006 242.214497 
L 419.626931 242.214572 
L 424.003802 242.214645 
L 428.380673 242.214715 
L 432.757545 242.214783 
L 437.134416 242.214849 
L 441.511287 242.214913 
L 445.888159 242.214975 
L 450.26503 242.215034 
L 454.641901 242.215092 
L 459.018772 242.215148 
L 463.395644 242.215203 
L 467.772515 242.215256 
L 472.149386 242.215307 
L 476.526257 242.215356 
L 480.903129 242.215404 
L 485.28 242.215451 
" clip-path="url(#p2f0bd5be9b)" style="fill: none; stroke: #35456c; stroke-width: 1.5; stroke-linecap: square"/>
   </g>
   <g id="line2d_21">
    <path d="M 51.969744 90.377746 
L 56.346615 240.96894 
L 60.723487 241.87241 
L 65.100358 242.058413 
L 69.477229 242.126415 
L 73.8541 242.158727 
L 78.230972 242.176613 
L 82.607843 242.187559 
L 86.984714 242.194754 
L 91.361585 242.199742 
L 95.738457 242.203345 
L 100.115328 242.206036 
L 104.492199 242.208101 
L 108.869071 242.209721 
L 113.245942 242.211017 
L 117.622813 242.21207 
L 121.999684 242.212938 
L 126.376556 242.213663 
L 130.753427 242.214275 
L 135.130298 242.214796 
L 139.507169 242.215244 
L 143.884041 242.215633 
L 148.260912 242.215971 
L 152.637783 242.216268 
L 157.014655 242.216531 
L 161.391526 242.216764 
L 165.768397 242.216972 
L 170.145268 242.217159 
L 174.52214 242.217326 
L 178.899011 242.217478 
L 183.275882 242.217616 
L 187.652753 242.217741 
L 192.029625 242.217855 
L 196.406496 242.217959 
L 200.783367 242.218056 
L 205.160239 242.218144 
L 209.53711 242.218225 
L 213.913981 242.218301 
L 218.290852 242.218371 
L 222.667724 242.218436 
L 227.044595 242.218496 
L 231.421466 242.218553 
L 235.798337 242.218605 
L 240.175209 242.218655 
L 244.55208 242.218701 
L 248.928951 242.218744 
L 253.305823 242.218785 
L 257.682694 242.218823 
L 262.059565 242.218859 
L 266.436436 242.218893 
L 270.813308 242.218926 
L 275.190179 242.218956 
L 279.56705 242.218985 
L 283.943921 242.219012 
L 288.320793 242.219038 
L 292.697664 242.219063 
L 297.074535 242.219087 
L 301.451407 242.219109 
L 305.828278 242.21913 
L 310.205149 242.21915 
L 314.58202 242.21917 
L 318.958892 242.219188 
L 323.335763 242.219206 
L 327.712634 242.219223 
L 332.089505 242.219239 
L 336.466377 242.219255 
L 340.843248 242.219269 
L 345.220119 242.219284 
L 349.596991 242.219297 
L 353.973862 242.21931 
L 358.350733 242.219323 
L 362.727604 242.219335 
L 367.104476 242.219347 
L 371.481347 242.219358 
L 375.858218 242.219369 
L 380.235089 242.219379 
L 384.611961 242.219389 
L 388.988832 242.219399 
L 393.365703 242.219408 
L 397.742575 242.219417 
L 402.119446 242.219425 
L 406.496317 242.219434 
L 410.873188 242.219442 
L 415.25006 242.21945 
L 419.626931 242.219457 
L 424.003802 242.219464 
L 428.380673 242.219472 
L 432.757545 242.219478 
L 437.134416 242.219485 
L 441.511287 242.219491 
L 445.888159 242.219497 
L 450.26503 242.219503 
L 454.641901 242.219509 
L 459.018772 242.219515 
L 463.395644 242.21952 
L 467.772515 242.219526 
L 472.149386 242.219531 
L 476.526257 242.219536 
L 480.903129 242.21954 
L 485.28 242.219545 
" clip-path="url(#p2f0bd5be9b)" style="fill: none; stroke: #00224e; stroke-width: 1.5; stroke-linecap: square"/>
   </g>
   <g id="patch_3">
    <path d="M 51.536 318.04 
L 51.536 14.76 
" style="fill: none; stroke: #000000; stroke-width: 0.8; stroke-linejoin: miter; stroke-linecap: square"/>
   </g>
   <g id="patch_4">
    <path d="M 485.28 318.04 
L 485.28 14.76 
" style="fill: none; stroke: #000000; stroke-width: 0.8; stroke-linejoin: miter; stroke-linecap: square"/>
   </g>
   <g id="patch_5">
    <path d="M 51.536 318.04 
L 485.28 318.04 
" style="fill: none; stroke: #000000; stroke-width: 0.8; stroke-linejoin: miter; stroke-linecap: square"/>
   </g>
   <g id="patch_6">
    <path d="M 51.536 14.76 
L 485.28 14.76 
" style="fill: none; stroke: #000000; stroke-width: 0.8; stroke-linejoin: miter; stroke-linecap: square"/>
   </g>
   <g id="legend_1">
    <g id="patch_7">
     <path d="M 388.28 110.82875 
L 480.28 110.82875 
L 480.28 19.76 
L 388.28 19.76 
L 388.28 110.82875 
z
" style="fill: none; opacity: 0"/>
    </g>
    <g id="line2d_22">
     <path d="M 392.28 27.858437 
L 402.28 27.858437 
L 412.28 27.858437 
" style="fill: none; stroke: #fee838; stroke-width: 1.5; stroke-linecap: square"/>
    </g>
    <g id="text_18">
     <!-- $a=1e+01$ -->
     <g transform="translate(420.28 31.358437) scale(0.1 -0.1)">
      <defs>
       <path id="DejaVuSans-Oblique-61" d="M 3438 1997 
L 3047 0 
L 2472 0 
L 2578 531 
Q 2325 219 2001 64 
Q 1678 -91 1281 -91 
Q 834 -91 548 182 
Q 263 456 263 884 
Q 263 1497 752 1853 
Q 1241 2209 2100 2209 
L 2900 2209 
L 2931 2363 
Q 2938 2388 2941 2417 
Q 2944 2447 2944 2509 
Q 2944 2788 2717 2942 
Q 2491 3097 2081 3097 
Q 1800 3097 1504 3025 
Q 1209 2953 897 2809 
L 997 3341 
Q 1322 3463 1633 3523 
Q 1944 3584 2234 3584 
Q 2853 3584 3176 3315 
Q 3500 3047 3500 2534 
Q 3500 2431 3484 2292 
Q 3469 2153 3438 1997 
z
M 2816 1759 
L 2241 1759 
Q 1534 1759 1195 1570 
Q 856 1381 856 984 
Q 856 709 1029 553 
Q 1203 397 1509 397 
Q 1978 397 2328 733 
Q 2678 1069 2791 1631 
L 2816 1759 
z
" transform="scale(0.015625)"/>
       <path id="DejaVuSans-3d" d="M 678 2906 
L 4684 2906 
L 4684 2381 
L 678 2381 
L 678 2906 
z
M 678 1631 
L 4684 1631 
L 4684 1100 
L 678 1100 
L 678 1631 
z
" transform="scale(0.015625)"/>
       <path id="DejaVuSans-Oblique-65" d="M 3078 2063 
Q 3088 2113 3092 2166 
Q 3097 2219 3097 2272 
Q 3097 2653 2873 2875 
Q 2650 3097 2266 3097 
Q 1838 3097 1509 2826 
Q 1181 2556 1013 2059 
L 3078 2063 
z
M 3578 1613 
L 903 1613 
Q 884 1494 878 1425 
Q 872 1356 872 1306 
Q 872 872 1139 634 
Q 1406 397 1894 397 
Q 2269 397 2603 481 
Q 2938 566 3225 728 
L 3116 159 
Q 2806 34 2476 -28 
Q 2147 -91 1806 -91 
Q 1078 -91 686 257 
Q 294 606 294 1247 
Q 294 1794 489 2264 
Q 684 2734 1063 3103 
Q 1306 3334 1642 3459 
Q 1978 3584 2356 3584 
Q 2950 3584 3301 3228 
Q 3653 2872 3653 2272 
Q 3653 2128 3634 1964 
Q 3616 1800 3578 1613 
z
" transform="scale(0.015625)"/>
       <path id="DejaVuSans-2b" d="M 2944 4013 
L 2944 2272 
L 4684 2272 
L 4684 1741 
L 2944 1741 
L 2944 0 
L 2419 0 
L 2419 1741 
L 678 1741 
L 678 2272 
L 2419 2272 
L 2419 4013 
L 2944 4013 
z
" transform="scale(0.015625)"/>
      </defs>
      <use xlink:href="#DejaVuSans-Oblique-61" transform="translate(0 0.78125)"/>
      <use xlink:href="#DejaVuSans-3d" transform="translate(80.761719 0.78125)"/>
      <use xlink:href="#DejaVuSans-31" transform="translate(184.033203 0.78125)"/>
      <use xlink:href="#DejaVuSans-Oblique-65" transform="translate(247.65625 0.78125)"/>
      <use xlink:href="#DejaVuSans-2b" transform="translate(328.662109 0.78125)"/>
      <use xlink:href="#DejaVuSans-30" transform="translate(431.933594 0.78125)"/>
      <use xlink:href="#DejaVuSans-31" transform="translate(495.556641 0.78125)"/>
     </g>
    </g>
    <g id="line2d_23">
     <path d="M 392.28 42.536563 
L 402.28 42.536563 
L 412.28 42.536563 
" style="fill: none; stroke: #c8b866; stroke-width: 1.5; stroke-linecap: square"/>
    </g>
    <g id="text_19">
     <!-- $a=1e+02$ -->
     <g transform="translate(420.28 46.036563) scale(0.1 -0.1)">
      <use xlink:href="#DejaVuSans-Oblique-61" transform="translate(0 0.78125)"/>
      <use xlink:href="#DejaVuSans-3d" transform="translate(80.761719 0.78125)"/>
      <use xlink:href="#DejaVuSans-31" transform="translate(184.033203 0.78125)"/>
      <use xlink:href="#DejaVuSans-Oblique-65" transform="translate(247.65625 0.78125)"/>
      <use xlink:href="#DejaVuSans-2b" transform="translate(328.662109 0.78125)"/>
      <use xlink:href="#DejaVuSans-30" transform="translate(431.933594 0.78125)"/>
      <use xlink:href="#DejaVuSans-32" transform="translate(495.556641 0.78125)"/>
     </g>
    </g>
    <g id="line2d_24">
     <path d="M 392.28 57.214687 
L 402.28 57.214687 
L 412.28 57.214687 
" style="fill: none; stroke: #948e77; stroke-width: 1.5; stroke-linecap: square"/>
    </g>
    <g id="text_20">
     <!-- $a=1e+03$ -->
     <g transform="translate(420.28 60.714687) scale(0.1 -0.1)">
      <use xlink:href="#DejaVuSans-Oblique-61" transform="translate(0 0.78125)"/>
      <use xlink:href="#DejaVuSans-3d" transform="translate(80.761719 0.78125)"/>
      <use xlink:href="#DejaVuSans-31" transform="translate(184.033203 0.78125)"/>
      <use xlink:href="#DejaVuSans-Oblique-65" transform="translate(247.65625 0.78125)"/>
      <use xlink:href="#DejaVuSans-2b" transform="translate(328.662109 0.78125)"/>
      <use xlink:href="#DejaVuSans-30" transform="translate(431.933594 0.78125)"/>
      <use xlink:href="#DejaVuSans-33" transform="translate(495.556641 0.78125)"/>
     </g>
    </g>
    <g id="line2d_25">
     <path d="M 392.28 71.892812 
L 402.28 71.892812 
L 412.28 71.892812 
" style="fill: none; stroke: #666970; stroke-width: 1.5; stroke-linecap: square"/>
    </g>
    <g id="text_21">
     <!-- $a=1e+04$ -->
     <g transform="translate(420.28 75.392812) scale(0.1 -0.1)">
      <use xlink:href="#DejaVuSans-Oblique-61" transform="translate(0 0.78125)"/>
      <use xlink:href="#DejaVuSans-3d" transform="translate(80.761719 0.78125)"/>
      <use xlink:href="#DejaVuSans-31" transform="translate(184.033203 0.78125)"/>
      <use xlink:href="#DejaVuSans-Oblique-65" transform="translate(247.65625 0.78125)"/>
      <use xlink:href="#DejaVuSans-2b" transform="translate(328.662109 0.78125)"/>
      <use xlink:href="#DejaVuSans-30" transform="translate(431.933594 0.78125)"/>
      <use xlink:href="#DejaVuSans-34" transform="translate(495.556641 0.78125)"/>
     </g>
    </g>
    <g id="line2d_26">
     <path d="M 392.28 86.570938 
L 402.28 86.570938 
L 412.28 86.570938 
" style="fill: none; stroke: #35456c; stroke-width: 1.5; stroke-linecap: square"/>
    </g>
    <g id="text_22">
     <!-- $a=1e+05$ -->
     <g transform="translate(420.28 90.070938) scale(0.1 -0.1)">
      <use xlink:href="#DejaVuSans-Oblique-61" transform="translate(0 0.78125)"/>
      <use xlink:href="#DejaVuSans-3d" transform="translate(80.761719 0.78125)"/>
      <use xlink:href="#DejaVuSans-31" transform="translate(184.033203 0.78125)"/>
      <use xlink:href="#DejaVuSans-Oblique-65" transform="translate(247.65625 0.78125)"/>
      <use xlink:href="#DejaVuSans-2b" transform="translate(328.662109 0.78125)"/>
      <use xlink:href="#DejaVuSans-30" transform="translate(431.933594 0.78125)"/>
      <use xlink:href="#DejaVuSans-35" transform="translate(495.556641 0.78125)"/>
     </g>
    </g>
    <g id="line2d_27">
     <path d="M 392.28 101.249062 
L 402.28 101.249062 
L 412.28 101.249062 
" style="fill: none; stroke: #00224e; stroke-width: 1.5; stroke-linecap: square"/>
    </g>
    <g id="text_23">
     <!-- $a=1e+06$ -->
     <g transform="translate(420.28 104.749062) scale(0.1 -0.1)">
      <use xlink:href="#DejaVuSans-Oblique-61" transform="translate(0 0.78125)"/>
      <use xlink:href="#DejaVuSans-3d" transform="translate(80.761719 0.78125)"/>
      <use xlink:href="#DejaVuSans-31" transform="translate(184.033203 0.78125)"/>
      <use xlink:href="#DejaVuSans-Oblique-65" transform="translate(247.65625 0.78125)"/>
      <use xlink:href="#DejaVuSans-2b" transform="translate(328.662109 0.78125)"/>
      <use xlink:href="#DejaVuSans-30" transform="translate(431.933594 0.78125)"/>
      <use xlink:href="#DejaVuSans-36" transform="translate(495.556641 0.78125)"/>
     </g>
    </g>
   </g>
  </g>
 </g>
 <defs>
  <clipPath id="p2f0bd5be9b">
   <rect x="51.536" y="14.76" width="433.744" height="303.28"/>
  </clipPath>
 </defs>
</svg>
